<svg width="150" height="109" viewBox="0 0 150 109" fill="none" xmlns="http://www.w3.org/2000/svg">
<path d="M83.5212 2.68204C93.7674 0.474627 110.849 -1.4707 119.952 5.71463C120.57 6.20224 120.911 6.89886 121.116 7.75521C122.614 14.0089 110.42 15.8018 109.217 10.1063C109.054 9.33308 109.123 8.46152 109.397 7.74681C113.608 -3.24232 142.555 -2.52475 147.907 15.3823C158.224 49.8959 42.9866 43.8063 2.52374 104.794C0.234342 108.244 1.81548 103.752 1.85231 102.732C1.92134 100.819 2.9629 98.623 3.83504 97.2153C4.40584 96.294 -0.0110867 107.646 0.549261 108.412C1.10961 109.178 9.29772 104.713 11.484 104.028C12.7964 103.666 14.5207 103.273 16.9529 102.677" stroke="#C6C6C6" stroke-linecap="round"/>
</svg>
