<svg width="160" height="80" viewBox="0 0 160 80" fill="none" xmlns="http://www.w3.org/2000/svg">
<path d="M20.3705 8.70336C21.8424 3.55174 26.551 0 31.9088 0H120.228C140.159 0 154.549 19.0771 149.074 38.2416L139.63 71.2966C138.158 76.4483 133.449 80 128.091 80H39.7719C19.8405 80 5.45061 60.9229 10.9262 41.7584L20.3705 8.70336Z" fill="#F3D3B1"/>
<path d="M72.4999 31.2757V36.3157L58.1639 45.1077V43.7637L72.4999 53.2277V58.2677L53.9079 46.2277V42.7557L72.4999 31.2757ZM77.8598 26.1797C79.0918 24.9477 80.8278 23.9024 83.0678 23.0437C85.3451 22.185 87.6971 21.7557 90.1238 21.7557C92.5131 21.7557 94.6038 22.1664 96.3958 22.9877C98.2251 23.809 99.6438 24.9477 100.652 26.4037C101.66 27.8597 102.164 29.521 102.164 31.3877C102.164 33.5904 101.566 35.401 100.372 36.8197C99.2144 38.2384 97.7771 39.2277 96.0598 39.7877C97.3664 40.049 98.6544 40.5717 99.9238 41.3557C101.23 42.1397 102.313 43.241 103.172 44.6597C104.03 46.041 104.46 47.7024 104.46 49.6437C104.46 51.9957 103.862 54.0864 102.668 55.9157C101.473 57.745 99.7931 59.1637 97.6278 60.1717C95.4624 61.1797 92.9984 61.6837 90.2357 61.6837C87.8091 61.6837 85.4384 61.3477 83.1238 60.6757C80.8091 59.9664 79.0358 59.0704 77.8038 57.9877L80.0438 53.9557C81.4624 54.889 83.0118 55.5984 84.6918 56.0837C86.4091 56.569 88.2011 56.8117 90.0678 56.8117C92.8304 56.8117 95.0704 56.177 96.7878 54.9077C98.5051 53.6384 99.3638 51.8277 99.3638 49.4757C99.3638 47.161 98.3931 45.4437 96.4518 44.3237C94.5104 43.2037 92.1211 42.6437 89.2838 42.6437H84.3558V37.9957H88.4998C90.1424 37.9957 91.6171 37.753 92.9238 37.2677C94.2304 36.7824 95.2384 36.0917 95.9478 35.1957C96.6944 34.2997 97.0678 33.2544 97.0678 32.0597C97.0678 30.3424 96.3958 29.017 95.0518 28.0837C93.7078 27.113 92.0091 26.6277 89.9558 26.6277C88.1264 26.6277 86.4091 26.9264 84.8038 27.5237C83.1984 28.121 81.6304 28.961 80.0998 30.0437L77.8598 26.1797Z" fill="black"/>
</svg>
