<svg width="320" height="428" viewBox="0 0 320 428" fill="none" xmlns="http://www.w3.org/2000/svg" xmlns:xlink="http://www.w3.org/1999/xlink">
<g style="mix-blend-mode:color-burn">
<rect width="662" height="588.941" transform="translate(-35)" fill="url(#pattern0_5639_73405)" fill-opacity="0.8"/>
</g>
<defs>
<pattern id="pattern0_5639_73405" patternUnits="userSpaceOnUse" patternTransform="matrix(775.54 0 0 559.695 1.3291 0)" preserveAspectRatio="none" viewBox="1.44531 0 843.352 608.633" width="1" height="1">
<g id="pattern0_5639_73405_inner">
<path d="M147.975 201.836C147.344 198.363 144.318 195.838 140.788 195.838H131.637C127.08 195.838 123.635 199.965 124.45 204.449L131.394 242.639C132.026 246.113 135.051 248.637 138.581 248.637H147.732C152.289 248.637 155.734 244.51 154.919 240.026L147.975 201.836Z" fill="#171733" fill-opacity="0.08"/>
<path d="M559.811 146.157C559.179 142.683 556.154 140.159 552.624 140.159H543.473C538.916 140.159 535.471 144.286 536.286 148.77L543.23 186.96C543.862 190.433 546.887 192.958 550.417 192.958H559.568C564.125 192.958 567.57 188.831 566.755 184.347L559.811 146.157Z" fill="#171733" fill-opacity="0.08"/>
<path d="M123.712 124.077C124.344 120.604 127.369 118.079 130.899 118.079H140.05C144.608 118.079 148.052 122.207 147.237 126.69L140.293 164.881C139.662 168.354 136.637 170.878 133.107 170.878H123.956C119.398 170.878 115.954 166.751 116.769 162.267L123.712 124.077Z" fill="#171733" fill-opacity="0.08"/>
<path d="M535.545 68.3973C536.176 64.924 539.201 62.3994 542.731 62.3994H551.882C556.44 62.3994 559.884 66.5268 559.069 71.0107L552.125 109.201C551.494 112.674 548.469 115.199 544.939 115.199H535.788C531.23 115.199 527.786 111.071 528.601 106.588L535.545 68.3973Z" fill="#171733" fill-opacity="0.08"/>
<path d="M206.267 367.433C206.899 363.96 209.924 361.436 213.454 361.436H222.605C227.162 361.436 230.607 365.563 229.792 370.047L222.848 408.237C222.217 411.71 219.192 414.235 215.661 414.235H206.51C201.953 414.235 198.508 410.108 199.323 405.624L206.267 367.433Z" fill="#171733" fill-opacity="0.08"/>
<path d="M618.103 311.754C618.735 308.281 621.76 305.756 625.29 305.756H634.441C638.998 305.756 642.443 309.884 641.628 314.368L634.684 352.558C634.052 356.031 631.027 358.556 627.497 358.556H618.346C613.789 358.556 610.344 354.428 611.159 349.944L618.103 311.754Z" fill="#171733" fill-opacity="0.08"/>
<path d="M142.904 282.475C143.535 279.002 146.56 276.477 150.091 276.477H159.242C163.799 276.477 167.244 280.604 166.428 285.088L159.485 323.279C158.853 326.752 155.828 329.276 152.298 329.276H143.147C138.59 329.276 135.145 325.149 135.96 320.665L142.904 282.475Z" fill="#171733" fill-opacity="0.08"/>
<path d="M554.744 226.796C555.375 223.322 558.4 220.798 561.93 220.798H571.082C575.639 220.798 579.084 224.925 578.268 229.409L571.325 267.599C570.693 271.073 567.668 273.597 564.138 273.597H554.987C550.429 273.597 546.985 269.47 547.8 264.986L554.744 226.796Z" fill="#171733" fill-opacity="0.08"/>
<path d="M197.627 543.591C198.258 540.118 201.283 537.593 204.813 537.593H213.964C218.522 537.593 221.966 541.721 221.151 546.205L214.207 584.395C213.576 587.868 210.551 590.393 207.021 590.393H197.87C193.312 590.393 189.868 586.265 190.683 581.781L197.627 543.591Z" fill="#171733" fill-opacity="0.08"/>
<path d="M609.462 487.913C610.094 484.44 613.119 481.915 616.649 481.915H625.8C630.358 481.915 633.802 486.042 632.987 490.526L626.043 528.717C625.412 532.19 622.387 534.714 618.857 534.714H609.706C605.148 534.714 601.704 530.587 602.519 526.103L609.462 487.913Z" fill="#171733" fill-opacity="0.08"/>
<path d="M270.806 288.302C270.203 284.798 267.164 282.237 263.607 282.237H254.432C249.902 282.237 246.465 286.317 247.233 290.781L264.878 393.29C265.481 396.795 268.521 399.355 272.077 399.355H281.253C285.782 399.355 289.22 395.276 288.451 390.812L270.806 288.302Z" fill="#171733" fill-opacity="0.08"/>
<path d="M682.634 232.623C682.031 229.119 678.992 226.558 675.436 226.558H666.26C661.73 226.558 658.293 230.637 659.061 235.101L676.706 337.611C677.309 341.115 680.349 343.676 683.905 343.676H693.081C697.61 343.676 701.048 339.596 700.279 335.133L682.634 232.623Z" fill="#171733" fill-opacity="0.08"/>
<path d="M52.7173 84.7842C53.3205 81.2796 56.3599 78.7188 59.916 78.7188H69.0917C73.6212 78.7188 77.0588 82.7986 76.2904 87.2624L58.6453 189.772C58.0421 193.276 55.0027 195.837 51.4466 195.837H42.2709C37.7414 195.837 34.3038 191.758 35.0722 187.294L52.7173 84.7842Z" fill="#171733" fill-opacity="0.08"/>
<path d="M464.553 29.105C465.156 25.6004 468.196 23.0396 471.752 23.0396H480.928C485.457 23.0396 488.895 27.1194 488.126 31.5832L470.481 134.093C469.878 137.597 466.839 140.158 463.283 140.158H454.107C449.577 140.158 446.14 136.078 446.908 131.614L464.553 29.105Z" fill="#171733" fill-opacity="0.08"/>
<path d="M250.475 497.58C251.078 494.075 254.118 491.514 257.674 491.514H266.85C271.379 491.514 274.817 495.594 274.048 500.058L256.403 602.567C255.8 606.072 252.761 608.633 249.204 608.633H240.029C235.499 608.633 232.062 604.553 232.83 600.089L250.475 497.58Z" fill="#171733" fill-opacity="0.08"/>
<path d="M662.311 441.9C662.914 438.395 665.954 435.834 669.51 435.834H678.685C683.215 435.834 686.653 439.914 685.884 444.378L668.239 546.888C667.636 550.392 664.596 552.953 661.04 552.953H651.865C647.335 552.953 643.898 548.873 644.666 544.409L662.311 441.9Z" fill="#171733" fill-opacity="0.08"/>
<path d="M232.286 78.7188C236.815 78.7189 240.253 82.7989 239.484 87.2627L221.84 189.771C221.237 193.276 218.197 195.837 214.641 195.837H205.465C203.132 195.837 197.265 197.54 196.865 199.839L194.018 216.187C193.408 219.684 190.372 222.237 186.821 222.237H177.65C173.115 222.237 169.676 218.148 170.454 213.68L180.869 153.89C181.478 150.392 184.515 147.839 188.065 147.839H197.236C199.607 147.839 205.344 146.174 205.746 143.838L215.911 84.7842C216.514 81.2796 219.554 78.7188 223.11 78.7188H232.286Z" fill="#171733" fill-opacity="0.08"/>
<path d="M644.121 23.0396C648.651 23.0396 652.088 27.1197 651.319 31.5835L633.675 134.092C633.072 137.597 630.032 140.158 626.476 140.158H617.3C614.967 140.158 609.1 141.861 608.7 144.159L605.853 160.507C605.243 164.005 602.207 166.558 598.656 166.558H589.485C584.95 166.558 581.512 162.468 582.29 158L592.705 98.2104C593.314 94.7127 596.35 92.1589 599.9 92.1587H609.071C611.442 92.1587 617.179 90.4948 617.581 88.1587L627.746 29.105C628.349 25.6004 631.389 23.0396 634.945 23.0396H644.121Z" fill="#171733" fill-opacity="0.08"/>
<path d="M77.8477 267.837C81.3981 267.837 84.4345 270.39 85.0439 273.888L85.9882 279.311C86.4338 281.869 91.0414 283.197 93.6387 283.197H102.809C106.359 283.197 109.395 285.75 110.005 289.248L120.42 349.038C121.198 353.506 117.759 357.597 113.224 357.597H104.054C100.503 357.597 97.4667 355.043 96.8574 351.545L95.9127 346.122C95.4669 343.563 90.86 342.236 88.2627 342.236H79.0928C75.5422 342.236 72.5058 339.682 71.8965 336.185L61.4814 276.395C60.7034 271.927 64.1425 267.837 68.6777 267.837H77.8477Z" fill="#171733" fill-opacity="0.08"/>
<path d="M489.685 212.157C493.235 212.157 496.271 214.711 496.88 218.209L497.824 223.63C498.27 226.189 502.877 227.517 505.475 227.517H514.646C518.196 227.517 521.232 230.071 521.841 233.568L532.256 293.357C533.034 297.826 529.595 301.916 525.06 301.916H515.89C512.339 301.916 509.303 299.363 508.693 295.865L507.749 290.442C507.303 287.883 502.696 286.557 500.099 286.557H490.929C487.378 286.557 484.342 284.004 483.732 280.506L473.317 220.716C472.539 216.248 475.978 212.157 480.514 212.157H489.685Z" fill="#171733" fill-opacity="0.08"/>
<path d="M418.981 97.9189C423.517 97.919 426.956 102.009 426.178 106.477L415.763 166.267C415.153 169.764 412.117 172.318 408.566 172.318C404.084 172.318 400.696 176.378 401.498 180.788L403.542 192.026C404.357 196.51 400.912 200.638 396.354 200.638H387.204C383.674 200.638 380.648 198.113 380.017 194.64L373.073 156.45C372.258 151.966 375.703 147.839 380.26 147.839H389.411C391.83 147.839 395.17 146.703 395.585 144.319L402.614 103.97C403.224 100.472 406.26 97.9191 409.811 97.9189H418.981Z" fill="#171733" fill-opacity="0.08"/>
<path d="M830.829 42.2397C835.364 42.2398 838.803 46.3294 838.025 50.7974L827.61 110.587C827.001 114.085 823.965 116.639 820.414 116.639C815.932 116.639 812.544 120.699 813.345 125.109L815.389 136.347C816.204 140.831 812.759 144.958 808.202 144.958H799.052C795.522 144.958 792.496 142.434 791.864 138.96L784.921 100.77C784.106 96.2863 787.55 92.1588 792.107 92.1587H801.259C803.678 92.1587 807.018 91.0231 807.433 88.6397L814.462 48.2905C815.071 44.7928 818.108 42.2398 821.658 42.2397H830.829Z" fill="#171733" fill-opacity="0.08"/>
<path d="M186.628 273.888C187.238 270.39 190.274 267.837 193.825 267.837H202.995C207.531 267.837 210.97 271.927 210.191 276.395L199.776 336.185C199.167 339.683 196.131 342.236 192.58 342.236H183.41C178.874 342.236 175.435 338.146 176.213 333.678L186.628 273.888Z" fill="#171733" fill-opacity="0.08"/>
<path d="M598.464 218.208C599.074 214.71 602.11 212.157 605.661 212.157H614.831C619.367 212.157 622.806 216.247 622.027 220.715L611.612 280.505C611.003 284.003 607.967 286.556 604.416 286.556H595.246C590.71 286.556 587.271 282.466 588.049 277.998L598.464 218.208Z" fill="#171733" fill-opacity="0.08"/>
<path d="M42.3364 510.045C41.7271 506.547 38.6908 503.994 35.1402 503.994H25.9696C21.4342 503.994 17.9951 508.084 18.7734 512.552L29.1884 572.342C29.7977 575.84 32.8341 578.393 36.3846 578.393H45.5552C50.0906 578.393 53.5297 574.303 52.7514 569.835L42.3364 510.045Z" fill="#171733" fill-opacity="0.08"/>
<path d="M454.168 454.366C453.559 450.868 450.523 448.315 446.972 448.315H437.802C433.266 448.315 429.827 452.405 430.605 456.873L441.02 516.663C441.63 520.161 444.666 522.714 448.217 522.714H457.387C461.923 522.714 465.362 518.624 464.583 514.156L454.168 454.366Z" fill="#171733" fill-opacity="0.08"/>
<path d="M419.614 364.127C419.004 360.629 415.968 358.076 412.418 358.076H403.247C398.712 358.076 395.272 362.166 396.051 366.634L406.466 426.424C407.075 429.922 410.111 432.475 413.662 432.475H422.833C427.368 432.475 430.807 428.385 430.029 423.917L419.614 364.127Z" fill="#171733" fill-opacity="0.08"/>
<path d="M831.446 308.448C830.836 304.95 827.8 302.396 824.25 302.396H815.079C810.544 302.396 807.104 306.486 807.883 310.955L818.298 370.745C818.907 374.242 821.943 376.796 825.494 376.796H834.665C839.2 376.796 842.639 372.706 841.861 368.238L831.446 308.448Z" fill="#171733" fill-opacity="0.08"/>
<path d="M320.727 393.595C324.277 393.595 327.313 396.148 327.923 399.646L338.338 459.436C339.116 463.904 335.677 467.995 331.142 467.995C326.996 467.995 323.852 471.733 324.564 475.817L332.58 521.835C333.358 526.304 329.919 530.393 325.384 530.393H316.214C312.663 530.393 309.627 527.84 309.018 524.342L306.373 509.162C305.935 506.645 302.017 505.434 299.462 505.434H290.292C286.741 505.434 283.705 502.88 283.096 499.382L272.681 439.592C271.903 435.124 275.342 431.035 279.877 431.035H289.047C292.597 431.035 295.634 433.588 296.243 437.085L298.887 452.266C299.326 454.783 303.244 455.995 305.799 455.995C309.944 455.995 313.088 452.256 312.377 448.172L304.36 402.153C303.582 397.685 307.021 393.595 311.557 393.595H320.727Z" fill="#171733" fill-opacity="0.08"/>
<path d="M732.567 337.916C736.118 337.916 739.153 340.469 739.763 343.967L750.178 403.757C750.956 408.225 747.517 412.315 742.981 412.315C738.832 412.315 735.685 416.058 736.397 420.146L744.412 466.156C745.19 470.624 741.751 474.715 737.216 474.715H728.046C724.495 474.715 721.459 472.161 720.85 468.663L718.204 453.481C717.766 450.964 713.849 449.754 711.294 449.754H702.124C698.573 449.754 695.537 447.201 694.928 443.703L684.513 383.913C683.734 379.445 687.174 375.355 691.709 375.355H700.88C704.43 375.356 707.466 377.909 708.075 381.406L710.719 396.587C711.158 399.104 715.076 400.315 717.631 400.315C721.781 400.315 724.927 396.573 724.215 392.485L716.2 346.474C715.422 342.006 718.861 337.916 723.396 337.916H732.567Z" fill="#171733" fill-opacity="0.08"/>
<path d="M296.509 114.477C297.141 111.004 300.166 108.479 303.696 108.479H312.847C317.405 108.479 320.849 112.606 320.034 117.09L313.09 155.28C312.459 158.754 309.434 161.278 305.903 161.278H296.752C292.195 161.278 288.75 157.151 289.566 152.667L296.509 114.477Z" fill="#171733" fill-opacity="0.08"/>
<path d="M708.345 58.7972C708.977 55.3239 712.002 52.7993 715.532 52.7993H724.683C729.24 52.7993 732.685 56.9267 731.87 61.4106L724.926 99.6008C724.295 103.074 721.27 105.599 717.739 105.599H708.588C704.031 105.599 700.586 101.471 701.402 96.9874L708.345 58.7972Z" fill="#171733" fill-opacity="0.08"/>
<path d="M353.146 346.794C353.778 343.321 356.803 340.796 360.333 340.796H369.484C374.041 340.796 377.486 344.923 376.671 349.407L369.727 387.597C369.095 391.071 366.07 393.595 362.54 393.595H353.389C348.832 393.595 345.387 389.468 346.202 384.984L353.146 346.794Z" fill="#171733" fill-opacity="0.08"/>
<path d="M764.978 291.114C765.61 287.641 768.635 285.116 772.165 285.116H781.316C785.873 285.116 789.318 289.244 788.503 293.727L781.559 331.918C780.927 335.391 777.902 337.916 774.372 337.916H765.221C760.664 337.916 757.219 333.788 758.034 329.304L764.978 291.114Z" fill="#171733" fill-opacity="0.08"/>
<path d="M357.554 239.998C362.089 239.998 365.528 244.087 364.75 248.555L354.335 308.345C353.726 311.843 350.689 314.397 347.139 314.397H337.968C336.404 314.397 334.714 315.246 334.435 316.784L333.254 323.279C332.622 326.752 329.597 329.277 326.067 329.277H316.916C312.359 329.277 308.914 325.149 309.729 320.666L316.673 282.475C317.304 279.002 320.329 276.477 323.859 276.477H333.011C334.474 276.477 336.028 275.656 336.279 274.215L341.187 246.048C341.796 242.551 344.832 239.998 348.383 239.998H357.554Z" fill="#171733" fill-opacity="0.08"/>
<path d="M769.382 184.318C773.917 184.318 777.356 188.408 776.578 192.875L766.163 252.666C765.554 256.163 762.517 258.717 758.967 258.717H749.796C748.233 258.717 746.542 259.566 746.263 261.104L745.082 267.599C744.45 271.072 741.426 273.597 737.896 273.597H728.744C724.187 273.597 720.743 269.469 721.558 264.986L728.501 226.795C729.132 223.322 732.158 220.797 735.688 220.797H744.839C746.303 220.797 747.857 219.976 748.109 218.534L753.016 190.369C753.625 186.871 756.661 184.318 760.211 184.318H769.382Z" fill="#171733" fill-opacity="0.08"/>
<path d="M18.1109 241.196C18.7424 237.722 21.7675 235.198 25.2977 235.198H34.4487C39.0061 235.198 42.4507 239.325 41.6355 243.809L34.6918 281.999C34.0603 285.472 31.0353 287.997 27.5051 287.997H18.354C13.7966 287.997 10.352 283.87 11.1672 279.386L18.1109 241.196Z" fill="#171733" fill-opacity="0.08"/>
<path d="M429.947 185.515C430.578 182.042 433.603 179.518 437.134 179.518H446.285C450.842 179.518 454.287 183.645 453.471 188.129L446.528 226.319C445.896 229.792 442.871 232.317 439.341 232.317H430.19C425.633 232.317 422.188 228.19 423.003 223.706L429.947 185.515Z" fill="#171733" fill-opacity="0.08"/>
<path d="M228.608 446.633C227.976 443.16 224.951 440.635 221.421 440.635H212.27C207.713 440.635 204.268 444.763 205.083 449.247L212.027 487.437C212.658 490.91 215.683 493.435 219.214 493.435H228.365C232.922 493.435 236.367 489.307 235.552 484.823L228.608 446.633Z" fill="#171733" fill-opacity="0.08"/>
<path d="M640.44 390.953C639.808 387.48 636.783 384.956 633.253 384.956H624.102C619.545 384.956 616.1 389.083 616.915 393.567L623.859 431.757C624.49 435.23 627.516 437.755 631.046 437.755H640.197C644.754 437.755 648.199 433.628 647.384 429.144L640.44 390.953Z" fill="#171733" fill-opacity="0.08"/>
<path d="M8.50936 436.073C9.14086 432.599 12.1659 430.075 15.6961 430.075H24.8472C29.4045 430.075 32.8492 434.202 32.0339 438.686L25.0902 476.876C24.4587 480.349 21.4337 482.874 17.9035 482.874H8.75243C4.19508 482.874 0.750438 478.747 1.56568 474.263L8.50936 436.073Z" fill="#171733" fill-opacity="0.08"/>
<path d="M387.709 464.873C388.34 461.4 391.365 458.875 394.895 458.875H404.046C408.604 458.875 412.048 463.002 411.233 467.486L404.289 505.676C403.658 509.15 400.633 511.674 397.103 511.674H387.952C383.394 511.674 379.95 507.547 380.765 503.063L387.709 464.873Z" fill="#171733" fill-opacity="0.08"/>
<path d="M353.146 61.6776C353.778 58.2043 356.803 55.6797 360.333 55.6797H369.484C374.041 55.6797 377.486 59.8071 376.671 64.2909L369.727 102.481C369.095 105.954 366.07 108.479 362.54 108.479H353.389C348.832 108.479 345.387 104.352 346.202 99.8678L353.146 61.6776Z" fill="#171733" fill-opacity="0.08"/>
<path d="M764.978 5.99788C765.61 2.52463 768.635 0 772.165 0H781.316C785.873 0 789.318 4.12741 788.503 8.61125L781.559 46.8015C780.927 50.2747 777.902 52.7994 774.372 52.7994H765.221C760.664 52.7994 757.219 48.672 758.034 44.1881L764.978 5.99788Z" fill="#171733" fill-opacity="0.08"/>
<path d="M398.687 257.277C403.244 257.277 406.688 261.405 405.873 265.889L405.028 270.54C404.466 273.632 406.841 276.478 409.983 276.478C413.513 276.478 416.538 279.002 417.17 282.475L424.113 320.665C424.929 325.149 421.484 329.276 416.927 329.276H407.775C404.245 329.276 401.22 326.751 400.589 323.278L398.872 313.835C398.408 311.287 394.333 310.077 391.743 310.077H382.592C378.035 310.077 374.59 305.95 375.405 301.466L382.349 263.275C382.98 259.802 386.005 257.277 389.535 257.277H398.687Z" fill="#171733" fill-opacity="0.08"/>
<path d="M810.522 201.598C815.08 201.598 818.524 205.726 817.709 210.209L816.864 214.86C816.302 217.951 818.677 220.797 821.819 220.797C825.349 220.798 828.374 223.322 829.006 226.795L835.949 264.986C836.764 269.47 833.32 273.597 828.763 273.597H819.611C816.081 273.597 813.056 271.072 812.425 267.599L810.707 258.156C810.244 255.607 806.169 254.398 803.579 254.398H794.428C789.87 254.398 786.426 250.27 787.241 245.787L794.185 207.596C794.816 204.123 797.841 201.598 801.371 201.598H810.522Z" fill="#171733" fill-opacity="0.08"/>
<path d="M74.7437 188.395C75.3752 184.922 78.4003 182.397 81.9305 182.397H91.0815C95.6389 182.397 99.0835 186.525 98.2683 191.009L91.3246 229.199C90.6931 232.672 87.6681 235.197 84.1379 235.197H74.9868C70.4295 235.197 66.9848 231.069 67.8001 226.586L74.7437 188.395Z" fill="#171733" fill-opacity="0.08"/>
<path d="M486.584 132.717C487.215 129.243 490.24 126.719 493.77 126.719H502.921C507.479 126.719 510.923 130.846 510.108 135.33L503.164 173.52C502.533 176.993 499.508 179.518 495.978 179.518H486.827C482.269 179.518 478.825 175.391 479.64 170.907L486.584 132.717Z" fill="#171733" fill-opacity="0.08"/>
<path d="M140.05 373.436C144.607 373.436 148.053 377.563 147.237 382.047C146.689 385.061 149.005 387.836 152.069 387.836H152.53C157.087 387.836 160.533 391.963 159.718 396.446L152.773 434.637C152.142 438.11 149.117 440.635 145.587 440.635H136.436C131.878 440.634 128.434 436.507 129.249 432.023C129.797 429.009 127.481 426.234 124.418 426.234H123.955C119.398 426.234 115.953 422.107 116.769 417.623L123.712 379.434C124.343 375.96 127.369 373.436 130.899 373.436H140.05Z" fill="#171733" fill-opacity="0.08"/>
<path d="M551.886 317.756C556.443 317.756 559.888 321.884 559.072 326.368C558.524 329.381 560.839 332.156 563.903 332.156H564.366C568.924 332.156 572.368 336.283 571.553 340.767L564.609 378.958C563.978 382.431 560.953 384.955 557.423 384.956H548.271C543.714 384.956 540.27 380.828 541.085 376.344C541.633 373.33 539.318 370.556 536.255 370.556H535.791C531.234 370.556 527.789 366.429 528.604 361.945L535.548 323.754C536.179 320.281 539.204 317.756 542.734 317.756H551.886Z" fill="#171733" fill-opacity="0.08"/>
<path d="M301.314 188.395C301.946 184.922 304.971 182.397 308.501 182.397H317.652C322.209 182.397 325.654 186.525 324.839 191.009L317.895 229.199C317.263 232.672 314.238 235.197 310.708 235.197H301.557C297 235.197 293.555 231.069 294.37 226.586L301.314 188.395Z" fill="#171733" fill-opacity="0.08"/>
<path d="M713.146 132.717C713.778 129.243 716.803 126.719 720.333 126.719H729.484C734.041 126.719 737.486 130.846 736.671 135.33L729.727 173.52C729.095 176.993 726.07 179.518 722.54 179.518H713.389C708.832 179.518 705.387 175.391 706.202 170.907L713.146 132.717Z" fill="#171733" fill-opacity="0.08"/>
<path d="M239.869 214.316C240.5 210.842 243.525 208.318 247.055 208.318H256.207C260.764 208.318 264.209 212.445 263.393 216.929L256.45 255.119C255.818 258.593 252.793 261.117 249.263 261.117H240.112C235.554 261.117 232.11 256.99 232.925 252.506L239.869 214.316Z" fill="#171733" fill-opacity="0.08"/>
<path d="M651.705 158.636C652.336 155.163 655.361 152.638 658.891 152.638H668.042C672.6 152.638 676.044 156.766 675.229 161.249L668.286 199.44C667.654 202.913 664.629 205.438 661.099 205.438H651.948C647.39 205.438 643.946 201.31 644.761 196.826L651.705 158.636Z" fill="#171733" fill-opacity="0.08"/>
<path d="M357.947 420.713C358.578 417.24 361.603 414.715 365.134 414.715H374.285C378.842 414.715 382.287 418.843 381.471 423.327L374.528 461.517C373.896 464.99 370.871 467.515 367.341 467.515H358.19C353.633 467.515 350.188 463.387 351.003 458.903L357.947 420.713Z" fill="#171733" fill-opacity="0.08"/>
<path d="M769.779 365.034C770.41 361.561 773.435 359.036 776.966 359.036H786.117C790.674 359.036 794.119 363.164 793.303 367.647L786.36 405.838C785.728 409.311 782.703 411.836 779.173 411.836H770.022C765.465 411.836 762.02 407.708 762.835 403.224L769.779 365.034Z" fill="#171733" fill-opacity="0.08"/>
<path d="M80.5055 497.512C81.137 494.039 84.162 491.514 87.6922 491.514H96.8433C101.401 491.514 104.845 495.642 104.03 500.125L97.0863 538.316C96.4548 541.789 93.4298 544.314 89.8996 544.314H80.7485C76.1912 544.314 72.7465 540.186 73.5618 535.702L80.5055 497.512Z" fill="#171733" fill-opacity="0.08"/>
<path d="M492.341 441.832C492.973 438.359 495.998 435.834 499.528 435.834H508.679C513.237 435.834 516.681 439.962 515.866 444.446L508.922 482.636C508.291 486.109 505.266 488.634 501.736 488.634H492.584C488.027 488.634 484.582 484.506 485.398 480.023L492.341 441.832Z" fill="#171733" fill-opacity="0.08"/>
<path d="M22.9156 315.114C23.5471 311.64 26.5722 309.116 30.1024 309.116H39.2534C43.8108 309.116 47.2554 313.243 46.4402 317.727L39.4965 355.917C38.865 359.39 35.8399 361.915 32.3097 361.915H23.1587C18.6013 361.915 15.1567 357.788 15.9719 353.304L22.9156 315.114Z" fill="#171733" fill-opacity="0.08"/>
<path d="M445.302 265.195C445.934 261.721 448.959 259.197 452.489 259.197H461.64C466.197 259.197 469.642 263.324 468.827 267.808L461.883 305.998C461.252 309.472 458.227 311.996 454.696 311.996H445.545C440.988 311.996 437.543 307.869 438.359 303.385L445.302 265.195Z" fill="#171733" fill-opacity="0.08"/>
<path d="M73.8076 377.275C78.365 377.275 81.8094 381.403 80.9941 385.887L75.8217 414.336C75.4223 416.533 77.11 418.555 79.3428 418.555C82.8728 418.555 85.8978 421.08 86.5293 424.553L93.4727 462.743C94.2877 467.227 90.8434 471.354 86.2861 471.354H77.1348C73.6048 471.354 70.5798 468.829 69.9482 465.356L64.5754 435.803C63.9725 432.486 61.0839 430.075 57.7129 430.075C53.1556 430.075 49.7113 425.948 50.5264 421.464L57.4697 383.273C58.1012 379.8 61.1262 377.276 64.6562 377.275H73.8076Z" fill="#171733" fill-opacity="0.08"/>
<path d="M485.647 321.597C490.205 321.597 493.65 325.724 492.835 330.208L487.661 358.662C487.262 360.857 488.948 362.877 491.179 362.877C494.709 362.877 497.734 365.401 498.365 368.874L505.31 407.064C506.125 411.548 502.68 415.675 498.123 415.676H488.972C485.441 415.676 482.417 413.151 481.785 409.678L476.411 380.119C475.808 376.805 472.921 374.396 469.553 374.396C464.996 374.395 461.551 370.268 462.366 365.784L469.31 327.595C469.941 324.121 472.967 321.597 476.497 321.597H485.647Z" fill="#171733" fill-opacity="0.08"/>
<path d="M173.893 467.752C173.261 464.279 170.236 461.754 166.706 461.754H157.555C152.998 461.754 149.553 465.882 150.368 470.366L157.312 508.556C157.944 512.029 160.969 514.554 164.499 514.554H173.65C178.207 514.554 181.652 510.426 180.837 505.943L173.893 467.752Z" fill="#171733" fill-opacity="0.08"/>
<path d="M585.729 412.073C585.097 408.6 582.072 406.075 578.542 406.075H569.391C564.834 406.075 561.389 410.203 562.204 414.686L569.148 452.877C569.78 456.35 572.805 458.875 576.335 458.875H585.486C590.043 458.875 593.488 454.747 592.673 450.263L585.729 412.073Z" fill="#171733" fill-opacity="0.08"/>
<path d="M140.291 528.232C139.66 524.759 136.635 522.234 133.105 522.234H123.954C119.396 522.234 115.952 526.362 116.767 530.846L123.711 569.036C124.342 572.509 127.367 575.034 130.897 575.034H140.048C144.606 575.034 148.05 570.906 147.235 566.423L140.291 528.232Z" fill="#171733" fill-opacity="0.08"/>
<path d="M552.123 472.553C551.492 469.079 548.467 466.555 544.937 466.555H535.786C531.228 466.555 527.784 470.682 528.599 475.166L535.543 513.356C536.174 516.829 539.199 519.354 542.729 519.354H551.88C556.438 519.354 559.882 515.227 559.067 510.743L552.123 472.553Z" fill="#171733" fill-opacity="0.08"/>
</g>
</pattern></defs>
</svg>
