<svg width="320" height="220" viewBox="0 0 320 220" fill="none" xmlns="http://www.w3.org/2000/svg">
<path d="M117.677 45.8672H24.6016V76.8736H117.677V45.8672Z" fill="#7AEDE3"/>
<path fill-rule="evenodd" clip-rule="evenodd" d="M154.819 165.206C158.26 163.326 162.341 161.088 165.782 159.227C166.064 159.076 166.346 158.926 166.665 158.888C167.098 158.851 167.493 159.039 167.906 159.189C171.141 160.505 174.958 160.355 178.079 158.794C178.38 158.644 178.699 158.475 179.038 158.494C179.301 158.494 179.546 158.644 179.771 158.776C184.773 161.615 190.263 164.511 195.246 167.35L201.376 153.605L206.998 138.073L204.93 134.82C204.93 134.82 203.783 136.212 201.79 137.697C199.383 139.521 195.885 141.589 193.61 142.699C189.492 144.711 182.366 148.979 180.523 149.393C178.681 149.806 174.6 150.483 170.614 149.543C166.628 148.603 164.917 147.851 160.31 146.497C155.703 145.143 151.284 143.319 151.284 143.319L148.539 141.909C148.539 141.909 148.708 143.677 149.254 145.369C149.799 147.061 151.247 154.15 151.247 154.15L154.782 165.169L154.819 165.206Z" fill="#846DF2"/>
<path d="M155.947 165.77C159.256 163.965 162.566 162.16 165.856 160.355C166.552 159.979 167.003 159.527 167.774 159.772C168.639 160.035 169.485 160.298 170.369 160.468C171.986 160.75 173.641 160.806 175.258 160.562C176.047 160.449 176.818 160.261 177.57 160.016C178.003 159.866 178.417 159.715 178.83 159.527C179 159.452 179.169 159.358 179.338 159.283C179.658 159.17 179.526 159.095 178.962 159.095C179.206 158.963 181.388 160.449 181.632 160.599C182.403 161.032 183.193 161.464 183.964 161.878C187.461 163.796 190.977 165.695 194.456 167.669C194.888 167.914 196.336 168.346 196.637 167.688C198.649 163.194 200.736 158.719 202.673 154.187C204.609 149.656 206.02 145.011 207.674 140.442C207.862 139.916 208.464 138.919 208.408 138.336C208.351 137.847 207.693 137.152 207.43 136.738L206.321 135.008C205.963 134.444 204.215 133.73 203.669 134.369C200.924 137.622 196.806 139.972 193.064 141.871C189.322 143.77 186.032 145.67 182.478 147.493C181.35 148.076 180.222 148.678 178.981 148.922C176.536 149.393 173.96 149.581 171.478 149.148C169.335 148.772 167.248 148.076 165.179 147.418C162.754 146.628 160.29 145.933 157.884 145.124C155.872 144.447 153.879 143.714 151.923 142.924C151.622 142.793 152.318 143.15 151.961 142.924C151.641 142.736 151.284 142.586 150.964 142.417L149.385 141.608C148.99 141.401 147.128 140.875 147.222 141.74C147.429 143.808 148.144 145.801 148.614 147.832C149.046 149.731 149.441 151.649 149.855 153.567C150.4 156.143 151.434 158.663 152.243 161.163C152.656 162.442 153.07 163.739 153.484 165.018C153.728 165.789 156.436 166.127 156.191 165.356C155.27 162.461 154.33 159.565 153.408 156.688C152.6 154.169 152.111 151.649 151.528 149.054C151.02 146.741 150.174 144.447 149.949 142.097L147.786 142.229C150.268 143.488 152.713 144.541 155.345 145.481C157.978 146.422 160.723 147.193 163.412 148.058C165.518 148.734 167.624 149.411 169.767 149.938C172.55 150.615 175.352 150.803 178.21 150.54C179.846 150.389 181.482 150.145 182.986 149.468C186.69 147.794 190.169 145.594 193.798 143.752C198.16 141.533 203.03 139.107 206.245 135.29L203.594 134.651L204.44 135.986C204.779 136.531 205.418 137.208 205.606 137.81C205.681 138.035 205.644 137.622 205.625 137.81C205.625 137.885 205.568 137.998 205.531 138.054C205.343 138.43 205.23 138.863 205.098 139.258L201.902 148.095C201.281 149.825 200.698 151.593 200.003 153.304C199.1 155.504 198.066 157.647 197.088 159.81C196.016 162.198 194.945 164.604 193.873 166.992H196.054C192.331 164.905 188.552 162.856 184.791 160.787C183.136 159.866 181.369 158.531 179.545 158.004C177.721 157.478 176.442 158.569 174.788 159.02C172.945 159.509 170.952 159.546 169.128 158.963C167.304 158.38 166.082 157.854 164.333 158.794C160.779 160.712 157.244 162.668 153.709 164.586C152.769 165.093 155.27 166.071 155.947 165.714V165.77Z" fill="#846DF2"/>
<path d="M159.764 93.5889L146.954 94.4937C145.866 94.5705 145.047 95.5146 145.123 96.6022L145.398 100.485C145.475 101.573 146.419 102.392 147.506 102.315L160.317 101.41C161.405 101.334 162.224 100.39 162.147 99.3018L161.873 95.4193C161.796 94.3316 160.852 93.5121 159.764 93.5889Z" fill="white"/>
<path d="M147.392 103.23C145.869 103.23 144.59 102.046 144.477 100.522L144.195 96.6302C144.139 95.8593 144.383 95.1071 144.91 94.5242C145.418 93.9413 146.132 93.5841 146.903 93.5277L159.708 92.6251C160.46 92.5687 161.231 92.8131 161.833 93.3396C162.416 93.8473 162.773 94.5618 162.829 95.3328L163.111 99.225C163.168 99.996 162.923 100.748 162.397 101.35C161.889 101.933 161.175 102.29 160.404 102.346L147.599 103.249C147.599 103.249 147.467 103.249 147.392 103.249V103.23ZM159.934 94.4866C159.934 94.4866 159.877 94.4866 159.859 94.4866L147.054 95.3892C146.772 95.408 146.527 95.5396 146.339 95.7464C146.151 95.9533 146.076 96.2165 146.095 96.4986L146.377 100.391C146.414 100.955 146.96 101.369 147.486 101.35L160.291 100.447C160.573 100.428 160.817 100.297 161.005 100.09C161.194 99.8832 161.269 99.6199 161.25 99.3379L160.968 95.4456C160.968 95.1636 160.817 94.9191 160.611 94.7311C160.423 94.5619 160.178 94.4866 159.934 94.4866Z" fill="#846DF2"/>
<path d="M157.069 93.7721L149.21 94.3272C148.775 94.3579 148.447 94.7355 148.478 95.1706L148.687 98.1341C148.718 98.5692 149.095 98.897 149.53 98.8662L157.389 98.3112C157.824 98.2804 158.152 97.9028 158.121 97.4678L157.912 94.5042C157.881 94.0692 157.504 93.7414 157.069 93.7721Z" fill="#846DF2"/>
<path d="M149.497 99.7916C149.083 99.7916 148.689 99.6412 148.369 99.3591C148.012 99.0583 147.805 98.6258 147.767 98.1745L147.56 95.2224C147.523 94.7523 147.673 94.3199 147.974 93.9626C148.275 93.6054 148.707 93.3985 149.159 93.3609L157 92.8156C157.959 92.7592 158.786 93.4737 158.861 94.4327L159.068 97.3848C159.106 97.8549 158.955 98.2874 158.654 98.6446C158.353 99.0019 157.921 99.2087 157.47 99.2463L149.629 99.7916C149.629 99.7916 149.554 99.7916 149.497 99.7916ZM149.441 95.2412L149.629 97.9113L157.188 97.3848L157 94.7148L149.422 95.26L149.441 95.2412Z" fill="#846DF2"/>
<path d="M193.605 90.6042L181.563 91.4547C180.475 91.5315 179.656 92.4755 179.733 93.5632L180.049 98.046C180.126 99.1337 181.07 99.9531 182.158 99.8763L194.2 99.0258C195.287 98.949 196.107 98.005 196.03 96.9173L195.713 92.4345C195.637 91.3468 194.693 90.5273 193.605 90.6042Z" fill="white"/>
<path d="M182.02 100.79C180.515 100.79 179.218 99.6246 179.124 98.0828L178.804 93.6076C178.691 92.0093 179.895 90.5991 181.512 90.4863L193.565 89.6401C195.144 89.5273 196.554 90.7307 196.686 92.3478L197.006 96.823C197.118 98.4212 195.915 99.8315 194.298 99.9443L182.245 100.79C182.245 100.79 182.114 100.79 182.038 100.79H182.02ZM193.753 91.5205C193.753 91.5205 193.696 91.5205 193.678 91.5205L181.625 92.3666C181.061 92.4042 180.628 92.9119 180.666 93.476L180.985 97.9511C181.023 98.5152 181.474 98.9289 182.095 98.9101L194.148 98.064C194.712 98.0264 195.144 97.5187 195.107 96.9546L194.787 92.4794C194.749 91.9341 194.298 91.5205 193.753 91.5205Z" fill="#846DF2"/>
<path d="M191.692 50.7331C191.786 50.9023 191.899 51.0527 191.993 51.2219L194.607 51.3724C190.714 46.4459 185.261 43.0613 179.263 41.275C177.157 40.6357 174.694 39.9776 172.475 40.5041C170.087 41.0682 169.862 43.4562 170.933 45.4118C172.72 48.6647 176.518 50.7895 179.602 52.6322C182.685 54.4749 186.089 56.4868 188.326 59.5142C192.726 65.4748 189.172 74.0114 194.005 79.7276C196.562 82.7549 200.548 83.8455 203.463 86.4215C206.528 89.1104 207.976 93.3599 209.235 97.1205C209.499 97.8914 212.206 98.1923 211.943 97.4402C210.89 94.3188 209.724 91.1599 207.769 88.471C205.813 85.7822 203.068 84.372 200.342 82.7549C197.314 80.9686 195.208 78.7686 194.4 75.2712C193.666 72.0559 193.854 68.7089 193.29 65.4559C191.974 58.0287 185.506 54.7569 179.696 51.0903C177.214 49.5108 172.889 46.916 173.058 43.4938C173.152 41.5383 175.051 41.5195 176.555 41.7827C182.648 42.8733 188.308 46.6151 192.106 51.41C192.444 51.8424 193.253 52.0117 193.76 52.0305C193.948 52.0305 194.983 52.0117 194.701 51.5604C194.607 51.3912 194.494 51.2407 194.4 51.0715C194.08 50.5638 193.366 50.357 192.801 50.3006C192.632 50.2818 191.391 50.2818 191.692 50.7519V50.7331Z" fill="#846DF2"/>
<path d="M177.155 40.5663C175.651 38.8552 177.512 36.6928 179.392 36.6364C181.837 36.5612 184.488 37.4449 186.763 38.2535C191.239 39.8141 196.052 41.7508 199.606 44.985C200.151 45.4927 202.859 45.1918 202.05 44.4585C199.738 42.3525 196.955 40.9235 194.134 39.6637C191.314 38.4039 188.286 37.1817 185.221 36.4107C182.514 35.715 179.28 35.0005 176.553 35.9219C174.635 36.5612 172.774 38.9492 174.428 40.8295C174.823 41.2808 175.613 41.3184 176.158 41.262C176.346 41.262 177.531 41.0175 177.155 40.5851V40.5663Z" fill="#846DF2"/>
<path d="M192.626 54.2855C196.198 50.412 200.26 47.0086 204.697 44.1506C205.224 43.8121 204.547 43.4548 204.227 43.3608C203.663 43.2104 202.817 43.154 202.29 43.4924C197.74 46.4069 193.585 49.9043 189.918 53.8718C189.523 54.2855 190.67 54.5675 190.877 54.6051C191.403 54.6803 192.231 54.6991 192.626 54.2667V54.2855Z" fill="#846DF2"/>
<path d="M184.06 36.4461C183.477 32.723 190.115 33.776 192.07 34.1144C195.21 34.6409 198.313 35.7127 201.171 37.1418C207.094 40.0939 210.704 45.9041 214.634 50.9997C216.571 53.5194 218.282 56.0578 219.071 59.1979C219.692 61.6423 219.542 64.1431 219.974 66.6063C220.745 71.0063 222.324 75.2746 224.017 79.3925C225.089 82.0062 226.254 84.601 227.533 87.1206C227.796 87.6471 228.567 87.8728 229.112 87.948C229.3 87.9668 230.504 88.0232 230.241 87.5155C229 85.0899 227.871 82.5703 226.837 80.0506C224.957 75.5379 223.189 70.7995 222.512 65.9106C222.362 64.7448 222.362 63.5602 222.249 62.3945C222.08 60.627 221.666 58.897 221.008 57.2612C219.692 54.027 217.342 51.3382 215.217 48.5929C213.092 45.8476 210.967 42.7827 208.372 40.3571C205.984 38.1195 203.108 36.5965 200.099 35.3555C196.489 33.87 192.653 32.8358 188.742 32.5538C186.335 32.3846 180.732 32.2153 181.352 36.07C181.465 36.8409 184.192 37.3298 184.06 36.4648V36.4461Z" fill="#846DF2"/>
<path d="M183.552 33.4559C180.562 31.6696 177.102 31.4439 173.699 31.5192C171.894 31.5568 170.089 31.6884 168.302 31.6508C166.272 31.5944 164.279 31.1431 162.248 30.9927C158.167 30.6918 154.144 31.6696 150.251 32.7602C146.359 33.8507 142.918 35.261 139.74 37.6114C136.769 39.8113 133.968 42.425 131.467 45.1326C128.966 47.8403 128.064 51.1685 127.33 54.7035C126.954 56.565 126.559 58.4077 125.901 60.194C125.243 61.9803 124.453 63.6538 123.964 65.4589C122.893 69.3699 123.306 73.6195 123.344 77.6245C123.363 79.7869 123.081 82.2313 123.776 84.3185C124.077 85.2022 124.566 86.0108 124.999 86.8381C125.544 87.8911 125.882 88.9817 126.146 90.1287C126.597 92.0842 126.935 94.0585 128.064 95.7508C129.192 97.4431 130.64 98.9474 131.674 100.734C131.993 101.279 134.569 101.26 134.438 100.508C133.404 94.5286 134.494 88.4552 134.175 82.4382C134.005 79.3732 133.178 76.44 132.764 73.4126C132.558 71.9084 132.482 70.3665 132.764 68.8623C133.084 67.1888 133.93 65.7598 134.701 64.2743C136.036 61.6607 136.657 58.953 137.334 56.1137C137.597 55.0419 137.935 53.9325 138.612 53.0488C139.609 51.7514 140.756 52.0146 142.166 52.3531C144.949 53.0112 147.318 53.0488 149.969 51.9018C151.286 51.3377 152.527 50.6232 154.012 50.7736C155.573 50.924 157.077 51.5069 158.6 51.789C160.123 52.071 161.608 52.1086 163.075 51.789C164.805 51.3941 166.328 50.3975 168.133 50.9428C169.694 51.4129 171.142 51.977 172.796 52.071C174.451 52.165 176.087 51.9018 177.648 51.3377C178.212 51.1309 178.042 50.7548 177.629 50.548C177.065 50.2659 176.2 50.4163 175.636 50.6044C172.514 51.695 169.731 49.3822 166.572 49.589C165.106 49.683 163.79 50.2659 162.398 50.6608C160.781 51.1309 159.277 50.6608 157.716 50.2659C154.802 49.5326 152.132 49.401 149.311 50.5856C148.051 51.1121 146.754 51.9394 145.344 51.7702C143.933 51.6009 142.523 51.0368 141.057 50.924C138.575 50.736 136.243 51.6385 135.19 54.0077C134.062 56.5274 133.93 59.4043 132.915 61.9803C131.805 64.7632 130 67.1512 129.775 70.2161C129.549 73.4878 130.621 76.6656 131.091 79.8621C132.106 86.7629 130.414 93.7577 131.617 100.64L134.381 100.414C133.535 98.9474 132.426 97.6875 131.429 96.3525C130.358 94.9235 129.718 93.438 129.323 91.6893C128.947 90.0535 128.665 88.3988 127.913 86.8757C127.556 86.1424 127.105 85.4655 126.785 84.7133C126.371 83.7732 126.258 82.7578 126.221 81.7424C126.089 77.963 126.033 74.1271 126.146 70.3665C126.202 68.411 126.428 66.4743 127.048 64.6127C127.612 62.9581 128.364 61.3786 128.91 59.7051C129.963 56.565 130.207 53.1992 131.335 50.0779C132.595 46.6369 135.265 44.2865 137.898 41.8421C140.53 39.3977 143.257 37.1037 146.491 35.5994C149.932 34.02 153.899 32.9482 157.641 32.3653C161.796 31.726 165.914 32.9294 170.089 32.8354C173.812 32.7602 177.798 32.1773 181.145 34.1704C181.69 34.49 182.48 34.49 183.082 34.3208C183.383 34.2268 184.116 33.8695 183.571 33.5311L183.552 33.4559Z" fill="#846DF2"/>
<path d="M142.816 47.1218C145.241 48.2876 148.156 48.5697 150.75 47.7987C151.352 47.6107 150.75 47.0654 150.468 46.915C149.923 46.6329 149.171 46.3885 148.551 46.5765C148.043 46.727 147.723 46.8022 147.216 46.8586C147.103 46.8586 147.009 46.8774 146.896 46.8962C146.858 46.8962 146.426 46.915 146.651 46.8962C146.426 46.8962 146.181 46.8962 145.956 46.8774C145.899 46.8774 145.504 46.821 145.805 46.8774C145.692 46.8774 145.598 46.8398 145.486 46.8398C145.354 46.821 145.185 46.8022 145.053 46.7646L145.204 46.8022C145.204 46.8022 145.072 46.7646 144.997 46.7458C144.884 46.7269 144.79 46.6893 144.677 46.6517C144.602 46.6329 144.545 46.6141 144.47 46.5765C144.658 46.6329 144.677 46.6517 144.527 46.5765C144.282 46.4825 144.057 46.3885 143.831 46.2757C143.53 46.1252 143.098 46.0501 142.778 46.0313C142.59 46.0313 142.233 46.0312 142.063 46.1817C141.65 46.5765 142.609 47.0278 142.816 47.1218Z" fill="#846DF2"/>
<path d="M144.138 43.5104C145.605 43.9805 147.128 44.2626 148.651 44.3754C149.008 44.3942 149.385 44.3754 149.742 44.2813C149.986 44.2249 150.362 44.0933 150.532 43.9053C150.644 43.7737 150.757 43.6044 150.607 43.454C150.438 43.2848 150.137 43.2284 149.911 43.2096C149.573 43.1908 149.215 43.1532 148.877 43.1156C148.764 43.1156 148.67 43.0779 148.557 43.0779C148.332 43.0403 148.783 43.1156 148.538 43.0779C148.369 43.0403 148.2 43.0215 148.031 42.9839C147.335 42.8523 146.658 42.6643 145.981 42.4574C145.68 42.3634 145.267 42.401 144.966 42.4386C144.665 42.4763 144.27 42.5703 144.007 42.7395C143.856 42.8335 143.631 42.9839 143.65 43.1908C143.668 43.3976 143.95 43.4728 144.12 43.5292L144.138 43.5104Z" fill="#846DF2"/>
<path d="M150.06 39.9639C151.583 40.3964 153.144 40.7161 154.723 40.9229C155.062 40.9605 155.475 40.9417 155.814 40.8665C156.002 40.8289 156.34 40.716 156.453 40.528C156.754 40.0391 155.701 39.8699 155.475 39.8323C155.287 39.8135 155.08 39.7759 154.892 39.7571C154.817 39.7571 154.723 39.7383 154.648 39.7195C154.61 39.7195 154.573 39.7195 154.516 39.7007C154.422 39.7007 154.46 39.7007 154.648 39.7195C154.479 39.6631 154.291 39.6631 154.121 39.6255C153.952 39.5879 153.764 39.5503 153.595 39.5127C152.88 39.3622 152.185 39.193 151.489 38.9862C151.169 38.8922 150.737 38.8921 150.398 38.9297C150.154 38.9485 149.759 39.0238 149.552 39.193C149.063 39.5878 149.703 39.8699 150.06 39.9639Z" fill="#846DF2"/>
<path d="M160.364 40.5841C160.608 40.6029 160.853 40.6405 161.097 40.6781C161.473 40.7345 160.871 40.6217 161.154 40.6781C161.285 40.6969 161.417 40.7345 161.53 40.7533C161.755 40.8097 161.981 40.8661 162.188 40.9225C162.47 40.9977 161.981 40.8473 162.244 40.9225C162.376 40.9601 162.489 40.9977 162.62 41.0541C162.827 41.1293 163.053 41.2046 163.259 41.2986C163.297 41.2986 163.692 41.4866 163.429 41.3738C163.523 41.4114 163.598 41.449 163.692 41.5054C164.124 41.7123 164.557 41.9567 164.971 42.2199C165.497 42.5396 166.362 42.6524 166.945 42.4644C167.114 42.408 167.377 42.3328 167.396 42.1259C167.415 41.9191 167.17 41.7687 167.039 41.6746C165.083 40.4336 162.789 39.6815 160.477 39.4371C160.157 39.3995 159.781 39.3807 159.461 39.4747C159.311 39.5123 159.029 39.6251 159.01 39.8131C158.954 40.3208 160.044 40.5276 160.345 40.5464L160.364 40.5841Z" fill="#846DF2"/>
<path d="M154.429 45.7383C154.429 45.7383 154.598 45.7383 154.692 45.7383C154.842 45.7383 154.861 45.7383 154.786 45.7383C154.711 45.7383 154.729 45.7383 154.88 45.7383C154.974 45.7383 155.049 45.7383 155.143 45.7571C155.406 45.7759 155.67 45.8135 155.933 45.8512C156.516 45.9264 157.08 46.0204 157.644 46.1332C158.039 46.2084 158.697 46.3777 159.167 46.5093C159.731 46.6597 160.276 46.8477 160.822 47.0358C161.405 47.2426 162.251 47.1298 162.815 46.8477C162.965 46.7725 163.21 46.6221 163.191 46.4153C163.172 46.2084 162.909 46.1144 162.74 46.058C160.258 45.193 157.663 44.7041 155.049 44.5725C154.579 44.5537 153.601 44.6477 153.357 45.1366C153.112 45.6255 154.165 45.7195 154.41 45.7383H154.429Z" fill="#846DF2"/>
<path d="M161.281 44.2843C161.393 44.2843 161.525 44.3219 161.638 44.3407C161.732 44.3407 161.976 44.3407 161.638 44.3407C161.826 44.3407 162.052 44.4347 162.258 44.4723C162.465 44.5287 162.672 44.5663 162.86 44.6227C162.954 44.6603 163.067 44.6791 163.161 44.7167C163.199 44.7167 163.255 44.7355 163.293 44.7543C163.142 44.6979 163.142 44.6979 163.255 44.7543C163.65 44.886 164.045 45.0364 164.421 45.2056C164.609 45.2996 164.797 45.3749 164.985 45.4689C165.06 45.5065 165.135 45.5441 165.229 45.5817C165.323 45.6381 165.342 45.6381 165.229 45.5817C165.286 45.6193 165.342 45.6381 165.38 45.6757C165.944 45.9954 166.677 46.0706 167.298 45.9201C167.523 45.8637 167.824 45.8073 167.956 45.6005C168.05 45.4501 167.975 45.262 167.824 45.168C166.019 44.1526 164.064 43.5133 162.014 43.2125C161.676 43.1561 161.262 43.1749 160.923 43.2501C160.735 43.2877 160.397 43.3817 160.265 43.5697C159.964 44.0398 160.999 44.2467 161.243 44.2843H161.281Z" fill="#846DF2"/>
<path d="M165.241 68.4473C167.855 68.8986 170.582 68.7858 173.139 68.1277C173.402 68.0524 174.399 67.7892 174.06 67.3379C173.741 66.9242 172.706 66.9994 172.293 67.1123C172.029 67.1875 171.766 67.2439 171.484 67.3003C171.334 67.3379 171.202 67.3567 171.052 67.3943C170.995 67.3943 170.619 67.4695 170.92 67.4131C170.676 67.4507 170.412 67.4883 170.168 67.5071C170.036 67.5071 169.924 67.5259 169.792 67.5447C169.698 67.5447 169.623 67.5447 169.529 67.5447C169.378 67.5447 169.359 67.5447 169.453 67.5447C169.623 67.5447 169.247 67.5447 169.19 67.5447C169.04 67.5447 168.889 67.5447 168.739 67.5447C168.476 67.5447 168.231 67.5448 167.968 67.5071C168.212 67.5071 167.818 67.5071 167.799 67.5071C167.667 67.5071 167.554 67.4883 167.423 67.4695C167.122 67.4319 166.84 67.3943 166.539 67.3379C165.975 67.2439 165.091 67.3379 164.64 67.7328C164.17 68.1652 164.884 68.3909 165.223 68.4473H165.241Z" fill="#846DF2"/>
<path d="M165.897 72.7504C168.962 72.0735 172.139 71.3778 175.279 72.0359C175.825 72.1487 176.746 72.1299 177.197 71.735C177.649 71.3402 177.009 71.0581 176.652 70.9829C172.572 70.118 168.435 70.9453 164.43 71.829C164.054 71.9042 163.49 72.2803 163.96 72.6188C164.468 72.9761 165.333 72.8444 165.897 72.7316V72.7504Z" fill="#846DF2"/>
<path d="M190.59 91.4157L184.1 91.8741C183.665 91.9048 183.337 92.2824 183.368 92.7175L183.577 95.681C183.608 96.1161 183.986 96.4438 184.421 96.4131L190.911 95.9547C191.346 95.924 191.673 95.5464 191.643 95.1113L191.433 92.1478C191.403 91.7127 191.025 91.385 190.59 91.4157Z" fill="#846DF2"/>
<path d="M184.38 97.3248C183.477 97.3248 182.706 96.6291 182.65 95.7077L182.443 92.7556C182.406 92.2855 182.556 91.853 182.857 91.4958C183.158 91.1385 183.59 90.9317 184.041 90.8941L190.529 90.4428C191.469 90.3676 192.315 91.1009 192.39 92.0599L192.597 95.012C192.634 95.482 192.484 95.9145 192.183 96.2718C191.882 96.629 191.45 96.8359 190.999 96.8735L184.512 97.3248C184.512 97.3248 184.436 97.3248 184.38 97.3248ZM184.323 92.7744L184.512 95.4445L190.717 95.012L190.529 92.3419L184.323 92.7744Z" fill="#846DF2"/>
<path d="M126.931 89.0026C124.713 88.4949 123.039 89.6231 123.039 91.9735C123.039 94.1546 123.641 96.411 124.543 98.4042C125.446 100.397 126.725 102.052 128.172 103.631C129.62 105.211 131.218 106.884 132.046 108.99C132.271 109.554 134.772 110.25 134.772 109.479C134.772 107.148 134.735 104.816 134.584 102.484C134.434 99.9836 133.625 97.9717 131.651 96.3922C131.181 96.0162 130.316 95.8093 129.714 95.9222C129.169 96.035 129.094 96.3546 129.526 96.6931C131.369 98.1597 131.783 100.322 131.895 102.578C132.008 104.647 132.046 106.734 132.046 108.821L134.772 109.31C133.4 105.831 130.203 103.688 128.266 100.585C127.251 98.9683 126.536 97.182 126.123 95.3204C125.916 94.3803 125.766 93.4025 125.784 92.4436C125.784 91.9923 125.841 91.5222 126.01 91.0897C126.123 90.8265 126.273 90.6008 126.48 90.4128C126.649 90.2624 127.082 90.1684 126.668 90.0744C126.988 90.1496 128.06 90.3564 128.172 89.8487C128.285 89.341 127.213 89.0402 126.931 88.965V89.0026Z" fill="#846DF2"/>
<path d="M138.438 94.8649C139.585 95.1281 140.751 95.2786 141.935 95.3162C142.123 95.3162 142.499 95.2973 142.65 95.1281C142.781 94.9777 142.744 94.8085 142.612 94.6769C142.405 94.47 142.123 94.3196 141.86 94.2256C141.503 94.1128 141.164 94.0376 140.788 94.0376C140.675 94.0376 140.563 94.0376 140.431 94.0376C140.168 94.0376 140.694 94.0564 140.563 94.0376C140.506 94.0376 140.45 94.0376 140.393 94.0376C140.168 94.0376 139.942 93.9999 139.716 93.9623C139.491 93.9247 139.284 93.9059 139.077 93.8683C139.209 93.8871 139.622 93.9623 139.077 93.8683C138.945 93.8495 138.833 93.8119 138.701 93.7931C138.381 93.7179 138.024 93.6803 137.686 93.7179C137.554 93.7367 137.216 93.8119 137.197 94.0187C137.178 94.2256 137.347 94.3948 137.516 94.5076C137.798 94.6957 138.118 94.8273 138.457 94.9025L138.438 94.8649Z" fill="#846DF2"/>
<path d="M138.069 91.0997C139.216 92.1151 140.569 92.8672 142.017 93.3561C142.318 93.4501 142.694 93.5253 143.014 93.5065C143.145 93.5065 143.484 93.4501 143.522 93.2621C143.559 93.0553 143.39 92.8672 143.258 92.7544C142.995 92.5476 142.675 92.3971 142.356 92.2843C142.281 92.2655 142.224 92.2467 142.149 92.2091C142.111 92.2091 142.093 92.1903 142.055 92.1715C142.055 92.1715 142.431 92.3219 142.262 92.2467C142.13 92.1903 141.999 92.1339 141.886 92.0775C141.773 92.0211 141.641 91.9459 141.51 91.8895C141.51 91.8895 141.829 92.0587 141.679 91.9835C141.641 91.9835 141.622 91.9459 141.585 91.9271C141.51 91.8894 141.453 91.8518 141.378 91.8142C141.265 91.739 141.134 91.6638 141.021 91.5886C140.964 91.551 140.908 91.5134 140.852 91.4758C140.739 91.4006 141.077 91.645 140.964 91.551C140.946 91.5322 140.908 91.5134 140.87 91.4946C140.645 91.3254 140.419 91.1373 140.193 90.9493C139.949 90.7425 139.592 90.5732 139.291 90.4792C138.99 90.3852 138.614 90.2912 138.294 90.3288C138.125 90.3288 137.824 90.3852 137.787 90.5732C137.749 90.7613 137.918 90.9493 138.05 91.0809L138.069 91.0997Z" fill="#846DF2"/>
<path d="M148.612 90.8791C152.203 89.5441 156.058 89.3937 159.743 90.4279C160.345 90.5971 161.172 90.5407 161.736 90.221C162.188 89.9578 162.206 89.5817 161.661 89.4313C156.904 88.0963 151.733 88.3219 147.108 90.0518C146.75 90.1834 146.186 90.5219 146.675 90.8791C147.145 91.1988 148.123 91.0672 148.612 90.8791Z" fill="#846DF2"/>
<path d="M181.691 89.5284C183.89 87.6293 186.749 87.4224 189.531 87.3096C189.682 87.3096 189.983 87.2532 190.058 87.0652C190.133 86.8771 189.926 86.6515 189.795 86.5575C189.325 86.1438 188.535 85.8806 187.914 85.8994C184.887 86.031 181.634 86.2754 179.227 88.3626C178.626 88.8891 181.07 90.0737 181.691 89.5284Z" fill="#846DF2"/>
<path d="M199.007 90.1597C199.834 89.7273 200.68 89.3324 201.545 89.0127C201.715 88.9563 201.846 88.8059 201.771 88.6179C201.696 88.4111 201.376 88.223 201.207 88.1478C200.887 87.9974 200.511 87.8846 200.154 87.8658C199.853 87.847 199.552 87.8282 199.27 87.941C198.405 88.2606 197.559 88.6555 196.732 89.088C196.562 89.182 196.431 89.276 196.506 89.4828C196.581 89.6897 196.901 89.8777 197.07 89.9529C197.39 90.1033 197.766 90.2162 198.123 90.235H198.462C198.65 90.2538 198.819 90.235 199.007 90.1597Z" fill="#846DF2"/>
<path d="M199.358 92.2881H200.75C200.9 92.2881 201.032 92.2881 201.164 92.2693C201.276 92.2693 201.37 92.2317 201.464 92.1565C201.54 92.1001 201.577 92.0249 201.558 91.9497C201.558 91.8557 201.54 91.7805 201.464 91.7052L201.295 91.536C201.126 91.4044 200.938 91.2916 200.75 91.2164L200.393 91.0847C200.167 91.0095 199.923 90.9719 199.697 90.9531H198.306C198.155 90.9531 198.023 90.9531 197.892 90.9719C197.779 90.9719 197.685 91.0095 197.591 91.0847C197.516 91.1411 197.478 91.2164 197.497 91.2916C197.497 91.3856 197.516 91.4608 197.591 91.536L197.76 91.7052C197.929 91.8369 198.117 91.9497 198.306 92.0249L198.663 92.1565C198.888 92.2317 199.133 92.2693 199.358 92.2881Z" fill="#846DF2"/>
<path d="M199.68 94.3888L200.601 94.5769C200.771 94.6145 200.94 94.6521 201.128 94.6521C201.316 94.6709 201.504 94.6709 201.692 94.6521C201.861 94.6521 202.012 94.6145 202.181 94.5581C202.313 94.5393 202.425 94.4829 202.538 94.4077L202.689 94.276C202.764 94.182 202.764 94.0692 202.689 93.9752L202.557 93.8436C202.407 93.7495 202.237 93.6743 202.049 93.6367L201.128 93.4487C200.959 93.4111 200.789 93.3735 200.601 93.3735C200.413 93.3547 200.225 93.3547 200.037 93.3735C199.868 93.3735 199.718 93.4111 199.548 93.4675C199.417 93.4863 199.304 93.5427 199.191 93.6179L199.041 93.7495C198.966 93.8436 198.966 93.9564 199.041 94.0504L199.172 94.182C199.323 94.276 199.492 94.3512 199.68 94.3888Z" fill="#846DF2"/>
<path d="M198.8 100.863C199.289 100.487 199.74 100.073 200.078 99.5467C200.417 99.0203 200.661 98.475 200.793 97.8921C200.831 97.704 200.548 97.516 200.417 97.4596C200.135 97.3092 199.759 97.2152 199.439 97.1776C199.119 97.1399 198.743 97.1211 198.424 97.234C198.236 97.2904 198.029 97.3656 197.972 97.5912C197.897 97.8921 197.803 98.1929 197.672 98.475L197.747 98.3245C197.427 99.0203 196.919 99.6408 196.318 100.111L196.468 99.998H196.431C196.28 100.13 196.149 100.242 196.243 100.43C196.337 100.619 196.675 100.769 196.844 100.844C197.183 100.957 197.559 101.032 197.916 101.013H198.254C198.443 100.976 198.612 100.919 198.781 100.844L198.8 100.863Z" fill="#846DF2"/>
<path d="M180.505 103.394C182.385 105.105 185.131 105.707 187.613 105.406C187.951 105.369 188.666 105.068 188.177 104.673C187.688 104.278 186.879 104.222 186.278 104.297C186.221 104.297 186.165 104.297 186.108 104.316C185.977 104.316 185.995 104.316 186.202 104.316C186.146 104.278 185.939 104.316 185.864 104.316C185.807 104.316 185.751 104.316 185.695 104.316C185.939 104.316 185.977 104.316 185.826 104.316C185.713 104.316 185.601 104.316 185.488 104.297C185.431 104.297 185.375 104.297 185.319 104.278C185.563 104.316 185.601 104.316 185.45 104.278C185.375 104.278 185.281 104.24 185.206 104.24C185.149 104.24 185.093 104.222 185.037 104.203C184.905 104.165 184.924 104.184 185.131 104.222C185.074 104.165 184.886 104.146 184.811 104.128C184.698 104.09 184.604 104.052 184.491 104.015C184.378 103.977 184.397 103.977 184.529 104.034C184.472 104.015 184.435 103.996 184.378 103.958C184.209 103.883 184.04 103.789 183.871 103.695C183.833 103.676 183.551 103.488 183.72 103.62C183.626 103.564 183.532 103.488 183.457 103.432C183.288 103.3 183.119 103.169 182.949 103.018C182.743 102.83 182.385 102.736 182.141 102.68C181.802 102.605 181.389 102.586 181.05 102.642C180.712 102.699 180.016 102.943 180.486 103.376L180.505 103.394Z" fill="#846DF2"/>
<path d="M156.472 108.253C158.39 107.67 160.12 106.579 161.492 105.132C161.643 104.981 161.492 104.793 161.379 104.699C161.173 104.53 160.815 104.436 160.552 104.398C160.026 104.323 159.217 104.285 158.803 104.718C158.653 104.868 158.502 105.038 158.333 105.188C158.258 105.263 158.164 105.338 158.07 105.414C158.126 105.357 158.07 105.414 158.051 105.432C157.995 105.47 157.957 105.508 157.901 105.564C157.543 105.846 157.186 106.109 156.81 106.335C156.622 106.448 156.434 106.561 156.246 106.655C156.152 106.711 156.039 106.767 155.945 106.805C155.889 106.843 155.644 106.955 155.832 106.861C155.419 107.049 154.986 107.219 154.535 107.35C154.385 107.388 154.121 107.538 154.103 107.726C154.084 107.914 154.347 108.084 154.497 108.14C155.099 108.403 155.87 108.422 156.491 108.234L156.472 108.253Z" fill="#846DF2"/>
<path d="M165.762 81.1365C166.646 82.7724 167.041 84.6151 166.928 86.4766C166.928 86.6835 167.154 86.8339 167.304 86.9091C167.586 87.0595 167.962 87.1347 168.282 87.1535C168.602 87.1723 168.978 87.1911 169.297 87.0783C169.467 87.0219 169.73 86.9279 169.749 86.7211C169.88 84.7655 169.448 82.7912 168.508 81.0801C168.395 80.8733 168.094 80.7605 167.887 80.6852C167.549 80.5724 167.154 80.516 166.815 80.5348C166.571 80.5348 165.499 80.6476 165.781 81.1365H165.762Z" fill="#846DF2"/>
<path d="M170.74 81.7843L170.57 83.8338C170.57 84.0407 170.815 84.1911 170.965 84.2475C171.247 84.3791 171.642 84.4543 171.943 84.4731C172.244 84.4919 172.639 84.4731 172.94 84.3603C173.109 84.2851 173.353 84.1911 173.372 83.9843L173.541 81.9347C173.541 81.7279 173.297 81.5775 173.146 81.521C172.864 81.3894 172.469 81.3142 172.169 81.2954C171.868 81.2766 171.473 81.2954 171.172 81.4082C171.003 81.4834 170.758 81.5775 170.74 81.7843Z" fill="#846DF2"/>
<path d="M163.712 89.4735C164.878 92.7264 165.48 96.1674 164.821 99.6084C164.257 102.617 162.847 105.381 161.418 108.051C160.177 110.364 159.331 112.771 160.835 115.196C161.418 116.155 162.245 116.926 163.223 117.471C164.464 118.148 165.95 118.186 167.172 118.844C168.319 119.465 169.09 120.424 170.387 120.781C171.685 121.138 173.001 121.082 174.223 120.593C175.558 120.047 176.329 119.032 177.401 118.148C178.416 117.321 179.507 117.246 180.767 117.077C183.136 116.719 184.96 115.422 184.565 112.771C184.132 109.913 182.459 107.976 180.729 105.832C176.893 101.037 175.464 94.2307 178.266 88.6086C178.548 88.0633 175.897 87.2735 175.483 88.1009C173.339 92.4068 173.659 97.4649 175.633 101.771C176.724 104.14 178.379 105.889 179.92 107.957C181.18 109.649 182.948 113.316 181.086 115.121C179.732 116.437 177.326 115.854 175.69 116.738C174.693 117.283 174.035 118.242 173.133 118.919C172.606 119.314 171.666 119.953 170.989 119.653C170.425 119.408 169.936 118.825 169.428 118.506C168.432 117.866 167.304 117.622 166.175 117.302C164.878 116.945 163.957 116.174 163.336 114.971C162.039 112.395 163.374 110.119 164.596 107.844C166.025 105.174 167.322 102.354 167.755 99.3264C168.206 96.0734 167.567 92.764 166.457 89.6991C166.175 88.9282 163.449 88.7402 163.731 89.5111L163.712 89.4735Z" fill="#846DF2"/>
<path fill-rule="evenodd" clip-rule="evenodd" d="M193.44 79.8998C193.44 79.8998 193.271 79.7306 193.177 79.6742C192.519 79.2417 191.673 79.2041 190.883 79.1665C186.935 79.0349 182.911 78.9221 179.131 80.0503C178.492 80.2383 177.777 80.746 177.495 81.3289C177.232 81.8554 177.815 82.7767 178.285 82.9836C178.586 83.1152 179.263 83.134 179.582 83.0776C180.936 82.8708 182.177 82.2126 183.494 81.8366C184.904 81.4605 186.389 81.4229 187.856 81.3665C189.454 81.3101 191.052 81.2349 192.651 81.122C193.008 81.1032 193.44 81.028 193.61 80.7272C193.76 80.4451 193.647 80.1255 193.422 79.8811L193.44 79.8998Z" fill="#846DF2"/>
<path d="M194.517 79.8621C193.521 78.8843 191.998 78.5647 190.644 78.4894C189.14 78.4142 187.617 78.3766 186.112 78.3954C184.608 78.4142 183.085 78.4706 181.581 78.6775C180.246 78.8467 178.704 79.0347 177.482 79.6552C176.523 80.1441 175.789 81.0091 176.335 82.0809C176.88 83.1526 178.159 83.6979 179.343 83.8295C180.622 83.9612 181.825 83.5287 183.01 83.0962C184.401 82.5885 185.736 82.2689 187.203 82.1937C188.97 82.0997 190.738 82.062 192.505 81.9492C193.126 81.9116 193.972 81.9868 194.536 81.6484C195.176 81.2535 195.063 80.6142 194.668 80.0877C194.292 79.58 193.521 79.298 192.919 79.2416C192.581 79.2039 191.81 79.2792 192.186 79.8057C192.769 80.6142 191.302 80.5202 190.888 80.539C190.136 80.5766 189.403 80.633 188.651 80.6518C187.335 80.7082 186.018 80.7082 184.702 80.8398C183.386 80.9715 182.145 81.2911 180.885 81.7424C180.283 81.968 179.682 82.1937 179.061 82.3441C178.854 82.4005 178.61 82.3817 178.422 82.4381C178.027 82.4193 178.234 82.5321 179.08 82.8142C179.024 82.7578 178.986 82.7013 178.948 82.6261C178.911 82.4005 178.723 82.2501 178.76 81.9868C178.798 81.78 178.986 81.5544 179.118 81.4039C179.569 80.9339 180.133 80.7458 180.735 80.5954C182.07 80.2381 183.424 80.0313 184.815 79.9373C186.206 79.8433 187.56 79.8245 188.914 79.8433C189.629 79.8433 190.343 79.8809 191.039 79.8997C191.321 79.8997 191.603 79.8997 191.885 79.9373C192.054 79.9373 192.242 79.9561 192.411 79.9937C192.148 79.8057 192.129 79.8057 192.317 79.9937C192.75 80.4262 193.577 80.727 194.198 80.6706C194.743 80.6142 194.856 80.3133 194.461 79.9185L194.517 79.8621Z" fill="#846DF2"/>
<path fill-rule="evenodd" clip-rule="evenodd" d="M158.068 82.2257C158.726 82.2634 160.982 82.583 161.358 83.1095C161.866 83.7864 161.433 84.7078 161.02 85.0086C160.756 85.1966 159.91 85.5539 159.591 85.5727C158.218 85.6855 157.015 85.1402 155.642 85.0838C154.175 85.0274 152.596 84.8018 150.434 85.0274C148.835 85.1778 146.861 85.5163 145.281 85.7795C144.924 85.836 142.818 86.3248 142.574 86.0616C142.442 85.93 146.052 83.918 150.415 82.8838C153.668 82.1129 156.357 82.1505 158.03 82.2445L158.068 82.2257Z" fill="#846DF2"/>
<path d="M158.578 82.9444C158.936 82.9632 160.308 82.982 160.515 83.2641C160.233 82.888 160.233 83.6589 160.158 83.847C160.026 84.2606 159.744 84.4675 159.368 84.6367C158.409 85.088 157.45 84.7495 156.454 84.5803C155.457 84.4111 154.366 84.3735 153.332 84.2982C151.113 84.1666 148.97 84.3735 146.789 84.6931C145.83 84.8435 144.871 84.9752 143.912 85.1632C143.611 85.2196 143.329 85.276 143.028 85.3324C142.859 85.37 142.671 85.37 142.502 85.4076C142.295 85.4452 141.919 85.3136 142.464 85.464L143.461 85.8777L143.404 85.8401L143.893 86.3854C143.949 86.7615 143.724 86.5546 143.987 86.4794C144.119 86.4418 144.269 86.3102 144.382 86.235C144.739 86.0281 145.134 85.8401 145.51 85.6521C146.845 85.0128 148.255 84.4863 149.666 84.0538C152.542 83.17 155.532 82.7752 158.541 82.9444C158.973 82.9632 159.518 82.9444 159.274 82.3803C159.048 81.8914 157.995 81.5718 157.525 81.5342C153.877 81.3273 150.267 81.7598 146.789 82.9256C145.266 83.4333 143.761 84.035 142.332 84.7871C141.637 85.1444 140.696 85.5581 141.712 86.2538C142.896 87.0811 144.363 86.8179 145.679 86.5546C147.296 86.235 148.951 85.9717 150.587 85.7837C152.411 85.5769 154.197 85.6709 156.021 85.7649C157.845 85.8589 159.612 86.6863 161.342 86.0093C162.019 85.7461 162.621 85.4076 162.828 84.6555C163.053 83.847 162.659 83.1513 161.982 82.7188C160.741 81.8914 158.992 81.6282 157.525 81.5154C157.093 81.4778 156.548 81.5154 156.792 82.0795C157.018 82.5684 158.071 82.888 158.541 82.9256L158.578 82.9444Z" fill="#846DF2"/>
<path d="M163.504 116.754C158.389 117.863 154.083 121.041 152.109 125.986C151.62 127.208 151.3 128.487 151.112 129.784C150.981 130.725 150.605 132.586 151.169 133.432C151.733 134.278 153.538 133.996 154.29 133.564C154.854 133.244 155.305 132.718 155.775 132.266C156.189 131.89 157.111 130.8 157.393 130.706L155.456 130.668C155.888 130.837 155.644 131.909 156.17 132.285C156.697 132.661 157.487 132.624 158.069 132.548C159.762 132.342 160.721 130.856 161.811 129.69L159.235 129.766C159.668 130.273 159.273 131.044 159.743 131.571C160.157 132.041 160.928 132.078 161.492 132.06C163.24 132.003 164.557 130.649 165.854 129.653L163.203 129.596C163.071 130.254 162.751 131.326 163.334 131.853C163.917 132.379 165.064 132.248 165.741 132.041C166.493 131.815 167.039 131.364 167.546 130.781C168.054 130.198 168.562 129.239 169.351 128.995L167.264 128.825C167.565 129.408 167.321 129.991 167.866 130.443C168.317 130.819 168.975 130.819 169.521 130.762C171.006 130.631 171.627 129.333 172.473 128.261L169.765 128.487C170.273 129.013 170.386 129.784 170.95 130.254C171.476 130.687 172.134 130.743 172.811 130.687C174.409 130.574 175.162 129.408 175.914 128.13L173.206 128.355C174.146 129.653 175.274 130.273 176.91 130.01C177.512 129.916 178.245 129.709 178.64 129.202C178.903 128.863 178.828 127.603 179.073 127.49L177.38 127.716C177.944 127.81 178.659 128.675 179.167 128.976C179.712 129.296 180.295 129.333 180.915 129.258C182.589 129.051 182.457 128.036 182.664 126.607L179.919 126.983C180.896 128.28 182.326 130.273 184.037 130.593C184.789 130.743 185.729 130.631 186.387 130.198C187.233 129.634 187.233 128.788 187.083 127.866L184.714 128.468C186.293 128.957 188.042 129.822 189.734 129.521C191.201 129.258 191.614 128.28 191.295 126.889L188.925 127.49C189.828 127.829 190.543 128.431 191.52 128.581C192.31 128.694 193.175 128.637 193.908 128.318C195.45 127.66 195.281 126.118 194.679 124.802L193.006 125.629C193.457 125.629 193.89 125.648 194.341 125.723C194.66 125.761 196.879 125.61 196.353 124.914C193.871 121.586 190.693 118.521 186.631 117.261C182.946 116.114 178.565 115.983 174.992 117.581C174.447 117.826 174.616 118.183 175.068 118.371C175.632 118.615 176.515 118.446 177.061 118.202C179.75 116.998 183.379 117.506 185.992 118.691C189.151 120.12 191.633 122.696 193.683 125.441L195.695 124.632C195.018 124.538 194.36 124.482 193.683 124.482C193.307 124.482 191.69 124.595 192.009 125.309C192.16 125.648 192.291 126.005 192.329 126.381C192.366 126.588 192.366 126.795 192.329 127.002C192.084 127.34 192.141 127.472 192.498 127.434C192.931 127.528 192.893 127.472 192.348 127.265C192.197 127.171 192.028 127.096 191.878 127.002C191.539 126.814 191.201 126.663 190.825 126.531C190.449 126.4 188.286 126.4 188.455 127.133C188.531 127.415 188.606 127.716 188.587 128.017C188.587 128.243 188.549 128.449 188.455 128.656C189.584 128.6 189.866 128.525 189.32 128.374C188.606 127.942 187.402 127.772 186.613 127.528C186.237 127.415 184.112 127.359 184.243 128.13C184.356 128.75 184.507 129.427 183.886 129.86L184.714 129.54L184.413 129.596L185.785 129.634C185.127 129.484 184.488 128.675 184.037 128.205C183.51 127.66 183.021 127.077 182.57 126.475C182.119 125.873 179.938 126.043 179.825 126.851C179.75 127.378 179.768 128.224 179.467 128.675L180.784 128.149H180.539C180.953 128.243 181.367 128.299 181.78 128.355C180.201 127.528 179.11 126.061 177.136 126.832C176.591 127.039 176.271 127.34 176.139 127.923C176.139 127.979 176.139 129.803 176.779 128.882C176.722 128.957 175.932 127.942 175.857 127.848C175.406 127.246 173.507 127.453 173.15 128.073C172.98 128.374 172.792 128.656 172.604 128.938C172.51 129.07 171.927 129.634 172.51 129.596L173.751 129.766C173.018 129.427 172.943 128.525 172.416 127.979C171.833 127.396 170.197 127.584 169.709 128.205C169.276 128.769 168.806 129.634 168.204 130.029L169.765 129.634H169.539C169.821 129.69 170.122 129.766 170.404 129.822C170.085 129.596 170.103 128.694 169.915 128.318C169.633 127.772 168.204 128.036 167.828 128.149C166.794 128.487 166.117 129.126 165.44 129.935C165.177 130.254 164.5 130.762 164.35 131.119C165.403 131.646 165.91 131.627 165.835 131.063C165.835 130.894 165.835 130.725 165.835 130.555C165.854 130.16 165.929 129.766 166.004 129.371C166.155 128.562 163.654 129.089 163.353 129.314C162.958 129.615 162.545 129.935 162.15 130.236C161.849 130.461 160.871 130.875 161.642 130.931L162.507 131.119C162.037 130.819 162.3 129.747 161.905 129.277C161.454 128.731 159.799 128.863 159.329 129.352C158.953 129.766 158.577 130.16 158.182 130.574C157.994 130.781 157.806 130.988 157.618 131.195C157.223 131.477 157.317 131.571 157.9 131.458L158.765 131.646C158.239 131.42 158.596 130.443 158.051 130.029C157.505 129.615 156.64 129.709 156.039 129.841C154.252 130.273 153.519 132.379 151.94 133.094L153.632 132.868L153.35 132.831L154.027 133.113C153.519 132.605 153.764 131.195 153.801 130.555C153.858 129.766 153.97 128.976 154.158 128.205C154.591 126.4 155.362 124.67 156.396 123.128C158.257 120.402 161.097 118.503 164.331 117.807C164.707 117.732 165.459 117.544 165.252 117.036C165.064 116.585 163.804 116.716 163.485 116.791L163.504 116.754Z" fill="#846DF2"/>
<path d="M167.888 133.263C171.517 135.068 176.462 136.121 179.847 133.188C180.43 132.68 177.967 131.571 177.327 132.116C176.218 133.075 174.845 133.601 173.379 133.676C171.912 133.752 170.746 133.357 169.524 132.755C168.998 132.492 168.208 132.153 167.625 132.379C167.061 132.605 167.55 133.094 167.888 133.263Z" fill="#846DF2"/>
<path d="M159.889 140.293C161.393 140.142 162.898 140.048 164.402 140.011C165.906 139.973 167.26 139.898 168.426 140.857C169.328 141.609 170.005 142.624 171.002 143.283C172.092 143.997 173.333 143.997 174.593 143.828C176.944 143.489 179.144 142.906 180.61 140.895C180.967 140.387 181.287 139.823 181.757 139.409C182.34 138.901 183.111 138.807 183.844 138.657C185.386 138.356 186.947 138.13 188.526 137.98C188.846 137.942 189.918 137.736 189.843 137.228C189.767 136.72 188.658 136.833 188.376 136.852C186.909 137.002 185.443 137.209 183.976 137.472C182.716 137.698 181.362 137.886 180.215 138.488C179.2 139.014 178.617 139.898 177.978 140.8C177.132 141.966 175.928 142.643 174.462 142.7C173.089 142.756 172.186 141.139 171.246 140.33C170.381 139.559 169.404 139.127 168.257 138.958C165.511 138.525 162.503 138.92 159.757 139.183C159.438 139.221 158.366 139.428 158.441 139.936C158.516 140.443 159.626 140.33 159.908 140.312L159.889 140.293Z" fill="#846DF2"/>
<path d="M131.789 107.339C133.538 114.785 135.869 122.118 138.239 129.395C139.273 132.572 140.514 135.619 142.808 138.119C144.82 140.301 147.32 141.993 149.953 143.309C152.943 144.813 156.139 145.866 159.336 146.844C160.896 147.333 162.457 147.784 164.037 148.236C164.807 148.461 165.541 148.63 166.349 148.743C167.233 148.875 167.966 149.27 168.794 149.589C171.99 150.793 175.394 151.357 178.759 150.699C182.125 150.041 185.397 148.311 188.518 146.656C192.241 144.682 195.983 142.745 199.687 140.714C202.621 139.116 205.084 137.236 206.005 133.87C206.212 133.099 203.486 132.366 203.279 133.155C202.489 136.013 200.534 137.8 198.033 139.229C194.987 140.977 191.846 142.538 188.744 144.193C185.886 145.716 183.047 147.371 180.019 148.518C176.729 149.777 173.551 150.041 170.204 148.875C168.888 148.424 167.666 147.784 166.274 147.559C164.601 147.295 162.984 146.75 161.366 146.28C158.414 145.396 155.406 144.494 152.604 143.215C150.028 142.049 147.565 140.507 145.591 138.458C143.353 136.126 142.112 133.249 141.115 130.222C138.69 122.832 136.321 115.349 134.534 107.771C134.346 106.981 131.639 106.568 131.827 107.376L131.789 107.339Z" fill="#846DF2"/>
<path d="M184.075 120.715C184.075 120.715 184.17 120.752 184.226 120.79C184.339 120.846 184.094 120.715 184.207 120.79C184.301 120.827 184.395 120.884 184.47 120.921C184.658 121.015 184.846 121.128 185.034 121.222C185.128 121.279 185.204 121.335 185.298 121.373C185.429 121.448 185.26 121.335 185.335 121.391C185.373 121.41 185.411 121.448 185.448 121.467C185.617 121.579 185.787 121.711 185.956 121.843C186.106 121.956 186.275 122.087 186.426 122.219C186.501 122.275 186.576 122.35 186.652 122.426C186.746 122.501 186.539 122.332 186.708 122.463C186.746 122.501 186.764 122.52 186.802 122.557C187.103 122.858 187.385 123.159 187.648 123.497C187.911 123.836 188.457 123.967 188.851 123.967C189.077 123.967 189.585 123.892 189.322 123.554C188.118 122.05 186.539 120.921 184.771 120.15C184.564 120.056 184.301 120 184.057 120C183.925 120 183.681 120 183.587 120.094C183.305 120.357 183.944 120.658 184.094 120.715H184.075Z" fill="#846DF2"/>
<path d="M182.775 123.181C183.113 123.726 183.451 124.271 183.79 124.817C183.846 124.892 183.903 124.948 183.978 124.986C184.072 125.061 184.166 125.099 184.26 125.155C184.467 125.249 184.73 125.324 184.956 125.343H185.163C185.257 125.343 185.351 125.324 185.445 125.268C185.539 125.174 185.52 125.08 185.445 124.967C185.106 124.422 184.768 123.876 184.429 123.331C184.373 123.256 184.316 123.2 184.241 123.162C184.147 123.087 184.053 123.049 183.959 122.993C183.752 122.899 183.489 122.823 183.263 122.805H183.057C182.963 122.805 182.869 122.824 182.775 122.88C182.681 122.974 182.699 123.068 182.775 123.181Z" fill="#846DF2"/>
<path d="M160.281 123.069C160.939 122.486 161.635 121.941 162.368 121.489C163.158 121.019 163.929 120.643 164.719 120.361C164.944 120.286 165.358 120.023 165.001 119.816C164.644 119.609 164.061 119.684 163.703 119.816C161.842 120.512 160.093 121.527 158.608 122.862C158.307 123.144 158.758 123.313 159.003 123.332C159.397 123.37 159.962 123.332 160.262 123.069H160.281Z" fill="#846DF2"/>
<path d="M159.458 126.976C160.173 126.13 160.887 125.284 161.621 124.438C161.696 124.344 161.771 124.25 161.677 124.137C161.583 124.024 161.338 123.987 161.226 123.968C160.981 123.949 160.737 123.968 160.511 124.024C160.342 124.062 160.097 124.118 159.966 124.269C159.251 125.115 158.537 125.961 157.803 126.807C157.728 126.901 157.653 126.995 157.747 127.108C157.841 127.221 158.085 127.259 158.198 127.277C158.443 127.296 158.687 127.277 158.913 127.221C159.082 127.183 159.326 127.127 159.458 126.976Z" fill="#846DF2"/>
<path d="M164.984 124.89C165.51 123.988 166.018 123.085 166.544 122.182C166.62 122.07 166.545 121.957 166.432 121.9C166.281 121.806 166.037 121.769 165.868 121.75C165.623 121.75 165.379 121.75 165.153 121.825C165.003 121.882 164.815 121.938 164.739 122.07C164.213 122.972 163.705 123.875 163.179 124.777C163.104 124.89 163.179 125.003 163.292 125.059C163.442 125.153 163.686 125.191 163.856 125.21C164.1 125.21 164.344 125.21 164.57 125.135C164.721 125.078 164.909 125.022 164.984 124.89Z" fill="#846DF2"/>
<path d="M170.802 123.484C171.046 124.386 171.159 125.308 171.178 126.248C171.178 126.38 171.404 126.455 171.479 126.474C171.686 126.53 171.949 126.53 172.156 126.492C172.362 126.455 172.607 126.417 172.795 126.304C172.908 126.229 173.039 126.154 173.039 126.003C173.039 125.063 172.908 124.142 172.663 123.239C172.626 123.108 172.475 123.051 172.362 123.014C172.156 122.957 171.892 122.957 171.686 122.995C171.479 123.033 171.234 123.07 171.046 123.183C170.952 123.239 170.764 123.352 170.802 123.484Z" fill="#846DF2"/>
<path d="M174.218 121.772C174.557 122.468 174.801 123.22 174.914 124.01C174.933 124.142 175.215 124.273 175.29 124.311C175.497 124.405 175.76 124.48 175.986 124.499C176.174 124.499 176.399 124.536 176.569 124.442L176.681 124.367C176.681 124.367 176.757 124.254 176.719 124.179C176.606 123.408 176.362 122.656 176.023 121.942C175.948 121.791 175.779 121.697 175.647 121.641C175.44 121.547 175.177 121.472 174.952 121.453C174.764 121.453 174.538 121.415 174.369 121.509C174.275 121.566 174.162 121.641 174.218 121.772Z" fill="#846DF2"/>
<path d="M177.929 120.792C178.099 120.999 178.268 121.205 178.418 121.45L178.343 121.337C178.681 121.864 178.926 122.447 179.076 123.067C179.114 123.199 179.34 123.33 179.434 123.387C179.64 123.5 179.904 123.575 180.129 123.594C180.336 123.612 180.957 123.669 180.881 123.293C180.656 122.371 180.205 121.506 179.584 120.792C179.471 120.641 179.246 120.547 179.076 120.491C178.869 120.416 178.587 120.359 178.362 120.359C178.23 120.359 177.986 120.359 177.892 120.472C177.798 120.566 177.835 120.679 177.91 120.773L177.929 120.792Z" fill="#846DF2"/>
<path d="M209.396 112.335C208.663 110.455 207.779 108.669 206.726 106.958C206.143 105.999 205.504 105.077 204.902 104.137C204.602 103.648 204.301 103.159 204.037 102.652C203.718 102.031 203.398 101.674 204.113 101.279C208.005 99.0791 212.48 98.1766 216.504 96.2963C220.528 94.4159 224.326 91.8399 228.105 89.3767C229.027 88.775 229.948 88.1169 230.926 87.5716C231.152 87.44 231.377 87.3271 231.622 87.2143C231.227 87.0075 231.208 87.0639 231.584 87.3648C231.847 87.7972 232.299 88.1921 232.618 88.6058C233.991 90.3921 235.119 92.3664 236.022 94.4347C236.36 95.1869 239.068 95.2809 238.748 94.5664C237.958 92.7425 236.999 91.0126 235.834 89.3955C234.818 87.9853 233.803 86.4434 232.017 86.0673C230.061 85.6349 228.613 86.5938 227.034 87.628C225.323 88.7374 223.612 89.8844 221.882 90.975C218.441 93.1749 214.906 95.2245 211.089 96.6723C209.189 97.3868 207.272 97.9885 205.391 98.7219C204.489 99.0791 203.586 99.4552 202.721 99.8877C202.232 100.132 200.991 100.546 200.841 101.185C200.672 101.937 201.593 103.084 201.95 103.667C202.533 104.626 203.191 105.566 203.793 106.525C204.94 108.349 205.899 110.248 206.67 112.241C206.971 112.993 209.697 113.125 209.396 112.373V112.335Z" fill="#846DF2"/>
<path d="M205.513 89.5844C204.949 92.5929 204.892 95.6578 205.419 98.6851C205.55 99.4749 208.333 99.0236 208.201 98.2338C207.694 95.3382 207.694 92.3485 208.239 89.4528C208.333 88.9263 207.506 88.9075 207.148 88.9263C206.791 88.9451 206.415 89.0203 206.077 89.1519C205.907 89.2271 205.531 89.3775 205.494 89.5844H205.513Z" fill="#846DF2"/>
<path d="M271.186 161.405C267.707 156.121 264.21 150.8 261.615 145.027C258.851 138.879 257.741 132.316 255.917 125.886C254.093 119.455 251.517 113.814 248.979 107.929C247.719 104.976 246.478 102.024 245.388 98.997C244.88 97.568 244.485 96.0637 243.958 94.6346C243.507 93.45 242.605 92.8295 241.345 92.6603C240.085 92.4911 239.239 93.1304 238.224 93.8261C236.757 94.8227 235.196 95.7064 233.654 96.5526C230.74 98.1509 227.919 99.8807 225.061 101.592C219.251 105.089 213.441 108.681 207.274 111.539C204.98 112.611 202.648 113.645 200.561 115.093C199.527 115.807 198.568 116.616 197.759 117.556C197.063 118.383 196.029 119.605 196.123 120.752C196.236 121.974 197.27 123.253 197.872 124.287C198.662 125.641 199.47 126.957 200.297 128.274C201.896 130.812 203.532 133.313 205.092 135.87C208.439 141.285 211.579 146.964 213.046 153.207C213.817 156.497 213.761 159.976 215.265 163.059C216.769 166.143 219.044 168.381 221.301 170.675C221.733 171.126 222.56 171.258 223.162 171.22C223.501 171.201 224.253 171.013 223.801 170.562C221.79 168.531 219.74 166.444 218.349 163.924C216.957 161.405 216.694 158.547 216.224 155.651C215.321 150.236 213.084 145.159 210.395 140.383C207.706 135.607 204.472 130.906 201.595 126.13C200.918 125.021 200.279 123.911 199.639 122.783C199.263 122.106 198.756 121.429 198.944 120.621C199.113 119.925 199.621 119.286 200.053 118.722C201.614 116.71 203.814 115.337 206.051 114.19C208.458 112.968 210.959 111.915 213.347 110.655C216.299 109.113 219.157 107.421 222.015 105.747C224.873 104.074 227.543 102.457 230.289 100.783C233.034 99.1098 235.798 97.6808 238.506 96.0637C239.051 95.744 239.577 95.4056 240.123 95.0671C240.612 94.7475 241.627 94.2962 241.947 93.8449L240.969 93.8073C241.044 93.9389 241.119 94.0894 241.176 94.2398C241.288 94.5218 241.364 94.8227 241.458 95.1047C241.721 95.9133 241.965 96.7406 242.247 97.5491C243.244 100.445 244.391 103.284 245.594 106.105C247.982 111.746 250.558 117.33 252.458 123.159C254.62 129.872 255.579 136.904 258.324 143.448C261.069 149.991 264.736 155.482 268.478 161.179C268.816 161.687 269.55 161.837 270.114 161.875C270.283 161.875 271.524 161.837 271.204 161.367L271.186 161.405Z" fill="#846DF2"/>
<path d="M246.28 105.022C252.09 106.15 257.411 109.911 260.043 115.27C262.676 120.628 261.341 127.717 265.007 132.963C265.459 133.621 268.148 133.001 267.659 132.324C265.666 129.485 265.252 126.081 264.801 122.734C264.387 119.669 263.842 116.717 262.337 113.991C259.423 108.726 253.97 105.135 248.122 103.988C247.521 103.875 246.656 103.875 246.148 104.251C245.772 104.533 245.64 104.928 246.242 105.041L246.28 105.022Z" fill="#846DF2"/>
<path d="M205.995 173.85C207.311 171.162 209.286 168.811 211.053 166.404C212.708 164.167 214.268 161.685 216.544 160.011C217.014 159.673 215.81 159.24 215.66 159.203C215.096 159.071 214.381 159.015 213.892 159.372C211.617 161.046 210.056 163.528 208.402 165.765C206.634 168.172 204.66 170.522 203.344 173.211C202.949 174.02 205.675 174.546 205.995 173.869V173.85Z" fill="#846DF2"/>
<path d="M158.878 172.636C154.742 162.802 152.091 152.479 149.834 142.081C149.646 141.216 146.863 141.46 147.014 142.118C149.289 152.629 151.978 163.046 156.152 172.974C156.453 173.689 159.217 173.444 158.86 172.636H158.878Z" fill="#846DF2"/>
<path d="M195.213 172.674C199.895 161.355 204.408 149.96 208.751 138.509C209.015 137.794 206.345 136.91 206.044 137.681C201.7 149.132 197.187 160.527 192.505 171.847C192.223 172.524 194.875 173.445 195.213 172.674Z" fill="#846DF2"/>
<path d="M138.401 168.932C136.821 164.833 135.411 160.602 133.079 156.861C131.03 153.551 128.435 150.618 125.784 147.779C124.43 146.312 123.057 144.883 121.704 143.416C121.083 142.739 120.463 142.044 119.861 141.329C118.94 140.257 118.996 139.524 119.955 138.49C122.813 135.368 126.047 132.68 128.604 129.276C128.868 128.938 128.266 128.656 128.021 128.581C126.498 128.11 124.957 127.716 123.396 127.434C122.55 127.283 121.685 127.151 120.839 127.057C120.481 127.02 120.105 126.982 119.729 126.945C118.375 126.832 119.748 127.189 119.786 127.151C119.804 127.114 119.748 126.136 119.748 126.08C119.748 125.704 119.767 125.328 119.804 124.951C119.842 124.312 119.917 123.692 120.011 123.071C120.237 121.623 120.594 120.194 121.064 118.803C122.926 113.237 126.461 108.292 130.635 104.212C131.124 103.742 128.586 103.027 127.965 103.629C123.565 107.897 119.917 113.162 118.075 119.047C117.623 120.514 117.285 121.999 117.097 123.522C116.984 124.519 116.533 126.493 117.191 127.34C117.905 128.28 119.917 128.073 120.933 128.204C122.813 128.43 124.674 128.844 126.498 129.389L125.915 128.693C124.562 130.498 123.039 132.134 121.44 133.733C119.974 135.199 118.357 136.591 117.022 138.17C116.495 138.791 116.081 139.524 116.401 140.333C116.721 141.141 117.567 141.893 118.15 142.532C119.466 144.018 120.839 145.466 122.211 146.914C125.051 149.941 127.89 153.006 130.127 156.522C132.572 160.358 134.02 164.72 135.656 168.932C135.938 169.684 138.702 169.703 138.401 168.932Z" fill="#846DF2"/>
<path d="M69.862 167.486C86.4464 162.071 104.629 162.578 120.931 168.784C121.721 169.084 122.755 168.953 123.507 168.614C123.865 168.445 124.805 167.806 123.996 167.486C110.27 162.259 95.2275 160.849 80.749 163.255C76.6499 163.932 72.5884 164.929 68.6398 166.226C68.2261 166.358 67.0979 166.734 67.5116 167.354C67.8876 167.919 69.4107 167.637 69.8808 167.486H69.862Z" fill="#846DF2"/>
<path d="M126.274 100.408C118.358 100.258 110.103 100.164 102.732 103.492C99.4607 104.959 96.4898 107.121 94.271 109.96C92.0523 112.799 90.5292 116.146 89.2506 119.512C86.7121 126.15 84.8506 133.652 79.3413 138.541C76.5208 141.042 72.9294 142.358 69.4696 143.712C66.0099 145.066 62.9261 146.495 60.0117 148.62C53.3553 153.471 48.8238 161.368 49.8579 169.792C49.9708 170.694 52.7348 170.807 52.6596 170.187C51.7382 162.816 55.1228 155.746 60.6134 150.951C63.2834 148.62 66.3671 146.852 69.6389 145.498C72.9106 144.144 76.3704 143.054 79.4165 141.173C92.0147 133.314 89.2882 114.717 101.416 106.463C108.9 101.386 118.226 101.461 126.895 101.612C127.271 101.612 128.042 101.612 127.966 101.066C127.891 100.577 126.612 100.446 126.312 100.427L126.274 100.408Z" fill="#846DF2"/>
<path fill-rule="evenodd" clip-rule="evenodd" d="M210.809 125.61C210.527 123.372 207.857 122.244 207.782 124.989C207.726 127.622 210.979 129.163 210.828 125.873L210.79 125.628L210.809 125.61Z" fill="#846DF2"/>
<path d="M212.208 125.515C212.076 124.538 211.493 123.541 210.572 123.127C209.726 122.733 208.692 122.695 207.808 122.996C207.244 123.184 206.736 123.541 206.548 124.124C206.228 125.121 206.398 126.249 207.037 127.114C207.808 128.167 209.18 128.486 210.421 128.242C211.08 128.11 211.775 127.809 212.057 127.151C212.264 126.644 212.302 126.08 212.227 125.534C212.208 125.327 211.945 125.215 211.794 125.158C211.493 125.045 211.098 125.027 210.798 125.064C210.497 125.102 210.102 125.139 209.82 125.29C209.669 125.365 209.406 125.497 209.425 125.722C209.481 126.136 209.481 126.55 209.369 126.944L209.406 126.794C209.35 127.02 209.256 127.245 209.086 127.415L209.218 127.264C209.218 127.264 209.124 127.358 209.068 127.396C208.974 127.471 209.331 127.264 209.18 127.321C209.18 127.321 209.143 127.321 209.143 127.339C209.068 127.396 209.387 127.245 209.369 127.245H209.331C209.181 127.283 209.651 127.17 209.594 127.189C209.369 127.227 209.951 127.151 209.857 127.17C209.651 127.17 210.309 127.17 210.121 127.17C209.895 127.17 210.384 127.208 210.346 127.189C210.309 127.189 210.29 127.189 210.252 127.189C210.215 127.189 210.61 127.283 210.478 127.245C210.478 127.245 210.44 127.245 210.421 127.245C210.384 127.245 210.365 127.227 210.327 127.208C210.215 127.17 210.591 127.339 210.421 127.245C210.271 127.17 210.158 127.095 210.027 126.982L210.177 127.114C209.82 126.813 209.557 126.437 209.369 126.004L209.425 126.155C209.18 125.553 209.124 124.876 209.275 124.237L209.237 124.387C209.293 124.162 209.387 123.936 209.557 123.748L209.425 123.898C209.425 123.898 209.519 123.804 209.575 123.767C209.669 123.692 209.312 123.898 209.463 123.842C209.632 123.767 209.274 123.898 209.293 123.898C209.425 123.861 209.519 123.898 209.068 123.955C209.068 123.955 209.086 123.955 209.105 123.955C209.256 123.936 208.729 123.992 208.804 123.992C209.03 123.992 208.504 123.992 208.541 123.992C208.748 123.992 208.222 123.955 208.316 123.974C208.353 123.974 208.372 123.974 208.41 123.974C208.428 123.974 208.052 123.88 208.203 123.917H208.24C208.278 123.917 208.316 123.936 208.334 123.955C208.428 123.992 208.071 123.823 208.222 123.898C208.372 123.974 208.504 124.049 208.616 124.162L208.466 124.03C208.804 124.312 209.068 124.688 209.237 125.083L209.18 124.933C209.274 125.177 209.35 125.44 209.387 125.703C209.406 125.91 209.669 126.023 209.82 126.08C210.121 126.192 210.515 126.211 210.816 126.174C211.117 126.136 211.512 126.098 211.794 125.948C211.945 125.873 212.208 125.741 212.189 125.515H212.208Z" fill="#846DF2"/>
<path fill-rule="evenodd" clip-rule="evenodd" d="M215.708 133.711C215.426 131.474 212.756 130.345 212.68 133.091C212.624 135.723 215.877 137.265 215.727 133.974L215.689 133.73L215.708 133.711Z" fill="#846DF2"/>
<path d="M217.091 133.64C216.959 132.663 216.376 131.666 215.455 131.252C214.609 130.858 213.574 130.82 212.691 131.121C212.127 131.309 211.619 131.666 211.431 132.249C211.111 133.246 211.28 134.374 211.92 135.239C212.691 136.292 214.063 136.611 215.304 136.367C215.962 136.235 216.658 135.934 216.94 135.276C217.147 134.769 217.185 134.205 217.109 133.659C217.091 133.452 216.827 133.34 216.677 133.283C216.376 133.17 215.981 133.152 215.68 133.189C215.38 133.227 214.985 133.264 214.703 133.415C214.552 133.49 214.289 133.622 214.308 133.847C214.364 134.261 214.364 134.675 214.251 135.069L214.289 134.919C214.233 135.145 214.139 135.37 213.969 135.54L214.101 135.389C214.101 135.389 214.007 135.483 213.95 135.521C213.856 135.596 214.214 135.389 214.063 135.446C214.063 135.446 214.026 135.446 214.026 135.464C213.95 135.521 214.27 135.37 214.251 135.37H214.214C214.063 135.408 214.533 135.295 214.477 135.314C214.251 135.352 214.834 135.276 214.74 135.295C214.533 135.295 215.191 135.295 215.003 135.295C214.778 135.295 215.267 135.333 215.229 135.314C215.191 135.314 215.173 135.314 215.135 135.314C215.097 135.314 215.492 135.408 215.361 135.37C215.361 135.37 215.323 135.37 215.304 135.37C215.267 135.37 215.248 135.352 215.21 135.333C215.097 135.295 215.474 135.464 215.304 135.37C215.154 135.295 215.041 135.22 214.909 135.107L215.06 135.239C214.703 134.938 214.439 134.562 214.251 134.129L214.308 134.28C214.063 133.678 214.007 133.001 214.157 132.362L214.12 132.512C214.176 132.287 214.27 132.061 214.439 131.873L214.308 132.023C214.308 132.023 214.402 131.929 214.458 131.892C214.552 131.817 214.195 132.023 214.345 131.967C214.515 131.892 214.157 132.023 214.176 132.023C214.308 131.986 214.402 132.023 213.95 132.08C213.95 132.08 213.969 132.08 213.988 132.08C214.138 132.061 213.612 132.117 213.687 132.117C213.913 132.117 213.386 132.117 213.424 132.117C213.631 132.117 213.104 132.08 213.198 132.099C213.236 132.099 213.255 132.099 213.292 132.099C213.311 132.099 212.935 132.005 213.086 132.042H213.123C213.161 132.042 213.198 132.061 213.217 132.08C213.311 132.117 212.954 131.948 213.104 132.023C213.255 132.099 213.386 132.174 213.499 132.287L213.349 132.155C213.687 132.437 213.95 132.813 214.12 133.208L214.063 133.058C214.157 133.302 214.233 133.565 214.27 133.828C214.289 134.035 214.552 134.148 214.703 134.205C215.003 134.317 215.398 134.336 215.699 134.299C216 134.261 216.395 134.223 216.677 134.073C216.827 133.998 217.091 133.866 217.072 133.64H217.091Z" fill="#846DF2"/>
<path fill-rule="evenodd" clip-rule="evenodd" d="M219.786 141.906C219.504 139.669 216.834 138.541 216.759 141.286C216.702 143.918 219.955 145.46 219.805 142.17L219.767 141.925L219.786 141.906Z" fill="#846DF2"/>
<path d="M221.192 141.812C221.061 140.835 220.478 139.838 219.556 139.424C218.71 139.029 217.676 138.992 216.792 139.293C216.228 139.481 215.72 139.838 215.532 140.421C215.213 141.417 215.382 142.546 216.021 143.411C216.792 144.464 218.165 144.783 219.406 144.539C220.064 144.407 220.76 144.106 221.042 143.448C221.249 142.941 221.286 142.376 221.211 141.831C221.192 141.624 220.929 141.511 220.779 141.455C220.478 141.342 220.083 141.323 219.782 141.361C219.481 141.399 219.086 141.436 218.804 141.587C218.654 141.662 218.39 141.794 218.409 142.019C218.466 142.433 218.466 142.847 218.353 143.241L218.39 143.091C218.334 143.317 218.24 143.542 218.071 143.711L218.202 143.561C218.202 143.561 218.108 143.655 218.052 143.693C217.958 143.768 218.315 143.561 218.165 143.617C218.165 143.617 218.127 143.617 218.127 143.636C218.052 143.693 218.372 143.542 218.353 143.542H218.315C218.165 143.58 218.635 143.467 218.579 143.486C218.353 143.523 218.936 143.448 218.842 143.467C218.635 143.467 219.293 143.467 219.105 143.467C218.879 143.467 219.368 143.505 219.331 143.486C219.293 143.486 219.274 143.486 219.237 143.486C219.199 143.486 219.594 143.58 219.462 143.542C219.462 143.542 219.425 143.542 219.406 143.542C219.368 143.542 219.349 143.523 219.312 143.505C219.199 143.467 219.575 143.636 219.406 143.542C219.255 143.467 219.143 143.392 219.011 143.279L219.161 143.411C218.804 143.11 218.541 142.734 218.353 142.301L218.409 142.452C218.165 141.85 218.108 141.173 218.259 140.534L218.221 140.684C218.278 140.458 218.372 140.233 218.541 140.045L218.409 140.195C218.409 140.195 218.503 140.101 218.56 140.064C218.654 139.988 218.296 140.195 218.447 140.139C218.616 140.064 218.259 140.195 218.278 140.195C218.409 140.158 218.503 140.195 218.052 140.252C218.052 140.252 218.071 140.252 218.09 140.252C218.24 140.233 217.714 140.289 217.789 140.289C218.014 140.289 217.488 140.289 217.526 140.289C217.732 140.289 217.206 140.252 217.3 140.27C217.338 140.27 217.356 140.27 217.394 140.27C217.413 140.27 217.037 140.176 217.187 140.214H217.225C217.262 140.214 217.3 140.233 217.319 140.252C217.413 140.289 217.055 140.12 217.206 140.195C217.356 140.27 217.488 140.346 217.601 140.458L217.45 140.327C217.789 140.609 218.052 140.985 218.221 141.38L218.165 141.229C218.259 141.474 218.334 141.737 218.372 142C218.391 142.207 218.654 142.32 218.804 142.376C219.105 142.489 219.5 142.508 219.801 142.47C220.102 142.433 220.496 142.395 220.779 142.245C220.929 142.17 221.192 142.038 221.173 141.812H221.192Z" fill="#846DF2"/>
<path d="M165.869 150.886C164.628 153.162 164.478 155.869 165.474 158.276C165.55 158.464 165.944 158.596 166.095 158.652C166.433 158.746 166.828 158.802 167.167 158.784C167.486 158.765 168.408 158.671 168.201 158.144C167.298 155.982 167.43 153.406 168.558 151.356C168.821 150.868 167.938 150.661 167.618 150.604C167.261 150.548 166.885 150.529 166.527 150.604C166.321 150.642 165.963 150.698 165.851 150.905L165.869 150.886Z" fill="#C5CBFF"/>
<path d="M181.158 156.704C181.496 154.786 181.139 152.812 180.218 151.101C180.124 150.913 179.729 150.819 179.56 150.781C179.221 150.706 178.808 150.687 178.469 150.744C178.168 150.781 177.228 150.969 177.491 151.458C178.375 153.075 178.638 154.956 178.337 156.761C178.3 156.949 178.638 157.118 178.751 157.156C179.052 157.268 179.428 157.306 179.748 157.306C180.143 157.306 181.064 157.25 181.139 156.723L181.158 156.704Z" fill="#C5CBFF"/>
<path d="M187.422 152.24C188.531 151.958 189.49 151.751 190.637 151.582C191.201 151.507 191.746 151.432 192.311 151.394C192.311 151.394 192.724 151.356 192.517 151.394C192.649 151.394 192.781 151.394 192.912 151.375C193.232 151.375 193.533 151.338 193.852 151.338C194.116 151.338 195.15 151.244 194.905 150.736C194.661 150.228 193.646 150.172 193.213 150.172C190.618 150.247 188.023 150.604 185.523 151.281C185.372 151.319 185.09 151.45 185.071 151.639C185.053 151.827 185.297 151.996 185.447 152.071C186.03 152.372 186.801 152.428 187.441 152.259L187.422 152.24Z" fill="#C5CBFF"/>
<path d="M185.768 156.904C187.254 157.393 188.758 157.882 190.243 158.371C190.544 158.465 190.958 158.427 191.259 158.39C191.559 158.352 191.954 158.258 192.218 158.089C192.368 157.995 192.594 157.844 192.575 157.638C192.556 157.431 192.274 157.356 192.105 157.299C190.619 156.81 189.115 156.321 187.63 155.832C187.329 155.738 186.915 155.776 186.614 155.814C186.313 155.851 185.918 155.945 185.655 156.114C185.505 156.209 185.279 156.359 185.298 156.566C185.317 156.773 185.599 156.848 185.768 156.904Z" fill="#C5CBFF"/>
<path d="M155.249 153.966C157.298 154.493 159.423 154.699 161.548 154.549C161.868 154.53 162.638 154.304 162.168 153.872C161.698 153.44 160.89 153.308 160.307 153.346C160.1 153.346 159.874 153.383 159.668 153.383C159.574 153.383 159.461 153.383 159.367 153.383C159.329 153.383 158.991 153.383 159.197 153.383C159.404 153.383 159.009 153.383 158.972 153.383C158.878 153.383 158.765 153.383 158.671 153.383C158.464 153.383 158.276 153.364 158.069 153.346C157.975 153.346 157.862 153.346 157.768 153.327C157.43 153.289 158.088 153.364 157.75 153.327C157.562 153.308 157.355 153.27 157.167 153.233C156.979 153.195 156.772 153.157 156.584 153.12C156.527 153.12 156.452 153.101 156.396 153.082C156.584 153.12 156.621 153.139 156.527 153.101C156.415 153.082 156.302 153.045 156.189 153.026C155.832 152.932 155.474 152.875 155.117 152.894C154.929 152.894 154.572 152.951 154.421 153.12C154.064 153.534 155.042 153.91 155.268 153.966H155.249Z" fill="#C5CBFF"/>
<path d="M157.659 157.952L162.623 156.974C162.792 156.937 162.924 156.786 162.886 156.598C162.83 156.391 162.529 156.184 162.359 156.09C161.795 155.771 161.1 155.583 160.46 155.714L155.496 156.692C155.327 156.73 155.195 156.88 155.233 157.068C155.289 157.275 155.59 157.482 155.76 157.576C156.324 157.896 157.019 158.084 157.659 157.952Z" fill="#C5CBFF"/>
<path d="M44.5 52.3116C44.5 58.5919 44.5 64.8722 44.5 71.1524C44.5 72.2242 48.2606 72.2242 48.2606 71.1524C48.2606 64.8722 48.2606 58.5919 48.2606 52.3116C48.2606 51.2399 44.5 51.2399 44.5 52.3116Z" fill="white"/>
<path d="M32.2031 52.3168C32.2031 56.2654 32.2031 60.1953 32.2031 64.144C32.2031 64.8209 33.7074 64.8961 34.0834 64.8961H46.0235C46.4371 64.8961 47.9038 64.8209 47.9038 64.144V61.9628C47.9038 61.2859 46.3995 61.2107 46.0235 61.2107H34.6288C34.2527 61.2107 32.692 61.2859 32.7484 61.9628L32.8424 62.9782C32.8988 63.6739 34.2903 63.7303 34.7227 63.7303C37.7125 63.7303 40.7022 63.7491 43.6919 63.7679H44.9705C45.4406 63.7679 46.8132 63.7115 46.8508 63.0158C46.8884 62.3201 45.3278 62.2636 44.9705 62.2636C41.9808 62.2636 38.9911 62.2448 36.0013 62.226H34.7227C35.3432 62.4705 35.9826 62.7149 36.6031 62.9782L36.5091 61.9628L34.6288 62.7149H46.0235L44.1432 61.9628V64.144L46.0235 63.3918H34.0834L35.9638 64.144C35.9638 60.1953 35.9638 56.2654 35.9638 52.3168C35.9638 51.6399 34.5347 51.5458 34.0834 51.5646C33.6322 51.5834 32.2031 51.6211 32.2031 52.3168Z" fill="white"/>
<path d="M106.383 52.3116C106.383 58.5919 106.383 64.8722 106.383 71.1524C106.383 72.2242 110.143 72.2242 110.143 71.1524C110.143 64.8722 110.143 58.5919 110.143 52.3116C110.143 51.2399 106.383 51.2399 106.383 52.3116Z" fill="white"/>
<path d="M94.0859 52.3168C94.0859 56.2654 94.0859 60.1953 94.0859 64.144C94.0859 64.8209 95.5902 64.8961 95.9663 64.8961H107.906C108.32 64.8961 109.787 64.8209 109.787 64.144V61.9628C109.787 61.2859 108.282 61.2107 107.906 61.2107H96.5116C96.1355 61.2107 94.5748 61.2859 94.6312 61.9628L94.7252 62.9782C94.7816 63.6739 96.1731 63.7303 96.6056 63.7303C99.5953 63.7303 102.585 63.7491 105.575 63.7679H106.853C107.323 63.7679 108.696 63.7115 108.734 63.0158C108.771 62.3201 107.211 62.2636 106.853 62.2636C103.864 62.2636 100.874 62.2448 97.8842 62.226H96.6056C97.2261 62.4705 97.8654 62.7149 98.4859 62.9782L98.3919 61.9628L96.5116 62.7149H107.906L106.026 61.9628V64.144L107.906 63.3918H95.9663L97.8466 64.144C97.8466 60.1953 97.8466 56.2654 97.8466 52.3168C97.8466 51.6399 96.4175 51.5458 95.9663 51.5646C95.515 51.5834 94.0859 51.6211 94.0859 52.3168Z" fill="white"/>
<path d="M84.0931 75.2598H58.1823C57.6559 75.2598 57.2422 74.8462 57.2422 74.3197V48.4089C57.2422 47.8824 57.6559 47.4688 58.1823 47.4688H84.0931C84.6196 47.4688 85.0333 47.8824 85.0333 48.4089V74.3197C85.0333 74.8462 84.6196 75.2598 84.0931 75.2598ZM59.1225 73.3795H83.153V49.3491H59.1225V73.3795Z" fill="white"/>
<path d="M115.07 75.2598H89.1589C88.6324 75.2598 88.2188 74.8462 88.2188 74.3197V48.4089C88.2188 47.8824 88.6324 47.4688 89.1589 47.4688H115.07C115.596 47.4688 116.01 47.8824 116.01 48.4089V74.3197C116.01 74.8462 115.596 75.2598 115.07 75.2598ZM90.0991 73.3795H114.13V49.3491H90.0991V73.3795Z" fill="white"/>
<path d="M53.1869 75.2598H27.2761C26.7496 75.2598 26.3359 74.8462 26.3359 74.3197V48.4089C26.3359 47.8824 26.7496 47.4688 27.2761 47.4688H53.1869C53.7134 47.4688 54.127 47.8824 54.127 48.4089V74.3197C54.127 74.8462 53.7134 75.2598 53.1869 75.2598ZM28.2163 73.3795H52.2467V49.3491H28.2163V73.3795Z" fill="white"/>
<path d="M74.509 66.2105C74.0577 67.3387 73.3432 68.5233 72.2338 68.9933C71.7074 69.219 71.3313 69.2002 70.9552 69.219C70.5416 69.2566 70.8236 69.219 70.9552 69.219C70.7484 69.219 70.5416 69.1814 70.3535 69.125C70.6544 69.1814 70.1279 69.0309 70.0715 69.0121C67.6835 67.978 66.6305 64.7062 66.5552 62.2054C66.48 59.7046 67.2134 56.8841 69.0373 55.0226C69.4133 54.6465 69.8646 54.3081 70.3347 54.0636C70.4099 54.026 70.8048 53.8568 70.9928 53.8004C70.7108 53.8756 71.0304 53.8004 71.0681 53.8004C71.3125 53.7628 71.3313 53.7628 71.0868 53.8004C71.3313 53.8004 71.3501 53.7816 71.1809 53.8004C70.786 53.7816 71.6321 53.8004 71.2185 53.8004C71.3877 53.8004 71.5381 53.838 71.7074 53.8756C71.5757 53.8568 72.0646 53.9884 72.2338 54.0824C72.8731 54.3833 73.4372 54.8346 73.8697 55.3986C75.0167 56.8465 75.3551 58.614 75.4868 60.4003C75.6372 62.4498 75.2236 64.3678 74.4714 66.2669C74.1518 67.113 75.4868 67.3951 76.0697 67.4703C76.6526 67.5455 78.6645 67.6959 78.9842 66.9062C79.7927 64.8378 80.338 62.7883 80.1688 60.5507C80.0184 58.5388 79.6047 56.4328 78.2696 54.8722C75.468 51.6004 69.7706 51.0175 66.1228 53.1423C60.275 56.5268 60.2374 67.5831 66.6681 70.3284C69.0185 71.3249 71.933 71.4566 74.3962 70.8173C76.5586 70.272 78.1192 68.9933 78.9654 66.9062C79.3038 66.06 77.95 65.778 77.3671 65.7028C76.7842 65.6276 74.7723 65.4772 74.4526 66.2669L74.509 66.2105Z" fill="white"/>
<path d="M215.422 120.494C215.883 120.313 216.64 120.011 218.176 119.306C220.738 118.131 227.95 115.206 237.121 112.05C240.559 110.867 241.602 110.754 242.357 110.644C243.566 110.469 237.388 116.56 226.713 126.262C222.726 129.886 221.491 130.705 221.184 131.183C220.843 131.713 228.352 130.114 238.087 127.534C241.593 126.604 242.226 126.593 239.464 129.219C230.809 137.445 225.088 142.703 226.816 142.831C228.33 142.943 236.006 141.239 246.327 139.233C249.663 138.584 249.268 139.455 244.158 143.664C239.047 147.874 229.265 155.592 230.14 159.285C231.015 162.979 242.844 162.415 249.455 162.156C257.098 161.856 258.65 162.176 259.531 162.645C259.981 162.884 260.234 163.433 260.14 163.902C259.688 166.144 252.54 166.77 246.068 167.74C248.815 168.25 257.757 169.252 262.582 169.814C267.407 170.376 267.843 170.468 268.431 170.664" stroke="#7AEDE3" stroke-width="1.89349" stroke-linecap="round"/>
<path d="M195.741 168.047C195.792 167.393 196.008 164.972 198.669 157.58C200.36 152.881 203.468 148.648 205.766 145.31C206.604 144.093 206.656 143.766 206.417 143.601C205.741 143.135 201.104 143.981 194.566 144.872C187.971 145.771 182.875 146.953 180.307 147.732C179.849 147.871 179.547 147.913 179.521 148.126C179.333 149.668 181.226 151.23 181.663 153.684C182.475 158.243 181.397 159.392 181.344 160.01C181.218 161.466 184.988 160.597 189.754 163.392C191.477 164.556 192.58 165.457 193.494 166.376C193.915 166.845 194.249 167.317 195.13 168.381" stroke="#FF71BD" stroke-width="1.89349" stroke-linecap="round"/>
<path d="M146.934 142.438C152.216 142.514 160.721 146.74 165.425 149.192C166.62 149.816 163.567 152.39 162.853 154.275C162.173 156.068 162.677 158.589 163.182 160.536C163.365 161.239 152.848 168.002 151.37 166.558C145.641 160.961 143.439 150.82 145.669 143.229" stroke="#FF71BD" stroke-width="1.89349" stroke-linecap="round"/>
<path d="M180.515 154.747C180.515 154.647 180.515 154.132 180.274 153.285C179.573 150.817 173.563 151.198 168.761 151.98C167.375 152.205 166.681 152.903 166.167 153.497C165.238 154.571 165.003 156.255 165 158.113C164.998 159.627 166.897 160.78 168.32 161.655C169.976 162.674 172.95 161.526 175.87 159.77C177.112 159.023 177.721 158.065 178.202 157.229C178.776 156.232 178.862 154.797 178.794 153.47C178.764 152.898 178.513 152.556 178.219 152.256C177.608 151.634 176.744 151.421 175.952 151.355C174.345 151.221 173.052 152.333 171.822 153.579C171.135 154.276 171.125 155.324 171.038 156.276C170.923 157.546 171.294 158.632 171.876 159.246C172.823 160.247 175.029 160.641 176.72 160.736C177.029 160.754 177.271 160.475 177.484 160.068C177.996 159.086 177.996 157.597 177.853 156.269C177.754 155.36 177.081 154.83 176.525 154.352C175.47 153.447 172.826 153.574 170.442 154.006C168.467 154.363 167.569 156.017 166.807 157.492C166.613 157.869 166.679 158.312 166.863 158.701C167.661 160.384 170.421 160.653 173.261 161.005C176.698 161.431 178.511 160.345 180.922 158.906C181.435 158.6 181.515 158.167 181.532 157.81C181.63 155.746 178.694 153.731 177.026 153.058C176.069 152.672 175.137 153.171 174.552 153.548C173.284 154.366 172.6 156.038 172.176 157.968C171.802 159.677 172.227 161.071 172.492 161.662C172.772 162.288 173.309 162.779 173.966 163.179C175.984 164.41 179.031 163.479 180.241 162.652C181.625 161.705 179.973 158.958 178.803 156.454C178.428 155.652 177.855 155.207 177.064 154.858C176.033 154.405 174.71 154.935 173.464 155.713C169.837 157.974 168.77 161.404 168.738 162.155C171.153 163.034 174.033 162.65 175.358 161.978C175.999 161.618 176.578 161.22 177.834 160.235" stroke="#FF71BD" stroke-width="1.89349" stroke-linecap="round"/>
<path d="M160.906 151.992C160.255 151.992 154.739 151.242 150.834 150.342C149.754 149.835 148.939 149.444 148.598 149.43C148.509 149.511 148.59 149.771 148.81 150.075" stroke="#FF71BD" stroke-width="1.89349" stroke-linecap="round"/>
<path d="M158.744 156.078C158.724 156.078 158.704 156.078 157.046 156.078C155.388 156.078 152.092 156.078 150.229 156.126C148.365 156.173 148.033 156.268 147.422 156.471" stroke="#FF71BD" stroke-width="1.89349" stroke-linecap="round"/>
<path d="M158.612 158.039C158.612 158.059 157.897 158.079 156.614 158.134C155.648 158.257 154.409 158.573 153.01 158.952C152.44 159.097 152.154 159.143 151.5 159.33" stroke="#FF71BD" stroke-width="1.89349" stroke-linecap="round"/>
<path d="M184.719 150.791C184.778 150.791 185.178 150.727 187.326 150.225C192.285 148.976 195.814 148.105 196.394 148.05C196.72 148.032 197.11 148.032 197.512 148.031" stroke="#FF71BD" stroke-width="1.89349" stroke-linecap="round"/>
<path d="M185.406 154.82C185.416 154.82 185.426 154.82 186.505 154.824C187.585 154.829 189.734 154.837 191.172 154.918C192.61 154.999 193.272 155.152 194.389 155.41" stroke="#FF71BD" stroke-width="1.89349" stroke-linecap="round"/>
<path d="M186.648 158.125C186.687 158.125 187.235 158.125 188.217 158.162C188.671 158.2 189.035 158.274 189.769 158.503C190.503 158.732 191.595 159.113 193.076 159.708" stroke="#FF71BD" stroke-width="1.89349" stroke-linecap="round"/>
<path d="M48.7549 183.389C48.7549 188.523 48.7549 193.656 48.7549 198.808C48.7549 199.673 51.5377 199.993 51.5377 199.278C51.5377 194.145 51.5377 189.012 51.5377 183.86C51.5377 182.995 48.7549 182.675 48.7549 183.389Z" fill="#2E2E33"/>
<path d="M55.9927 183.389C55.9927 188.523 55.9927 193.656 55.9927 198.808C55.9927 199.673 58.7756 199.993 58.7756 199.278C58.7756 194.145 58.7756 189.012 58.7756 183.86C58.7756 182.995 55.9927 182.675 55.9927 183.389Z" fill="#2E2E33"/>
<path d="M76.55 184.007C76.55 188.895 76.55 193.784 76.55 198.654C76.55 199.519 79.3329 199.839 79.3329 199.124C79.3329 194.236 79.3329 189.347 79.3329 184.477C79.3329 183.612 76.55 183.292 76.55 184.007Z" fill="#2E2E33"/>
<path d="M68.893 183.034H62.7819C62.6127 183.034 62.011 183.109 62.011 183.391C62.011 188.524 62.011 193.658 62.011 198.81C62.011 199.562 63.5341 199.637 64.0229 199.637H70.134C70.5476 199.637 71.1305 199.411 70.7545 198.96C70.3784 198.49 69.4194 198.434 68.893 198.434H62.7819L64.7939 199.261C64.7939 194.128 64.7939 188.994 64.7939 183.842L64.0229 184.199H70.134C70.5476 184.199 71.1305 183.974 70.7545 183.523C70.3784 183.053 69.4194 182.996 68.893 182.996V183.034Z" fill="#2E2E33"/>
<path d="M50.9906 191.322C52.8145 191.378 54.6196 191.34 56.4435 191.265C56.7255 191.265 57.7221 191.039 57.4401 190.569C57.3272 190.363 56.9888 190.269 56.8007 190.231C56.4435 190.156 56.0862 190.156 55.7101 190.175C55.3905 190.175 55.9734 190.175 55.6914 190.175C55.5785 190.175 55.4657 190.175 55.3529 190.175C55.146 190.175 54.958 190.174 54.7512 190.193C54.3375 190.193 53.9239 190.212 53.5102 190.212C52.6829 190.212 51.8555 190.212 51.0282 190.175C50.7085 190.175 50.3324 190.212 50.0316 190.325C49.8812 190.381 49.6179 190.513 49.6179 190.72C49.6179 191.227 50.7273 191.284 51.0282 191.284L50.9906 191.322Z" fill="#2E2E33"/>
<path d="M197.209 183.389C197.209 188.523 197.209 193.656 197.209 198.808C197.209 199.673 199.992 199.993 199.992 199.278C199.992 194.145 199.992 189.012 199.992 183.86C199.992 182.995 197.209 182.675 197.209 183.389Z" fill="#2E2E33"/>
<path d="M236.656 183.391C236.656 188.524 236.656 193.657 236.656 198.81C236.656 199.204 237.277 199.449 237.577 199.524C239.571 199.994 242.541 200.464 244.271 199.092C245.211 198.358 245.211 196.873 245.211 195.782C245.211 194.541 244.929 193.281 244.064 192.341C242.654 190.818 240.247 190.555 238.311 190.668C237.916 190.687 237.314 190.875 237.69 191.345C238.066 191.815 239.044 191.89 239.552 191.871C240.83 191.796 241.658 192.191 242.147 193.488C242.56 194.616 242.485 195.895 242.316 197.061C242.147 198.227 241.3 198.678 240.21 198.734C240.078 198.734 239.759 198.734 239.458 198.715C239.326 198.715 239.213 198.697 239.082 198.678C239.42 198.716 239.082 198.678 239.006 198.678C238.8 198.64 238.612 198.603 238.405 198.584C238.16 198.546 238.16 198.527 238.499 198.603L239.42 199.317C239.42 194.184 239.42 189.051 239.42 183.899C239.42 183.034 236.637 182.714 236.637 183.429L236.656 183.391Z" fill="#2E2E33"/>
<path d="M204.447 183.389C204.447 188.523 204.447 193.656 204.447 198.808C204.447 199.673 207.23 199.993 207.23 199.278C207.23 194.145 207.23 189.012 207.23 183.86C207.23 182.995 204.447 182.675 204.447 183.389Z" fill="#2E2E33"/>
<path d="M199.445 191.322C201.269 191.378 203.074 191.34 204.898 191.265C205.18 191.265 206.177 191.039 205.895 190.569C205.782 190.363 205.443 190.269 205.255 190.231C204.898 190.156 204.541 190.156 204.165 190.175C203.845 190.175 204.428 190.175 204.146 190.175C204.033 190.175 203.92 190.175 203.807 190.175C203.601 190.175 203.413 190.174 203.206 190.193C202.792 190.193 202.378 190.212 201.965 190.212C201.137 190.212 200.31 190.212 199.483 190.175C199.163 190.175 198.787 190.212 198.486 190.325C198.336 190.381 198.073 190.513 198.073 190.72C198.073 191.227 199.182 191.284 199.483 191.284L199.445 191.322Z" fill="#2E2E33"/>
<path d="M64.6977 191.693H70.0942C70.4138 191.693 71.2036 191.523 70.7711 191.072C70.3387 190.621 69.5489 190.414 68.9472 190.414H63.5507C63.2311 190.414 62.4413 190.583 62.8738 191.035C63.3063 191.486 64.096 191.693 64.6977 191.693Z" fill="#2E2E33"/>
<path d="M104.903 193.747H109.528C109.716 193.747 110.074 193.747 110.243 193.578C110.374 193.447 110.337 193.258 110.205 193.127C109.791 192.676 108.983 192.469 108.381 192.469H103.756C103.568 192.469 103.21 192.469 103.041 192.638C102.91 192.77 102.947 192.958 103.079 193.089C103.492 193.541 104.301 193.747 104.903 193.747Z" fill="#2E2E33"/>
<path d="M74.9657 184.408H82.0544C82.4117 184.408 83.1262 184.257 82.7313 183.787C82.3364 183.317 81.4715 183.129 80.9074 183.129H73.8186C73.4614 183.129 72.7469 183.279 73.1417 183.749C73.5366 184.219 74.4016 184.408 74.9657 184.408Z" fill="#2E2E33"/>
<path d="M94.2961 184.007C94.2961 188.895 94.2961 193.784 94.2961 198.654C94.2961 199.519 97.079 199.839 97.079 199.124C97.079 194.236 97.079 189.347 97.079 184.477C97.079 183.612 94.2961 183.292 94.2961 184.007Z" fill="#2E2E33"/>
<path d="M113.325 183.389C113.325 188.485 113.325 193.562 113.325 198.658C113.325 199.523 116.108 199.842 116.108 199.128C116.108 194.032 116.108 188.955 116.108 183.86C116.108 182.995 113.325 182.675 113.325 183.389Z" fill="#2E2E33"/>
<path d="M134.872 183.389C134.872 188.485 134.872 193.562 134.872 198.658C134.872 199.523 137.655 199.842 137.655 199.128C137.655 194.032 137.655 188.955 137.655 183.86C137.655 182.995 134.872 182.675 134.872 183.389Z" fill="#2E2E33"/>
<path d="M142.166 183.389C142.166 188.485 142.166 193.562 142.166 198.658C142.166 199.523 144.948 199.842 144.948 199.128C144.948 194.032 144.948 188.955 144.948 183.86C144.948 182.995 142.166 182.675 142.166 183.389Z" fill="#2E2E33"/>
<path d="M92.7196 184.408H99.8083C100.166 184.408 100.88 184.257 100.485 183.787C100.09 183.317 99.2254 183.129 98.6613 183.129H91.5725C91.2153 183.129 90.5008 183.279 90.8956 183.749C91.2905 184.219 92.1555 184.408 92.7196 184.408Z" fill="#2E2E33"/>
<path d="M168.567 183.936C168.567 188.825 168.567 193.714 168.567 198.584C168.567 199.449 171.35 199.769 171.35 199.054C171.35 194.165 171.35 189.276 171.35 184.406C171.35 183.541 168.567 183.222 168.567 183.936Z" fill="#2E2E33"/>
<path d="M166.991 184.329H174.079C174.437 184.329 175.151 184.179 174.756 183.709C174.361 183.239 173.496 183.051 172.932 183.051H165.844C165.486 183.051 164.772 183.201 165.167 183.671C165.562 184.141 166.426 184.329 166.991 184.329Z" fill="#2E2E33"/>
<path d="M179.514 199.047C179.514 193.989 179.514 188.931 179.514 183.891L179.044 184.211C179.834 183.985 180.962 183.873 181.564 184.549C182.278 185.358 182.353 186.712 182.297 187.746C182.241 188.78 182.071 190.04 181.413 190.886C181.056 191.375 180.492 191.563 179.89 191.619C179.721 191.619 179.758 191.619 179.627 191.563C179.439 191.488 179.721 191.638 179.514 191.488C179.006 191.149 178.141 190.999 177.54 191.149C177.013 191.3 176.938 191.619 177.408 191.939C179.044 193.03 181.752 193.18 183.444 192.146C184.685 191.394 185.005 189.513 185.061 188.197C185.136 186.655 184.873 184.813 183.463 183.891C181.752 182.782 179.157 182.5 177.201 183.064C177.088 183.102 176.731 183.196 176.731 183.384C176.731 188.442 176.731 193.5 176.731 198.539C176.731 199.404 179.514 199.724 179.514 199.009V199.047Z" fill="#2E2E33"/>
<path d="M104.299 198.907C104.976 193.868 105.578 188.734 107.289 183.921L106.198 184.353H108.699L106.988 183.62C107.346 187.982 107.703 192.345 108.06 196.707C108.116 197.327 108.154 197.967 108.21 198.587C108.286 199.471 111.069 199.584 111.012 198.888C110.655 194.526 110.298 190.163 109.94 185.801C109.884 185.181 109.846 184.541 109.79 183.921C109.734 183.3 108.492 183.188 108.079 183.188H105.578C105.221 183.188 104.638 183.225 104.487 183.62C102.758 188.434 102.175 193.567 101.498 198.606C101.385 199.377 104.187 199.715 104.299 198.907Z" fill="#2E2E33"/>
<path d="M188.969 193.712H193.595C193.783 193.712 194.14 193.712 194.309 193.543C194.441 193.411 194.403 193.223 194.272 193.092C193.858 192.64 193.049 192.434 192.448 192.434H187.822C187.634 192.434 187.277 192.434 187.108 192.603C186.976 192.734 187.014 192.922 187.145 193.054C187.559 193.505 188.367 193.712 188.969 193.712Z" fill="#2E2E33"/>
<path d="M188.35 198.902C189.027 193.825 189.61 188.635 191.34 183.784L190.249 184.217H192.75L191.039 183.483C191.396 187.883 191.753 192.302 192.111 196.702C192.167 197.341 192.205 197.962 192.261 198.601C192.336 199.485 195.119 199.598 195.063 198.902C194.705 194.502 194.348 190.083 193.991 185.683C193.934 185.044 193.897 184.423 193.84 183.784C193.784 183.145 192.543 183.051 192.129 183.051H189.628C189.271 183.051 188.688 183.088 188.538 183.483C186.808 188.334 186.225 193.524 185.548 198.601C185.435 199.372 188.237 199.71 188.35 198.902Z" fill="#2E2E33"/>
<path d="M119.83 183.479C117.931 185.661 115.806 187.71 114.114 190.061C113.531 190.85 115.9 191.17 116.276 191.132C116.37 191.132 116.464 191.132 116.558 191.114C116.314 191.114 116.671 191.114 116.709 191.114C116.859 191.114 116.991 191.114 117.141 191.114C117.442 191.114 118.702 191.038 118.796 191.226C118.796 191.189 118.608 191.208 118.589 191.151C118.551 190.982 118.589 191.151 118.608 191.208C118.645 191.302 118.777 191.508 118.833 191.64C119.059 192.148 119.191 192.693 119.322 193.238C119.736 195.025 119.924 196.886 120.037 198.71C120.093 199.631 122.82 199.97 122.782 199.349C122.65 197.112 122.462 194.761 121.785 192.599C121.616 192.091 121.428 191.546 121.071 191.132C120.544 190.531 119.661 190.249 118.909 190.079C117.48 189.741 115.957 189.76 114.509 189.91L116.671 190.982C118.382 188.632 120.488 186.601 122.387 184.401C122.932 183.78 120.338 182.878 119.811 183.479H119.83Z" fill="#2E2E33"/>
<path d="M131.809 196.268C133.276 192.395 133.84 182.617 127.296 183.369C124.532 183.689 124.288 187.224 124.137 189.386C123.931 191.981 123.611 195.366 125.134 197.66C126.018 198.957 127.597 199.709 129.177 199.427C130.681 199.145 131.301 197.528 131.809 196.268C132.054 195.666 129.346 195.027 129.007 195.873C128.744 196.531 128.462 197.208 128.03 197.772C127.936 197.885 127.842 198.017 127.748 198.111C127.334 198.412 127.578 198.506 128.519 198.412C128.443 198.28 128.161 198.13 128.048 197.998C127.221 197.058 126.939 195.685 126.845 194.482C126.619 191.868 126.732 188.954 127.409 186.397C127.541 185.889 127.748 185.381 128.105 184.967C128.218 184.836 128.594 184.629 128.65 184.516C127.973 184.347 127.804 184.347 128.161 184.516C128.274 184.61 128.387 184.704 128.481 184.817C129.308 185.72 129.628 187.111 129.797 188.277C130.192 190.815 129.891 193.466 128.989 195.873C128.763 196.494 131.471 197.114 131.79 196.268H131.809Z" fill="#2E2E33"/>
<path d="M164.435 187.223C164.078 185.719 163.72 184.403 162.291 183.575C160.975 182.804 158.944 182.485 157.609 183.368C156.03 184.403 155.484 186.64 155.184 188.37C154.826 190.382 154.714 192.507 154.958 194.537C155.165 196.23 155.879 198.129 157.478 198.975C160.054 200.329 164.378 199.595 164.83 196.249C164.942 195.459 162.141 195.064 162.028 195.854C161.915 196.7 161.52 197.49 160.787 197.978C160.242 198.336 159.602 198.618 159.095 198.11C158.267 197.302 157.873 195.91 157.741 194.782C157.572 193.24 157.609 191.679 157.778 190.137C157.948 188.596 158.23 186.903 158.982 185.512C159.038 185.399 160.279 183.782 160.392 184.026H160.072C160.072 184.026 160.167 184.045 160.204 184.083C160.279 184.196 160.505 184.29 160.618 184.403C160.843 184.628 161.013 184.891 161.144 185.192C161.426 185.813 161.539 186.49 161.69 187.129C161.859 187.862 164.623 188.088 164.416 187.204L164.435 187.223Z" fill="#2E2E33"/>
<path d="M137.522 199.445C139.515 197.038 141.489 194.631 143.52 192.243C143.934 191.754 144.348 191.247 144.799 190.795C145.382 190.212 142.881 189.103 142.298 189.667C141.264 190.701 140.361 191.886 139.421 192.995C138.218 194.443 136.996 195.891 135.811 197.339C135.548 197.658 135.284 197.978 135.021 198.298C134.683 198.711 135.435 199.125 135.755 199.257C136.093 199.407 136.45 199.501 136.807 199.539C136.996 199.539 137.39 199.576 137.522 199.426V199.445Z" fill="#2E2E33"/>
<path d="M209.856 183.389C209.856 188.485 209.856 193.562 209.856 198.658C209.856 199.523 212.639 199.842 212.639 199.128C212.639 194.032 212.639 188.955 212.639 183.86C212.639 182.995 209.856 182.675 209.856 183.389Z" fill="#2E2E33"/>
<path d="M217.133 183.389C217.133 188.485 217.133 193.562 217.133 198.658C217.133 199.523 219.916 199.842 219.916 199.128C219.916 194.032 219.916 188.955 219.916 183.86C219.916 182.995 217.133 182.675 217.133 183.389Z" fill="#2E2E33"/>
<path d="M246.829 183.389C246.829 188.485 246.829 193.562 246.829 198.658C246.829 199.523 249.612 199.842 249.612 199.128C249.612 194.032 249.612 188.955 249.612 183.86C249.612 182.995 246.829 182.675 246.829 183.389Z" fill="#2E2E33"/>
<path d="M212.49 199.445C214.483 197.038 216.457 194.631 218.488 192.243C218.902 191.754 219.315 191.247 219.767 190.795C220.35 190.212 217.849 189.103 217.266 189.667C216.232 190.701 215.329 191.886 214.389 192.995C213.186 194.443 211.963 195.891 210.779 197.339C210.515 197.658 210.252 197.978 209.989 198.298C209.651 198.711 210.403 199.125 210.722 199.257C211.061 199.407 211.418 199.501 211.775 199.539C211.963 199.539 212.358 199.576 212.49 199.426V199.445Z" fill="#2E2E33"/>
<path d="M229.752 183.386C229.752 188.632 230.034 193.86 230.034 199.087C230.034 199.99 232.046 200.008 232.572 199.801C232.723 199.745 232.572 199.839 232.817 199.745L233.08 199.689C233.099 199.538 231.613 200.384 232.572 199.519C232.704 199.407 232.948 200.535 232.93 200.648C232.892 201.024 232.723 201.325 232.497 201.607C231.82 202.415 230.636 202.885 229.62 203.13C229.075 203.261 229.056 203.619 229.489 203.919C229.977 204.277 230.861 204.389 231.463 204.258C233.024 203.882 235.731 202.904 235.731 200.948C235.731 198.335 232.102 198.147 230.278 198.843L232.817 199.557C232.817 194.311 232.535 189.084 232.535 183.856C232.535 182.973 229.752 182.691 229.752 183.386Z" fill="#2E2E33"/>
<path d="M229.831 190.948C229.135 192.133 228.045 193.167 227.123 194.164C225.939 195.461 224.717 196.777 223.382 197.924C223.212 198.075 223.005 198.206 222.836 198.357C222.836 198.338 222.968 198.225 222.836 198.357H222.799C222.404 198.545 222.78 198.62 223.889 198.601C223.269 198.488 225.074 198.639 225.074 198.883C225.074 198.846 225.036 198.808 225.036 198.789C224.961 198.263 224.867 197.755 224.829 197.21C224.717 195.217 224.754 193.205 224.792 191.212C224.829 188.767 224.886 186.304 224.886 183.86C224.886 182.995 222.103 182.675 222.103 183.389C222.103 187.94 221.727 192.565 222.065 197.116C222.103 197.623 222.084 198.282 222.347 198.733C222.799 199.56 224.378 199.729 225.149 199.335C225.694 199.053 226.183 198.545 226.634 198.131C227.349 197.454 228.045 196.759 228.722 196.044C229.53 195.179 230.339 194.314 231.11 193.43C231.58 192.885 232.106 192.359 232.463 191.738C232.915 190.967 230.226 190.328 229.831 190.986V190.948Z" fill="#2E2E33"/>
<path d="M137.451 178.596C137.263 179.141 137.188 179.668 137.301 180.251C137.414 180.833 137.714 181.398 138.241 181.717C138.767 182.037 139.313 182.187 139.914 182.225C140.441 182.262 141.043 182.225 141.532 182.037C142.171 181.792 142.66 181.36 143.073 180.833C143.487 180.307 143.863 179.799 144.183 179.216C144.446 178.727 143.562 178.502 143.243 178.464C142.885 178.408 142.509 178.389 142.152 178.464C141.945 178.502 141.588 178.558 141.475 178.765C141.249 179.179 140.986 179.555 140.723 179.931C140.46 180.307 140.178 180.664 139.858 180.946C139.933 180.871 139.858 180.946 139.82 180.965C139.783 180.984 139.726 181.021 139.689 181.059C139.651 181.097 139.595 181.115 139.538 181.134C139.444 181.191 139.726 181.078 139.557 181.134C139.482 181.153 139.256 181.209 139.595 181.134C139.388 181.172 139.82 181.134 139.877 181.134C140.065 181.134 140.272 181.153 140.46 181.209C140.761 181.303 140.648 181.266 140.554 181.247C140.441 181.209 140.723 181.379 140.591 181.266C140.554 181.228 140.497 181.191 140.46 181.153C140.347 181.059 140.497 181.228 140.46 181.153C140.441 181.115 140.403 181.078 140.366 181.04C140.234 180.852 140.159 180.645 140.084 180.439L140.121 180.589C139.971 179.968 140.046 179.404 140.234 178.821C140.291 178.633 139.933 178.445 139.839 178.389C139.557 178.239 139.162 178.182 138.861 178.163C138.429 178.145 137.583 178.126 137.414 178.633L137.451 178.596Z" fill="#2E2E33"/>
</svg>
