<svg width="72" height="68" viewBox="0 0 72 68" fill="none" xmlns="http://www.w3.org/2000/svg">
<path d="M15.3486 20.9981C15.6216 20.6126 18.9179 17.6026 21.9701 15.2341C22.4462 14.8645 22.8723 14.6194 23.5328 14.1999C24.1933 13.7804 25.0967 13.2233 23.9366 14.4465C19.7246 18.8877 14.7032 23.4873 15.7963 23.6235C18.7706 23.9942 25.0121 17.2404 23.6836 18.6554C22.3551 20.0704 12.8469 27.8811 13.5921 27.8524C14.3372 27.8236 25.6239 19.7188 31.6778 15.4117C37.7316 11.1045 38.2105 10.8406 32.1627 16.3722C26.115 21.9038 13.526 33.239 12.8817 34.5765C12.2374 35.914 23.9193 26.9104 30.112 22.1713C36.3047 17.4322 36.6542 17.2304 36.6764 17.3051C36.6986 17.3798 36.383 17.7371 32.3736 21.6703C28.3642 25.6034 20.6707 33.1017 22.2489 32.8958C23.8271 32.6898 34.9102 24.5526 35.5697 25.155C36.2291 25.7574 26.129 35.3461 20.8154 40.4301C15.5019 45.514 15.2809 45.8027 15.3785 45.8251C15.476 45.8476 15.8986 45.5951 21.0253 41.2946C26.152 36.9941 35.9699 28.6533 40.8373 24.595C45.7047 20.5368 45.3241 21.0139 40.1404 25.8713C34.9568 30.7287 24.9815 39.9519 19.7092 44.8471C14.4369 49.7423 14.1697 50.03 14.3683 49.9672C14.5669 49.9043 15.2393 49.4821 21.0182 44.5413C26.7971 39.6006 37.662 30.1542 43.9183 24.8368C50.1745 19.5194 51.4929 18.6173 52.0789 18.3127C52.6649 18.0082 52.4788 18.3284 47.5078 23.4146C42.5368 28.5008 32.7866 38.3434 28.1743 43.1812C23.562 48.0191 24.3831 47.5539 29.5984 43.1278C34.8137 38.7017 44.3983 30.3288 49.5064 25.9003C54.6146 21.4717 54.9558 21.2412 54.9351 21.4145C54.9145 21.5878 54.5215 22.1719 49.4605 27.6944C44.3994 33.217 34.6822 43.6602 34.3156 45.2168C33.9491 46.7734 43.2276 39.1269 48.1603 35.0963C53.0929 31.0658 53.3985 30.8828 49.9241 34.9711C46.4497 39.0594 39.1862 47.4244 35.7529 51.564C32.3196 55.7036 32.9366 55.3642 37.2431 51.6273C41.5496 47.8904 49.5267 40.7664 49.8073 40.926C50.0878 41.0857 42.4299 48.7449 38.8312 52.4735C35.2325 56.2022 35.9251 55.7681 39.4152 52.8248C42.9054 49.8815 49.1723 44.4421 50.285 43.7744C51.3977 43.1067 47.1665 47.3755 47.0925 47.6753C47.0186 47.9751 51.2302 44.1766 51.8662 43.2469C53.3788 41.0363 45.568 46.8116 44.4535 47.0418C44.0443 47.1263 43.9602 46.4289 43.9358 45.8701C43.886 44.7299 44.6911 42.0142 45.4871 38.7406C45.7619 37.6105 45.0581 37.4426 44.2105 37.621C42.1432 38.056 37.0973 41.3298 30.3751 45.7584C27.5447 47.6231 26.0247 48.9061 25.3804 49.452C24.7362 49.9979 25.0472 49.8177 28.6993 46.3385C32.3514 42.8593 39.335 36.0865 42.748 32.7924C46.1611 29.4983 45.7919 29.888 43.982 31.6365C42.1721 33.385 38.9325 36.4804 35.5477 39.8332" stroke="#989DFF" stroke-width="10" stroke-linecap="round"/>
<path d="M69.9469 17.5693C70.171 17.7085 70.441 17.7553 70.699 17.6976C70.9569 17.64 71.1812 17.4828 71.323 17.2605C71.4647 17.0381 71.5124 16.7683 71.4558 16.5102C71.3992 16.252 71.2427 16.027 71.0219 15.8827C68.0562 13.9947 64.9822 12.5088 61.9175 10.9939C58.5172 9.33401 55.1002 7.73207 51.6895 6.12189C42.9008 2.36258 33.4143 -2.00075 22.9462 0.998203C-2.16953 9.99916 -10.3646 52.2597 17.3261 64.1644C34.8175 72.7673 54.6305 60.5714 63.7825 46.0577C63.8238 45.9978 63.8648 45.938 63.9054 45.8784C67.2693 41.3477 69.0247 34.4921 67.0613 28.9551C66.0327 25.4945 64.5057 22.4347 63.0707 19.342C62.9617 19.1102 62.7738 18.9197 62.5361 18.8169C62.2984 18.7141 62.0322 18.7069 61.7936 18.7977C61.5549 18.8886 61.3609 19.071 61.2517 19.3057C61.1424 19.5406 61.1288 19.8079 61.2015 20.0535C62.1661 23.34 63.291 26.5698 63.9103 29.7243C65.0592 34.782 63.5857 39.3811 60.5999 43.626C60.5635 43.6793 60.5268 43.7329 60.4898 43.7866C51.5474 57.6269 34.387 68.1012 18.8312 60.6438C-5.18552 51.1206 1.21775 12.2497 24.0354 3.7624C32.299 1.09645 42.199 4.79071 50.664 8.35257C54.1075 9.89575 57.5519 11.4253 60.9624 13.0016C64.0259 14.4333 67.1379 15.866 69.9469 17.5693Z" fill="black"/>
<path d="M17.4655 32.7317C29.6903 32.7317 51.4889 32.4015 49.4931 31.7363C44.9642 30.2266 40.4946 26.4092 37.3133 23.7331C34.6979 21.533 43.4558 29.0502 47.4623 30.8909C48.4828 31.3597 49.4581 32.0514 49.6382 32.8867C49.8183 33.7221 49.158 34.7125 48.3227 35.3877C44.156 37.0634 39.4942 39.0542 35.6527 41.8903C34.8123 42.7256 34.1521 43.716 33.4718 44.7364" stroke="black" stroke-width="2" stroke-linecap="round"/>
</svg>
