<svg width="15" height="42" viewBox="0 0 15 42" fill="none" xmlns="http://www.w3.org/2000/svg">
<path d="M8.36328 1C8.36328 0.447715 7.91557 0 7.36328 0C6.811 0 6.36328 0.447715 6.36328 1H7.36328H8.36328ZM6.65617 41.7071C7.0467 42.0976 7.67986 42.0976 8.07039 41.7071L14.4343 35.3431C14.8249 34.9526 14.8249 34.3195 14.4343 33.9289C14.0438 33.5384 13.4107 33.5384 13.0201 33.9289L7.36328 39.5858L1.70643 33.9289C1.3159 33.5384 0.682738 33.5384 0.292213 33.9289C-0.0983109 34.3195 -0.0983109 34.9526 0.292213 35.3431L6.65617 41.7071ZM6.36328 3C6.36328 3.55228 6.811 4 7.36328 4C7.91557 4 8.36328 3.55228 8.36328 3H7.36328H6.36328ZM8.36328 7C8.36328 6.44772 7.91557 6 7.36328 6C6.811 6 6.36328 6.44772 6.36328 7H7.36328H8.36328ZM6.36328 11C6.36328 11.5523 6.811 12 7.36328 12C7.91557 12 8.36328 11.5523 8.36328 11H7.36328H6.36328ZM8.36328 15C8.36328 14.4477 7.91557 14 7.36328 14C6.811 14 6.36328 14.4477 6.36328 15H7.36328H8.36328ZM6.36328 19C6.36328 19.5523 6.811 20 7.36328 20C7.91557 20 8.36328 19.5523 8.36328 19H7.36328H6.36328ZM8.36328 23C8.36328 22.4477 7.91557 22 7.36328 22C6.811 22 6.36328 22.4477 6.36328 23H7.36328H8.36328ZM6.36328 27C6.36328 27.5523 6.811 28 7.36328 28C7.91557 28 8.36328 27.5523 8.36328 27H7.36328H6.36328ZM8.36328 31C8.36328 30.4477 7.91557 30 7.36328 30C6.811 30 6.36328 30.4477 6.36328 31H7.36328H8.36328ZM6.36328 35C6.36328 35.5523 6.811 36 7.36328 36C7.91557 36 8.36328 35.5523 8.36328 35H7.36328H6.36328ZM8.36328 39C8.36328 38.4477 7.91557 38 7.36328 38C6.811 38 6.36328 38.4477 6.36328 39H7.36328H8.36328ZM7.36328 1H6.36328V3H7.36328H8.36328V1H7.36328ZM7.36328 7H6.36328V11H7.36328H8.36328V7H7.36328ZM7.36328 15H6.36328V19H7.36328H8.36328V15H7.36328ZM7.36328 23H6.36328V27H7.36328H8.36328V23H7.36328ZM7.36328 31H6.36328V35H7.36328H8.36328V31H7.36328ZM7.36328 39H6.36328V41H7.36328H8.36328V39H7.36328Z" fill="#846DF2"/>
</svg>
