<svg width="72" height="68" viewBox="0 0 72 68" fill="none" xmlns="http://www.w3.org/2000/svg">
<path d="M1.53209 49.4551C1.30808 49.3159 1.038 49.2691 0.780084 49.3268C0.52218 49.3844 0.297792 49.5416 0.156061 49.764C0.0143294 49.9863 -0.0333696 50.2561 0.0232481 50.5142C0.0798582 50.7724 0.236345 50.9974 0.457139 51.1417C3.42282 53.0297 6.49681 54.5156 9.56157 56.0305C12.9619 57.6904 16.3789 59.2923 19.7895 60.9025C28.5782 64.6618 38.0648 69.0252 48.5328 66.0262C73.6486 57.0253 81.8437 14.7647 54.1529 2.86001C36.6615 -5.74293 16.8485 6.45305 7.69658 20.9667C7.65526 21.0266 7.61427 21.0864 7.57359 21.146C4.20972 25.6767 2.45436 32.5323 4.41773 38.0693C5.44636 41.5299 6.97333 44.5897 8.40832 47.6824C8.5173 47.9142 8.70521 48.1047 8.94297 48.2075C9.18062 48.3103 9.4468 48.3175 9.68547 48.2267C9.92413 48.1358 10.1181 47.9535 10.2273 47.7187C10.3366 47.4838 10.3502 47.2165 10.2775 46.9709C9.3129 43.6844 8.18806 40.4546 7.56872 37.3001C6.41986 32.2424 7.89333 27.6433 10.8792 23.3984C10.9155 23.3451 10.9522 23.2915 10.9893 23.2378C19.9317 9.39749 37.092 -1.07679 52.6479 6.38063C76.6646 15.9038 70.2613 54.7747 47.4436 63.262C39.1801 65.928 29.28 62.2337 20.815 58.6718C17.3715 57.1287 13.9272 55.5991 10.5166 54.0228C7.45317 52.5911 4.34114 51.1585 1.53209 49.4551Z" fill="black"/>
<path d="M54.0136 34.2927C41.7888 34.2927 19.9901 34.6229 21.9859 35.2881C26.5149 36.7978 30.9845 40.6152 34.1657 43.2913C36.7812 45.4914 28.0233 37.9742 24.0167 36.1335C22.9963 35.6647 22.0209 34.973 21.8409 34.1377C21.6608 33.3023 22.3211 32.312 23.1564 31.6367C27.323 29.961 31.9849 27.9702 35.8264 25.1341C36.6667 24.2988 37.327 23.3084 38.0073 22.288" stroke="black" stroke-width="2" stroke-linecap="round"/>
</svg>
