<svg width="44" height="36" viewBox="0 0 44 36" fill="none" xmlns="http://www.w3.org/2000/svg">
<rect width="44" height="36" rx="18" fill="#E7E2FF"/>
<path d="M27.3027 27.25C26.3701 27.2498 25.6143 26.4932 25.6143 25.5605C25.6145 24.6281 26.3703 23.8723 27.3027 23.8721C28.2354 23.8721 28.992 24.6279 28.9922 25.5605C28.9922 26.4934 28.2356 27.25 27.3027 27.25Z" stroke="#846DF2" stroke-width="1.5"/>
<path d="M16.6973 27.25C15.7646 27.2498 15.0088 26.4932 15.0088 25.5605C15.009 24.6281 15.7648 23.8723 16.6973 23.8721C17.6299 23.8721 18.3865 24.6279 18.3867 25.5605C18.3867 26.4934 17.6301 27.25 16.6973 27.25Z" stroke="#846DF2" stroke-width="1.5"/>
<circle cx="22.0624" cy="19.6776" r="1.7677" transform="rotate(180 22.0624 19.6776)" stroke="#846DF2" stroke-width="1.5"/>
<path d="M22.0625 15.0547C20.3215 15.0547 18.9102 13.6433 18.9102 11.9023C18.9102 10.1613 20.3215 8.75 22.0625 8.75C23.8035 8.75005 25.2148 10.1613 25.2148 11.9023C25.2148 13.6433 23.8035 15.0546 22.0625 15.0547Z" stroke="#846DF2" stroke-width="1.5"/>
<path d="M22.0625 17.7891L22.0625 15.3186" stroke="#846DF2" stroke-width="1.5"/>
<path d="M25.8398 24.0781L22.779 22.0376C22.3456 21.7486 21.781 21.7486 21.3476 22.0376L18.2867 24.0781" stroke="#846DF2" stroke-width="1.5"/>
</svg>
