<svg width="44" height="36" viewBox="0 0 44 36" fill="none" xmlns="http://www.w3.org/2000/svg">
<rect width="44" height="36" rx="18" fill="#E7E2FF"/>
<path d="M28.568 16.2727C28.568 15.8585 28.2322 15.5227 27.818 15.5227C27.4038 15.5227 27.068 15.8585 27.068 16.2727H27.818H28.568ZM27.818 16.4965H28.568V16.4965H27.818ZM16.1816 16.4965H15.4316V16.4965H16.1816ZM16.9316 16.2727C16.9316 15.8585 16.5959 15.5227 16.1816 15.5227C15.7674 15.5227 15.4316 15.8585 15.4316 16.2727H16.1816H16.9316ZM21.2498 25C21.2498 25.4142 21.5856 25.75 21.9998 25.75C22.414 25.75 22.7498 25.4142 22.7498 25H21.9998H21.2498ZM18.6751 24.25C18.2609 24.25 17.9251 24.5858 17.9251 25C17.9251 25.4142 18.2609 25.75 18.6751 25.75V25V24.25ZM25.3245 25.75C25.7387 25.75 26.0745 25.4142 26.0745 25C26.0745 24.5858 25.7387 24.25 25.3245 24.25V25V25.75ZM27.818 16.2727H27.068V16.4965H27.818H28.568V16.2727H27.818ZM27.818 16.4965H27.068C27.068 19.3333 24.7922 21.6206 21.9998 21.6206V22.3706V23.1206C25.6341 23.1206 28.568 20.1481 28.568 16.4965H27.818ZM21.9998 22.3706V21.6206C19.2075 21.6206 16.9316 19.3333 16.9316 16.4965H16.1816H15.4316C15.4316 20.1481 18.3656 23.1206 21.9998 23.1206V22.3706ZM16.1816 16.4965H16.9316V16.2727H16.1816H15.4316V16.4965H16.1816ZM21.9998 22.3706H21.2498V25H21.9998H22.7498V22.3706H21.9998ZM18.6751 25V25.75H25.3245V25V24.25H18.6751V25ZM24.9089 11.9091H24.1589V16.2727H24.9089H25.6589V11.9091H24.9089ZM19.0907 16.2727H19.8407V11.9091H19.0907H18.3407V16.2727H19.0907ZM21.9998 19.1818V18.4318C20.8074 18.4318 19.8407 17.4652 19.8407 16.2727H19.0907H18.3407C18.3407 18.2936 19.979 19.9318 21.9998 19.9318V19.1818ZM24.9089 16.2727H24.1589C24.1589 17.4652 23.1923 18.4318 21.9998 18.4318V19.1818V19.9318C24.0207 19.9318 25.6589 18.2936 25.6589 16.2727H24.9089ZM21.9998 9V9.75C23.1923 9.75 24.1589 10.7167 24.1589 11.9091H24.9089H25.6589C25.6589 9.88823 24.0207 8.25 21.9998 8.25V9ZM21.9998 9V8.25C19.979 8.25 18.3407 9.88823 18.3407 11.9091H19.0907H19.8407C19.8407 10.7167 20.8074 9.75 21.9998 9.75V9Z" fill="#846DF2"/>
</svg>
