<svg width="209" height="151" viewBox="0 0 209 151" fill="none" xmlns="http://www.w3.org/2000/svg">
<path d="M1 84.5548C2.64379 82.7566 17.1369 71.2902 26.0889 66.0324C28.2781 64.7467 15.7883 78.4835 8.25391 88.3433C7.22473 89.6901 18.0987 84.6951 22.7003 82.6935C27.3019 80.692 26.8942 82.1118 24.2572 86.4902C21.6202 90.8685 16.7663 98.1623 16.4996 101.305C16.2329 104.447 20.7007 103.217 34.2965 97.6496C47.8923 92.0823 70.4809 82.2152 89.6549 74.8888C108.829 67.5623 123.904 63.0756 135.228 60.1945C146.552 57.3134 153.668 56.174 161 55" stroke="#846DF2" stroke-width="2" stroke-linecap="round"/>
<path d="M108.221 76.1971C108.221 76.1971 101.872 61.0166 106.98 58.5344C112.088 56.0523 123.456 70.927 123.456 70.927C123.456 70.927 119.679 53.0126 128.222 53.732C135.435 54.3436 134.697 68.7867 134.697 68.7867C134.697 68.7867 140.597 53.2464 147.971 56.5199C152.27 58.4265 146.604 71.3947 146.604 71.3947C146.604 71.3947 159.752 61.8979 164.537 67.5456C169.321 73.1933 155.436 80.1541 155.436 80.1541C155.436 80.1541 173.836 75.7114 176.012 81.4851C178.189 87.2587 168.494 94.7411 161.209 96.126C161.209 96.126 174.627 109.616 170.077 113.555C165.526 117.494 152.486 109.832 152.486 109.832C152.486 109.832 158.781 122.116 154.195 124.023C149.608 125.929 142.504 116.109 142.504 116.109C142.504 116.109 141.874 130.228 135.255 130.552C128.636 130.876 130.273 115.929 130.273 115.929C130.273 115.929 119.625 132.027 113.455 129.617C107.286 127.225 114.211 114.094 114.211 114.094C114.211 114.094 95.1453 127.674 92.0876 121.775C89.0299 115.875 99.3181 104.04 99.3181 104.04C99.3181 104.04 75.1984 109.67 77.5366 101.018C79.8748 92.3489 96.4223 90.838 96.4223 90.838C96.4223 90.838 80.0187 80.7297 84.5692 76.0712C89.1198 71.4127 108.221 76.1971 108.221 76.1971Z" fill="#C5CBFF"/>
<path fill-rule="evenodd" clip-rule="evenodd" d="M182.432 45.7668C183.169 53.1412 183.781 60.4796 185.238 67.7281C185.4 68.5555 184.77 69.3289 183.925 69.311C183.205 69.311 182.54 69.275 181.784 69.257C181.227 69.257 180.777 68.8253 180.723 68.2857C179.986 61.361 177.378 33.3921 178.852 33.0683C180.399 32.7266 182.018 41.45 182.45 45.7487L182.432 45.7668Z" fill="#FF71BD"/>
<path d="M181.532 45.6253C181.946 49.7981 182.324 53.989 182.845 58.1618C183.097 60.1943 183.385 62.2088 183.727 64.2232C183.888 65.1765 184.068 66.1118 184.23 67.0471C184.32 67.5687 184.5 68.1623 184.104 68.6119C183.727 69.0436 183.169 68.9177 182.665 68.9177C181.874 68.8997 181.622 68.7559 181.532 67.9644C181.496 67.6227 181.46 67.281 181.424 66.9392C181.334 66.1298 181.262 65.3025 181.19 64.4751C180.993 62.3707 180.795 60.2662 180.615 58.1618C180.183 53.3055 179.806 48.4492 179.518 43.5928C179.41 41.5963 179.302 39.6179 179.284 37.6214C179.284 36.3983 179.194 35.1213 179.428 33.9162C179.446 33.7903 179.554 33.5564 179.554 33.4305C179.554 33.4305 179.608 33.3766 179.608 33.3586C179.554 33.1428 178.493 32.9988 178.546 33.3226C178.546 33.3766 178.672 33.4485 178.708 33.5025C179.104 34.5457 179.626 35.499 179.913 36.5961C180.723 39.5279 181.226 42.5856 181.532 45.6074C181.586 46.1829 183.349 46.2908 183.313 45.8951C183.007 42.9274 182.521 39.9416 181.766 37.0638C181.334 35.445 180.777 32.4952 178.529 32.6931C177.503 32.783 177.593 34.0241 177.557 34.8155C177.467 36.7221 177.557 38.6286 177.629 40.5172C177.863 45.985 178.313 51.4529 178.78 56.9028C178.996 59.331 179.212 61.7591 179.446 64.1873C179.536 65.1226 179.626 66.0579 179.734 67.0112C179.842 67.9645 179.788 68.8278 180.723 69.3134C181.532 69.7451 182.539 69.6551 183.421 69.6731C184.212 69.6911 185.112 69.781 185.723 69.1695C186.461 68.4141 186.047 67.3889 185.885 66.4895C185.615 65.1046 185.399 63.7017 185.183 62.2987C184.374 56.8489 183.888 51.363 183.349 45.8951C183.295 45.3196 181.532 45.1937 181.568 45.6074L181.532 45.6253Z" fill="#FF71BD"/>
<path d="M123.481 86.9464L111.23 88.0806C110.36 88.1612 109.72 88.9322 109.8 89.8026L110.389 96.1606C110.47 97.031 111.24 97.6713 112.111 97.5907L124.361 96.4565C125.232 96.3759 125.872 95.6049 125.791 94.7345L125.203 88.3765C125.122 87.5061 124.351 86.8658 123.481 86.9464Z" fill="white"/>
<path d="M146.102 84.719L136.037 85.6509C135.167 85.7315 134.526 86.5025 134.607 87.3729L135.196 93.731C135.276 94.6014 136.047 95.2416 136.918 95.161L146.983 94.2291C147.853 94.1485 148.494 93.3776 148.413 92.5071L147.824 86.1491C147.744 85.2787 146.973 84.6384 146.102 84.719Z" fill="white"/>
<path d="M141.945 81.7988C139.463 81.0254 136.747 80.4498 134.157 81.0254C132.322 81.3312 131.927 78.5792 133.779 78.3454C136.891 78.1116 140.218 78.5612 142.719 80.5397C143.366 81.0613 142.701 82.1226 141.945 81.7988Z" fill="#846DF2"/>
<path d="M114.697 84.2582C116.981 82.2258 119.679 80.9308 122.593 79.8876C123.312 79.6537 124.068 80.0494 124.284 80.7689C124.517 81.4883 124.122 82.2438 123.402 82.4596C122.071 82.7654 120.704 83.215 119.373 83.7906C118.222 84.2942 116.639 85.0676 115.452 85.4993C114.715 85.8051 114.085 84.7798 114.679 84.2582H114.697Z" fill="#846DF2"/>
<path d="M111.998 98.4666C110.721 98.4666 109.642 97.4953 109.516 96.2183L108.923 89.8691C108.797 88.5021 109.804 87.297 111.171 87.1711L123.42 86.038C124.787 85.9121 125.992 86.9193 126.118 88.2863L126.711 94.6355C126.765 95.301 126.567 95.9485 126.154 96.4521C125.722 96.9557 125.129 97.2795 124.463 97.3334L112.214 98.4666C112.214 98.4666 112.052 98.4666 111.98 98.4666H111.998ZM123.654 87.8007C123.654 87.8007 123.618 87.8007 123.582 87.8007L111.333 88.9338C110.955 88.9698 110.685 89.3115 110.721 89.6892L111.315 96.0384C111.315 96.2183 111.423 96.3802 111.567 96.5061C111.711 96.614 111.873 96.6679 112.07 96.6679L124.319 95.5348C124.499 95.5348 124.661 95.4269 124.787 95.283C124.895 95.1391 124.967 94.9593 124.949 94.7794L124.355 88.4302C124.319 88.0705 124.013 87.8007 123.672 87.8007H123.654Z" fill="#846DF2"/>
<path d="M124.267 86.9031L115.939 87.6742C115.534 87.7117 115.236 88.071 115.273 88.4765L115.711 93.2047C115.748 93.6102 116.108 93.9085 116.513 93.871L124.841 93.0999C125.247 93.0623 125.545 92.7031 125.508 92.2976L125.07 87.5694C125.032 87.1639 124.673 86.8655 124.267 86.9031Z" fill="#846DF2"/>
<path d="M146.607 84.8344L139.014 85.5375C138.608 85.575 138.31 85.9342 138.347 86.3398L138.785 91.068C138.823 91.4735 139.182 91.7719 139.587 91.7343L147.181 91.0312C147.587 90.9936 147.885 90.6344 147.847 90.2289L147.41 85.5007C147.372 85.0951 147.013 84.7968 146.607 84.8344Z" fill="#846DF2"/>
<path d="M137.377 95.9848C136.801 95.9848 136.244 95.7869 135.794 95.4092C135.291 94.9776 134.967 94.384 134.913 93.7185L134.319 87.3693C134.193 86.0023 135.201 84.7972 136.568 84.6713L146.064 83.79C146.73 83.736 147.377 83.9339 147.881 84.3475C148.385 84.7792 148.708 85.3728 148.762 86.0383L149.356 92.3875C149.41 93.053 149.212 93.7005 148.798 94.2041C148.385 94.7077 147.773 95.0315 147.108 95.0854L137.611 95.9668C137.611 95.9668 137.449 95.9668 137.377 95.9668V95.9848ZM146.28 85.5886C146.28 85.5886 146.244 85.5886 146.208 85.5886L136.711 86.47C136.532 86.47 136.37 86.5779 136.244 86.7218C136.136 86.8657 136.064 87.0455 136.082 87.2254L136.675 93.5746C136.711 93.9523 137.053 94.2221 137.431 94.1861L146.928 93.3048C147.305 93.2688 147.575 92.9271 147.539 92.5493L146.946 86.2001C146.946 86.0203 146.838 85.8584 146.694 85.7325C146.568 85.6246 146.406 85.5707 146.262 85.5707L146.28 85.5886Z" fill="#846DF2"/>
<path d="M128.025 95.8935C128.079 96.8288 128.241 97.7461 128.529 98.6454C128.781 99.4368 129.159 100.21 129.896 100.642C130.382 100.948 130.993 101.02 131.569 101.02C132.252 101.02 133.026 100.858 133.583 100.48C134.357 99.9584 134.59 99.131 134.734 98.2497C134.914 97.2245 134.878 96.1632 134.68 95.138C134.644 94.9402 134.393 94.8502 134.231 94.8143C133.943 94.7423 133.565 94.7423 133.259 94.7963C132.954 94.8502 132.612 94.9222 132.342 95.0841C132.198 95.174 131.964 95.3179 132 95.5158C132.198 96.505 132.216 97.4943 132.072 98.4835C132.018 98.8792 131.928 99.2929 131.749 99.6526C131.713 99.7426 131.659 99.8145 131.605 99.9045C131.551 99.9764 131.551 99.9764 131.605 99.9224C131.569 99.9584 131.533 99.9943 131.497 100.03C131.425 100.102 131.425 100.084 131.515 100.03C131.407 100.084 131.425 100.084 131.587 100.012C131.839 99.9224 132.108 99.8865 132.378 99.9045C132.252 99.9045 132.288 99.9045 132.45 99.9045C132.396 99.9045 132.36 99.8864 132.306 99.8684C132.522 99.9224 132.234 99.8325 132.198 99.7965C132.162 99.7785 132.108 99.7426 132.072 99.7246C132.126 99.7606 132.108 99.7605 132.054 99.7066C131.982 99.6346 131.91 99.5627 131.839 99.4907C131.569 99.185 131.407 98.8252 131.281 98.4475C130.957 97.5122 130.777 96.505 130.723 95.5158C130.723 95.3359 130.418 95.2279 130.274 95.192C129.986 95.12 129.608 95.1201 129.302 95.174C128.997 95.228 128.655 95.2999 128.385 95.4618C128.223 95.5517 128.043 95.6776 128.043 95.8935H128.025Z" fill="#846DF2"/>
<path d="M110.959 78.1319C109.61 76.1894 108.603 73.9051 107.757 71.7108C106.642 68.8509 105.617 65.5774 105.977 62.4657C106.121 61.2427 106.552 59.9836 107.524 59.1562C108.351 58.4548 108.747 58.4728 109.718 58.8325C112.56 59.8757 114.988 62.2319 117.056 64.3723C118.999 66.3868 121.139 68.671 122.38 71.2251C122.668 71.8187 125.186 71.6748 125.024 71.0453C124.611 69.4445 124.323 67.8077 124.125 66.153C123.765 63.3111 123.531 60.1635 124.431 57.3936C125.024 55.541 126.967 53.0589 128.909 54.6957C131.14 56.5842 131.787 60.2894 132.255 63.0054C132.651 65.2896 132.902 67.6278 132.938 69.9481C132.938 70.6855 135.366 70.6496 135.582 70.056C137.093 66.045 139.234 61.7823 142.291 58.7426C143.586 57.4476 145.96 55.5769 147.435 57.5734C148.083 58.4548 147.975 59.8397 147.885 60.847C147.741 62.3578 147.399 63.8507 146.986 65.3076C146.356 67.5559 145.565 69.7862 144.647 71.9266C144.27 72.8079 146.752 72.5741 147.112 72.3043C148.515 71.2971 149.989 70.3798 151.5 69.5524C154.036 68.1315 157.004 66.5847 159.972 66.4408C162.382 66.3329 164.271 68.3653 163.641 70.7575C162.958 73.3835 160.476 75.5239 158.461 77.1787C156.878 78.4737 155.206 79.6967 153.461 80.7579C153.065 81.0098 153.443 81.2795 153.677 81.4054C154.126 81.6213 154.846 81.6033 155.313 81.4594C157.184 80.8838 159.109 80.4522 161.033 80.0564C164.181 79.4269 167.634 78.8514 170.854 79.391C172.095 79.6068 173.39 80.0385 174.199 81.0637C175.134 82.2508 175.17 83.9236 174.757 85.3085C173.714 88.8518 170.062 91.244 167.023 92.9168C165.368 93.8341 163.623 94.6255 161.861 95.327C161.303 95.5428 160.745 95.7586 160.188 95.9564C160.008 96.0104 159.828 96.0824 159.666 96.1363C159.396 96.2262 159.864 96.0644 159.72 96.1363C159.378 96.2442 158.785 96.496 159.252 96.8738C162.922 99.9494 166.771 103.691 168.947 108.007C169.972 110.058 170.566 113.187 167.796 114.177C166.609 114.608 165.224 114.303 164.055 114.015C162.436 113.619 160.889 112.99 159.378 112.324C157.238 111.353 155.134 110.238 153.173 108.943C152.795 108.691 150.241 108.601 150.709 109.392C152.705 112.702 154.81 116.821 154.882 120.742C154.918 122.397 154.036 124.897 151.986 124.105C149.576 123.17 147.705 120.778 146.23 118.745C145.133 117.252 144.09 115.652 143.227 114.015C142.939 113.475 140.547 113.439 140.583 114.195C140.654 115.939 140.565 117.702 140.403 119.447C140.133 122.397 139.683 125.67 138.064 128.224C137.723 128.764 137.309 129.285 136.805 129.681C136.608 129.843 136.392 129.987 136.158 130.077C136.014 130.131 135.636 130.239 135.726 130.221C135.978 130.221 135.726 130.239 135.636 130.167C135.492 130.059 135.313 129.987 135.169 129.879C134.755 129.555 134.449 129.105 134.179 128.674C132.794 126.318 132.489 123.296 132.255 120.634C132.093 118.655 132.003 116.659 132.075 114.662C132.093 113.889 129.701 114.033 129.431 114.554C126.967 119.141 123.801 123.853 119.79 127.199C118.1 128.602 114.988 130.886 113.117 128.548C111.247 126.21 112.506 122.235 113.315 119.752C114.071 117.414 115.06 115.112 116.211 112.936C116.643 112.144 114.107 112.252 113.747 112.558C109.556 116.083 104.862 119.465 99.8253 121.659C98.5303 122.235 96.9835 122.828 95.6345 122.9C95.2388 122.918 94.9331 122.918 94.4474 122.702C93.9618 122.486 93.5661 122.109 93.2603 121.659C91.1379 118.493 93.9977 114.141 95.8324 111.569C97.7569 108.871 100.005 106.317 102.433 104.068C103.261 103.295 100.905 103.277 100.581 103.367C98.4944 103.853 96.3899 104.23 94.2675 104.554C90.5623 105.13 86.6593 105.651 82.9002 105.237C81.7311 105.112 80.3461 104.86 79.4648 103.996C78.4575 103.007 78.6733 101.37 79.141 100.165C80.5439 96.586 84.7168 94.6794 88.0802 93.4383C89.9328 92.7549 91.8214 92.2153 93.746 91.7836C94.3755 91.6397 95.023 91.4958 95.6705 91.3879C95.3467 91.4419 95.9763 91.334 96.1381 91.316C96.372 91.28 97.631 90.9382 96.9296 90.5066C94.969 89.3195 93.0805 87.9525 91.3178 86.4956C88.9976 84.607 85.5621 81.8012 85.2923 78.5636C85.0226 75.326 88.386 74.8764 90.7782 74.8944C94.4834 74.9123 98.2066 75.7577 101.786 76.6751C104.124 77.2686 106.462 77.9341 108.729 78.7255C109.268 78.9053 110.114 78.9953 110.635 78.6895C111.049 78.4557 111.175 78.1139 110.635 77.9341C104.574 75.8476 98.0447 74.085 91.6056 73.8512C88.8537 73.7612 84.1412 73.7972 82.8642 76.8909C81.5871 79.9845 85.0585 83.5459 87.1629 85.4884C89.4472 87.5928 91.9653 89.4813 94.6273 91.0821L95.4187 90.2728C92.7028 90.6865 90.0048 91.4059 87.3968 92.2692C83.6196 93.5283 79.0151 95.4528 76.9466 99.1041C71.8745 108.133 88.6378 106.443 92.8646 105.903C95.9043 105.507 98.962 104.986 101.948 104.284L100.095 103.583C97.8289 105.669 95.7244 107.989 93.8718 110.454C91.7315 113.295 88.5119 117.882 90.4005 121.587C91.9653 124.663 96.282 124.267 99.0519 123.422C102.865 122.271 106.372 120.13 109.664 117.9C111.876 116.407 114.035 114.806 116.085 113.098L113.621 112.72C112.506 114.788 111.57 116.983 110.815 119.213C109.88 121.965 108.513 126.21 110.473 128.836C112.56 131.606 117.056 130.85 119.682 129.411C122.992 127.595 125.564 124.501 127.758 121.497C129.323 119.375 130.78 117.144 132.021 114.824L129.377 114.716C129.305 116.641 129.377 118.565 129.539 120.49C129.773 123.386 130.114 126.785 131.751 129.285C133.388 131.785 136.733 131.893 139 130.293C141.59 128.458 142.363 124.663 142.813 121.731C143.191 119.249 143.353 116.677 143.263 114.159L140.619 114.339C141.482 115.993 142.507 117.576 143.622 119.069C145.331 121.389 147.471 123.943 150.259 124.951C152.615 125.796 156.213 125.508 157.238 122.828C158.191 120.31 157.076 117.252 156.141 114.878C155.349 112.864 154.396 110.903 153.299 109.051L150.835 109.5C152.777 110.777 154.846 111.874 156.95 112.864C160.242 114.411 164.001 115.795 167.706 115.382C170.692 115.04 173.174 113.098 172.401 109.878C171.627 106.658 169.217 103.906 167.041 101.532C165.332 99.6796 163.515 97.899 161.591 96.2802L161.123 97.0177C163.551 96.2443 165.943 95.237 168.21 94.0499C171.627 92.2692 175.656 89.8591 177.185 86.1179C177.814 84.6071 177.994 82.8084 177.221 81.3155C176.537 80.0025 175.152 79.2291 173.786 78.8154C170.08 77.6463 165.871 78.0959 162.094 78.7075C159.36 79.1571 156.626 79.7327 153.982 80.5421L155.835 81.2436C157.562 80.2003 159.198 79.0133 160.763 77.7362C162.994 75.9016 165.71 73.5634 166.411 70.6136C167.131 67.5199 164.145 65.6493 161.447 65.3795C157.975 65.0378 154.468 66.3508 151.392 67.8617C149.108 68.9768 146.878 70.2719 144.827 71.7647L147.292 72.1424C148.173 70.074 148.928 67.9516 149.558 65.7932C150.043 64.1565 150.457 62.4837 150.619 60.793C150.727 59.6419 150.781 58.167 150.025 57.1777C149.216 56.0985 147.543 55.6849 146.266 55.595C144.701 55.4871 143.191 55.9007 141.86 56.7101C139.234 58.2929 137.399 61.1168 135.906 63.7248C134.791 65.6673 133.802 67.6998 133.01 69.8042L135.654 69.9121C135.6 67.6998 135.384 65.4695 135.025 63.2932C134.521 60.2535 133.802 56.2784 131.302 54.174C128.981 52.2315 124.755 52.807 122.884 55.1093C121.013 57.4116 121.013 61.1528 121.211 64.0126C121.373 66.3868 121.733 68.761 122.326 71.0632L124.97 70.8834C123.729 68.3294 121.607 66.045 119.646 64.0306C117.362 61.6563 114.682 59.1383 111.517 57.9871C108.819 57.0159 105.383 57.3396 103.944 60.1635C102.505 62.9873 103.405 66.8364 104.358 69.7682C105.311 72.7 106.57 75.8836 108.369 78.4737C108.819 79.1212 111.391 78.7434 110.959 78.1499V78.1319Z" fill="#846DF2"/>
<path d="M141.708 117.177C145.18 127.609 145.486 138.436 145.342 149.336C145.342 149.822 146.385 149.912 146.673 149.912C148.759 150.002 150.845 150.092 152.932 150.182C153.22 150.182 154.101 150.182 154.245 149.822C155.216 147.502 148.669 146.998 147.77 146.926C147.464 146.908 146.061 146.8 146.043 147.394L146.007 148.599C146.007 149.084 147.068 149.174 147.338 149.174C148.597 149.228 149.856 149.282 151.115 149.336C151.385 149.336 152.284 149.336 152.428 148.977C152.572 148.617 152.123 148.419 151.835 148.347L149.443 147.789C148.957 147.682 147.986 147.538 147.59 147.933C147.194 148.329 147.626 148.581 148.058 148.689L150.45 149.246L151.151 148.257C149.892 148.203 148.633 148.149 147.374 148.095L148.705 148.671L148.741 147.466L147.014 147.933C148.237 148.041 150.378 148.005 151.367 148.959C151.475 149.066 151.601 149.3 151.619 149.318C151.691 149.408 151.547 149.714 151.655 149.444L152.968 149.084C150.881 148.995 148.795 148.905 146.709 148.815L148.04 149.39C148.13 142.771 148.13 136.08 147.284 129.497C146.727 125.198 145.701 121.026 144.334 116.925C144.101 116.241 141.457 116.313 141.726 117.141L141.708 117.177Z" fill="#846DF2"/>
<path d="M111.908 114.581C109.695 117.818 107.069 120.822 104.389 123.664C102.573 125.588 100.684 127.459 98.6518 129.15C97.6985 129.941 96.7272 130.696 95.684 131.38C95.0005 131.83 93.9753 132.693 93.1479 132.747C92.0688 132.837 90.6298 131.74 89.8024 131.164C88.3995 130.175 87.1045 128.988 86.0253 127.657C85.5576 127.081 84.2627 126.847 83.5972 127.225L79.802 129.347C79.5502 129.491 79.5322 129.689 79.73 129.887C80.4135 130.517 81.6546 130.373 82.464 130.229C83.741 129.995 85.0001 129.563 86.1512 128.952C86.6908 128.664 86.0613 128.286 85.7555 128.16C85.2519 127.944 84.4065 127.854 83.9029 128.124C83.5072 128.34 83.0935 128.52 82.6798 128.682C82.3021 128.826 81.9064 128.952 81.4927 129.06C81.2769 129.114 81.0611 129.168 80.8452 129.203C80.1618 129.275 80.5754 129.419 82.1043 129.635L82.0323 130.175L85.8275 128.052L83.3993 127.621C85.3238 129.995 87.806 132.135 90.6838 133.25C91.8889 133.718 93.2378 134.006 94.5149 133.844C95.684 133.682 96.7272 132.999 97.6805 132.369C102.501 129.257 106.566 124.887 110.253 120.534C111.71 118.807 113.149 117.045 114.426 115.192C114.876 114.545 112.321 113.933 111.872 114.581H111.908Z" fill="#846DF2"/>
<path d="M122.804 58.534C122.804 58.3542 122.516 58.1743 122.211 58.0484C121.06 57.3469 119.908 56.6634 118.739 55.9979C116.653 54.7928 114.566 53.6237 112.444 52.4906C109.944 51.1416 107.408 49.8286 104.908 48.5335C104.26 48.2098 103.613 47.8681 102.965 47.5443C100.195 46.1054 97.4074 44.6845 94.6195 43.2815C91.1661 41.5189 87.6948 39.7922 84.2054 38.1194C83.3061 37.6878 82.4427 37.2561 81.5254 36.8604C81.0577 36.6265 80.3383 36.1949 79.7987 36.3748C79.7268 36.3748 79.6548 36.4287 79.6188 36.5007C79.5469 36.8784 79.9066 37.5618 79.9966 37.9396C80.1764 38.5691 80.3563 39.1986 80.5541 39.8102C80.8599 40.7814 81.1657 41.7527 81.4894 42.706C81.6333 43.1556 81.7772 43.6053 81.9211 44.0549C82.4607 45.6917 83.0183 47.3285 83.6118 48.9652C84.0974 50.4042 84.6191 51.8431 85.1407 53.282C86.1839 56.1418 87.2271 59.0016 88.3063 61.8795C89.2776 64.4515 90.2668 66.9876 91.2381 69.5417C91.328 69.7755 91.4179 69.9734 91.5079 70.2072C91.9755 71.4842 92.4791 72.7612 92.9648 74.0203C93.1087 74.416 93.7562 74.5959 94.0979 74.6498C99.1701 75.2794 104.008 76.5024 108.901 77.9593C108.955 77.9593 110.016 78.2291 109.818 77.8155C107.858 73.3368 105.933 68.3186 105.555 63.3903C105.411 61.3399 105.789 58.3901 108.523 58.9297C111.401 59.5053 114.153 61.8255 116.365 63.5882C118.182 65.0451 119.944 66.5739 121.599 68.2107C121.797 68.4085 123.092 68.9482 123.092 68.3726C123.002 65.0991 122.894 61.8435 122.804 58.552V58.534ZM80.3563 37.1122H80.3923H80.3383H80.3563Z" fill="#846DF2"/>
<path d="M69.856 24.1293C69.0286 23.9314 67.6257 23.6976 67.5357 24.8847C67.4458 25.9639 68.1832 27.223 68.7048 28.1223C69.9639 30.3166 71.9064 32.0433 73.795 33.698L75.3418 33.2844C73.2015 32.3131 70.9891 31.4497 68.7228 30.7842C67.212 30.3346 64.7478 29.4713 63.201 30.2087C61.2045 31.18 63.7406 33.0146 64.7118 33.5002C65.7551 34.0218 66.8702 34.3815 67.9854 34.6693C69.5682 35.083 71.2409 35.155 72.8058 35.6586L72.2122 34.4715C69.9819 34.3816 67.176 34.7053 65.2155 35.8384C64.6579 36.1622 64.0463 36.7378 64.4061 37.4033C64.7298 38.0328 65.773 38.3206 66.4026 38.4645C68.0393 38.8422 69.82 38.6623 71.4747 38.5544C73.5612 38.4105 75.6296 38.1767 77.6981 37.9248C78.9571 37.763 80.1981 37.6011 81.4392 37.4212C81.5651 37.4032 81.655 37.3313 81.709 37.2234C83.04 33.842 84.2631 30.3166 84.9645 26.7553C85.1624 25.766 85.4322 24.5969 85.2164 23.5897C84.9286 22.2587 83.4357 21.5572 82.1587 21.5212C80.6478 21.4853 79.9643 22.6724 79.4247 23.9135C78.7233 25.5502 78.2017 27.241 77.8419 28.9676L80.378 29.723C79.8744 26.7373 79.2809 23.3559 77.0865 21.1255C76.1872 20.1902 73.0755 18.1758 72.7158 20.586C72.446 22.3666 73.2374 24.3991 73.813 26.0359C74.5145 28.0323 75.3778 30.0108 76.439 31.8634L78.8132 32.1332C77.6261 30.4965 76.2951 28.9676 74.8562 27.5467C73.4892 26.2157 72.0323 24.8307 70.1797 24.2192C69.874 24.1113 68.9027 23.8055 68.7228 24.2732C68.543 24.7408 69.5502 25.1545 69.802 25.2444C71.115 25.6941 72.3381 27.169 73.2734 28.1223C74.4065 29.2914 75.4498 30.5504 76.403 31.8634C76.7628 32.3491 77.5002 32.6189 78.0758 32.6728C78.4535 32.7088 79.083 32.6548 78.7772 32.1332C77.5721 30.0468 76.6548 27.7626 75.9354 25.4783C75.6296 24.471 75.3238 23.4458 75.2159 22.3846C75.18 22.0069 75.144 21.6112 75.2519 21.2515C75.2879 21.1076 75.5037 20.8018 75.4318 20.8018L74.1547 20.496C75.4318 21.1615 76.1692 22.8163 76.5829 24.1113C77.1045 25.7481 77.5002 27.4208 77.788 29.1295C77.8959 29.7231 80.1802 30.6224 80.3241 29.8849C80.5939 28.6079 80.9356 27.3668 81.3853 26.1438C81.6191 25.4963 81.8709 24.8487 82.1767 24.2372C82.2666 24.0573 82.3565 23.8595 82.4644 23.6976C82.5904 23.4817 82.7522 23.3019 82.9501 23.14C83.5436 22.9062 83.3998 22.7623 82.5364 22.7443C82.5004 22.7983 82.6623 23.4458 82.6623 23.5357C82.6623 23.7336 82.6623 23.9314 82.6263 24.1293C82.5903 24.561 82.5184 24.9746 82.4464 25.4063C82.2846 26.3416 82.0687 27.2589 81.8169 28.1582C81.3313 29.9569 80.7737 31.7195 80.1442 33.4822C79.9283 34.1117 79.6945 34.7233 79.4607 35.3528C79.3887 35.5686 79.065 36.0723 79.101 36.3241C79.083 36.1082 79.5686 36.1802 79.065 36.1982C78.7232 36.1982 78.3455 36.3061 78.0038 36.342C76.7987 36.5039 75.5757 36.6658 74.3706 36.7917C71.7985 37.0795 68.9566 37.4932 66.4385 37.3133C66.3306 37.3133 66.2047 37.2953 66.0968 37.2774C65.899 37.2594 65.881 37.3313 66.0249 37.2774C65.9349 37.3133 65.6291 37.0975 66.0608 37.2953C66.1508 37.3493 66.8522 37.799 66.7983 37.8349C66.7983 37.8349 66.9961 37.4033 67.0681 37.3493C67.3019 37.1155 67.6616 36.9536 67.9494 36.8277C69.6941 36.0723 71.8345 35.8025 73.7051 35.8744C74.8922 35.9284 73.5252 34.8132 73.1115 34.6873C70.9891 34.0218 68.7228 33.9319 66.6184 33.1944C66.1868 33.0325 65.2155 32.7987 65.0356 32.2951C64.8917 31.8814 65.1615 31.5217 65.5392 31.4318C66.6724 31.126 68.3631 31.8454 69.4243 32.1872C71.0791 32.7268 72.6978 33.3383 74.2806 34.0578C74.6403 34.2197 75.3958 34.5434 75.7915 34.3456C76.1332 34.1657 76.1152 33.9139 75.8095 33.6621C74.4964 32.5109 73.1834 31.3418 72.1043 29.9749C71.5647 29.2914 71.079 28.5719 70.7013 27.7805C70.6294 27.6187 69.856 25.3164 70.1437 25.3883C70.4495 25.4603 71.2949 25.6042 71.2589 25.0826C71.2229 24.5969 70.1797 24.2552 69.82 24.1653L69.856 24.1293Z" fill="#846DF2"/>
<path d="M162.325 97.1703C169.16 96.9904 176.246 96.5767 182.29 93.0514C185.402 91.2348 188.423 88.6807 190.15 85.4612C191.103 83.6625 191.193 81.8279 191.427 79.8494C191.535 78.9141 191.769 77.9788 191.751 77.0255C191.751 75.9643 191.463 74.9211 191.229 73.9139C190.276 69.9029 188.261 66.0718 183.693 65.766C183.351 65.748 182.164 65.766 182.056 66.2337C181.93 66.7373 182.686 66.8092 183.027 66.8452C186.661 67.097 188.01 71.7915 188.657 74.6513C189.071 76.4679 188.999 77.9968 188.765 79.8134C188.531 81.63 188.513 83.4467 187.632 85.1734C184.754 90.8031 178.297 94.3464 172.253 95.3357C168.962 95.8753 165.616 96.0372 162.271 96.1271C161.947 96.1271 160.922 96.271 160.958 96.7386C160.994 97.2063 162.055 97.2063 162.343 97.1883L162.325 97.1703Z" fill="#846DF2"/>
<path d="M183.098 65.083C183.476 65.1909 183.836 65.2988 184.195 65.4607L183.98 65.3528C184.213 65.4607 184.429 65.5866 184.627 65.7665L184.483 65.6406C184.789 65.9104 185.023 66.2701 185.167 66.6478L185.113 66.5039C185.239 66.8457 185.293 67.1874 185.293 67.5471C185.293 67.745 185.562 67.8709 185.706 67.9069C185.994 68.0148 186.372 68.0508 186.66 68.0328C186.947 68.0148 187.325 67.9788 187.613 67.8349C187.775 67.763 187.99 67.655 187.99 67.4392C187.99 66.7197 187.739 65.9463 187.253 65.4067C186.66 64.7592 185.814 64.4714 184.987 64.2196C184.663 64.1297 184.357 64.0938 184.034 64.0938C183.728 64.0938 183.35 64.1477 183.08 64.2916C182.936 64.3635 182.667 64.4894 182.702 64.6873C182.738 64.8851 182.936 65.0111 183.116 65.047L183.098 65.083Z" fill="#846DF2"/>
<path fill-rule="evenodd" clip-rule="evenodd" d="M177.143 28.3496C177.107 29.1051 177.791 29.8245 178.546 29.7885C179.032 29.7885 179.482 29.5007 179.751 29.105C180.021 28.7093 180.129 28.2057 180.075 27.7201C180.003 27.1625 179.734 26.6049 179.248 26.2992C178.762 25.9934 178.079 25.9934 177.665 26.3711C177.287 26.6949 177.161 27.2345 177.143 27.7201C177.107 28.3316 177.269 29.0691 177.827 29.3209" fill="#FF71BD"/>
<path d="M176.262 28.1771C176.226 29.4001 177.521 30.1016 178.601 30.1915C179.212 30.2455 179.842 30.1016 180.309 29.7059C180.687 29.3822 180.921 28.8965 180.975 28.4109C181.029 27.9253 180.939 27.4396 180.723 27.0259C180.417 26.4683 179.932 26.1266 179.356 25.9107C178.727 25.6769 177.971 25.605 177.324 25.8388C176.874 26.0007 176.55 26.3964 176.406 26.846C176.262 27.2957 176.244 27.8353 176.334 28.3209C176.442 28.8965 176.82 29.3102 177.342 29.544C177.683 29.7059 178.205 29.8318 178.565 29.6519C178.924 29.472 178.547 29.2023 178.349 29.1123C178.205 29.0404 178.493 29.2023 178.349 29.1123C178.277 29.0584 178.349 29.1123 178.367 29.1123C178.349 29.1123 178.313 29.0404 178.295 29.0404C178.295 29.0404 178.223 28.9505 178.277 29.0224C178.187 28.8965 178.133 28.7526 178.097 28.6087C178.025 28.3209 178.025 27.9972 178.061 27.6914C178.097 27.3676 178.187 27.0079 178.403 26.7561C178.457 26.7022 178.511 26.6482 178.565 26.5942C178.637 26.5403 178.475 26.6302 178.601 26.5583C178.637 26.5583 178.655 26.5223 178.691 26.5223C178.709 26.5223 178.87 26.4683 178.727 26.5043C178.763 26.5043 178.799 26.5043 178.817 26.4863C178.691 26.4863 178.978 26.4504 178.817 26.4863C178.655 26.4683 179.032 26.4863 178.817 26.4863C178.817 26.4863 178.583 26.4504 178.727 26.4863C178.475 26.4324 178.601 26.4504 178.673 26.4863C178.781 26.5223 178.475 26.3964 178.637 26.4863C178.475 26.3964 178.565 26.4503 178.601 26.4683C178.601 26.4683 178.745 26.5582 178.673 26.5043C178.601 26.4503 178.727 26.5583 178.727 26.5583C178.781 26.6122 178.87 26.7021 178.906 26.7381C179.068 26.9719 179.212 27.3317 179.23 27.6374C179.266 28.0151 179.194 28.4288 179.032 28.7706C178.96 28.9145 178.835 29.0584 178.709 29.1663C178.583 29.2922 178.493 29.3462 178.313 29.4181C178.313 29.4181 178.151 29.4541 178.241 29.4541C177.989 29.4721 178.331 29.4361 178.241 29.4541C178.187 29.4541 178.097 29.4541 178.313 29.4541C178.133 29.4541 178.529 29.508 178.349 29.4541L178.493 29.49C178.565 29.526 178.565 29.526 178.493 29.49C178.421 29.4541 178.439 29.4541 178.529 29.508L178.439 29.4541C178.331 29.3821 178.493 29.526 178.403 29.4361C178.331 29.3641 178.259 29.2922 178.205 29.2202C178.241 29.2742 178.205 29.2202 178.205 29.2022C178.187 29.1663 178.151 29.1123 178.133 29.0764C178.061 28.9145 178.007 28.7346 178.025 28.5548C178.025 28.213 177.468 28.0691 177.216 28.0331C177 27.9972 176.784 27.9612 176.568 28.0152C176.478 28.0332 176.262 28.0871 176.262 28.213V28.1771Z" fill="#FF71BD"/>
<path d="M153.78 6.70362C155.075 7.98065 156.55 9.04186 157.988 10.139C159.427 11.2362 160.866 12.4773 162.161 13.7903C164.769 16.4163 167.072 19.3301 169.374 22.2439C169.842 22.8194 170.921 22.8374 171.586 22.7655C171.856 22.7295 173.295 22.4417 172.845 21.8842C170.543 18.9704 168.241 16.0565 165.633 13.4305C164.374 12.1535 163.043 10.9484 161.64 9.85124C160.237 8.75407 158.582 7.65688 157.251 6.34387C156.693 5.80428 155.776 5.7503 155.039 5.82225C154.823 5.84023 153.258 6.2 153.78 6.70362Z" fill="#FF71BD"/>
<path d="M152.108 28.5934C157.414 30.7158 163.259 31.4173 168.925 30.7518C169.375 30.6978 170.688 30.5539 170.652 29.8704C170.616 29.187 169.141 29.2769 168.799 29.3129C163.943 29.8884 159.086 29.1689 154.554 27.3523C153.816 27.0645 152.701 27.2085 152.018 27.5682C151.334 27.9279 151.478 28.3236 152.108 28.5754V28.5934Z" fill="#FF71BD"/>
<path d="M174.593 1.81022C175.942 6.66656 176.931 11.6308 177.561 16.631C177.687 17.6382 181.266 17.2246 181.14 16.1994C180.511 11.1991 179.521 6.2349 178.172 1.37857C177.885 0.317369 174.359 0.92889 174.593 1.81022Z" fill="#FF71BD"/>
<path d="M186.733 18.7707C190.51 13.6805 194.125 8.46449 197.561 3.14051C197.956 2.52897 196.427 2.45703 196.176 2.47502C195.474 2.51099 194.485 2.69086 194.071 3.32038C190.636 8.64436 187.021 13.8604 183.243 18.9506C182.812 19.5441 184.413 19.6341 184.628 19.6161C185.366 19.5801 186.265 19.3822 186.733 18.7707Z" fill="#FF71BD"/>
<path d="M189.228 28.3566C194.139 26.7917 199.373 26.5759 204.211 24.7413C204.93 24.4715 204.319 23.8599 203.905 23.6081C203.312 23.2304 202.197 22.8167 201.495 23.0865C196.657 24.9211 191.423 25.155 186.512 26.7018C185.757 26.9356 186.44 27.6011 186.818 27.8349C187.448 28.2306 188.491 28.6084 189.228 28.3566Z" fill="#FF71BD"/>
<path d="M68.3078 114.693C72.085 115.52 76.006 115.646 79.8012 114.926C82.2293 114.477 84.4956 113.541 86.7079 112.48C91.4743 110.196 95.971 107.426 100.522 104.746C101.007 104.458 100.845 104.152 100.396 103.991C99.856 103.793 98.9926 104.009 98.507 104.296C94.4781 106.671 90.4851 109.135 86.3122 111.239C84.4596 112.174 82.5171 113.146 80.4847 113.667C77.0852 114.549 73.452 114.369 70.0525 113.631C69.4949 113.505 68.6316 113.577 68.1639 113.937C67.7862 114.243 67.7143 114.567 68.2899 114.693H68.3078Z" fill="#846DF2"/>
<path d="M64.7652 111.115C64.8911 111.529 65.1429 111.907 65.4127 112.248C65.7365 112.644 66.1142 113.022 66.5279 113.327C67.0135 113.705 67.5351 114.065 68.1107 114.335C68.7222 114.623 69.4057 114.874 70.0892 114.928C70.287 114.928 70.6108 114.964 70.7727 114.838C70.9166 114.712 70.8806 114.533 70.7727 114.407C70.6108 114.191 70.341 114.029 70.0892 113.903C69.7834 113.759 69.4417 113.633 69.0819 113.615C68.956 113.615 68.7042 113.525 69.1719 113.633C69.028 113.597 68.7582 113.489 69.2618 113.669C69.1898 113.651 69.1179 113.615 69.028 113.597C69.028 113.597 69.4057 113.759 69.2258 113.669C69.1899 113.651 69.1539 113.633 69.0999 113.615C69.046 113.579 68.7402 113.435 68.992 113.561C69.2438 113.687 68.956 113.543 68.9021 113.507C68.8301 113.453 68.7402 113.399 68.6683 113.346C68.6323 113.31 68.5963 113.292 68.5423 113.256C68.3805 113.148 68.7762 113.435 68.6143 113.309C68.4704 113.202 68.3265 113.076 68.1826 112.95C68.1107 112.896 68.0567 112.824 67.9848 112.77C67.9488 112.734 67.9128 112.698 67.8769 112.662C67.8589 112.644 67.8409 112.626 67.8049 112.59L67.9128 112.698C67.7869 112.59 67.679 112.428 67.5711 112.284C67.4632 112.14 67.3912 112.014 67.3193 111.889L67.4092 112.05C67.3552 111.943 67.3013 111.817 67.2653 111.691C67.2113 111.475 66.9596 111.295 66.7797 111.187C66.4919 111.007 66.1501 110.863 65.8084 110.791C65.5926 110.737 64.5494 110.594 64.6933 111.097L64.7652 111.115Z" fill="#846DF2"/>
<path d="M67.7689 110.65C67.4991 111.405 67.4451 112.233 67.679 112.988C67.8049 113.438 68.0387 113.797 68.4164 114.067C68.7582 114.319 69.2258 114.481 69.6395 114.553C70.0532 114.625 70.5388 114.679 70.9705 114.571C71.1144 114.535 71.4021 114.463 71.4381 114.265C71.4741 114.067 71.2583 113.887 71.1324 113.815C70.8626 113.636 70.5388 113.528 70.233 113.474C69.9273 113.42 69.5855 113.366 69.2618 113.438C69.1538 113.456 69.1898 113.456 69.3877 113.438H69.6215C69.9093 113.474 70.1971 113.546 70.4309 113.672C70.5208 113.726 70.5388 113.725 70.4848 113.69C70.5928 113.779 70.6287 113.815 70.5748 113.761C70.5388 113.726 70.5028 113.672 70.4669 113.636L70.5748 113.797C70.3589 113.492 70.251 113.096 70.1971 112.718V112.862C70.1431 112.269 70.215 111.693 70.4309 111.135C70.5028 110.956 70.2151 110.758 70.1251 110.686C69.8733 110.506 69.5136 110.398 69.2258 110.344C68.938 110.29 68.5783 110.236 68.2545 110.308C68.0747 110.344 67.8588 110.398 67.7869 110.614L67.7689 110.65Z" fill="#846DF2"/>
<path d="M62.8231 113.396C64.7117 114.565 67.1758 115.411 69.3702 114.727C69.55 114.673 69.8737 114.565 69.9637 114.367C70.0536 114.206 69.9637 114.044 69.8018 113.954C69.2982 113.648 68.4888 113.684 67.9492 113.864C67.9492 113.864 67.8593 113.9 67.8413 113.9C67.8413 113.9 68.1651 113.846 67.9852 113.864L67.8593 113.882C67.8593 113.882 68.219 113.864 68.0391 113.864C68.0032 113.864 67.9492 113.864 67.9132 113.864C68.3269 113.828 68.1651 113.864 68.0391 113.864C67.9852 113.864 67.6794 113.828 67.8953 113.864C68.1111 113.9 67.8053 113.864 67.7514 113.846C67.6614 113.846 67.5715 113.81 67.4816 113.792C67.4456 113.792 67.2837 113.738 67.4456 113.792C67.6075 113.846 67.4456 113.792 67.4096 113.792C67.3017 113.756 67.1938 113.738 67.0859 113.702C66.888 113.648 66.7082 113.576 66.5283 113.504C66.4384 113.468 66.3484 113.432 66.2585 113.396C66.1686 113.36 66.2045 113.378 66.2585 113.396C66.2225 113.378 66.1686 113.36 66.1326 113.342C65.7729 113.18 65.4311 112.983 65.0894 112.767C64.5858 112.461 63.7764 112.497 63.2368 112.677C62.931 112.767 62.2655 113.108 62.7871 113.432L62.8231 113.396Z" fill="#846DF2"/>
<path d="M104.607 52.7147C104.967 53.3442 103.528 52.9306 103.33 52.8047C101.783 51.8514 100.362 50.6822 99.139 49.3333C98.8512 50.2865 98.6174 51.2579 98.4195 52.2471C98.2936 52.8766 98.1677 53.5241 98.0778 54.1537C97.9878 54.6033 96.3511 54.1537 96.4051 53.632C96.5489 52.337 96.5309 51.042 96.3331 49.765C96.2252 49.0815 96.0453 48.416 95.9554 47.7325C94.8582 48.416 93.851 49.2613 92.5919 49.693C92.3042 49.7829 90.7213 49.3692 91.153 48.9376C92.502 47.6246 93.869 46.3475 95.3978 45.2504C94.2647 45.1964 93.1315 45.1425 91.9984 45.0885C91.7825 45.0885 90.3256 44.459 91.0091 44.2611C92.1962 43.9374 93.4193 43.5777 94.6244 43.2539C97.4123 44.6568 100.2 46.0778 102.97 47.5167C103.618 47.8404 104.265 48.1822 104.913 48.5059C103.833 48.326 102.718 48.1822 101.639 48.2002C102.718 49.6571 103.779 51.114 104.643 52.6968L104.607 52.7147Z" fill="white"/>
<path d="M99.2619 66.9718C98.1108 67.4394 96.9417 67.9251 95.7905 68.4287C96.9596 69.1841 98.1467 69.9396 99.3338 70.713C99.8914 71.0547 98.5424 71.2526 98.3626 71.2166C96.0603 70.9288 93.7761 70.6051 91.5278 70.1554C91.4378 69.9216 91.3478 69.7237 91.2579 69.4899C90.2866 66.9358 89.2974 64.3998 88.3262 61.8457C88.6859 60.9643 89.1895 60.137 89.7651 59.3635C89.9989 59.0758 91.4558 58.9139 91.4738 59.4535C91.5098 60.6046 91.5637 61.7557 91.6357 62.9069C93.1825 61.6658 94.8732 60.6046 96.6538 59.6873C96.9236 59.5614 98.1467 59.4535 98.1467 59.9391C98.1827 60.9644 97.1395 61.9356 96.5459 62.673C95.9344 63.4465 95.2689 64.1839 94.6214 64.9393C95.6466 64.8854 96.7078 64.8314 97.733 64.7954C98.4165 64.7595 99.1 64.6875 99.7835 64.7235C100.269 64.7235 101.096 64.7235 101.438 65.1192C102.176 65.9825 99.8015 66.7559 99.2978 66.9718H99.2619Z" fill="white"/>
<path d="M118.744 56.0035C118.618 57.4424 118.564 58.8633 118.547 60.3022C118.547 60.554 118.007 60.536 117.845 60.536C117.575 60.5 117.09 60.4281 116.928 60.1943C116.082 59.0971 115.543 57.8381 115.327 56.4891C114.877 56.9567 114.428 57.4244 113.96 57.874C113.708 58.1078 113.241 58.0179 112.971 57.946C112.827 57.91 112.215 57.7301 112.287 57.4783C112.611 56.3452 113.169 55.284 113.798 54.2767C112.791 54.2228 111.766 54.1509 110.758 54.0789C110.525 54.0789 109.301 53.7551 109.877 53.3954C110.65 52.9098 111.514 52.658 112.413 52.4961C114.536 53.6292 116.64 54.7984 118.708 56.0035H118.744Z" fill="white"/>
<path d="M87.4293 46.5656C87.4293 46.7634 87.1055 46.8173 86.9616 46.8173C85.9364 46.8893 84.8932 46.9612 83.8679 47.0332C84.8572 47.6087 85.8464 48.2383 86.7637 48.9218C86.9796 49.0837 86.7997 49.2275 86.6379 49.2995C86.3501 49.4254 86.0083 49.3714 85.7205 49.2995C85.0191 49.1556 84.3176 49.0297 83.6341 48.9577C83.0406 47.321 82.483 45.6842 81.9434 44.0474C81.7815 43.5978 81.6556 43.1481 81.5117 42.6984C81.8355 42.4466 82.1952 42.2488 82.5549 42.051C82.8607 41.8711 83.3463 41.943 83.6521 42.051C83.832 42.1049 84.2636 42.2668 84.1018 42.5186C83.76 43.0222 83.4183 43.5259 83.0945 44.0295C83.9579 43.8316 84.8212 43.7057 85.7205 43.6338C86.0623 43.5978 86.458 43.6337 86.7637 43.8316C86.9436 43.9215 87.0695 44.1194 86.8357 44.2633C85.8824 44.7489 84.8572 45.1266 83.832 45.4324C84.2637 45.5044 84.7133 45.5943 85.145 45.7022C85.7925 45.8461 86.422 46.026 87.0695 46.2238C87.1954 46.2598 87.4832 46.4037 87.4472 46.5656H87.4293Z" fill="white"/>
</svg>
