<svg width="228" height="300" viewBox="0 0 228 300" fill="none" xmlns="http://www.w3.org/2000/svg">
<path d="M94.5 261.875C119.18 261.952 168.065 262.694 160.267 264.168C129.264 270.027 116.174 272.271 109.814 275.698C102.499 279.639 148.793 275.447 178.545 275.942C211.126 276.485 120.775 296.273 118.205 298.279C118.228 299.041 120.943 299.282 138.514 297.722C156.084 296.161 188.428 292.793 226.5 289.322" stroke="#846DF2" stroke-width="2" stroke-linecap="round"/>
<path d="M67.182 101.94C67.182 101.94 58.6884 81.6325 65.5218 78.312C72.3552 74.9915 87.562 94.8902 87.562 94.8902C87.562 94.8902 82.5091 70.9252 93.9382 71.8876C103.587 72.7057 102.6 92.0269 102.6 92.0269C102.6 92.0269 110.492 71.2379 120.357 75.6171C126.108 78.1676 118.529 95.5158 118.529 95.5158C118.529 95.5158 136.118 82.8114 142.518 90.3667C148.918 97.9219 130.343 107.234 130.343 107.234C130.343 107.234 154.958 101.29 157.869 109.014C160.78 116.738 147.811 126.747 138.067 128.6C138.067 128.6 156.016 146.646 149.929 151.915C143.841 157.185 126.397 146.935 126.397 146.935C126.397 146.935 134.818 163.369 128.683 165.919C122.547 168.47 113.043 155.332 113.043 155.332C113.043 155.332 112.201 174.22 103.346 174.653C94.4916 175.086 96.6811 155.092 96.6811 155.092C96.6811 155.092 82.4368 176.626 74.1838 173.402C65.9308 170.202 75.1944 152.637 75.1944 152.637C75.1944 152.637 49.6895 170.804 45.5991 162.911C41.5086 155.019 55.2717 139.187 55.2717 139.187C55.2717 139.187 23.0055 146.718 26.1335 135.145C29.2615 123.547 51.3978 121.526 51.3978 121.526C51.3978 121.526 29.4539 108.004 35.5414 101.772C41.6289 95.5399 67.182 101.94 67.182 101.94Z" fill="#C5CBFF"/>
<path fill-rule="evenodd" clip-rule="evenodd" d="M166.459 61.2347C167.445 71.0998 168.263 80.9168 170.212 90.6135C170.429 91.7203 169.587 92.755 168.456 92.7309C167.493 92.7309 166.603 92.6828 165.593 92.6587C164.847 92.6587 164.245 92.0812 164.173 91.3594C163.186 82.0958 159.697 44.6805 161.671 44.2474C163.74 43.7903 165.905 55.46 166.483 61.2106L166.459 61.2347Z" fill="#FF71BD"/>
<path d="M165.255 61.0393C165.808 66.6215 166.313 72.2278 167.011 77.81C167.348 80.529 167.733 83.2238 168.19 85.9187C168.407 87.1939 168.647 88.4451 168.864 89.6963C168.984 90.3941 169.225 91.1881 168.696 91.7896C168.19 92.3671 167.444 92.1987 166.771 92.1987C165.712 92.1747 165.375 91.9822 165.255 90.9235C165.207 90.4663 165.158 90.0091 165.11 89.552C164.99 88.4692 164.894 87.3624 164.798 86.2556C164.533 83.4404 164.268 80.6252 164.028 77.81C163.45 71.3135 162.945 64.8169 162.56 58.3204C162.415 55.6496 162.271 53.0029 162.247 50.3321C162.247 48.6959 162.127 46.9876 162.44 45.3755C162.464 45.207 162.608 44.8942 162.608 44.7258C162.608 44.7258 162.68 44.6536 162.68 44.6296C162.608 44.3408 161.188 44.1483 161.261 44.5814C161.261 44.6536 161.429 44.7498 161.477 44.822C162.006 46.2176 162.704 47.4928 163.089 48.9606C164.172 52.8826 164.846 56.973 165.255 61.0153C165.327 61.7853 167.685 61.9296 167.637 61.4003C167.228 57.4302 166.578 53.436 165.568 49.5862C164.99 47.4207 164.244 43.4746 161.237 43.7392C159.865 43.8595 159.985 45.5198 159.937 46.5785C159.817 49.129 159.937 51.6795 160.033 54.2059C160.346 61.5205 160.948 68.8352 161.573 76.1258C161.862 79.3741 162.151 82.6223 162.464 85.8706C162.584 87.1218 162.704 88.373 162.849 89.6482C162.993 90.9235 162.921 92.0784 164.172 92.7281C165.255 93.3055 166.602 93.1852 167.781 93.2092C168.84 93.2333 170.043 93.3536 170.861 92.5355C171.848 91.525 171.294 90.1535 171.078 88.9504C170.717 87.0977 170.428 85.221 170.139 83.3442C169.056 76.0536 168.407 68.7149 167.685 61.4003C167.613 60.6303 165.255 60.4619 165.303 61.0153L165.255 61.0393Z" fill="#FF71BD"/>
<path d="M87.5958 116.319L71.208 117.836C70.0436 117.944 69.187 118.975 69.2948 120.14L70.0823 128.645C70.1902 129.809 71.2215 130.666 72.386 130.558L88.7738 129.041C89.9382 128.933 90.7948 127.902 90.6869 126.737L89.8994 118.232C89.7916 117.067 88.7602 116.211 87.5958 116.319Z" fill="white"/>
<path d="M117.858 113.339L104.394 114.586C103.229 114.694 102.373 115.725 102.48 116.89L103.268 125.395C103.376 126.559 104.407 127.416 105.571 127.308L119.036 126.061C120.201 125.954 121.057 124.922 120.95 123.758L120.162 115.252C120.054 114.088 119.023 113.231 117.858 113.339Z" fill="white"/>
<path d="M112.299 109.422C108.978 108.387 105.345 107.617 101.88 108.387C99.4261 108.796 98.8968 105.115 101.375 104.802C105.538 104.489 109.989 105.091 113.334 107.737C114.2 108.435 113.31 109.855 112.299 109.422Z" fill="#846DF2"/>
<path d="M75.8467 112.718C78.9025 109.999 82.5118 108.267 86.4097 106.871C87.3721 106.558 88.3827 107.088 88.6715 108.05C88.9843 109.013 88.4549 110.023 87.4925 110.312C85.7119 110.721 83.8832 111.323 82.1027 112.092C80.5628 112.766 78.4454 113.801 76.8574 114.378C75.8708 114.787 75.0287 113.416 75.8227 112.718H75.8467Z" fill="#846DF2"/>
<path d="M72.2361 131.727C70.5277 131.727 69.0841 130.427 68.9157 128.719L68.1216 120.225C67.9532 118.397 69.3006 116.784 71.1293 116.616L87.515 115.1C89.3437 114.932 90.9558 116.279 91.1242 118.108L91.9183 126.601C91.9905 127.492 91.7258 128.358 91.1724 129.032C90.5949 129.705 89.8009 130.138 88.9106 130.211L72.5249 131.727C72.5249 131.727 72.3083 131.727 72.2121 131.727H72.2361ZM87.8278 117.458C87.8278 117.458 87.7797 117.458 87.7316 117.458L71.3458 118.974C70.8406 119.022 70.4796 119.479 70.5278 119.985L71.3218 128.478C71.3218 128.719 71.4662 128.935 71.6587 129.104C71.8511 129.248 72.0677 129.32 72.3324 129.32L88.7181 127.805C88.9587 127.805 89.1753 127.66 89.3437 127.468C89.4881 127.275 89.5843 127.035 89.5603 126.794L88.7663 118.3C88.7181 117.819 88.3091 117.458 87.8519 117.458H87.8278Z" fill="#846DF2"/>
<path d="M88.6485 116.26L77.5077 117.292C76.9652 117.342 76.5661 117.823 76.6163 118.365L77.202 124.69C77.2522 125.233 77.7328 125.632 78.2753 125.582L89.4161 124.55C89.9586 124.5 90.3577 124.019 90.3075 123.477L89.7218 117.152C89.6716 116.609 89.1911 116.21 88.6485 116.26Z" fill="#846DF2"/>
<path d="M118.535 113.484L108.377 114.425C107.834 114.475 107.435 114.955 107.485 115.498L108.071 121.823C108.121 122.366 108.602 122.765 109.144 122.714L119.303 121.774C119.846 121.724 120.245 121.243 120.194 120.701L119.609 114.375C119.558 113.833 119.078 113.434 118.535 113.484Z" fill="#846DF2"/>
<path d="M106.187 128.403C105.417 128.403 104.671 128.139 104.069 127.633C103.396 127.056 102.962 126.262 102.89 125.372L102.096 116.878C101.928 115.049 103.275 113.437 105.104 113.269L117.808 112.09C118.699 112.018 119.565 112.282 120.238 112.836C120.912 113.413 121.345 114.207 121.417 115.097L122.212 123.591C122.284 124.481 122.019 125.348 121.466 126.021C120.912 126.695 120.094 127.128 119.204 127.2L106.5 128.379C106.5 128.379 106.283 128.379 106.187 128.379V128.403ZM118.097 114.496C118.097 114.496 118.049 114.496 118.001 114.496L105.296 115.675C105.056 115.675 104.839 115.819 104.671 116.012C104.526 116.204 104.43 116.445 104.454 116.686L105.248 125.179C105.296 125.684 105.754 126.045 106.259 125.997L118.963 124.818C119.469 124.77 119.829 124.313 119.781 123.808L118.987 115.314C118.987 115.073 118.843 114.857 118.65 114.688C118.482 114.544 118.265 114.472 118.073 114.472L118.097 114.496Z" fill="#846DF2"/>
<path d="M93.6758 128.285C93.748 129.536 93.9645 130.763 94.3495 131.966C94.6864 133.025 95.1917 134.06 96.1782 134.637C96.8278 135.046 97.6459 135.142 98.4159 135.142C99.3302 135.142 100.365 134.926 101.111 134.42C102.145 133.723 102.458 132.616 102.651 131.437C102.891 130.065 102.843 128.646 102.578 127.274C102.53 127.01 102.194 126.889 101.977 126.841C101.592 126.745 101.087 126.745 100.678 126.817C100.269 126.889 99.8114 126.986 99.4505 127.202C99.258 127.322 98.9453 127.515 98.9934 127.78C99.2581 129.103 99.2821 130.426 99.0896 131.75C99.0174 132.279 98.8971 132.832 98.6565 133.314C98.6084 133.434 98.5362 133.53 98.464 133.651C98.3918 133.747 98.3918 133.747 98.464 133.675C98.4159 133.723 98.3678 133.771 98.3197 133.819C98.2234 133.915 98.2234 133.891 98.3437 133.819C98.1993 133.891 98.2234 133.891 98.4399 133.795C98.7768 133.675 99.1377 133.626 99.4986 133.651C99.3302 133.651 99.3784 133.651 99.5949 133.651C99.5227 133.651 99.4746 133.626 99.4024 133.602C99.6911 133.675 99.3061 133.554 99.258 133.506C99.2099 133.482 99.1377 133.434 99.0896 133.41C99.1618 133.458 99.1377 133.458 99.0656 133.386C98.9693 133.29 98.873 133.193 98.7768 133.097C98.4158 132.688 98.1993 132.207 98.0309 131.702C97.5978 130.45 97.3572 129.103 97.285 127.78C97.285 127.539 96.8759 127.395 96.6834 127.346C96.2985 127.25 95.7932 127.25 95.3842 127.322C94.9751 127.395 94.518 127.491 94.157 127.707C93.9405 127.828 93.6999 127.996 93.6999 128.285H93.6758Z" fill="#846DF2"/>
<path d="M70.8874 104.245C69.0828 101.647 67.7353 98.5908 66.6044 95.6553C65.1126 91.8296 63.7412 87.4504 64.2224 83.2878C64.4149 81.6516 64.9923 79.9673 66.2916 78.8605C67.3985 77.9221 67.9278 77.9462 69.2271 78.4274C73.0288 79.823 76.2771 82.975 79.0442 85.8383C81.6428 88.5331 84.5061 91.5889 86.1663 95.0056C86.5513 95.7996 89.9199 95.6072 89.7033 94.7651C89.1499 92.6236 88.7649 90.434 88.5002 88.2204C88.019 84.4187 87.7062 80.208 88.9093 76.5025C89.7033 74.0242 92.3019 70.7038 94.9005 72.8934C97.8841 75.4198 98.7503 80.3764 99.3759 84.0097C99.9053 87.0654 100.242 90.1934 100.29 93.2973C100.29 94.2838 103.539 94.2357 103.827 93.4416C105.848 88.076 108.712 82.3735 112.802 78.3071C114.535 76.5747 117.711 74.0723 119.684 76.7431C120.55 77.9221 120.405 79.7748 120.285 81.1223C120.093 83.1434 119.636 85.1405 119.082 87.0895C118.24 90.0972 117.181 93.0807 115.954 95.944C115.449 97.123 118.769 96.8102 119.251 96.4493C121.127 95.1019 123.1 93.8748 125.122 92.7679C128.514 90.8671 132.484 88.7979 136.454 88.6054C139.679 88.461 142.205 91.1799 141.363 94.3801C140.449 97.893 137.128 100.756 134.433 102.97C132.316 104.702 130.078 106.339 127.744 107.758C127.215 108.095 127.72 108.456 128.033 108.624C128.634 108.913 129.597 108.889 130.222 108.696C132.725 107.927 135.299 107.349 137.874 106.82C142.085 105.978 146.705 105.208 151.011 105.929C152.672 106.218 154.404 106.796 155.487 108.167C156.738 109.755 156.786 111.993 156.233 113.846C154.837 118.586 149.953 121.786 145.886 124.024C143.673 125.251 141.339 126.309 138.981 127.248C138.235 127.537 137.489 127.825 136.743 128.09C136.502 128.162 136.262 128.258 136.045 128.331C135.684 128.451 136.31 128.234 136.118 128.331C135.66 128.475 134.866 128.812 135.492 129.317C140.4 133.432 145.55 138.436 148.461 144.211C149.832 146.954 150.626 151.141 146.921 152.464C145.333 153.041 143.48 152.632 141.916 152.247C139.751 151.718 137.682 150.876 135.66 149.986C132.797 148.686 129.982 147.195 127.359 145.462C126.854 145.125 123.437 145.005 124.063 146.064C126.734 150.491 129.549 156.001 129.645 161.246C129.693 163.46 128.514 166.805 125.771 165.746C122.547 164.495 120.045 161.295 118.072 158.576C116.604 156.579 115.208 154.437 114.053 152.247C113.668 151.526 110.468 151.478 110.516 152.488C110.613 154.822 110.492 157.18 110.276 159.514C109.915 163.46 109.313 167.839 107.148 171.256C106.691 171.978 106.137 172.675 105.463 173.205C105.199 173.421 104.91 173.614 104.597 173.734C104.405 173.806 103.899 173.951 104.02 173.927C104.357 173.927 104.02 173.951 103.899 173.855C103.707 173.71 103.466 173.614 103.274 173.47C102.72 173.036 102.311 172.435 101.95 171.857C100.098 168.705 99.6887 164.663 99.3759 161.102C99.1594 158.455 99.0391 155.785 99.1354 153.114C99.1594 152.079 95.9593 152.272 95.5983 152.969C92.3019 159.105 88.0671 165.409 82.7015 169.884C80.4397 171.761 76.2771 174.817 73.7747 171.689C71.2724 168.561 72.9566 163.243 74.0394 159.923C75.0499 156.795 76.3734 153.715 77.9133 150.804C78.4908 149.745 75.0981 149.889 74.6169 150.299C69.0106 155.015 62.7306 159.538 55.9934 162.474C54.261 163.243 52.1918 164.038 50.3872 164.134C49.8578 164.158 49.4488 164.158 48.7991 163.869C48.1494 163.58 47.6201 163.075 47.2111 162.474C44.3718 158.239 48.1975 152.416 50.6518 148.975C53.2264 145.366 56.234 141.949 59.4823 138.942C60.5891 137.907 57.4371 137.883 57.004 138.003C54.2129 138.653 51.3977 139.158 48.5585 139.591C43.6019 140.361 38.3806 141.059 33.3518 140.506C31.7878 140.337 29.9351 140 28.7561 138.845C27.4086 137.522 27.6973 135.332 28.3229 133.72C30.1997 128.932 35.7819 126.382 40.2814 124.721C42.7597 123.807 45.2862 123.085 47.8608 122.508C48.7029 122.315 49.569 122.123 50.4353 121.978C50.0021 122.051 50.8443 121.906 51.0609 121.882C51.3737 121.834 53.058 121.377 52.1196 120.799C49.4969 119.211 46.9705 117.383 44.6125 115.434C41.5086 112.907 36.9128 109.154 36.5519 104.823C36.191 100.492 40.6904 99.8901 43.8906 99.9141C48.8472 99.9382 53.828 101.069 58.6161 102.296C61.7441 103.09 64.8721 103.981 67.9038 105.039C68.6256 105.28 69.7565 105.4 70.4543 104.991C71.0077 104.678 71.1761 104.221 70.4543 103.981C62.3456 101.189 53.6114 98.8314 44.9975 98.5186C41.3161 98.3983 35.012 98.4464 33.3036 102.585C31.5953 106.724 36.2391 111.488 39.0543 114.086C42.1101 116.901 45.4787 119.428 49.0397 121.569L50.0984 120.487C46.4652 121.04 42.856 122.002 39.3671 123.157C34.3142 124.842 28.1545 127.416 25.3874 132.301C18.6022 144.379 41.0273 142.118 46.6817 141.396C50.7481 140.867 54.8385 140.169 58.8327 139.23L56.3544 138.292C53.3227 141.083 50.5074 144.187 48.0291 147.483C45.1658 151.285 40.8589 157.421 43.3853 162.377C45.4786 166.492 51.2533 165.962 54.9588 164.832C60.0598 163.292 64.7517 160.428 69.1549 157.445C72.1145 155.448 75.0018 153.306 77.7448 151.02L74.4484 150.515C72.9566 153.282 71.7055 156.218 70.6949 159.201C69.4437 162.883 67.615 168.561 70.2377 172.074C73.0288 175.779 79.0441 174.769 82.5571 172.844C86.9844 170.414 90.4251 166.275 93.3606 162.257C95.4539 159.418 97.4029 156.434 99.0632 153.33L95.5262 153.186C95.4299 155.76 95.5262 158.335 95.7427 160.91C96.0555 164.783 96.5126 169.331 98.7022 172.676C100.892 176.02 105.367 176.164 108.399 174.023C111.864 171.569 112.898 166.492 113.5 162.57C114.005 159.249 114.222 155.809 114.101 152.44L110.564 152.681C111.719 154.894 113.091 157.012 114.583 159.009C116.868 162.113 119.732 165.529 123.461 166.877C126.613 168.008 131.426 167.623 132.797 164.037C134.072 160.669 132.58 156.579 131.329 153.402C130.271 150.708 128.995 148.085 127.528 145.607L124.231 146.208C126.83 147.916 129.597 149.384 132.412 150.708C136.815 152.777 141.844 154.63 146.801 154.076C150.795 153.619 154.115 151.02 153.081 146.713C152.046 142.406 148.822 138.725 145.911 135.549C143.625 133.071 141.194 130.689 138.62 128.523L137.994 129.51C141.243 128.475 144.443 127.127 147.474 125.539C152.046 123.157 157.436 119.933 159.481 114.928C160.323 112.907 160.564 110.501 159.529 108.504C158.615 106.748 156.762 105.713 154.933 105.159C149.977 103.596 144.347 104.197 139.294 105.015C135.636 105.617 131.979 106.387 128.442 107.469L130.92 108.408C133.23 107.012 135.42 105.424 137.513 103.716C140.497 101.262 144.13 98.1336 145.068 94.1875C146.031 90.049 142.037 87.5466 138.427 87.1857C133.784 86.7285 129.092 88.485 124.977 90.5062C121.921 91.998 118.938 93.7304 116.195 95.7275L119.491 96.2328C120.67 93.4657 121.681 90.6265 122.523 87.7391C123.173 85.5496 123.726 83.3119 123.943 81.0501C124.087 79.5102 124.159 77.5371 123.148 76.2138C122.066 74.7701 119.828 74.2167 118.12 74.0964C116.026 73.9521 114.005 74.5054 112.225 75.5882C108.712 77.7056 106.257 81.4832 104.26 84.9721C102.769 87.5707 101.445 90.2897 100.387 93.1048L103.924 93.2492C103.851 90.2896 103.563 87.3061 103.081 84.3947C102.408 80.3283 101.445 75.0107 98.1007 72.1956C94.9968 69.5969 89.3424 70.3669 86.84 73.4467C84.3376 76.5266 84.3376 81.5313 84.6023 85.3571C84.8189 88.5332 85.3001 91.7092 86.0941 94.7891L89.6311 94.5485C87.9709 91.1318 85.1317 88.076 82.509 85.3811C79.4532 82.205 75.868 78.8365 71.6332 77.2965C68.0241 75.9972 63.4284 76.4303 61.5035 80.2079C59.5786 83.9856 60.7817 89.1347 62.0569 93.0567C63.3321 96.9786 65.0164 101.238 67.4225 104.702C68.0241 105.569 71.4648 105.063 70.8874 104.269V104.245Z" fill="#846DF2"/>
<path d="M111.982 156.754C116.626 170.71 117.035 185.195 116.843 199.776C116.843 200.425 118.238 200.546 118.623 200.546C121.414 200.666 124.205 200.786 126.996 200.907C127.381 200.907 128.561 200.907 128.753 200.425C130.052 197.322 121.294 196.648 120.091 196.552C119.682 196.527 117.805 196.383 117.781 197.177L117.733 198.789C117.733 199.439 119.153 199.559 119.513 199.559C121.198 199.631 122.882 199.704 124.566 199.776C124.927 199.776 126.13 199.776 126.323 199.295C126.515 198.813 125.914 198.549 125.529 198.452L122.329 197.707C121.679 197.562 120.38 197.37 119.85 197.899C119.321 198.428 119.898 198.765 120.476 198.91L123.676 199.655L124.614 198.332C122.93 198.26 121.246 198.188 119.562 198.116L121.342 198.885L121.39 197.273L119.08 197.899C120.716 198.043 123.58 197.995 124.903 199.27C125.048 199.415 125.216 199.728 125.24 199.752C125.336 199.872 125.144 200.281 125.288 199.92L127.045 199.439C124.253 199.319 121.462 199.198 118.671 199.078L120.452 199.848C120.572 190.993 120.572 182.043 119.441 173.236C118.695 167.485 117.324 161.903 115.495 156.417C115.182 155.503 111.645 155.599 112.006 156.706L111.982 156.754Z" fill="#846DF2"/>
<path d="M72.116 153.283C69.1565 157.614 65.6435 161.632 62.0584 165.434C59.6282 168.009 57.1018 170.511 54.3829 172.773C53.1076 173.831 51.8083 174.842 50.4128 175.756C49.4984 176.358 48.1269 177.513 47.0201 177.585C45.5764 177.705 43.6515 176.238 42.5447 175.468C40.6679 174.144 38.9355 172.556 37.4918 170.776C36.8662 170.006 35.1338 169.693 34.2436 170.198L29.1666 173.037C28.8297 173.23 28.8057 173.495 29.0703 173.759C29.9847 174.601 31.6449 174.409 32.7277 174.216C34.436 173.904 36.1203 173.326 37.6602 172.508C38.3821 172.123 37.5399 171.618 37.1309 171.449C36.4572 171.161 35.3263 171.04 34.6526 171.401C34.1232 171.69 33.5698 171.931 33.0164 172.147C32.5111 172.34 31.9818 172.508 31.4284 172.652C31.1396 172.725 30.8509 172.797 30.5622 172.845C29.6479 172.941 30.2012 173.134 32.2464 173.422L32.1502 174.144L37.2271 171.305L33.9789 170.727C36.5534 173.904 39.8739 176.767 43.7237 178.259C45.3358 178.884 47.1404 179.269 48.8487 179.053C50.4127 178.836 51.8083 177.922 53.0835 177.08C59.532 172.917 64.9698 167.07 69.9023 161.247C71.8513 158.938 73.7762 156.58 75.4846 154.101C76.0861 153.235 72.6695 152.417 72.0679 153.283H72.116Z" fill="#846DF2"/>
<path d="M86.694 78.3101C86.694 78.0694 86.309 77.8288 85.9 77.6604C84.3601 76.722 82.8201 75.8077 81.2561 74.9174C78.465 73.3053 75.6739 71.7413 72.8346 70.2254C69.4901 68.4208 66.0975 66.6643 62.753 64.9319C61.8868 64.4988 61.0206 64.0417 60.1544 63.6086C56.4489 61.6837 52.7195 59.7828 48.99 57.9061C44.3702 55.548 39.7264 53.2382 35.0585 51.0005C33.8554 50.423 32.7004 49.8455 31.4733 49.3162C30.8477 49.0034 29.8853 48.4259 29.1634 48.6665C29.0672 48.6665 28.9709 48.7387 28.9228 48.835C28.8265 49.3403 29.3078 50.2546 29.4281 50.7598C29.6687 51.602 29.9094 52.4442 30.174 53.2622C30.5831 54.5616 30.9921 55.8608 31.4252 57.1361C31.6177 57.7376 31.8101 58.3391 32.0026 58.9407C32.7245 61.1302 33.4704 63.3199 34.2644 65.5094C34.9141 67.4343 35.6118 69.3592 36.3096 71.2841C37.7052 75.1099 39.1008 78.9356 40.5444 82.7854C41.8437 86.2262 43.1671 89.6189 44.4664 93.0356C44.5867 93.3484 44.707 93.613 44.8273 93.9258C45.4529 95.6342 46.1266 97.3425 46.7763 99.0268C46.9688 99.5561 47.835 99.7968 48.2922 99.8689C55.0775 100.711 61.5499 102.347 68.0946 104.296C68.1668 104.296 69.5864 104.657 69.3217 104.104C66.699 98.1125 64.1245 91.3994 63.6192 84.8066C63.4267 82.0636 63.932 78.1176 67.5893 78.8394C71.4391 79.6094 75.1205 82.7133 78.0801 85.0713C80.5103 87.0202 82.8683 89.0654 85.0819 91.255C85.3466 91.5196 87.079 92.2415 87.079 91.4716C86.9587 87.0924 86.8143 82.7373 86.694 78.3341V78.3101ZM29.9093 49.653H29.9575H29.8853H29.9093Z" fill="#846DF2"/>
<path d="M15.8595 32.2816C14.7527 32.0169 12.8759 31.7041 12.7556 33.2922C12.6353 34.7358 13.6218 36.4202 14.3196 37.6232C16.0039 40.5587 18.6025 42.8685 21.1289 45.0822L23.1982 44.5288C20.3349 43.2295 17.3754 42.0745 14.3437 41.1843C12.3225 40.5827 9.0261 39.4278 6.95683 40.4143C4.28602 41.7137 7.67866 44.1679 8.97797 44.8175C10.3735 45.5153 11.8653 45.9965 13.3571 46.3815C15.4745 46.9349 17.7123 47.0312 19.8056 47.7049L19.0115 46.1169C16.0279 45.9966 12.2744 46.4296 9.65168 47.9455C8.90578 48.3786 8.0877 49.1486 8.56893 50.0389C9.00203 50.881 10.3976 51.266 11.2397 51.4585C13.4293 51.9638 15.8114 51.7231 18.025 51.5787C20.8161 51.3863 23.5832 51.0734 26.3503 50.7366C28.0345 50.52 29.6947 50.3035 31.355 50.0629C31.5234 50.0388 31.6437 49.9426 31.7159 49.7982C33.4964 45.2747 35.1326 40.5587 36.071 35.7945C36.3356 34.4712 36.6966 32.9072 36.4079 31.5597C36.0229 29.7792 34.0258 28.8408 32.3174 28.7927C30.2963 28.7446 29.382 30.3327 28.6601 31.9929C27.7217 34.1825 27.0239 36.4442 26.5427 38.7541L29.9354 39.7646C29.2617 35.7705 28.4677 31.247 25.5322 28.2633C24.3291 27.0122 20.1665 24.3173 19.6852 27.5415C19.3243 29.9236 20.383 32.6425 21.153 34.8321C22.0914 37.5029 23.2463 40.1496 24.6659 42.6279L27.842 42.9888C26.254 40.7993 24.4734 38.7541 22.5485 36.8532C20.7199 35.0727 18.7709 33.22 16.2926 32.4019C15.8836 32.2575 14.5843 31.8485 14.3437 32.4741C14.103 33.0997 15.4505 33.6531 15.7873 33.7734C17.5438 34.3749 19.1799 36.348 20.4311 37.6232C21.947 39.1872 23.3426 40.8715 24.6178 42.6279C25.0991 43.2776 26.0856 43.6385 26.8555 43.7107C27.3608 43.7589 28.2029 43.6866 27.7939 42.9888C26.1818 40.1977 24.9547 37.142 23.9922 34.0862C23.5832 32.7388 23.1742 31.3673 23.0298 29.9477C22.9817 29.4424 22.9335 28.913 23.0779 28.4318C23.126 28.2393 23.4148 27.8303 23.3185 27.8303L21.6102 27.4212C23.3185 28.3115 24.305 30.5251 24.8584 32.2575C25.5562 34.4471 26.0856 36.6848 26.4705 38.9707C26.6149 39.7647 29.6707 40.9677 29.8632 39.9812C30.2241 38.2728 30.6813 36.6126 31.2828 34.9765C31.5956 34.1103 31.9325 33.2441 32.3415 32.426C32.4618 32.1854 32.5821 31.9206 32.7265 31.7041C32.8949 31.4154 33.1114 31.1748 33.3761 30.9582C34.1701 30.6454 33.9777 30.4529 32.8228 30.4289C32.7746 30.501 32.9911 31.3672 32.9911 31.4876C32.9911 31.7522 32.9911 32.0169 32.943 32.2816C32.8949 32.8591 32.7986 33.4125 32.7024 33.9899C32.4858 35.2411 32.1971 36.4683 31.8602 37.6713C31.2106 40.0775 30.4647 42.4354 29.6226 44.7934C29.3338 45.6356 29.021 46.4537 28.7082 47.2958C28.612 47.5846 28.1789 48.2583 28.227 48.5952C28.203 48.3064 28.8526 48.4027 28.1789 48.4267C27.7217 48.4267 27.2164 48.5711 26.7593 48.6192C25.1472 48.8357 23.511 49.0523 21.8989 49.2207C18.4581 49.6057 14.6564 50.1591 11.2879 49.9185C11.1435 49.9185 10.9751 49.8945 10.8307 49.8704C10.566 49.8464 10.542 49.9426 10.7345 49.8704C10.6142 49.9185 10.2051 49.6298 10.7826 49.8944C10.9029 49.9666 11.8413 50.5682 11.7691 50.6163C11.7691 50.6163 12.0338 50.0389 12.13 49.9667C12.4428 49.6539 12.924 49.4373 13.309 49.2689C15.643 48.2583 18.5063 47.8974 21.0086 47.9936C22.5967 48.0658 20.768 46.574 20.2146 46.4056C17.3754 45.5153 14.3437 45.395 11.5285 44.4085C10.951 44.1919 9.6517 43.8791 9.41109 43.2054C9.2186 42.652 9.57951 42.1708 10.0848 42.0505C11.6007 41.6415 13.8624 42.6039 15.282 43.061C17.4957 43.7829 19.6612 44.601 21.7786 45.5634C22.2598 45.78 23.2704 46.2131 23.7998 45.9484C24.2569 45.7078 24.2328 45.3709 23.8238 45.0341C22.0673 43.4942 20.3108 41.9302 18.8672 40.1015C18.1453 39.1872 17.4957 38.2248 16.9904 37.1661C16.8941 36.9495 15.8595 33.8696 16.2445 33.9659C16.6535 34.0621 17.7844 34.2546 17.7363 33.5569C17.6882 32.9072 16.2926 32.45 15.8114 32.3297L15.8595 32.2816Z" fill="#846DF2"/>
<path d="M139.558 129.993C148.702 129.753 158.182 129.199 166.266 124.483C170.429 122.053 174.471 118.636 176.781 114.329C178.056 111.923 178.177 109.469 178.49 106.822C178.634 105.571 178.947 104.32 178.923 103.045C178.923 101.625 178.538 100.23 178.225 98.8821C176.95 93.5164 174.255 88.3914 168.143 87.9823C167.686 87.9583 166.098 87.9823 165.954 88.6079C165.785 89.2817 166.796 89.3779 167.253 89.426C172.113 89.7629 173.918 96.0429 174.784 99.8686C175.338 102.299 175.241 104.344 174.929 106.774C174.616 109.204 174.592 111.635 173.413 113.944C169.563 121.476 160.925 126.216 152.84 127.539C148.437 128.261 143.962 128.477 139.486 128.598C139.053 128.598 137.682 128.79 137.73 129.416C137.778 130.041 139.198 130.041 139.583 130.017L139.558 129.993Z" fill="#846DF2"/>
<path d="M167.35 87.0655C167.855 87.2099 168.337 87.3542 168.818 87.5708L168.529 87.4264C168.842 87.5708 169.131 87.7393 169.395 87.9799L169.203 87.8114C169.612 88.1723 169.925 88.6536 170.117 89.1588L170.045 88.9664C170.213 89.4236 170.286 89.8807 170.286 90.3619C170.286 90.6266 170.647 90.795 170.839 90.8432C171.224 90.9875 171.729 91.0357 172.114 91.0116C172.499 90.9876 173.005 90.9394 173.39 90.7469C173.606 90.6507 173.895 90.5063 173.895 90.2176C173.895 89.2551 173.558 88.2205 172.908 87.4986C172.114 86.6324 170.983 86.2474 169.877 85.9106C169.444 85.7903 169.034 85.7422 168.601 85.7422C168.192 85.7422 167.687 85.8143 167.326 86.0068C167.134 86.1031 166.773 86.2715 166.821 86.5362C166.869 86.8009 167.134 86.9693 167.374 87.0174L167.35 87.0655Z" fill="#846DF2"/>
<path fill-rule="evenodd" clip-rule="evenodd" d="M159.383 37.9293C159.335 38.9399 160.25 39.9023 161.26 39.8542C161.91 39.8542 162.511 39.4692 162.872 38.9399C163.233 38.4105 163.378 37.7368 163.305 37.0872C163.209 36.3413 162.848 35.5954 162.199 35.1863C161.549 34.7773 160.635 34.7773 160.081 35.2826C159.576 35.7157 159.407 36.4375 159.383 37.0872C159.335 37.9053 159.552 38.8917 160.298 39.2286" fill="#FF71BD"/>
<path d="M158.206 37.7028C158.158 39.3389 159.89 40.2773 161.334 40.3976C162.152 40.4698 162.994 40.2773 163.62 39.748C164.125 39.3149 164.438 38.6652 164.51 38.0156C164.582 37.3659 164.462 36.7162 164.173 36.1628C163.764 35.4169 163.115 34.9597 162.345 34.671C161.502 34.3582 160.492 34.262 159.626 34.5747C159.024 34.7913 158.591 35.3206 158.399 35.9222C158.206 36.5237 158.182 37.2456 158.302 37.8952C158.447 38.6652 158.952 39.2186 159.65 39.5314C160.107 39.7479 160.805 39.9163 161.286 39.6757C161.767 39.4351 161.262 39.0742 160.997 38.9539C160.805 38.8577 161.19 39.0742 160.997 38.9539C160.901 38.8817 160.997 38.9539 161.021 38.9539C160.997 38.9539 160.949 38.8577 160.925 38.8577C160.925 38.8577 160.829 38.7374 160.901 38.8336C160.781 38.6652 160.708 38.4727 160.66 38.2802C160.564 37.8952 160.564 37.4621 160.612 37.0531C160.66 36.62 160.781 36.1388 161.069 35.8019C161.142 35.7297 161.214 35.6575 161.286 35.5854C161.382 35.5132 161.166 35.6335 161.334 35.5373C161.382 35.5373 161.406 35.4891 161.454 35.4891C161.478 35.4891 161.695 35.4169 161.502 35.465C161.551 35.465 161.599 35.4651 161.623 35.441C161.454 35.441 161.839 35.3929 161.623 35.441C161.406 35.4169 161.912 35.441 161.623 35.441C161.623 35.441 161.31 35.3929 161.502 35.441C161.166 35.3688 161.334 35.3929 161.43 35.441C161.575 35.4891 161.166 35.3207 161.382 35.441C161.166 35.3207 161.286 35.3928 161.334 35.4169C161.334 35.4169 161.527 35.5372 161.43 35.465C161.334 35.3928 161.502 35.5373 161.502 35.5373C161.575 35.6094 161.695 35.7297 161.743 35.7778C161.96 36.0906 162.152 36.5718 162.176 36.9809C162.224 37.4862 162.128 38.0396 161.912 38.4967C161.815 38.6892 161.647 38.8817 161.478 39.0261C161.31 39.1945 161.19 39.2667 160.949 39.363C160.949 39.363 160.733 39.4111 160.853 39.4111C160.516 39.4352 160.973 39.387 160.853 39.4111C160.781 39.4111 160.66 39.4111 160.949 39.4111C160.708 39.4111 161.238 39.4833 160.997 39.4111L161.19 39.4592C161.286 39.5073 161.286 39.5073 161.19 39.4592C161.093 39.4111 161.117 39.4111 161.238 39.4833L161.117 39.4111C160.973 39.3148 161.19 39.5073 161.069 39.387C160.973 39.2908 160.877 39.1945 160.805 39.0983C160.853 39.1705 160.805 39.0983 160.805 39.0742C160.781 39.0261 160.733 38.9539 160.708 38.9058C160.612 38.6893 160.54 38.4486 160.564 38.208C160.564 37.7509 159.818 37.5584 159.481 37.5102C159.193 37.4621 158.904 37.414 158.615 37.4862C158.495 37.5103 158.206 37.5824 158.206 37.7509V37.7028Z" fill="#FF71BD"/>
<path d="M128.13 8.97081C129.862 10.6792 131.835 12.0988 133.76 13.5665C135.685 15.0343 137.61 16.6945 139.342 18.451C142.831 21.9639 145.911 25.8618 148.991 29.7597C149.617 30.5297 151.06 30.5538 151.951 30.4575C152.311 30.4094 154.236 30.0244 153.635 29.2785C150.555 25.3806 147.475 21.4827 143.986 17.9697C142.302 16.2614 140.521 14.6493 138.645 13.1815C136.768 11.7138 134.554 10.246 132.774 8.48955C132.028 7.76771 130.801 7.69551 129.814 7.79176C129.525 7.81582 127.432 8.29709 128.13 8.97081Z" fill="#FF71BD"/>
<path d="M125.892 38.2556C132.99 41.0949 140.81 42.0333 148.389 41.143C148.991 41.0708 150.747 40.8784 150.699 39.964C150.651 39.0497 148.678 39.17 148.221 39.2182C141.724 39.9881 135.228 39.0256 129.164 36.5954C128.178 36.2104 126.686 36.403 125.772 36.8842C124.857 37.3654 125.05 37.8948 125.892 38.2316V38.2556Z" fill="#FF71BD"/>
<path d="M155.97 2.42323C157.775 8.91978 159.098 15.5607 159.94 22.2497C160.108 23.5971 164.897 23.0438 164.728 21.6723C163.886 14.9832 162.563 8.34233 160.758 1.84578C160.373 0.426164 155.657 1.24422 155.97 2.42323Z" fill="#FF71BD"/>
<path d="M172.212 25.1152C177.264 18.3058 182.101 11.3281 186.696 4.20592C187.226 3.38783 185.181 3.2916 184.844 3.31566C183.905 3.36378 182.582 3.6044 182.029 4.44654C177.433 11.5687 172.597 18.5465 167.544 25.3558C166.966 26.1498 169.108 26.2701 169.396 26.2461C170.383 26.1979 171.586 25.9333 172.212 25.1152Z" fill="#FF71BD"/>
<path d="M175.552 37.9392C182.12 35.8458 189.122 35.5571 195.595 33.1028C196.557 32.7419 195.739 31.9238 195.186 31.587C194.392 31.0817 192.9 30.5282 191.961 30.8892C185.489 33.3434 178.487 33.6562 171.918 35.7255C170.908 36.0383 171.822 36.9286 172.327 37.2414C173.17 37.7707 174.565 38.276 175.552 37.9392Z" fill="#FF71BD"/>
<path d="M13.79 153.434C18.8429 154.541 24.0882 154.71 29.1652 153.747C32.4134 153.146 35.4452 151.895 38.4047 150.475C44.7809 147.419 50.7963 143.714 56.8838 140.129C57.5335 139.744 57.3169 139.335 56.7154 139.118C55.9935 138.853 54.8385 139.142 54.1889 139.527C48.7992 142.703 43.4576 146 37.8753 148.815C35.397 150.066 32.7984 151.365 30.0795 152.063C25.5319 153.242 20.6715 153.001 16.1239 152.015C15.378 151.846 14.2231 151.943 13.5975 152.424C13.0922 152.833 12.996 153.266 13.766 153.434H13.79Z" fill="#846DF2"/>
<path d="M9.04993 148.647C9.21836 149.201 9.55522 149.706 9.91613 150.163C10.3492 150.693 10.8546 151.198 11.408 151.607C12.0576 152.112 12.7554 152.593 13.5253 152.954C14.3434 153.339 15.2578 153.676 16.1721 153.748C16.4368 153.748 16.8699 153.797 17.0864 153.628C17.2789 153.46 17.2308 153.219 17.0864 153.051C16.8699 152.762 16.5089 152.545 16.1721 152.377C15.763 152.184 15.3059 152.016 14.8247 151.992C14.6562 151.992 14.3194 151.872 14.945 152.016C14.7525 151.968 14.3915 151.824 15.0652 152.064C14.969 152.04 14.8728 151.992 14.7525 151.968C14.7525 151.968 15.2578 152.184 15.0172 152.064C14.969 152.04 14.9209 152.016 14.8487 151.992C14.7765 151.944 14.3675 151.751 14.7043 151.92C15.0412 152.088 14.6562 151.896 14.584 151.848C14.4878 151.775 14.3675 151.703 14.2713 151.631C14.2231 151.583 14.175 151.559 14.1028 151.511C13.8863 151.366 14.4156 151.751 14.199 151.583C14.0066 151.439 13.8141 151.27 13.6216 151.102C13.5253 151.03 13.4532 150.933 13.3569 150.861C13.3088 150.813 13.2607 150.765 13.2126 150.717C13.1885 150.693 13.1644 150.669 13.1163 150.62L13.2607 150.765C13.0922 150.62 12.9479 150.404 12.8035 150.211C12.6592 150.019 12.5629 149.85 12.4667 149.682L12.5869 149.899C12.5148 149.754 12.4426 149.586 12.3944 149.417C12.3223 149.129 11.9854 148.888 11.7448 148.744C11.3598 148.503 10.9027 148.311 10.4455 148.214C10.1568 148.142 8.76121 147.95 8.9537 148.623L9.04993 148.647Z" fill="#846DF2"/>
<path d="M13.0679 148.019C12.707 149.03 12.6348 150.137 12.9476 151.147C13.116 151.749 13.4288 152.23 13.9341 152.591C14.3913 152.928 15.0169 153.144 15.5703 153.24C16.1237 153.337 16.7734 153.409 17.3508 153.265C17.5433 153.216 17.9283 153.12 17.9764 152.855C18.0245 152.591 17.7358 152.35 17.5674 152.254C17.2065 152.013 16.7733 151.869 16.3643 151.797C15.9553 151.725 15.4981 151.652 15.065 151.749C14.9206 151.773 14.9688 151.773 15.2334 151.749H15.5462C15.9312 151.797 16.3162 151.893 16.629 152.061C16.7493 152.134 16.7733 152.134 16.7012 152.085C16.8455 152.206 16.8937 152.254 16.8215 152.182C16.7734 152.134 16.7252 152.061 16.6771 152.013L16.8215 152.23C16.5327 151.821 16.3884 151.292 16.3162 150.786V150.979C16.244 150.185 16.3402 149.415 16.629 148.669C16.7252 148.428 16.3403 148.164 16.2199 148.067C15.8831 147.827 15.4019 147.682 15.0169 147.61C14.6319 147.538 14.1507 147.466 13.7176 147.562C13.4769 147.61 13.1882 147.682 13.092 147.971L13.0679 148.019Z" fill="#846DF2"/>
<path d="M6.45135 151.701C8.97778 153.265 12.2742 154.396 15.2097 153.482C15.4503 153.41 15.8833 153.265 16.0036 153.001C16.124 152.784 16.0037 152.568 15.7871 152.447C15.1134 152.038 14.0306 152.086 13.3088 152.327C13.3088 152.327 13.1885 152.375 13.1644 152.375C13.1644 152.375 13.5975 152.303 13.3569 152.327L13.1885 152.351C13.1885 152.351 13.6697 152.327 13.4291 152.327C13.381 152.327 13.3088 152.327 13.2607 152.327C13.8141 152.279 13.5975 152.327 13.4291 152.327C13.3569 152.327 12.9479 152.279 13.2366 152.327C13.5253 152.375 13.1163 152.327 13.0441 152.303C12.9238 152.303 12.8035 152.255 12.6832 152.231C12.6351 152.231 12.4185 152.159 12.6351 152.231C12.8516 152.303 12.6351 152.231 12.5869 152.231C12.4426 152.183 12.2982 152.159 12.1539 152.11C11.8892 152.038 11.6486 151.942 11.408 151.846C11.2877 151.798 11.1673 151.75 11.047 151.701C10.9267 151.653 10.9748 151.677 11.047 151.701C10.9989 151.677 10.9267 151.653 10.8786 151.629C10.3974 151.413 9.94022 151.148 9.48306 150.859C8.80934 150.45 7.72658 150.498 7.00474 150.739C6.5957 150.859 5.70544 151.316 6.40321 151.749L6.45135 151.701Z" fill="#846DF2"/>
<path d="M62.3465 70.5156C62.8278 71.3577 60.9029 70.8043 60.6382 70.6359C58.5689 69.3607 56.6681 67.7966 55.0319 65.992C54.6469 67.2673 54.3341 68.5666 54.0694 69.89C53.901 70.7322 53.7326 71.5984 53.6123 72.4405C53.492 73.042 51.3024 72.4405 51.3746 71.7427C51.5671 70.0103 51.543 68.2779 51.2783 66.5696C51.134 65.6552 50.8934 64.7649 50.7731 63.8506C49.3053 64.7649 47.9579 65.8958 46.2736 66.4733C45.8886 66.5936 43.7712 66.0401 44.3487 65.4627C46.1533 63.7062 47.982 61.9979 50.0272 60.5301C48.5113 60.458 46.9954 60.3858 45.4795 60.3136C45.1908 60.3136 43.2419 59.4715 44.1562 59.2068C45.7443 58.7737 47.3804 58.2925 48.9925 57.8594C52.722 59.7362 56.4515 61.637 60.1569 63.5619C61.0232 63.995 61.8893 64.4521 62.7555 64.8852C61.3119 64.6446 59.8201 64.4522 58.3764 64.4762C59.8201 66.4252 61.2397 68.3742 62.3946 70.4916L62.3465 70.5156Z" fill="white"/>
<path d="M55.1995 89.5883C53.6596 90.2139 52.0957 90.8636 50.5557 91.5373C52.1197 92.5479 53.7078 93.5584 55.2958 94.5931C56.0417 95.0502 54.2371 95.3149 53.9965 95.2668C50.9166 94.8818 47.8609 94.4487 44.8532 93.8472C44.7329 93.5344 44.6125 93.2697 44.4922 92.9569C43.1929 89.5402 41.8696 86.1476 40.5703 82.7309C41.0515 81.5519 41.7252 80.445 42.4952 79.4104C42.808 79.0254 44.757 78.8088 44.781 79.5307C44.8292 81.0706 44.9013 82.6105 44.9976 84.1505C47.0669 82.4902 49.3286 81.0706 51.7106 79.8435C52.0716 79.675 53.7078 79.5307 53.7078 80.1804C53.7559 81.5519 52.3603 82.8511 51.5663 83.8377C50.7482 84.8723 49.858 85.8588 48.9918 86.8694C50.3633 86.7972 51.7828 86.725 53.1543 86.6769C54.0687 86.6287 54.983 86.5325 55.8973 86.5806C56.547 86.5806 57.6538 86.5806 58.1109 87.11C59.0975 88.2649 55.9214 89.2995 55.2476 89.5883H55.1995Z" fill="white"/>
<path d="M81.2595 74.9185C81.091 76.8434 81.0189 78.7443 80.9948 80.6692C80.9948 81.006 80.273 80.982 80.0564 80.982C79.6955 80.9338 79.0459 80.8376 78.8293 80.5248C77.6985 79.0571 76.9766 77.3728 76.6878 75.5682C76.0863 76.1938 75.4848 76.8193 74.8592 77.4209C74.5224 77.7337 73.8967 77.6134 73.5358 77.5171C73.3433 77.469 72.5252 77.2284 72.6215 76.8915C73.0546 75.3757 73.8005 73.956 74.6426 72.6086C73.2952 72.5364 71.9237 72.4402 70.5763 72.344C70.2635 72.344 68.6273 71.9109 69.3973 71.4296C70.4319 70.78 71.5869 70.4431 72.7899 70.2266C75.6292 71.7424 78.4443 73.3064 81.2114 74.9185H81.2595Z" fill="white"/>
<path d="M39.3674 62.2875C39.3674 62.5522 38.9342 62.6243 38.7417 62.6243C37.3702 62.7206 35.9747 62.8168 34.6032 62.9131C35.9266 63.683 37.2499 64.5252 38.477 65.4396C38.7658 65.6561 38.5252 65.8486 38.3087 65.9448C37.9237 66.1132 37.4665 66.0411 37.0815 65.9448C36.1431 65.7523 35.2047 65.5839 34.2904 65.4876C33.4964 63.2981 32.7505 61.1085 32.0286 58.9189C31.8121 58.3174 31.6437 57.7158 31.4512 57.1143C31.8843 56.7774 32.3655 56.5128 32.8467 56.2481C33.2557 56.0075 33.9054 56.1038 34.3145 56.2481C34.5551 56.3203 35.1326 56.5369 34.916 56.8737C34.4588 57.5475 34.0017 58.2212 33.5686 58.8949C34.7235 58.6302 35.8784 58.4618 37.0815 58.3655C37.5387 58.3174 38.068 58.3655 38.477 58.6302C38.7176 58.7505 38.8861 59.0152 38.5733 59.2077C37.298 59.8573 35.9266 60.3626 34.5551 60.7717C35.1326 60.8679 35.7341 60.9882 36.3115 61.1326C37.1777 61.325 38.0199 61.5657 38.8861 61.8304C39.0545 61.8785 39.4395 62.071 39.3914 62.2875H39.3674Z" fill="white"/>
</svg>
