<svg width="56" height="56" viewBox="0 0 56 56" fill="none" xmlns="http://www.w3.org/2000/svg">
<path d="M27.1536 18.1644C29.6851 17.4956 31.8966 17.952 31.6439 20.6564C31.47 22.5175 27.978 26.7221 27.9249 24.8535C27.9152 24.5105 29.0668 24.4605 30.1496 24.5847C31.6792 24.7602 32.2245 26.4213 32.7818 27.9267C33.4888 29.8366 32.9556 32.038 32.3475 33.3732C29.5037 39.617 15.5049 37.0417 21.269 29.6305" stroke="#846DF2" stroke-width="1.64693" stroke-linecap="round"/>
<path d="M38.2982 13.6295C40.0246 13.6204 44.1872 13.8003 46.0961 15.3415C46.791 15.9025 46.9684 16.8888 47.2086 17.986C47.4327 19.0096 47.1714 19.871 46.7206 20.5362C46.2061 21.2954 45.3859 21.7386 45.135 21.8238C42.9779 22.5558 50.202 20.5126 52.5401 21.2066C53.8242 21.5878 54.2773 23.2572 54.7073 24.5778C55.1603 25.969 54.981 27.4732 54.7135 28.9025C54.0444 32.4779 50.0177 35.2261 47.4428 37.1046C46.4449 37.8325 45.3564 38.0252 44.8457 37.9464C44.0398 37.822 45.9079 36.2229 46.8947 35.5987C47.327 35.3252 47.6905 35.2541 48.0408 35.288C48.391 35.3219 48.7348 35.4922 48.8482 36.0585C49.1474 37.5533 47.9216 39.5297 46.0115 41.6131C43.6453 44.194 39.5364 46.7575 35.5152 49.1572C31.7861 51.3824 29.0529 51.2286 27.6238 51.0964C27.0562 51.0438 26.9021 50.565 26.933 50.1741C26.9639 49.7832 27.2083 49.3783 27.5347 49.1428C27.8611 48.9073 28.2621 48.8536 28.5356 49.1174C28.8092 49.3811 28.9431 49.964 28.8859 50.4488C28.6686 52.2931 25.9505 53.477 24.2013 54.3626C23.0432 54.9489 21.5155 55.0206 20.0959 54.9718C18.6643 54.9227 17.4719 53.7848 16.5548 52.5088C15.6899 51.3055 15.6541 49.5642 15.6955 47.9657C15.7494 45.8869 17.322 44.8704 17.8286 44.5885C18.9142 43.9843 14.8559 47.1186 11.5055 47.9682C9.33972 48.5174 6.68071 47.0657 4.23961 44.8331C1.86907 42.6651 1.26252 39.7509 0.891452 37.5903C0.548464 35.5931 1.17252 33.7762 2.2116 32.2285C4.14763 29.3446 7.04681 28.4883 9.81868 27.6553C10.6556 27.4038 11.841 27.468 12.4463 27.623C13.0515 27.7781 13.0723 28.1634 12.8068 28.5822C12.1742 29.5801 11.0387 30.0719 10.0944 30.4488C8.83056 30.9533 7.27476 30.8469 5.95835 30.1364C3.16702 28.6299 4.5536 22.6519 5.64871 19.0467C6.47867 16.3143 9.282 14.1501 11.4837 12.0977C15.8261 8.04997 20.594 5.91669 23.3649 5.10425C23.9292 4.93881 24.472 5.0067 24.7757 5.18952C25.0795 5.37233 25.147 5.7533 25.0056 6.21613C24.3164 8.47165 22.21 9.07673 21.4649 9.18235C21.117 9.23166 20.8189 8.98399 20.6417 8.71421C20.2738 8.15388 20.3711 7.14611 20.5719 6.00107C21.0659 3.1842 26.0252 1.83777 29.5817 1.13824C32.9266 0.480343 35.6658 0.944069 36.6778 1.12331C37.5576 1.27913 38.1029 1.87982 38.419 2.50319C39.2964 4.23384 35.722 6.99982 32.9598 8.60011C30.3805 10.0945 40.2357 6.26719 43.295 6.16487C43.766 6.14911 44.0772 6.46636 44.3128 6.7836C44.5484 7.10083 44.6883 7.52539 44.5704 8.22767C42.6308 11.8483 39.0651 14.5866 36.7415 15.8562C35.8509 16.3261 35.546 16.4419 35.2318 16.5613" stroke="black" stroke-width="1.59375" stroke-linecap="round"/>
</svg>
