<svg width="152" height="32" viewBox="0 0 152 32" fill="none" xmlns="http://www.w3.org/2000/svg">
<path fill-rule="evenodd" clip-rule="evenodd" d="M50.9989 22.715L46.1527 0.963354C46.1278 0.838774 46.1527 0.714194 46.2399 0.61453C46.3271 0.514866 46.4392 0.452576 46.5638 0.452576H66.8579C67.1195 0.452576 67.3438 0.626988 67.4061 0.888606L72.2647 22.6403C72.2896 22.7648 72.2647 22.8894 72.1775 22.9891C72.0903 23.0888 71.9781 23.151 71.8536 23.151H65.5623C65.3007 23.151 65.0764 22.9766 65.0141 22.715L61.2269 5.80951H54.5992L58.2993 22.6403C58.3242 22.7648 58.2993 22.8894 58.2121 22.9891C58.1248 23.0888 58.0127 23.151 57.8881 23.151H51.5595C51.2979 23.151 51.0736 22.9766 51.0113 22.715H50.9989Z" fill="#6A49F9"/>
<path fill-rule="evenodd" clip-rule="evenodd" d="M94.677 22.6898L102.102 0.838462C102.177 0.60176 102.388 0.464722 102.638 0.464722H109.253C109.365 0.464722 109.465 0.514554 109.539 0.614218C109.602 0.713882 109.627 0.826004 109.589 0.925668L106.786 9.19778H114.261L117.101 0.85092C117.176 0.614218 117.388 0.47718 117.637 0.47718H124.252C124.364 0.47718 124.464 0.527012 124.539 0.626676C124.601 0.72634 124.626 0.838462 124.589 0.938126L117.164 22.7895C117.089 23.0262 116.877 23.1632 116.628 23.1632H110.013C109.901 23.1632 109.801 23.1134 109.726 23.0137C109.664 22.914 109.639 22.8019 109.676 22.7022L112.367 14.779H104.893L102.177 22.7895C102.102 23.0262 101.89 23.1632 101.641 23.1632H95.0258C94.9137 23.1632 94.814 23.1134 94.7393 23.0137C94.677 22.914 94.6521 22.8019 94.6894 22.7022L94.677 22.6898Z" fill="#6A49F9"/>
<path fill-rule="evenodd" clip-rule="evenodd" d="M79.3153 0.863954L82.7039 16.0503L82.7413 16.2122C82.8534 16.6856 83.0154 16.86 83.6134 16.86H84.5602L89.9794 0.88887C90.0791 0.602336 90.3407 0.415466 90.6397 0.415466H96.9434C97.1054 0.415466 97.2424 0.490214 97.3421 0.614794C97.4417 0.751832 97.4542 0.901328 97.4044 1.06328L87.0767 31.4608C86.977 31.7473 86.7154 31.9342 86.4164 31.9342H80.013C79.876 31.9342 79.7514 31.8719 79.6766 31.7598C79.6019 31.6477 79.577 31.5106 79.6143 31.386L82.4174 23.1513H80.9598C78.6426 23.1513 76.6867 21.5941 76.1759 19.3267L72.0648 1.11311C72.0274 0.938702 72.0648 0.776748 72.1769 0.63971C72.289 0.502672 72.4385 0.427924 72.613 0.427924H78.7672C79.0413 0.427924 79.2531 0.614794 79.3153 0.876412V0.863954Z" fill="#6A49F9"/>
<path fill-rule="evenodd" clip-rule="evenodd" d="M24.1949 22.715L19.4359 0.963354C19.411 0.838774 19.4359 0.714194 19.5231 0.61453C19.6103 0.514866 19.7224 0.452576 19.847 0.452576H26.2878C26.4871 0.452576 26.6491 0.589614 26.6989 0.776484L29.2279 12.3126H29.9255L33.5633 0.838774C33.638 0.602072 33.8498 0.452576 34.099 0.452576H40.9758C41.2374 0.452576 41.4617 0.626988 41.5239 0.888606L46.3701 22.6403C46.395 22.7648 46.3701 22.8894 46.2829 22.9891C46.1957 23.0888 46.0836 23.151 45.959 23.151H39.4933C39.294 23.151 39.132 23.014 39.0822 22.8271L36.4909 11.2412H35.7559L32.1182 22.7648C32.0434 23.0015 31.8316 23.151 31.5825 23.151H24.7181C24.4565 23.151 24.2322 22.9766 24.17 22.715H24.1949Z" fill="#6A49F9"/>
<path fill-rule="evenodd" clip-rule="evenodd" d="M133.306 12.325L143.758 0.689278C143.895 0.539782 144.069 0.452576 144.281 0.452576H151.582C151.719 0.452576 151.843 0.514866 151.918 0.626988C152.005 0.73911 152.018 0.876148 151.98 1.00073L144.593 22.7648C144.518 23.0015 144.306 23.1386 144.057 23.1386H137.753C137.616 23.1386 137.492 23.0763 137.417 22.9642C137.33 22.8521 137.317 22.715 137.355 22.5904L141.217 11.2287H140.506L130.029 22.9143C129.892 23.0638 129.718 23.151 129.506 23.151H122.206C122.069 23.151 121.944 23.0888 121.869 22.9766C121.782 22.8645 121.77 22.7275 121.807 22.6029L129.207 0.838774C129.282 0.602072 129.494 0.465034 129.743 0.465034H136.146C136.258 0.465034 136.358 0.514866 136.433 0.61453C136.495 0.714194 136.52 0.826316 136.482 0.92598L132.608 12.3375H133.318L133.306 12.325Z" fill="#6A49F9"/>
<path fill-rule="evenodd" clip-rule="evenodd" d="M20.4858 22.0175C18.5424 22.9643 14.7427 23.6121 12.6248 23.6121C5.53623 23.5872 0.216662 18.5168 0.00487629 11.5777C-0.169536 5.57296 4.35272 0.739252 10.6814 0.0789782C12.3632 -0.0954337 14.8174 0.0291462 16.2875 0.353054C16.5491 0.415344 16.7235 0.639588 16.7235 0.901206V5.53558C16.7235 5.68508 16.6612 5.80966 16.5491 5.90932C16.437 6.00899 16.2999 6.04636 16.1504 6.02144C15.3531 5.89686 14.4686 5.83457 13.5716 5.88441C11.8649 5.95915 10.1457 6.4201 9.09921 7.55378C8.04028 8.69991 7.51705 10.3319 7.65409 11.8518C7.95308 15.1781 10.1208 17.3084 13.6464 17.3458C15.4902 17.3582 16.9976 16.8474 18.0191 16.399C18.1437 16.3491 18.2683 16.3491 18.3929 16.399C18.5175 16.4488 18.6047 16.536 18.667 16.6606L20.6976 21.4195C20.7973 21.6562 20.6976 21.9428 20.4609 22.0549L20.4858 22.0175Z" fill="#6A49F9"/>
</svg>
