<svg width="365" height="241" viewBox="0 0 365 241" fill="none" xmlns="http://www.w3.org/2000/svg">
<path fill-rule="evenodd" clip-rule="evenodd" d="M200.732 25.6266C217.789 11.2087 249.891 -7.16298 284.795 11.2087C308.19 23.5188 300.252 23.5188 318.818 25.6266C337.384 27.7343 339.335 41.5318 339.313 54.2904C339.29 67.0489 333.236 71.8698 338.782 81.7284C344.328 91.5869 325.844 104.876 328.759 109.518C331.674 114.159 340.18 122.515 332.324 132.92C323.834 144.161 310.731 134.399 309.236 136.507C307.741 138.615 300.97 154.004 302.726 157.697C304.483 161.389 306.598 157.084 307.741 165.522C308.885 173.961 308.182 175.284 308.885 177.66C309.588 180.037 311.329 181.263 311.075 184.955C310.821 188.648 333.692 197.52 335.09 202.012C336.069 205.181 333.064 207.049 333.064 207.049C333.064 207.049 341.749 208.694 342.504 208.126C343.259 207.557 344.178 205.196 350.225 207.52C356.272 209.845 352.669 209.912 358.208 210.315C363.746 210.719 362.827 234.465 355.038 235.25C347.25 236.042 293.01 232.394 291.597 234.786C290.184 237.178 288.121 239.069 283.816 236.528C279.511 233.994 281.357 238.957 276.342 238.606C271.327 238.254 271.289 234.951 269.75 236.049C268.21 237.156 266.454 240.893 263.509 238.381C260.564 235.877 261.663 235.25 258.366 236.049C255.07 236.849 253.037 237.327 249.831 235.04C246.624 232.753 195.358 239.338 199.671 224.262C203.976 209.187 211.077 207.064 216.526 207.685C219.022 207.969 222.946 210.57 225.203 209.06C226.788 208.006 226.997 203.454 228.193 201.451C229.389 199.448 231.295 196.72 237.648 193.013C240.892 191.114 243.239 190.628 245.167 188.393C246.228 187.16 245.264 186.323 245.87 184.791C246.714 182.661 250.19 180.972 249.696 179.649C249.338 178.699 247.888 179.596 246.101 179.806C243.433 180.119 239.853 180.037 238.171 179.424C231.908 177.152 228.111 175.231 224.321 169.887C222.034 166.666 215.442 154.371 213.461 147.203C208.835 130.438 204.754 118.27 202.907 110.048C201.061 101.827 190.665 60.6958 194.753 43.946C198.841 27.1962 200.725 25.6116 200.725 25.6116L200.732 25.6266Z" fill="white"/>
<path fill-rule="evenodd" clip-rule="evenodd" d="M297.591 202.632C302.756 198.806 310.126 190.943 310.784 187.781C311.441 184.619 332.317 198.753 333.782 201.541C335.247 204.329 330.643 205.831 336.577 207.453C342.512 209.075 338.162 212.035 336.099 216.662C334.036 221.288 330.702 221.983 345.016 224.27C345.016 224.27 351.234 214.883 352.012 212.184C352.796 209.479 351.735 209.636 357.677 209.867C363.619 210.099 362.251 210.585 362.864 216.034C363.477 221.482 366.385 236.147 362.864 237.47C359.344 238.785 292.606 239.712 290.76 237.47C289.631 236.102 291.044 233.359 292.726 232.141C293.802 231.363 294.878 232.507 295.902 230.87C297.375 228.516 294.542 226.034 294.542 226.034C294.542 226.034 301.381 227.111 300.933 218.881C300.477 210.66 297.599 202.632 297.599 202.632H297.591Z" fill="#7AEDE3"/>
<path fill-rule="evenodd" clip-rule="evenodd" d="M192.055 233.531C191.375 231.408 192.631 228.478 193.326 225.346C194.701 219.15 197.138 212.356 200.957 210.787C206.697 208.425 209.052 209.613 209.052 209.613C209.052 209.613 206.092 219.09 208.581 220.735C211.07 222.379 215.883 222.573 216.608 221.886C217.333 221.198 217.662 210.009 219.314 209.934C220.966 209.86 225.465 209.598 225.465 209.598C225.465 209.598 226.579 203.611 229.441 201.085C232.304 198.559 241.819 190.995 244.779 190.3C247.738 189.604 247.544 194.874 250.377 198.843C250.377 198.843 241.968 212.565 245.87 218.56C248.919 223.239 251.229 220.406 251.229 220.406C251.229 220.406 248.359 233.396 250.489 235.287C252.619 237.178 245.563 236.431 230.525 236.229C215.487 236.027 192.623 235.317 192.055 233.531Z" fill="#7AEDE3"/>
<path d="M209.985 80.503C218.947 80.6525 228.461 80.503 237.408 80.0023C241.721 79.8378 242.162 86.2283 237.864 86.6543C228.29 87.3719 218.67 86.9234 209.342 84.5018C208.259 84.2103 207.608 83.0966 207.9 82.0128C208.154 81.0561 209.043 80.4507 209.993 80.503H209.985Z" fill="#846DF2"/>
<path d="M291.403 86.647C281.424 86.079 270.691 86.0416 260.773 87.1403C256.445 87.5813 255.631 81.1684 259.943 80.5256C270.766 79.1578 281.663 79.7707 292.172 82.6707C294.527 83.3285 293.824 86.9236 291.403 86.6545V86.647Z" fill="#846DF2"/>
<path d="M237.222 115.191H212.714C210.755 115.191 209.171 113.599 209.171 111.648V93.7694C209.171 91.8111 210.763 90.2266 212.714 90.2266H237.222C239.18 90.2266 240.765 91.8186 240.765 93.7694V111.648C240.765 113.606 239.172 115.191 237.222 115.191ZM213.162 111.192H236.766V94.2253H213.162V111.192Z" fill="#846DF2"/>
<path d="M290.244 115.191H260.063C258.105 115.191 256.521 113.599 256.521 111.648V93.7694C256.521 91.8111 258.113 90.2266 260.063 90.2266H290.244C292.203 90.2266 293.787 91.8186 293.787 93.7694V111.648C293.787 113.606 292.195 115.191 290.244 115.191ZM260.519 111.192H289.788V94.2253H260.519V111.192Z" fill="#846DF2"/>
<path d="M238.694 92.2146H220.464C220.204 92.2146 219.993 92.4254 219.993 92.6855V105.728C219.993 105.988 220.204 106.199 220.464 106.199H238.694C238.954 106.199 239.165 105.988 239.165 105.728V92.6855C239.165 92.4254 238.954 92.2146 238.694 92.2146Z" fill="#846DF2"/>
<path d="M290.924 92.2146H271.028C270.767 92.2146 270.557 92.4254 270.557 92.6855V105.728C270.557 105.988 270.767 106.199 271.028 106.199H290.924C291.184 106.199 291.395 105.988 291.395 105.728V92.6855C291.395 92.4254 291.184 92.2146 290.924 92.2146Z" fill="#846DF2"/>
<path d="M245.003 106.573C243.493 113.606 242.304 120.714 241.46 127.86C241.295 129.257 246.602 129.594 246.796 127.994C247.648 120.849 248.829 113.748 250.339 106.708C250.608 105.444 245.361 104.929 245.003 106.573Z" fill="#846DF2"/>
<path d="M242.468 153.272C245.054 154.087 247.835 154.371 250.518 153.878C250.817 153.825 251.363 153.676 251.437 153.302C251.512 152.928 251.079 152.562 250.832 152.398C250.301 152.054 249.674 151.822 249.053 151.695C248.433 151.568 247.775 151.493 247.14 151.605C246.923 151.643 246.714 151.68 246.497 151.71C246.392 151.725 246.258 151.762 246.146 151.747L246.512 151.717C246.445 151.717 246.377 151.725 246.31 151.732C246.108 151.747 245.907 151.747 245.712 151.755C245.615 151.755 245.51 151.755 245.413 151.755C245.346 151.755 245.279 151.755 245.211 151.755C245.675 151.777 245.802 151.785 245.608 151.77C245.391 151.755 245.174 151.74 244.957 151.71C244.86 151.695 244.755 151.673 244.658 151.673L245.159 151.755C245.092 151.747 245.025 151.732 244.965 151.717C244.77 151.68 244.569 151.643 244.374 151.59C244.307 151.575 244.247 151.561 244.18 151.538L244.673 151.673C244.546 151.628 244.412 151.598 244.292 151.561C243.649 151.359 242.939 151.217 242.259 151.239C241.93 151.247 241.175 151.291 240.929 151.605C240.278 152.42 241.96 153.115 242.476 153.28L242.468 153.272Z" fill="#846DF2"/>
<path d="M128.015 16.3287C125.736 25.8658 122.791 35.2311 120.511 44.7682C120.19 46.121 123.867 45.5904 124.39 44.7832C126.931 40.8891 130.003 36.8829 133.539 33.8334C136.491 31.2847 139.967 29.1694 142.568 26.2395C143.584 25.0885 139.757 24.9988 139.047 25.806C136.379 28.8181 132.791 30.9707 129.779 33.6166C128.187 35.0218 126.819 36.6811 125.452 38.2955C123.695 40.3659 122.006 42.5035 120.519 44.7832L124.398 44.7981C126.677 35.261 129.622 25.8957 131.902 16.3586C132.201 15.1178 128.269 15.2972 128.023 16.3436L128.015 16.3287Z" fill="#846DF2"/>
<path d="M140.797 16.7774C138.697 26.2099 136.738 35.6723 135.109 45.1945C134.937 46.1886 138.898 46.5099 139.108 45.2842C140.737 35.762 142.695 26.2921 144.796 16.8671C145.005 15.9328 141.073 15.5366 140.797 16.7774Z" fill="#846DF2"/>
<path d="M89.2164 101.737C86.4509 113.539 84.3356 125.475 81.5702 137.277C81.1441 139.101 86.0398 138.353 86.7424 137.292C89.4854 133.196 93.4244 129.683 96.8401 126.155C100.211 122.665 103.754 119.294 106.968 115.654C108.321 114.122 103.223 113.995 102.274 115.071C98.9703 118.808 95.3378 122.269 91.8697 125.856C88.3792 129.474 84.3805 133.076 81.5702 137.27L86.7424 137.284C89.5079 125.483 91.6231 113.546 94.3885 101.744C94.7772 100.085 89.5378 100.324 89.2164 101.729V101.737Z" fill="#846DF2"/>
<path d="M104.785 101.491C102.117 113.666 99.6879 125.909 97.6549 138.212C97.4382 139.542 102.715 139.961 102.992 138.331C105.025 126.036 107.454 113.786 110.122 101.61C110.399 100.355 105.152 99.839 104.785 101.491Z" fill="#846DF2"/>
<path d="M101.871 154.745C98.9556 166.509 96.6909 178.416 93.776 190.18C93.3275 191.996 98.238 191.234 98.9481 190.195C101.743 186.136 105.735 182.676 109.188 179.193C112.604 175.747 116.191 172.421 119.45 168.819C120.818 167.309 115.72 167.174 114.756 168.236C111.408 171.928 107.723 175.344 104.217 178.886C100.712 182.429 96.6386 186.017 93.776 190.173C95.5025 190.173 97.229 190.187 98.9481 190.187C101.863 178.423 104.128 166.516 107.043 154.752C107.446 153.108 102.214 153.332 101.871 154.737V154.745Z" fill="#846DF2"/>
<path d="M117.44 154.692C114.615 166.83 112.036 179.051 109.838 191.316C109.607 192.632 114.884 193.073 115.175 191.436C117.365 179.163 119.951 166.95 122.776 154.812C123.06 153.579 117.828 153.033 117.44 154.692Z" fill="#846DF2"/>
<path d="M63.1315 17.8909L63.58 17.8759C64.0359 17.861 65.1346 17.6966 65.0449 17.0538C64.9552 16.411 63.5127 16.2914 63.1091 16.2839C59.9549 16.2167 56.8008 16.2316 53.6466 16.3064C53.1309 16.3213 52.3312 16.4558 52.1518 17.0164C50.7167 21.4337 49.5433 25.9257 48.4969 30.4476C47.4505 35.0069 46.5835 39.5961 44.9915 44.0059C44.7523 44.6637 46.7554 44.873 46.9572 44.8804C50.6644 45.1196 54.3492 45.0374 58.0639 44.9925C58.5348 44.9925 60.067 45.015 60.0969 44.275C60.1268 43.5724 58.5423 43.3931 58.1312 43.4005C54.424 43.4454 50.7317 43.5276 47.0245 43.2884L48.9902 44.1629C50.5897 39.7531 51.4493 35.1639 52.4957 30.6046C53.5346 26.0827 54.7155 21.5906 56.1506 17.1734L54.6557 17.8834C57.4511 17.8161 60.2539 17.8161 63.0493 17.8834L62.5784 16.2914L62.13 16.3064C61.6591 16.3213 60.4109 16.5231 60.6949 17.2332C60.9789 17.9432 62.5934 17.9058 63.1315 17.8909Z" fill="#846DF2"/>
<path d="M51.6506 31.2105C53.721 31.502 55.8287 31.3451 57.914 31.4049C58.3475 31.4198 58.9231 31.3226 59.3267 31.1507C59.536 31.061 59.9096 30.8592 59.9021 30.5752C59.8946 30.2912 59.5285 30.0969 59.3042 30.0221C58.8483 29.8577 58.3699 29.8278 57.8841 29.8128C56.9349 29.783 55.9856 29.7979 55.0364 29.7904C54.7897 29.7904 54.5506 29.7904 54.3039 29.783C54.1768 29.783 54.0498 29.7829 53.9227 29.7755C53.549 29.768 54.4833 29.7979 54.0348 29.7755C53.5864 29.7531 53.138 29.7157 52.6895 29.6559C52.2112 29.5886 51.6132 29.6409 51.1498 29.7605C50.8807 29.8278 50.4024 29.9773 50.238 30.2538C49.8269 30.9489 51.3217 31.1657 51.6506 31.218V31.2105Z" fill="#846DF2"/>
<path d="M68.9834 15.7381C66.6514 24.8267 65.0519 34.0874 64.155 43.4302C64.0429 44.6111 66.5468 44.9026 67.3091 44.8652C71.9731 44.6335 76.6371 44.7232 81.286 45.082C81.5925 45.1044 82.3174 45.082 82.4221 44.6709C83.8646 39.0951 84.9708 33.4296 86.0695 27.7791C86.5329 25.3873 86.9889 22.9956 87.4373 20.6038C87.6167 19.6546 87.6392 18.4437 88.0054 17.5468C88.3941 16.5976 84.6046 15.3718 84.1412 16.5079C83.7899 17.3749 83.7675 18.5484 83.5956 19.4602C83.1471 21.8894 82.6837 24.3185 82.2128 26.7402C81.1141 32.3907 80.0079 38.0562 78.5654 43.632L79.7014 43.2209C74.7609 42.8397 69.8205 42.7949 64.8725 43.034L68.0266 44.4691C68.9235 35.1263 70.5231 25.8657 72.8551 16.777C73.1391 15.6783 69.2749 14.6393 68.9908 15.7381H68.9834Z" fill="#846DF2"/>
<path d="M73.8346 29.9542C73.2591 32.1965 72.7434 34.4537 72.295 36.7184C72.0707 37.862 71.8464 39.0056 71.6745 40.1566C71.54 41.061 71.1439 42.5483 71.7792 43.2958C72.1753 43.7517 73.1993 43.8489 73.7225 43.8788C74.2457 43.9087 75.0454 43.9012 75.4341 43.4752C75.5088 43.4004 75.5687 43.2734 75.5537 43.1687C75.4491 42.2867 73.7375 42.1223 73.1096 42.1447H73.0797C72.6686 42.1597 71.2784 42.2494 71.5923 42.9819C71.8838 43.662 73.4011 43.8115 73.9841 43.7891H74.014C73.1993 43.4453 72.3847 43.1014 71.57 42.7651L71.6372 42.6605L75.2921 42.8399L75.2323 42.7651L75.464 43.1911C75.322 42.1821 75.5612 41.0535 75.7331 40.0594C75.9199 38.9532 76.1292 37.847 76.3459 36.7483C76.7794 34.6032 77.2653 32.4656 77.811 30.3504C78.0576 29.3787 74.141 28.7434 73.8271 29.9468L73.8346 29.9542Z" fill="#846DF2"/>
<path d="M171.29 29.6775C170.251 29.6476 170.035 29.7672 170.625 30.0363C170.842 30.2007 171.029 30.395 171.193 30.6118C171.582 31.1051 171.798 31.6955 171.94 32.3084C172.217 33.5118 172.142 34.7824 171.948 35.9932C171.612 38.1159 170.849 40.2386 169.623 42.01C169.026 42.8696 168.278 43.7067 167.366 44.2299C167.194 44.3345 167.015 44.4242 166.821 44.4915C167.404 44.5587 167.501 44.5064 167.105 44.342C166.925 44.185 166.776 43.9982 166.656 43.7889C166.507 43.46 166.417 43.1162 166.402 42.7574C166.163 40.3283 167.568 37.6077 168.136 35.2757C169.579 29.3411 170.647 23.2795 171.821 17.2852C171.993 16.4256 168.084 16.3434 167.837 17.629C167.359 20.0805 166.873 22.5321 166.372 24.9762C165.528 29.1468 164.825 33.3997 163.629 37.4806C163.039 39.4912 161.641 42.5183 162.852 44.5363C163.876 46.2554 166.447 46.2703 168.166 45.8966C172.553 44.9549 174.915 40.5675 175.775 36.509C176.276 34.1695 176.462 31.0827 174.497 29.3187C172.688 27.6968 169.698 27.8463 167.777 29.1618C167.015 29.685 168.181 30.1185 168.585 30.1932C169.466 30.3427 170.543 30.1857 171.29 29.67V29.6775Z" fill="#846DF2"/>
<path fill-rule="evenodd" clip-rule="evenodd" d="M224.964 134.422C226.399 134.684 225.367 136.799 224.964 139.564C224.56 142.33 226.817 144.221 230.906 140.529C234.994 136.836 239.718 132.18 244.733 136.53C244.733 136.53 248.425 133.099 253.171 135.603C257.918 138.107 259.367 141.403 262.933 140.349C266.498 139.295 262.933 134.811 263.59 134.415C264.248 134.019 269.921 136.455 268.337 142.883C266.752 149.318 253.433 152.674 244.725 143.384C244.725 143.384 235.308 151.426 226.653 148.526C213.767 144.221 224.956 134.415 224.956 134.415L224.964 134.422Z" fill="#846DF2"/>
<path fill-rule="evenodd" clip-rule="evenodd" d="M232.251 124.055C232.251 127.366 228.603 130.057 222.579 130.057C217.407 130.057 213.214 127.374 213.214 124.055C213.214 120.737 216.689 118.472 222.4 118.472C228.11 118.472 232.251 120.744 232.251 124.055Z" fill="#989DFF"/>
<path fill-rule="evenodd" clip-rule="evenodd" d="M289.549 124.414C289.549 127.942 285.663 130.804 279.25 130.804C273.741 130.804 269.279 127.942 269.279 124.414C269.279 120.886 272.979 118.472 279.063 118.472C285.147 118.472 289.549 120.886 289.549 124.414Z" fill="#989DFF"/>
<path d="M316.426 129.743C316.949 126.38 317.682 122.845 320.268 120.415C320.739 119.967 321.411 119.526 321.912 119.302C321.838 119.339 322.204 119.19 322.264 119.175C322.293 119.167 322.921 119.003 322.495 119.092C322.69 119.048 322.891 119.025 323.093 118.995C322.757 119.04 322.906 119.025 323.153 119.01C322.637 118.973 323.489 118.98 323.153 119.01C323.841 119.063 322.57 118.921 323.25 119.025C323.766 119.1 322.876 118.876 323.407 119.063C323.452 119.078 323.953 119.257 323.714 119.16C323.474 119.063 323.96 119.279 324.005 119.302C323.99 119.302 324.476 119.563 324.304 119.459C324.648 119.675 324.962 119.937 325.253 120.214C326.09 120.983 327.802 121.073 328.863 120.879C329.558 120.752 330.807 120.303 329.932 119.496C328.198 117.897 325.821 117.134 323.504 116.91C321.187 116.686 318.609 117.03 316.598 118.323C312.846 120.737 311.732 125.199 311.09 129.332C311.03 129.698 311.568 130.02 311.807 130.147C312.345 130.423 313.063 130.573 313.661 130.603C314.326 130.64 316.247 130.73 316.404 129.751L316.426 129.743Z" fill="#846DF2"/>
<path d="M316.763 124.825C316.852 124.825 316.942 124.84 317.032 124.848C317.129 124.855 317.458 124.9 317.024 124.848C316.591 124.795 316.957 124.84 317.054 124.855C317.129 124.87 317.211 124.885 317.286 124.9C317.615 124.967 317.944 125.05 318.265 125.154L317.817 125.012C318.586 125.266 319.311 125.618 319.984 126.066L319.678 125.857C319.805 125.946 319.932 126.036 320.059 126.133C320.455 126.432 320.881 126.522 321.374 126.559C322.032 126.604 322.794 126.514 323.422 126.328C323.923 126.171 324.551 125.984 324.91 125.58C325.097 125.371 325.366 124.975 325.037 124.728C324.259 124.145 323.422 123.644 322.51 123.308C321.412 122.904 320.283 122.658 319.11 122.576C318.444 122.531 317.704 122.628 317.062 122.807C316.606 122.934 315.903 123.181 315.574 123.555C315.365 123.794 315.156 124.123 315.447 124.407C315.776 124.728 316.329 124.803 316.763 124.833V124.825Z" fill="#846DF2"/>
<path d="M324.012 112.455C328.228 112.567 331.838 116.708 332.944 120.497C334.222 124.877 332.735 129.623 329.708 132.935C326.142 136.829 321.374 138.017 316.336 136.627C313.758 135.917 311.388 134.16 308.63 134.594C305.715 135.057 305.013 137.636 304.026 140.08C302.823 143.047 301.881 146.104 301.014 149.176C300.162 152.196 299.101 155.313 298.906 158.459C298.824 159.782 304.116 159.58 304.213 157.914C304.445 154.094 305.865 150.185 306.963 146.53C307.502 144.751 308.085 142.995 308.742 141.261C309.071 140.394 309.423 139.534 309.789 138.69C310.043 138.122 310.484 136.41 311.037 136.156L307.838 136.649C307.472 136.492 307.584 136.545 308.182 136.821C308.541 136.986 308.899 137.143 309.258 137.292C309.946 137.576 310.641 137.845 311.343 138.084C312.801 138.578 314.311 138.936 315.835 139.176C318.78 139.632 321.845 139.549 324.745 138.892C329.715 137.77 334.237 134.803 336.793 130.319C339.133 126.208 339.372 121.297 337.062 117.134C334.753 112.971 330.119 110.392 325.216 110.265C324.438 110.243 322.331 110.4 322.024 111.341C321.703 112.336 323.429 112.44 324.012 112.455Z" fill="#846DF2"/>
<path d="M195.418 51.2039C205.336 61.5856 219.433 66.84 233.581 67.7145C240.652 68.148 247.73 67.0493 254.479 64.949C261.281 62.8264 267.253 59.433 273.173 55.524C279.174 51.5627 284.974 46.8912 291.477 43.767L286.963 42.9972C284.944 49.3727 284.937 56.8993 287.643 63.0431C290.318 69.1047 296.021 72.3411 301.134 76.138C303.884 78.1785 306.65 80.2488 309.094 82.6556C310.798 84.3298 312.622 86.303 313.317 88.6424C313.982 90.8548 313.399 92.9177 312.151 94.8012C311.448 95.87 310.566 96.7969 309.512 97.5219C308.855 97.9703 307.726 98.3366 307.375 98.501C307.861 98.2768 307.793 98.785 307.644 98.4786C307.644 98.4711 307.278 98.1871 307.203 98.075C306.665 97.2752 307.023 96.2213 307.263 95.3842C307.614 94.1809 309.303 91.251 308.444 90.0028C307.337 88.4033 303.383 89.0685 301.919 89.7486C301.208 90.0775 300.67 90.5932 300.267 91.2584C299.318 92.8131 299.033 94.8984 299.033 96.6847C299.019 102.978 303.07 107.986 308.705 110.407C313.369 112.411 318.609 112.807 323.631 112.68C329.424 112.53 335.717 111.663 340.344 107.844C347.571 101.872 347.511 91.1687 344.014 83.2161C342.915 80.7122 341.383 78.4475 340.172 75.996C339.282 74.1872 339.021 72.7148 340.067 70.9509C342.033 67.6547 343.161 63.8503 343.752 60.0758C345.471 49.1036 341.868 37.9371 333.878 30.1788C326.457 22.9736 315.372 17.8164 305.028 21.4862C304.385 21.7105 303.72 21.9496 303.129 22.2935L307.606 22.4953C304.721 19.6625 301.425 17.1736 298.114 14.864C290.685 9.68439 282.463 5.47638 273.778 2.86039C262.559 -0.517971 251.041 -0.85431 239.606 1.58977C229.112 3.83205 218.932 7.5019 209.798 13.1898C197.967 20.5594 188.34 31.4868 183.212 44.507C181.456 48.9766 180.178 53.6629 179.954 58.4763C179.483 68.6488 182.45 78.9109 186.165 88.2837C187.271 91.079 188.467 93.8445 189.797 96.5427C189.872 96.6922 190.029 97.2079 190.178 97.2976C190.44 97.4621 190.313 96.9837 190.104 97.051C189.827 97.1332 189.431 97.9853 189.289 98.217C188.796 99.0018 188.37 99.8389 188.026 100.706C185.985 105.818 187.069 111.738 191.105 115.602C194.342 118.704 198.938 119.489 203.251 118.741C204.267 118.562 205.269 118.3 206.226 117.912C207.235 117.501 206.995 116.753 206.136 116.402C205.007 115.946 203.46 116.185 202.369 116.626C203.542 116.148 201.39 116.843 202.137 116.686C201.92 116.731 201.704 116.776 201.487 116.805C200.994 116.873 201.651 116.798 201.315 116.828C200.919 116.858 200.911 116.888 200.463 116.835C197.406 116.506 195.104 113.943 193.736 111.387C191.314 106.872 192.092 101.027 195.41 97.1481C195.522 96.9538 195.515 96.7595 195.373 96.5801C193.377 92.7832 191.741 88.7695 190.283 84.7484C187.398 76.7808 185.186 68.2826 185.245 59.7544C185.313 51.1665 188.556 42.8327 192.944 35.5603C199.633 24.461 209.701 15.8357 221.339 10.2375C229.56 6.2836 238.671 3.48823 247.738 2.38951C256.804 1.2908 265.138 2.76322 273.3 5.63334C283.846 9.34057 293.846 15.4097 302.098 22.9661C302.24 23.1007 302.382 23.2277 302.517 23.3698C303.488 24.3265 305.887 24.2293 306.994 23.5716C307.106 23.5043 307.225 23.437 307.345 23.3847C307.487 23.3249 307.629 23.2576 307.771 23.1904C308.361 22.9213 307.569 23.2427 308.062 23.0783C308.324 22.9886 308.593 22.9064 308.855 22.8316C308.989 22.7942 309.124 22.7569 309.258 22.727C308.81 22.8391 309.198 22.7419 309.288 22.727C310.379 22.5102 310.454 22.4953 311.515 22.4728C316.374 22.3832 321.68 25.2757 325.657 28.3401C334.566 35.2164 339.484 45.7327 338.811 56.974C338.572 60.9877 337.69 65.0163 335.986 68.6712C335.351 70.0315 334.222 71.3395 334.035 72.8568C333.811 74.6432 334.843 76.4594 335.665 77.9617C338.169 82.5061 340.538 86.8785 340.957 92.1479C341.263 96.0195 340.71 100.048 338.722 103.441C336.367 107.463 332.271 109.72 327.705 110.265C323.138 110.811 317.996 110.759 313.534 109.114C308.249 107.171 304.579 102.567 304.385 96.8791C304.325 95.1376 304.505 93.269 305.327 91.7293C305.461 91.4752 305.648 91.2659 305.79 91.0192C305.641 91.2734 305.872 90.9296 305.88 90.952C305.91 91.0043 305.088 91.2659 304.789 91.3108C305.984 91.1314 302.965 91.4378 303.354 90.8175C303.294 90.9146 303.294 91.4976 303.264 91.6396C302.987 92.8131 302.464 93.9492 302.12 95.1077C301.635 96.7445 301.231 98.4487 302.823 99.5997C304.505 100.825 307.061 100.773 309.012 100.437C313.481 99.667 317.876 96.2512 318.818 91.6471C319.737 87.1326 315.918 83.2311 312.868 80.4955C310.439 78.3205 307.831 76.3548 305.215 74.4115C302.434 72.356 299.317 70.4875 296.843 68.0658C290.7 62.0565 289.99 52.7286 291.769 44.7312C291.918 44.0585 291.993 43.7221 292.157 43.2288C292.71 41.4799 288.353 42.1227 287.643 42.459C276.663 47.7358 267.813 56.7647 256.52 61.4959C250.675 63.9475 244.15 65.6367 237.782 65.6516C231.451 65.674 225.038 64.4109 219.104 62.2508C212.108 59.7096 205.695 55.681 200.545 50.2995C199.783 49.4998 198.221 49.5745 197.227 49.7539C196.845 49.8212 194.708 50.4041 195.448 51.174L195.418 51.2039Z" fill="#846DF2"/>
<path d="M195.65 51.0766C198.669 51.5176 201.51 53.1395 204.298 54.313C207.086 55.4864 209.664 56.488 212.385 57.4821C217.901 59.4852 223.529 61.1818 229.247 62.5048C239.464 64.8591 253.359 67.5349 261.76 59.3207C263.217 57.9006 258.135 57.4447 257.111 58.4537C253.471 62.0114 248.732 62.9457 243.792 62.572C238.545 62.1759 233.275 60.9949 228.193 59.6421C223.103 58.2893 218.095 56.615 213.177 54.724C210.666 53.7599 208.177 52.7434 205.71 51.6745C203.244 50.6057 200.904 49.5145 198.251 49.1258C197.19 48.9689 195.478 48.8717 194.626 49.6715C193.774 50.4712 194.902 50.9794 195.65 51.0841V51.0766Z" fill="#846DF2"/>
<path d="M195.321 51.0841C194.492 59.6496 195.964 68.0432 197.534 76.4218C198.52 81.6987 198.812 87.11 198.498 92.4691C198.416 93.8668 198.296 95.2644 198.102 96.6547C197.885 98.2317 198.52 99.8611 198.857 101.401C201.585 113.943 204.963 126.342 208.969 138.533C210.913 144.445 212.975 150.342 215.27 156.135C217.325 161.314 219.702 166.479 223.193 170.859C226.9 175.516 232.065 179.2 237.932 180.516C240.884 181.181 243.926 181.278 246.909 180.77C248.187 180.553 249.786 179.843 251.079 179.955C252.634 180.09 253.336 181.854 253.598 183.154C253.912 184.709 259.181 183.924 258.897 182.519C257.597 176.128 250.75 177.93 246.124 178.737C240.981 179.626 235.533 176.734 231.788 173.438C227.498 169.663 224.523 164.603 222.221 159.438C219.755 153.9 217.751 148.137 215.786 142.412C211.615 130.274 208.08 117.919 205.195 105.414C204.858 103.964 204.537 102.522 204.216 101.064C203.917 99.7116 203.304 98.0822 203.296 96.6995C203.296 95.9371 203.52 95.1075 203.595 94.3451C204.059 89.726 204.021 85.0397 203.513 80.4206C203.117 76.7956 202.212 73.2826 201.592 69.695C201.039 66.4811 200.688 63.2298 200.523 59.971C200.359 56.8094 200.307 53.588 200.613 50.4264C200.733 49.1782 195.478 49.365 195.314 51.0617L195.321 51.0841Z" fill="#846DF2"/>
<path d="M250.129 179.432C247.319 180.62 245.234 182.698 244.591 185.755C244.001 188.573 244.472 191.735 245.339 194.448C247.798 202.146 255.003 206.661 262.529 208.395C271.364 210.428 280.019 209.583 288.614 206.885C296.044 204.553 303.324 200.935 308.526 195.008C310.835 192.377 312.981 189.35 312.779 185.71C312.562 181.824 310.962 179.223 306.926 178.498C306.313 178.386 304.632 178.251 304.781 179.268C304.931 180.284 307.046 180.732 307.749 180.852C304.923 180.344 306.351 179.925 306.598 180.546C306.702 180.807 306.889 181.054 307.001 181.315C307.225 181.854 307.36 182.437 307.465 183.012C307.674 184.171 307.778 185.411 307.539 186.57C306.964 189.343 304.968 191.764 303.092 193.783C298.682 198.529 292.935 201.653 286.888 203.813C275.422 207.894 256.625 210.592 250.884 196.443C248.844 191.421 248.418 184.178 254.285 181.689C255.361 181.233 254.352 180.374 253.747 180.03C252.85 179.507 251.161 178.991 250.129 179.432Z" fill="#846DF2"/>
<path d="M260.834 195.793C270.707 195.637 280.693 195.091 290.028 191.6C293.937 190.135 297.741 188.357 301.374 186.286C303.071 185.322 304.73 184.276 306.299 183.117C307.637 182.123 309.244 180.98 310.089 179.515C310.844 178.199 310.231 177.048 309.962 175.695C309.558 173.677 310.642 171.554 310.739 169.507C310.941 165.127 309.394 160.067 305.044 158.235C302.958 157.361 300.499 157.122 298.347 157.899C296.127 158.706 294.602 160.478 293.197 162.294C290.275 166.053 287.098 169.589 283.398 172.601C279.407 175.845 275.012 178.281 270.102 179.821C265.602 181.234 260.587 182.243 255.856 181.667C255.243 181.592 253.561 181.391 253.711 182.437C253.845 183.379 255.983 183.947 256.678 184.029C264.436 184.978 272.8 183.297 279.818 179.918C283.66 178.072 287.173 175.561 290.327 172.698C293.481 169.835 296.12 166.427 298.878 163.124C299.58 162.279 300.342 161.434 301.262 160.821C301.74 160.5 302.256 160.351 302.757 160.089C303.302 159.797 303.429 160.022 302.906 159.775C303.743 160.164 304.326 161.651 304.648 162.436C305.141 163.624 305.447 164.895 305.574 166.173C305.791 168.363 305.238 170.299 304.842 172.414C304.55 173.961 305.133 175.045 305.32 176.51C305.507 177.975 304.311 178.902 303.31 179.769C301.867 181.024 300.29 182.123 298.668 183.14C295.402 185.188 291.919 186.899 288.354 188.379C278.876 192.303 268.921 193.148 258.748 193.312C258.001 193.327 256.812 193.491 257.44 194.463C258.008 195.345 259.892 195.816 260.856 195.801L260.834 195.793Z" fill="#846DF2"/>
<path d="M247.476 199.695C245.608 202.916 243.964 206.34 242.984 209.95C242.095 213.216 241.415 217.491 243.111 220.638C244.733 223.635 249.599 223.284 251.916 221.415C254.779 219.106 256.902 215.593 258.404 212.289L253.217 211.519C253.045 215.167 252.768 218.852 252.865 222.506C252.94 225.384 253.448 229.525 256.483 230.78C257.97 231.401 259.929 231.498 261.416 230.833C262.806 230.212 263.583 228.875 264.376 227.649C266.394 224.524 268.203 221.273 269.847 217.94L264.66 217.17C264.54 220.107 265.116 223.06 266.446 225.683C267.777 228.306 269.735 229.644 272.732 229.652C279.205 229.652 280.528 221.744 280.401 216.654L275.161 216.452C276.312 219.831 278.151 223.359 280.812 225.81C283.211 228.022 287.785 228.628 290.169 226.072C292.501 223.568 292.584 219.42 292.292 216.228C291.948 212.536 290.551 209.15 289.011 205.809C288.368 204.411 283.196 204.501 283.839 205.899C286.081 210.757 287.86 215.869 286.791 221.303C286.544 222.574 286.111 223.844 285.251 224.846C285.087 225.063 284.893 225.25 284.676 225.421C285.924 225.735 286.193 225.653 285.498 225.167C285.274 224.652 284.541 224.113 284.183 223.643C282.493 221.445 281.23 218.986 280.333 216.363C279.93 215.182 275.056 214.748 275.094 216.161C275.146 218.231 274.952 220.287 274.414 222.29C274.174 223.194 273.876 224.098 273.487 224.958C273.3 225.362 273.106 225.765 272.852 226.139C272.642 226.445 272.112 226.812 272.007 227.103C271.618 227.327 271.708 227.425 272.276 227.38C272.904 227.596 272.956 227.469 272.433 226.998C272.306 226.692 272.059 226.401 271.895 226.109C271.439 225.287 271.058 224.412 270.751 223.523C270.109 221.632 269.899 219.666 269.981 217.678C270.041 216.221 265.347 215.772 264.794 216.908C263.688 219.165 262.507 221.378 261.222 223.538C260.609 224.577 259.973 225.601 259.323 226.617C259.032 227.073 258.023 229.084 257.342 229.151L259.398 229.233C259.921 229.338 258.994 227.731 258.927 227.559C258.636 226.804 258.456 226.019 258.351 225.22C258.172 223.941 258.165 222.641 258.187 221.348C258.232 218.239 258.396 215.129 258.538 212.028C258.606 210.578 253.874 210.107 253.351 211.258C252.163 213.874 250.646 216.31 248.762 218.478C248.388 218.904 248.007 219.345 247.596 219.741C247.342 220.01 247.058 220.242 246.751 220.451C245.705 220.952 246.258 221.056 248.411 220.78C248.441 220.481 247.955 219.741 247.85 219.382C247.611 218.553 247.506 217.686 247.462 216.826C247.2 211.183 249.793 205.525 252.559 200.756C253.366 199.359 248.246 198.409 247.491 199.717L247.476 199.695Z" fill="#846DF2"/>
<path d="M287.179 221.362C288.727 224.105 291.245 225.982 294.272 226.834C296.604 227.484 299.22 227.596 301.238 226.071C304.916 223.298 305.065 217.595 304.191 213.522C303.354 209.583 301.366 205.965 298.951 202.774C298.241 201.84 296.679 201.421 295.566 201.369C294.893 201.331 293.51 201.541 294.235 202.497C297.935 207.371 300.865 214.105 298.914 220.279C298.391 221.93 297.389 223.747 295.797 224.487C295.64 224.561 295.468 224.614 295.304 224.666C294.9 224.801 295.162 224.711 294.915 224.748C294.504 224.808 295.147 224.868 294.773 224.748C294.444 224.644 295.506 225.152 294.444 224.629C293.562 224.195 292.748 223.126 292.269 222.282C291.701 221.28 290.416 220.824 289.34 220.63C289.033 220.578 286.656 220.428 287.179 221.355V221.362Z" fill="#846DF2"/>
<path d="M308.811 187.594C315.582 191.272 322.167 195.293 328.52 199.65C329.843 200.562 331.749 201.399 331.144 203.328C330.613 205.009 329.35 206.631 328.468 208.141C326.36 211.766 324.252 215.391 322.152 219.016L326.024 218.127C323.415 217.828 320.814 217.536 318.206 217.237C317.159 217.118 315.687 217.065 314.79 217.731C314.087 218.254 314.177 218.822 315.089 219.113C314.431 218.904 314.895 218.986 315.089 219.27C315.261 219.524 315.478 219.749 315.665 219.995C316.098 220.571 316.494 221.176 316.89 221.774C317.772 223.097 318.654 224.211 319.85 225.295C320.612 225.982 321.816 226.67 322.429 227.485C322.631 227.746 322.698 227.731 322.638 227.44C322.436 227.679 322.234 227.911 322.033 228.15C321.629 228.628 321.233 229.106 320.844 229.6C319.222 231.633 317.712 233.755 316.307 235.945C315.567 237.096 320.605 237.537 321.48 236.185C322.496 234.607 323.557 233.068 324.678 231.565C325.658 230.257 327.167 228.949 327.9 227.514C328.012 227.32 328.005 227.126 327.863 226.946C327.07 225.751 325.374 224.831 324.342 223.83C323.58 223.09 322.959 222.32 322.376 221.445C321.465 220.085 320.448 217.903 318.766 217.364L315.65 219.24C318.258 219.539 320.859 219.831 323.468 220.13C324.469 220.242 326.704 220.339 327.339 219.24C329.559 215.421 331.772 211.609 333.991 207.79C334.881 206.258 336.234 204.568 336.555 202.782C336.839 201.16 335.823 200.211 334.612 199.336C327.885 194.463 320.657 190.173 313.363 186.212C312.316 185.644 310.806 185.703 309.693 186.062C309.125 186.249 307.749 186.996 308.833 187.579L308.811 187.594Z" fill="#846DF2"/>
<path d="M333.565 208.118C334.634 208.238 335.695 208.388 336.756 208.559C337.025 208.604 337.302 208.634 337.563 208.701L337.115 208.619C337.197 208.634 337.279 208.649 337.362 208.664C337.489 208.686 337.608 208.709 337.735 208.731C338.274 208.836 338.812 208.948 339.342 209.06C340.008 209.202 340.718 209.284 341.398 209.21C341.727 209.172 342.474 209.06 342.691 208.731C343.266 207.864 341.532 207.311 341.009 207.199C338.64 206.683 336.24 206.272 333.826 205.996C333.213 205.928 332.518 205.899 331.913 206.07C331.666 206.138 331.046 206.355 331.046 206.721C331.046 207.117 331.412 207.401 331.726 207.565C332.287 207.864 332.929 208.044 333.557 208.111L333.565 208.118Z" fill="#846DF2"/>
<path d="M340.83 206.713C337.72 209.703 335.082 213.149 333.004 216.931C332.137 218.508 330.426 220.892 332.302 222.364C333.363 223.194 334.723 223.478 336.001 223.799C337.279 224.121 338.453 224.367 339.694 224.607C340.934 224.846 342.19 225.055 343.446 225.234C344.701 225.414 346.338 225.78 347.564 225.197C348.483 224.756 348.805 223.635 349.208 222.768C349.769 221.557 350.329 220.346 350.89 219.135C351.914 216.923 352.938 214.718 353.954 212.506C354.38 211.579 354.799 210.645 354.508 209.606C354.194 208.507 353.17 207.692 352.213 207.169C349.933 205.921 347.123 205.734 344.567 205.884C342.9 205.981 340.404 206.145 339.671 207.954C339.17 209.187 344.245 210.697 344.866 209.157C345.015 208.791 345.329 208.634 345.673 208.5C345.89 208.417 345.912 208.417 346.234 208.358C346.376 208.335 346.525 208.313 346.667 208.298C347.026 208.253 346.667 208.29 346.869 208.275C347.407 208.245 347.953 208.253 348.491 208.268C348.566 208.268 349.223 208.305 349.216 208.313C349.216 208.35 348.924 208.171 348.909 208.238C348.909 208.268 349.32 208.888 349.35 208.993C349.447 209.367 349.365 209.74 349.253 210.107C348.992 210.951 348.528 211.758 348.162 212.558C347.362 214.292 346.555 216.026 345.755 217.768C345.367 218.612 344.978 219.449 344.589 220.294C344.201 221.139 343.879 222.08 343.401 222.865C343.371 222.91 343.206 223.201 343.177 223.157C343.087 223.007 344.589 223.299 343.543 223.037C343.109 222.932 342.623 222.917 342.182 222.85C341.345 222.731 340.643 222.611 339.836 222.454C338.939 222.282 338.042 222.088 337.152 221.878C336.704 221.774 336.263 221.647 335.822 221.55C334.805 221.318 336.771 221.677 336.644 221.953C336.696 221.834 336.644 221.55 336.674 221.4C336.988 219.913 338.034 218.388 338.797 217.087C340.673 213.896 343.042 210.988 345.71 208.425C346.473 207.692 344.657 206.878 344.193 206.728C343.349 206.452 341.6 205.973 340.83 206.713Z" fill="#846DF2"/>
<path d="M353.387 210.929C354.209 210.973 355.031 211.026 355.853 211.101C356.25 211.138 356.638 211.175 357.034 211.22C356.085 211.123 356.855 211.198 357.079 211.228C357.303 211.257 357.535 211.287 357.767 211.317C358.454 211.407 359.135 211.429 359.822 211.317C360.286 211.235 361.018 211.078 361.384 210.742C361.624 210.525 361.863 210.226 361.609 209.905C361.325 209.553 360.771 209.389 360.353 209.337C358.477 209.09 356.586 208.903 354.695 208.798C354.03 208.761 353.29 208.828 352.647 209.023C352.333 209.12 351.615 209.359 351.459 209.725C351.04 210.689 352.856 210.906 353.394 210.936L353.387 210.929Z" fill="#846DF2"/>
<path d="M243.701 188.782C239.202 191.114 234.912 193.835 230.913 196.952C229.164 198.319 226.899 199.762 225.995 201.877C224.956 204.284 224.702 207.303 224.223 209.867C223.708 212.633 223.267 215.413 223.035 218.216C222.915 219.614 222.848 221.011 222.841 222.416C222.841 223.298 222.654 224.457 223.17 225.212C223.782 226.109 225.412 226.37 226.428 226.43C227.721 226.512 228.581 225.989 229.717 225.466C232.228 224.3 234.837 223.478 237.55 222.947C236.1 222.431 234.65 221.908 233.207 221.392C232.565 223.799 231.242 225.81 229.881 227.865C229.171 228.941 226.593 232.043 227.363 233.359C227.931 234.315 229.44 234.614 230.457 234.682C230.831 234.704 233.065 234.644 232.527 233.725C232.198 233.164 233.559 231.363 233.835 230.907C234.441 229.928 235.091 228.979 235.719 228.015C236.87 226.236 237.909 224.405 238.454 222.349C238.843 220.899 234.859 220.645 234.112 220.794C232.281 221.153 230.487 221.632 228.723 222.237C226.959 222.842 225.427 223.709 223.745 224.36L226.107 224.255L225.838 224.203L228.23 225.436C227.908 224.92 228.095 223.694 228.095 223.059C228.102 222.088 228.14 221.116 228.207 220.152C228.334 218.208 228.573 216.28 228.865 214.359C229.156 212.438 229.523 210.51 229.904 208.596C230.255 206.862 230.464 204.979 231.062 203.312C231.623 201.75 233.013 200.763 234.254 199.739C235.629 198.611 237.042 197.527 238.484 196.488C241.519 194.313 244.725 192.392 248.036 190.673C249.075 190.135 247.977 189.358 247.356 189.066C246.407 188.618 244.703 188.266 243.694 188.79L243.701 188.782Z" fill="#846DF2"/>
<path d="M213.984 208.895C214.246 208.843 214.5 208.798 214.762 208.761C214.747 208.761 215.524 208.671 215.165 208.701C215.427 208.678 215.688 208.663 215.957 208.656C215.98 208.656 216.817 208.641 216.301 208.641C216.563 208.641 216.832 208.663 217.094 208.678C217.198 208.678 217.938 208.768 217.437 208.701C217.961 208.768 218.476 208.873 218.992 208.985L217.109 207.819C215.711 212.445 214.313 217.072 212.915 221.698L215.651 220.817L212.168 220.503L210.501 220.353L209.664 220.278C209.47 220.263 208.491 220.069 209.32 220.248L210.479 220.607C210.726 220.959 210.823 220.973 210.778 220.652L210.808 220.443C210.845 220.129 210.92 219.822 210.98 219.516C211.077 218.985 211.181 218.455 211.294 217.931C211.518 216.833 211.764 215.734 212.019 214.643C212.273 213.552 212.534 212.55 212.818 211.511C212.96 210.988 213.102 210.472 213.252 209.956C213.327 209.687 213.386 209.403 213.491 209.149C213.521 209.052 213.566 208.962 213.626 208.88C213.917 208.566 213.768 208.589 213.17 208.947L211.114 208.91L211.294 208.932L210.135 208.574L210.307 208.648C211.436 209.142 212.886 209.306 214.066 208.91C214.388 208.805 214.874 208.611 214.896 208.215C214.919 207.819 214.455 207.535 214.171 207.408C212.654 206.743 210.158 206.406 208.812 207.654C208.11 208.305 207.953 209.471 207.698 210.36C207.093 212.52 206.555 214.703 206.091 216.9C205.867 217.946 205.613 219.008 205.471 220.077C205.247 221.818 207.295 222.192 208.625 222.341C210.905 222.588 213.199 222.76 215.487 222.962C216.264 223.029 217.938 223.029 218.222 222.08C219.62 217.453 221.018 212.827 222.415 208.2C222.625 207.497 220.868 207.116 220.532 207.034C217.557 206.361 214.41 206.309 211.413 206.877C210.77 206.997 209.447 207.505 210.359 208.267C211.271 209.03 212.915 209.104 213.977 208.903L213.984 208.895Z" fill="#846DF2"/>
<path d="M224.075 210.66C224.075 210.66 224.119 210.615 224.142 210.585L223.873 210.839C223.955 210.764 224.045 210.697 224.149 210.645L223.731 210.861C223.806 210.824 223.88 210.794 223.955 210.772L223.417 210.936C223.499 210.914 223.574 210.891 223.656 210.876L223.021 210.981C223.125 210.966 223.223 210.959 223.327 210.951L222.617 210.989C222.774 210.989 222.931 210.989 223.081 210.989L222.37 210.951C223.013 210.989 223.664 211.056 224.306 211.108C224.986 211.168 225.697 211.16 226.362 211.004C226.631 210.959 226.877 210.861 227.109 210.727C227.303 210.652 227.46 210.533 227.588 210.361L227.685 210.077C227.655 209.838 227.535 209.658 227.318 209.539C226.862 209.232 226.257 209.09 225.726 209.045C224.77 208.963 223.805 208.851 222.849 208.843C222.161 208.836 221.414 208.888 220.749 209.075C220.285 209.202 219.919 209.337 219.5 209.576C219.284 209.703 219.097 209.89 218.932 210.069C218.671 210.353 218.985 210.734 219.201 210.891C219.411 211.033 219.642 211.131 219.889 211.19C220.181 211.295 220.487 211.355 220.793 211.385C221.474 211.452 222.191 211.452 222.849 211.28C223.312 211.16 223.738 211.003 224.075 210.645V210.66Z" fill="#846DF2"/>
<path d="M208.042 208.806C203.005 208.35 197.586 210.533 195.059 215.084C193.654 217.618 193.198 220.645 192.503 223.433C191.711 226.595 190.53 229.906 190.724 233.195C190.822 234.876 196.069 235.302 195.994 234.032C195.822 231.162 196.756 228.351 197.444 225.593C198.116 222.895 198.602 220.025 199.611 217.424C201.054 213.732 205.067 210.697 209.119 211.056C209.739 211.108 211.428 211.041 211.166 210.054C210.905 209.068 208.76 208.866 208.042 208.806Z" fill="#846DF2"/>
<path d="M251.46 216.459C249.89 219.583 248.717 222.887 247.999 226.31C247.386 229.225 246.46 233.052 247.917 235.84C249.315 238.516 252.633 238.889 255.324 238.426C258.717 237.85 261.139 235.72 263.404 233.276C261.737 233.373 260.078 233.471 258.411 233.56C258.889 237.312 260.19 240.728 264.585 240.541C269.137 240.347 271.663 237.462 273.277 233.5L268.06 234.083C268.845 237.94 273.001 240.347 276.775 240.19C278.756 240.108 280.856 239.48 282.067 237.821C283.106 236.393 283.397 234.577 284.212 233.037C282.523 233.321 280.826 233.598 279.137 233.882C281.103 237.327 284.817 238.904 288.704 238.538C290.722 238.351 293.129 237.708 294.332 235.922C295.341 234.412 295.252 232.409 295.132 230.675C293.428 231.056 291.716 231.438 290.012 231.819C291.148 232.947 292.329 233.919 293.951 234.188C295.73 234.48 297.972 234.136 299.422 233.007C300.603 232.088 300.954 230.66 300.626 229.225C300.267 227.663 299.108 226.632 298.309 225.301C297.561 224.06 292.456 225.264 293.331 226.706C294.115 228.007 295.244 228.964 295.453 230.556C295.498 230.892 295.506 231.198 295.446 231.527C295.423 231.766 295.349 231.998 295.229 232.207L297.03 232.021C297.03 231.953 295.229 230.63 295.012 230.421C294.153 229.569 289.78 229.935 289.893 231.565C289.967 232.633 290.057 233.77 289.803 234.823C289.691 235.279 289.511 235.945 289.13 236.258C289.235 236.176 289.347 236.378 288.779 236.288C286.723 235.945 285.124 234.21 284.145 232.491C283.427 231.236 279.615 232.305 279.07 233.336C278.599 234.233 278.292 235.182 277.934 236.124C277.762 236.572 277.597 237.051 277.343 237.462C277.254 237.641 277.149 237.813 277.029 237.97C276.469 238.471 276.745 238.426 277.851 237.836C277.829 237.746 276.768 237.417 276.573 237.312C275.99 237.013 275.46 236.647 274.981 236.199C274.099 235.362 273.591 234.39 273.352 233.209C273.038 231.662 268.591 232.678 268.135 233.792C267.731 234.786 267.313 235.795 266.737 236.699C266.423 237.185 265.99 237.551 265.668 238.015C265.078 238.344 265.085 238.448 265.706 238.321C266.341 238.366 266.334 238.269 265.683 238.037C264.383 236.348 263.972 234.808 263.703 232.686C263.501 231.109 259.33 232.305 258.71 232.97C257.925 233.814 257.14 234.681 256.251 235.421C255.862 235.743 255.272 236.311 254.749 236.385C255.287 236.303 254.876 236.363 254.606 236.176C252.656 234.823 252.379 232.865 252.536 230.578C252.873 225.578 254.412 220.63 256.654 216.168C257.275 214.934 252.207 215.017 251.49 216.452L251.46 216.459Z" fill="#846DF2"/>
<path fill-rule="evenodd" clip-rule="evenodd" d="M199.978 117.927C204.754 118.001 206.413 116.327 203.827 108.105C201.241 99.8912 201.054 84.3597 200.135 75.5251C199.208 66.6905 197.392 51.6523 199.342 51.5178C201.293 51.3833 224.874 62.1163 235.189 62.49C245.503 62.8637 253.531 68.746 275.154 51.5178C284.422 44.1332 288.869 42.2871 289.549 44.1332C290.222 45.9794 283.988 58.6707 294.295 68.5516C304.602 78.4326 320.365 82.3342 315.059 94.4275C313.399 98.2095 310.925 98.6654 309.304 99.211C305.746 100.414 303.548 97.2902 303.548 97.2902C303.548 97.2902 302.27 109.742 317.944 111.364C333.617 112.986 344.836 106.655 344.567 94.3902C344.306 82.1249 334.993 75.9138 337.242 71.2274C339.492 66.541 345.038 48.3113 336.562 37.0551C328.079 25.8064 319.573 18.519 306.747 22.2262C306.747 22.2262 293.129 11.3586 283.831 7.73361C274.533 4.10859 255.803 -6.64687 217.617 9.84134C179.431 26.3296 182.652 65.3751 183.975 72.4308C185.298 79.4865 186.95 86.4749 191.367 97.6265C191.367 97.6265 186.217 106.095 191.629 112.642C197.04 119.19 199.985 117.927 199.985 117.927H199.978Z" fill="#846DF2"/>
<path d="M20.6617 22.9059C20.9383 21.1345 20.9682 19.1539 19.7126 17.7263C18.4569 16.2987 16.394 15.7232 14.5777 15.6335C10.2427 15.4093 7.68642 18.7503 5.63847 22.1212C3.38125 25.8359 1.63977 29.9093 1.08668 34.2519C0.570953 38.273 1.21371 42.8846 5.26476 44.8205C7.43977 45.8594 10.0109 45.9939 12.2756 45.1867C14.6001 44.3571 16.3341 42.4885 17.956 40.7096C18.7109 39.88 15.0561 38.6467 14.2638 39.5212C12.9259 40.9937 11.5282 42.5931 9.68955 43.4527C8.9795 43.7815 8.10503 44.1627 7.37255 43.789C6.64007 43.4153 6.07195 42.5184 5.70572 41.8083C3.91189 38.2954 4.98821 33.5343 6.19156 29.999C7.43229 26.3441 9.34574 22.5472 11.9318 19.6546C12.6568 18.84 14.4431 16.9863 15.7212 17.4124C17.1563 17.8907 16.9321 20.8954 16.7452 22.1361C16.5658 23.2871 20.4973 24.0271 20.6617 22.9358V22.9059Z" fill="#846DF2"/>
<path d="M162.711 23.2053C162.958 21.3816 163.002 19.3187 161.717 17.8462C160.536 16.5009 158.525 15.9328 156.791 15.9179C152.755 15.8805 150.7 19.4981 149.033 22.6597C147.052 26.4192 145.625 30.5151 145.184 34.7605C144.795 38.4901 145.169 43.1167 148.884 45.0824C150.819 46.1064 153.219 46.3082 155.267 45.5159C157.442 44.6714 158.944 42.7654 160.342 40.9865C161.074 40.0597 157.359 38.8938 156.649 39.7981C155.558 41.1734 154.437 42.6832 152.905 43.6025C152.217 44.0136 151.649 44.3724 151.014 43.9688C150.326 43.5278 149.87 42.4739 149.586 41.7415C148.271 38.2883 149.093 33.9981 150.064 30.5525C151.036 27.1069 152.606 23.4818 154.699 20.4847C155.633 19.1393 156.604 18.2274 158.129 17.6669C157.733 17.5099 157.658 17.5249 157.898 17.6893C158.069 17.8163 158.219 17.9808 158.331 18.1676C158.563 18.5189 158.712 18.9898 158.809 19.3934C159.034 20.3725 158.914 21.4115 158.779 22.3906C158.622 23.5566 162.554 24.2741 162.696 23.1903L162.711 23.2053Z" fill="#846DF2"/>
<path d="M25.0424 44.5072C26.9035 35.3288 28.772 26.1505 30.5808 16.9571L26.5895 16.7329C27.7182 22.4955 29.5344 28.1685 31.3282 33.7518C31.6421 34.7309 34.6692 34.7085 35.1775 33.9685C39.1014 28.3255 43.0478 22.6974 46.8522 16.9721L42.9432 16.5386C40.8504 25.6497 39.1388 34.843 37.1432 43.9766C36.9339 44.9482 40.8728 45.4191 41.1344 44.2008C43.13 35.0672 44.8491 25.8739 46.9345 16.7628C47.1811 15.694 43.5113 15.5968 43.0254 16.3293C39.221 22.0546 35.2746 27.6827 31.3506 33.3257L35.1999 33.5425C33.4435 28.1012 31.672 22.5778 30.5733 16.9571C30.3565 15.836 26.8138 15.552 26.5821 16.7329C24.7733 25.9262 22.9047 35.1046 21.0436 44.283C20.8418 45.2696 24.7883 45.7255 25.0349 44.5072H25.0424Z" fill="#846DF2"/>
<path d="M89.1637 45.1874C89.6495 41.8464 90.9052 38.625 92.0338 35.4559C93.1624 32.2868 94.2611 29.1701 95.883 26.2775C96.8995 24.4613 98.2075 22.8095 99.5305 21.21C100.143 20.4626 100.771 19.7301 101.429 19.02C101.676 18.7584 101.922 18.5043 102.184 18.2577C102.311 18.1306 102.744 17.9213 102.445 17.9961L99.0521 16.3966C98.8727 25.7842 97.3107 35.0598 96.6006 44.4101C96.5035 45.6882 100.315 46.6225 100.383 45.7106C101.093 36.3678 102.655 27.0848 102.834 17.6971C102.857 16.4713 100.36 15.8509 99.4408 16.0976C98.2075 16.4339 97.1013 18.2427 96.339 19.1471C94.9861 20.7541 93.6333 22.4208 92.5271 24.2146C90.7856 27.0549 89.6495 30.2389 88.5209 33.3631C87.2877 36.7789 85.8975 40.2693 85.3743 43.8719C85.1949 45.1127 89.0142 46.1441 89.1562 45.1725L89.1637 45.1874Z" fill="#846DF2"/>
<path d="M91.5111 35.3213C93.3573 35.3213 95.2034 35.3213 97.0496 35.3213C97.513 35.3213 98.0362 35.2839 98.4697 35.1046C98.6491 35.0298 99.09 34.8205 99.0601 34.544C99.0302 34.245 98.7312 34.0731 98.4846 33.9685C98.0436 33.7891 97.5504 33.7144 97.072 33.7144C95.2259 33.7144 93.3797 33.7144 91.5336 33.7144C91.0702 33.7144 90.5469 33.7517 90.1134 33.9311C89.934 34.0058 89.493 34.2151 89.5229 34.4917C89.5528 34.7906 89.8518 34.9626 90.0985 35.0672C90.5394 35.2466 91.0328 35.3213 91.5111 35.3213Z" fill="#846DF2"/>
<path d="M107.214 44.8127C107.954 41.7782 109.464 38.9081 110.607 36.0006C111.639 33.3771 112.64 30.7387 113.642 28.1003C114.554 25.6936 115.458 23.2869 116.4 20.8876C116.721 20.0804 117.035 19.2732 117.386 18.4809C117.498 18.2193 117.633 17.9652 117.745 17.7036C117.805 17.5616 118.149 17.1131 117.85 17.4046L114.113 17.1057C114.359 18.3015 114.187 19.6918 114.18 20.9026C114.157 23.4887 114.12 26.0673 114.098 28.6534C114.053 34.0423 113.896 39.4985 114.427 44.8651C114.546 46.0385 118.53 45.8292 118.425 44.7529C117.895 39.3864 118.044 33.9302 118.096 28.5413C118.119 25.9552 118.164 23.3766 118.179 20.7905C118.186 19.5797 118.358 18.1894 118.111 16.9936C117.88 15.8649 114.987 16.1041 114.374 16.6946C113.462 17.5765 113.081 19.191 112.625 20.3346C111.646 22.8085 110.712 25.2975 109.77 27.7789C108.731 30.5145 107.7 33.2501 106.623 35.9782C105.457 38.938 103.97 41.8305 103.215 44.9249C103.006 45.7919 106.907 46.0759 107.214 44.8127Z" fill="#846DF2"/>
<path d="M7.50031 57.9681C6.36423 63.4019 5.22818 68.8357 4.08462 74.2695C3.51657 76.9901 2.94851 79.7033 2.38047 82.4239C2.09644 83.7768 1.72272 85.1371 1.52839 86.4974C1.4088 87.3196 1.40879 88.0221 2.074 88.6051C2.7392 89.1881 3.77064 89.5095 4.6825 89.4796C5.07864 89.4647 6.33431 89.1806 5.61679 88.5678C4.89926 87.9549 5.76629 85.7649 5.91577 85.0399C6.16243 83.8739 6.40159 82.7079 6.64824 81.5494C7.17891 79.0231 7.7021 76.5043 8.23278 73.978C9.28665 68.9329 10.3481 63.8878 11.4019 58.8426C11.6336 57.729 7.72453 56.8694 7.49283 57.9756L7.50031 57.9681Z" fill="#846DF2"/>
<path d="M11.5735 59.1941C12.9487 58.3645 15.744 59.0147 16.5587 60.4498C17.4556 62.0268 16.484 64.4784 15.7441 65.9284C14.152 69.0526 11.2147 71.5565 7.73916 72.2591L10.4224 73.4774C12.3657 72.3413 14.2268 73.0588 15.4451 74.9125C16.6634 76.7661 16.8278 79.2924 15.7216 81.2581C13.3822 85.4063 8.32212 87.8803 3.68808 87.9625C3.2172 87.97 1.96905 88.1643 2.2456 88.8818C2.52214 89.5994 4.13658 89.562 4.67473 89.5545C8.18016 89.4947 11.6706 88.538 14.6528 86.662C17.2688 85.0102 20.1389 82.4017 20.4379 79.1429C21.0882 72.0872 12.1864 69.4861 7.00669 72.5207C6.43118 72.857 6.87962 73.298 7.27576 73.5073C7.96339 73.8586 8.94998 73.896 9.68993 73.7465C14.9144 72.6851 19.5111 68.8658 20.677 63.5142C21.3348 60.5245 19.6979 58.768 16.9399 57.9384C14.1744 57.1013 10.7288 56.6827 8.15019 58.2374C7.38034 58.7008 8.37443 59.224 8.81541 59.366C9.61515 59.6201 10.8111 59.6575 11.566 59.209L11.5735 59.1941Z" fill="#846DF2"/>
<path d="M37.6135 59.44C36.0588 65.0158 34.9003 70.7037 33.7492 76.3692C33.2559 78.7909 32.7776 81.22 32.3068 83.6492C32.1647 84.3891 32.0227 85.1216 31.8882 85.8615C31.8508 86.0484 31.6864 86.4894 31.7387 86.6837C32.1124 87.9319 35.9841 87.5731 35.7374 86.751C35.6851 86.5716 35.8421 86.1605 35.872 85.9886C36.0065 85.2636 36.141 84.5461 36.283 83.8211C36.7539 81.3545 37.2398 78.8955 37.7406 76.4365C38.8916 70.771 40.0575 65.0831 41.6047 59.5073C41.8439 58.6403 37.9498 58.1918 37.606 59.44H37.6135Z" fill="#846DF2"/>
<path d="M82.841 59.8368C81.2864 65.4126 80.1278 71.1005 78.9768 76.7659C78.4835 79.1876 78.0052 81.6168 77.5343 84.0459C77.3923 84.7858 77.2502 85.5183 77.1157 86.2583C77.0783 86.4451 76.9139 86.8861 76.9662 87.0804C77.34 88.3286 81.2116 87.9699 80.965 87.1477C80.9126 86.9683 81.0696 86.5572 81.0995 86.3853C81.2341 85.6603 81.3685 84.9428 81.5106 84.2178C81.9814 81.7513 82.4673 79.2922 82.9681 76.8332C84.1191 71.1677 85.2851 65.4798 86.8322 59.904C87.0714 59.037 83.1773 58.5886 82.8335 59.8368H82.841Z" fill="#846DF2"/>
<path d="M50.4398 60.3519C45.5815 64.0591 41.1044 68.2297 36.2462 71.937C35.6333 72.4078 36.3059 72.8115 36.7768 72.9609C37.6214 73.23 38.5781 73.1403 39.4003 72.8563C40.2225 72.5723 41.2464 72.0715 42.1134 72.3779C43.0253 72.6993 43.5111 73.6112 43.6158 74.5156C43.7877 76.0104 43.4887 77.6697 43.414 79.1646C43.3317 80.7491 43.2719 82.3486 43.3915 83.9331C43.4737 85.0393 43.6008 86.3772 44.3034 87.2891C45.0059 88.201 48.7879 87.6254 48.1526 86.8033C47.2034 85.5775 47.3305 83.5071 47.3305 82.0496C47.3305 80.0391 47.4799 78.036 47.592 76.0329C47.7191 73.7009 47.0689 71.9968 44.7519 71.1372C42.0387 70.1357 39.176 70.8681 36.5526 71.7651L39.7068 72.6844C44.565 68.9772 49.0421 64.8065 53.9004 61.0993C54.6029 60.5611 53.6462 60.1351 53.1678 60.0155C52.383 59.8212 51.1199 59.8287 50.4323 60.3444L50.4398 60.3519Z" fill="#846DF2"/>
<path d="M7.66506 102.732C5.69186 110.183 4.39126 117.822 3.09821 125.409C2.54512 128.645 2.01445 131.881 1.51367 135.125C1.36419 136.074 1.22221 137.024 1.0802 137.973C1.02788 138.339 0.833588 138.907 1.02792 139.258C1.78282 140.596 6.9325 140.11 6.1776 138.78C6.36446 139.116 6.26733 139.049 6.31218 138.743C6.34955 138.466 6.39442 138.189 6.43179 137.913C6.58128 136.926 6.73075 135.94 6.88771 134.946C7.40343 131.657 7.94161 128.368 8.50218 125.095C9.78027 117.643 11.0658 110.139 12.9941 102.821C13.308 101.64 8.09856 101.065 7.65758 102.732H7.66506Z" fill="#846DF2"/>
<path d="M35.8428 155.305C33.7799 162.727 32.3822 170.351 30.992 177.922C30.4016 181.151 29.826 184.38 29.2804 187.616C29.1234 188.565 28.959 189.507 28.8095 190.456C28.7497 190.823 28.5479 191.383 28.7497 191.742C29.4897 193.087 34.6395 192.616 33.8995 191.264C34.0864 191.607 33.9892 191.525 34.034 191.226C34.0788 190.95 34.1237 190.673 34.1686 190.397C34.3255 189.41 34.49 188.423 34.6619 187.437C35.215 184.156 35.798 180.874 36.3959 177.601C37.7637 170.164 39.1464 162.675 41.172 155.38C41.4933 154.221 36.2987 153.623 35.8353 155.29L35.8428 155.305Z" fill="#846DF2"/>
<path d="M58.6992 102.089C56.726 109.54 55.4255 117.179 54.1325 124.765C53.5794 128.002 53.0487 131.238 52.5479 134.482C52.3984 135.431 52.2565 136.38 52.1144 137.33C52.0621 137.696 51.8677 138.264 52.0621 138.615C52.817 139.953 57.9668 139.467 57.2119 138.137C57.3987 138.473 57.3016 138.406 57.3464 138.1C57.3838 137.823 57.4286 137.546 57.466 137.27C57.6154 136.283 57.765 135.297 57.922 134.303C58.4377 131.014 58.9758 127.725 59.5363 124.452C60.8144 117 62.1 109.496 64.0284 102.178C64.3423 100.997 59.1327 100.422 58.6917 102.089H58.6992Z" fill="#846DF2"/>
<path d="M77.0254 101.857C75.0522 109.309 73.7517 116.948 72.4586 124.534C71.9055 127.77 71.3749 131.007 70.8741 134.25C70.7246 135.2 70.5826 136.149 70.4406 137.098C70.3883 137.464 70.1939 138.032 70.3882 138.384C71.1431 139.722 76.2929 139.236 75.538 137.905C75.7249 138.242 75.6278 138.174 75.6726 137.868C75.71 137.591 75.7548 137.315 75.7921 137.038C75.9416 136.052 76.0911 135.065 76.248 134.071C76.7638 130.782 77.3019 127.494 77.8625 124.22C79.1406 116.768 80.4262 109.264 82.3545 101.947C82.6685 100.766 77.4589 100.19 77.0179 101.857H77.0254Z" fill="#846DF2"/>
<path d="M56.7257 60.3448C56.068 62.0938 55.4999 63.8727 55.0365 65.674C54.6254 67.2585 54.1994 68.9103 54.0574 70.5472C54.0051 71.175 53.9976 71.8178 54.2592 72.4008C54.5956 73.1408 55.2458 73.649 55.9335 74.0526C57.4881 74.9719 59.5585 75.6297 61.3673 75.256C64.0505 74.7029 65.7248 72.4232 66.8683 70.1212C68.2436 67.3632 69.2525 64.4183 70.269 61.5183C70.6428 60.442 66.8833 59.0817 66.5096 60.1505C65.65 62.6095 64.7755 65.076 63.7142 67.4603C63.3704 68.2302 63.0041 68.9925 62.5931 69.7325C62.4361 70.009 62.2716 70.2856 62.0922 70.5547C62.0026 70.6892 61.9129 70.8237 61.8232 70.9508C61.7783 71.0181 61.5765 71.2722 61.6363 71.1975C61.0459 71.9299 60.3134 72.5129 59.4688 72.924C59.3641 72.9763 59.2595 73.0212 59.1473 73.0735C59.3641 72.9763 59.1773 73.0585 59.0726 73.1034C58.7662 73.223 58.3252 73.3201 58.1757 73.3201C57.817 73.3052 57.9964 73.2902 58.0935 73.3052C57.6227 73.223 58.1682 73.4098 57.9664 73.2603C57.7497 73.0959 58.1159 73.3351 58.1533 73.3575C57.8693 73.208 58.0412 73.2678 58.0935 73.3351C57.7796 72.9838 57.7722 72.3859 57.817 71.915C57.959 70.2781 58.3925 68.6263 58.7961 67.0418C59.2595 65.233 59.8275 63.4541 60.4853 61.7126C60.8814 60.6662 57.1293 59.2685 56.7257 60.3448Z" fill="#846DF2"/>
<path d="M51.8974 82.4235C52.3982 84.1276 52.9363 85.8916 54.4387 86.9903C55.8289 88.0068 57.7498 88.2609 59.4091 87.9395C63.0116 87.2369 64.7008 82.857 65.68 79.7627C66.6591 76.6683 67.2943 73.133 68.1389 69.8443C68.9088 66.8546 69.7235 63.8724 70.3887 60.8603C70.598 59.9335 66.6665 59.5747 66.39 60.8229C65.366 65.4046 64.0206 69.9116 62.9817 74.4933C62.2866 77.5353 61.6588 80.5998 60.134 83.3653C59.7902 83.9782 59.424 84.591 59.0054 85.1591C58.7887 85.4506 58.5645 85.7346 58.2954 85.9813C57.7797 86.4671 57.7124 86.2354 58.2879 86.4671C56.8454 85.8916 56.2848 83.7838 55.9036 82.4758C55.5224 81.1678 51.6582 81.5939 51.9049 82.4384L51.8974 82.4235Z" fill="#846DF2"/>
<path d="M91.4138 59.6346C90.7711 61.3911 90.2105 63.17 89.7546 64.9862C89.3285 66.653 88.8876 68.3945 88.7456 70.1135C88.6932 70.7563 88.6783 71.4141 88.9474 72.012C89.2837 72.7594 89.934 73.2752 90.6216 73.6937C92.1613 74.6205 94.1718 75.2484 95.9731 74.927C98.7012 74.4411 100.42 71.9896 101.541 69.6875C102.932 66.8398 103.941 63.7978 104.965 60.8081C105.331 59.7243 101.564 58.379 101.205 59.4403C100.338 61.9815 99.4636 64.5303 98.3948 66.9893C97.8342 68.2823 97.0868 69.8445 96.302 70.8311C95.719 71.571 94.9866 72.154 94.142 72.5726C94.0448 72.6174 93.9476 72.6623 93.8505 72.7071C93.6785 72.7893 93.8803 72.6922 93.9102 72.6847C93.8504 72.7071 93.7981 72.737 93.7383 72.7594C93.4244 72.879 93.0433 72.9762 92.8714 72.9687C92.3556 72.9388 92.8564 72.9239 92.8564 72.9762L92.9237 72.9986C92.6994 72.9164 92.6844 72.9164 92.8862 72.9986C92.7442 72.9986 92.6471 72.9313 92.834 72.9836C92.6247 72.9239 92.6695 72.8267 92.7816 72.9612C92.4826 72.5875 92.4603 71.9672 92.4977 71.4739C92.6322 69.7996 93.0731 68.0955 93.4767 66.4736C93.9401 64.62 94.5082 62.7888 95.1659 60.9949C95.5546 59.9336 91.8025 58.5583 91.4064 59.6272L91.4138 59.6346Z" fill="#846DF2"/>
<path d="M86.5858 82.289C87.0791 84.0155 87.6098 85.8392 89.1271 86.9678C90.5098 87.9993 92.4306 88.2609 94.0974 87.932C97.7448 87.2145 99.4116 82.6776 100.368 79.5534C101.385 76.2199 101.983 72.7443 102.827 69.366C103.597 66.2941 104.412 63.2296 105.077 60.1353C105.279 59.201 101.347 58.8497 101.078 60.0979C100.054 64.8067 98.709 69.4332 97.6701 74.1346C96.975 77.2588 96.3547 80.4055 94.8224 83.2532C94.4786 83.8885 94.1124 84.5088 93.6938 85.0918C93.4771 85.3908 93.2528 85.6823 92.9837 85.9364C92.468 86.4297 92.3932 86.2055 92.9762 86.4447C91.5188 85.8542 90.9657 83.6493 90.592 82.3263C90.2332 81.0781 86.3466 81.4369 86.5933 82.289H86.5858Z" fill="#846DF2"/>
<path d="M73.2814 60.6211C72.5415 63.1997 71.7791 65.7708 71.0616 68.3495C70.501 70.3675 70.06 72.834 71.6894 74.5082C73.5654 76.4291 77.0185 76.0778 79.2683 75.0837C81.518 74.0897 82.9979 72.0492 84.2985 70.0237C84.732 69.351 83.1774 69.1417 82.8485 69.1268C82.1534 69.0894 80.8678 69.1492 80.4268 69.8293C79.4627 71.3317 78.4312 72.991 76.8392 73.8953C76.6598 73.9925 76.2786 74.1719 76.1739 74.2093C75.7105 74.3662 75.9946 74.2018 76.0843 74.2317C76.0469 74.2167 75.9423 74.1719 75.9198 74.1495C75.7106 73.9327 75.449 73.8057 75.2546 73.5515C75.0154 73.2376 74.8286 72.8863 74.709 72.5126C74.1335 70.6814 74.881 68.7082 75.3892 66.9517L77.1531 60.8079C77.3699 60.068 76.2113 59.9334 75.7031 59.911C75.1948 59.8886 73.4832 59.9185 73.2814 60.6136V60.6211Z" fill="#846DF2"/>
<path d="M25.0498 101.946C18.6294 107.492 12.2091 113.038 5.78121 118.584C4.89925 119.346 6.1325 119.862 6.81266 119.989C7.85158 120.184 9.57064 120.169 10.4377 119.421C16.858 113.875 23.2785 108.329 29.7063 102.783C30.5883 102.021 29.355 101.505 28.6749 101.378C27.6359 101.184 25.9168 101.199 25.0498 101.946Z" fill="#846DF2"/>
<path d="M6.2965 119.541C9.59264 121.358 11.82 124.534 13.2849 127.935C14.9591 131.822 15.9607 136.052 16.6633 140.208C16.9324 141.777 22.2167 141.194 21.9775 139.782C20.6545 131.964 18.3151 122.24 10.796 118.099C9.74962 117.523 8.22485 117.651 7.12613 118.009C6.53566 118.204 5.22767 118.958 6.28902 119.541H6.2965Z" fill="#846DF2"/>
<path d="M33.3457 106.065C29.489 112.261 27.3214 119.369 27.0673 126.664C26.9552 129.833 26.7608 134.266 28.5472 137.061C30.0121 139.341 33.3531 139.939 35.857 139.759C41.9859 139.326 45.2222 133.421 47.6962 128.473C50.9699 121.918 53.115 114.033 50.7681 106.835C49.49 102.919 45.4315 101.483 41.5524 101.954C37.3444 102.463 34.6162 105.662 32.1647 108.816C31.208 110.049 36.1784 111.514 37.1201 110.296C38.8242 108.106 40.6853 105.527 43.3686 104.488C44.557 104.032 44.6542 104.137 45.2671 105.527C45.88 106.917 46.2163 108.577 46.3957 110.116C47.0684 115.677 45.2596 121.529 42.9276 126.522C41.7392 129.071 40.2743 131.493 38.5627 133.727C37.3743 135.282 36.298 136.665 34.3771 137.263C34.0931 137.352 33.5997 137.33 33.3605 137.472C32.8523 137.764 34.0856 137.308 33.9361 137.636C33.9137 137.689 33.2709 136.538 33.2635 136.515C32.9869 135.835 32.815 135.118 32.673 134.4C32.1273 131.552 32.1946 128.495 32.4337 125.618C32.9644 119.242 34.9227 112.979 38.3086 107.545C39.1905 106.125 34.123 104.817 33.3531 106.065H33.3457Z" fill="#846DF2"/>
<path d="M59.2523 120.057C61.7562 119.646 64.1629 119.279 66.3678 119.235C68.5727 119.19 70.7104 119.406 72.8555 120.288C73.9916 120.752 75.3892 120.64 76.5253 120.206C77.041 120.012 78.4387 119.108 77.2877 118.637C71.4428 116.245 65.0449 116.94 58.9758 117.942C58.3255 118.046 56.3822 118.345 56.4644 119.339C56.5467 120.274 58.7366 120.146 59.2448 120.064L59.2523 120.057Z" fill="#846DF2"/>
<path d="M116.729 136.141C116.325 135.67 115.585 135.431 115.017 135.274C114.262 135.065 113.433 134.975 112.656 135.05C111.826 135.132 110.996 135.409 110.57 136.164C110.294 136.642 110.077 137.158 110.309 137.711C110.466 138.085 110.832 138.369 111.161 138.571C111.796 138.959 112.596 139.161 113.321 139.258C115.017 139.49 116.826 139.116 117.992 137.778C118.157 137.584 118.388 137.315 118.433 137.061C118.508 136.68 118.231 136.313 117.962 136.089C117.133 135.379 115.989 135.028 114.928 134.886C113.769 134.736 112.386 134.729 111.4 135.431C110.906 135.775 110.525 136.306 110.525 136.934C110.525 137.524 111.235 137.868 111.699 138.032C113.022 138.518 114.801 138.787 116.124 138.107C116.647 137.838 116.991 137.382 117.454 137.046L117.155 137.263C117.215 137.225 117.275 137.188 117.334 137.158C116.781 137.375 116.198 137.419 115.585 137.285L114.277 136.949C114.599 137.061 114.427 136.949 113.747 136.62C113.799 136.665 113.851 136.709 113.896 136.762L113.665 136.47C113.814 136.657 113.896 136.859 113.949 137.091L113.896 136.799C114.076 137.838 113.829 138.944 113.373 139.879L113.508 139.609C113.067 140.476 112.439 141.194 111.654 141.762L111.953 141.545C111.602 141.792 111.228 142.009 110.832 142.188C110.742 142.225 110.652 142.263 110.555 142.3C110.286 142.405 110.451 142.293 110.608 142.285C110.391 142.285 110.122 142.42 109.912 142.465C109.621 142.524 109.083 142.734 109.031 143.1C108.978 143.466 109.434 143.81 109.696 143.959C110.779 144.565 112.215 144.759 113.425 144.498C115.989 143.952 118.291 142.255 119.016 139.662C119.173 139.101 119.248 138.503 119.21 137.913C119.158 137.083 118.859 136.5 118.172 136.007C117.484 135.514 116.609 135.259 115.78 135.147C115.017 135.043 114.203 135.035 113.455 135.237C112.655 135.446 112.229 135.999 111.609 136.47L111.908 136.253C111.116 136.777 111.445 135.925 113.41 136.291L114.718 136.627L114.614 136.59L115.787 137.689C115.787 137.479 115.832 137.292 115.914 137.106L115.78 137.375C115.899 137.15 116.041 136.979 116.243 136.829L115.944 137.046C116.034 136.993 116.146 136.956 116.221 136.896C115.982 137.061 115.466 137.061 115.212 137.053C114.629 137.023 113.911 136.934 113.403 136.62L113.201 136.463C113.261 136.508 113.306 136.552 113.358 136.605L113.126 136.313C113.171 136.366 113.201 136.425 113.209 136.493L113.156 136.201C113.156 136.268 113.141 136.336 113.104 136.388L113.239 136.119C113.007 136.478 112.708 136.769 112.371 137.023L112.67 136.807C112.491 136.934 112.312 137.046 112.11 137.143C112.005 137.195 111.721 137.292 112.192 137.128C110.914 137.569 116.258 138.72 115.324 137.748L115.556 138.04C115.496 137.958 115.466 137.89 115.436 137.793L115.488 138.085C115.443 137.816 115.511 137.569 115.623 137.322L115.488 137.591C115.623 137.33 115.78 137.091 116.019 136.911L115.72 137.128C116.557 136.68 115.75 136.672 113.298 137.106L112.17 136.665C111.923 136.448 111.863 136.41 111.99 136.545C112.304 136.911 113.067 137.143 113.5 137.255C114.128 137.419 114.898 137.517 115.548 137.442C115.944 137.397 116.602 137.345 116.856 136.986C117.088 136.657 116.953 136.418 116.706 136.134L116.729 136.141Z" fill="#846DF2"/>
<path d="M5.18372 191.906C10.8343 179.604 14.9974 165.971 23.3835 155.148L19.4372 155.611C19.7586 155.694 20.2294 155.806 20.4685 156.03C20.9394 156.456 20.7601 156.889 20.7302 157.547C20.6555 159.012 20.5807 160.47 20.5059 161.935C20.334 165.238 20.1622 168.542 19.9828 171.845C19.624 178.363 19.2279 184.881 18.6897 191.391C18.5702 192.856 23.8917 193.184 24.0188 191.63C24.6242 184.327 25.0503 177.018 25.4389 169.708C25.6258 166.187 25.8052 162.66 25.992 159.139C26.0518 157.966 26.5078 156.426 25.5885 155.529C24.7439 154.7 23.3312 154.199 22.2101 153.9C21.2235 153.638 19.0335 153.369 18.2637 154.363C9.87755 165.178 5.71441 178.819 0.0638691 191.122C-0.631237 192.631 4.56335 193.259 5.17624 191.921L5.18372 191.906Z" fill="#846DF2"/>
<path d="M37.4192 175.919C37.6509 175.852 37.8826 175.785 38.1143 175.732C38.2414 175.702 38.3685 175.658 38.4955 175.643L38.1591 175.717C38.2339 175.702 38.3012 175.688 38.3759 175.673C38.8318 175.583 39.2878 175.516 39.7512 175.463C39.8633 175.448 39.9754 175.441 40.0801 175.433C40.2744 175.418 40.1547 175.433 39.7137 175.463C39.7885 175.463 39.8633 175.456 39.938 175.448C40.1622 175.433 40.379 175.426 40.6032 175.426C40.8275 175.426 41.0442 175.426 41.2685 175.426C40.2146 175.426 41.1862 175.426 41.4478 175.448C42.0607 175.493 42.7633 175.493 43.3538 175.306C43.6004 175.232 44.2058 174.992 44.1983 174.626C44.1908 174.23 43.8097 173.961 43.4883 173.804C42.9128 173.527 42.27 173.378 41.6347 173.326C38.9963 173.116 36.3354 173.341 33.7942 174.081C33.5102 174.163 32.9795 174.387 32.9496 174.761C32.9197 175.134 33.3905 175.448 33.6596 175.583C34.7583 176.121 36.2383 176.263 37.4192 175.919Z" fill="#846DF2"/>
<path d="M47.2033 158.564C44.2211 163.811 42.7038 170.313 41.6275 176.195C41.0445 179.394 40.5886 182.743 40.91 185.994C41.1343 188.281 41.8219 190.748 44.0492 191.832C46.9043 193.229 50.7984 192.736 53.4892 191.174C56.15 189.627 58.0185 186.891 59.4312 184.23C62.6376 178.199 64.5137 171.188 65.3733 164.431C65.6274 162.458 65.7918 160.425 65.2312 158.489C64.4389 155.753 62.0846 154.273 59.3864 153.758C53.9376 152.719 48.4366 155.731 46.1196 160.784C45.4319 162.286 50.6265 162.884 51.2394 161.538C52.0466 159.782 53.392 158.22 54.9018 157.024C56.2322 155.963 57.3459 155.133 58.7212 156.426C61.0681 158.616 60.2908 162.727 59.8498 165.575C58.9454 171.427 57.3608 177.369 54.715 182.683C53.549 185.023 52.1065 187.482 50.051 189.148C49.199 189.843 48.3469 190.195 47.465 190.471C47.7266 190.389 47.8685 190.539 47.5172 190.449C47.6219 190.479 48.1302 190.628 48.2049 190.606C48.1227 190.636 47.8461 190.434 47.6443 190.225C46.3065 188.812 46.1943 186.428 46.1644 184.611C46.1046 181.734 46.5082 178.849 47.0389 176.024C48.0853 170.448 49.4979 164.296 52.3381 159.311C53.108 157.951 47.9806 157.218 47.2183 158.556L47.2033 158.564Z" fill="#846DF2"/>
<path d="M65.7992 189.694C73.0268 189.694 80.2469 190.038 87.467 190.046C88.065 190.046 89.799 189.889 89.4477 188.917C89.0964 187.945 86.9887 187.863 86.2487 187.863C79.0211 187.863 71.801 187.519 64.5808 187.512C63.9829 187.512 62.2489 187.669 62.6002 188.641C62.9515 189.612 65.0592 189.694 65.7992 189.694Z" fill="#846DF2"/>
<path d="M64.0655 187.878C63.6768 187.878 62.5706 187.96 62.5557 188.596C62.5557 188.805 62.593 189.014 62.6304 189.223C62.7051 189.657 62.8173 190.09 62.9369 190.524C63.0789 191.055 63.2433 191.578 63.4302 192.094C63.5797 192.512 63.7441 192.938 63.9908 193.312C64.2598 193.73 64.6036 193.977 65.052 194.194C65.6425 194.478 66.3825 194.68 67.0402 194.732C67.5634 194.777 68.2211 194.829 68.6995 194.59C68.9461 194.463 69.3573 194.186 69.133 193.843C68.707 193.185 68.4753 192.378 68.251 191.63C68.0418 190.95 67.8325 190.24 67.7502 189.537L67.7876 189.836C67.7876 189.777 67.7652 189.694 67.7876 189.642L67.6382 189.896L67.3242 190.09C66.9879 190.15 66.6441 190.203 66.3078 190.262C66.6665 190.262 67.3616 190.195 67.6382 189.896C67.8923 189.62 67.7877 189.283 67.5485 189.037C67.1598 188.64 66.6067 188.386 66.091 188.222C65.4258 188.013 64.7531 187.908 64.058 187.893L64.0655 187.878Z" fill="#846DF2"/>
<path d="M84.2015 189.53C84.194 189.799 84.1567 190.053 84.0894 190.315L84.1641 190.023C83.8128 191.346 82.8487 192.407 82.0265 193.469C81.7873 193.775 82.1236 194.126 82.3553 194.268C82.7888 194.545 83.4915 194.635 83.9773 194.642C84.6574 194.657 85.375 194.612 86.0177 194.388C86.4662 194.231 86.8922 194.052 87.1912 193.663C88.2376 192.318 89.4484 190.942 89.5156 189.149C89.5306 188.775 88.9252 188.536 88.686 188.454C88.1105 188.259 87.3781 188.222 86.7801 188.274C86.1822 188.326 85.4796 188.416 84.919 188.723C84.5977 188.894 84.2089 189.111 84.194 189.53H84.2015Z" fill="#846DF2"/>
<path d="M73.7448 187.736C74.8286 179.993 75.7928 172.152 77.6165 164.536C78.3265 161.561 79.2534 157.936 81.2714 155.918C81.3536 155.836 81.4583 155.761 81.548 155.686C81.2191 155.933 81.8768 155.417 81.548 155.686C81.69 155.582 82.3627 155.103 81.7423 155.552C81.832 155.485 81.9739 155.492 82.0636 155.425C82.2804 155.268 81.8992 155.552 81.8843 155.477C81.8843 155.47 82.2056 155.395 82.2281 155.395C82.669 155.275 81.4658 155.582 82.1235 155.425C82.2431 155.395 82.3776 155.402 82.4972 155.38C82.9905 155.268 81.7946 155.417 82.3029 155.395C82.5719 155.387 82.8485 155.365 83.1175 155.358C83.8874 155.328 83.4239 155.133 83.1623 155.32C82.9605 155.462 83.125 155.126 83.2969 155.41C83.2296 155.305 83.5436 155.656 83.5959 155.709C84.7245 157.024 84.6796 159.311 84.6647 160.941C84.6497 163.841 84.2162 166.741 83.7304 169.596C82.6391 175.942 80.8977 182.153 79.7466 188.491C79.5448 189.582 84.717 189.485 85.0309 187.751C86.1371 181.674 87.7964 175.702 88.8876 169.618C89.4482 166.472 89.9565 163.265 89.9565 160.059C89.9565 158.183 89.8817 155.694 88.4542 154.266C86.2044 152.009 80.5763 153.138 78.0574 154.483C75.1425 156.038 73.9466 159.274 73.087 162.271C70.6355 170.762 69.6863 179.776 68.4755 188.498C68.3111 189.657 73.5206 189.485 73.7598 187.758L73.7448 187.736Z" fill="#846DF2"/>
<path d="M147.269 119.085C142.201 111.036 137.649 102.44 134.428 93.4711C131.475 85.2494 130.01 74.9648 135.609 67.4532C137.911 64.3738 141.439 61.8251 145.34 61.3916C148.734 61.0178 151.529 63.0433 153.637 65.5323C159.28 72.2217 158.704 81.3777 156.387 89.2929C153.42 99.4505 148.517 109.227 143.098 118.278C142.515 119.25 147.381 121.029 148.285 119.519C153.607 110.632 158.375 101.065 161.395 91.1241C164.048 82.4017 164.482 72.4236 158.054 65.1959C152.411 58.8578 142.724 56.907 135.392 61.4364C127.11 66.5488 125.526 77.1099 127.327 85.952C128.501 91.7445 130.915 97.2456 133.419 102.567C135.997 108.031 138.912 113.315 142.126 118.428C142.739 119.392 144.062 119.788 145.146 119.915C145.46 119.952 147.829 119.975 147.261 119.07L147.269 119.085Z" fill="#989DFF"/>
<path d="M151.402 84.8899C153.487 82.416 153.637 78.8433 152.441 75.9208C151.821 74.4036 150.909 73.1031 149.541 72.1912C147.672 70.9505 145.198 70.9879 143.098 71.4812C140.998 71.9745 139.062 73.0657 137.806 74.7848C136.924 75.9806 136.528 77.4531 136.416 78.9255C136.214 81.6536 137.164 84.9199 139.331 86.7212C142.926 89.7109 148.958 88.059 151.641 84.5985C151.88 84.292 151.469 83.9407 151.253 83.8286C150.797 83.5894 150.094 83.5521 149.601 83.582C148.495 83.6417 147.179 83.8809 146.469 84.8003C146.402 84.89 146.335 84.9871 146.26 85.0693C146.118 85.2338 146.193 85.0394 146.29 84.9946C146.23 85.0245 146.118 85.1516 146.073 85.1889C145.931 85.3085 145.789 85.4281 145.647 85.5477C145.624 85.5626 145.273 85.8168 145.52 85.6449C145.752 85.4879 145.445 85.6897 145.4 85.7196C145.236 85.8317 145.056 85.9214 144.885 86.0261C144.578 86.2054 145.393 85.8317 144.885 86.0261C144.825 86.0485 144.75 86.0784 144.683 86.1083C144.369 86.2577 144.997 86.0111 145.004 86.0111C144.922 86.026 144.84 86.056 144.765 86.0784C144.279 86.2204 145.363 85.9737 145.079 86.0186C144.586 86.0933 145.879 85.9812 145.273 86.0036C144.743 86.0261 145.767 86.0186 145.468 86.0036C144.967 85.9887 145.953 86.1382 145.542 86.0186C145.453 85.9961 144.967 85.8467 145.296 85.9737C145.624 86.1008 145.176 85.9214 145.109 85.8915C145.004 85.8467 144.899 85.7869 144.795 85.7345C144.683 85.6673 144.571 85.5851 144.451 85.5253C144.279 85.443 144.72 85.757 144.496 85.5552C144.444 85.5028 144.376 85.458 144.316 85.4132C143.883 85.0469 143.502 84.6209 143.18 84.1575C142.747 83.5371 142.642 83.3129 142.388 82.6851C141.91 81.5041 141.663 80.2186 141.648 78.9479C141.633 77.6773 141.783 76.7206 142.396 75.5023C142.53 75.2332 142.695 74.9716 142.866 74.7175C142.904 74.6652 142.949 74.6054 142.986 74.5531C142.956 74.5904 142.777 74.7848 142.949 74.6054C143.068 74.4858 143.173 74.3513 143.293 74.2317C143.405 74.1196 143.517 74.0224 143.636 73.9177C143.674 73.8804 143.853 73.7384 143.681 73.8729C143.464 74.0448 143.831 73.7757 143.838 73.7683C143.988 73.6711 144.145 73.5739 144.302 73.4917C144.346 73.4618 144.481 73.417 144.526 73.3721C144.204 73.5216 144.145 73.5515 144.354 73.4543L144.466 73.4095C144.541 73.3796 144.615 73.3497 144.69 73.3198C145.101 73.1479 144.159 73.4544 144.458 73.3946C144.526 73.3796 144.668 73.3049 144.728 73.3273C144.742 73.3273 143.973 73.4842 144.346 73.4095C144.929 73.2974 143.763 73.4469 144.16 73.4244C144.743 73.3871 143.554 73.3721 144.115 73.4244C144.421 73.4543 143.524 73.2974 144.085 73.4244C144.159 73.4394 144.242 73.4693 144.316 73.4842C144.578 73.544 144.115 73.4618 144.145 73.4244C144.189 73.3646 144.847 73.7608 144.922 73.8056C145.273 74.0074 144.787 73.6711 145.101 73.9252C145.206 74.0074 145.303 74.0897 145.408 74.1793C145.647 74.3961 145.871 74.6353 146.073 74.8819C146.26 75.1136 146.432 75.3603 146.596 75.6069C146.686 75.7415 146.761 75.8835 146.843 76.0255C146.858 76.0479 146.962 76.2497 146.903 76.1301C146.858 76.033 146.985 76.3095 147 76.3394C147.635 77.7222 147.949 79.2618 147.897 80.7866C147.882 81.1603 147.852 81.5265 147.792 81.8928C147.822 81.7059 147.792 81.8928 147.792 81.9227C147.77 82.0273 147.747 82.1394 147.717 82.2441C147.672 82.416 147.628 82.5954 147.568 82.7673C147.448 83.1186 147.306 83.4624 147.127 83.7912C147.045 83.9482 146.955 84.0977 146.858 84.2397C146.82 84.2995 146.776 84.3518 146.738 84.4116C146.529 84.7181 146.865 84.2696 146.678 84.4938C146.454 84.7554 146.275 85.0245 146.536 85.3459C146.798 85.6673 147.478 85.7719 147.844 85.7944C148.524 85.8392 149.235 85.7869 149.892 85.6C150.386 85.458 151.058 85.2861 151.395 84.8825L151.402 84.8899Z" fill="#989DFF"/>
<path d="M153.623 122C154.393 121.963 155.185 122.052 155.947 121.985C155.327 122.037 155.85 121.985 156.015 121.993C156.224 122.007 156.433 122.022 156.635 122.037C157.024 122.067 157.405 122.112 157.793 122.157C158.145 122.202 158.511 122.232 158.855 122.314C158.346 122.194 158.989 122.336 159.086 122.359C159.288 122.396 159.497 122.441 159.699 122.486C160.454 122.65 161.202 122.852 161.949 123.076C162.525 123.256 163.272 123.218 163.862 123.144C164.453 123.069 165.185 122.912 165.694 122.598C165.985 122.419 166.426 122.157 166.374 121.753C166.322 121.35 165.806 121.2 165.507 121.103C162.046 120.049 158.384 119.616 154.774 119.773C154.094 119.803 153.391 119.892 152.748 120.139C152.404 120.273 151.784 120.543 151.612 120.924C151.186 121.888 153.174 122.007 153.63 121.993L153.623 122Z" fill="#989DFF"/>
<path d="M172.061 127.307C172.682 127.561 173.294 127.837 173.9 128.136C174.199 128.286 174.498 128.443 174.797 128.6C174.946 128.682 175.088 128.764 175.238 128.846C175.313 128.891 175.387 128.929 175.455 128.973C175.507 129.003 175.821 129.19 175.582 129.048C175.357 128.914 175.604 129.063 175.649 129.093C175.724 129.138 175.791 129.183 175.866 129.228C176.008 129.317 176.15 129.407 176.292 129.497C176.576 129.676 176.852 129.87 177.129 130.057C177.697 130.453 178.25 130.872 178.788 131.313C179.199 131.649 179.849 131.806 180.35 131.896C180.993 132.008 181.763 132.038 182.406 131.911C182.794 131.829 183.452 131.724 183.669 131.35C183.856 131.021 183.744 130.752 183.452 130.513C181.187 128.667 178.631 127.15 175.933 126.029C175.335 125.782 174.715 125.64 174.072 125.602C173.489 125.565 172.734 125.588 172.173 125.804C171.882 125.916 171.329 126.118 171.351 126.514C171.374 126.91 171.762 127.18 172.084 127.314L172.061 127.307Z" fill="#989DFF"/>
<path d="M184.544 139.587C186.779 142.749 188.124 146.523 188.55 150.358C188.587 150.724 189.35 151.142 189.589 151.269C190.172 151.568 190.912 151.793 191.562 151.86C192.212 151.927 193.797 152.062 193.685 151.023C193.229 146.882 191.674 143.018 189.282 139.625C189.006 139.228 188.266 138.922 187.847 138.772C187.234 138.548 186.48 138.376 185.822 138.391C185.067 138.406 183.871 138.63 184.544 139.587Z" fill="#989DFF"/>
<path d="M186.666 160.066C186.487 161.001 186.225 161.912 185.881 162.802L185.993 162.525C185.477 163.833 184.805 165.066 183.968 166.195C183.549 166.756 183.101 167.294 182.607 167.795C182.361 168.049 182.107 168.28 181.852 168.52C181.651 168.706 181.912 168.482 181.681 168.669C181.524 168.796 181.367 168.923 181.21 169.043C180.933 169.252 180.709 169.491 180.903 169.85C181.098 170.209 181.748 170.455 182.099 170.545C182.757 170.725 183.467 170.814 184.147 170.754C184.663 170.71 185.343 170.672 185.761 170.343C188.983 167.854 191.225 164.341 191.995 160.32C192.062 159.962 191.472 159.633 191.255 159.528C190.709 159.266 189.984 159.139 189.386 159.124C188.789 159.11 188.079 159.11 187.488 159.341C187.137 159.476 186.748 159.64 186.673 160.059L186.666 160.066Z" fill="#989DFF"/>
<path d="M169.632 173.236C168.727 173.475 167.808 173.677 166.889 173.834C166.672 173.871 166.463 173.901 166.246 173.938C166.627 173.879 165.954 173.976 165.947 173.976C165.483 174.036 165.013 174.08 164.549 174.118C164.086 174.155 163.615 174.178 163.144 174.193C162.927 174.193 162.71 174.208 162.494 174.208C162.935 174.208 162.441 174.208 162.277 174.208C161.343 174.193 160.401 174.133 159.474 174.043C158.958 173.991 157.03 174.08 157.426 175.037C157.822 175.994 159.698 176.211 160.543 176.3C164.736 176.726 169.034 176.405 173.115 175.344C173.406 175.269 173.944 175.104 174.004 174.723C174.064 174.342 173.615 174.006 173.354 173.856C172.337 173.266 170.79 172.952 169.632 173.251V173.236Z" fill="#989DFF"/>
<path d="M147.179 174.499C142.575 173.939 137.059 176.002 134.899 180.322C134.727 180.666 135.019 180.95 135.295 181.092C135.751 181.323 136.454 181.353 136.947 181.323C137.627 181.278 138.337 181.174 138.958 180.89C139.369 180.71 139.854 180.486 140.064 180.068C140.236 179.724 140.43 179.387 140.654 179.066C140.729 178.961 140.804 178.857 140.684 179.014C140.744 178.932 140.811 178.857 140.878 178.775C140.998 178.633 141.118 178.498 141.245 178.364C141.529 178.072 141.835 177.803 142.157 177.549C142.351 177.399 142.157 177.579 142.074 177.609C142.157 177.579 142.254 177.489 142.328 177.437C142.5 177.325 142.672 177.22 142.852 177.115C142.926 177.078 142.994 177.041 143.068 176.996C143.3 176.861 142.598 177.205 142.949 177.056C143.136 176.973 143.323 176.891 143.509 176.816C143.584 176.786 143.666 176.764 143.741 176.734C143.053 177.011 143.36 176.861 143.539 176.809C143.666 176.772 144.384 176.6 143.846 176.719C143.308 176.839 143.958 176.712 144.1 176.689C144.571 176.615 143.532 176.734 143.816 176.719C143.92 176.719 144.018 176.704 144.122 176.697C144.227 176.689 144.324 176.697 144.429 176.689C144.705 176.682 143.749 176.659 144.212 176.689C144.414 176.704 144.616 176.719 144.825 176.742C145.468 176.816 146.253 176.697 146.873 176.525C147.329 176.398 148.031 176.159 148.368 175.792C149.16 174.91 147.882 174.582 147.194 174.499H147.179Z" fill="#989DFF"/>
<path d="M137.172 192.587C139.78 196.675 144.212 199.269 148.951 200.039C149.624 200.151 150.334 200.195 151.007 200.083C151.373 200.024 152.031 199.882 152.277 199.538C152.89 198.678 150.962 198.17 150.513 198.095C150.267 198.058 150.013 198.006 149.766 197.953C149.669 197.931 149.572 197.908 149.467 197.886C150.132 198.013 149.736 197.953 149.579 197.908C149.332 197.841 149.093 197.766 148.854 197.684C148.734 197.647 148.615 197.602 148.495 197.557C148.226 197.46 148.495 197.527 148.592 197.602C148.189 197.333 147.651 197.191 147.217 196.967C147.015 196.862 146.821 196.742 146.619 196.63C146.417 196.518 146.858 196.787 146.567 196.6C146.462 196.533 146.358 196.466 146.245 196.391C145.446 195.853 144.698 195.24 144.026 194.552C143.465 193.984 142.86 193.215 142.336 192.4C142.09 192.019 141.559 191.802 141.163 191.675C140.535 191.473 139.773 191.376 139.122 191.421C138.689 191.443 136.596 191.697 137.172 192.594V192.587Z" fill="#989DFF"/>
<path d="M157.217 206.93C157.285 206.975 157.359 207.02 157.427 207.065C157.21 206.915 157.18 206.9 157.344 207.012C157.479 207.11 157.606 207.207 157.741 207.311C157.995 207.513 158.241 207.737 158.48 207.962C158.682 208.163 158.884 208.373 159.071 208.589C158.854 208.335 159.183 208.739 159.22 208.784C159.318 208.918 159.415 209.053 159.504 209.187C160.222 210.249 160.723 211.437 160.992 212.678L160.932 212.386C161.059 212.992 161.126 213.605 161.134 214.218C161.134 214.621 161.508 214.883 161.822 215.055C162.352 215.354 163.062 215.526 163.66 215.585C164.258 215.645 164.968 215.683 165.566 215.496C165.858 215.406 166.433 215.227 166.426 214.838C166.358 211.093 164.266 207.82 161.141 205.861C160.641 205.547 159.878 205.398 159.303 205.331C158.727 205.263 157.965 205.241 157.397 205.42C157.075 205.525 156.582 205.674 156.537 206.078C156.492 206.482 156.956 206.751 157.225 206.915L157.217 206.93Z" fill="#989DFF"/>
<path d="M151.013 220.817C150.228 221.213 149.391 221.505 148.539 221.729C147.597 221.983 147.029 222.073 146.035 222.133C145.833 222.148 145.632 222.148 145.43 222.155C145.176 222.155 145.161 222.155 145.392 222.155C145.258 222.155 145.123 222.155 144.989 222.14C144.787 222.133 144.585 222.118 144.391 222.103C144.279 222.095 143.404 222.02 144.032 222.08C143.591 222.043 143.075 221.953 142.657 221.804L142.956 221.878C142.829 221.841 142.702 221.804 142.575 221.766C142.321 221.684 142.066 221.594 141.812 221.505C141.229 221.288 139.234 220.802 138.95 221.707C138.666 222.611 140.646 223.343 141.162 223.538C145.886 225.279 151.215 225.175 155.729 222.91C156.081 222.738 155.871 222.245 155.729 222.043C155.43 221.624 154.81 221.28 154.362 221.094C153.352 220.66 152.052 220.279 151.013 220.802V220.817Z" fill="#989DFF"/>
<path d="M134.913 215.855C131.67 212.999 128.022 210.645 124.046 208.948C122.999 208.5 121.519 208.029 120.406 208.507C119.292 208.986 120.391 209.875 121.011 210.144C121.893 210.525 122.768 210.929 123.62 211.377C124.031 211.594 124.442 211.818 124.845 212.05C125.129 212.207 124.539 211.863 124.808 212.028C124.905 212.088 125.01 212.147 125.107 212.207C125.331 212.342 125.556 212.484 125.78 212.618C126.572 213.119 127.342 213.642 128.089 214.203C128.485 214.502 128.882 214.801 129.263 215.115C129.352 215.189 129.442 215.264 129.532 215.339C129.554 215.361 129.816 215.571 129.689 215.466C129.562 215.361 129.816 215.578 129.846 215.6C129.958 215.698 130.062 215.795 130.175 215.884C131.086 216.692 132.432 217.11 133.65 217.073C134.076 217.058 134.667 217.05 134.988 216.722C135.235 216.467 135.167 216.094 134.906 215.862L134.913 215.855Z" fill="#989DFF"/>
<path d="M99.9193 211.385C100.293 211.19 100.667 211.003 101.055 210.832C101.22 210.757 101.384 210.689 101.556 210.622C101.063 210.824 101.788 210.547 101.878 210.51C102.221 210.391 102.565 210.286 102.909 210.181C103.029 210.151 103.141 210.114 103.26 210.084C102.924 210.166 102.894 210.174 103.163 210.114C103.342 210.077 103.514 210.039 103.694 210.002C103.873 209.965 104.045 209.935 104.224 209.905C104.344 209.882 104.464 209.867 104.583 209.852C104.21 209.897 104.12 209.912 104.329 209.89C104.718 209.852 105.106 209.808 105.495 209.785C105.615 209.785 105.734 209.77 105.854 209.77C105.473 209.778 105.39 209.778 105.592 209.778C105.802 209.778 106.011 209.778 106.228 209.778C106.407 209.778 106.586 209.793 106.766 209.8C106.885 209.8 107.005 209.815 107.125 209.822C106.781 209.793 106.743 209.785 107.02 209.822C108.156 209.942 109.703 209.942 110.63 209.15C111.557 208.358 110.226 207.842 109.561 207.775C104.942 207.296 100.181 208.014 96.0402 210.189C95.7711 210.331 95.2927 210.622 95.3226 211.003C95.3525 211.385 95.8757 211.609 96.1597 211.691C97.3033 212.027 98.8505 211.953 99.9193 211.392V211.385Z" fill="#989DFF"/>
<path d="M85.6362 213.657C82.1457 215.974 78.2367 217.506 74.1034 218.201C73.767 218.261 73.5055 218.545 73.5802 218.888C73.6624 219.292 74.2155 219.703 74.522 219.898C75.5684 220.54 76.8615 220.951 78.0947 220.75C82.4447 220.017 86.6303 218.343 90.3001 215.899C91.1896 215.308 89.3733 214.225 88.9772 214.045C88.1102 213.649 86.5481 213.051 85.6362 213.664V213.657Z" fill="#989DFF"/>
<path d="M52.9587 217.738C57.5105 219.89 62.4061 221.101 67.4363 221.348C68.109 221.378 69.4543 221.041 68.7144 220.159C67.9744 219.277 66.3675 218.978 65.2613 218.919C65.1193 218.919 64.9773 218.904 64.8278 218.896C64.5737 218.881 64.5438 218.881 64.7157 218.896C64.895 218.911 64.8577 218.904 64.611 218.889C64.469 218.874 64.327 218.859 64.1775 218.844C63.7515 218.799 63.3179 218.747 62.8919 218.687C62.6079 218.642 62.3239 218.597 62.0399 218.552C61.4644 218.463 62.5107 218.657 61.8904 218.522C61.4344 218.425 60.9785 218.328 60.5226 218.208C60.276 218.149 60.0368 218.081 59.7902 218.014C59.6481 217.977 59.0053 217.805 59.6406 217.977C59.1922 217.857 58.7437 217.693 58.3102 217.536C57.8767 217.379 57.4357 217.214 57.0022 217.035C56.8452 216.975 56.3968 216.773 56.8005 216.953C56.5389 216.833 56.2772 216.714 56.0156 216.594C54.9916 216.108 53.4893 215.637 52.3831 216.101C51.277 216.564 52.3607 217.461 52.9662 217.745L52.9587 217.738Z" fill="#989DFF"/>
<path d="M28.0399 210.271C28.5258 210.189 29.0191 210.114 29.5124 210.062C29.6245 210.047 29.7366 210.039 29.8562 210.024C29.5946 210.047 29.6096 210.047 29.8936 210.024C30.1253 210.009 30.3495 209.994 30.5812 209.987C31.0297 209.972 31.5155 209.912 31.9565 209.972C31.3511 209.89 32.0237 209.972 32.1583 209.987C32.4273 210.002 32.689 210.017 32.9581 210.039C33.1898 210.062 33.414 210.084 33.6382 210.106C33.7504 210.121 33.8624 210.129 33.982 210.144C33.6532 210.099 33.6457 210.099 33.9596 210.144C34.408 210.226 34.864 210.293 35.3125 210.391C35.5367 210.435 35.7608 210.488 35.9851 210.54C35.4992 210.42 36.1421 210.585 36.2467 210.615C36.7625 210.757 37.2707 210.929 37.7714 211.101C38.8178 211.467 40.4547 211.624 41.4413 211.018C42.4279 210.413 41.2171 209.695 40.6042 209.486C35.8057 207.804 30.5289 207.363 25.5136 208.208C24.8634 208.32 23.548 208.813 24.4449 209.583C25.3418 210.353 26.9861 210.443 28.0474 210.263L28.0399 210.271Z" fill="#989DFF"/>
<path d="M5.9606 219.352C7.01447 217.767 8.4271 216.467 10.0714 215.518L9.75001 215.705C10.2583 215.421 10.774 215.166 11.3121 214.957C11.5662 214.86 11.8204 214.77 12.0745 214.688C12.224 214.643 12.3661 214.598 12.5155 214.553C12.5903 214.531 12.665 214.516 12.7397 214.494C12.4706 214.561 12.4332 214.568 12.6201 214.524C12.9191 214.456 13.4647 214.367 13.5619 213.978C13.6516 213.612 13.2256 213.231 12.9789 213.059C12.4557 212.7 11.8353 212.446 11.2224 212.304C10.6095 212.162 9.92195 212.02 9.31653 212.162C6.00544 212.909 2.9933 214.718 1.08737 217.573C0.870615 217.902 0.885538 218.111 1.15461 218.433C1.48348 218.829 2.11882 219.128 2.5897 219.285C3.23249 219.509 3.92756 219.681 4.6152 219.666C4.98143 219.666 5.7289 219.681 5.9606 219.337V219.352Z" fill="#989DFF"/>
</svg>
