<svg width="140" height="48" viewBox="0 0 140 48" fill="none" xmlns="http://www.w3.org/2000/svg">
<path fill-rule="evenodd" clip-rule="evenodd" d="M49.9315 32.4168L46.0415 14.9568C46.0215 14.8568 46.0415 14.7568 46.1115 14.6768C46.1815 14.5968 46.2715 14.5468 46.3715 14.5468H62.6615C62.8715 14.5468 63.0515 14.6868 63.1015 14.8968L67.0015 32.3568C67.0215 32.4568 67.0015 32.5568 66.9315 32.6368C66.8615 32.7168 66.7715 32.7668 66.6715 32.7668H61.6215C61.4115 32.7668 61.2315 32.6268 61.1815 32.4168L58.1415 18.8468H52.8215L55.7915 32.3568C55.8115 32.4568 55.7915 32.5568 55.7215 32.6368C55.6515 32.7168 55.5615 32.7668 55.4615 32.7668H50.3815C50.1715 32.7668 49.9915 32.6268 49.9415 32.4168H49.9315Z" fill="#6A49F9"/>
<path fill-rule="evenodd" clip-rule="evenodd" d="M84.9914 32.3965L90.9514 14.8565C91.0114 14.6665 91.1814 14.5565 91.3814 14.5565H96.6914C96.7814 14.5565 96.8614 14.5965 96.9214 14.6765C96.9714 14.7565 96.9914 14.8465 96.9614 14.9265L94.7114 21.5665H100.711L102.991 14.8665C103.051 14.6765 103.221 14.5665 103.421 14.5665H108.731C108.821 14.5665 108.901 14.6065 108.961 14.6865C109.011 14.7665 109.031 14.8565 109.001 14.9365L103.041 32.4765C102.981 32.6665 102.811 32.7766 102.611 32.7766H97.3014C97.2114 32.7766 97.1314 32.7365 97.0714 32.6565C97.0214 32.5765 97.0014 32.4865 97.0314 32.4065L99.1914 26.0465H93.1914L91.0114 32.4765C90.9514 32.6665 90.7814 32.7766 90.5814 32.7766H85.2714C85.1814 32.7766 85.1014 32.7365 85.0414 32.6565C84.9914 32.5765 84.9714 32.4865 85.0014 32.4065L84.9914 32.3965Z" fill="#6A49F9"/>
<path fill-rule="evenodd" clip-rule="evenodd" d="M72.6623 14.8768L75.3823 27.0668L75.4123 27.1968C75.5023 27.5768 75.6323 27.7168 76.1123 27.7168H76.8723L81.2223 14.8968C81.3023 14.6668 81.5123 14.5168 81.7523 14.5168H86.8123C86.9423 14.5168 87.0523 14.5768 87.1323 14.6768C87.2123 14.7868 87.2223 14.9068 87.1823 15.0368L78.8923 39.4368C78.8123 39.6668 78.6023 39.8168 78.3623 39.8168H73.2223C73.1123 39.8168 73.0123 39.7668 72.9523 39.6768C72.8923 39.5868 72.8723 39.4768 72.9023 39.3768L75.1523 32.7668H73.9823C72.1223 32.7668 70.5523 31.5168 70.1423 29.6968L66.8423 15.0768C66.8123 14.9368 66.8423 14.8068 66.9323 14.6968C67.0223 14.5868 67.1423 14.5268 67.2823 14.5268H72.2223C72.4423 14.5268 72.6123 14.6768 72.6623 14.8868V14.8768Z" fill="#6A49F9"/>
<path fill-rule="evenodd" clip-rule="evenodd" d="M28.4162 32.4168L24.5962 14.9568C24.5762 14.8568 24.5962 14.7568 24.6662 14.6768C24.7362 14.5968 24.8262 14.5468 24.9262 14.5468H30.0962C30.2562 14.5468 30.3862 14.6568 30.4262 14.8068L32.4562 24.0668H33.0162L35.9362 14.8568C35.9962 14.6668 36.1662 14.5468 36.3662 14.5468H41.8862C42.0962 14.5468 42.2762 14.6868 42.3262 14.8968L46.2162 32.3568C46.2362 32.4568 46.2162 32.5568 46.1462 32.6368C46.0762 32.7168 45.9862 32.7668 45.8862 32.7668H40.6962C40.5362 32.7668 40.4062 32.6568 40.3662 32.5068L38.2862 23.2068H37.6962L34.7762 32.4568C34.7162 32.6468 34.5462 32.7668 34.3462 32.7668H28.8362C28.6262 32.7668 28.4462 32.6268 28.3962 32.4168H28.4162Z" fill="#6A49F9"/>
<path fill-rule="evenodd" clip-rule="evenodd" d="M115.999 24.0768L124.389 14.7368C124.499 14.6168 124.639 14.5468 124.809 14.5468H130.669C130.779 14.5468 130.879 14.5968 130.939 14.6868C131.009 14.7768 131.019 14.8868 130.989 14.9868L125.059 32.4568C124.999 32.6468 124.829 32.7568 124.629 32.7568H119.569C119.459 32.7568 119.359 32.7068 119.299 32.6168C119.229 32.5268 119.219 32.4168 119.249 32.3168L122.349 23.1968H121.779L113.369 32.5768C113.259 32.6968 113.119 32.7668 112.949 32.7668H107.089C106.979 32.7668 106.879 32.7168 106.819 32.6268C106.749 32.5368 106.739 32.4268 106.769 32.3268L112.709 14.8568C112.769 14.6668 112.939 14.5568 113.139 14.5568H118.279C118.369 14.5568 118.449 14.5968 118.509 14.6768C118.559 14.7568 118.579 14.8468 118.549 14.9268L115.439 24.0868H116.009L115.999 24.0768Z" fill="#6A49F9"/>
<path fill-rule="evenodd" clip-rule="evenodd" d="M25.439 31.8567C23.879 32.6167 20.829 33.1367 19.129 33.1367C13.439 33.1167 9.16903 29.0467 8.99903 23.4767C8.85903 18.6567 12.489 14.7767 17.569 14.2467C18.919 14.1067 20.889 14.2067 22.069 14.4667C22.279 14.5167 22.419 14.6967 22.419 14.9067V18.6267C22.419 18.7467 22.369 18.8467 22.279 18.9267C22.189 19.0067 22.079 19.0367 21.959 19.0167C21.319 18.9167 20.609 18.8667 19.889 18.9067C18.519 18.9667 17.139 19.3367 16.299 20.2467C15.449 21.1667 15.029 22.4767 15.139 23.6967C15.379 26.3667 17.119 28.0767 19.949 28.1067C21.429 28.1167 22.639 27.7067 23.459 27.3467C23.559 27.3067 23.659 27.3067 23.759 27.3467C23.859 27.3867 23.929 27.4567 23.979 27.5567L25.609 31.3767C25.689 31.5667 25.609 31.7967 25.419 31.8867L25.439 31.8567Z" fill="#6A49F9"/>
</svg>
