<svg width="160" height="131" viewBox="0 0 160 131" fill="none" xmlns="http://www.w3.org/2000/svg">
<path fill-rule="evenodd" clip-rule="evenodd" d="M62.9155 45.7856C65.9843 42.9389 77.9309 32.6334 91.5215 34.4891C105.112 36.3448 118.228 45.8036 122.027 58.6135C123.671 64.1807 123.799 68.2164 123.799 68.2164C123.799 68.2164 140.915 70.7387 144.989 80.5218C149.062 90.3049 149.903 100.376 140.696 108.43C136.239 112.321 129.773 113.042 120.968 113.312C111.56 113.582 99.7965 113.258 95.2663 113.312C86.4981 113.42 23.0388 113.276 23.0388 113.276C23.0388 113.276 0.314694 114.483 0.00415552 94.3046C-0.306383 74.1259 16.8828 71.5675 19.6411 71.2432C19.6411 71.2432 19.1114 54.3255 29.9071 47.7494C42.3652 40.1644 48.9048 41.2994 59.1708 44.8667L62.9155 45.7856Z" fill="white"/>
<path d="M28.3652 87.2024C15.2678 87.4005 3.85092 100.607 6.97457 113.417C8.39939 119.236 12.071 124.839 17.6973 127.416C22.9033 129.794 28.9314 130.533 34.6125 130.533C41.2982 130.533 48.0021 130.533 54.6878 130.533H126.915C128.066 130.533 129.235 130.551 130.386 130.533C130.751 130.533 130.039 130.533 130.039 130.533C130.149 130.569 130.35 130.533 130.459 130.551C131.336 130.587 132.231 130.587 133.108 130.551C139.538 130.352 146.534 129.001 151.758 125.092C154.955 122.695 157.22 119.452 158.261 115.597C159.577 110.66 159.193 105.003 157.421 100.228C154.389 92.0669 146.589 87.0762 138.241 85.2926C136.524 84.9323 134.77 84.698 132.998 84.626L134.77 85.4728C134.569 82.7883 133.893 80.0677 133.108 77.4914C131.372 71.7981 128.541 66.3931 124.486 61.979C113.453 49.9258 93.98 46.6107 79.6039 54.6281C76.0236 56.628 72.4068 59.3125 69.9042 62.5735L72.9731 62.4654C66.7258 58.8801 58.6883 57.4568 51.5824 58.2675C39.9099 59.6008 30.1919 68.7532 27.5614 79.9416C26.9769 82.4279 26.5933 85.1845 26.9404 87.7609C27.0865 88.8779 30.7033 88.8779 30.5755 88.0131C29.7352 81.7793 32.2926 74.8969 36.0373 69.9964C39.782 65.0958 44.5862 61.5466 50.4134 60.1413C54.7061 59.0963 59.2363 59.4206 63.456 60.5917C65.8124 61.2403 68.1688 62.0871 70.3061 63.2942C70.9819 63.6725 72.8269 63.9067 73.3749 63.1861C75.2382 60.7718 77.7407 58.7179 80.2798 57.0244C86.0157 53.1868 92.8292 51.1689 99.7707 51.7635C107.534 52.4301 114.932 55.9614 120.339 61.4745C124.394 65.6183 127.281 70.8252 129.126 76.2842C130.094 79.1489 130.898 82.1937 131.117 85.2025C131.172 85.8511 132.432 86.0313 132.889 86.0493C136.067 86.1754 139.246 86.8961 142.369 88.3014C145.949 89.9229 149.128 92.3912 151.393 95.5981C154.224 99.6159 155.375 104.444 155.32 109.291C155.284 113.669 154.334 117.957 151.484 121.416C149.311 124.047 146.315 125.902 143.1 127.073C141.602 127.614 140.068 128.046 138.533 128.353C137.821 128.497 137.108 128.605 136.378 128.713C136.031 128.767 135.683 128.803 135.318 128.839C135.154 128.839 135.008 128.875 134.843 128.893C134.46 128.929 134.88 128.893 134.606 128.911C133.546 129.001 132.487 129.055 131.427 129.073C131.226 129.073 131.025 129.073 130.843 129.073C130.77 129.073 130.678 129.073 130.605 129.073C130.331 129.073 131.117 129.091 130.788 129.073C130.605 129.073 130.404 129.073 130.222 129.055C129.491 129.037 128.76 129.055 128.03 129.055C123.171 129.055 118.33 129.055 113.471 129.055H62.4513C54.9253 129.055 47.4176 129.055 39.8916 129.055C31.7446 129.055 22.0083 129.632 15.8706 123.38C11.45 118.876 9.29446 112.137 10.3905 105.976C11.4134 100.319 15.012 94.7514 19.9989 91.7065C22.7207 90.049 25.9539 88.6797 29.1872 88.6257C29.6073 88.6257 30.7581 88.4815 30.5207 87.8329C30.2832 87.1843 28.8036 87.1663 28.3104 87.1663L28.3652 87.2024Z" fill="#846DF2"/>
<path d="M60.5515 45.7637C63.6204 51.1867 66.744 56.5737 69.9773 61.9066C70.5253 62.8075 74.0325 62.4471 73.5028 61.5643C70.2878 56.2314 67.1459 50.8444 64.077 45.4213C63.5656 44.5205 60.0401 44.8448 60.5515 45.7637Z" fill="#846DF2"/>
<path d="M61.1538 49.4217C64.4931 49.4217 67.2001 46.7517 67.2001 43.4582C67.2001 40.1646 64.4931 37.4946 61.1538 37.4946C57.8145 37.4946 55.1074 40.1646 55.1074 43.4582C55.1074 46.7517 57.8145 49.4217 61.1538 49.4217Z" fill="#846DF2"/>
<path d="M48.6778 38.9715C48.9701 36.215 50.2488 33.2062 52.313 31.3144C55.1992 28.666 59.7294 28.3417 63.0722 29.9452C63.7846 30.2875 64.9537 30.2154 65.6478 29.8911C66.342 29.5668 66.2506 29.1705 65.6296 28.8642C62.2137 27.2427 57.72 27.0985 54.1397 28.0894C51.7832 28.738 49.6643 29.8731 48.075 31.7288C46.9608 33.044 46.1936 34.6115 45.6638 36.251C45.3715 37.1519 45.1158 38.1067 45.0062 39.0436C44.8966 39.9805 48.55 40.0706 48.6596 38.9715H48.6778Z" fill="#846DF2"/>
<path d="M33.3324 42.6835C33.1132 38.2334 34.739 33.1887 36.9675 29.2611C41.9361 20.5049 51.508 15.4963 61.5366 15.136C63.5094 15.0639 65.4822 15.1359 67.4368 15.4062C67.7656 15.4422 68.0761 15.4963 68.4049 15.5503C68.5328 15.5684 68.679 15.5864 68.8068 15.6224C68.5694 15.5864 68.6059 15.5864 68.8068 15.6224C69.0078 15.6584 69.2452 15.7125 69.4462 15.7665C69.8663 15.8746 70.9989 16.0548 70.9441 15.3702C70.9075 14.7035 69.4827 14.2531 69.0078 14.145C61.7375 12.3614 53.353 13.1721 46.576 16.235C38.301 19.9644 32.2729 27.4954 30.4462 36.2696C30.0626 38.0892 29.7886 40.0351 29.88 41.9088C29.9348 42.8997 33.3872 43.8546 33.3324 42.7376V42.6835Z" fill="#846DF2"/>
<path d="M18.848 44.1786C17.9347 31.621 24.6386 19.838 33.9365 11.6945C36.6035 9.35231 39.4897 7.17229 42.6864 5.60483C45.3899 4.2716 48.2578 3.35274 51.1988 2.72216C56.6424 1.55107 62.3051 1.38892 67.8583 1.78529C69.9042 1.92942 72.0048 2.18166 74.0507 2.50596C74.3978 2.56001 74.7449 2.61406 75.092 2.66811C75.2198 2.68613 75.8226 2.81225 75.1833 2.66811C75.2929 2.68613 75.4025 2.70414 75.5304 2.74018C75.7496 2.77621 75.9688 2.83026 76.2062 2.86629C76.736 2.97439 78.1425 3.22663 78.5079 2.65009C78.8732 2.07356 77.7407 1.69521 77.3571 1.60513C69.1369 -0.196546 60.1861 -0.502832 51.8929 0.794371C45.262 1.82132 39.2522 4.10945 33.8817 8.10916C28.1276 12.3971 23.159 17.8022 19.7614 24.108C16.3637 30.4139 14.738 36.8638 15.2312 43.6922C15.3225 44.8272 18.9211 45.0254 18.848 44.1606V44.1786Z" fill="#846DF2"/>
<path d="M97.1404 91.4362C96.2454 93.9765 95.2955 96.4988 94.4552 99.0752C94.2908 99.5617 95.1128 99.6698 95.4599 99.6878C95.807 99.7058 96.1723 99.6878 96.5194 99.5617C96.702 99.5076 97.0674 99.3995 97.1222 99.2014C97.9625 96.643 98.9124 94.1206 99.8074 91.5623C99.9901 91.0758 99.1315 90.9677 98.8027 90.9497C98.4557 90.9497 98.0903 90.9497 97.7433 91.0758C97.5606 91.1299 97.2135 91.238 97.1404 91.4362Z" fill="#989DFF"/>
<path d="M114.329 91.8509C113.434 94.3913 112.484 96.9136 111.644 99.49C111.479 99.9765 112.301 100.085 112.648 100.103C112.995 100.121 113.361 100.103 113.708 99.9765C113.891 99.9224 114.256 99.8143 114.311 99.6161C115.151 97.0578 116.101 94.5354 116.996 91.977C117.179 91.4906 116.32 91.3825 115.991 91.3645C115.644 91.3645 115.279 91.3645 114.932 91.4906C114.749 91.5446 114.402 91.6527 114.329 91.8509Z" fill="#989DFF"/>
<path d="M132.506 91.8507C131.61 94.3911 130.661 96.9134 129.82 99.4898C129.656 99.9763 130.478 100.084 130.825 100.102C131.172 100.12 131.537 100.102 131.884 99.9762C132.067 99.9222 132.432 99.8141 132.487 99.6159C133.328 97.0575 134.277 94.5352 135.173 91.9768C135.355 91.4904 134.497 91.3823 134.168 91.3643C133.821 91.3643 133.455 91.3643 133.108 91.4904C132.926 91.5444 132.579 91.6525 132.506 91.8507Z" fill="#989DFF"/>
<path d="M139.593 91.8509C138.698 94.3913 137.748 96.9136 136.908 99.49C136.744 99.9765 137.566 100.085 137.913 100.103C138.26 100.121 138.625 100.103 138.972 99.9765C139.155 99.9224 139.52 99.8143 139.575 99.6161C140.415 97.0578 141.365 94.5354 142.26 91.977C142.443 91.4906 141.584 91.3825 141.255 91.3645C140.908 91.3645 140.543 91.3645 140.196 91.4906C140.013 91.5446 139.666 91.6527 139.593 91.8509Z" fill="#989DFF"/>
<path d="M103.478 92.2831C102.729 92.9858 102.181 93.7965 101.779 94.7334C101.414 95.5622 101.049 96.481 100.884 97.3638C100.72 98.2467 101.012 99.0574 101.761 99.5799C102.638 100.192 103.88 100.283 104.921 100.156C105.871 100.048 106.839 99.724 107.57 99.1115C108.301 98.4989 108.922 97.7062 109.36 96.8594C110.182 95.2739 110.858 92.6795 109.031 91.4904C107.807 90.6796 105.889 90.8238 104.611 91.4904C103.661 91.9768 103.058 92.8236 102.382 93.5983C102.254 93.7425 102.419 93.9407 102.528 94.0127C102.747 94.1569 103.095 94.2289 103.35 94.2469C103.88 94.283 104.647 94.265 105.031 93.8326C105.469 93.3281 105.871 92.7696 106.401 92.3732C106.474 92.3192 106.547 92.2651 106.62 92.2291C106.62 92.2291 106.766 92.139 106.675 92.193C106.73 92.157 106.803 92.139 106.876 92.103C107.095 91.9949 106.766 92.0849 107.022 92.0489C106.912 92.0489 106.748 92.0309 106.657 92.0489C106.584 91.9949 106.602 92.0489 106.657 92.0489C106.711 92.121 106.821 92.157 106.876 92.2111C108.008 93.2921 107.387 95.3099 106.784 96.517C106.456 97.1837 106.017 97.8143 105.488 98.3548C105.287 98.571 105.049 98.7511 104.812 98.9133C104.574 99.0754 104.885 98.8772 104.739 98.9673C104.665 99.0034 104.592 99.0394 104.519 99.0574C104.337 99.1475 104.483 99.0754 104.519 99.0574C104.428 99.0934 104.337 99.1115 104.245 99.1295C104.337 99.1115 104.538 99.0574 104.245 99.1295C104.044 99.1475 104.592 99.1295 104.282 99.1295C104.318 99.1295 104.611 99.1655 104.373 99.1295C104.702 99.1835 104.465 99.1475 104.391 99.1295C104.227 99.0754 104.629 99.2376 104.391 99.1295C104.337 99.1115 104.282 99.0934 104.227 99.0574C104.172 99.0214 104.063 98.9313 104.026 98.9133C103.569 98.4809 103.551 97.8323 103.679 97.2197C103.843 96.445 104.154 95.6523 104.483 94.9316C104.83 94.1569 105.268 93.3821 105.889 92.7876C106.309 92.3912 105.78 92.139 105.378 92.0489C104.885 91.9588 103.917 91.8868 103.515 92.2831H103.478Z" fill="#989DFF"/>
<path d="M120.613 92.2831C119.864 92.9858 119.316 93.7965 118.914 94.7334C118.549 95.5622 118.183 96.481 118.019 97.3638C117.855 98.2467 118.147 99.0574 118.896 99.5799C119.773 100.192 121.015 100.283 122.056 100.156C123.006 100.048 123.974 99.724 124.705 99.1115C125.435 98.4989 126.056 97.7062 126.495 96.8594C127.317 95.2739 127.993 92.6795 126.166 91.4904C124.942 90.6796 123.024 90.8238 121.745 91.4904C120.796 91.9768 120.193 92.8236 119.517 93.5983C119.389 93.7425 119.553 93.9407 119.663 94.0127C119.882 94.1569 120.229 94.2289 120.485 94.2469C121.015 94.283 121.782 94.265 122.166 93.8326C122.604 93.3281 123.006 92.7696 123.536 92.3732C123.609 92.3192 123.682 92.2651 123.755 92.2291C123.755 92.2291 123.901 92.139 123.81 92.193C123.864 92.157 123.937 92.139 124.011 92.103C124.23 91.9949 123.901 92.0849 124.157 92.0489C124.047 92.0489 123.883 92.0309 123.791 92.0489C123.718 91.9949 123.737 92.0489 123.791 92.0489C123.846 92.121 123.956 92.157 124.011 92.2111C125.143 93.2921 124.522 95.3099 123.919 96.517C123.59 97.1837 123.152 97.8143 122.622 98.3548C122.421 98.571 122.184 98.7511 121.946 98.9133C121.709 99.0754 122.019 98.8772 121.873 98.9673C121.8 99.0034 121.727 99.0394 121.654 99.0574C121.471 99.1475 121.618 99.0754 121.654 99.0574C121.563 99.0934 121.471 99.1115 121.38 99.1295C121.471 99.1115 121.672 99.0574 121.38 99.1295C121.179 99.1475 121.727 99.1295 121.417 99.1295C121.453 99.1295 121.745 99.1655 121.508 99.1295C121.837 99.1835 121.599 99.1475 121.526 99.1295C121.362 99.0754 121.764 99.2376 121.526 99.1295C121.471 99.1115 121.417 99.0934 121.362 99.0574C121.307 99.0214 121.197 98.9313 121.161 98.9133C120.704 98.4809 120.686 97.8323 120.814 97.2197C120.978 96.445 121.289 95.6523 121.618 94.9316C121.965 94.1569 122.403 93.3821 123.024 92.7876C123.444 92.3912 122.915 92.139 122.513 92.0489C122.019 91.9588 121.051 91.8868 120.649 92.2831H120.613Z" fill="#989DFF"/>
<path d="M83.6589 103.815C82.7638 106.355 81.8139 108.877 80.9736 111.454C80.8092 111.94 81.6312 112.048 81.9783 112.066C82.3254 112.084 82.6907 112.066 83.0378 111.94C83.2205 111.886 83.5858 111.778 83.6406 111.58C84.4809 109.021 85.4308 106.499 86.3259 103.941C86.5085 103.454 85.65 103.346 85.3212 103.328C84.9741 103.328 84.6088 103.328 84.2617 103.454C84.079 103.508 83.7319 103.616 83.6589 103.815Z" fill="#989DFF"/>
<path d="M89.6325 104.048C88.7374 106.589 87.7875 109.111 86.9473 111.688C86.7829 112.174 87.6049 112.282 87.952 112.3C88.299 112.318 88.6644 112.3 89.0114 112.174C89.1941 112.12 89.5595 112.012 89.6143 111.814C90.4545 109.255 91.4044 106.733 92.2995 104.175C92.4822 103.688 91.6236 103.58 91.2948 103.562C90.9477 103.562 90.5824 103.562 90.2353 103.688C90.0527 103.742 89.7056 103.85 89.6325 104.048Z" fill="#989DFF"/>
<path d="M107.607 104.229C106.712 106.769 105.762 109.291 104.922 111.868C104.757 112.354 105.579 112.462 105.927 112.48C106.274 112.498 106.639 112.48 106.986 112.354C107.169 112.3 107.534 112.192 107.589 111.994C108.429 109.435 109.379 106.913 110.274 104.355C110.457 103.868 109.598 103.76 109.269 103.742C108.922 103.742 108.557 103.742 108.21 103.868C108.027 103.922 107.68 104.03 107.607 104.229Z" fill="#989DFF"/>
<path d="M114.44 104.229C113.545 106.769 112.595 109.291 111.755 111.868C111.59 112.354 112.412 112.462 112.76 112.48C113.107 112.498 113.472 112.48 113.819 112.354C114.002 112.3 114.367 112.192 114.422 111.994C115.262 109.435 116.212 106.913 117.107 104.355C117.29 103.868 116.431 103.76 116.102 103.742C115.755 103.742 115.39 103.742 115.043 103.868C114.86 103.922 114.513 104.03 114.44 104.229Z" fill="#989DFF"/>
<path d="M133.967 104.355C133.072 106.895 132.123 109.417 131.282 111.994C131.118 112.48 131.94 112.588 132.287 112.606C132.634 112.624 132.999 112.606 133.346 112.48C133.529 112.426 133.894 112.318 133.949 112.12C134.789 109.561 135.739 107.039 136.634 104.481C136.817 103.994 135.959 103.886 135.63 103.868C135.283 103.868 134.917 103.868 134.57 103.994C134.388 104.048 134.041 104.156 133.967 104.355Z" fill="#989DFF"/>
<path d="M96.5564 104.661C95.8075 105.364 95.2594 106.175 94.8576 107.111C94.4922 107.94 94.1269 108.859 93.9625 109.742C93.7981 110.625 94.0904 111.436 94.8393 111.958C95.7161 112.571 96.9583 112.661 97.9995 112.535C98.9494 112.426 99.9175 112.102 100.648 111.49C101.379 110.877 102 110.084 102.438 109.237C103.26 107.652 103.936 105.058 102.11 103.868C100.886 103.058 98.9676 103.202 97.689 103.868C96.7391 104.355 96.1363 105.202 95.4604 105.976C95.3325 106.121 95.4969 106.319 95.6065 106.391C95.8257 106.535 96.1728 106.607 96.4285 106.625C96.9583 106.661 97.7255 106.643 98.1091 106.211C98.5475 105.706 98.9494 105.148 99.4791 104.751C99.5522 104.697 99.6252 104.643 99.6983 104.607C99.6983 104.607 99.8445 104.517 99.7531 104.571C99.8079 104.535 99.881 104.517 99.954 104.481C100.173 104.373 99.8444 104.463 100.1 104.427C99.9906 104.427 99.8262 104.409 99.7348 104.427C99.6618 104.373 99.68 104.427 99.7348 104.427C99.7896 104.499 99.8992 104.535 99.954 104.589C101.087 105.67 100.466 107.688 99.8627 108.895C99.5339 109.562 99.0955 110.192 98.5658 110.733C98.3648 110.949 98.1274 111.129 97.8899 111.291C97.6524 111.454 97.9629 111.255 97.8168 111.345C97.7437 111.381 97.6707 111.417 97.5976 111.436C97.4149 111.526 97.5611 111.454 97.5976 111.436C97.5063 111.472 97.415 111.49 97.3236 111.508C97.415 111.49 97.6159 111.436 97.3236 111.508C97.1227 111.526 97.6707 111.508 97.3601 111.508C97.3967 111.508 97.6889 111.544 97.4515 111.508C97.7803 111.562 97.5428 111.526 97.4698 111.508C97.3054 111.454 97.7072 111.616 97.4698 111.508C97.415 111.49 97.3601 111.472 97.3053 111.436C97.2505 111.399 97.1409 111.309 97.1044 111.291C96.6477 110.859 96.6294 110.21 96.7573 109.598C96.9217 108.823 97.2323 108.03 97.5611 107.31C97.9081 106.535 98.3466 105.76 98.9676 105.166C99.3878 104.769 98.858 104.517 98.4562 104.427C97.963 104.337 96.9948 104.265 96.5929 104.661H96.5564Z" fill="#989DFF"/>
<path d="M122.093 104.662C121.344 105.364 120.796 106.175 120.395 107.112C120.029 107.941 119.664 108.859 119.499 109.742C119.335 110.625 119.627 111.436 120.376 111.958C121.253 112.571 122.495 112.661 123.536 112.535C124.486 112.427 125.454 112.102 126.185 111.49C126.916 110.877 127.537 110.085 127.975 109.238C128.797 107.652 129.473 105.058 127.647 103.869C126.423 103.058 124.505 103.202 123.226 103.869C122.276 104.355 121.673 105.202 120.997 105.977C120.869 106.121 121.034 106.319 121.143 106.391C121.363 106.535 121.71 106.607 121.965 106.625C122.495 106.661 123.262 106.643 123.646 106.211C124.084 105.706 124.486 105.148 125.016 104.752C125.089 104.698 125.162 104.644 125.235 104.607C125.235 104.607 125.381 104.517 125.29 104.571C125.345 104.535 125.418 104.517 125.491 104.481C125.71 104.373 125.381 104.463 125.637 104.427C125.528 104.427 125.363 104.409 125.272 104.427C125.199 104.373 125.217 104.427 125.272 104.427C125.327 104.499 125.436 104.535 125.491 104.589C126.624 105.67 126.002 107.688 125.4 108.895C125.071 109.562 124.632 110.193 124.103 110.733C123.902 110.949 123.664 111.13 123.427 111.292C123.189 111.454 123.5 111.256 123.354 111.346C123.281 111.382 123.208 111.418 123.135 111.436C122.952 111.526 123.098 111.454 123.135 111.436C123.043 111.472 122.952 111.49 122.861 111.508C122.952 111.49 123.153 111.436 122.861 111.508C122.66 111.526 123.208 111.508 122.897 111.508C122.934 111.508 123.226 111.544 122.988 111.508C123.317 111.562 123.08 111.526 123.007 111.508C122.842 111.454 123.244 111.616 123.007 111.508C122.952 111.49 122.897 111.472 122.842 111.436C122.788 111.4 122.678 111.31 122.641 111.292C122.185 110.859 122.166 110.211 122.294 109.598C122.459 108.823 122.769 108.031 123.098 107.31C123.445 106.535 123.884 105.761 124.505 105.166C124.925 104.77 124.395 104.517 123.993 104.427C123.5 104.337 122.532 104.265 122.13 104.662H122.093Z" fill="#989DFF"/>
<path d="M140.981 104.661C140.232 105.364 139.684 106.175 139.282 107.111C138.917 107.94 138.552 108.859 138.387 109.742C138.223 110.625 138.515 111.436 139.264 111.958C140.141 112.571 141.383 112.661 142.424 112.535C143.374 112.426 144.342 112.102 145.073 111.49C145.804 110.877 146.425 110.084 146.863 109.237C147.685 107.652 148.361 105.058 146.534 103.868C145.31 103.058 143.392 103.202 142.114 103.868C141.164 104.355 140.561 105.202 139.885 105.976C139.757 106.121 139.922 106.319 140.031 106.391C140.251 106.535 140.598 106.607 140.853 106.625C141.383 106.661 142.15 106.643 142.534 106.211C142.972 105.706 143.374 105.148 143.904 104.751C143.977 104.697 144.05 104.643 144.123 104.607C144.123 104.607 144.269 104.517 144.178 104.571C144.233 104.535 144.306 104.517 144.379 104.481C144.598 104.373 144.269 104.463 144.525 104.427C144.415 104.427 144.251 104.409 144.16 104.427C144.087 104.373 144.105 104.427 144.16 104.427C144.214 104.499 144.324 104.535 144.379 104.589C145.511 105.67 144.89 107.688 144.288 108.895C143.959 109.562 143.52 110.192 142.991 110.733C142.79 110.949 142.552 111.129 142.315 111.291C142.077 111.454 142.388 111.255 142.242 111.345C142.169 111.381 142.095 111.417 142.022 111.436C141.84 111.526 141.986 111.454 142.022 111.436C141.931 111.472 141.84 111.49 141.748 111.508C141.84 111.49 142.041 111.436 141.748 111.508C141.547 111.526 142.095 111.508 141.785 111.508C141.821 111.508 142.114 111.544 141.876 111.508C142.205 111.562 141.968 111.526 141.895 111.508C141.73 111.454 142.132 111.616 141.895 111.508C141.84 111.49 141.785 111.472 141.73 111.436C141.675 111.399 141.566 111.309 141.529 111.291C141.073 110.859 141.054 110.21 141.182 109.598C141.347 108.823 141.657 108.03 141.986 107.31C142.333 106.535 142.771 105.76 143.392 105.166C143.813 104.769 143.283 104.517 142.881 104.427C142.388 104.337 141.42 104.265 141.018 104.661H140.981Z" fill="#989DFF"/>
<path d="M95.8259 116.534C94.9308 119.074 93.9809 121.597 93.1406 124.173C92.9762 124.659 93.7982 124.767 94.1453 124.785C94.4924 124.803 94.8577 124.785 95.2048 124.659C95.3875 124.605 95.7528 124.497 95.8076 124.299C96.6479 121.741 97.5978 119.218 98.4929 116.66C98.6755 116.173 97.817 116.065 97.4882 116.047C97.1411 116.047 96.7758 116.047 96.4287 116.173C96.246 116.228 95.8989 116.336 95.8259 116.534Z" fill="#989DFF"/>
<path d="M112.063 116.732C111.168 119.272 110.218 121.795 109.378 124.371C109.214 124.858 110.036 124.966 110.383 124.984C110.73 125.002 111.095 124.984 111.442 124.858C111.625 124.804 111.99 124.695 112.045 124.497C112.885 121.939 113.835 119.417 114.73 116.858C114.913 116.372 114.054 116.264 113.725 116.246C113.378 116.246 113.013 116.246 112.666 116.372C112.483 116.426 112.136 116.534 112.063 116.732Z" fill="#989DFF"/>
<path d="M139.72 116.84C138.825 119.381 137.875 121.903 137.035 124.48C136.871 124.966 137.693 125.074 138.04 125.092C138.387 125.11 138.752 125.092 139.099 124.966C139.282 124.912 139.647 124.804 139.702 124.606C140.542 122.047 141.492 119.525 142.387 116.967C142.57 116.48 141.712 116.372 141.383 116.354C141.036 116.354 140.67 116.354 140.323 116.48C140.141 116.534 139.793 116.642 139.72 116.84Z" fill="#989DFF"/>
<path d="M101.909 117.164C101.16 117.867 100.612 118.678 100.21 119.615C99.8444 120.444 99.4791 121.362 99.3147 122.245C99.1503 123.128 99.4425 123.939 100.191 124.461C101.068 125.074 102.31 125.164 103.352 125.038C104.302 124.93 105.27 124.605 106 123.993C106.731 123.38 107.352 122.587 107.791 121.741C108.613 120.155 109.288 117.561 107.462 116.372C106.238 115.561 104.32 115.705 103.041 116.372C102.091 116.858 101.488 117.705 100.813 118.48C100.685 118.624 100.849 118.822 100.959 118.894C101.178 119.038 101.525 119.11 101.781 119.128C102.31 119.164 103.078 119.146 103.461 118.714C103.9 118.209 104.302 117.651 104.831 117.255C104.904 117.2 104.977 117.146 105.05 117.11C105.05 117.11 105.197 117.02 105.105 117.074C105.16 117.038 105.233 117.02 105.306 116.984C105.525 116.876 105.197 116.966 105.452 116.93C105.343 116.93 105.178 116.912 105.087 116.93C105.014 116.876 105.032 116.93 105.087 116.93C105.142 117.002 105.251 117.038 105.306 117.092C106.439 118.173 105.818 120.191 105.215 121.398C104.886 122.065 104.448 122.696 103.918 123.236C103.717 123.452 103.48 123.632 103.242 123.795C103.005 123.957 103.315 123.759 103.169 123.849C103.096 123.885 103.023 123.921 102.95 123.939C102.767 124.029 102.913 123.957 102.95 123.939C102.858 123.975 102.767 123.993 102.676 124.011C102.767 123.993 102.968 123.939 102.676 124.011C102.475 124.029 103.023 124.011 102.712 124.011C102.749 124.011 103.041 124.047 102.804 124.011C103.132 124.065 102.895 124.029 102.822 124.011C102.658 123.957 103.059 124.119 102.822 124.011C102.767 123.993 102.712 123.975 102.658 123.939C102.603 123.903 102.493 123.813 102.457 123.795C102 123.362 101.982 122.714 102.109 122.101C102.274 121.326 102.584 120.534 102.913 119.813C103.26 119.038 103.699 118.263 104.32 117.669C104.74 117.273 104.21 117.02 103.808 116.93C103.315 116.84 102.347 116.768 101.945 117.164H101.909Z" fill="#989DFF"/>
<path d="M85.6129 117.164C84.864 117.867 84.3159 118.678 83.9141 119.615C83.5487 120.444 83.1834 121.362 83.019 122.245C82.8546 123.128 83.1469 123.939 83.8958 124.461C84.7726 125.074 86.0148 125.164 87.056 125.038C88.0059 124.93 88.974 124.605 89.7047 123.993C90.4354 123.38 91.0565 122.587 91.4949 121.741C92.3169 120.155 92.9927 117.561 91.166 116.372C89.9422 115.561 88.0241 115.705 86.7454 116.372C85.7956 116.858 85.1928 117.705 84.5169 118.48C84.389 118.624 84.5534 118.822 84.663 118.894C84.8822 119.038 85.2293 119.11 85.485 119.128C86.0148 119.164 86.782 119.146 87.1656 118.714C87.604 118.209 88.0059 117.651 88.5356 117.255C88.6087 117.2 88.6818 117.146 88.7548 117.11C88.7548 117.11 88.901 117.02 88.8096 117.074C88.8644 117.038 88.9375 117.02 89.0106 116.984C89.2298 116.876 88.901 116.966 89.1567 116.93C89.0471 116.93 88.8827 116.912 88.7914 116.93C88.7183 116.876 88.7366 116.93 88.7914 116.93C88.8462 117.002 88.9558 117.038 89.0106 117.092C90.1431 118.173 89.522 120.191 88.9192 121.398C88.5904 122.065 88.152 122.696 87.6222 123.236C87.4213 123.452 87.1839 123.632 86.9464 123.795C86.7089 123.957 87.0195 123.759 86.8733 123.849C86.8003 123.885 86.7272 123.921 86.6541 123.939C86.4714 124.029 86.6176 123.957 86.6541 123.939C86.5628 123.975 86.4714 123.993 86.3801 124.011C86.4714 123.993 86.6724 123.939 86.3801 124.011C86.1792 124.029 86.7272 124.011 86.4167 124.011C86.4532 124.011 86.7455 124.047 86.508 124.011C86.8368 124.065 86.5993 124.029 86.5262 124.011C86.3618 123.957 86.7637 124.119 86.5262 124.011C86.4714 123.993 86.4167 123.975 86.3619 123.939C86.3071 123.903 86.1974 123.813 86.1609 123.795C85.7042 123.362 85.686 122.714 85.8138 122.101C85.9782 121.326 86.2888 120.534 86.6176 119.813C86.9647 119.038 87.403 118.263 88.0241 117.669C88.4443 117.273 87.9145 117.02 87.5127 116.93C87.0194 116.84 86.0513 116.768 85.6494 117.164H85.6129Z" fill="#989DFF"/>
<path d="M129.106 117.164C128.357 117.867 127.809 118.678 127.407 119.615C127.042 120.444 126.677 121.362 126.512 122.245C126.348 123.128 126.64 123.939 127.389 124.461C128.266 125.074 129.508 125.164 130.549 125.038C131.499 124.93 132.467 124.605 133.198 123.993C133.929 123.38 134.55 122.587 134.988 121.741C135.81 120.155 136.486 117.561 134.659 116.372C133.435 115.561 131.517 115.705 130.239 116.372C129.289 116.858 128.686 117.705 128.01 118.48C127.882 118.624 128.047 118.822 128.156 118.894C128.375 119.038 128.722 119.11 128.978 119.128C129.508 119.164 130.275 119.146 130.659 118.714C131.097 118.209 131.499 117.651 132.029 117.255C132.102 117.2 132.175 117.146 132.248 117.11C132.248 117.11 132.394 117.02 132.303 117.074C132.358 117.038 132.431 117.02 132.504 116.984C132.723 116.876 132.394 116.966 132.65 116.93C132.54 116.93 132.376 116.912 132.285 116.93C132.211 116.876 132.23 116.93 132.285 116.93C132.339 117.002 132.449 117.038 132.504 117.092C133.636 118.173 133.015 120.191 132.412 121.398C132.084 122.065 131.645 122.696 131.115 123.236C130.915 123.452 130.677 123.632 130.44 123.795C130.202 123.957 130.513 123.759 130.366 123.849C130.293 123.885 130.22 123.921 130.147 123.939C129.965 124.029 130.111 123.957 130.147 123.939C130.056 123.975 129.965 123.993 129.873 124.011C129.965 123.993 130.166 123.939 129.873 124.011C129.672 124.029 130.22 124.011 129.91 124.011C129.946 124.011 130.239 124.047 130.001 124.011C130.33 124.065 130.092 124.029 130.019 124.011C129.855 123.957 130.257 124.119 130.019 124.011C129.965 123.993 129.91 123.975 129.855 123.939C129.8 123.903 129.691 123.813 129.654 123.795C129.197 123.362 129.179 122.714 129.307 122.101C129.471 121.326 129.782 120.534 130.111 119.813C130.458 119.038 130.896 118.263 131.517 117.669C131.937 117.273 131.408 117.02 131.006 116.93C130.513 116.84 129.544 116.768 129.143 117.164H129.106Z" fill="#989DFF"/>
<path d="M118.091 117.164C117.342 117.867 116.794 118.678 116.393 119.615C116.027 120.444 115.662 121.362 115.498 122.245C115.333 123.128 115.625 123.939 116.374 124.461C117.251 125.074 118.493 125.164 119.534 125.038C120.484 124.93 121.453 124.605 122.183 123.993C122.914 123.38 123.535 122.587 123.973 121.741C124.795 120.155 125.471 117.561 123.645 116.372C122.421 115.561 120.503 115.705 119.224 116.372C118.274 116.858 117.671 117.705 116.995 118.48C116.868 118.624 117.032 118.822 117.142 118.894C117.361 119.038 117.708 119.11 117.964 119.128C118.493 119.164 119.261 119.146 119.644 118.714C120.083 118.209 120.484 117.651 121.014 117.255C121.087 117.2 121.16 117.146 121.233 117.11C121.233 117.11 121.379 117.02 121.288 117.074C121.343 117.038 121.416 117.02 121.489 116.984C121.708 116.876 121.379 116.966 121.635 116.93C121.526 116.93 121.361 116.912 121.27 116.93C121.197 116.876 121.215 116.93 121.27 116.93C121.325 117.002 121.434 117.038 121.489 117.092C122.622 118.173 122.001 120.191 121.398 121.398C121.069 122.065 120.631 122.696 120.101 123.236C119.9 123.452 119.662 123.632 119.425 123.795C119.187 123.957 119.498 123.759 119.352 123.849C119.279 123.885 119.206 123.921 119.133 123.939C118.95 124.029 119.096 123.957 119.133 123.939C119.041 123.975 118.95 123.993 118.859 124.011C118.95 123.993 119.151 123.939 118.859 124.011C118.658 124.029 119.206 124.011 118.895 124.011C118.932 124.011 119.224 124.047 118.987 124.011C119.315 124.065 119.078 124.029 119.005 124.011C118.84 123.957 119.242 124.119 119.005 124.011C118.95 123.993 118.895 123.975 118.84 123.939C118.786 123.903 118.676 123.813 118.639 123.795C118.183 123.362 118.164 122.714 118.292 122.101C118.457 121.326 118.767 120.534 119.096 119.813C119.443 119.038 119.882 118.263 120.503 117.669C120.923 117.273 120.393 117.02 119.991 116.93C119.498 116.84 118.53 116.768 118.128 117.164H118.091Z" fill="#989DFF"/>
</svg>
