<svg width="150" height="150" viewBox="0 0 150 150" fill="none" xmlns="http://www.w3.org/2000/svg">
<path d="M6 0H0V6H6V0Z" fill="white"/>
<path d="M12 0H6V6H12V0Z" fill="white"/>
<path d="M18 0H12V6H18V0Z" fill="white"/>
<path d="M24 0H18V6H24V0Z" fill="white"/>
<path d="M30 0H24V6H30V0Z" fill="white"/>
<path d="M36 0H30V6H36V0Z" fill="white"/>
<path d="M42 0H36V6H42V0Z" fill="white"/>
<path d="M60 0H54V6H60V0Z" fill="white"/>
<path d="M72 0H66V6H72V0Z" fill="white"/>
<path d="M84 0H78V6H84V0Z" fill="white"/>
<path d="M102 0H96V6H102V0Z" fill="white"/>
<path d="M114 0H108V6H114V0Z" fill="white"/>
<path d="M120 0H114V6H120V0Z" fill="white"/>
<path d="M126 0H120V6H126V0Z" fill="white"/>
<path d="M132 0H126V6H132V0Z" fill="white"/>
<path d="M138 0H132V6H138V0Z" fill="white"/>
<path d="M144 0H138V6H144V0Z" fill="white"/>
<path d="M150 0H144V6H150V0Z" fill="white"/>
<path d="M6 6H0V12H6V6Z" fill="white"/>
<path d="M42 6H36V12H42V6Z" fill="white"/>
<path d="M54 6H48V12H54V6Z" fill="white"/>
<path d="M60 6H54V12H60V6Z" fill="white"/>
<path d="M66 6H60V12H66V6Z" fill="white"/>
<path d="M78 6H72V12H78V6Z" fill="white"/>
<path d="M84 6H78V12H84V6Z" fill="white"/>
<path d="M90 6H84V12H90V6Z" fill="white"/>
<path d="M96 6H90V12H96V6Z" fill="white"/>
<path d="M102 6H96V12H102V6Z" fill="white"/>
<path d="M114 6H108V12H114V6Z" fill="white"/>
<path d="M150 6H144V12H150V6Z" fill="white"/>
<path d="M6 12H0V18H6V12Z" fill="white"/>
<path d="M18 12H12V18H18V12Z" fill="white"/>
<path d="M24 12H18V18H24V12Z" fill="white"/>
<path d="M30 12H24V18H30V12Z" fill="white"/>
<path d="M42 12H36V18H42V12Z" fill="white"/>
<path d="M60 12H54V18H60V12Z" fill="white"/>
<path d="M66 12H60V18H66V12Z" fill="white"/>
<path d="M96 12H90V18H96V12Z" fill="white"/>
<path d="M102 12H96V18H102V12Z" fill="white"/>
<path d="M114 12H108V18H114V12Z" fill="white"/>
<path d="M126 12H120V18H126V12Z" fill="white"/>
<path d="M132 12H126V18H132V12Z" fill="white"/>
<path d="M138 12H132V18H138V12Z" fill="white"/>
<path d="M150 12H144V18H150V12Z" fill="white"/>
<path d="M6 18H0V24H6V18Z" fill="white"/>
<path d="M18 18H12V24H18V18Z" fill="white"/>
<path d="M24 18H18V24H24V18Z" fill="white"/>
<path d="M30 18H24V24H30V18Z" fill="white"/>
<path d="M42 18H36V24H42V18Z" fill="white"/>
<path d="M54 18H48V24H54V18Z" fill="white"/>
<path d="M60 18H54V24H60V18Z" fill="white"/>
<path d="M84 18H78V24H84V18Z" fill="white"/>
<path d="M90 18H84V24H90V18Z" fill="white"/>
<path d="M96 18H90V24H96V18Z" fill="white"/>
<path d="M102 18H96V24H102V18Z" fill="white"/>
<path d="M114 18H108V24H114V18Z" fill="white"/>
<path d="M126 18H120V24H126V18Z" fill="white"/>
<path d="M132 18H126V24H132V18Z" fill="white"/>
<path d="M138 18H132V24H138V18Z" fill="white"/>
<path d="M150 18H144V24H150V18Z" fill="white"/>
<path d="M6 24H0V30H6V24Z" fill="white"/>
<path d="M18 24H12V30H18V24Z" fill="white"/>
<path d="M24 24H18V30H24V24Z" fill="white"/>
<path d="M30 24H24V30H30V24Z" fill="white"/>
<path d="M42 24H36V30H42V24Z" fill="white"/>
<path d="M72 24H66V30H72V24Z" fill="white"/>
<path d="M84 24H78V30H84V24Z" fill="white"/>
<path d="M102 24H96V30H102V24Z" fill="white"/>
<path d="M114 24H108V30H114V24Z" fill="white"/>
<path d="M126 24H120V30H126V24Z" fill="white"/>
<path d="M132 24H126V30H132V24Z" fill="white"/>
<path d="M138 24H132V30H138V24Z" fill="white"/>
<path d="M150 24H144V30H150V24Z" fill="white"/>
<path d="M6 30H0V36H6V30Z" fill="white"/>
<path d="M42 30H36V36H42V30Z" fill="white"/>
<path d="M54 30H48V36H54V30Z" fill="white"/>
<path d="M66 30H60V36H66V30Z" fill="white"/>
<path d="M96 30H90V36H96V30Z" fill="white"/>
<path d="M114 30H108V36H114V30Z" fill="white"/>
<path d="M150 30H144V36H150V30Z" fill="white"/>
<path d="M6 36H0V42H6V36Z" fill="white"/>
<path d="M12 36H6V42H12V36Z" fill="white"/>
<path d="M18 36H12V42H18V36Z" fill="white"/>
<path d="M24 36H18V42H24V36Z" fill="white"/>
<path d="M30 36H24V42H30V36Z" fill="white"/>
<path d="M36 36H30V42H36V36Z" fill="white"/>
<path d="M42 36H36V42H42V36Z" fill="white"/>
<path d="M54 36H48V42H54V36Z" fill="white"/>
<path d="M66 36H60V42H66V36Z" fill="white"/>
<path d="M78 36H72V42H78V36Z" fill="white"/>
<path d="M90 36H84V42H90V36Z" fill="white"/>
<path d="M102 36H96V42H102V36Z" fill="white"/>
<path d="M114 36H108V42H114V36Z" fill="white"/>
<path d="M120 36H114V42H120V36Z" fill="white"/>
<path d="M126 36H120V42H126V36Z" fill="white"/>
<path d="M132 36H126V42H132V36Z" fill="white"/>
<path d="M138 36H132V42H138V36Z" fill="white"/>
<path d="M144 36H138V42H144V36Z" fill="white"/>
<path d="M150 36H144V42H150V36Z" fill="white"/>
<path d="M78 42H72V48H78V42Z" fill="white"/>
<path d="M90 42H84V48H90V42Z" fill="white"/>
<path d="M96 42H90V48H96V42Z" fill="white"/>
<path d="M6 48H0V54H6V48Z" fill="white"/>
<path d="M12 48H6V54H12V48Z" fill="white"/>
<path d="M18 48H12V54H18V48Z" fill="white"/>
<path d="M24 48H18V54H24V48Z" fill="white"/>
<path d="M30 48H24V54H30V48Z" fill="white"/>
<path d="M42 48H36V54H42V48Z" fill="white"/>
<path d="M48 48H42V54H48V48Z" fill="white"/>
<path d="M54 48H48V54H54V48Z" fill="white"/>
<path d="M60 48H54V54H60V48Z" fill="white"/>
<path d="M66 48H60V54H66V48Z" fill="white"/>
<path d="M72 48H66V54H72V48Z" fill="white"/>
<path d="M78 48H72V54H78V48Z" fill="white"/>
<path d="M84 48H78V54H84V48Z" fill="white"/>
<path d="M96 48H90V54H96V48Z" fill="white"/>
<path d="M102 48H96V54H102V48Z" fill="white"/>
<path d="M108 48H102V54H108V48Z" fill="white"/>
<path d="M120 48H114V54H120V48Z" fill="white"/>
<path d="M132 48H126V54H132V48Z" fill="white"/>
<path d="M144 48H138V54H144V48Z" fill="white"/>
<path d="M24 54H18V60H24V54Z" fill="white"/>
<path d="M30 54H24V60H30V54Z" fill="white"/>
<path d="M48 54H42V60H48V54Z" fill="white"/>
<path d="M54 54H48V60H54V54Z" fill="white"/>
<path d="M60 54H54V60H60V54Z" fill="white"/>
<path d="M72 54H66V60H72V54Z" fill="white"/>
<path d="M84 54H78V60H84V54Z" fill="white"/>
<path d="M102 54H96V60H102V54Z" fill="white"/>
<path d="M120 54H114V60H120V54Z" fill="white"/>
<path d="M144 54H138V60H144V54Z" fill="white"/>
<path d="M12 60H6V66H12V60Z" fill="white"/>
<path d="M18 60H12V66H18V60Z" fill="white"/>
<path d="M30 60H24V66H30V60Z" fill="white"/>
<path d="M42 60H36V66H42V60Z" fill="white"/>
<path d="M54 60H48V66H54V60Z" fill="white"/>
<path d="M60 60H54V66H60V60Z" fill="white"/>
<path d="M84 60H78V66H84V60Z" fill="white"/>
<path d="M90 60H84V66H90V60Z" fill="white"/>
<path d="M96 60H90V66H96V60Z" fill="white"/>
<path d="M102 60H96V66H102V60Z" fill="white"/>
<path d="M120 60H114V66H120V60Z" fill="white"/>
<path d="M126 60H120V66H126V60Z" fill="white"/>
<path d="M132 60H126V66H132V60Z" fill="white"/>
<path d="M144 60H138V66H144V60Z" fill="white"/>
<path d="M150 60H144V66H150V60Z" fill="white"/>
<path d="M6 66H0V72H6V66Z" fill="white"/>
<path d="M12 66H6V72H12V66Z" fill="white"/>
<path d="M48 66H42V72H48V66Z" fill="white"/>
<path d="M60 66H54V72H60V66Z" fill="white"/>
<path d="M66 66H60V72H66V66Z" fill="white"/>
<path d="M72 66H66V72H72V66Z" fill="white"/>
<path d="M78 66H72V72H78V66Z" fill="white"/>
<path d="M96 66H90V72H96V66Z" fill="white"/>
<path d="M114 66H108V72H114V66Z" fill="white"/>
<path d="M150 66H144V72H150V66Z" fill="white"/>
<path d="M12 72H6V78H12V72Z" fill="white"/>
<path d="M30 72H24V78H30V72Z" fill="white"/>
<path d="M36 72H30V78H36V72Z" fill="white"/>
<path d="M42 72H36V78H42V72Z" fill="white"/>
<path d="M48 72H42V78H48V72Z" fill="white"/>
<path d="M60 72H54V78H60V72Z" fill="white"/>
<path d="M84 72H78V78H84V72Z" fill="white"/>
<path d="M90 72H84V78H90V72Z" fill="white"/>
<path d="M108 72H102V78H108V72Z" fill="white"/>
<path d="M114 72H108V78H114V72Z" fill="white"/>
<path d="M126 72H120V78H126V72Z" fill="white"/>
<path d="M138 72H132V78H138V72Z" fill="white"/>
<path d="M144 72H138V78H144V72Z" fill="white"/>
<path d="M150 72H144V78H150V72Z" fill="white"/>
<path d="M6 78H0V84H6V78Z" fill="white"/>
<path d="M18 78H12V84H18V78Z" fill="white"/>
<path d="M24 78H18V84H24V78Z" fill="white"/>
<path d="M36 78H30V84H36V78Z" fill="white"/>
<path d="M48 78H42V84H48V78Z" fill="white"/>
<path d="M54 78H48V84H54V78Z" fill="white"/>
<path d="M66 78H60V84H66V78Z" fill="white"/>
<path d="M72 78H66V84H72V78Z" fill="white"/>
<path d="M102 78H96V84H102V78Z" fill="white"/>
<path d="M120 78H114V84H120V78Z" fill="white"/>
<path d="M132 78H126V84H132V78Z" fill="white"/>
<path d="M144 78H138V84H144V78Z" fill="white"/>
<path d="M6 84H0V90H6V84Z" fill="white"/>
<path d="M18 84H12V90H18V84Z" fill="white"/>
<path d="M42 84H36V90H42V84Z" fill="white"/>
<path d="M48 84H42V90H48V84Z" fill="white"/>
<path d="M54 84H48V90H54V84Z" fill="white"/>
<path d="M84 84H78V90H84V84Z" fill="white"/>
<path d="M96 84H90V90H96V84Z" fill="white"/>
<path d="M102 84H96V90H102V84Z" fill="white"/>
<path d="M114 84H108V90H114V84Z" fill="white"/>
<path d="M120 84H114V90H120V84Z" fill="white"/>
<path d="M126 84H120V90H126V84Z" fill="white"/>
<path d="M132 84H126V90H132V84Z" fill="white"/>
<path d="M144 84H138V90H144V84Z" fill="white"/>
<path d="M150 84H144V90H150V84Z" fill="white"/>
<path d="M6 90H0V96H6V90Z" fill="white"/>
<path d="M18 90H12V96H18V90Z" fill="white"/>
<path d="M30 90H24V96H30V90Z" fill="white"/>
<path d="M54 90H48V96H54V90Z" fill="white"/>
<path d="M60 90H54V96H60V90Z" fill="white"/>
<path d="M66 90H60V96H66V90Z" fill="white"/>
<path d="M72 90H66V96H72V90Z" fill="white"/>
<path d="M90 90H84V96H90V90Z" fill="white"/>
<path d="M108 90H102V96H108V90Z" fill="white"/>
<path d="M114 90H108V96H114V90Z" fill="white"/>
<path d="M120 90H114V96H120V90Z" fill="white"/>
<path d="M126 90H120V96H126V90Z" fill="white"/>
<path d="M150 90H144V96H150V90Z" fill="white"/>
<path d="M6 96H0V102H6V96Z" fill="white"/>
<path d="M18 96H12V102H18V96Z" fill="white"/>
<path d="M30 96H24V102H30V96Z" fill="white"/>
<path d="M36 96H30V102H36V96Z" fill="white"/>
<path d="M42 96H36V102H42V96Z" fill="white"/>
<path d="M48 96H42V102H48V96Z" fill="white"/>
<path d="M54 96H48V102H54V96Z" fill="white"/>
<path d="M60 96H54V102H60V96Z" fill="white"/>
<path d="M66 96H60V102H66V96Z" fill="white"/>
<path d="M78 96H72V102H78V96Z" fill="white"/>
<path d="M84 96H78V102H84V96Z" fill="white"/>
<path d="M90 96H84V102H90V96Z" fill="white"/>
<path d="M96 96H90V102H96V96Z" fill="white"/>
<path d="M102 96H96V102H102V96Z" fill="white"/>
<path d="M108 96H102V102H108V96Z" fill="white"/>
<path d="M114 96H108V102H114V96Z" fill="white"/>
<path d="M120 96H114V102H120V96Z" fill="white"/>
<path d="M126 96H120V102H126V96Z" fill="white"/>
<path d="M138 96H132V102H138V96Z" fill="white"/>
<path d="M54 102H48V108H54V102Z" fill="white"/>
<path d="M66 102H60V108H66V102Z" fill="white"/>
<path d="M72 102H66V108H72V102Z" fill="white"/>
<path d="M84 102H78V108H84V102Z" fill="white"/>
<path d="M102 102H96V108H102V102Z" fill="white"/>
<path d="M126 102H120V108H126V102Z" fill="white"/>
<path d="M132 102H126V108H132V102Z" fill="white"/>
<path d="M6 108H0V114H6V108Z" fill="white"/>
<path d="M12 108H6V114H12V108Z" fill="white"/>
<path d="M18 108H12V114H18V108Z" fill="white"/>
<path d="M24 108H18V114H24V108Z" fill="white"/>
<path d="M30 108H24V114H30V108Z" fill="white"/>
<path d="M36 108H30V114H36V108Z" fill="white"/>
<path d="M42 108H36V114H42V108Z" fill="white"/>
<path d="M54 108H48V114H54V108Z" fill="white"/>
<path d="M66 108H60V114H66V108Z" fill="white"/>
<path d="M78 108H72V114H78V108Z" fill="white"/>
<path d="M84 108H78V114H84V108Z" fill="white"/>
<path d="M90 108H84V114H90V108Z" fill="white"/>
<path d="M102 108H96V114H102V108Z" fill="white"/>
<path d="M114 108H108V114H114V108Z" fill="white"/>
<path d="M126 108H120V114H126V108Z" fill="white"/>
<path d="M138 108H132V114H138V108Z" fill="white"/>
<path d="M144 108H138V114H144V108Z" fill="white"/>
<path d="M150 108H144V114H150V108Z" fill="white"/>
<path d="M6 114H0V120H6V114Z" fill="white"/>
<path d="M42 114H36V120H42V114Z" fill="white"/>
<path d="M60 114H54V120H60V114Z" fill="white"/>
<path d="M90 114H84V120H90V114Z" fill="white"/>
<path d="M102 114H96V120H102V114Z" fill="white"/>
<path d="M126 114H120V120H126V114Z" fill="white"/>
<path d="M132 114H126V120H132V114Z" fill="white"/>
<path d="M6 120H0V126H6V120Z" fill="white"/>
<path d="M18 120H12V126H18V120Z" fill="white"/>
<path d="M24 120H18V126H24V120Z" fill="white"/>
<path d="M30 120H24V126H30V120Z" fill="white"/>
<path d="M42 120H36V126H42V120Z" fill="white"/>
<path d="M54 120H48V126H54V120Z" fill="white"/>
<path d="M60 120H54V126H60V120Z" fill="white"/>
<path d="M84 120H78V126H84V120Z" fill="white"/>
<path d="M90 120H84V126H90V120Z" fill="white"/>
<path d="M96 120H90V126H96V120Z" fill="white"/>
<path d="M102 120H96V126H102V120Z" fill="white"/>
<path d="M108 120H102V126H108V120Z" fill="white"/>
<path d="M114 120H108V126H114V120Z" fill="white"/>
<path d="M120 120H114V126H120V120Z" fill="white"/>
<path d="M126 120H120V126H126V120Z" fill="white"/>
<path d="M138 120H132V126H138V120Z" fill="white"/>
<path d="M144 120H138V126H144V120Z" fill="white"/>
<path d="M6 126H0V132H6V126Z" fill="white"/>
<path d="M18 126H12V132H18V126Z" fill="white"/>
<path d="M24 126H18V132H24V126Z" fill="white"/>
<path d="M30 126H24V132H30V126Z" fill="white"/>
<path d="M42 126H36V132H42V126Z" fill="white"/>
<path d="M54 126H48V132H54V126Z" fill="white"/>
<path d="M66 126H60V132H66V126Z" fill="white"/>
<path d="M72 126H66V132H72V126Z" fill="white"/>
<path d="M84 126H78V132H84V126Z" fill="white"/>
<path d="M96 126H90V132H96V126Z" fill="white"/>
<path d="M102 126H96V132H102V126Z" fill="white"/>
<path d="M108 126H102V132H108V126Z" fill="white"/>
<path d="M114 126H108V132H114V126Z" fill="white"/>
<path d="M126 126H120V132H126V126Z" fill="white"/>
<path d="M132 126H126V132H132V126Z" fill="white"/>
<path d="M138 126H132V132H138V126Z" fill="white"/>
<path d="M144 126H138V132H144V126Z" fill="white"/>
<path d="M150 126H144V132H150V126Z" fill="white"/>
<path d="M6 132H0V138H6V132Z" fill="white"/>
<path d="M18 132H12V138H18V132Z" fill="white"/>
<path d="M24 132H18V138H24V132Z" fill="white"/>
<path d="M30 132H24V138H30V132Z" fill="white"/>
<path d="M42 132H36V138H42V132Z" fill="white"/>
<path d="M54 132H48V138H54V132Z" fill="white"/>
<path d="M60 132H54V138H60V132Z" fill="white"/>
<path d="M90 132H84V138H90V132Z" fill="white"/>
<path d="M102 132H96V138H102V132Z" fill="white"/>
<path d="M108 132H102V138H108V132Z" fill="white"/>
<path d="M132 132H126V138H132V132Z" fill="white"/>
<path d="M138 132H132V138H138V132Z" fill="white"/>
<path d="M150 132H144V138H150V132Z" fill="white"/>
<path d="M6 138H0V144H6V138Z" fill="white"/>
<path d="M42 138H36V144H42V138Z" fill="white"/>
<path d="M54 138H48V144H54V138Z" fill="white"/>
<path d="M72 138H66V144H72V138Z" fill="white"/>
<path d="M90 138H84V144H90V138Z" fill="white"/>
<path d="M96 138H90V144H96V138Z" fill="white"/>
<path d="M102 138H96V144H102V138Z" fill="white"/>
<path d="M108 138H102V144H108V138Z" fill="white"/>
<path d="M114 138H108V144H114V138Z" fill="white"/>
<path d="M120 138H114V144H120V138Z" fill="white"/>
<path d="M126 138H120V144H126V138Z" fill="white"/>
<path d="M132 138H126V144H132V138Z" fill="white"/>
<path d="M150 138H144V144H150V138Z" fill="white"/>
<path d="M6 144H0V150H6V144Z" fill="white"/>
<path d="M12 144H6V150H12V144Z" fill="white"/>
<path d="M18 144H12V150H18V144Z" fill="white"/>
<path d="M24 144H18V150H24V144Z" fill="white"/>
<path d="M30 144H24V150H30V144Z" fill="white"/>
<path d="M36 144H30V150H36V144Z" fill="white"/>
<path d="M42 144H36V150H42V144Z" fill="white"/>
<path d="M54 144H48V150H54V144Z" fill="white"/>
<path d="M60 144H54V150H60V144Z" fill="white"/>
<path d="M66 144H60V150H66V144Z" fill="white"/>
<path d="M72 144H66V150H72V144Z" fill="white"/>
<path d="M78 144H72V150H78V144Z" fill="white"/>
<path d="M84 144H78V150H84V144Z" fill="white"/>
<path d="M96 144H90V150H96V144Z" fill="white"/>
<path d="M114 144H108V150H114V144Z" fill="white"/>
<path d="M120 144H114V150H120V144Z" fill="white"/>
<path d="M126 144H120V150H126V144Z" fill="white"/>
<path d="M132 144H126V150H132V144Z" fill="white"/>
<path d="M138 144H132V150H138V144Z" fill="white"/>
<path d="M144 144H138V150H144V144Z" fill="white"/>
<path d="M150 144H144V150H150V144Z" fill="white"/>
<rect width="48" height="48" transform="translate(51 51)" fill="white"/>
<path fill-rule="evenodd" clip-rule="evenodd" d="M84.3005 69.1418C84.0306 71.9691 82.8581 78.8324 82.2629 81.9995C82.011 83.3409 81.5132 83.7895 81.0334 83.8327C79.9883 83.9281 79.1952 83.1456 78.1831 82.4869C76.5998 81.4555 75.7046 80.8131 74.1678 79.8056C72.391 78.6416 73.5425 78.0022 74.5546 76.9575C74.82 76.6832 79.4231 72.5206 79.513 72.1435C79.5235 72.0958 79.5355 71.9199 79.4291 71.8275C79.3226 71.7351 79.1682 71.7664 79.0572 71.7918C78.8983 71.8275 76.3688 73.4893 71.4674 76.7771C70.7492 77.2675 70.0985 77.5059 69.5153 77.494C68.8735 77.4806 67.638 77.1333 66.7189 76.8353C65.5929 76.4716 64.6963 76.2779 64.7743 75.6608C64.8147 75.3389 65.2601 75.0095 66.1117 74.6727C71.3565 72.4013 74.8545 70.9035 76.6042 70.1791C81.6016 68.1134 82.6392 67.7543 83.3169 67.7423C84.1655 67.7304 84.3695 68.4264 84.3005 69.1418Z" stroke="#846DF2" stroke-width="1.5"/>
</svg>
