<svg width="150" height="150" viewBox="0 0 150 150" fill="none" xmlns="http://www.w3.org/2000/svg">
<path d="M43.998 5.32209C45.4676 5.32209 46.659 4.1307 46.659 2.66104C46.659 1.19139 45.4676 0 43.998 0C42.5283 0 41.3369 1.19139 41.3369 2.66104C41.3369 4.1307 42.5283 5.32209 43.998 5.32209Z" fill="white"/>
<path d="M49.1645 5.32209C50.6341 5.32209 51.8255 4.1307 51.8255 2.66104C51.8255 1.19139 50.6341 0 49.1645 0C47.6948 0 46.5034 1.19139 46.5034 2.66104C46.5034 4.1307 47.6948 5.32209 49.1645 5.32209Z" fill="white"/>
<path d="M59.4989 5.32209C60.9686 5.32209 62.16 4.1307 62.16 2.66104C62.16 1.19139 60.9686 0 59.4989 0C58.0293 0 56.8379 1.19139 56.8379 2.66104C56.8379 4.1307 58.0293 5.32209 59.4989 5.32209Z" fill="white"/>
<path d="M64.6659 5.32209C66.1356 5.32209 67.327 4.1307 67.327 2.66104C67.327 1.19139 66.1356 0 64.6659 0C63.1963 0 62.0049 1.19139 62.0049 2.66104C62.0049 4.1307 63.1963 5.32209 64.6659 5.32209Z" fill="white"/>
<path d="M85.3344 5.32209C86.804 5.32209 87.9954 4.1307 87.9954 2.66104C87.9954 1.19139 86.804 0 85.3344 0C83.8647 0 82.6733 1.19139 82.6733 2.66104C82.6733 4.1307 83.8647 5.32209 85.3344 5.32209Z" fill="white"/>
<path d="M90.5014 5.32209C91.971 5.32209 93.1624 4.1307 93.1624 2.66104C93.1624 1.19139 91.971 0 90.5014 0C89.0317 0 87.8403 1.19139 87.8403 2.66104C87.8403 4.1307 89.0317 5.32209 90.5014 5.32209Z" fill="white"/>
<path d="M95.6684 5.32209C97.138 5.32209 98.3294 4.1307 98.3294 2.66104C98.3294 1.19139 97.138 0 95.6684 0C94.1987 0 93.0073 1.19139 93.0073 2.66104C93.0073 4.1307 94.1987 5.32209 95.6684 5.32209Z" fill="white"/>
<path d="M106.003 5.32209C107.472 5.32209 108.664 4.1307 108.664 2.66104C108.664 1.19139 107.472 0 106.003 0C104.533 0 103.342 1.19139 103.342 2.66104C103.342 4.1307 104.533 5.32209 106.003 5.32209Z" fill="white"/>
<path d="M54.3319 10.4861C55.8016 10.4861 56.993 9.29476 56.993 7.82511C56.993 6.35545 55.8016 5.16406 54.3319 5.16406C52.8623 5.16406 51.6709 6.35545 51.6709 7.82511C51.6709 9.29476 52.8623 10.4861 54.3319 10.4861Z" fill="white"/>
<path d="M69.8329 10.4861C71.3026 10.4861 72.494 9.29476 72.494 7.82511C72.494 6.35545 71.3026 5.16406 69.8329 5.16406C68.3633 5.16406 67.1719 6.35545 67.1719 7.82511C67.1719 9.29476 68.3633 10.4861 69.8329 10.4861Z" fill="white"/>
<path d="M75.0004 10.4861C76.4701 10.4861 77.6614 9.29476 77.6614 7.82511C77.6614 6.35545 76.4701 5.16406 75.0004 5.16406C73.5307 5.16406 72.3394 6.35545 72.3394 7.82511C72.3394 9.29476 73.5307 10.4861 75.0004 10.4861Z" fill="white"/>
<path d="M80.1674 10.4861C81.637 10.4861 82.8284 9.29476 82.8284 7.82511C82.8284 6.35545 81.637 5.16406 80.1674 5.16406C78.6977 5.16406 77.5063 6.35545 77.5063 7.82511C77.5063 9.29476 78.6977 10.4861 80.1674 10.4861Z" fill="white"/>
<path d="M85.3344 10.4861C86.804 10.4861 87.9954 9.29476 87.9954 7.82511C87.9954 6.35545 86.804 5.16406 85.3344 5.16406C83.8647 5.16406 82.6733 6.35545 82.6733 7.82511C82.6733 9.29476 83.8647 10.4861 85.3344 10.4861Z" fill="white"/>
<path d="M100.836 10.4861C102.306 10.4861 103.497 9.29476 103.497 7.82511C103.497 6.35545 102.306 5.16406 100.836 5.16406C99.3662 5.16406 98.1748 6.35545 98.1748 7.82511C98.1748 9.29476 99.3662 10.4861 100.836 10.4861Z" fill="white"/>
<path d="M49.1645 15.658C50.6341 15.658 51.8255 14.4666 51.8255 12.997C51.8255 11.5273 50.6341 10.3359 49.1645 10.3359C47.6948 10.3359 46.5034 11.5273 46.5034 12.997C46.5034 14.4666 47.6948 15.658 49.1645 15.658Z" fill="white"/>
<path d="M100.836 15.658C102.306 15.658 103.497 14.4666 103.497 12.997C103.497 11.5273 102.306 10.3359 100.836 10.3359C99.3662 10.3359 98.1748 11.5273 98.1748 12.997C98.1748 14.4666 99.3662 15.658 100.836 15.658Z" fill="white"/>
<path d="M106.003 15.658C107.472 15.658 108.664 14.4666 108.664 12.997C108.664 11.5273 107.472 10.3359 106.003 10.3359C104.533 10.3359 103.342 11.5273 103.342 12.997C103.342 14.4666 104.533 15.658 106.003 15.658Z" fill="white"/>
<path d="M80.1674 20.8221C81.637 20.8221 82.8284 19.6307 82.8284 18.161C82.8284 16.6914 81.637 15.5 80.1674 15.5C78.6977 15.5 77.5063 16.6914 77.5063 18.161C77.5063 19.6307 78.6977 20.8221 80.1674 20.8221Z" fill="white"/>
<path d="M90.5014 20.8221C91.971 20.8221 93.1624 19.6307 93.1624 18.161C93.1624 16.6914 91.971 15.5 90.5014 15.5C89.0317 15.5 87.8403 16.6914 87.8403 18.161C87.8403 19.6307 89.0317 20.8221 90.5014 20.8221Z" fill="white"/>
<path d="M100.836 20.8221C102.306 20.8221 103.497 19.6307 103.497 18.161C103.497 16.6914 102.306 15.5 100.836 15.5C99.3662 15.5 98.1748 16.6914 98.1748 18.161C98.1748 19.6307 99.3662 20.8221 100.836 20.8221Z" fill="white"/>
<path d="M43.998 25.9861C45.4676 25.9861 46.659 24.7948 46.659 23.3251C46.659 21.8555 45.4676 20.6641 43.998 20.6641C42.5283 20.6641 41.3369 21.8555 41.3369 23.3251C41.3369 24.7948 42.5283 25.9861 43.998 25.9861Z" fill="white"/>
<path d="M64.6659 25.9861C66.1356 25.9861 67.327 24.7948 67.327 23.3251C67.327 21.8555 66.1356 20.6641 64.6659 20.6641C63.1963 20.6641 62.0049 21.8555 62.0049 23.3251C62.0049 24.7948 63.1963 25.9861 64.6659 25.9861Z" fill="white"/>
<path d="M95.6684 25.9861C97.138 25.9861 98.3294 24.7948 98.3294 23.3251C98.3294 21.8555 97.138 20.6641 95.6684 20.6641C94.1987 20.6641 93.0073 21.8555 93.0073 23.3251C93.0073 24.7948 94.1987 25.9861 95.6684 25.9861Z" fill="white"/>
<path d="M100.836 25.9861C102.306 25.9861 103.497 24.7948 103.497 23.3251C103.497 21.8555 102.306 20.6641 100.836 20.6641C99.3662 20.6641 98.1748 21.8555 98.1748 23.3251C98.1748 24.7948 99.3662 25.9861 100.836 25.9861Z" fill="white"/>
<path d="M106.003 25.9861C107.472 25.9861 108.664 24.7948 108.664 23.3251C108.664 21.8555 107.472 20.6641 106.003 20.6641C104.533 20.6641 103.342 21.8555 103.342 23.3251C103.342 24.7948 104.533 25.9861 106.003 25.9861Z" fill="white"/>
<path d="M43.998 31.158C45.4676 31.158 46.659 29.9666 46.659 28.497C46.659 27.0273 45.4676 25.8359 43.998 25.8359C42.5283 25.8359 41.3369 27.0273 41.3369 28.497C41.3369 29.9666 42.5283 31.158 43.998 31.158Z" fill="white"/>
<path d="M49.1645 31.158C50.6341 31.158 51.8255 29.9666 51.8255 28.497C51.8255 27.0273 50.6341 25.8359 49.1645 25.8359C47.6948 25.8359 46.5034 27.0273 46.5034 28.497C46.5034 29.9666 47.6948 31.158 49.1645 31.158Z" fill="white"/>
<path d="M54.3319 31.158C55.8016 31.158 56.993 29.9666 56.993 28.497C56.993 27.0273 55.8016 25.8359 54.3319 25.8359C52.8623 25.8359 51.6709 27.0273 51.6709 28.497C51.6709 29.9666 52.8623 31.158 54.3319 31.158Z" fill="white"/>
<path d="M59.4989 31.158C60.9686 31.158 62.16 29.9666 62.16 28.497C62.16 27.0273 60.9686 25.8359 59.4989 25.8359C58.0293 25.8359 56.8379 27.0273 56.8379 28.497C56.8379 29.9666 58.0293 31.158 59.4989 31.158Z" fill="white"/>
<path d="M64.6659 31.158C66.1356 31.158 67.327 29.9666 67.327 28.497C67.327 27.0273 66.1356 25.8359 64.6659 25.8359C63.1963 25.8359 62.0049 27.0273 62.0049 28.497C62.0049 29.9666 63.1963 31.158 64.6659 31.158Z" fill="white"/>
<path d="M80.1674 31.158C81.637 31.158 82.8284 29.9666 82.8284 28.497C82.8284 27.0273 81.637 25.8359 80.1674 25.8359C78.6977 25.8359 77.5063 27.0273 77.5063 28.497C77.5063 29.9666 78.6977 31.158 80.1674 31.158Z" fill="white"/>
<path d="M85.3344 31.158C86.804 31.158 87.9954 29.9666 87.9954 28.497C87.9954 27.0273 86.804 25.8359 85.3344 25.8359C83.8647 25.8359 82.6733 27.0273 82.6733 28.497C82.6733 29.9666 83.8647 31.158 85.3344 31.158Z" fill="white"/>
<path d="M95.6684 31.158C97.138 31.158 98.3294 29.9666 98.3294 28.497C98.3294 27.0273 97.138 25.8359 95.6684 25.8359C94.1987 25.8359 93.0073 27.0273 93.0073 28.497C93.0073 29.9666 94.1987 31.158 95.6684 31.158Z" fill="white"/>
<path d="M43.998 36.3299C45.4676 36.3299 46.659 35.1385 46.659 33.6689C46.659 32.1992 45.4676 31.0078 43.998 31.0078C42.5283 31.0078 41.3369 32.1992 41.3369 33.6689C41.3369 35.1385 42.5283 36.3299 43.998 36.3299Z" fill="white"/>
<path d="M54.3319 36.3299C55.8016 36.3299 56.993 35.1385 56.993 33.6689C56.993 32.1992 55.8016 31.0078 54.3319 31.0078C52.8623 31.0078 51.6709 32.1992 51.6709 33.6689C51.6709 35.1385 52.8623 36.3299 54.3319 36.3299Z" fill="white"/>
<path d="M64.6659 36.3299C66.1356 36.3299 67.327 35.1385 67.327 33.6689C67.327 32.1992 66.1356 31.0078 64.6659 31.0078C63.1963 31.0078 62.0049 32.1992 62.0049 33.6689C62.0049 35.1385 63.1963 36.3299 64.6659 36.3299Z" fill="white"/>
<path d="M75.0004 36.3299C76.4701 36.3299 77.6614 35.1385 77.6614 33.6689C77.6614 32.1992 76.4701 31.0078 75.0004 31.0078C73.5307 31.0078 72.3394 32.1992 72.3394 33.6689C72.3394 35.1385 73.5307 36.3299 75.0004 36.3299Z" fill="white"/>
<path d="M85.3344 36.3299C86.804 36.3299 87.9954 35.1385 87.9954 33.6689C87.9954 32.1992 86.804 31.0078 85.3344 31.0078C83.8647 31.0078 82.6733 32.1992 82.6733 33.6689C82.6733 35.1385 83.8647 36.3299 85.3344 36.3299Z" fill="white"/>
<path d="M95.6684 36.3299C97.138 36.3299 98.3294 35.1385 98.3294 33.6689C98.3294 32.1992 97.138 31.0078 95.6684 31.0078C94.1987 31.0078 93.0073 32.1992 93.0073 33.6689C93.0073 35.1385 94.1987 36.3299 95.6684 36.3299Z" fill="white"/>
<path d="M106.003 36.3299C107.472 36.3299 108.664 35.1385 108.664 33.6689C108.664 32.1992 107.472 31.0078 106.003 31.0078C104.533 31.0078 103.342 32.1992 103.342 33.6689C103.342 35.1385 104.533 36.3299 106.003 36.3299Z" fill="white"/>
<path d="M49.1645 41.494C50.6341 41.494 51.8255 40.3026 51.8255 38.8329C51.8255 37.3633 50.6341 36.1719 49.1645 36.1719C47.6948 36.1719 46.5034 37.3633 46.5034 38.8329C46.5034 40.3026 47.6948 41.494 49.1645 41.494Z" fill="white"/>
<path d="M54.3319 41.494C55.8016 41.494 56.993 40.3026 56.993 38.8329C56.993 37.3633 55.8016 36.1719 54.3319 36.1719C52.8623 36.1719 51.6709 37.3633 51.6709 38.8329C51.6709 40.3026 52.8623 41.494 54.3319 41.494Z" fill="white"/>
<path d="M59.4989 41.494C60.9686 41.494 62.16 40.3026 62.16 38.8329C62.16 37.3633 60.9686 36.1719 59.4989 36.1719C58.0293 36.1719 56.8379 37.3633 56.8379 38.8329C56.8379 40.3026 58.0293 41.494 59.4989 41.494Z" fill="white"/>
<path d="M69.8329 41.494C71.3026 41.494 72.494 40.3026 72.494 38.8329C72.494 37.3633 71.3026 36.1719 69.8329 36.1719C68.3633 36.1719 67.1719 37.3633 67.1719 38.8329C67.1719 40.3026 68.3633 41.494 69.8329 41.494Z" fill="white"/>
<path d="M75.0004 41.494C76.4701 41.494 77.6614 40.3026 77.6614 38.8329C77.6614 37.3633 76.4701 36.1719 75.0004 36.1719C73.5307 36.1719 72.3394 37.3633 72.3394 38.8329C72.3394 40.3026 73.5307 41.494 75.0004 41.494Z" fill="white"/>
<path d="M80.1674 41.494C81.637 41.494 82.8284 40.3026 82.8284 38.8329C82.8284 37.3633 81.637 36.1719 80.1674 36.1719C78.6977 36.1719 77.5063 37.3633 77.5063 38.8329C77.5063 40.3026 78.6977 41.494 80.1674 41.494Z" fill="white"/>
<path d="M85.3344 41.494C86.804 41.494 87.9954 40.3026 87.9954 38.8329C87.9954 37.3633 86.804 36.1719 85.3344 36.1719C83.8647 36.1719 82.6733 37.3633 82.6733 38.8329C82.6733 40.3026 83.8647 41.494 85.3344 41.494Z" fill="white"/>
<path d="M100.836 41.494C102.306 41.494 103.497 40.3026 103.497 38.8329C103.497 37.3633 102.306 36.1719 100.836 36.1719C99.3662 36.1719 98.1748 37.3633 98.1748 38.8329C98.1748 40.3026 99.3662 41.494 100.836 41.494Z" fill="white"/>
<path d="M106.003 41.494C107.472 41.494 108.664 40.3026 108.664 38.8329C108.664 37.3633 107.472 36.1719 106.003 36.1719C104.533 36.1719 103.342 37.3633 103.342 38.8329C103.342 40.3026 104.533 41.494 106.003 41.494Z" fill="white"/>
<path d="M7.82852 46.658C9.29818 46.658 10.4896 45.4666 10.4896 43.997C10.4896 42.5273 9.29818 41.3359 7.82852 41.3359C6.35887 41.3359 5.16748 42.5273 5.16748 43.997C5.16748 45.4666 6.35887 46.658 7.82852 46.658Z" fill="white"/>
<path d="M12.9955 46.658C14.4652 46.658 15.6566 45.4666 15.6566 43.997C15.6566 42.5273 14.4652 41.3359 12.9955 41.3359C11.5259 41.3359 10.3345 42.5273 10.3345 43.997C10.3345 45.4666 11.5259 46.658 12.9955 46.658Z" fill="white"/>
<path d="M18.1625 46.658C19.6322 46.658 20.8236 45.4666 20.8236 43.997C20.8236 42.5273 19.6322 41.3359 18.1625 41.3359C16.6929 41.3359 15.5015 42.5273 15.5015 43.997C15.5015 45.4666 16.6929 46.658 18.1625 46.658Z" fill="white"/>
<path d="M23.3295 46.658C24.7992 46.658 25.9905 45.4666 25.9905 43.997C25.9905 42.5273 24.7992 41.3359 23.3295 41.3359C21.8598 41.3359 20.6685 42.5273 20.6685 43.997C20.6685 45.4666 21.8598 46.658 23.3295 46.658Z" fill="white"/>
<path d="M28.4965 46.658C29.9661 46.658 31.1575 45.4666 31.1575 43.997C31.1575 42.5273 29.9661 41.3359 28.4965 41.3359C27.0268 41.3359 25.8354 42.5273 25.8354 43.997C25.8354 45.4666 27.0268 46.658 28.4965 46.658Z" fill="white"/>
<path d="M33.664 46.658C35.1336 46.658 36.325 45.4666 36.325 43.997C36.325 42.5273 35.1336 41.3359 33.664 41.3359C32.1943 41.3359 31.0029 42.5273 31.0029 43.997C31.0029 45.4666 32.1943 46.658 33.664 46.658Z" fill="white"/>
<path d="M38.831 46.658C40.3006 46.658 41.492 45.4666 41.492 43.997C41.492 42.5273 40.3006 41.3359 38.831 41.3359C37.3613 41.3359 36.1699 42.5273 36.1699 43.997C36.1699 45.4666 37.3613 46.658 38.831 46.658Z" fill="white"/>
<path d="M54.3319 46.658C55.8016 46.658 56.993 45.4666 56.993 43.997C56.993 42.5273 55.8016 41.3359 54.3319 41.3359C52.8623 41.3359 51.6709 42.5273 51.6709 43.997C51.6709 45.4666 52.8623 46.658 54.3319 46.658Z" fill="white"/>
<path d="M59.4989 46.658C60.9686 46.658 62.16 45.4666 62.16 43.997C62.16 42.5273 60.9686 41.3359 59.4989 41.3359C58.0293 41.3359 56.8379 42.5273 56.8379 43.997C56.8379 45.4666 58.0293 46.658 59.4989 46.658Z" fill="white"/>
<path d="M64.6659 46.658C66.1356 46.658 67.327 45.4666 67.327 43.997C67.327 42.5273 66.1356 41.3359 64.6659 41.3359C63.1963 41.3359 62.0049 42.5273 62.0049 43.997C62.0049 45.4666 63.1963 46.658 64.6659 46.658Z" fill="white"/>
<path d="M69.8329 46.658C71.3026 46.658 72.494 45.4666 72.494 43.997C72.494 42.5273 71.3026 41.3359 69.8329 41.3359C68.3633 41.3359 67.1719 42.5273 67.1719 43.997C67.1719 45.4666 68.3633 46.658 69.8329 46.658Z" fill="white"/>
<path d="M75.0004 46.658C76.4701 46.658 77.6614 45.4666 77.6614 43.997C77.6614 42.5273 76.4701 41.3359 75.0004 41.3359C73.5307 41.3359 72.3394 42.5273 72.3394 43.997C72.3394 45.4666 73.5307 46.658 75.0004 46.658Z" fill="white"/>
<path d="M80.1674 46.658C81.637 46.658 82.8284 45.4666 82.8284 43.997C82.8284 42.5273 81.637 41.3359 80.1674 41.3359C78.6977 41.3359 77.5063 42.5273 77.5063 43.997C77.5063 45.4666 78.6977 46.658 80.1674 46.658Z" fill="white"/>
<path d="M95.6684 46.658C97.138 46.658 98.3294 45.4666 98.3294 43.997C98.3294 42.5273 97.138 41.3359 95.6684 41.3359C94.1987 41.3359 93.0073 42.5273 93.0073 43.997C93.0073 45.4666 94.1987 46.658 95.6684 46.658Z" fill="white"/>
<path d="M100.836 46.658C102.306 46.658 103.497 45.4666 103.497 43.997C103.497 42.5273 102.306 41.3359 100.836 41.3359C99.3662 41.3359 98.1748 42.5273 98.1748 43.997C98.1748 45.4666 99.3662 46.658 100.836 46.658Z" fill="white"/>
<path d="M121.504 46.658C122.974 46.658 124.165 45.4666 124.165 43.997C124.165 42.5273 122.974 41.3359 121.504 41.3359C120.035 41.3359 118.843 42.5273 118.843 43.997C118.843 45.4666 120.035 46.658 121.504 46.658Z" fill="white"/>
<path d="M126.671 46.658C128.141 46.658 129.332 45.4666 129.332 43.997C129.332 42.5273 128.141 41.3359 126.671 41.3359C125.202 41.3359 124.01 42.5273 124.01 43.997C124.01 45.4666 125.202 46.658 126.671 46.658Z" fill="white"/>
<path d="M147.339 46.658C148.809 46.658 150 45.4666 150 43.997C150 42.5273 148.809 41.3359 147.339 41.3359C145.87 41.3359 144.678 42.5273 144.678 43.997C144.678 45.4666 145.87 46.658 147.339 46.658Z" fill="white"/>
<path d="M2.66104 51.8299C4.1307 51.8299 5.32209 50.6385 5.32209 49.1689C5.32209 47.6992 4.1307 46.5078 2.66104 46.5078C1.19139 46.5078 0 47.6992 0 49.1689C0 50.6385 1.19139 51.8299 2.66104 51.8299Z" fill="white"/>
<path d="M7.82852 51.8299C9.29818 51.8299 10.4896 50.6385 10.4896 49.1689C10.4896 47.6992 9.29818 46.5078 7.82852 46.5078C6.35887 46.5078 5.16748 47.6992 5.16748 49.1689C5.16748 50.6385 6.35887 51.8299 7.82852 51.8299Z" fill="white"/>
<path d="M12.9955 51.8299C14.4652 51.8299 15.6566 50.6385 15.6566 49.1689C15.6566 47.6992 14.4652 46.5078 12.9955 46.5078C11.5259 46.5078 10.3345 47.6992 10.3345 49.1689C10.3345 50.6385 11.5259 51.8299 12.9955 51.8299Z" fill="white"/>
<path d="M28.4965 51.8299C29.9661 51.8299 31.1575 50.6385 31.1575 49.1689C31.1575 47.6992 29.9661 46.5078 28.4965 46.5078C27.0268 46.5078 25.8354 47.6992 25.8354 49.1689C25.8354 50.6385 27.0268 51.8299 28.4965 51.8299Z" fill="white"/>
<path d="M43.998 51.8299C45.4676 51.8299 46.659 50.6385 46.659 49.1689C46.659 47.6992 45.4676 46.5078 43.998 46.5078C42.5283 46.5078 41.3369 47.6992 41.3369 49.1689C41.3369 50.6385 42.5283 51.8299 43.998 51.8299Z" fill="white"/>
<path d="M49.1645 51.8299C50.6341 51.8299 51.8255 50.6385 51.8255 49.1689C51.8255 47.6992 50.6341 46.5078 49.1645 46.5078C47.6948 46.5078 46.5034 47.6992 46.5034 49.1689C46.5034 50.6385 47.6948 51.8299 49.1645 51.8299Z" fill="white"/>
<path d="M69.8329 51.8299C71.3026 51.8299 72.494 50.6385 72.494 49.1689C72.494 47.6992 71.3026 46.5078 69.8329 46.5078C68.3633 46.5078 67.1719 47.6992 67.1719 49.1689C67.1719 50.6385 68.3633 51.8299 69.8329 51.8299Z" fill="white"/>
<path d="M80.1674 51.8299C81.637 51.8299 82.8284 50.6385 82.8284 49.1689C82.8284 47.6992 81.637 46.5078 80.1674 46.5078C78.6977 46.5078 77.5063 47.6992 77.5063 49.1689C77.5063 50.6385 78.6977 51.8299 80.1674 51.8299Z" fill="white"/>
<path d="M116.337 51.8299C117.806 51.8299 118.998 50.6385 118.998 49.1689C118.998 47.6992 117.806 46.5078 116.337 46.5078C114.867 46.5078 113.676 47.6992 113.676 49.1689C113.676 50.6385 114.867 51.8299 116.337 51.8299Z" fill="white"/>
<path d="M121.504 51.8299C122.974 51.8299 124.165 50.6385 124.165 49.1689C124.165 47.6992 122.974 46.5078 121.504 46.5078C120.035 46.5078 118.843 47.6992 118.843 49.1689C118.843 50.6385 120.035 51.8299 121.504 51.8299Z" fill="white"/>
<path d="M126.671 51.8299C128.141 51.8299 129.332 50.6385 129.332 49.1689C129.332 47.6992 128.141 46.5078 126.671 46.5078C125.202 46.5078 124.01 47.6992 124.01 49.1689C124.01 50.6385 125.202 51.8299 126.671 51.8299Z" fill="white"/>
<path d="M131.838 51.8299C133.307 51.8299 134.499 50.6385 134.499 49.1689C134.499 47.6992 133.307 46.5078 131.838 46.5078C130.368 46.5078 129.177 47.6992 129.177 49.1689C129.177 50.6385 130.368 51.8299 131.838 51.8299Z" fill="white"/>
<path d="M137.005 51.8299C138.474 51.8299 139.666 50.6385 139.666 49.1689C139.666 47.6992 138.474 46.5078 137.005 46.5078C135.535 46.5078 134.344 47.6992 134.344 49.1689C134.344 50.6385 135.535 51.8299 137.005 51.8299Z" fill="white"/>
<path d="M147.339 51.8299C148.809 51.8299 150 50.6385 150 49.1689C150 47.6992 148.809 46.5078 147.339 46.5078C145.87 46.5078 144.678 47.6992 144.678 49.1689C144.678 50.6385 145.87 51.8299 147.339 51.8299Z" fill="white"/>
<path d="M2.66104 56.994C4.1307 56.994 5.32209 55.8026 5.32209 54.3329C5.32209 52.8633 4.1307 51.6719 2.66104 51.6719C1.19139 51.6719 0 52.8633 0 54.3329C0 55.8026 1.19139 56.994 2.66104 56.994Z" fill="white"/>
<path d="M18.1625 56.994C19.6322 56.994 20.8236 55.8026 20.8236 54.3329C20.8236 52.8633 19.6322 51.6719 18.1625 51.6719C16.6929 51.6719 15.5015 52.8633 15.5015 54.3329C15.5015 55.8026 16.6929 56.994 18.1625 56.994Z" fill="white"/>
<path d="M28.4965 56.994C29.9661 56.994 31.1575 55.8026 31.1575 54.3329C31.1575 52.8633 29.9661 51.6719 28.4965 51.6719C27.0268 51.6719 25.8354 52.8633 25.8354 54.3329C25.8354 55.8026 27.0268 56.994 28.4965 56.994Z" fill="white"/>
<path d="M33.664 56.994C35.1336 56.994 36.325 55.8026 36.325 54.3329C36.325 52.8633 35.1336 51.6719 33.664 51.6719C32.1943 51.6719 31.0029 52.8633 31.0029 54.3329C31.0029 55.8026 32.1943 56.994 33.664 56.994Z" fill="white"/>
<path d="M43.998 56.994C45.4676 56.994 46.659 55.8026 46.659 54.3329C46.659 52.8633 45.4676 51.6719 43.998 51.6719C42.5283 51.6719 41.3369 52.8633 41.3369 54.3329C41.3369 55.8026 42.5283 56.994 43.998 56.994Z" fill="white"/>
<path d="M49.1645 56.994C50.6341 56.994 51.8255 55.8026 51.8255 54.3329C51.8255 52.8633 50.6341 51.6719 49.1645 51.6719C47.6948 51.6719 46.5034 52.8633 46.5034 54.3329C46.5034 55.8026 47.6948 56.994 49.1645 56.994Z" fill="white"/>
<path d="M59.4989 56.994C60.9686 56.994 62.16 55.8026 62.16 54.3329C62.16 52.8633 60.9686 51.6719 59.4989 51.6719C58.0293 51.6719 56.8379 52.8633 56.8379 54.3329C56.8379 55.8026 58.0293 56.994 59.4989 56.994Z" fill="white"/>
<path d="M64.6659 56.994C66.1356 56.994 67.327 55.8026 67.327 54.3329C67.327 52.8633 66.1356 51.6719 64.6659 51.6719C63.1963 51.6719 62.0049 52.8633 62.0049 54.3329C62.0049 55.8026 63.1963 56.994 64.6659 56.994Z" fill="white"/>
<path d="M85.3344 56.994C86.804 56.994 87.9954 55.8026 87.9954 54.3329C87.9954 52.8633 86.804 51.6719 85.3344 51.6719C83.8647 51.6719 82.6733 52.8633 82.6733 54.3329C82.6733 55.8026 83.8647 56.994 85.3344 56.994Z" fill="white"/>
<path d="M111.17 56.994C112.639 56.994 113.831 55.8026 113.831 54.3329C113.831 52.8633 112.639 51.6719 111.17 51.6719C109.7 51.6719 108.509 52.8633 108.509 54.3329C108.509 55.8026 109.7 56.994 111.17 56.994Z" fill="white"/>
<path d="M116.337 56.994C117.806 56.994 118.998 55.8026 118.998 54.3329C118.998 52.8633 117.806 51.6719 116.337 51.6719C114.867 51.6719 113.676 52.8633 113.676 54.3329C113.676 55.8026 114.867 56.994 116.337 56.994Z" fill="white"/>
<path d="M126.671 56.994C128.141 56.994 129.332 55.8026 129.332 54.3329C129.332 52.8633 128.141 51.6719 126.671 51.6719C125.202 51.6719 124.01 52.8633 124.01 54.3329C124.01 55.8026 125.202 56.994 126.671 56.994Z" fill="white"/>
<path d="M137.005 56.994C138.474 56.994 139.666 55.8026 139.666 54.3329C139.666 52.8633 138.474 51.6719 137.005 51.6719C135.535 51.6719 134.344 52.8633 134.344 54.3329C134.344 55.8026 135.535 56.994 137.005 56.994Z" fill="white"/>
<path d="M2.66104 62.158C4.1307 62.158 5.32209 60.9666 5.32209 59.497C5.32209 58.0273 4.1307 56.8359 2.66104 56.8359C1.19139 56.8359 0 58.0273 0 59.497C0 60.9666 1.19139 62.158 2.66104 62.158Z" fill="white"/>
<path d="M12.9955 62.158C14.4652 62.158 15.6566 60.9666 15.6566 59.497C15.6566 58.0273 14.4652 56.8359 12.9955 56.8359C11.5259 56.8359 10.3345 58.0273 10.3345 59.497C10.3345 60.9666 11.5259 62.158 12.9955 62.158Z" fill="white"/>
<path d="M18.1625 62.158C19.6322 62.158 20.8236 60.9666 20.8236 59.497C20.8236 58.0273 19.6322 56.8359 18.1625 56.8359C16.6929 56.8359 15.5015 58.0273 15.5015 59.497C15.5015 60.9666 16.6929 62.158 18.1625 62.158Z" fill="white"/>
<path d="M59.4989 62.158C60.9686 62.158 62.16 60.9666 62.16 59.497C62.16 58.0273 60.9686 56.8359 59.4989 56.8359C58.0293 56.8359 56.8379 58.0273 56.8379 59.497C56.8379 60.9666 58.0293 62.158 59.4989 62.158Z" fill="white"/>
<path d="M64.6659 62.158C66.1356 62.158 67.327 60.9666 67.327 59.497C67.327 58.0273 66.1356 56.8359 64.6659 56.8359C63.1963 56.8359 62.0049 58.0273 62.0049 59.497C62.0049 60.9666 63.1963 62.158 64.6659 62.158Z" fill="white"/>
<path d="M69.8329 62.158C71.3026 62.158 72.494 60.9666 72.494 59.497C72.494 58.0273 71.3026 56.8359 69.8329 56.8359C68.3633 56.8359 67.1719 58.0273 67.1719 59.497C67.1719 60.9666 68.3633 62.158 69.8329 62.158Z" fill="white"/>
<path d="M80.1674 62.158C81.637 62.158 82.8284 60.9666 82.8284 59.497C82.8284 58.0273 81.637 56.8359 80.1674 56.8359C78.6977 56.8359 77.5063 58.0273 77.5063 59.497C77.5063 60.9666 78.6977 62.158 80.1674 62.158Z" fill="white"/>
<path d="M106.003 62.158C107.472 62.158 108.664 60.9666 108.664 59.497C108.664 58.0273 107.472 56.8359 106.003 56.8359C104.533 56.8359 103.342 58.0273 103.342 59.497C103.342 60.9666 104.533 62.158 106.003 62.158Z" fill="white"/>
<path d="M111.17 62.158C112.639 62.158 113.831 60.9666 113.831 59.497C113.831 58.0273 112.639 56.8359 111.17 56.8359C109.7 56.8359 108.509 58.0273 108.509 59.497C108.509 60.9666 109.7 62.158 111.17 62.158Z" fill="white"/>
<path d="M116.337 62.158C117.806 62.158 118.998 60.9666 118.998 59.497C118.998 58.0273 117.806 56.8359 116.337 56.8359C114.867 56.8359 113.676 58.0273 113.676 59.497C113.676 60.9666 114.867 62.158 116.337 62.158Z" fill="white"/>
<path d="M121.504 62.158C122.974 62.158 124.165 60.9666 124.165 59.497C124.165 58.0273 122.974 56.8359 121.504 56.8359C120.035 56.8359 118.843 58.0273 118.843 59.497C118.843 60.9666 120.035 62.158 121.504 62.158Z" fill="white"/>
<path d="M131.838 62.158C133.307 62.158 134.499 60.9666 134.499 59.497C134.499 58.0273 133.307 56.8359 131.838 56.8359C130.368 56.8359 129.177 58.0273 129.177 59.497C129.177 60.9666 130.368 62.158 131.838 62.158Z" fill="white"/>
<path d="M142.172 62.158C143.642 62.158 144.833 60.9666 144.833 59.497C144.833 58.0273 143.642 56.8359 142.172 56.8359C140.703 56.8359 139.511 58.0273 139.511 59.497C139.511 60.9666 140.703 62.158 142.172 62.158Z" fill="white"/>
<path d="M2.66104 67.3221C4.1307 67.3221 5.32209 66.1307 5.32209 64.661C5.32209 63.1914 4.1307 62 2.66104 62C1.19139 62 0 63.1914 0 64.661C0 66.1307 1.19139 67.3221 2.66104 67.3221Z" fill="white"/>
<path d="M28.4965 67.3221C29.9661 67.3221 31.1575 66.1307 31.1575 64.661C31.1575 63.1914 29.9661 62 28.4965 62C27.0268 62 25.8354 63.1914 25.8354 64.661C25.8354 66.1307 27.0268 67.3221 28.4965 67.3221Z" fill="white"/>
<path d="M33.664 67.3221C35.1336 67.3221 36.325 66.1307 36.325 64.661C36.325 63.1914 35.1336 62 33.664 62C32.1943 62 31.0029 63.1914 31.0029 64.661C31.0029 66.1307 32.1943 67.3221 33.664 67.3221Z" fill="white"/>
<path d="M49.1645 67.3221C50.6341 67.3221 51.8255 66.1307 51.8255 64.661C51.8255 63.1914 50.6341 62 49.1645 62C47.6948 62 46.5034 63.1914 46.5034 64.661C46.5034 66.1307 47.6948 67.3221 49.1645 67.3221Z" fill="white"/>
<path d="M54.3319 67.3221C55.8016 67.3221 56.993 66.1307 56.993 64.661C56.993 63.1914 55.8016 62 54.3319 62C52.8623 62 51.6709 63.1914 51.6709 64.661C51.6709 66.1307 52.8623 67.3221 54.3319 67.3221Z" fill="white"/>
<path d="M69.8329 67.3221C71.3026 67.3221 72.494 66.1307 72.494 64.661C72.494 63.1914 71.3026 62 69.8329 62C68.3633 62 67.1719 63.1914 67.1719 64.661C67.1719 66.1307 68.3633 67.3221 69.8329 67.3221Z" fill="white"/>
<path d="M75.0004 67.3221C76.4701 67.3221 77.6614 66.1307 77.6614 64.661C77.6614 63.1914 76.4701 62 75.0004 62C73.5307 62 72.3394 63.1914 72.3394 64.661C72.3394 66.1307 73.5307 67.3221 75.0004 67.3221Z" fill="white"/>
<path d="M90.5014 67.3221C91.971 67.3221 93.1624 66.1307 93.1624 64.661C93.1624 63.1914 91.971 62 90.5014 62C89.0317 62 87.8403 63.1914 87.8403 64.661C87.8403 66.1307 89.0317 67.3221 90.5014 67.3221Z" fill="white"/>
<path d="M95.6684 67.3221C97.138 67.3221 98.3294 66.1307 98.3294 64.661C98.3294 63.1914 97.138 62 95.6684 62C94.1987 62 93.0073 63.1914 93.0073 64.661C93.0073 66.1307 94.1987 67.3221 95.6684 67.3221Z" fill="white"/>
<path d="M111.17 67.3221C112.639 67.3221 113.831 66.1307 113.831 64.661C113.831 63.1914 112.639 62 111.17 62C109.7 62 108.509 63.1914 108.509 64.661C108.509 66.1307 109.7 67.3221 111.17 67.3221Z" fill="white"/>
<path d="M121.504 67.3221C122.974 67.3221 124.165 66.1307 124.165 64.661C124.165 63.1914 122.974 62 121.504 62C120.035 62 118.843 63.1914 118.843 64.661C118.843 66.1307 120.035 67.3221 121.504 67.3221Z" fill="white"/>
<path d="M137.005 67.3221C138.474 67.3221 139.666 66.1307 139.666 64.661C139.666 63.1914 138.474 62 137.005 62C135.535 62 134.344 63.1914 134.344 64.661C134.344 66.1307 135.535 67.3221 137.005 67.3221Z" fill="white"/>
<path d="M142.172 67.3221C143.642 67.3221 144.833 66.1307 144.833 64.661C144.833 63.1914 143.642 62 142.172 62C140.703 62 139.511 63.1914 139.511 64.661C139.511 66.1307 140.703 67.3221 142.172 67.3221Z" fill="white"/>
<path d="M147.339 67.3221C148.809 67.3221 150 66.1307 150 64.661C150 63.1914 148.809 62 147.339 62C145.87 62 144.678 63.1914 144.678 64.661C144.678 66.1307 145.87 67.3221 147.339 67.3221Z" fill="white"/>
<path d="M2.66104 72.5018C4.1307 72.5018 5.32209 71.3104 5.32209 69.8407C5.32209 68.3711 4.1307 67.1797 2.66104 67.1797C1.19139 67.1797 0 68.3711 0 69.8407C0 71.3104 1.19139 72.5018 2.66104 72.5018Z" fill="white"/>
<path d="M12.9955 72.5018C14.4652 72.5018 15.6566 71.3104 15.6566 69.8407C15.6566 68.3711 14.4652 67.1797 12.9955 67.1797C11.5259 67.1797 10.3345 68.3711 10.3345 69.8407C10.3345 71.3104 11.5259 72.5018 12.9955 72.5018Z" fill="white"/>
<path d="M38.831 72.5018C40.3006 72.5018 41.492 71.3104 41.492 69.8407C41.492 68.3711 40.3006 67.1797 38.831 67.1797C37.3613 67.1797 36.1699 68.3711 36.1699 69.8407C36.1699 71.3104 37.3613 72.5018 38.831 72.5018Z" fill="white"/>
<path d="M43.998 72.5018C45.4676 72.5018 46.659 71.3104 46.659 69.8407C46.659 68.3711 45.4676 67.1797 43.998 67.1797C42.5283 67.1797 41.3369 68.3711 41.3369 69.8407C41.3369 71.3104 42.5283 72.5018 43.998 72.5018Z" fill="white"/>
<path d="M85.3344 72.5018C86.804 72.5018 87.9954 71.3104 87.9954 69.8407C87.9954 68.3711 86.804 67.1797 85.3344 67.1797C83.8647 67.1797 82.6733 68.3711 82.6733 69.8407C82.6733 71.3104 83.8647 72.5018 85.3344 72.5018Z" fill="white"/>
<path d="M90.5014 72.5018C91.971 72.5018 93.1624 71.3104 93.1624 69.8407C93.1624 68.3711 91.971 67.1797 90.5014 67.1797C89.0317 67.1797 87.8403 68.3711 87.8403 69.8407C87.8403 71.3104 89.0317 72.5018 90.5014 72.5018Z" fill="white"/>
<path d="M95.6684 72.5018C97.138 72.5018 98.3294 71.3104 98.3294 69.8407C98.3294 68.3711 97.138 67.1797 95.6684 67.1797C94.1987 67.1797 93.0073 68.3711 93.0073 69.8407C93.0073 71.3104 94.1987 72.5018 95.6684 72.5018Z" fill="white"/>
<path d="M100.836 72.5018C102.306 72.5018 103.497 71.3104 103.497 69.8407C103.497 68.3711 102.306 67.1797 100.836 67.1797C99.3662 67.1797 98.1748 68.3711 98.1748 69.8407C98.1748 71.3104 99.3662 72.5018 100.836 72.5018Z" fill="white"/>
<path d="M111.17 72.5018C112.639 72.5018 113.831 71.3104 113.831 69.8407C113.831 68.3711 112.639 67.1797 111.17 67.1797C109.7 67.1797 108.509 68.3711 108.509 69.8407C108.509 71.3104 109.7 72.5018 111.17 72.5018Z" fill="white"/>
<path d="M116.337 72.5018C117.806 72.5018 118.998 71.3104 118.998 69.8407C118.998 68.3711 117.806 67.1797 116.337 67.1797C114.867 67.1797 113.676 68.3711 113.676 69.8407C113.676 71.3104 114.867 72.5018 116.337 72.5018Z" fill="white"/>
<path d="M126.671 72.5018C128.141 72.5018 129.332 71.3104 129.332 69.8407C129.332 68.3711 128.141 67.1797 126.671 67.1797C125.202 67.1797 124.01 68.3711 124.01 69.8407C124.01 71.3104 125.202 72.5018 126.671 72.5018Z" fill="white"/>
<path d="M131.838 72.5018C133.307 72.5018 134.499 71.3104 134.499 69.8407C134.499 68.3711 133.307 67.1797 131.838 67.1797C130.368 67.1797 129.177 68.3711 129.177 69.8407C129.177 71.3104 130.368 72.5018 131.838 72.5018Z" fill="white"/>
<path d="M142.172 72.5018C143.642 72.5018 144.833 71.3104 144.833 69.8407C144.833 68.3711 143.642 67.1797 142.172 67.1797C140.703 67.1797 139.511 68.3711 139.511 69.8407C139.511 71.3104 140.703 72.5018 142.172 72.5018Z" fill="white"/>
<path d="M147.339 72.5018C148.809 72.5018 150 71.3104 150 69.8407C150 68.3711 148.809 67.1797 147.339 67.1797C145.87 67.1797 144.678 68.3711 144.678 69.8407C144.678 71.3104 145.87 72.5018 147.339 72.5018Z" fill="white"/>
<path d="M2.66104 77.6658C4.1307 77.6658 5.32209 76.4744 5.32209 75.0048C5.32209 73.5351 4.1307 72.3438 2.66104 72.3438C1.19139 72.3438 0 73.5351 0 75.0048C0 76.4744 1.19139 77.6658 2.66104 77.6658Z" fill="white"/>
<path d="M18.1625 77.6658C19.6322 77.6658 20.8236 76.4744 20.8236 75.0048C20.8236 73.5351 19.6322 72.3438 18.1625 72.3438C16.6929 72.3438 15.5015 73.5351 15.5015 75.0048C15.5015 76.4744 16.6929 77.6658 18.1625 77.6658Z" fill="white"/>
<path d="M33.664 77.6658C35.1336 77.6658 36.325 76.4744 36.325 75.0048C36.325 73.5351 35.1336 72.3438 33.664 72.3438C32.1943 72.3438 31.0029 73.5351 31.0029 75.0048C31.0029 76.4744 32.1943 77.6658 33.664 77.6658Z" fill="white"/>
<path d="M49.1645 77.6658C50.6341 77.6658 51.8255 76.4744 51.8255 75.0048C51.8255 73.5351 50.6341 72.3438 49.1645 72.3438C47.6948 72.3438 46.5034 73.5351 46.5034 75.0048C46.5034 76.4744 47.6948 77.6658 49.1645 77.6658Z" fill="white"/>
<path d="M54.3319 77.6658C55.8016 77.6658 56.993 76.4744 56.993 75.0048C56.993 73.5351 55.8016 72.3438 54.3319 72.3438C52.8623 72.3438 51.6709 73.5351 51.6709 75.0048C51.6709 76.4744 52.8623 77.6658 54.3319 77.6658Z" fill="white"/>
<path d="M64.6659 77.6658C66.1356 77.6658 67.327 76.4744 67.327 75.0048C67.327 73.5351 66.1356 72.3438 64.6659 72.3438C63.1963 72.3438 62.0049 73.5351 62.0049 75.0048C62.0049 76.4744 63.1963 77.6658 64.6659 77.6658Z" fill="white"/>
<path d="M69.8329 77.6658C71.3026 77.6658 72.494 76.4744 72.494 75.0048C72.494 73.5351 71.3026 72.3438 69.8329 72.3438C68.3633 72.3438 67.1719 73.5351 67.1719 75.0048C67.1719 76.4744 68.3633 77.6658 69.8329 77.6658Z" fill="white"/>
<path d="M90.5014 77.6658C91.971 77.6658 93.1624 76.4744 93.1624 75.0048C93.1624 73.5351 91.971 72.3438 90.5014 72.3438C89.0317 72.3438 87.8403 73.5351 87.8403 75.0048C87.8403 76.4744 89.0317 77.6658 90.5014 77.6658Z" fill="white"/>
<path d="M111.17 77.6658C112.639 77.6658 113.831 76.4744 113.831 75.0048C113.831 73.5351 112.639 72.3438 111.17 72.3438C109.7 72.3438 108.509 73.5351 108.509 75.0048C108.509 76.4744 109.7 77.6658 111.17 77.6658Z" fill="white"/>
<path d="M121.504 77.6658C122.974 77.6658 124.165 76.4744 124.165 75.0048C124.165 73.5351 122.974 72.3438 121.504 72.3438C120.035 72.3438 118.843 73.5351 118.843 75.0048C118.843 76.4744 120.035 77.6658 121.504 77.6658Z" fill="white"/>
<path d="M18.1625 82.8299C19.6322 82.8299 20.8236 81.6385 20.8236 80.1689C20.8236 78.6992 19.6322 77.5078 18.1625 77.5078C16.6929 77.5078 15.5015 78.6992 15.5015 80.1689C15.5015 81.6385 16.6929 82.8299 18.1625 82.8299Z" fill="white"/>
<path d="M23.3295 82.8299C24.7992 82.8299 25.9905 81.6385 25.9905 80.1689C25.9905 78.6992 24.7992 77.5078 23.3295 77.5078C21.8598 77.5078 20.6685 78.6992 20.6685 80.1689C20.6685 81.6385 21.8598 82.8299 23.3295 82.8299Z" fill="white"/>
<path d="M49.1645 82.8299C50.6341 82.8299 51.8255 81.6385 51.8255 80.1689C51.8255 78.6992 50.6341 77.5078 49.1645 77.5078C47.6948 77.5078 46.5034 78.6992 46.5034 80.1689C46.5034 81.6385 47.6948 82.8299 49.1645 82.8299Z" fill="white"/>
<path d="M59.4989 82.8299C60.9686 82.8299 62.16 81.6385 62.16 80.1689C62.16 78.6992 60.9686 77.5078 59.4989 77.5078C58.0293 77.5078 56.8379 78.6992 56.8379 80.1689C56.8379 81.6385 58.0293 82.8299 59.4989 82.8299Z" fill="white"/>
<path d="M64.6659 82.8299C66.1356 82.8299 67.327 81.6385 67.327 80.1689C67.327 78.6992 66.1356 77.5078 64.6659 77.5078C63.1963 77.5078 62.0049 78.6992 62.0049 80.1689C62.0049 81.6385 63.1963 82.8299 64.6659 82.8299Z" fill="white"/>
<path d="M75.0004 82.8299C76.4701 82.8299 77.6614 81.6385 77.6614 80.1689C77.6614 78.6992 76.4701 77.5078 75.0004 77.5078C73.5307 77.5078 72.3394 78.6992 72.3394 80.1689C72.3394 81.6385 73.5307 82.8299 75.0004 82.8299Z" fill="white"/>
<path d="M80.1674 82.8299C81.637 82.8299 82.8284 81.6385 82.8284 80.1689C82.8284 78.6992 81.637 77.5078 80.1674 77.5078C78.6977 77.5078 77.5063 78.6992 77.5063 80.1689C77.5063 81.6385 78.6977 82.8299 80.1674 82.8299Z" fill="white"/>
<path d="M85.3344 82.8299C86.804 82.8299 87.9954 81.6385 87.9954 80.1689C87.9954 78.6992 86.804 77.5078 85.3344 77.5078C83.8647 77.5078 82.6733 78.6992 82.6733 80.1689C82.6733 81.6385 83.8647 82.8299 85.3344 82.8299Z" fill="white"/>
<path d="M90.5014 82.8299C91.971 82.8299 93.1624 81.6385 93.1624 80.1689C93.1624 78.6992 91.971 77.5078 90.5014 77.5078C89.0317 77.5078 87.8403 78.6992 87.8403 80.1689C87.8403 81.6385 89.0317 82.8299 90.5014 82.8299Z" fill="white"/>
<path d="M95.6684 82.8299C97.138 82.8299 98.3294 81.6385 98.3294 80.1689C98.3294 78.6992 97.138 77.5078 95.6684 77.5078C94.1987 77.5078 93.0073 78.6992 93.0073 80.1689C93.0073 81.6385 94.1987 82.8299 95.6684 82.8299Z" fill="white"/>
<path d="M106.003 82.8299C107.472 82.8299 108.664 81.6385 108.664 80.1689C108.664 78.6992 107.472 77.5078 106.003 77.5078C104.533 77.5078 103.342 78.6992 103.342 80.1689C103.342 81.6385 104.533 82.8299 106.003 82.8299Z" fill="white"/>
<path d="M111.17 82.8299C112.639 82.8299 113.831 81.6385 113.831 80.1689C113.831 78.6992 112.639 77.5078 111.17 77.5078C109.7 77.5078 108.509 78.6992 108.509 80.1689C108.509 81.6385 109.7 82.8299 111.17 82.8299Z" fill="white"/>
<path d="M126.671 82.8299C128.141 82.8299 129.332 81.6385 129.332 80.1689C129.332 78.6992 128.141 77.5078 126.671 77.5078C125.202 77.5078 124.01 78.6992 124.01 80.1689C124.01 81.6385 125.202 82.8299 126.671 82.8299Z" fill="white"/>
<path d="M131.838 82.8299C133.307 82.8299 134.499 81.6385 134.499 80.1689C134.499 78.6992 133.307 77.5078 131.838 77.5078C130.368 77.5078 129.177 78.6992 129.177 80.1689C129.177 81.6385 130.368 82.8299 131.838 82.8299Z" fill="white"/>
<path d="M7.82852 87.994C9.29818 87.994 10.4896 86.8026 10.4896 85.3329C10.4896 83.8633 9.29818 82.6719 7.82852 82.6719C6.35887 82.6719 5.16748 83.8633 5.16748 85.3329C5.16748 86.8026 6.35887 87.994 7.82852 87.994Z" fill="white"/>
<path d="M12.9955 87.994C14.4652 87.994 15.6566 86.8026 15.6566 85.3329C15.6566 83.8633 14.4652 82.6719 12.9955 82.6719C11.5259 82.6719 10.3345 83.8633 10.3345 85.3329C10.3345 86.8026 11.5259 87.994 12.9955 87.994Z" fill="white"/>
<path d="M23.3295 87.994C24.7992 87.994 25.9905 86.8026 25.9905 85.3329C25.9905 83.8633 24.7992 82.6719 23.3295 82.6719C21.8598 82.6719 20.6685 83.8633 20.6685 85.3329C20.6685 86.8026 21.8598 87.994 23.3295 87.994Z" fill="white"/>
<path d="M28.4965 87.994C29.9661 87.994 31.1575 86.8026 31.1575 85.3329C31.1575 83.8633 29.9661 82.6719 28.4965 82.6719C27.0268 82.6719 25.8354 83.8633 25.8354 85.3329C25.8354 86.8026 27.0268 87.994 28.4965 87.994Z" fill="white"/>
<path d="M33.664 87.994C35.1336 87.994 36.325 86.8026 36.325 85.3329C36.325 83.8633 35.1336 82.6719 33.664 82.6719C32.1943 82.6719 31.0029 83.8633 31.0029 85.3329C31.0029 86.8026 32.1943 87.994 33.664 87.994Z" fill="white"/>
<path d="M49.1645 87.994C50.6341 87.994 51.8255 86.8026 51.8255 85.3329C51.8255 83.8633 50.6341 82.6719 49.1645 82.6719C47.6948 82.6719 46.5034 83.8633 46.5034 85.3329C46.5034 86.8026 47.6948 87.994 49.1645 87.994Z" fill="white"/>
<path d="M54.3319 87.994C55.8016 87.994 56.993 86.8026 56.993 85.3329C56.993 83.8633 55.8016 82.6719 54.3319 82.6719C52.8623 82.6719 51.6709 83.8633 51.6709 85.3329C51.6709 86.8026 52.8623 87.994 54.3319 87.994Z" fill="white"/>
<path d="M59.4989 87.994C60.9686 87.994 62.16 86.8026 62.16 85.3329C62.16 83.8633 60.9686 82.6719 59.4989 82.6719C58.0293 82.6719 56.8379 83.8633 56.8379 85.3329C56.8379 86.8026 58.0293 87.994 59.4989 87.994Z" fill="white"/>
<path d="M80.1674 87.994C81.637 87.994 82.8284 86.8026 82.8284 85.3329C82.8284 83.8633 81.637 82.6719 80.1674 82.6719C78.6977 82.6719 77.5063 83.8633 77.5063 85.3329C77.5063 86.8026 78.6977 87.994 80.1674 87.994Z" fill="white"/>
<path d="M85.3344 87.994C86.804 87.994 87.9954 86.8026 87.9954 85.3329C87.9954 83.8633 86.804 82.6719 85.3344 82.6719C83.8647 82.6719 82.6733 83.8633 82.6733 85.3329C82.6733 86.8026 83.8647 87.994 85.3344 87.994Z" fill="white"/>
<path d="M106.003 87.994C107.472 87.994 108.664 86.8026 108.664 85.3329C108.664 83.8633 107.472 82.6719 106.003 82.6719C104.533 82.6719 103.342 83.8633 103.342 85.3329C103.342 86.8026 104.533 87.994 106.003 87.994Z" fill="white"/>
<path d="M131.838 87.994C133.307 87.994 134.499 86.8026 134.499 85.3329C134.499 83.8633 133.307 82.6719 131.838 82.6719C130.368 82.6719 129.177 83.8633 129.177 85.3329C129.177 86.8026 130.368 87.994 131.838 87.994Z" fill="white"/>
<path d="M137.005 87.994C138.474 87.994 139.666 86.8026 139.666 85.3329C139.666 83.8633 138.474 82.6719 137.005 82.6719C135.535 82.6719 134.344 83.8633 134.344 85.3329C134.344 86.8026 135.535 87.994 137.005 87.994Z" fill="white"/>
<path d="M2.66104 93.1658C4.1307 93.1658 5.32209 91.9744 5.32209 90.5048C5.32209 89.0351 4.1307 87.8438 2.66104 87.8438C1.19139 87.8438 0 89.0351 0 90.5048C0 91.9744 1.19139 93.1658 2.66104 93.1658Z" fill="white"/>
<path d="M23.3295 93.1658C24.7992 93.1658 25.9905 91.9744 25.9905 90.5048C25.9905 89.0351 24.7992 87.8438 23.3295 87.8438C21.8598 87.8438 20.6685 89.0351 20.6685 90.5048C20.6685 91.9744 21.8598 93.1658 23.3295 93.1658Z" fill="white"/>
<path d="M38.831 93.1658C40.3006 93.1658 41.492 91.9744 41.492 90.5048C41.492 89.0351 40.3006 87.8438 38.831 87.8438C37.3613 87.8438 36.1699 89.0351 36.1699 90.5048C36.1699 91.9744 37.3613 93.1658 38.831 93.1658Z" fill="white"/>
<path d="M43.998 93.1658C45.4676 93.1658 46.659 91.9744 46.659 90.5048C46.659 89.0351 45.4676 87.8438 43.998 87.8438C42.5283 87.8438 41.3369 89.0351 41.3369 90.5048C41.3369 91.9744 42.5283 93.1658 43.998 93.1658Z" fill="white"/>
<path d="M49.1645 93.1658C50.6341 93.1658 51.8255 91.9744 51.8255 90.5048C51.8255 89.0351 50.6341 87.8438 49.1645 87.8438C47.6948 87.8438 46.5034 89.0351 46.5034 90.5048C46.5034 91.9744 47.6948 93.1658 49.1645 93.1658Z" fill="white"/>
<path d="M54.3319 93.1658C55.8016 93.1658 56.993 91.9744 56.993 90.5048C56.993 89.0351 55.8016 87.8438 54.3319 87.8438C52.8623 87.8438 51.6709 89.0351 51.6709 90.5048C51.6709 91.9744 52.8623 93.1658 54.3319 93.1658Z" fill="white"/>
<path d="M59.4989 93.1658C60.9686 93.1658 62.16 91.9744 62.16 90.5048C62.16 89.0351 60.9686 87.8438 59.4989 87.8438C58.0293 87.8438 56.8379 89.0351 56.8379 90.5048C56.8379 91.9744 58.0293 93.1658 59.4989 93.1658Z" fill="white"/>
<path d="M75.0004 93.1658C76.4701 93.1658 77.6614 91.9744 77.6614 90.5048C77.6614 89.0351 76.4701 87.8438 75.0004 87.8438C73.5307 87.8438 72.3394 89.0351 72.3394 90.5048C72.3394 91.9744 73.5307 93.1658 75.0004 93.1658Z" fill="white"/>
<path d="M80.1674 93.1658C81.637 93.1658 82.8284 91.9744 82.8284 90.5048C82.8284 89.0351 81.637 87.8438 80.1674 87.8438C78.6977 87.8438 77.5063 89.0351 77.5063 90.5048C77.5063 91.9744 78.6977 93.1658 80.1674 93.1658Z" fill="white"/>
<path d="M90.5014 93.1658C91.971 93.1658 93.1624 91.9744 93.1624 90.5048C93.1624 89.0351 91.971 87.8438 90.5014 87.8438C89.0317 87.8438 87.8403 89.0351 87.8403 90.5048C87.8403 91.9744 89.0317 93.1658 90.5014 93.1658Z" fill="white"/>
<path d="M95.6684 93.1658C97.138 93.1658 98.3294 91.9744 98.3294 90.5048C98.3294 89.0351 97.138 87.8438 95.6684 87.8438C94.1987 87.8438 93.0073 89.0351 93.0073 90.5048C93.0073 91.9744 94.1987 93.1658 95.6684 93.1658Z" fill="white"/>
<path d="M100.836 93.1658C102.306 93.1658 103.497 91.9744 103.497 90.5048C103.497 89.0351 102.306 87.8438 100.836 87.8438C99.3662 87.8438 98.1748 89.0351 98.1748 90.5048C98.1748 91.9744 99.3662 93.1658 100.836 93.1658Z" fill="white"/>
<path d="M106.003 93.1658C107.472 93.1658 108.664 91.9744 108.664 90.5048C108.664 89.0351 107.472 87.8438 106.003 87.8438C104.533 87.8438 103.342 89.0351 103.342 90.5048C103.342 91.9744 104.533 93.1658 106.003 93.1658Z" fill="white"/>
<path d="M111.17 93.1658C112.639 93.1658 113.831 91.9744 113.831 90.5048C113.831 89.0351 112.639 87.8438 111.17 87.8438C109.7 87.8438 108.509 89.0351 108.509 90.5048C108.509 91.9744 109.7 93.1658 111.17 93.1658Z" fill="white"/>
<path d="M116.337 93.1658C117.806 93.1658 118.998 91.9744 118.998 90.5048C118.998 89.0351 117.806 87.8438 116.337 87.8438C114.867 87.8438 113.676 89.0351 113.676 90.5048C113.676 91.9744 114.867 93.1658 116.337 93.1658Z" fill="white"/>
<path d="M121.504 93.1658C122.974 93.1658 124.165 91.9744 124.165 90.5048C124.165 89.0351 122.974 87.8438 121.504 87.8438C120.035 87.8438 118.843 89.0351 118.843 90.5048C118.843 91.9744 120.035 93.1658 121.504 93.1658Z" fill="white"/>
<path d="M126.671 93.1658C128.141 93.1658 129.332 91.9744 129.332 90.5048C129.332 89.0351 128.141 87.8438 126.671 87.8438C125.202 87.8438 124.01 89.0351 124.01 90.5048C124.01 91.9744 125.202 93.1658 126.671 93.1658Z" fill="white"/>
<path d="M137.005 93.1658C138.474 93.1658 139.666 91.9744 139.666 90.5048C139.666 89.0351 138.474 87.8438 137.005 87.8438C135.535 87.8438 134.344 89.0351 134.344 90.5048C134.344 91.9744 135.535 93.1658 137.005 93.1658Z" fill="white"/>
<path d="M142.172 93.1658C143.642 93.1658 144.833 91.9744 144.833 90.5048C144.833 89.0351 143.642 87.8438 142.172 87.8438C140.703 87.8438 139.511 89.0351 139.511 90.5048C139.511 91.9744 140.703 93.1658 142.172 93.1658Z" fill="white"/>
<path d="M147.339 93.1658C148.809 93.1658 150 91.9744 150 90.5048C150 89.0351 148.809 87.8438 147.339 87.8438C145.87 87.8438 144.678 89.0351 144.678 90.5048C144.678 91.9744 145.87 93.1658 147.339 93.1658Z" fill="white"/>
<path d="M2.66104 98.3299C4.1307 98.3299 5.32209 97.1385 5.32209 95.6689C5.32209 94.1992 4.1307 93.0078 2.66104 93.0078C1.19139 93.0078 0 94.1992 0 95.6689C0 97.1385 1.19139 98.3299 2.66104 98.3299Z" fill="white"/>
<path d="M18.1625 98.3299C19.6322 98.3299 20.8236 97.1385 20.8236 95.6689C20.8236 94.1992 19.6322 93.0078 18.1625 93.0078C16.6929 93.0078 15.5015 94.1992 15.5015 95.6689C15.5015 97.1385 16.6929 98.3299 18.1625 98.3299Z" fill="white"/>
<path d="M33.664 98.3299C35.1336 98.3299 36.325 97.1385 36.325 95.6689C36.325 94.1992 35.1336 93.0078 33.664 93.0078C32.1943 93.0078 31.0029 94.1992 31.0029 95.6689C31.0029 97.1385 32.1943 98.3299 33.664 98.3299Z" fill="white"/>
<path d="M38.831 98.3299C40.3006 98.3299 41.492 97.1385 41.492 95.6689C41.492 94.1992 40.3006 93.0078 38.831 93.0078C37.3613 93.0078 36.1699 94.1992 36.1699 95.6689C36.1699 97.1385 37.3613 98.3299 38.831 98.3299Z" fill="white"/>
<path d="M54.3319 98.3299C55.8016 98.3299 56.993 97.1385 56.993 95.6689C56.993 94.1992 55.8016 93.0078 54.3319 93.0078C52.8623 93.0078 51.6709 94.1992 51.6709 95.6689C51.6709 97.1385 52.8623 98.3299 54.3319 98.3299Z" fill="white"/>
<path d="M59.4989 98.3299C60.9686 98.3299 62.16 97.1385 62.16 95.6689C62.16 94.1992 60.9686 93.0078 59.4989 93.0078C58.0293 93.0078 56.8379 94.1992 56.8379 95.6689C56.8379 97.1385 58.0293 98.3299 59.4989 98.3299Z" fill="white"/>
<path d="M75.0004 98.3299C76.4701 98.3299 77.6614 97.1385 77.6614 95.6689C77.6614 94.1992 76.4701 93.0078 75.0004 93.0078C73.5307 93.0078 72.3394 94.1992 72.3394 95.6689C72.3394 97.1385 73.5307 98.3299 75.0004 98.3299Z" fill="white"/>
<path d="M80.1674 98.3299C81.637 98.3299 82.8284 97.1385 82.8284 95.6689C82.8284 94.1992 81.637 93.0078 80.1674 93.0078C78.6977 93.0078 77.5063 94.1992 77.5063 95.6689C77.5063 97.1385 78.6977 98.3299 80.1674 98.3299Z" fill="white"/>
<path d="M85.3344 98.3299C86.804 98.3299 87.9954 97.1385 87.9954 95.6689C87.9954 94.1992 86.804 93.0078 85.3344 93.0078C83.8647 93.0078 82.6733 94.1992 82.6733 95.6689C82.6733 97.1385 83.8647 98.3299 85.3344 98.3299Z" fill="white"/>
<path d="M90.5014 98.3299C91.971 98.3299 93.1624 97.1385 93.1624 95.6689C93.1624 94.1992 91.971 93.0078 90.5014 93.0078C89.0317 93.0078 87.8403 94.1992 87.8403 95.6689C87.8403 97.1385 89.0317 98.3299 90.5014 98.3299Z" fill="white"/>
<path d="M106.003 98.3299C107.472 98.3299 108.664 97.1385 108.664 95.6689C108.664 94.1992 107.472 93.0078 106.003 93.0078C104.533 93.0078 103.342 94.1992 103.342 95.6689C103.342 97.1385 104.533 98.3299 106.003 98.3299Z" fill="white"/>
<path d="M116.337 98.3299C117.806 98.3299 118.998 97.1385 118.998 95.6689C118.998 94.1992 117.806 93.0078 116.337 93.0078C114.867 93.0078 113.676 94.1992 113.676 95.6689C113.676 97.1385 114.867 98.3299 116.337 98.3299Z" fill="white"/>
<path d="M121.504 98.3299C122.974 98.3299 124.165 97.1385 124.165 95.6689C124.165 94.1992 122.974 93.0078 121.504 93.0078C120.035 93.0078 118.843 94.1992 118.843 95.6689C118.843 97.1385 120.035 98.3299 121.504 98.3299Z" fill="white"/>
<path d="M126.671 98.3299C128.141 98.3299 129.332 97.1385 129.332 95.6689C129.332 94.1992 128.141 93.0078 126.671 93.0078C125.202 93.0078 124.01 94.1992 124.01 95.6689C124.01 97.1385 125.202 98.3299 126.671 98.3299Z" fill="white"/>
<path d="M131.838 98.3299C133.307 98.3299 134.499 97.1385 134.499 95.6689C134.499 94.1992 133.307 93.0078 131.838 93.0078C130.368 93.0078 129.177 94.1992 129.177 95.6689C129.177 97.1385 130.368 98.3299 131.838 98.3299Z" fill="white"/>
<path d="M2.66104 103.494C4.1307 103.494 5.32209 102.303 5.32209 100.833C5.32209 99.3633 4.1307 98.1719 2.66104 98.1719C1.19139 98.1719 0 99.3633 0 100.833C0 102.303 1.19139 103.494 2.66104 103.494Z" fill="white"/>
<path d="M28.4965 103.494C29.9661 103.494 31.1575 102.303 31.1575 100.833C31.1575 99.3633 29.9661 98.1719 28.4965 98.1719C27.0268 98.1719 25.8354 99.3633 25.8354 100.833C25.8354 102.303 27.0268 103.494 28.4965 103.494Z" fill="white"/>
<path d="M38.831 103.494C40.3006 103.494 41.492 102.303 41.492 100.833C41.492 99.3633 40.3006 98.1719 38.831 98.1719C37.3613 98.1719 36.1699 99.3633 36.1699 100.833C36.1699 102.303 37.3613 103.494 38.831 103.494Z" fill="white"/>
<path d="M59.4989 103.494C60.9686 103.494 62.16 102.303 62.16 100.833C62.16 99.3633 60.9686 98.1719 59.4989 98.1719C58.0293 98.1719 56.8379 99.3633 56.8379 100.833C56.8379 102.303 58.0293 103.494 59.4989 103.494Z" fill="white"/>
<path d="M69.8329 103.494C71.3026 103.494 72.494 102.303 72.494 100.833C72.494 99.3633 71.3026 98.1719 69.8329 98.1719C68.3633 98.1719 67.1719 99.3633 67.1719 100.833C67.1719 102.303 68.3633 103.494 69.8329 103.494Z" fill="white"/>
<path d="M80.1674 103.494C81.637 103.494 82.8284 102.303 82.8284 100.833C82.8284 99.3633 81.637 98.1719 80.1674 98.1719C78.6977 98.1719 77.5063 99.3633 77.5063 100.833C77.5063 102.303 78.6977 103.494 80.1674 103.494Z" fill="white"/>
<path d="M100.836 103.494C102.306 103.494 103.497 102.303 103.497 100.833C103.497 99.3633 102.306 98.1719 100.836 98.1719C99.3662 98.1719 98.1748 99.3633 98.1748 100.833C98.1748 102.303 99.3662 103.494 100.836 103.494Z" fill="white"/>
<path d="M106.003 103.494C107.472 103.494 108.664 102.303 108.664 100.833C108.664 99.3633 107.472 98.1719 106.003 98.1719C104.533 98.1719 103.342 99.3633 103.342 100.833C103.342 102.303 104.533 103.494 106.003 103.494Z" fill="white"/>
<path d="M116.337 103.494C117.806 103.494 118.998 102.303 118.998 100.833C118.998 99.3633 117.806 98.1719 116.337 98.1719C114.867 98.1719 113.676 99.3633 113.676 100.833C113.676 102.303 114.867 103.494 116.337 103.494Z" fill="white"/>
<path d="M121.504 103.494C122.974 103.494 124.165 102.303 124.165 100.833C124.165 99.3633 122.974 98.1719 121.504 98.1719C120.035 98.1719 118.843 99.3633 118.843 100.833C118.843 102.303 120.035 103.494 121.504 103.494Z" fill="white"/>
<path d="M126.671 103.494C128.141 103.494 129.332 102.303 129.332 100.833C129.332 99.3633 128.141 98.1719 126.671 98.1719C125.202 98.1719 124.01 99.3633 124.01 100.833C124.01 102.303 125.202 103.494 126.671 103.494Z" fill="white"/>
<path d="M131.838 103.494C133.307 103.494 134.499 102.303 134.499 100.833C134.499 99.3633 133.307 98.1719 131.838 98.1719C130.368 98.1719 129.177 99.3633 129.177 100.833C129.177 102.303 130.368 103.494 131.838 103.494Z" fill="white"/>
<path d="M142.172 103.494C143.642 103.494 144.833 102.303 144.833 100.833C144.833 99.3633 143.642 98.1719 142.172 98.1719C140.703 98.1719 139.511 99.3633 139.511 100.833C139.511 102.303 140.703 103.494 142.172 103.494Z" fill="white"/>
<path d="M147.339 103.494C148.809 103.494 150 102.303 150 100.833C150 99.3633 148.809 98.1719 147.339 98.1719C145.87 98.1719 144.678 99.3633 144.678 100.833C144.678 102.303 145.87 103.494 147.339 103.494Z" fill="white"/>
<path d="M2.66104 108.666C4.1307 108.666 5.32209 107.474 5.32209 106.005C5.32209 104.535 4.1307 103.344 2.66104 103.344C1.19139 103.344 0 104.535 0 106.005C0 107.474 1.19139 108.666 2.66104 108.666Z" fill="white"/>
<path d="M23.3295 108.666C24.7992 108.666 25.9905 107.474 25.9905 106.005C25.9905 104.535 24.7992 103.344 23.3295 103.344C21.8598 103.344 20.6685 104.535 20.6685 106.005C20.6685 107.474 21.8598 108.666 23.3295 108.666Z" fill="white"/>
<path d="M28.4965 108.666C29.9661 108.666 31.1575 107.474 31.1575 106.005C31.1575 104.535 29.9661 103.344 28.4965 103.344C27.0268 103.344 25.8354 104.535 25.8354 106.005C25.8354 107.474 27.0268 108.666 28.4965 108.666Z" fill="white"/>
<path d="M33.664 108.666C35.1336 108.666 36.325 107.474 36.325 106.005C36.325 104.535 35.1336 103.344 33.664 103.344C32.1943 103.344 31.0029 104.535 31.0029 106.005C31.0029 107.474 32.1943 108.666 33.664 108.666Z" fill="white"/>
<path d="M49.1645 108.666C50.6341 108.666 51.8255 107.474 51.8255 106.005C51.8255 104.535 50.6341 103.344 49.1645 103.344C47.6948 103.344 46.5034 104.535 46.5034 106.005C46.5034 107.474 47.6948 108.666 49.1645 108.666Z" fill="white"/>
<path d="M54.3319 108.666C55.8016 108.666 56.993 107.474 56.993 106.005C56.993 104.535 55.8016 103.344 54.3319 103.344C52.8623 103.344 51.6709 104.535 51.6709 106.005C51.6709 107.474 52.8623 108.666 54.3319 108.666Z" fill="white"/>
<path d="M75.0004 108.666C76.4701 108.666 77.6614 107.474 77.6614 106.005C77.6614 104.535 76.4701 103.344 75.0004 103.344C73.5307 103.344 72.3394 104.535 72.3394 106.005C72.3394 107.474 73.5307 108.666 75.0004 108.666Z" fill="white"/>
<path d="M80.1674 108.666C81.637 108.666 82.8284 107.474 82.8284 106.005C82.8284 104.535 81.637 103.344 80.1674 103.344C78.6977 103.344 77.5063 104.535 77.5063 106.005C77.5063 107.474 78.6977 108.666 80.1674 108.666Z" fill="white"/>
<path d="M85.3344 108.666C86.804 108.666 87.9954 107.474 87.9954 106.005C87.9954 104.535 86.804 103.344 85.3344 103.344C83.8647 103.344 82.6733 104.535 82.6733 106.005C82.6733 107.474 83.8647 108.666 85.3344 108.666Z" fill="white"/>
<path d="M100.836 108.666C102.306 108.666 103.497 107.474 103.497 106.005C103.497 104.535 102.306 103.344 100.836 103.344C99.3662 103.344 98.1748 104.535 98.1748 106.005C98.1748 107.474 99.3662 108.666 100.836 108.666Z" fill="white"/>
<path d="M106.003 108.666C107.472 108.666 108.664 107.474 108.664 106.005C108.664 104.535 107.472 103.344 106.003 103.344C104.533 103.344 103.342 104.535 103.342 106.005C103.342 107.474 104.533 108.666 106.003 108.666Z" fill="white"/>
<path d="M111.17 108.666C112.639 108.666 113.831 107.474 113.831 106.005C113.831 104.535 112.639 103.344 111.17 103.344C109.7 103.344 108.509 104.535 108.509 106.005C108.509 107.474 109.7 108.666 111.17 108.666Z" fill="white"/>
<path d="M116.337 108.666C117.806 108.666 118.998 107.474 118.998 106.005C118.998 104.535 117.806 103.344 116.337 103.344C114.867 103.344 113.676 104.535 113.676 106.005C113.676 107.474 114.867 108.666 116.337 108.666Z" fill="white"/>
<path d="M121.504 108.666C122.974 108.666 124.165 107.474 124.165 106.005C124.165 104.535 122.974 103.344 121.504 103.344C120.035 103.344 118.843 104.535 118.843 106.005C118.843 107.474 120.035 108.666 121.504 108.666Z" fill="white"/>
<path d="M126.671 108.666C128.141 108.666 129.332 107.474 129.332 106.005C129.332 104.535 128.141 103.344 126.671 103.344C125.202 103.344 124.01 104.535 124.01 106.005C124.01 107.474 125.202 108.666 126.671 108.666Z" fill="white"/>
<path d="M142.172 108.666C143.642 108.666 144.833 107.474 144.833 106.005C144.833 104.535 143.642 103.344 142.172 103.344C140.703 103.344 139.511 104.535 139.511 106.005C139.511 107.474 140.703 108.666 142.172 108.666Z" fill="white"/>
<path d="M147.339 108.666C148.809 108.666 150 107.474 150 106.005C150 104.535 148.809 103.344 147.339 103.344C145.87 103.344 144.678 104.535 144.678 106.005C144.678 107.474 145.87 108.666 147.339 108.666Z" fill="white"/>
<path d="M43.998 113.838C45.4676 113.838 46.659 112.646 46.659 111.177C46.659 109.707 45.4676 108.516 43.998 108.516C42.5283 108.516 41.3369 109.707 41.3369 111.177C41.3369 112.646 42.5283 113.838 43.998 113.838Z" fill="white"/>
<path d="M54.3319 113.838C55.8016 113.838 56.993 112.646 56.993 111.177C56.993 109.707 55.8016 108.516 54.3319 108.516C52.8623 108.516 51.6709 109.707 51.6709 111.177C51.6709 112.646 52.8623 113.838 54.3319 113.838Z" fill="white"/>
<path d="M59.4989 113.838C60.9686 113.838 62.16 112.646 62.16 111.177C62.16 109.707 60.9686 108.516 59.4989 108.516C58.0293 108.516 56.8379 109.707 56.8379 111.177C56.8379 112.646 58.0293 113.838 59.4989 113.838Z" fill="white"/>
<path d="M64.6659 113.838C66.1356 113.838 67.327 112.646 67.327 111.177C67.327 109.707 66.1356 108.516 64.6659 108.516C63.1963 108.516 62.0049 109.707 62.0049 111.177C62.0049 112.646 63.1963 113.838 64.6659 113.838Z" fill="white"/>
<path d="M69.8329 113.838C71.3026 113.838 72.494 112.646 72.494 111.177C72.494 109.707 71.3026 108.516 69.8329 108.516C68.3633 108.516 67.1719 109.707 67.1719 111.177C67.1719 112.646 68.3633 113.838 69.8329 113.838Z" fill="white"/>
<path d="M85.3344 113.838C86.804 113.838 87.9954 112.646 87.9954 111.177C87.9954 109.707 86.804 108.516 85.3344 108.516C83.8647 108.516 82.6733 109.707 82.6733 111.177C82.6733 112.646 83.8647 113.838 85.3344 113.838Z" fill="white"/>
<path d="M100.836 113.838C102.306 113.838 103.497 112.646 103.497 111.177C103.497 109.707 102.306 108.516 100.836 108.516C99.3662 108.516 98.1748 109.707 98.1748 111.177C98.1748 112.646 99.3662 113.838 100.836 113.838Z" fill="white"/>
<path d="M106.003 113.838C107.472 113.838 108.664 112.646 108.664 111.177C108.664 109.707 107.472 108.516 106.003 108.516C104.533 108.516 103.342 109.707 103.342 111.177C103.342 112.646 104.533 113.838 106.003 113.838Z" fill="white"/>
<path d="M126.671 113.838C128.141 113.838 129.332 112.646 129.332 111.177C129.332 109.707 128.141 108.516 126.671 108.516C125.202 108.516 124.01 109.707 124.01 111.177C124.01 112.646 125.202 113.838 126.671 113.838Z" fill="white"/>
<path d="M131.838 113.838C133.307 113.838 134.499 112.646 134.499 111.177C134.499 109.707 133.307 108.516 131.838 108.516C130.368 108.516 129.177 109.707 129.177 111.177C129.177 112.646 130.368 113.838 131.838 113.838Z" fill="white"/>
<path d="M147.339 113.838C148.809 113.838 150 112.646 150 111.177C150 109.707 148.809 108.516 147.339 108.516C145.87 108.516 144.678 109.707 144.678 111.177C144.678 112.646 145.87 113.838 147.339 113.838Z" fill="white"/>
<path d="M43.998 119.002C45.4676 119.002 46.659 117.81 46.659 116.341C46.659 114.871 45.4676 113.68 43.998 113.68C42.5283 113.68 41.3369 114.871 41.3369 116.341C41.3369 117.81 42.5283 119.002 43.998 119.002Z" fill="white"/>
<path d="M49.1645 119.002C50.6341 119.002 51.8255 117.81 51.8255 116.341C51.8255 114.871 50.6341 113.68 49.1645 113.68C47.6948 113.68 46.5034 114.871 46.5034 116.341C46.5034 117.81 47.6948 119.002 49.1645 119.002Z" fill="white"/>
<path d="M54.3319 119.002C55.8016 119.002 56.993 117.81 56.993 116.341C56.993 114.871 55.8016 113.68 54.3319 113.68C52.8623 113.68 51.6709 114.871 51.6709 116.341C51.6709 117.81 52.8623 119.002 54.3319 119.002Z" fill="white"/>
<path d="M64.6659 119.002C66.1356 119.002 67.327 117.81 67.327 116.341C67.327 114.871 66.1356 113.68 64.6659 113.68C63.1963 113.68 62.0049 114.871 62.0049 116.341C62.0049 117.81 63.1963 119.002 64.6659 119.002Z" fill="white"/>
<path d="M69.8329 119.002C71.3026 119.002 72.494 117.81 72.494 116.341C72.494 114.871 71.3026 113.68 69.8329 113.68C68.3633 113.68 67.1719 114.871 67.1719 116.341C67.1719 117.81 68.3633 119.002 69.8329 119.002Z" fill="white"/>
<path d="M80.1674 119.002C81.637 119.002 82.8284 117.81 82.8284 116.341C82.8284 114.871 81.637 113.68 80.1674 113.68C78.6977 113.68 77.5063 114.871 77.5063 116.341C77.5063 117.81 78.6977 119.002 80.1674 119.002Z" fill="white"/>
<path d="M85.3344 119.002C86.804 119.002 87.9954 117.81 87.9954 116.341C87.9954 114.871 86.804 113.68 85.3344 113.68C83.8647 113.68 82.6733 114.871 82.6733 116.341C82.6733 117.81 83.8647 119.002 85.3344 119.002Z" fill="white"/>
<path d="M95.6684 119.002C97.138 119.002 98.3294 117.81 98.3294 116.341C98.3294 114.871 97.138 113.68 95.6684 113.68C94.1987 113.68 93.0073 114.871 93.0073 116.341C93.0073 117.81 94.1987 119.002 95.6684 119.002Z" fill="white"/>
<path d="M100.836 119.002C102.306 119.002 103.497 117.81 103.497 116.341C103.497 114.871 102.306 113.68 100.836 113.68C99.3662 113.68 98.1748 114.871 98.1748 116.341C98.1748 117.81 99.3662 119.002 100.836 119.002Z" fill="white"/>
<path d="M106.003 119.002C107.472 119.002 108.664 117.81 108.664 116.341C108.664 114.871 107.472 113.68 106.003 113.68C104.533 113.68 103.342 114.871 103.342 116.341C103.342 117.81 104.533 119.002 106.003 119.002Z" fill="white"/>
<path d="M116.337 119.002C117.806 119.002 118.998 117.81 118.998 116.341C118.998 114.871 117.806 113.68 116.337 113.68C114.867 113.68 113.676 114.871 113.676 116.341C113.676 117.81 114.867 119.002 116.337 119.002Z" fill="white"/>
<path d="M126.671 119.002C128.141 119.002 129.332 117.81 129.332 116.341C129.332 114.871 128.141 113.68 126.671 113.68C125.202 113.68 124.01 114.871 124.01 116.341C124.01 117.81 125.202 119.002 126.671 119.002Z" fill="white"/>
<path d="M43.998 124.166C45.4676 124.166 46.659 122.974 46.659 121.505C46.659 120.035 45.4676 118.844 43.998 118.844C42.5283 118.844 41.3369 120.035 41.3369 121.505C41.3369 122.974 42.5283 124.166 43.998 124.166Z" fill="white"/>
<path d="M49.1645 124.166C50.6341 124.166 51.8255 122.974 51.8255 121.505C51.8255 120.035 50.6341 118.844 49.1645 118.844C47.6948 118.844 46.5034 120.035 46.5034 121.505C46.5034 122.974 47.6948 124.166 49.1645 124.166Z" fill="white"/>
<path d="M54.3319 124.166C55.8016 124.166 56.993 122.974 56.993 121.505C56.993 120.035 55.8016 118.844 54.3319 118.844C52.8623 118.844 51.6709 120.035 51.6709 121.505C51.6709 122.974 52.8623 124.166 54.3319 124.166Z" fill="white"/>
<path d="M80.1674 124.166C81.637 124.166 82.8284 122.974 82.8284 121.505C82.8284 120.035 81.637 118.844 80.1674 118.844C78.6977 118.844 77.5063 120.035 77.5063 121.505C77.5063 122.974 78.6977 124.166 80.1674 124.166Z" fill="white"/>
<path d="M100.836 124.166C102.306 124.166 103.497 122.974 103.497 121.505C103.497 120.035 102.306 118.844 100.836 118.844C99.3662 118.844 98.1748 120.035 98.1748 121.505C98.1748 122.974 99.3662 124.166 100.836 124.166Z" fill="white"/>
<path d="M106.003 124.166C107.472 124.166 108.664 122.974 108.664 121.505C108.664 120.035 107.472 118.844 106.003 118.844C104.533 118.844 103.342 120.035 103.342 121.505C103.342 122.974 104.533 124.166 106.003 124.166Z" fill="white"/>
<path d="M126.671 124.166C128.141 124.166 129.332 122.974 129.332 121.505C129.332 120.035 128.141 118.844 126.671 118.844C125.202 118.844 124.01 120.035 124.01 121.505C124.01 122.974 125.202 124.166 126.671 124.166Z" fill="white"/>
<path d="M131.838 124.166C133.307 124.166 134.499 122.974 134.499 121.505C134.499 120.035 133.307 118.844 131.838 118.844C130.368 118.844 129.177 120.035 129.177 121.505C129.177 122.974 130.368 124.166 131.838 124.166Z" fill="white"/>
<path d="M142.172 124.166C143.642 124.166 144.833 122.974 144.833 121.505C144.833 120.035 143.642 118.844 142.172 118.844C140.703 118.844 139.511 120.035 139.511 121.505C139.511 122.974 140.703 124.166 142.172 124.166Z" fill="white"/>
<path d="M43.998 129.338C45.4676 129.338 46.659 128.146 46.659 126.677C46.659 125.207 45.4676 124.016 43.998 124.016C42.5283 124.016 41.3369 125.207 41.3369 126.677C41.3369 128.146 42.5283 129.338 43.998 129.338Z" fill="white"/>
<path d="M49.1645 129.338C50.6341 129.338 51.8255 128.146 51.8255 126.677C51.8255 125.207 50.6341 124.016 49.1645 124.016C47.6948 124.016 46.5034 125.207 46.5034 126.677C46.5034 128.146 47.6948 129.338 49.1645 129.338Z" fill="white"/>
<path d="M54.3319 129.338C55.8016 129.338 56.993 128.146 56.993 126.677C56.993 125.207 55.8016 124.016 54.3319 124.016C52.8623 124.016 51.6709 125.207 51.6709 126.677C51.6709 128.146 52.8623 129.338 54.3319 129.338Z" fill="white"/>
<path d="M64.6659 129.338C66.1356 129.338 67.327 128.146 67.327 126.677C67.327 125.207 66.1356 124.016 64.6659 124.016C63.1963 124.016 62.0049 125.207 62.0049 126.677C62.0049 128.146 63.1963 129.338 64.6659 129.338Z" fill="white"/>
<path d="M75.0004 129.338C76.4701 129.338 77.6614 128.146 77.6614 126.677C77.6614 125.207 76.4701 124.016 75.0004 124.016C73.5307 124.016 72.3394 125.207 72.3394 126.677C72.3394 128.146 73.5307 129.338 75.0004 129.338Z" fill="white"/>
<path d="M95.6684 129.338C97.138 129.338 98.3294 128.146 98.3294 126.677C98.3294 125.207 97.138 124.016 95.6684 124.016C94.1987 124.016 93.0073 125.207 93.0073 126.677C93.0073 128.146 94.1987 129.338 95.6684 129.338Z" fill="white"/>
<path d="M106.003 129.338C107.472 129.338 108.664 128.146 108.664 126.677C108.664 125.207 107.472 124.016 106.003 124.016C104.533 124.016 103.342 125.207 103.342 126.677C103.342 128.146 104.533 129.338 106.003 129.338Z" fill="white"/>
<path d="M111.17 129.338C112.639 129.338 113.831 128.146 113.831 126.677C113.831 125.207 112.639 124.016 111.17 124.016C109.7 124.016 108.509 125.207 108.509 126.677C108.509 128.146 109.7 129.338 111.17 129.338Z" fill="white"/>
<path d="M116.337 129.338C117.806 129.338 118.998 128.146 118.998 126.677C118.998 125.207 117.806 124.016 116.337 124.016C114.867 124.016 113.676 125.207 113.676 126.677C113.676 128.146 114.867 129.338 116.337 129.338Z" fill="white"/>
<path d="M121.504 129.338C122.974 129.338 124.165 128.146 124.165 126.677C124.165 125.207 122.974 124.016 121.504 124.016C120.035 124.016 118.843 125.207 118.843 126.677C118.843 128.146 120.035 129.338 121.504 129.338Z" fill="white"/>
<path d="M126.671 129.338C128.141 129.338 129.332 128.146 129.332 126.677C129.332 125.207 128.141 124.016 126.671 124.016C125.202 124.016 124.01 125.207 124.01 126.677C124.01 128.146 125.202 129.338 126.671 129.338Z" fill="white"/>
<path d="M131.838 129.338C133.307 129.338 134.499 128.146 134.499 126.677C134.499 125.207 133.307 124.016 131.838 124.016C130.368 124.016 129.177 125.207 129.177 126.677C129.177 128.146 130.368 129.338 131.838 129.338Z" fill="white"/>
<path d="M137.005 129.338C138.474 129.338 139.666 128.146 139.666 126.677C139.666 125.207 138.474 124.016 137.005 124.016C135.535 124.016 134.344 125.207 134.344 126.677C134.344 128.146 135.535 129.338 137.005 129.338Z" fill="white"/>
<path d="M142.172 129.338C143.642 129.338 144.833 128.146 144.833 126.677C144.833 125.207 143.642 124.016 142.172 124.016C140.703 124.016 139.511 125.207 139.511 126.677C139.511 128.146 140.703 129.338 142.172 129.338Z" fill="white"/>
<path d="M43.998 134.502C45.4676 134.502 46.659 133.31 46.659 131.841C46.659 130.371 45.4676 129.18 43.998 129.18C42.5283 129.18 41.3369 130.371 41.3369 131.841C41.3369 133.31 42.5283 134.502 43.998 134.502Z" fill="white"/>
<path d="M49.1645 134.502C50.6341 134.502 51.8255 133.31 51.8255 131.841C51.8255 130.371 50.6341 129.18 49.1645 129.18C47.6948 129.18 46.5034 130.371 46.5034 131.841C46.5034 133.31 47.6948 134.502 49.1645 134.502Z" fill="white"/>
<path d="M54.3319 134.502C55.8016 134.502 56.993 133.31 56.993 131.841C56.993 130.371 55.8016 129.18 54.3319 129.18C52.8623 129.18 51.6709 130.371 51.6709 131.841C51.6709 133.31 52.8623 134.502 54.3319 134.502Z" fill="white"/>
<path d="M75.0004 134.502C76.4701 134.502 77.6614 133.31 77.6614 131.841C77.6614 130.371 76.4701 129.18 75.0004 129.18C73.5307 129.18 72.3394 130.371 72.3394 131.841C72.3394 133.31 73.5307 134.502 75.0004 134.502Z" fill="white"/>
<path d="M80.1674 134.502C81.637 134.502 82.8284 133.31 82.8284 131.841C82.8284 130.371 81.637 129.18 80.1674 129.18C78.6977 129.18 77.5063 130.371 77.5063 131.841C77.5063 133.31 78.6977 134.502 80.1674 134.502Z" fill="white"/>
<path d="M85.3344 134.502C86.804 134.502 87.9954 133.31 87.9954 131.841C87.9954 130.371 86.804 129.18 85.3344 129.18C83.8647 129.18 82.6733 130.371 82.6733 131.841C82.6733 133.31 83.8647 134.502 85.3344 134.502Z" fill="white"/>
<path d="M100.836 134.502C102.306 134.502 103.497 133.31 103.497 131.841C103.497 130.371 102.306 129.18 100.836 129.18C99.3662 129.18 98.1748 130.371 98.1748 131.841C98.1748 133.31 99.3662 134.502 100.836 134.502Z" fill="white"/>
<path d="M106.003 134.502C107.472 134.502 108.664 133.31 108.664 131.841C108.664 130.371 107.472 129.18 106.003 129.18C104.533 129.18 103.342 130.371 103.342 131.841C103.342 133.31 104.533 134.502 106.003 134.502Z" fill="white"/>
<path d="M111.17 134.502C112.639 134.502 113.831 133.31 113.831 131.841C113.831 130.371 112.639 129.18 111.17 129.18C109.7 129.18 108.509 130.371 108.509 131.841C108.509 133.31 109.7 134.502 111.17 134.502Z" fill="white"/>
<path d="M121.504 134.502C122.974 134.502 124.165 133.31 124.165 131.841C124.165 130.371 122.974 129.18 121.504 129.18C120.035 129.18 118.843 130.371 118.843 131.841C118.843 133.31 120.035 134.502 121.504 134.502Z" fill="white"/>
<path d="M137.005 134.502C138.474 134.502 139.666 133.31 139.666 131.841C139.666 130.371 138.474 129.18 137.005 129.18C135.535 129.18 134.344 130.371 134.344 131.841C134.344 133.31 135.535 134.502 137.005 134.502Z" fill="white"/>
<path d="M43.998 139.666C45.4676 139.666 46.659 138.474 46.659 137.005C46.659 135.535 45.4676 134.344 43.998 134.344C42.5283 134.344 41.3369 135.535 41.3369 137.005C41.3369 138.474 42.5283 139.666 43.998 139.666Z" fill="white"/>
<path d="M49.1645 139.666C50.6341 139.666 51.8255 138.474 51.8255 137.005C51.8255 135.535 50.6341 134.344 49.1645 134.344C47.6948 134.344 46.5034 135.535 46.5034 137.005C46.5034 138.474 47.6948 139.666 49.1645 139.666Z" fill="white"/>
<path d="M54.3319 139.666C55.8016 139.666 56.993 138.474 56.993 137.005C56.993 135.535 55.8016 134.344 54.3319 134.344C52.8623 134.344 51.6709 135.535 51.6709 137.005C51.6709 138.474 52.8623 139.666 54.3319 139.666Z" fill="white"/>
<path d="M64.6659 139.666C66.1356 139.666 67.327 138.474 67.327 137.005C67.327 135.535 66.1356 134.344 64.6659 134.344C63.1963 134.344 62.0049 135.535 62.0049 137.005C62.0049 138.474 63.1963 139.666 64.6659 139.666Z" fill="white"/>
<path d="M69.8329 139.666C71.3026 139.666 72.494 138.474 72.494 137.005C72.494 135.535 71.3026 134.344 69.8329 134.344C68.3633 134.344 67.1719 135.535 67.1719 137.005C67.1719 138.474 68.3633 139.666 69.8329 139.666Z" fill="white"/>
<path d="M90.5014 139.666C91.971 139.666 93.1624 138.474 93.1624 137.005C93.1624 135.535 91.971 134.344 90.5014 134.344C89.0317 134.344 87.8403 135.535 87.8403 137.005C87.8403 138.474 89.0317 139.666 90.5014 139.666Z" fill="white"/>
<path d="M95.6684 139.666C97.138 139.666 98.3294 138.474 98.3294 137.005C98.3294 135.535 97.138 134.344 95.6684 134.344C94.1987 134.344 93.0073 135.535 93.0073 137.005C93.0073 138.474 94.1987 139.666 95.6684 139.666Z" fill="white"/>
<path d="M100.836 139.666C102.306 139.666 103.497 138.474 103.497 137.005C103.497 135.535 102.306 134.344 100.836 134.344C99.3662 134.344 98.1748 135.535 98.1748 137.005C98.1748 138.474 99.3662 139.666 100.836 139.666Z" fill="white"/>
<path d="M106.003 139.666C107.472 139.666 108.664 138.474 108.664 137.005C108.664 135.535 107.472 134.344 106.003 134.344C104.533 134.344 103.342 135.535 103.342 137.005C103.342 138.474 104.533 139.666 106.003 139.666Z" fill="white"/>
<path d="M111.17 139.666C112.639 139.666 113.831 138.474 113.831 137.005C113.831 135.535 112.639 134.344 111.17 134.344C109.7 134.344 108.509 135.535 108.509 137.005C108.509 138.474 109.7 139.666 111.17 139.666Z" fill="white"/>
<path d="M116.337 139.666C117.806 139.666 118.998 138.474 118.998 137.005C118.998 135.535 117.806 134.344 116.337 134.344C114.867 134.344 113.676 135.535 113.676 137.005C113.676 138.474 114.867 139.666 116.337 139.666Z" fill="white"/>
<path d="M121.504 139.666C122.974 139.666 124.165 138.474 124.165 137.005C124.165 135.535 122.974 134.344 121.504 134.344C120.035 134.344 118.843 135.535 118.843 137.005C118.843 138.474 120.035 139.666 121.504 139.666Z" fill="white"/>
<path d="M126.671 139.666C128.141 139.666 129.332 138.474 129.332 137.005C129.332 135.535 128.141 134.344 126.671 134.344C125.202 134.344 124.01 135.535 124.01 137.005C124.01 138.474 125.202 139.666 126.671 139.666Z" fill="white"/>
<path d="M142.172 139.666C143.642 139.666 144.833 138.474 144.833 137.005C144.833 135.535 143.642 134.344 142.172 134.344C140.703 134.344 139.511 135.535 139.511 137.005C139.511 138.474 140.703 139.666 142.172 139.666Z" fill="white"/>
<path d="M43.998 144.83C45.4676 144.83 46.659 143.639 46.659 142.169C46.659 140.699 45.4676 139.508 43.998 139.508C42.5283 139.508 41.3369 140.699 41.3369 142.169C41.3369 143.639 42.5283 144.83 43.998 144.83Z" fill="white"/>
<path d="M59.4989 144.83C60.9686 144.83 62.16 143.639 62.16 142.169C62.16 140.699 60.9686 139.508 59.4989 139.508C58.0293 139.508 56.8379 140.699 56.8379 142.169C56.8379 143.639 58.0293 144.83 59.4989 144.83Z" fill="white"/>
<path d="M69.8329 144.83C71.3026 144.83 72.494 143.639 72.494 142.169C72.494 140.699 71.3026 139.508 69.8329 139.508C68.3633 139.508 67.1719 140.699 67.1719 142.169C67.1719 143.639 68.3633 144.83 69.8329 144.83Z" fill="white"/>
<path d="M85.3344 144.83C86.804 144.83 87.9954 143.639 87.9954 142.169C87.9954 140.699 86.804 139.508 85.3344 139.508C83.8647 139.508 82.6733 140.699 82.6733 142.169C82.6733 143.639 83.8647 144.83 85.3344 144.83Z" fill="white"/>
<path d="M106.003 144.83C107.472 144.83 108.664 143.639 108.664 142.169C108.664 140.699 107.472 139.508 106.003 139.508C104.533 139.508 103.342 140.699 103.342 142.169C103.342 143.639 104.533 144.83 106.003 144.83Z" fill="white"/>
<path d="M111.17 144.83C112.639 144.83 113.831 143.639 113.831 142.169C113.831 140.699 112.639 139.508 111.17 139.508C109.7 139.508 108.509 140.699 108.509 142.169C108.509 143.639 109.7 144.83 111.17 144.83Z" fill="white"/>
<path d="M126.671 144.83C128.141 144.83 129.332 143.639 129.332 142.169C129.332 140.699 128.141 139.508 126.671 139.508C125.202 139.508 124.01 140.699 124.01 142.169C124.01 143.639 125.202 144.83 126.671 144.83Z" fill="white"/>
<path d="M131.838 144.83C133.307 144.83 134.499 143.639 134.499 142.169C134.499 140.699 133.307 139.508 131.838 139.508C130.368 139.508 129.177 140.699 129.177 142.169C129.177 143.639 130.368 144.83 131.838 144.83Z" fill="white"/>
<path d="M142.172 144.83C143.642 144.83 144.833 143.639 144.833 142.169C144.833 140.699 143.642 139.508 142.172 139.508C140.703 139.508 139.511 140.699 139.511 142.169C139.511 143.639 140.703 144.83 142.172 144.83Z" fill="white"/>
<path d="M54.3319 150.002C55.8016 150.002 56.993 148.81 56.993 147.341C56.993 145.871 55.8016 144.68 54.3319 144.68C52.8623 144.68 51.6709 145.871 51.6709 147.341C51.6709 148.81 52.8623 150.002 54.3319 150.002Z" fill="white"/>
<path d="M59.4989 150.002C60.9686 150.002 62.16 148.81 62.16 147.341C62.16 145.871 60.9686 144.68 59.4989 144.68C58.0293 144.68 56.8379 145.871 56.8379 147.341C56.8379 148.81 58.0293 150.002 59.4989 150.002Z" fill="white"/>
<path d="M90.5014 150.002C91.971 150.002 93.1624 148.81 93.1624 147.341C93.1624 145.871 91.971 144.68 90.5014 144.68C89.0317 144.68 87.8403 145.871 87.8403 147.341C87.8403 148.81 89.0317 150.002 90.5014 150.002Z" fill="white"/>
<path d="M100.836 150.002C102.306 150.002 103.497 148.81 103.497 147.341C103.497 145.871 102.306 144.68 100.836 144.68C99.3662 144.68 98.1748 145.871 98.1748 147.341C98.1748 148.81 99.3662 150.002 100.836 150.002Z" fill="white"/>
<path d="M111.17 150.002C112.639 150.002 113.831 148.81 113.831 147.341C113.831 145.871 112.639 144.68 111.17 144.68C109.7 144.68 108.509 145.871 108.509 147.341C108.509 148.81 109.7 150.002 111.17 150.002Z" fill="white"/>
<path d="M116.337 150.002C117.806 150.002 118.998 148.81 118.998 147.341C118.998 145.871 117.806 144.68 116.337 144.68C114.867 144.68 113.676 145.871 113.676 147.341C113.676 148.81 114.867 150.002 116.337 150.002Z" fill="white"/>
<path d="M126.671 150.002C128.141 150.002 129.332 148.81 129.332 147.341C129.332 145.871 128.141 144.68 126.671 144.68C125.202 144.68 124.01 145.871 124.01 147.341C124.01 148.81 125.202 150.002 126.671 150.002Z" fill="white"/>
<path d="M137.005 150.002C138.474 150.002 139.666 148.81 139.666 147.341C139.666 145.871 138.474 144.68 137.005 144.68C135.535 144.68 134.344 145.871 134.344 147.341C134.344 148.81 135.535 150.002 137.005 150.002Z" fill="white"/>
<path d="M0 0V36.1695H36.1695V0H0ZM31.0024 31.0024H5.16707V5.16707H31.0024V31.0024Z" fill="white"/>
<path d="M113.676 0V36.1695H149.845V0H113.676ZM144.678 31.0024H118.843V5.16707H144.678V31.0024Z" fill="white"/>
<path d="M0 113.68V149.849H36.1695V113.68H0ZM31.0024 144.682H5.16707V118.847H31.0024V144.682Z" fill="white"/>
<path d="M25.8357 10.3359H10.3345V25.8372H25.8357V10.3359Z" fill="white"/>
<path d="M139.511 10.3359H124.01V25.8372H139.511V10.3359Z" fill="white"/>
<path d="M25.8357 124.016H10.3345V139.517H25.8357V124.016Z" fill="white"/>
<circle cx="76.1752" cy="75.5009" r="13.2353" fill="#9985FB"/>
<circle cx="76.1753" cy="75.5" r="20.5" fill="#9985FB"/>
<path d="M76.1753 56.75C65.8253 56.75 57.4253 65.15 57.4253 75.5C57.4253 85.85 65.8253 94.25 76.1753 94.25C86.5253 94.25 94.9253 85.85 94.9253 75.5C94.9253 65.15 86.5253 56.75 76.1753 56.75ZM84.8753 69.5C84.594 72.4625 83.3753 79.6625 82.7565 82.9812C82.494 84.3875 81.969 84.8563 81.4815 84.9125C80.394 85.0063 79.569 84.2 78.519 83.5063C76.869 82.4188 75.9315 81.7437 74.3378 80.6938C72.4815 79.475 73.6815 78.8 74.7503 77.7125C75.0315 77.4313 79.8315 73.0625 79.9253 72.6687C79.9383 72.6091 79.9366 72.5472 79.9202 72.4884C79.9039 72.4296 79.8735 72.3756 79.8315 72.3313C79.719 72.2375 79.569 72.275 79.4378 72.2937C79.269 72.3313 76.644 74.075 71.5253 77.525C70.7753 78.0312 70.1003 78.2937 69.5003 78.275C68.8253 78.2563 67.5503 77.9 66.594 77.5812C65.4128 77.2062 64.494 77 64.569 76.3438C64.6065 76.0063 65.0753 75.6688 65.9565 75.3125C71.4315 72.9312 75.069 71.3563 76.8878 70.6063C82.1003 68.4313 83.169 68.0562 83.8815 68.0562C84.0315 68.0562 84.3878 68.0937 84.6128 68.2812C84.8003 68.4312 84.8565 68.6375 84.8753 68.7875C84.8565 68.9 84.894 69.2375 84.8753 69.5Z" fill="white"/>
</svg>
