<svg width="48" height="52" viewBox="0 0 48 52" fill="none" xmlns="http://www.w3.org/2000/svg">
<path d="M24.7927 33.3631C25.069 32.8472 25.3646 32.3558 25.6768 31.8752L25.5691 32.0409C25.7521 31.7592 25.938 31.4912 26.1375 31.2203C26.2244 31.1591 26.248 31.0683 26.2444 30.9832C26.2709 30.906 26.24 30.8267 26.171 30.7697C26.0855 30.7018 25.9892 30.6505 25.8879 30.6432C25.7507 30.6005 25.6192 30.5852 25.477 30.5865C25.1215 30.5897 24.7501 30.6535 24.4205 30.7801L24.1074 30.9175C23.9387 30.9959 23.7893 31.0988 23.673 31.2234C23.0989 32.0167 22.5743 32.8424 22.1158 33.7115C22.0247 33.888 22.2288 34.0454 22.3553 34.1047C22.4789 34.1502 22.6132 34.1792 22.7418 34.1808C22.9034 34.2041 23.0593 34.1999 23.223 34.1655C23.5699 34.1211 23.9355 34.0299 24.2565 33.8623C24.4741 33.745 24.6751 33.6168 24.7985 33.3906L24.7927 33.3631Z" fill="#989DFF"/>
<path d="M19.0523 17.216C17.4086 19.3529 15.9099 21.6196 14.5733 23.9726C14.3355 24.3969 14.7642 24.5072 15.1133 24.4873C15.661 24.4791 16.2783 24.2423 16.6853 23.876C19.4225 21.4022 22.0853 18.8238 24.835 16.3474C25.5595 15.6871 24.4381 15.6422 24.0095 15.719C23.052 15.8936 22.3247 16.5412 21.6405 17.2064C20.8596 17.9721 20.0609 18.7149 19.3131 19.5137C18.5135 20.377 17.7596 21.2707 17.054 22.2078C16.5926 22.8128 15.1945 24.1895 15.7239 25.0272C16.1172 25.653 17.5227 24.9965 17.902 24.6227C19.283 23.2896 20.6614 21.9437 22.0299 20.6133C23.0067 19.6593 23.9325 18.8364 25.1241 18.158L23.5078 17.9365C21.0413 21.0752 18.8084 24.3919 16.5882 27.7061C16.2707 28.1872 16.95 28.2448 17.2588 28.22C17.8234 28.1681 18.4703 27.885 18.8361 27.4472C20.4352 25.5336 22.0245 23.6354 23.6235 21.7218C25.0572 20.0168 26.5329 18.2628 28.3748 17.0066L26.6376 16.7704C24.847 18.644 23.3921 20.808 21.871 22.9057C20.3499 25.0035 18.6212 27.1716 17.5701 29.6383C17.3878 30.0776 18.3364 29.9851 18.4769 29.9689C19.0183 29.8684 19.5327 29.6399 19.9012 29.2149C23.2865 25.4686 26.1505 21.1102 30.1957 18.0138L28.31 17.9425C25.3768 21.8477 22.5403 25.8394 20.3528 30.2427C20.1034 30.7363 20.6521 30.7947 21.0234 30.7567C21.5631 30.71 22.278 30.4394 22.6008 29.9839C25.4633 26.0535 28.2792 22.0259 31.6351 18.5131L29.5356 18.6071C26.6907 21.9991 24.3892 25.7981 22.0063 29.5207C21.7407 29.9375 22.2223 30.0501 22.5462 30.0354C23.0939 30.0272 23.7113 29.7904 24.1183 29.4241C27.0469 26.8032 29.9782 24.195 33.2345 22.0131L31.7111 21.6117L26.2283 25.7723L28.114 25.8436C28.7399 24.7762 29.6075 23.9254 30.4393 23.0287C31.365 22.0186 32.2934 21.0213 33.2191 20.0113C33.5482 19.648 33.4765 19.369 32.9681 19.3155C32.3792 19.2522 31.7028 19.5816 31.2681 19.9404C27.9288 22.6611 24.7624 25.7063 22.9971 29.7535C22.8559 30.0773 23.4797 30.1198 23.6104 30.1191C24.065 30.1037 24.5777 29.929 24.9561 29.6757C27.4923 27.9259 29.87 25.9822 32.056 23.8115L29.8779 24.2161C29.9829 24.7153 29.4006 25.3056 29.1243 25.6712C28.7961 26.1011 28.4402 26.5235 28.0788 26.9203C27.3562 27.7139 26.595 28.4488 25.8213 29.1863C24.2837 30.6459 22.7156 32.0851 21.3616 33.7332L23.6221 33.4717C24.8258 31.8552 25.9202 30.1546 27.1239 28.5381C27.7159 27.7452 25.7294 28.1897 25.5075 28.3166C23.8819 29.2332 22.4614 30.4409 20.9845 31.5669L22.8702 31.6382C24.1051 29.7343 25.1976 27.7134 25.8604 25.5155C25.9443 25.2305 25.5639 25.1635 25.3778 25.1491C23.0302 24.9344 21.3093 26.5795 20.2051 28.4826L22.4656 28.2211C23.0618 27.013 23.5041 25.757 23.6913 24.4077C23.8464 23.279 23.9618 21.6507 23.2095 20.6861C22.4572 19.7214 20.8317 20.8252 20.177 21.4441C19.1948 22.3725 18.3577 23.4307 17.6603 24.5933C17.41 25.0202 17.8638 25.1253 18.2003 25.108C18.773 25.0945 19.3197 24.8325 19.7724 24.4967C21.9229 22.8414 24.3788 21.6432 27.0105 20.9694L25.9534 20.6704L24.5449 24.1747C24.3626 24.614 25.2987 24.5242 25.4517 24.5053C25.968 24.4101 26.5353 24.1839 26.876 23.7513L30.6975 19.0311L28.437 19.2926C27.2887 20.7372 26.118 22.1997 25.2768 23.8604C24.5429 25.2846 23.5507 27.4716 24.2792 29.0695C24.3545 29.2408 24.6015 29.2958 24.7572 29.2898C26.3252 29.2808 27.4791 28.2361 28.6572 27.3067C29.8353 26.3772 31.0366 25.3091 32.1422 24.2212L29.9641 24.6257C30.3448 25.2541 29.5649 26.0865 29.1946 26.5654C28.7108 27.1885 28.1786 27.7682 27.6313 28.3378C26.6009 29.41 25.5401 30.4618 24.6547 31.6639C24.0753 32.4541 26.0493 32.0123 26.2711 31.8854C27.58 31.1423 28.6928 30.2132 29.853 29.2607C30.812 28.4709 32.1418 28.3249 33.1545 27.604L31.4172 27.3678C30.6819 27.9769 30.0612 28.6956 29.308 29.2818C28.4779 29.9376 27.6092 30.5346 26.8176 31.2491C25.6512 32.2965 24.5913 33.415 23.4455 34.4981C22.6047 35.2898 24.1985 35.1551 24.6038 35.0297C25.2418 34.8287 25.8224 34.4794 26.352 34.0739C26.7474 33.7769 27.2054 33.2796 27.6778 33.1001L26.371 32.7333C25.473 33.7509 24.5625 34.7711 23.6673 35.8015L25.9278 35.54L26.0637 35.3777C26.4518 34.9218 25.649 34.8367 25.3931 34.8638C24.8159 34.9183 24.1941 35.1962 23.8157 35.6366L23.6798 35.7989C23.2916 36.2548 24.0945 36.3399 24.3504 36.3128C24.9276 36.2583 25.5369 35.9831 25.9278 35.54C26.8257 34.5224 27.7362 33.5022 28.6315 32.4718C29.2352 31.7967 27.5072 32.0398 27.3246 32.1049C26.692 32.3316 26.1239 32.6783 25.5791 33.0736C25.1837 33.3706 24.7258 33.8679 24.248 34.0219L25.4063 34.5535C26.5396 33.4731 27.612 32.352 28.7785 31.3046C29.5254 30.6262 30.3591 30.0499 31.1445 29.4302C31.9299 28.8106 32.5954 28.0558 33.3754 27.4105C33.7207 27.124 33.6561 26.8168 33.2327 26.732C32.7386 26.6221 32.0237 26.8927 31.6382 27.1743C30.7176 27.8358 29.4908 27.9735 28.5479 28.653C27.4207 29.4515 26.4851 30.4769 25.2809 31.1579L26.8973 31.3794C27.9034 30.0049 29.144 28.8752 30.2951 27.6306C30.8371 27.0354 31.3666 26.4428 31.8146 25.7738C32.2062 25.2102 32.7857 24.42 32.3638 23.7201C31.9831 23.0917 30.5552 23.7662 30.1857 24.1246C29.4273 24.8723 28.6383 25.5996 27.8163 26.2938C27.4513 26.6112 27.0711 26.9184 26.6882 27.2128C26.3626 27.4684 25.8949 27.9811 25.5047 28.1166L26.4121 27.9525L26.1911 27.9589L26.6691 28.1792C25.9845 26.6657 27.0116 24.458 27.7545 23.1388C28.5806 21.6551 29.6252 20.3394 30.6697 19.0236C31.0427 18.5575 30.2676 18.4799 29.9991 18.5096C29.4344 18.5615 28.7849 18.8318 28.4218 19.2824L24.6003 24.0026L26.9314 23.5793L28.3399 20.0749C28.5365 19.5791 27.4081 19.7496 27.2828 19.776C23.8324 20.662 20.6428 22.2283 17.8061 24.4156L19.9056 24.3216C20.5664 23.2336 21.4006 21.9754 22.4303 21.2108L21.5186 21.6031L21.6564 21.5741C21.3395 21.5605 21.0102 21.5496 20.6934 21.536C21.1061 21.7566 21.2363 22.6248 21.3001 23.0525C21.3819 23.6903 21.3384 24.3544 21.2493 24.9881C21.0853 26.1989 20.7199 27.3852 20.1899 28.4724C19.7402 29.3824 22.1115 28.7768 22.4503 28.2109C22.681 27.8149 22.9188 27.3906 23.1952 27.025C23.3186 26.8654 23.4724 26.7261 23.5958 26.5665C23.7837 26.3399 23.6065 26.4306 23.9135 26.4596L23.4309 26.0932C22.7967 28.1782 21.7703 30.0783 20.5945 31.8895C20.3683 32.2445 20.6995 32.3888 20.994 32.4204C21.4746 32.4664 22.0973 32.2552 22.4802 31.9608C23.788 30.9639 25.026 29.8214 26.4673 29.0237L24.8509 28.8022C23.6472 30.4188 22.5528 32.1193 21.3491 33.7359C21.0039 34.2095 21.7387 34.2822 22.0197 34.2499C22.5844 34.198 23.2313 33.9148 23.597 33.477C25.087 31.6666 26.8599 30.1442 28.5209 28.525C29.334 27.7257 30.1291 26.9035 30.8607 26.0279C31.4367 25.3453 32.4903 24.3217 32.2705 23.3386C32.1099 22.6372 30.3527 23.488 30.0925 23.7433C28.0227 25.7826 25.8096 27.6382 23.4202 29.2769L25.389 29.1836C27.0398 25.4011 30.0811 22.5693 33.1967 20.0294L31.2457 19.9584C30.2431 21.0381 29.253 22.1152 28.2503 23.1949C27.3989 24.1226 26.4892 25.0223 25.8437 26.1205C25.3162 27.0335 27.4709 26.3932 27.7294 26.1918L33.2122 22.0312C33.4931 21.8117 33.9197 21.4145 33.4041 21.2021C32.9163 20.9973 32.0895 21.3583 31.7013 21.6271C28.2955 23.9073 25.2077 26.6419 22.1449 29.3713L24.2444 29.2773C26.6274 25.5547 28.9413 21.753 31.7737 18.3637C32.1073 17.9593 31.4924 17.8347 31.2338 17.8489C30.7263 17.8621 30.0284 18.0891 29.6617 18.4603C26.1869 22.0917 23.2842 26.2043 20.3179 30.2634L22.5784 30.0019C24.7659 25.5986 27.5899 21.6095 30.5356 17.7017C30.7896 17.3542 30.4181 17.2051 30.1362 17.1708C29.6556 17.1249 29.0328 17.336 28.6499 17.6304C24.3238 20.9463 21.2612 25.4801 17.621 29.5072L19.9521 29.0839C20.9496 26.7354 22.6202 24.7265 24.0868 22.6804C25.5533 20.6342 26.8597 18.6352 28.5439 16.8774C28.8337 16.5759 28.855 16.304 28.4012 16.199C27.8946 16.0916 27.2075 16.3698 26.8067 16.6412C24.8278 17.9931 23.2143 19.776 21.6617 21.5997C19.9312 23.6345 18.231 25.6896 16.5157 27.7346L18.7762 27.4731C21.0063 24.1436 23.2293 20.8423 25.6958 17.7036C25.9229 17.4152 25.6669 17.2552 25.4046 17.1901C25.0063 17.1001 24.4158 17.2777 24.0767 17.4693C20.9105 19.2714 18.4867 22.0535 15.891 24.5777L18.0691 24.1731C17.7171 23.6189 18.9854 22.3096 19.3359 21.8616C19.8913 21.1433 20.4619 20.4351 21.0683 19.7729C21.6747 19.1107 22.2766 18.4895 22.909 17.8887C23.1595 17.6489 23.4126 17.4218 23.6505 17.1847C23.7498 17.097 23.8491 17.0092 23.9332 16.9114C24.2552 16.5763 24.3161 16.8041 23.6495 16.9309L22.824 16.3025C20.0868 18.7762 17.424 21.3547 14.6744 23.831L16.7739 23.7371C18.1078 21.3713 19.5966 19.1199 21.2528 16.9805C21.6132 16.517 20.8632 16.4341 20.5822 16.4665C20.0301 16.5158 19.3555 16.7913 19.0049 17.2393L19.0523 17.216Z" fill="#846DF2"/>
<path d="M21.0265 45.1627C20.7819 46.1424 20.8384 47.1251 21.1487 48.081C21.4298 48.9634 21.9514 49.7555 22.8586 50.1085C23.4984 50.3585 24.1896 50.3988 24.8675 50.3756C25.4092 50.3545 25.9614 50.3179 26.4949 50.1925C27.0283 50.067 27.5354 49.8808 27.9159 49.4825C28.2078 49.1824 28.3684 48.7773 28.4767 48.3832C28.7394 47.3599 28.6981 46.2546 28.4687 45.2287C28.3405 44.6191 26.3777 44.7004 26.4685 45.1322C26.6314 45.9069 26.6923 46.7162 26.6015 47.5178C26.5335 48.1686 26.3957 49.0065 25.7611 49.3654C25.6645 49.4255 25.4737 49.4922 25.4344 49.5004C25.3429 49.5197 25.2383 49.5417 25.1468 49.5609C25.1468 49.5609 24.9898 49.5939 25.0683 49.5774C25.1337 49.5637 24.9637 49.5995 24.9479 49.5895C24.7464 49.6054 24.545 49.6212 24.3408 49.6244C24.5161 49.614 24.2989 49.6199 24.2308 49.621C24.2439 49.6182 24.3827 49.6288 24.2701 49.6127C24.1313 49.6021 24.3723 49.6443 24.2439 49.6182C24.1993 49.6011 24.0472 49.5269 23.9474 49.4418C23.8161 49.3368 23.724 49.2236 23.6292 49.0977C23.4133 48.785 23.2573 48.4332 23.1303 48.0886C22.8176 47.1863 22.803 46.208 23.0321 45.2846C23.0604 45.1593 22.8295 45.0354 22.7535 44.9984C22.5568 44.9072 22.2739 44.8606 22.054 44.8538C21.7791 44.8453 21.122 44.8376 21.0319 45.1881L21.0265 45.1627Z" fill="black"/>
<path d="M18.6799 41.9684C18.5402 42.7057 18.402 43.5727 18.8263 44.2492C19.1905 44.8228 19.8279 45.0499 20.4175 45.1715C21.9846 45.4921 23.5912 45.5732 25.1722 45.4719C26.7532 45.3706 28.4388 45.2184 29.7464 44.3655C30.7054 43.7448 31.6614 42.0123 30.3584 41.0583C30.0243 40.8107 29.4923 41.0237 29.1783 41.1764C29.052 41.2463 28.4105 41.6702 28.7294 41.9066C29.4886 42.4693 29.2934 43.7961 28.4609 44.0434C27.3888 44.37 26.2 44.4467 25.0883 44.4638C23.9767 44.4808 22.7834 44.4139 21.6656 44.1578C21.2227 44.0631 20.75 43.888 20.498 43.4209C20.1952 42.8344 20.3285 42.1274 20.4453 41.5249C20.5463 40.9691 18.791 41.3382 18.6741 41.9407L18.6799 41.9684Z" fill="black"/>
<path d="M28.8577 40.9827C26.9967 41.5066 24.839 41.5509 22.937 41.445C21.7613 41.3792 20.5784 41.2787 19.4079 41.1755C18.8763 41.1308 18.4045 41.1216 18.3255 40.5602C18.2677 40.2231 18.2349 39.8807 18.217 39.5473C18.1804 39.001 18.1425 38.2623 18.8967 38.2482C20.0005 38.2208 21.1036 38.314 22.1998 38.3123C23.9853 38.2981 25.7561 38.2147 27.5395 38.1287C28.2614 38.0853 29.3112 37.9247 29.7716 38.5625C30.0663 38.9702 30.1274 39.5716 29.9522 40.042C29.7464 40.6152 29.2255 40.8692 28.64 41.0646C28.3472 41.1623 28.0686 41.3895 28.372 41.5906C28.6754 41.7918 29.3706 41.6215 29.6884 41.5186C30.8243 41.1472 31.9323 40.4565 31.9349 39.2276C31.9392 38.1307 31.1263 37.555 30.0485 37.3963C28.9708 37.2375 27.8138 37.3845 26.7148 37.435C25.6158 37.4855 24.5443 37.5422 23.463 37.5528C22.0446 37.5741 20.6221 37.4518 19.2109 37.5077C18.2793 37.547 16.9146 37.7618 16.4496 38.6544C16.255 39.0326 16.2944 39.5301 16.3244 39.9212C16.3545 40.3123 16.3559 40.878 16.5384 41.2491C16.7802 41.7161 17.409 41.7886 17.9079 41.8644C18.6739 41.9682 19.4478 41.9861 20.2214 42.0643C21.8609 42.2253 23.496 42.303 25.1446 42.1971C26.561 42.104 28.0875 41.9756 29.4682 41.5889C29.6783 41.5327 30.2662 41.3489 30.0608 41.0548C29.8877 40.7902 29.1053 40.9186 28.8601 40.9942L28.8577 40.9827Z" fill="black"/>
<path d="M24.0304 37.7801C24.0852 35.6939 24.1648 33.6024 24.2319 31.5136C24.2991 29.4248 24.6495 27.0154 23.4534 25.2183C22.4651 23.7298 20.4942 23.1265 18.8182 23.7399C17.1421 24.3534 16.7063 26.2327 18.0885 27.4948C19.5814 28.8511 22.2529 28.772 24.1204 28.575C26.2792 28.3428 28.342 27.5306 29.7442 25.8004C30.5192 24.8545 31.5862 23.0121 30.4405 21.9482C29.0379 20.6512 26.7719 21.1147 25.8521 22.7305C25.2748 23.7522 25.2222 25.1073 25.06 26.2505C24.877 27.5416 24.7314 28.825 24.6282 30.1254C24.4247 32.7388 24.4306 35.3603 24.5386 37.9734C24.5671 38.5415 26.4643 38.547 26.4462 38.0289C26.2996 34.6149 26.3723 31.194 26.7619 27.7977C26.8601 26.968 26.9734 26.1482 27.0991 25.3258C27.2249 24.5034 27.2923 23.5889 27.7408 22.8813C27.9468 22.5639 28.2013 22.3538 28.4577 22.0911C28.8129 21.7424 28.5278 22.1155 28.362 22.0068C28.5153 22.1182 28.6528 22.1545 28.7767 22.3111C29.12 22.7087 29.0687 23.2675 28.9218 23.7421C27.9599 27.0107 24.0417 28.448 20.9507 27.7671C19.5614 27.459 18.2467 25.5303 19.7961 24.4998C21.0733 23.6571 22.0846 26.1194 22.2614 27.0217C22.592 28.779 22.3682 30.6789 22.3002 32.4548C22.2321 34.2307 22.1686 35.9665 22.1228 37.7246C22.1062 38.2631 24.0138 38.3186 24.0304 37.7801Z" fill="black"/>
<path d="M21.2304 37.1619C21.2666 35.3136 20.8828 33.2359 19.368 32.0316C17.6913 30.6892 15.9322 29.5231 14.6868 27.706C12.0512 23.8242 13.8237 19.055 17.4107 16.4732C21.2281 13.7239 26.5423 13.7981 30.7362 15.6175C34.9301 17.4369 35.8857 22.6122 34.9242 26.6281C34.6275 27.8691 34.0597 29.0214 33.2097 29.9682C32.4153 30.8635 31.3783 31.4259 30.4034 32.0944C28.6055 33.3333 27.3632 35.3822 27.6773 37.6335C27.7431 38.1361 29.6507 37.7349 29.5689 37.1563C29.4051 35.9989 29.7507 34.8006 30.3378 33.8032C30.9248 32.8058 31.9364 32.2488 32.8812 31.6263C34.7961 30.3761 36.2477 28.6274 36.7822 26.3698C37.7847 22.1069 36.6853 16.8162 32.3757 14.8887C28.0661 12.9612 22.6328 12.9518 18.3034 14.9084C14.3623 16.6906 10.6368 20.8243 11.5821 25.4456C12.1128 27.9692 13.9944 29.9703 15.9661 31.5155C16.9699 32.3108 18.1734 32.9184 18.7098 34.1431C19.1787 35.2363 19.3457 36.4724 19.3287 37.6545C19.3277 38.0917 21.2058 37.8027 21.2203 37.1772L21.2304 37.1619Z" fill="black"/>
<path d="M2.78586 18.1489C3.11603 18.188 3.43434 18.2297 3.75483 18.2817C3.8444 18.2954 3.9221 18.3116 4.01167 18.3254C4.05161 18.3387 4.10124 18.3391 4.14118 18.3524C4.06348 18.3362 4.06348 18.3362 4.14118 18.3524C4.29659 18.3849 4.46386 18.4149 4.61928 18.4473C5.26683 18.5826 5.89941 18.7644 6.51047 18.9616C6.86999 19.0814 7.44042 19.0265 7.78834 18.8557C7.8885 18.802 8.04576 18.7255 8.04543 18.6062C8.04509 18.4868 7.87345 18.4361 7.76766 18.404C6.45161 17.9751 5.06475 17.6805 3.66855 17.5181C3.30063 17.4761 2.74735 17.4948 2.43846 17.7334C2.12956 17.9721 2.56897 18.1185 2.78368 18.1385L2.78586 18.1489Z" fill="black"/>
<path d="M7.83766 7.81521C7.70235 8.19916 7.55064 8.62606 7.699 9.02935C7.86749 9.46791 8.29783 9.64073 8.71914 9.71013C9.24842 9.80948 9.83109 9.73965 10.3412 9.56654C10.5306 9.50037 10.7174 9.42156 10.9164 9.34022C10.7756 9.39616 11.0016 9.3223 11.0381 9.31463C11.1572 9.27642 10.7232 9.32818 10.9407 9.3351C10.819 9.3607 10.6989 9.33332 10.5909 9.30336L10.5491 9.2858L10.701 9.46451C10.7921 9.65601 10.8034 9.89065 10.8336 10.095C10.91 10.5792 10.9743 11.066 11.075 11.5452C11.1652 11.9739 11.3284 12.3872 11.7111 12.6359C12.2448 12.9977 12.9597 12.9526 13.5413 12.8171C13.7726 12.7685 14.1858 12.4973 13.8449 12.2662C13.5039 12.035 12.9334 12.1023 12.5588 12.1943L12.644 12.1764C12.8049 12.1557 12.9684 12.1477 13.1319 12.1396C13.2103 12.1495 13.2912 12.1719 13.3601 12.1969L13.3008 12.1567C13.3008 12.1567 13.2213 12.0813 13.1864 12.036C13.0667 11.89 13.0174 11.716 12.9681 11.542C12.8833 11.1386 12.8323 10.7148 12.7596 10.3087C12.6949 9.94052 12.6735 9.53684 12.5141 9.20171C12.3372 8.84392 11.9582 8.6735 11.6004 8.60391C11.1224 8.50692 10.6371 8.55628 10.1651 8.66872C9.98252 8.70711 9.81743 8.76819 9.64282 8.84441C9.58196 8.85721 9.51423 8.89778 9.45603 8.92319C9.25972 9.01714 9.60208 8.89245 9.38565 8.95113C9.32479 8.96393 9.15174 8.98717 9.32744 8.97655C9.13957 8.98973 9.45446 8.97617 9.48146 8.98366C9.51797 8.97598 9.67042 9.03609 9.69211 9.01836C9.67994 9.02092 9.60738 8.91767 9.59256 8.90762C9.4289 8.61287 9.56157 8.21634 9.66676 7.93088C9.79787 7.58731 9.20773 7.50075 8.99021 7.49383C8.74569 7.47942 8.50913 7.50284 8.26836 7.56664C8.13447 7.5948 7.91117 7.68126 7.85249 7.82527L7.83766 7.81521Z" fill="black"/>
<path d="M24.81 8.57133C25.2127 8.51172 25.6611 8.44656 25.9484 8.12706C26.2576 7.77329 26.2095 7.31205 26.0741 6.90708C25.9149 6.39265 25.5811 5.91 25.1898 5.53973C25.0428 5.40311 24.8859 5.27473 24.7211 5.13677C24.8363 5.23512 24.6655 5.06979 24.6416 5.04108C24.5523 4.95364 24.8007 5.31321 24.7052 5.11763C24.7847 5.21331 24.8166 5.33234 24.8405 5.44181L24.8445 5.487L24.9316 5.26917C25.0584 5.09918 25.2606 4.97971 25.4272 4.85756C25.8197 4.56388 26.2202 4.27975 26.5969 3.96693C26.9339 3.68704 27.2232 3.34975 27.2644 2.89518C27.3352 2.25437 26.9615 1.64314 26.5702 1.1921C26.4192 1.01031 25.9864 0.771536 25.9412 1.18094C25.896 1.59034 26.2219 2.06341 26.4781 2.35179L26.4225 2.28481C26.3291 2.1522 26.2456 2.01133 26.1622 1.87048C26.1343 1.79661 26.1163 1.71452 26.1064 1.64198L26.0985 1.71319C26.0985 1.71319 26.0688 1.81864 26.0451 1.87071C25.9719 2.0447 25.841 2.16952 25.7102 2.29434C25.393 2.55776 25.0421 2.80072 24.717 3.05458C24.4216 3.28374 24.0746 3.4911 23.8526 3.78857C23.6189 4.11208 23.6451 4.52681 23.7506 4.8757C23.888 5.34363 24.1583 5.74974 24.4781 6.11466C24.5973 6.25818 24.7284 6.37565 24.8773 6.49448C24.917 6.54232 24.9845 6.58327 25.0342 6.62287C25.2089 6.7526 24.9388 6.50807 25.0918 6.67207C25.1315 6.71991 25.2328 6.86208 25.1414 6.71167C25.2408 6.87165 25.0818 6.59952 25.0758 6.57215C25.0519 6.54345 25.0339 6.38058 25.0081 6.36968C25.0161 6.37924 24.9586 6.49161 24.9567 6.50941C24.7724 6.79176 24.3598 6.85958 24.0583 6.89984C23.6933 6.94432 23.8922 7.5066 23.9877 7.70218C24.0891 7.92514 24.2203 8.12339 24.3891 8.30652C24.4765 8.41177 24.6572 8.56887 24.812 8.55352L24.81 8.57133Z" fill="black"/>
<path d="M39.0419 9.58642C38.4041 10.7751 37.7503 11.9544 37.1126 13.1432C36.9293 13.4775 37.6506 13.5573 37.8473 13.5545C38.1166 13.5622 38.3808 13.5452 38.6455 13.4638C38.8048 13.4175 39.029 13.3446 39.1111 13.1987C39.7488 12.01 40.4026 10.8308 41.0403 9.64203C41.2237 9.30767 40.5023 9.22786 40.3056 9.23064C40.0363 9.22298 39.7722 9.23995 39.5075 9.32133C39.3481 9.3677 39.1239 9.44055 39.0419 9.58642Z" fill="black"/>
<path d="M42.0853 19.2582C42.3304 19.0826 42.5775 18.9168 42.8385 18.7585C42.9787 18.6669 42.7605 18.7956 42.9048 18.7239C42.9808 18.6769 43.0588 18.6397 43.1348 18.5927C43.2556 18.526 43.3882 18.4567 43.5111 18.3998C43.634 18.343 43.7645 18.2638 43.9013 18.2144C43.6982 18.2984 43.9696 18.1896 44.0028 18.1723C44.0594 18.1501 44.1278 18.1254 44.1844 18.1031C44.3308 18.0413 44.4676 17.9918 44.6161 17.9399C44.8329 17.8633 44.4206 18.0017 44.6395 17.935C44.7217 17.9177 44.8115 17.8781 44.8916 17.8509C45.0871 17.7891 45.304 17.7125 45.4752 17.5938C45.5608 17.5344 45.6968 17.423 45.6621 17.3165C45.5824 17.0541 44.882 17.222 44.7079 17.269C43.2789 17.704 41.9171 18.342 40.7366 19.2005C40.651 19.2599 40.515 19.3712 40.5497 19.4777C40.5843 19.5842 40.773 19.6066 40.8711 19.6066C41.2656 19.6168 41.7781 19.4883 42.097 19.2557L42.0853 19.2582Z" fill="black"/>
</svg>
