<svg width="21" height="30" viewBox="0 0 21 30" fill="none" xmlns="http://www.w3.org/2000/svg">
<path d="M7.90087 25.1015C7.72296 25.8704 7.74837 26.6905 7.98982 27.4338C8.10419 27.7798 8.25668 28.113 8.46 28.4205C8.72687 28.8049 9.1208 29.074 9.55287 29.2662C10.417 29.6507 11.4844 29.6507 12.3994 29.4585C12.7933 29.3816 13.2 29.2406 13.4668 28.9202C13.6829 28.6768 13.8099 28.3692 13.8862 28.0489C14.0768 27.2287 14.0387 26.3189 13.8608 25.4988C13.8354 25.3578 13.6066 25.2169 13.4923 25.1656C13.2889 25.0503 13.0221 24.9606 12.7933 24.935C12.59 24.9093 11.9546 24.8453 12.0309 25.2169C12.1579 25.832 12.1961 26.4599 12.1198 27.0878C12.0563 27.5875 11.9419 28.1898 11.4717 28.4717C11.2303 28.6127 11.0651 28.6255 10.7728 28.6512C10.6203 28.664 10.4551 28.6768 10.3026 28.6896C10.417 28.6896 10.2391 28.6896 10.201 28.6896C10.1883 28.6896 10.0612 28.6896 10.1628 28.6896C10.2264 28.6896 10.2137 28.6896 10.1247 28.6896L10.2264 28.7152C10.2264 28.7152 10.3916 28.7793 10.3026 28.7409C10.2137 28.7024 10.3662 28.7665 10.3662 28.7665C10.4805 28.8306 10.3916 28.7793 10.328 28.7409C10.328 28.7409 10.2518 28.664 10.3026 28.7152C10.3535 28.7665 10.2645 28.6768 10.2645 28.664C10.2137 28.6127 10.1755 28.5615 10.1374 28.4974C10.0103 28.3308 9.89597 28.0233 9.80702 27.7798C9.57828 27.075 9.55287 26.3445 9.71807 25.6269C9.79431 25.2937 9.1208 25.0631 8.89207 24.999C8.66333 24.9349 8.43459 24.8965 8.21856 24.935C8.10419 24.9478 7.91357 24.9862 7.87545 25.1272L7.90087 25.1015Z" fill="black"/>
<path d="M5.58886 22.7046C5.46593 23.3055 5.343 23.9492 5.60115 24.5214C5.85931 25.0936 6.4125 25.2939 6.91651 25.4226C8.20729 25.723 9.57183 25.7373 10.8749 25.6229C11.5879 25.5657 12.3009 25.4512 13.0016 25.2796C13.5671 25.1508 14.1449 24.9935 14.6489 24.6501C15.5094 24.0636 16.0134 22.676 15.03 21.9321C14.6981 21.689 14.108 21.8177 13.7638 21.9751C13.5179 22.0895 13.1614 22.3613 13.5056 22.6045C14.0711 23.0193 13.6654 24.0636 13.1737 24.3211C12.8664 24.4785 12.4853 24.5214 12.1534 24.5786C11.7108 24.6645 11.2683 24.7217 10.8257 24.7503C9.94062 24.8075 9.04322 24.7789 8.17041 24.6072C7.85079 24.55 7.53117 24.4213 7.37136 24.0493C7.19926 23.6345 7.2976 23.0766 7.39595 22.6474C7.53117 21.9894 5.72408 22.1181 5.61344 22.6903L5.58886 22.7046Z" fill="black"/>
<path d="M13.9661 22.3276C13.3642 22.4778 12.6708 22.524 12.0428 22.5702C11.1139 22.651 10.198 22.6626 9.2822 22.6048C8.28786 22.5355 7.26736 22.4663 6.2861 22.3276C5.91976 22.2814 5.9721 22.0966 5.93285 21.8079C5.8936 21.5191 5.84126 21.2419 5.84126 20.9531C5.84126 20.5027 5.99827 20.1793 6.5216 20.1677C7.31969 20.1561 8.14395 20.2486 8.94204 20.2486C10.4335 20.2601 11.9251 20.2254 13.4166 20.1792C13.8876 20.1677 14.6202 19.9944 14.9342 20.3987C15.1697 20.699 15.2221 21.1726 15.0912 21.5191C14.9212 21.9696 14.4632 22.189 13.9922 22.3276C13.6259 22.4316 13.639 22.6626 13.9661 22.8127C14.3455 22.986 14.9473 23.0091 15.3529 22.8821C16.3342 22.5818 17.2762 21.9927 17.1061 20.9647C16.9491 20.0175 16.0463 19.6364 15.052 19.5209C14.0577 19.4054 13.1156 19.4862 12.1475 19.5209C11.284 19.544 10.4205 19.567 9.54387 19.567C8.40561 19.567 7.25427 19.4516 6.11602 19.4747C5.37026 19.4747 4.33667 19.6017 3.9965 20.2947C3.85258 20.5951 3.89183 20.9647 3.918 21.2881C3.94417 21.6115 3.95725 22.0273 4.11425 22.3161C4.34975 22.7435 4.96467 22.8474 5.44876 22.9398C6.10293 23.0553 6.77019 23.0784 7.42436 23.1362C8.86353 23.2864 10.3027 23.4018 11.755 23.3325C12.9456 23.2748 14.2147 23.1939 15.3529 22.9052C15.7323 22.8128 15.6931 22.5586 15.3791 22.42C14.9866 22.2352 14.4109 22.2468 13.9922 22.3507L13.9661 22.3276Z" fill="black"/>
<path d="M9.99765 18.9999C10.0348 17.5508 10.0967 16.1017 10.1338 14.6526C10.1709 13.2035 10.4309 11.4909 9.99765 10.0682C9.60155 8.77717 8.46275 7.8682 7.17542 7.89454C6.049 7.92089 5.00923 8.94843 5.64052 10.1604C6.34608 11.5436 8.19043 11.6886 9.49015 11.6622C11.0003 11.6359 12.5104 11.2406 13.6121 10.0814C14.2186 9.43586 15.1594 8.10534 14.6395 7.13049C14.1196 6.15564 12.5723 5.91851 11.8049 6.6694C11.1488 7.31491 11.0374 8.25022 10.926 9.1592C10.7775 10.2131 10.6908 11.2802 10.6413 12.3472C10.5423 14.5736 10.6166 16.7867 10.6908 19.0131C10.7032 19.4346 11.9039 19.6059 11.8915 19.3161C11.7801 16.5233 11.7058 13.7173 11.9534 10.9376C12.0524 9.81789 12.0401 8.21069 12.758 7.30171C12.857 7.16998 13.1541 6.80112 13.3274 6.85381C13.4636 6.89334 13.5378 7.16998 13.5626 7.30171C13.6245 7.63105 13.5007 7.99992 13.3769 8.28974C12.956 9.30411 12.1267 10.1604 11.1736 10.6083C10.5918 10.885 9.96052 11.0035 9.32923 11.0562C8.73508 11.0957 7.95525 11.1616 7.39823 10.8849C6.89072 10.6346 6.507 9.93646 6.69267 9.34365C6.82883 8.90892 7.34872 8.39514 7.81909 8.5137C8.25233 8.61909 8.59892 9.34363 8.74745 9.73884C8.98264 10.4107 9.0074 11.1353 9.0074 11.8598C8.98264 14.1389 8.84648 16.4179 8.79697 18.6969C8.79697 19.1053 9.99765 19.3161 9.99765 18.9999Z" fill="black"/>
<path d="M7.95179 18.9981C7.9769 17.6981 7.75094 16.1019 6.80943 15.1494C5.70473 14.0295 4.33641 13.2958 3.3447 12.0344C2.2651 10.6828 1.68765 9.0352 1.97638 7.28461C2.26511 5.53401 3.3447 3.92501 4.68791 2.81802C7.57519 0.449566 11.6425 0.269348 14.9691 1.7625C18.2958 3.25566 18.8607 7.45195 18.0573 10.5927C17.8188 11.5195 17.3543 12.4077 16.7141 13.1156C16.0738 13.8236 15.2328 14.287 14.467 14.8405C13.1489 15.793 12.2827 17.402 12.4961 19.0883C12.5714 19.6546 14.4419 19.5259 14.3791 19.011C14.2661 18.1228 14.4796 17.2476 14.9064 16.4624C15.3583 15.6257 16.124 15.1494 16.8898 14.6345C18.3837 13.6305 19.4884 12.3176 19.9403 10.5155C20.7814 7.1559 19.9026 2.90812 16.6262 1.32486C13.174 -0.348504 8.66733 -0.477218 5.19004 1.1704C2.10191 2.62494 -0.810475 6.07465 0.206349 9.79467C0.721038 11.674 2.08936 13.1285 3.54555 14.3127C4.27365 14.9048 5.15238 15.3682 5.5792 16.2693C6.00602 17.1703 6.08133 18.1486 6.06878 19.0883C6.06878 19.616 7.93924 19.5774 7.95179 19.011V18.9981Z" fill="black"/>
</svg>
