<svg width="90" height="63" viewBox="0 0 90 63" fill="none" xmlns="http://www.w3.org/2000/svg">
<path fill-rule="evenodd" clip-rule="evenodd" d="M30.9942 2.4669C31.3287 1.16781 30.421 0.989647 35.8897 1.25194C41.3584 1.51423 54.3745 2.29121 55.1691 2.43473C55.9637 2.57825 60.9551 4.3376 61.3364 4.76815C61.7177 5.19871 65.1519 12.8423 65.1519 12.8423L63.762 24.6035L62.2097 38.8861C62.2097 38.8861 61.9539 44.904 61.3216 45.2974C60.6894 45.6909 60.9084 45.9061 53.0411 45.2974C45.1739 44.6887 36.822 44.7283 35.7765 44.3175C34.731 43.9068 30.3865 39.4552 29.8207 38.599C29.6288 38.312 29.4591 37.9062 29.4074 37.3667C29.2525 35.7311 29.4345 32.2966 29.5501 30.3318C29.7371 27.1249 30.234 13.8321 30.234 13.8321L30.9966 2.46443L30.9942 2.4669Z" fill="#B5F485"/>
<path d="M55.9989 13.0556L49.0502 12.7138C48.9308 12.7079 48.8292 12.8005 48.8234 12.9206L48.5757 18.0144C48.5699 18.1345 48.662 18.2367 48.7814 18.2425L55.7301 18.5844C55.8495 18.5902 55.9511 18.4976 55.9569 18.3775L56.2046 13.2837C56.2104 13.1636 56.1183 13.0615 55.9989 13.0556Z" fill="white"/>
<path d="M37.5384 8.86778C38.4978 8.23926 39.5581 7.96955 40.6996 7.82108C41.5606 7.78396 41.6246 9.10285 40.7636 9.14739C39.7697 9.09295 38.8004 9.58537 37.7918 9.61259C37.408 9.62496 37.2334 9.09048 37.5384 8.86778Z" fill="#846DF2"/>
<path d="M51.4078 9.40345C50.5074 9.30942 49.6611 8.82442 48.7903 8.72792C48.4287 8.67595 48.1777 8.3419 48.2294 7.97815C48.4951 6.86464 49.8456 7.73071 50.4754 7.94598C50.9207 8.18353 52.2442 8.57203 51.7423 9.27972C51.6513 9.37128 51.5283 9.41334 51.4078 9.40345Z" fill="#846DF2"/>
<path d="M53.0147 12.8746L48.8351 12.669C48.7795 12.6663 48.7322 12.7094 48.7294 12.7654L48.4743 18.0124C48.4716 18.0684 48.5145 18.116 48.5701 18.1187L52.7497 18.3243C52.8053 18.3271 52.8526 18.2839 52.8553 18.2279L53.1105 12.9809C53.1132 12.925 53.0703 12.8774 53.0147 12.8746Z" fill="#846DF2"/>
<path d="M55.1378 19.0423C55.1156 19.0423 55.0935 19.0423 55.0713 19.0423L49.4673 18.7676C48.7318 18.7305 48.166 18.102 48.2029 17.3621L48.3874 13.544C48.4046 13.1877 48.5596 12.8561 48.8228 12.6161C49.0885 12.3761 49.4206 12.24 49.7822 12.2697L55.3862 12.5443C56.1193 12.5814 56.6876 13.21 56.6507 13.9473L56.4637 17.7679C56.4465 18.1242 56.2915 18.4558 56.0283 18.6958C55.7798 18.921 55.4649 19.0423 55.1328 19.0423H55.1378ZM55.1181 18.0723C55.3321 18.0822 55.4945 17.9238 55.5043 17.7209L55.6913 13.9003C55.7011 13.6974 55.5437 13.5217 55.3395 13.5118L49.7355 13.2372C49.5485 13.2421 49.3591 13.3856 49.3493 13.5885L49.1648 17.4066C49.1598 17.5056 49.1943 17.5997 49.2607 17.6739C49.3271 17.7481 49.4181 17.7902 49.5165 17.7951L55.1205 18.0698L55.1181 18.0723Z" fill="#846DF2"/>
<path d="M40.6372 12.4471L33.6713 12.1044C33.5519 12.0985 33.4503 12.1911 33.4445 12.3112L33.1968 17.405C33.191 17.5251 33.2831 17.6273 33.4025 17.6332L40.3684 17.9758C40.4878 17.9817 40.5893 17.8891 40.5952 17.769L40.8429 12.6752C40.8487 12.5551 40.7566 12.4529 40.6372 12.4471Z" fill="white"/>
<path d="M37.7139 12.1015L33.6867 11.9034C33.631 11.9007 33.5837 11.9438 33.581 11.9998L33.3135 17.5014C33.3108 17.5573 33.3537 17.6049 33.4093 17.6076L37.4365 17.8058C37.4922 17.8085 37.5395 17.7653 37.5422 17.7094L37.8097 12.2078C37.8124 12.1518 37.7695 12.1042 37.7139 12.1015Z" fill="#846DF2"/>
<path d="M39.7748 18.4304C39.7527 18.4304 39.7305 18.4304 39.7084 18.4304L34.1044 18.1558C33.7477 18.1384 33.4205 17.9825 33.1819 17.7178C32.9433 17.453 32.8203 17.1091 32.8399 16.7527L33.0244 12.9346C33.0417 12.5783 33.1966 12.2467 33.4599 12.0067C33.7231 11.7667 34.0577 11.6306 34.4193 11.6603L40.0233 11.935C40.7564 11.9721 41.3246 12.6006 41.2877 13.338L41.1008 17.1585C41.0836 17.5149 40.9286 17.8464 40.6654 18.0865C40.4169 18.3116 40.102 18.4329 39.7699 18.4329L39.7748 18.4304ZM39.7551 17.4604C39.9544 17.4604 40.1315 17.312 40.1414 17.1091L40.3283 13.2885C40.3382 13.0856 40.1807 12.9099 39.9765 12.9L34.3725 12.6253C34.1708 12.6352 33.9962 12.7738 33.9863 12.9767L33.8018 16.7973C33.7969 16.8963 33.8313 16.9903 33.8978 17.0645C33.9642 17.1363 34.0552 17.1808 34.1536 17.1858L39.7576 17.4604H39.7551Z" fill="#846DF2"/>
<path d="M55.4801 41.0424C56.159 41.0696 56.9487 41.2205 57.5908 40.9236C58.1172 40.6811 58.2107 40.2011 58.2943 39.6789C58.4444 38.7609 58.56 37.8379 58.6683 36.915C58.9709 34.3514 59.207 31.778 59.4309 29.207C59.8786 24.0477 60.2698 18.8811 60.5502 13.7094C60.5871 13.0191 60.624 12.3262 60.6437 11.6358C60.6511 11.3438 60.6953 11.0345 60.5896 10.7623C60.3657 10.1932 59.9918 9.64389 59.7039 9.10446L57.9893 5.89508C57.5514 5.07356 57.1111 4.25204 56.6732 3.43051C56.1664 2.48032 55.3324 2.02997 54.2549 1.9681C51.9622 1.83696 49.6694 1.70828 47.3791 1.57961C44.3262 1.41135 41.2733 1.24309 38.2204 1.0872C36.9215 1.02039 35.625 0.956045 34.3261 0.896657C33.8366 0.874387 33.3495 0.852117 32.8599 0.834796C32.3704 0.817475 31.8218 0.728393 31.3593 0.90408C30.3753 1.2802 30.5352 2.51991 30.4933 3.37608C30.4171 4.92014 30.3408 6.46421 30.2646 8.00827C30.0284 12.7518 29.7947 17.4929 29.5585 22.2364C29.3519 26.4158 29.1428 30.5977 28.9361 34.777C28.8943 35.6431 28.8328 36.5116 28.8058 37.3802C28.7344 39.7754 32.2597 39.4958 33.8735 39.6171C40.026 40.0823 46.1811 40.5599 52.3435 40.9013C53.4407 40.9632 54.5378 41.0176 55.635 41.0498C55.945 41.0597 55.9302 40.8395 55.7703 40.6613C55.5514 40.4163 55.1135 40.3322 54.8035 40.3223C49.1676 40.1466 43.5341 39.6567 37.9104 39.241C36.5303 39.1395 35.1502 39.0356 33.7701 38.9316C32.7344 38.8525 31.6742 38.8327 30.6434 38.6966C30.1785 38.6347 30.1588 38.0879 30.1785 37.6721L30.2326 36.5586C30.4097 32.9855 30.5868 29.4124 30.7639 25.8393C30.9977 21.1155 31.2338 16.3942 31.4675 11.6705C31.6151 8.71349 31.7603 5.75898 31.9079 2.802C31.9226 2.48527 31.9153 2.17101 32.1071 1.89387C32.4343 1.42124 32.9829 1.53012 33.4651 1.54992C33.9473 1.56972 34.422 1.58951 34.8993 1.61178C37.6103 1.7355 40.3188 1.87902 43.0297 2.02501C45.8342 2.17595 48.6387 2.33185 51.4456 2.49021C52.4271 2.54465 53.4111 2.60156 54.3927 2.65847C54.8798 2.68569 55.0028 2.60652 55.2365 2.99501C55.3324 3.15585 55.4161 3.32906 55.5046 3.49485C56.5108 5.37791 57.517 7.26098 58.5207 9.14157C58.7667 9.59935 59.1652 10.1215 59.3128 10.6238C59.2538 10.4233 59.2857 10.7203 59.2833 10.7747C59.2759 10.9331 59.2784 11.1286 59.271 11.3216C59.1258 15.6247 58.7691 19.9278 58.4346 24.2185C58.0557 29.0635 57.7211 33.9456 56.9979 38.756C56.9438 39.1172 56.9315 39.5849 56.7716 39.914C56.4542 40.5673 55.5342 40.3495 54.9536 40.3272C54.7322 40.3174 54.4517 40.3371 54.5797 40.6168C54.6928 40.8667 55.239 41.0325 55.4801 41.0424Z" fill="#846DF2"/>
<path d="M43.9509 17.944C44.037 18.0182 44.1034 18.1073 44.155 18.2088L44.1206 18.1345C44.2362 18.3795 44.2362 18.6591 44.1944 18.9239L44.2092 18.8447C44.1895 18.9412 44.1501 19.0253 44.0886 19.1045L44.1526 19.0253C44.1231 19.0625 44.0911 19.0922 44.0542 19.1243C43.9951 19.1763 44.1427 19.0699 44.0935 19.0971C44.0689 19.1095 43.9878 19.1515 44.0935 19.1021C44.1501 19.0773 44.16 19.0724 44.1231 19.0872L44.2485 19.0476C44.2042 19.0575 44.2215 19.055 44.3002 19.0377C44.3715 19.0204 44.4453 19.013 44.5216 19.013L44.652 19.0179C44.7651 19.0402 44.7922 19.0451 44.7356 19.0303L44.8119 19.0575C44.7971 19.0501 44.7848 19.0427 44.7701 19.0352L44.8512 19.0946C44.8094 19.0625 44.7799 19.0253 44.7553 18.9808L44.7897 19.055C44.7184 18.9066 44.6889 18.7309 44.6618 18.57C44.6323 18.3968 44.6225 18.2211 44.6544 18.0504L44.6397 18.1296C44.6643 18.0108 44.711 17.8995 44.7873 17.8054L44.7233 17.8846C44.743 17.8599 44.775 17.8401 44.7922 17.8153C44.8168 17.7782 44.7036 17.8747 44.7381 17.8524C44.7627 17.8376 44.7504 17.845 44.6963 17.8698C44.6397 17.8995 44.5782 17.9193 44.5167 17.9316L44.3666 17.9588L44.064 17.9663C44.064 17.9663 43.9066 17.9292 43.9779 17.9514C43.9558 17.944 43.8598 17.8995 43.9312 17.9391C43.9484 17.949 43.9656 17.9589 43.9804 17.9687L43.8992 17.9094C43.9804 17.9712 44.0419 18.0479 44.0886 18.142L44.0542 18.0677C44.1403 18.2558 44.1501 18.4636 44.1132 18.6665L44.128 18.5874C44.1255 18.6047 44.1206 18.6245 44.1157 18.6418C44.0911 18.6839 44.0911 18.7235 44.1157 18.7581C44.1304 18.8051 44.1649 18.8373 44.2141 18.8546C44.3371 18.9214 44.5265 18.9363 44.6594 18.9313C44.8439 18.9239 45.0357 18.8992 45.2079 18.8299L45.3482 18.7655C45.4195 18.7309 45.4736 18.6789 45.5155 18.6146C45.5696 18.377 45.5892 18.1345 45.4933 17.9069C45.3851 17.6471 45.1858 17.4788 44.9127 17.4095C44.6397 17.3402 44.3322 17.3625 44.0591 17.4293C43.8549 17.4813 43.6335 17.5679 43.481 17.7188C43.3039 17.8945 43.2227 18.1123 43.2005 18.3597C43.1784 18.6072 43.2301 18.8398 43.2891 19.0699C43.3162 19.1788 43.3555 19.3 43.4293 19.3891C43.5597 19.5425 43.786 19.6019 43.9755 19.6192C44.433 19.6638 44.9373 19.5598 45.3063 19.2753C45.4933 19.1317 45.5942 18.9363 45.6286 18.7061C45.6827 18.3177 45.6188 17.892 45.3088 17.6198C45.2104 17.5332 45.0825 17.5036 44.957 17.4912C44.7799 17.4714 44.5733 17.4887 44.401 17.5357C44.2633 17.5728 44.0911 17.6174 43.9902 17.7238C43.9361 17.7807 43.8648 17.8821 43.9459 17.9564L43.9509 17.944Z" fill="#846DF2"/>
<path fill-rule="evenodd" clip-rule="evenodd" d="M50.6796 24.5854C50.6968 24.2612 50.0695 23.0883 49.7571 23.0091C48.3918 22.6701 45.3315 22.4796 44.0891 22.4078C42.5885 22.3237 38.7607 21.8907 38.2465 22.7122C37.7324 23.5337 37.0042 32.4591 37.0042 32.4591C37.0042 32.4591 36.9599 34.8643 37.9661 35.5967C38.4482 35.9481 40.6352 36.1609 43.2306 36.3069C46.0399 36.4653 48.6328 36.7276 49.1741 36.3143C50.2122 35.5225 50.4385 29.4898 50.4385 29.4898L50.6845 24.5804L50.6796 24.5854Z" fill="#FFF485"/>
<path d="M48.621 22.5568C45.6025 22.3663 42.5644 22.0545 39.541 21.9852C38.4044 21.958 37.3515 22.6038 37.263 23.8015C37.2236 24.3161 37.172 24.8333 37.1252 25.348L36.5594 31.7296C36.5028 32.373 36.4315 33.0139 36.3897 33.6572C36.3306 34.5456 36.8103 35.3003 37.5631 35.7556C38.2913 36.1936 39.0859 36.2901 39.9075 36.3297C40.8128 36.3742 41.7157 36.4212 42.621 36.4658C44.4291 36.5573 46.2397 36.6662 48.0503 36.738C49.0589 36.7776 49.9888 36.4484 50.4292 35.4686C50.685 34.9019 50.6727 34.261 50.717 33.6523C50.867 31.5762 51.0146 29.5001 51.1647 27.4241C51.2582 26.1151 51.6715 24.279 50.5645 23.2967C50.0232 22.8166 49.3197 22.6335 48.621 22.5543C48.3922 22.5296 48.129 22.6088 48.2618 22.8636C48.3947 23.1185 48.931 23.2125 49.1844 23.2397C49.9494 23.3264 49.9322 24.8135 49.8953 25.3455C49.8633 25.8256 49.8264 26.3031 49.792 26.7832C49.6542 28.7133 49.514 30.6433 49.3763 32.5734C49.2852 33.8453 49.3836 36.0476 47.5853 36.0525C46.1044 36.055 44.6062 35.9041 43.1253 35.8298L40.2052 35.6838C39.7353 35.6616 39.231 35.6838 38.7661 35.6121C37.3442 35.3844 37.8509 33.2638 37.9321 32.326C38.1068 30.3588 38.2814 28.3941 38.4536 26.4269C38.5127 25.7687 38.5693 25.1104 38.6283 24.4522C38.6996 23.6381 38.9284 22.9626 39.814 22.7251C40.2027 22.6187 40.6283 22.7028 41.0219 22.7275C41.8928 22.782 42.7612 22.8364 43.632 22.8908C45.3713 22.9997 47.113 23.1086 48.8523 23.22C48.9605 23.2274 49.0712 23.2348 49.1794 23.2397C49.4058 23.2546 49.6739 23.1927 49.5386 22.9304C49.4033 22.6681 48.8646 22.5692 48.6161 22.5543L48.621 22.5568Z" fill="#846DF2"/>
<path d="M45.711 22.9486C45.0517 27.3284 44.599 31.7676 44.4318 36.1969C44.417 36.5706 45.8561 36.5161 45.8733 36.0707C46.0406 31.6414 46.4933 27.2022 47.1526 22.8224C47.2018 22.4909 45.7823 22.4859 45.711 22.9486Z" fill="#846DF2"/>
<path d="M41.4693 22.821C41.3217 27.2305 41.0314 31.6598 40.5787 36.0495C40.5443 36.3762 41.9613 36.3044 42.0105 35.8367C42.4631 31.447 42.751 27.0177 42.901 22.6082C42.9133 22.2544 41.4865 22.3633 41.4693 22.821Z" fill="#846DF2"/>
<path d="M49.8801 26.9217C49.243 27.0553 48.5541 27.0182 47.9096 27.0182C46.7534 27.0182 45.5947 26.9885 44.4385 26.9489C42.1777 26.8722 39.912 26.7757 37.6561 26.5753C37.4618 26.558 37.0657 26.5159 37.0805 26.8005C37.0928 27.0479 37.7349 27.1988 37.8948 27.2137C40.2662 27.424 42.6476 27.5329 45.0264 27.6146C46.222 27.6541 47.4176 27.6863 48.6132 27.6838C49.3217 27.6814 50.0769 27.716 50.7731 27.57C51.5111 27.4166 50.2491 26.845 49.8776 26.9242L49.8801 26.9217Z" fill="#846DF2"/>
<path d="M49.7276 31.2137C45.6931 30.8797 41.6316 30.7733 37.5848 30.7114C37.415 30.7089 36.8615 30.7065 36.8517 30.9737C36.8418 31.2409 37.415 31.2904 37.5626 31.2929C41.6094 31.3548 45.671 31.4612 49.7054 31.7952C49.8752 31.8101 50.4287 31.7903 50.4385 31.5329C50.4484 31.2756 49.8752 31.2261 49.7276 31.2137Z" fill="#846DF2"/>
<path d="M39.0758 42.3129C39.0955 48.8158 39.5948 55.3088 40.5739 61.7374C40.8052 61.6211 41.0389 61.5024 41.2701 61.3861C40.2099 61.4553 39.1471 61.5222 38.0868 61.5914C38.3279 61.6954 38.5715 61.7968 38.8126 61.9008C39.0782 61.4653 40.1533 61.0347 40.5444 61.0718C40.419 60.9976 40.2935 60.9258 40.1656 60.8516L40.1336 61.5073C40.3648 61.391 40.5985 61.2722 40.8298 61.1559C40.2689 61.1782 39.7055 61.198 39.1447 61.2203C39.2234 61.4059 39.3046 61.589 39.3833 61.7746L40.4017 61.5197C40.5912 61.4727 40.9798 61.3861 40.8765 61.1213C40.7855 60.8912 40.1311 60.953 39.9737 60.9926L38.9552 61.2475C38.8076 61.2846 38.387 61.3762 38.4657 61.6088C38.5444 61.8414 39.029 61.8067 39.1939 61.7993C39.7547 61.777 40.3181 61.7572 40.879 61.735C41.0684 61.7275 41.5629 61.6459 41.5752 61.3836L41.6072 60.7279C41.6145 60.5794 41.3243 60.5175 41.2283 60.5076C40.4583 60.4359 39.7006 60.5868 38.9798 60.859C38.4386 61.0619 37.7277 61.3391 37.4103 61.8612C37.2234 62.168 38.0475 62.1754 38.136 62.1705C39.1963 62.1012 40.2591 62.0344 41.3193 61.9651C41.4669 61.9552 42.0549 61.8686 42.0155 61.6137C41.0389 55.1851 40.537 48.6921 40.5174 42.1892C40.5174 41.8032 39.0758 41.8749 39.0758 42.3104V42.3129Z" fill="#846DF2"/>
<path d="M51.4141 42.909C52.002 49.1769 52.2431 55.4843 51.97 61.7768C51.9848 61.8412 52.0217 61.8857 52.0807 61.9154C53.1189 62.4499 54.1176 62.9126 55.2985 62.9893C55.4584 62.9992 56.3711 62.9027 56.1546 62.5588C55.6158 61.6977 54.4104 61.1508 53.5887 60.6188C53.3403 60.4579 52.28 60.4456 52.2579 60.8786L52.2283 61.4774C52.2431 61.5417 52.28 61.5863 52.339 61.616C52.8778 61.9006 53.4165 62.1876 53.9528 62.4722C54.2161 62.6107 54.5851 62.5934 54.863 62.5142C54.9639 62.4845 55.4387 62.3237 55.2517 62.1381C55.0008 61.8907 54.7499 61.6407 54.499 61.3933C54.189 61.0865 52.8729 61.418 53.1213 61.6655C53.3698 61.9129 53.6232 62.1628 53.8741 62.4103C54.3071 62.2989 54.74 62.1876 55.173 62.0762C54.7843 61.8709 54.3956 61.6655 54.0094 61.4576C53.8962 61.3982 53.6552 61.3265 53.5691 61.2226C53.7609 61.4527 53.6921 60.9256 53.6994 60.7549L52.3686 61.0147C53.1484 61.5195 54.2702 62.0169 54.7794 62.8285C55.0648 62.685 55.3501 62.5414 55.6355 62.3979C55.141 62.3658 54.6638 62.1826 54.2185 61.9773C54.0562 61.903 53.8962 61.8214 53.7363 61.7397C53.5346 61.6358 53.4854 61.6383 53.4239 61.4131C53.3157 61.0073 53.4633 60.3961 53.4756 59.9779C53.4903 59.4632 53.5026 58.951 53.51 58.4363C53.542 56.4963 53.5248 54.5539 53.4707 52.6139C53.3747 49.3328 53.1656 46.0541 52.8581 42.7853C52.8187 42.3746 51.3772 42.4958 51.4165 42.9066L51.4141 42.909Z" fill="#846DF2"/>
<path d="M29.0997 38.4693C29.8254 39.4095 30.62 40.2929 31.4564 41.1367C32.529 42.2181 33.7 43.4404 34.9866 44.262C35.7664 44.7593 36.6078 44.7593 37.4835 44.8088C40.379 44.9721 43.2745 45.1379 46.17 45.3012C49.6362 45.4992 53.0999 45.6947 56.5661 45.8926C57.6387 45.9545 58.7113 46.0139 59.7839 46.0758C60.7507 46.1302 61.9585 46.1673 62.2464 44.9697C62.3497 44.5441 62.3522 44.0739 62.4014 43.6409C62.517 42.5744 62.6326 41.5054 62.7482 40.4389C63.1074 37.1231 63.469 33.8049 63.8282 30.4891C64.4432 24.8251 65.0582 19.161 65.6757 13.4969C65.688 13.3856 65.7052 13.2718 65.7126 13.1604C65.747 12.6556 65.5404 12.2944 65.3288 11.8638C64.5933 10.3544 63.8602 8.84743 63.1246 7.33801C62.5662 6.18986 62.1554 4.7126 60.881 4.20781C59.6166 3.7055 58.3201 3.27246 57.0409 2.80726C56.5932 2.64395 56.1455 2.48063 55.6977 2.31732C55.5378 2.25793 55.0089 2.09709 54.9204 2.34454C54.8318 2.59199 55.3632 2.81221 55.5034 2.86417C56.7506 3.31947 57.9954 3.77478 59.2427 4.22761C59.5625 4.34391 59.8847 4.46268 60.2045 4.57898C60.3226 4.62105 60.5932 4.66559 60.6842 4.75467C60.8638 4.92788 61.009 5.46484 61.1246 5.69991C61.8478 7.18459 62.5711 8.66927 63.2944 10.1564C63.5625 10.7058 63.8282 11.2551 64.0963 11.8044C64.239 12.0964 64.3645 12.3636 64.3497 12.7051C64.2808 14.2937 64.0028 15.9021 63.8306 17.4808C63.4764 20.7521 63.1197 24.0208 62.7654 27.2921C62.1652 32.8176 61.5649 38.3406 60.9647 43.8661C60.8909 44.5391 60.7384 45.3309 59.897 45.3953C59.2919 45.4398 58.6301 45.3235 58.0249 45.2889C54.9769 45.1157 51.9314 44.9425 48.8834 44.7692C45.6337 44.5837 42.384 44.4005 39.1342 44.215C38.2043 44.163 37.272 44.1086 36.3421 44.0566C36.2068 44.0492 36.037 44.0665 35.9067 44.0318C35.609 43.9527 35.3187 43.6236 35.0875 43.4305C34.8095 43.1955 34.5339 42.9554 34.2609 42.7154C33.6778 42.1958 33.1071 41.6613 32.5561 41.1046C31.7787 40.3226 31.0456 39.4986 30.374 38.6251C30.1747 38.3678 29.7934 38.2193 29.4785 38.1896C29.3162 38.1748 28.8955 38.2119 29.0997 38.4767V38.4693Z" fill="#846DF2"/>
<path d="M59.6266 11.0223C61.1838 11.6509 62.7484 12.262 64.3081 12.8906C64.6156 13.0143 65.019 13.0366 65.3314 12.9153C65.5799 12.8188 65.6094 12.6134 65.3413 12.5045C63.7841 11.876 62.2195 11.2648 60.6598 10.6363C60.3523 10.5126 59.9489 10.4903 59.6364 10.6116C59.388 10.7081 59.3584 10.9135 59.6266 11.0223Z" fill="#846DF2"/>
<path d="M56.3611 40.5441C57.6281 41.8704 58.8237 43.2735 60.0463 44.6418C60.2062 44.82 60.3661 45.0006 60.526 45.1788C60.7302 45.4089 61.1238 45.4287 61.4116 45.404C61.5051 45.3965 62.1177 45.2753 61.9258 45.0575C60.7646 43.756 59.6035 42.4544 58.435 41.1603C58.2111 40.9128 57.9922 40.6629 57.7609 40.4204C57.5469 40.1952 57.1705 40.1705 56.8753 40.1952C56.7892 40.2026 56.1619 40.3313 56.3611 40.5416V40.5441Z" fill="#846DF2"/>
<path d="M13.5086 27.9227C13.7202 28.5686 14.1999 29.009 14.8419 29.2144C15.1691 29.3183 15.5135 29.3604 15.853 29.3381C16.0375 29.3257 16.2171 29.2886 16.3967 29.2589C16.6673 29.2144 16.5886 29.2169 16.778 29.4148C17.9367 30.6224 19.0708 31.8497 20.5714 32.6366C21.9564 33.3616 23.671 33.6956 25.1987 33.275C26.7707 32.842 27.6563 31.5132 28.5321 30.2314C29.5456 28.7467 30.4706 27.1358 30.7781 25.3394C30.8495 24.9237 29.4325 24.6366 29.3636 25.0326C29.061 26.8043 28.1606 28.3854 27.1569 29.8479C26.1926 31.2558 25.1495 32.8098 23.2602 32.8073C21.4127 32.8073 19.8998 31.34 18.7141 30.078C18.1359 29.4618 17.5874 28.8605 16.7362 28.6552C16.3475 28.5611 15.9637 28.5686 15.5701 28.6255C15.4717 28.6403 15.297 28.6923 15.2282 28.6651C15.0535 28.5958 14.9551 28.2271 14.9034 28.0687C14.7731 27.6703 13.3782 27.5293 13.5086 27.9252V27.9227Z" fill="#846DF2"/>
<path d="M60.8918 27.7866C62.0874 29.5831 63.4011 31.3004 64.8377 32.9088C66.1047 34.3291 67.8833 35.6084 69.8858 34.9403C71.8317 34.292 72.8698 32.2234 74.368 30.9713C74.5525 30.8179 74.7419 30.6694 74.9436 30.5383C75.0223 30.4863 75.1035 30.4368 75.1847 30.3923C75.475 30.2636 75.3003 30.2512 74.6656 30.3477C74.8157 30.5927 75.3889 30.761 75.6472 30.8129C76.1121 30.9045 77.3495 30.8104 77.2068 30.0434C77.1207 29.5782 75.7136 29.5608 75.7702 29.8701C75.7825 29.9345 75.6865 30.1572 75.6915 30.1671C76.1121 30.3378 76.2032 30.3551 75.9645 30.219L75.8464 30.1399C75.5783 29.9716 75.3126 29.8528 74.9953 29.8033C74.3606 29.7019 73.9128 29.9592 73.4184 30.3254C72.0678 31.3227 71.1847 32.8024 69.8661 33.8367C69.5118 34.1163 69.0543 34.4578 68.5893 34.4999C68.1563 34.5395 67.7234 34.2598 67.3888 34.0124C66.7393 33.5274 66.208 32.8865 65.6815 32.2753C64.4589 30.8599 63.3346 29.3604 62.299 27.8015C62.1317 27.5491 61.7159 27.4947 61.4404 27.4922C61.3371 27.4922 60.7344 27.5441 60.8967 27.7866H60.8918Z" fill="#846DF2"/>
</svg>
