<svg width="84" height="94" viewBox="0 0 84 94" fill="none" xmlns="http://www.w3.org/2000/svg">
<path fill-rule="evenodd" clip-rule="evenodd" d="M34.9149 26.6491C34.9149 26.6491 35.3108 24.6377 34.5709 24.3864C33.831 24.1352 32.5793 24.6031 32.5793 24.6031C32.5793 24.6031 33.9179 19.4158 35.6262 17.5457C37.3345 15.6756 36.8253 15.5548 37.8583 16.311C38.8913 17.0672 43.3022 20.8027 43.3022 20.8027C43.3022 20.8027 41.1382 22.8342 38.9278 24.261C36.7193 25.6868 34.9149 26.6491 34.9149 26.6491Z" fill="#FF71BD"/>
<path fill-rule="evenodd" clip-rule="evenodd" d="M25.6049 71.6176C25.6049 71.6176 24.9083 71.7176 24.7132 71.3162C24.5181 70.9148 17.547 55.5764 17.547 55.5764C17.547 55.5764 16.7614 54.2547 16.0677 51.5207C15.374 48.7866 15.243 47.9132 15.43 47.6029C15.617 47.2926 19.7683 41.8834 19.7683 41.8834L34.6443 36.7077L47.871 32.4201C47.871 32.4201 48.0887 31.3996 51.5924 40.8089C52.5342 43.3385 53.6226 45.1981 54.3651 47.019C56.3875 51.972 57.3688 54.6491 57.3688 54.6491C57.3688 54.6491 57.7526 55.3039 56.1884 57.0037C54.6233 58.7016 54.4702 59.3867 53.5179 59.8769C52.5655 60.3671 47.3698 62.5832 47.3698 62.5832L33.2184 68.5825L25.6039 71.6158L25.6049 71.6176Z" fill="#7AEDE3"/>
<path d="M25.7868 48.3247L28.0446 53.7822C28.0837 53.8767 28.1925 53.9213 28.2877 53.8818L32.3248 52.2059C32.42 52.1664 32.4655 52.0577 32.4264 51.9632L30.1686 46.5057C30.1295 46.4112 30.0206 46.3666 29.9254 46.4061L25.8883 48.082C25.7931 48.1215 25.7477 48.2302 25.7868 48.3247Z" fill="white"/>
<path d="M29.101 64.6917C28.2633 64.1785 27.667 63.4572 27.1357 62.6295C26.7907 61.9762 27.7902 61.4431 28.1408 62.0935C28.4618 62.882 29.1965 63.45 29.5875 64.2217C29.7366 64.5142 29.3887 64.8451 29.1029 64.6908L29.101 64.6917Z" fill="#846DF2"/>
<path d="M24.6958 53.093C24.9511 53.8228 24.8859 54.6569 25.1297 55.3641C25.222 55.662 25.0531 55.9796 24.7533 56.0734C23.7948 56.2761 23.9713 54.9128 23.9071 54.3479C23.9278 53.9168 23.7461 52.7479 24.4769 52.8786C24.5813 52.9152 24.6574 52.9945 24.6948 53.0912L24.6958 53.093Z" fill="#846DF2"/>
<path d="M25.7738 48.2416L27.0933 51.4311C27.1109 51.4736 27.1611 51.4931 27.2054 51.4747L31.364 49.7484C31.4083 49.73 31.43 49.6807 31.4125 49.6382L30.093 46.4487C30.0754 46.4062 30.0252 46.3867 29.9808 46.4051L25.8223 48.1314C25.778 48.1498 25.7562 48.1992 25.7738 48.2416Z" fill="#846DF2"/>
<path d="M30.7207 46.7635C30.734 46.7898 30.7474 46.816 30.757 46.8442L32.5923 51.2807C32.7092 51.5613 32.7088 51.8734 32.5889 52.1566C32.4709 52.4388 32.2493 52.658 31.9657 52.7742L28.94 54.0307C28.6574 54.1488 28.344 54.1503 28.0612 54.0346C27.7784 53.9188 27.5615 53.7034 27.4427 53.419L25.6074 48.9825C25.3679 48.4006 25.6479 47.7311 26.2321 47.49L29.2597 46.2326C29.8164 46.0031 30.4521 46.2413 30.7188 46.7645L30.7207 46.7635ZM29.9914 47.1636C29.9329 47.0068 29.7374 46.9269 29.5758 46.9928L26.5482 48.2502C26.3875 48.3179 26.3107 48.5035 26.3759 48.664L28.2112 53.1005C28.2428 53.1813 28.3028 53.2381 28.3815 53.2712C28.4593 53.3024 28.5455 53.3034 28.624 53.2705L31.6515 52.0131C31.73 51.9802 31.7894 51.9192 31.8241 51.8424C31.8559 51.7648 31.8574 51.679 31.8248 51.6011L29.9895 47.1646L29.9914 47.1636Z" fill="#846DF2"/>
<path d="M30.9319 60.4322L33.1969 65.9072C33.236 66.0017 33.3449 66.0463 33.4401 66.0068L37.4772 64.3309C37.5724 64.2914 37.6178 64.1827 37.5787 64.0882L35.3137 58.6132C35.2746 58.5187 35.1657 58.4741 35.0705 58.5136L31.0334 60.1895C30.9382 60.229 30.8928 60.3377 30.9319 60.4322Z" fill="white"/>
<path d="M30.9465 60.3099L32.2888 63.3995C32.3074 63.4422 32.3565 63.4619 32.3986 63.4436L36.5384 61.6404C36.5805 61.6221 36.5996 61.5726 36.5811 61.5299L35.2388 58.4403C35.2202 58.3976 35.171 58.3779 35.1289 58.3962L30.9892 60.1994C30.9471 60.2177 30.928 60.2672 30.9465 60.3099Z" fill="#846DF2"/>
<path d="M35.8635 58.8697C35.8779 58.8978 35.8913 58.9241 35.9018 58.9541L37.7371 63.3906C37.854 63.6712 37.8536 63.9833 37.7346 64.2636C37.6166 64.5458 37.3951 64.7651 37.1124 64.8831L34.0848 66.1406C33.4998 66.3845 32.8232 66.0986 32.5875 65.5289L30.7522 61.0924C30.6353 60.8118 30.6367 60.5016 30.7547 60.2194C30.8728 59.9372 31.0943 59.718 31.3769 59.5999L34.4045 58.3425C34.6871 58.2244 34.9987 58.2238 35.2815 58.3396C35.5348 58.4443 35.7393 58.6306 35.8626 58.8725L35.8635 58.8697ZM33.3675 65.2329C33.4411 65.3773 33.6175 65.4433 33.7707 65.3794L36.7982 64.122C36.8767 64.0891 36.938 64.0271 36.9698 63.9495C37.0016 63.8718 37.0031 63.786 36.9706 63.7081L35.1343 59.2698C35.1036 59.1909 35.0408 59.1331 34.964 59.0991C34.8862 59.0679 34.8 59.0669 34.7215 59.0998L31.6939 60.3573C31.5332 60.425 31.4555 60.6087 31.5206 60.7692L33.356 65.2057C33.356 65.2057 33.3636 65.2207 33.3674 65.2282L33.3675 65.2329Z" fill="#846DF2"/>
<path d="M44.6595 37.2919C41.6094 38.393 38.5593 39.4942 35.5083 40.5935C31.2035 42.1476 26.8988 43.7017 22.5931 45.2539C22.1752 45.4055 21.7516 45.5459 21.3366 45.7078C20.8913 45.8804 20.6921 46.2088 20.4467 46.5914C19.2328 48.4693 18.0217 50.3481 16.8078 52.226C16.3847 52.8811 16.1944 53.4931 16.52 54.2768C16.7059 54.7254 16.9276 55.1604 17.1314 55.6023C18.0403 57.5722 18.9474 59.5431 19.8573 61.5149C20.8992 63.7737 21.9402 66.0354 22.9821 68.2943C23.4815 69.3768 23.9037 70.5554 24.5062 71.5878C25.1076 72.6183 26.4955 71.6935 27.2838 71.3672C29.0316 70.6441 30.7822 69.9218 32.5299 69.1987C37.223 67.2576 41.9171 65.3184 46.6084 63.3783C48.3722 62.6493 50.136 61.9203 51.8998 61.1913C52.6352 60.8874 54.0989 60.5783 54.285 59.6731C54.4072 59.0769 54.1842 58.5599 53.9686 58.0296C53.7128 57.3969 53.4541 56.7634 53.1983 56.1307C52.3417 54.016 51.4823 51.9003 50.6257 49.7856C49.0745 45.9579 47.5214 42.1311 45.9693 38.3015C45.7374 37.7299 45.4077 37.0924 44.6557 37.2938C44.2906 37.3901 44.5075 38.6049 44.8215 38.5204C45.4818 38.3445 45.5492 38.7897 45.7331 39.2393C45.9889 39.8719 46.2467 40.5036 46.5025 41.1362L48.9917 47.2758C50.539 51.0913 52.0873 54.9087 53.6328 58.7252C53.6893 58.8641 53.7355 59.0154 53.8034 59.1485C53.8081 59.1579 53.8217 59.2171 53.8331 59.2208C53.8795 59.2373 54.518 59.2756 53.778 58.9866C53.7988 58.9949 53.5668 59.1982 53.5744 59.1944C53.53 59.2241 53.5347 59.2146 53.5082 59.2281C53.2863 59.353 53.0167 59.4314 52.7804 59.5282C51.3862 60.1043 49.9938 60.6793 48.6005 61.2573C44.0974 63.118 39.5952 64.9806 35.0921 66.8414C31.9614 68.1348 28.8336 69.4291 25.703 70.7226C25.3901 70.8513 24.9884 71.0112 24.7378 70.6925C24.4872 70.3737 24.3589 69.8698 24.1934 69.5124C23.3313 67.6438 22.4702 65.7723 21.6082 63.9037C20.5777 61.6673 19.5473 59.431 18.5168 57.1946C17.9667 55.9986 17.3342 54.8138 16.854 53.5868C16.8032 53.4592 16.8952 53.7005 16.9094 53.6956C16.9453 53.682 16.978 53.5779 17.0025 53.5513C17.2306 53.3075 17.3974 52.9389 17.5789 52.6598C18.2333 51.6459 18.8877 50.6319 19.5431 49.6198C20.0377 48.8527 20.5199 48.0754 21.0287 47.3176C21.214 47.0412 21.4343 46.9596 21.7283 46.8546C25.3561 45.5464 28.9829 44.2363 32.6107 42.928C36.4617 41.5391 40.3116 40.1484 44.1625 38.7595C44.3819 38.6807 44.6012 38.602 44.8177 38.5223C45.1874 38.3882 44.9328 37.1927 44.652 37.2957L44.6595 37.2919Z" fill="#846DF2"/>
<path fill-rule="evenodd" clip-rule="evenodd" d="M36.2204 48.8579C35.9671 48.9728 35.3142 49.9056 35.378 50.1755C35.6496 51.3482 36.6951 53.7541 37.1258 54.7299C37.6446 55.9065 38.805 58.9908 39.6321 59.0629C40.4592 59.1351 47.5561 56.2073 47.5561 56.2073C47.5561 56.2073 49.4091 55.3029 49.5775 54.2509C49.6585 53.7466 48.9694 51.9977 48.0725 49.9626C47.1 47.7605 46.2909 45.6829 45.7651 45.4313C44.757 44.9482 40.065 47.1296 40.065 47.1296L36.2223 48.8569L36.2204 48.8579Z" fill="#FFF485"/>
<path d="M35.4748 51.2203C36.505 53.5962 37.4501 56.0296 38.572 58.3611C38.9956 59.2389 39.8931 59.7807 40.8412 59.3896C41.2411 59.2259 41.6428 59.066 42.0436 58.9042C43.7395 58.2194 45.4353 57.5345 47.1302 56.8477C47.6529 56.6356 48.1795 56.4357 48.6975 56.2142C49.4253 55.9046 49.7148 55.2444 49.7027 54.478C49.6928 53.7862 49.4352 53.1686 49.1766 52.5445C48.8729 51.8134 48.5721 51.0832 48.2685 50.3521C47.6842 48.9443 47.1264 47.523 46.5184 46.1249C46.1747 45.3339 45.5356 44.7619 44.6257 44.8076C44.0936 44.8332 43.6099 45.0939 43.1279 45.2971C41.4851 45.9927 39.8423 46.6884 38.1996 47.384C37.1637 47.8223 35.6029 48.2257 35.2837 49.4491C35.1274 50.0485 35.261 50.6561 35.4739 51.2185C35.5439 51.4025 35.7066 51.5723 35.8496 51.3718C35.9926 51.1714 35.8561 50.726 35.7784 50.5222C35.5473 49.9054 36.6877 49.3406 37.1074 49.1597C37.4741 49.0011 37.8418 48.8491 38.2095 48.6924C39.7483 48.0403 41.2871 47.3883 42.8287 46.7371C43.8174 46.3182 45.4958 45.3657 46.1766 46.7385C46.734 47.8647 47.1507 49.0886 47.6306 50.2496C48.1105 51.4106 48.6643 52.567 49.0818 53.7551C49.4994 54.9431 47.8529 55.2438 47.091 55.5518C45.5076 56.1912 43.9271 56.8315 42.3438 57.4708L40.7944 58.0976C40.1507 58.3572 39.5468 58.4288 39.029 57.8612C38.7967 57.6064 38.6965 57.2511 38.5596 56.9405C38.2552 56.2405 37.9536 55.5415 37.6492 54.8415C37.0623 53.4893 36.4745 52.1353 35.8876 50.7832L35.7756 50.5261C35.699 50.3478 35.5475 50.1674 35.3998 50.3727C35.2521 50.5779 35.3858 51.0271 35.471 51.2223L35.4748 51.2203Z" fill="#846DF2"/>
<path d="M36.9 53.2839C40.4999 52.0796 44.0658 50.6919 47.5094 49.0925C47.8005 48.9583 47.1997 47.8825 46.8529 48.0428C43.4074 49.6432 39.8425 51.028 36.2436 52.2342C35.9712 52.3257 36.5199 53.4115 36.9 53.2839Z" fill="#846DF2"/>
<path d="M38.456 56.5642C40.3119 55.6937 42.205 54.8681 44.0859 54.0558C45.6001 53.4021 47.1285 52.7718 48.6743 52.1989C48.9343 52.1018 48.3365 51.0505 47.9555 51.1904C46.4078 51.7643 44.8813 52.3936 43.3671 53.0473C41.4844 53.8606 39.5931 54.6852 37.7371 55.5557C37.4622 55.684 38.0997 56.7292 38.456 56.5642Z" fill="#846DF2"/>
<path d="M38.3131 48.5616C38.6627 48.9953 38.902 49.5348 39.1543 50.0251C39.6055 50.9055 40.033 51.8002 40.4539 52.696C41.2756 54.4481 42.0832 56.2146 42.8076 58.0093C42.8698 58.1642 42.9916 58.4824 43.2032 58.3604C43.3874 58.2547 43.2532 57.7065 43.2024 57.5789C42.4397 55.6903 41.5957 53.8338 40.7319 51.9897C40.2976 51.0629 39.8576 50.1391 39.3874 49.2307C39.1102 48.6916 38.8413 48.1034 38.4593 47.6296C38.0535 47.1277 38.1093 48.3112 38.3141 48.5635L38.3131 48.5616Z" fill="#846DF2"/>
<path d="M41.6477 46.9999C42.9621 50.2042 44.4608 53.3405 45.9906 56.4491C46.0566 56.5785 46.2679 57.0024 46.4758 56.9058C46.6837 56.8093 46.4988 56.3531 46.4433 56.2397C44.9163 53.1319 43.4157 49.9966 42.1004 46.7904C42.0458 46.6552 41.8156 46.241 41.6152 46.3337C41.4149 46.4264 41.5998 46.8825 41.6477 46.9999Z" fill="#846DF2"/>
<path d="M53.417 60.5954C54.1976 60.2164 54.8067 59.45 55.353 58.803C55.9859 58.0551 56.5742 57.271 57.1529 56.4822C57.7994 55.5975 57.7194 54.6886 57.3248 53.7417C56.5586 51.9022 55.7942 50.0617 55.0279 48.2222C52.9868 43.3166 50.9447 38.4091 48.9036 33.5034C48.7379 33.1036 48.6002 32.6328 48.3618 32.2677C47.9106 31.5787 47.2824 31.7288 46.6281 31.9537C46.1563 32.1162 45.6854 32.2759 45.2136 32.4385C42.3419 33.4227 39.4684 34.4079 36.5977 35.394C31.1296 37.2718 25.6413 39.1008 20.2049 41.0735C19.8674 41.1959 19.5013 41.2998 19.2583 41.5796C18.9983 41.8822 18.7774 42.2334 18.5402 42.5528C17.681 43.716 16.8246 44.8802 15.9654 46.0434C15.7753 46.3009 15.5709 46.5539 15.3941 46.8189C14.9822 47.4352 15.088 48.1845 15.2361 48.872C15.5091 50.1408 15.7849 51.4105 16.058 52.6794C16.1325 53.0264 16.2089 53.3725 16.2825 53.7177C16.3183 53.8814 16.4231 54.2036 16.6404 54.107C16.8417 54.0162 16.7492 53.4657 16.7192 53.3274C16.4917 52.2787 16.2662 51.229 16.0387 50.1803C15.9216 49.6423 15.8064 49.1034 15.6893 48.5654C15.6273 48.2804 15.614 48.0675 15.7919 47.8233C16.5136 46.8294 17.2515 45.8437 17.9809 44.8554L19.114 43.3187C19.3041 43.0611 19.4937 42.7046 19.7732 42.5338C20.3323 42.1921 21.0968 42.0339 21.7085 41.8189C22.8223 41.426 23.9371 41.0397 25.0519 40.6533C28.1202 39.5878 31.1913 38.5326 34.2615 37.4755C37.2996 36.43 40.3414 35.3874 43.3814 34.3457C44.4253 33.9884 45.4692 33.6311 46.5121 33.272C46.9887 33.1094 47.7463 32.7043 48.1341 33.2035C48.197 33.2848 48.2297 33.391 48.269 33.4867C50.0563 37.7823 51.8445 42.0798 53.6319 46.3754C54.5677 48.6269 55.5063 50.8794 56.4421 53.1309C56.6529 53.6377 56.9252 54.1533 57.0858 54.6785C57.1839 54.9971 56.9283 55.2336 56.7392 55.493C56.151 56.296 55.5458 57.0936 54.8911 57.8454C54.3928 58.4184 53.8362 59.0871 53.1369 59.4247C52.8412 59.5684 53.0513 60.77 53.4161 60.5935L53.417 60.5954Z" fill="#846DF2"/>
<path d="M45.6607 38.2776C46.4302 36.5601 47.38 34.916 48.0091 33.1377C48.097 32.8898 47.9469 32.586 47.8076 32.3829C47.7619 32.3165 47.4181 31.9082 47.3358 32.1438C46.7086 33.9211 45.7579 35.568 44.9874 37.2837C44.8825 37.5168 45.0592 37.8495 45.1889 38.0385C45.2433 38.1171 45.5595 38.504 45.6607 38.2776Z" fill="#846DF2"/>
<path d="M21.3842 46.459C21.0355 45.2145 20.6869 43.9701 20.3278 42.7286C20.2633 42.504 20.2138 42.2528 20.1191 42.0389C20.0387 41.8625 19.8549 41.4412 19.6096 41.4458C19.3643 41.4503 19.4884 41.8572 19.5391 41.9707C19.5717 42.0439 19.4834 41.7913 19.5093 41.8749C19.5189 41.9078 19.5295 41.9425 19.5392 41.9754C19.5709 42.0844 19.6027 42.1935 19.6354 42.3044C19.7336 42.6464 19.8308 42.9867 19.929 43.3288C20.1428 44.0797 20.3556 44.8335 20.5656 45.5864C20.6138 45.7602 20.6638 45.9332 20.712 46.1071C20.7813 46.3505 20.9355 46.7042 21.1869 46.8146C21.4384 46.925 21.4294 46.6178 21.3842 46.459Z" fill="#846DF2"/>
<path d="M34.334 57.0744C34.6125 56.8923 34.8928 56.6762 35.0781 56.3951C35.3498 55.9802 35.3258 55.4987 35.1769 55.0431C35.0894 54.7734 34.963 54.4741 34.7773 54.2593C34.6373 54.0967 34.4598 54.0053 34.2503 53.9633C33.8872 53.8909 33.5 53.9064 33.1404 53.9857C33.0572 54.0045 33.0361 54.1546 33.0307 54.2141C33.0191 54.3547 33.0539 54.5212 33.099 54.6517C33.1442 54.7823 33.2065 54.9371 33.3064 55.0445C33.3645 55.107 33.4358 55.1817 33.5305 55.1618C33.7272 55.1182 33.9279 55.0962 34.1325 55.0959L34.0633 55.0957C34.2764 55.0981 34.4925 55.1202 34.6936 55.1925C34.778 55.2227 34.6755 55.1758 34.7145 55.2008C34.7534 55.2258 34.7506 55.2391 34.7221 55.2017L34.6877 55.153C34.7116 55.1952 34.7125 55.1923 34.6858 55.1493C34.639 55.0621 34.6916 55.1652 34.6954 55.1774C34.7059 55.1981 34.7127 55.2206 34.7232 55.2412C34.6467 55.0912 34.6878 55.1577 34.706 55.2028C34.7328 55.2741 34.674 55.0561 34.6944 55.1614L34.6827 55.0824C34.6867 55.1276 34.6857 55.1304 34.6855 55.088C34.6796 55.0249 34.6817 55.0805 34.6808 55.0975C34.6773 55.1465 34.7051 55.0095 34.6817 55.0805C34.6677 55.1231 34.6537 55.1656 34.6397 55.2082C34.649 55.1798 34.6585 55.175 34.6416 55.2072C34.6303 55.2272 34.62 55.249 34.6068 55.2698C34.5805 55.3116 34.5532 55.3515 34.5231 55.3905C34.3989 55.553 34.2432 55.6914 34.08 55.8148L34.1347 55.7727C34.0743 55.8177 34.0129 55.8608 33.9506 55.902C33.7542 56.0305 33.8459 56.3877 33.9092 56.568C33.9572 56.7042 34.0166 56.8535 34.1166 56.9608C34.1594 57.0075 34.267 57.1251 34.3406 57.0781L34.334 57.0744Z" fill="#846DF2"/>
<path d="M53.8629 51.2707C59.928 51.699 65.7184 48.6647 70.6394 45.4145L70.3043 45.2475C70.9654 46.0634 71.6236 46.8783 72.2847 47.6942L72.1041 46.7609C71.7322 46.8111 71.3265 46.7298 70.9923 46.5693C70.6326 46.396 70.3585 46.1105 70.1118 45.8039C69.9432 45.5946 70.0571 45.6641 70.0607 45.8205L69.9918 46.0635C70.1836 45.9728 70.3754 45.8822 70.5663 45.7896L70.2312 45.6226C70.6303 46.1113 71.0285 46.5982 71.4276 47.0869L71.3296 46.1801C71.1776 46.0875 71.0275 45.9939 70.8775 45.9003C70.7654 45.8298 70.6504 45.7585 70.5412 45.6843C70.5022 45.6592 70.2865 45.4975 70.3921 45.602C70.257 45.4677 70.0688 45.3179 69.9866 45.5677C69.9138 45.7891 70.162 46.2107 70.3076 46.3561C70.6739 46.7199 71.1742 46.9727 71.6111 47.2414C71.7953 47.3554 71.8322 47.1381 71.8326 47.0128C71.8305 46.7705 71.6588 46.5131 71.5121 46.3327C71.113 45.844 70.7149 45.3571 70.3158 44.8684C70.251 44.788 70.1007 44.6426 69.9807 44.7014L69.4061 44.9754C69.3239 45.0149 69.334 45.1515 69.3372 45.2184C69.351 45.9508 70.1247 46.7352 70.6135 47.1806C71.1024 47.6259 71.8541 47.9704 72.5516 47.877C72.9444 47.8256 72.4788 47.0755 72.3711 46.9438C71.71 46.1279 71.0518 45.3129 70.3907 44.4971C70.3374 44.4298 70.1642 44.2582 70.0556 44.3301C65.1763 47.5543 59.4332 50.5881 53.4173 50.163C53.0763 50.1385 53.4963 51.252 53.8639 51.2773L53.8629 51.2707Z" fill="#846DF2"/>
<path d="M50.1357 42.5934C51.5974 41.8696 53.0323 41.0744 54.3957 40.181C55.5485 39.4256 56.7878 38.5269 57.4193 37.2625C58.8305 34.4359 55.9264 31.7372 53.5242 30.8308C53.1295 30.6824 52.7246 30.5557 52.3177 30.4441C52.1139 30.3898 51.9091 30.3383 51.7024 30.2877C51.5857 30.2598 51.2959 30.2422 51.2065 30.1649C51.0458 30.0271 51.1036 29.4306 51.0949 29.1894C51.0851 28.9086 51.0762 28.6296 51.0209 28.353L50.9037 29.0105C51.0799 29.0151 51.3 29.914 51.3028 30.1063L51.519 29.7693C51.3483 29.7099 51.2794 29.3599 51.256 29.2018C51.2325 29.0437 51.1571 28.5128 50.9297 28.4917C50.7023 28.4706 50.6944 28.8195 50.7189 28.9795C50.8068 29.5536 50.9828 30.7348 51.6354 30.9644C51.8128 31.0275 51.8541 30.7348 51.8517 30.6274C51.8429 29.9657 51.6874 29.3197 51.4204 28.7164C51.2892 28.4218 51.0458 27.8088 50.6499 27.798C50.4301 27.7919 50.5181 28.3802 50.5327 28.4554C50.6384 28.9756 50.539 29.7941 50.6962 30.4108C50.7772 30.7286 50.9067 31.0618 51.1813 31.2597C51.4521 31.4547 51.8519 31.4872 52.1715 31.5676C53.8868 32.0044 55.7028 32.7276 56.7365 34.237C56.9949 34.6132 57.2451 35.0527 57.1981 35.5255C57.16 35.8992 56.9714 36.2718 56.7693 36.5851C56.3085 37.2971 55.6293 37.8749 54.9583 38.3799C53.3936 39.5602 51.6327 40.5098 49.88 41.3772C49.5228 41.5546 49.8767 42.716 50.1338 42.5897L50.1357 42.5934Z" fill="#846DF2"/>
<path d="M46.9093 63.2864C48.586 62.9703 50.3026 62.8678 52.0052 62.8173C53.6841 62.767 55.3878 62.742 57.0538 62.9653C58.7226 63.1895 60.4467 63.695 61.7202 64.8389C62.0264 65.1127 62.3852 65.4803 62.5055 65.8844C62.6257 66.2885 62.3832 66.6814 62.279 67.0747C62.1078 67.7289 62.3195 68.4431 62.7537 68.9494C63.1318 69.3922 63.6946 69.4502 63.6306 68.7221C63.6025 68.3962 63.4619 68.0876 63.275 67.8238C63.2312 67.7611 63.1807 67.7041 63.1378 67.6433C63.318 67.894 63.1585 67.8241 63.2363 67.6498C63.3048 67.4991 63.3493 67.2922 63.3864 67.1315C63.6512 66.0304 63.1752 64.7091 62.3601 63.9552C60.5414 62.2695 57.789 61.6101 55.3745 61.5203C52.8169 61.4255 50.2212 61.6572 47.6655 61.7669C47.3815 61.7794 47.6106 62.9714 48.0139 62.9548C50.0289 62.8679 52.0458 62.7848 54.0627 62.7205C56.698 62.6364 59.4651 62.9835 61.692 64.4847C62.359 64.9338 63.0156 65.4141 62.8049 66.3271C62.6462 67.0104 62.4891 67.6503 62.8559 68.3091C62.9112 68.4084 62.9877 68.5585 63.0818 68.631C63.309 68.8057 63.0771 68.2341 62.9713 68.0967C62.9494 68.0677 62.8783 68.0402 62.8469 68.0113C62.8079 67.9721 62.7774 67.931 62.7516 67.8851C62.8385 68.0321 62.761 68.0811 62.8643 67.8914C62.9516 67.7311 63.0112 67.507 63.0559 67.3331C63.4382 65.8554 62.4737 64.3603 61.354 63.49C60.1278 62.537 58.6121 62.0481 57.0882 61.8185C55.3832 61.5608 53.6303 61.5826 51.9096 61.6257C50.1256 61.6705 48.3219 61.7702 46.5628 62.1022C46.2411 62.1623 46.5393 63.3592 46.9112 63.2901L46.9093 63.2864Z" fill="#846DF2"/>
<path d="M36.2662 38.8863C37.9429 37.7576 39.4384 36.348 40.605 34.6997C41.6023 33.2889 42.1381 31.6031 41.4304 29.9487C40.7228 28.2943 39.0609 27.7335 37.4024 27.693C36.441 27.6704 35.4698 27.7639 34.5245 27.9316C34.057 28.0139 33.602 28.1395 33.1413 28.2397C32.9738 28.2755 32.8007 28.3094 32.6311 28.3084C32.5326 28.3114 32.4341 28.3002 32.3402 28.2748C32.084 28.155 32.1046 28.317 32.4012 28.7634L32.1103 28.118L32.1221 28.2112L32.1786 27.7477L31.9411 27.7908C31.5743 27.725 31.774 28.9154 32.121 28.9795C32.3361 29.0187 32.4364 28.9865 32.6139 28.8677C32.7271 28.791 32.6823 28.5068 32.6704 28.4042C32.632 28.0812 32.2116 27.0978 31.8081 27.6885C31.5193 28.1121 31.8149 28.9489 32.163 29.2629C32.5472 29.6103 33.1207 29.5164 33.5814 29.4068C34.3638 29.2183 35.1434 29.0571 35.9433 28.973C37.4228 28.8165 39.1925 28.7342 40.4301 29.6956C41.9395 30.868 40.8147 32.7478 39.9063 33.9455C38.7731 35.4398 37.3916 36.7228 35.8348 37.7691C35.5619 37.9531 35.9348 39.1143 36.27 38.8891L36.2662 38.8863Z" fill="#846DF2"/>
<path d="M32.5097 25.569C33.1382 24.2754 33.5229 22.891 34.0707 21.5652C34.6186 20.2395 35.3542 18.9786 36.185 17.8062C36.3986 17.506 36.6198 17.2114 36.8476 16.9251C36.9352 16.8167 37.0337 16.6224 37.1499 16.5561C37.209 16.4338 37.299 16.4328 37.416 16.5503C37.4968 16.6107 37.5776 16.6711 37.6593 16.7334C38.2818 17.1981 38.9015 17.6665 39.5193 18.1359C40.81 19.1174 42.0913 20.1085 43.366 21.1101C43.2357 20.7891 43.1073 20.4671 42.977 20.1461C41.0499 22.2127 38.6515 23.7377 36.2775 25.236C35.1104 25.9727 33.9833 26.7645 32.9077 27.6294C32.6784 27.8147 32.4267 28.0729 32.1075 28.0538C31.6528 28.0257 31.7451 27.7211 31.8041 27.3745C31.9138 26.7398 32.2264 26.1434 32.5107 25.5709C32.673 25.2401 31.9791 24.2851 31.8336 24.5789C31.1966 25.8651 30.5486 27.4428 31.6671 28.6704C32.0898 29.1353 32.6514 29.3215 33.2008 28.9517C33.9353 28.4592 34.6001 27.8439 35.3289 27.3354C38.1901 25.3406 41.251 23.7142 43.6569 21.1343C43.8613 20.9143 43.4304 20.2977 43.2678 20.1703C41.9142 19.1074 40.5512 18.054 39.1797 17.012C38.5087 16.5036 37.8471 15.9715 37.1563 15.4897C36.5834 15.0896 36.2713 15.7991 35.9465 16.2222C35.0184 17.437 34.2035 18.7572 33.5754 20.1499C32.9474 21.5425 32.5287 23.145 31.8346 24.5761C31.6732 24.9088 32.37 25.86 32.5116 25.5681L32.5097 25.569Z" fill="#846DF2"/>
<path d="M32.9116 29.0665C33.4212 28.6839 33.8659 28.1785 34.2937 27.71C34.8147 27.1396 35.334 26.5844 35.351 25.7725C35.3636 25.2227 35.1723 24.6281 34.8398 24.1905C34.6454 23.9352 34.3754 23.7232 34.0419 23.6994C33.3769 23.651 32.7683 24.1337 32.33 24.5815C31.7004 25.2285 31.2328 26.1047 31.1613 27.0105C31.139 27.2983 31.2417 27.5932 31.4142 27.8242C31.4875 27.9214 31.7928 28.184 31.816 27.8933C31.8724 27.1866 32.1828 26.5346 32.6178 25.9775C32.9859 25.5087 33.4791 25.0518 34.0674 24.8889C34.1695 24.8605 34.2613 24.8444 34.3608 24.848C34.4119 24.8503 34.4622 24.8554 34.5134 24.8671C34.538 24.8734 34.5627 24.8798 34.5854 24.8871C34.6613 24.9098 34.5797 24.8758 34.631 24.9064C34.6538 24.9184 34.6728 24.9323 34.6965 24.9462C34.7241 24.9629 34.6668 24.8739 34.7032 24.9499C34.7529 25.0521 34.6631 24.89 34.7051 24.9537C34.7537 25.0257 34.6127 24.8425 34.7013 24.9556L34.6678 24.89C34.6889 24.9453 34.6908 24.9491 34.6736 24.9012L34.6621 24.8693C34.6804 24.9332 34.6804 24.9332 34.6639 24.8683C34.6853 24.9708 34.691 24.9727 34.6831 25.1113C34.6489 25.6981 34.1416 26.1835 33.7704 26.5947C33.3568 27.0536 32.8942 27.58 32.4261 27.932C32.1071 28.1702 32.6823 29.2425 32.9154 29.0693L32.9116 29.0665Z" fill="#846DF2"/>
<path d="M37.3397 24.6772C36.2908 23.3574 35.1042 22.1503 33.796 21.0832C33.6534 20.9669 33.6128 21.186 33.6161 21.2859C33.6188 21.4547 33.6824 21.701 33.8212 21.8145C35.0914 22.8538 36.2475 24.0197 37.2659 25.3031C37.366 25.4292 37.4671 25.3942 37.4939 25.2412C37.5234 25.0655 37.4512 24.8165 37.3407 24.6791L37.3397 24.6772Z" fill="#846DF2"/>
<path d="M39.5999 23.2647C38.2313 21.6165 36.6175 20.2066 34.7967 19.0724C34.6542 18.9844 34.6569 19.3492 34.6619 19.401C34.6797 19.5668 34.7384 19.7754 34.8885 19.869C36.6286 20.9522 38.1938 22.3136 39.5015 23.8889C39.6015 24.0104 39.6952 23.9933 39.7314 23.8355C39.7676 23.6777 39.7085 23.3983 39.6009 23.2665L39.5999 23.2647Z" fill="#846DF2"/>
<path d="M41.4781 21.7516C39.835 19.9339 37.9562 18.3497 35.8741 17.0486C35.6053 16.8809 35.7207 17.663 35.9088 17.7798C37.9462 19.054 39.8021 20.5979 41.4119 22.3783C41.7013 22.6985 41.6219 21.9122 41.4781 21.7516Z" fill="#846DF2"/>
<path d="M33.5075 24.7236C35.3871 22.4048 37.4919 20.2759 39.3714 17.9571C39.54 17.7507 38.9954 17.1495 38.874 17.2988C36.9945 19.6176 34.8896 21.7465 33.0101 24.0653C32.8415 24.2717 33.3861 24.8729 33.5075 24.7236Z" fill="#846DF2"/>
<path d="M35.6203 26.1897C37.911 24.3086 39.4303 21.7269 41.3453 19.5058C41.4923 19.3364 41.0648 18.6472 40.8905 18.8471C38.9962 21.0434 37.4957 23.6013 35.2286 25.4633C35.0276 25.6295 35.4618 26.3178 35.6184 26.1907L35.6203 26.1897Z" fill="#846DF2"/>
</svg>
