<svg width="44" height="44" viewBox="0 0 44 44" fill="none" xmlns="http://www.w3.org/2000/svg">
<rect width="44" height="44" rx="12" fill="#049BE5"/>
<path fill-rule="evenodd" clip-rule="evenodd" d="M31.3005 16.1417C31.0306 18.969 29.8581 25.8323 29.2629 28.9994C29.011 30.3407 28.5132 30.7893 28.0334 30.8326C26.9883 30.928 26.1952 30.1455 25.1831 29.4867C23.5998 28.4554 22.7046 27.813 21.1678 26.8055C19.391 25.6415 20.5425 25.0021 21.5546 23.9574C21.82 23.6831 26.4231 19.5204 26.513 19.1434C26.5235 19.0957 26.5355 18.9198 26.4291 18.8274C26.3226 18.735 26.1682 18.7663 26.0572 18.7916C25.8983 18.8274 23.3688 20.4892 18.4674 23.777C17.7492 24.2674 17.0985 24.5058 16.5153 24.4939C15.8735 24.4805 14.638 24.1332 13.7189 23.8351C12.5929 23.4715 11.6963 23.2777 11.7743 22.6607C11.8147 22.3388 12.2601 22.0094 13.1117 21.6726C18.3565 19.4012 21.8545 17.9034 23.6042 17.179C28.6016 15.1133 29.6392 14.7541 30.3169 14.7422C31.1655 14.7303 31.3695 15.4263 31.3005 16.1417Z" stroke="white" stroke-width="1.5"/>
</svg>
