<svg width="89" height="76" viewBox="0 0 89 76" fill="none" xmlns="http://www.w3.org/2000/svg">
<path d="M12.7529 50.7544C5.12982 50.8698 -1.51513 58.5562 0.302929 66.0119C1.13222 69.399 3.26922 72.6602 6.54385 74.1598C9.57394 75.5439 13.0825 75.9739 16.389 75.9739C20.2803 75.9739 24.1822 75.9739 28.0735 75.9739H70.112C70.7818 75.9739 71.4623 75.9844 72.1321 75.9739C72.3447 75.9739 71.9301 75.9739 71.9301 75.9739C71.9939 75.9948 72.1108 75.9739 72.1746 75.9844C72.6849 76.0053 73.2059 76.0053 73.7162 75.9844C77.4587 75.869 81.5307 75.0825 84.5714 72.807C86.432 71.4123 87.7504 69.5248 88.3564 67.2808C89.1219 64.4075 88.8986 61.1148 87.8673 58.336C86.1024 53.5857 81.5626 50.681 76.7038 49.6429C75.7044 49.4331 74.6837 49.2968 73.6525 49.2549L74.6837 49.7477C74.5668 48.1853 74.1734 46.6019 73.7162 45.1023C72.7062 41.7887 71.0583 38.6428 68.698 36.0736C62.2763 29.0583 50.9427 27.1289 42.5754 31.7952C40.4915 32.9592 38.3864 34.5217 36.9298 36.4197L38.716 36.3568C35.0799 34.27 30.4018 33.4416 26.266 33.9135C19.4722 34.6895 13.8161 40.0165 12.2851 46.5285C11.9449 47.9756 11.7216 49.5799 11.9236 51.0795C12.0087 51.7296 14.1138 51.7296 14.0393 51.2263C13.5503 47.598 15.0388 43.5923 17.2183 40.74C19.3978 37.8878 22.194 35.822 25.5856 35.004C28.0841 34.3958 30.7208 34.5846 33.1768 35.2662C34.5483 35.6437 35.9198 36.1366 37.1637 36.8391C37.5571 37.0594 38.631 37.1957 38.9499 36.7762C40.0344 35.3711 41.4909 34.1756 42.9688 33.1899C46.3072 30.9564 50.2729 29.7819 54.313 30.1279C58.8316 30.5159 63.1375 32.5712 66.2845 35.78C68.6448 38.1919 70.3247 41.2224 71.3985 44.3997C71.962 46.0671 72.4298 47.8392 72.5574 49.5904C72.5893 49.9679 73.3229 50.0728 73.5887 50.0833C75.4386 50.1567 77.2886 50.5761 79.1066 51.3941C81.1905 52.3378 83.0404 53.7745 84.3588 55.641C86.0067 57.9794 86.6765 60.7898 86.6446 63.6106C86.6234 66.1587 86.0705 68.6545 84.4119 70.6678C83.1467 72.1988 81.4031 73.2789 79.5319 73.9605C78.6601 74.2751 77.767 74.5268 76.8739 74.705C76.4593 74.7889 76.0446 74.8518 75.6193 74.9148C75.4173 74.9462 75.2153 74.9672 75.0027 74.9882C74.907 74.9882 74.822 75.0091 74.7263 75.0196C74.503 75.0406 74.7475 75.0196 74.588 75.0301C73.9714 75.0825 73.3548 75.114 72.7381 75.1245C72.6212 75.1245 72.5042 75.1245 72.3979 75.1245C72.3553 75.1245 72.3022 75.1245 72.2597 75.1245C72.1002 75.1245 72.5574 75.135 72.366 75.1245C72.2597 75.1245 72.1427 75.1245 72.0364 75.114C71.6111 75.1035 71.1858 75.114 70.7606 75.114C67.9325 75.114 65.115 75.114 62.2869 75.114H32.592C28.2117 75.114 23.842 75.114 19.4616 75.114C14.7198 75.114 9.05298 75.4496 5.48066 71.8108C2.90774 69.1893 1.65318 65.2674 2.29109 61.6811C2.88648 58.3884 4.98097 55.1482 7.88348 53.376C9.46764 52.4112 11.3495 51.6143 13.2313 51.5828C13.4759 51.5828 14.1457 51.4989 14.0075 51.1214C13.8692 50.7439 13.0081 50.7334 12.721 50.7334L12.7529 50.7544Z" fill="#846DF2"/>
<path d="M31.4865 26.6358C33.2726 29.7922 35.0907 32.9276 36.9725 36.0315C37.2915 36.5558 39.3328 36.3461 39.0245 35.8323C37.1533 32.7283 35.3246 29.5929 33.5384 26.4366C33.2407 25.9123 31.1888 26.101 31.4865 26.6358Z" fill="#846DF2"/>
<path d="M31.837 28.7649C33.7806 28.7649 35.3562 27.2109 35.3562 25.2939C35.3562 23.377 33.7806 21.823 31.837 21.823C29.8935 21.823 28.3179 23.377 28.3179 25.2939C28.3179 27.2109 29.8935 28.7649 31.837 28.7649Z" fill="#846DF2"/>
<path d="M24.5754 22.6826C24.7455 21.0782 25.4898 19.327 26.6912 18.2259C28.371 16.6844 31.0077 16.4957 32.9534 17.429C33.368 17.6282 34.0484 17.5862 34.4525 17.3975C34.8565 17.2087 34.8033 16.978 34.4418 16.7998C32.4537 15.856 29.8382 15.7721 27.7544 16.3489C26.3829 16.7264 25.1495 17.387 24.2246 18.4671C23.576 19.2326 23.1295 20.1449 22.8212 21.0991C22.6511 21.6235 22.5022 22.1792 22.4384 22.7245C22.3746 23.2698 24.501 23.3222 24.5648 22.6826H24.5754Z" fill="#846DF2"/>
<path d="M15.6437 24.8431C15.5161 22.253 16.4624 19.3168 17.7595 17.0308C20.6513 11.9345 26.2225 9.01929 32.0594 8.80956C33.2076 8.76762 34.3559 8.80956 35.4935 8.96686C35.6849 8.98783 35.8656 9.01929 36.057 9.05075C36.1314 9.06123 36.2165 9.07172 36.2909 9.09269C36.1527 9.07172 36.1739 9.07172 36.2909 9.09269C36.4078 9.11367 36.546 9.14512 36.663 9.17658C36.9075 9.2395 37.5667 9.34436 37.5348 8.94588C37.5136 8.55789 36.6843 8.29574 36.4078 8.23282C32.1763 7.19468 27.2963 7.66656 23.3519 9.44923C18.5356 11.6199 15.0271 16.0031 13.9639 21.11C13.7406 22.1691 13.5811 23.3016 13.6343 24.3922C13.6662 24.9689 15.6756 25.5247 15.6437 24.8745V24.8431Z" fill="#846DF2"/>
<path d="M7.21365 25.7133C6.68206 18.4043 10.584 11.5463 15.9956 6.80654C17.5479 5.44332 19.2277 4.17448 21.0883 3.26218C22.6618 2.4862 24.331 1.9514 26.0428 1.58438C29.2111 0.90277 32.507 0.808394 35.7391 1.03909C36.9298 1.12298 38.1525 1.26979 39.3433 1.45854C39.5453 1.49 39.7473 1.52146 39.9493 1.55292C40.0237 1.56341 40.3746 1.63681 40.0024 1.55292C40.0662 1.56341 40.13 1.57389 40.2044 1.59486C40.332 1.61584 40.4596 1.64729 40.5978 1.66827C40.9062 1.73119 41.7248 1.87799 41.9375 1.54243C42.1501 1.20687 41.4909 0.986662 41.2676 0.93423C36.4833 -0.114396 31.2736 -0.292663 26.4468 0.462348C22.5874 1.06006 19.0895 2.39182 15.9637 4.71977C12.6147 7.2155 9.72278 10.3614 7.74525 14.0316C5.76771 17.7018 4.82148 21.4558 5.10854 25.4301C5.1617 26.0908 7.25618 26.2061 7.21365 25.7028V25.7133Z" fill="#846DF2"/>
<path d="M52.7819 53.2186C52.261 54.6971 51.7081 56.1652 51.219 57.6647C51.1234 57.9479 51.6018 58.0108 51.8038 58.0213C52.0058 58.0317 52.2185 58.0213 52.4205 57.9479C52.5268 57.9164 52.7394 57.8535 52.7713 57.7381C53.2604 56.2491 53.8132 54.781 54.3342 53.292C54.4405 53.0088 53.9408 52.9459 53.7494 52.9354C53.5474 52.9354 53.3348 52.9354 53.1328 53.0088C53.0265 53.0403 52.8245 53.1032 52.7819 53.2186Z" fill="#989DFF"/>
<path d="M62.7863 53.46C62.2654 54.9385 61.7125 56.4066 61.2234 57.9062C61.1278 58.1893 61.6062 58.2522 61.8082 58.2627C62.0102 58.2732 62.2228 58.2627 62.4249 58.1893C62.5312 58.1578 62.7438 58.0949 62.7757 57.9796C63.2648 56.4905 63.8176 55.0224 64.3386 53.5334C64.4449 53.2503 63.9452 53.1873 63.7538 53.1768C63.5518 53.1768 63.3392 53.1768 63.1372 53.2503C63.0309 53.2817 62.8289 53.3446 62.7863 53.46Z" fill="#989DFF"/>
<path d="M73.3654 53.4598C72.8445 54.9384 72.2916 56.4065 71.8025 57.906C71.7069 58.1891 72.1853 58.252 72.3873 58.2625C72.5893 58.273 72.8019 58.2625 73.004 58.1891C73.1103 58.1577 73.3229 58.0948 73.3548 57.9794C73.8439 56.4904 74.3967 55.0223 74.9177 53.5332C75.024 53.2501 74.5243 53.1872 74.3329 53.1767C74.1309 53.1767 73.9183 53.1767 73.7163 53.2501C73.61 53.2816 73.408 53.3445 73.3654 53.4598Z" fill="#989DFF"/>
<path d="M77.4909 53.46C76.97 54.9385 76.4171 56.4066 75.928 57.9062C75.8323 58.1893 76.3108 58.2522 76.5128 58.2627C76.7148 58.2732 76.9274 58.2627 77.1294 58.1893C77.2357 58.1578 77.4484 58.0949 77.4803 57.9796C77.9693 56.4905 78.5222 55.0224 79.0432 53.5334C79.1495 53.2503 78.6498 53.1873 78.4584 53.1768C78.2564 53.1768 78.0438 53.1768 77.8418 53.2503C77.7355 53.2817 77.5335 53.3446 77.4909 53.46Z" fill="#989DFF"/>
<path d="M56.4706 53.7115C56.0347 54.1205 55.7157 54.5924 55.4818 55.1377C55.2692 55.62 55.0566 56.1548 54.9609 56.6687C54.8652 57.1825 55.0353 57.6544 55.4712 57.9585C55.9816 58.315 56.7045 58.3674 57.3105 58.294C57.8634 58.2311 58.4269 58.0424 58.8522 57.6858C59.2775 57.3293 59.6389 56.8679 59.8941 56.375C60.3725 55.4522 60.7659 53.9422 59.7027 53.2501C58.9904 52.7782 57.874 52.8621 57.1298 53.2501C56.5769 53.5333 56.2261 54.0261 55.8327 54.477C55.7583 54.5609 55.854 54.6763 55.9178 54.7182C56.0453 54.8021 56.2473 54.844 56.3962 54.8545C56.7045 54.8755 57.1511 54.865 57.3743 54.6133C57.6295 54.3197 57.8634 53.9947 58.1717 53.764C58.2143 53.7325 58.2568 53.701 58.2993 53.6801C58.2993 53.6801 58.3844 53.6276 58.3312 53.6591C58.3631 53.6381 58.4056 53.6276 58.4482 53.6067C58.5757 53.5437 58.3844 53.5962 58.5332 53.5752C58.4694 53.5752 58.3737 53.5647 58.3206 53.5752C58.2781 53.5437 58.2887 53.5752 58.3206 53.5752C58.3525 53.6172 58.4163 53.6381 58.4482 53.6696C59.1073 54.2988 58.7458 55.4732 58.395 56.1758C58.2036 56.5638 57.9485 56.9308 57.6401 57.2454C57.5232 57.3712 57.385 57.4761 57.2467 57.5705C57.1085 57.6648 57.2893 57.5495 57.2042 57.6019C57.1617 57.6229 57.1192 57.6439 57.0766 57.6544C56.9703 57.7068 57.0554 57.6648 57.0766 57.6544C57.0235 57.6753 56.9703 57.6858 56.9172 57.6963C56.9703 57.6858 57.0873 57.6544 56.9172 57.6963C56.8002 57.7068 57.1192 57.6963 56.9384 57.6963C56.9597 57.6963 57.1298 57.7173 56.9916 57.6963C57.183 57.7278 57.0447 57.7068 57.0022 57.6963C56.9065 57.6648 57.1404 57.7592 57.0022 57.6963C56.9703 57.6858 56.9384 57.6753 56.9065 57.6544C56.8746 57.6334 56.8108 57.581 56.7896 57.5705C56.5238 57.3188 56.5132 56.9413 56.5876 56.5848C56.6833 56.1338 56.864 55.6725 57.0554 55.253C57.2574 54.8021 57.5125 54.3512 57.874 54.0051C58.1186 53.7744 57.8102 53.6276 57.5763 53.5752C57.2893 53.5228 56.7258 53.4808 56.4919 53.7115H56.4706Z" fill="#989DFF"/>
<path d="M66.4438 53.7115C66.0079 54.1205 65.6889 54.5924 65.455 55.1377C65.2424 55.62 65.0297 56.1548 64.934 56.6687C64.8384 57.1825 65.0085 57.6544 65.4444 57.9585C65.9547 58.315 66.6777 58.3674 67.2837 58.294C67.8365 58.2311 68.4 58.0424 68.8253 57.6858C69.2506 57.3293 69.6121 56.8679 69.8672 56.375C70.3457 55.4522 70.739 53.9422 69.6759 53.2501C68.9635 52.7782 67.8472 52.8621 67.1029 53.2501C66.5501 53.5333 66.1992 54.0261 65.8058 54.477C65.7314 54.5609 65.8271 54.6763 65.8909 54.7182C66.0185 54.8021 66.2205 54.844 66.3693 54.8545C66.6777 54.8755 67.1242 54.865 67.3475 54.6133C67.6026 54.3197 67.8365 53.9947 68.1449 53.764C68.1874 53.7325 68.2299 53.701 68.2725 53.6801C68.2725 53.6801 68.3575 53.6276 68.3044 53.6591C68.3362 53.6381 68.3788 53.6276 68.4213 53.6067C68.5489 53.5437 68.3575 53.5962 68.5063 53.5752C68.4426 53.5752 68.3469 53.5647 68.2937 53.5752C68.2512 53.5437 68.2618 53.5752 68.2937 53.5752C68.3256 53.6172 68.3894 53.6381 68.4213 53.6696C69.0805 54.2988 68.719 55.4732 68.3681 56.1758C68.1768 56.5638 67.9216 56.9308 67.6133 57.2454C67.4963 57.3712 67.3581 57.4761 67.2199 57.5705C67.0817 57.6648 67.2624 57.5495 67.1774 57.6019C67.1348 57.6229 67.0923 57.6439 67.0498 57.6544C66.9435 57.7068 67.0285 57.6648 67.0498 57.6544C66.9966 57.6753 66.9435 57.6858 66.8903 57.6963C66.9435 57.6858 67.0604 57.6544 66.8903 57.6963C66.7734 57.7068 67.0923 57.6963 66.9116 57.6963C66.9328 57.6963 67.1029 57.7173 66.9647 57.6963C67.1561 57.7278 67.0179 57.7068 66.9754 57.6963C66.8797 57.6648 67.1136 57.7592 66.9754 57.6963C66.9435 57.6858 66.9116 57.6753 66.8797 57.6544C66.8478 57.6334 66.784 57.581 66.7627 57.5705C66.4969 57.3188 66.4863 56.9413 66.5607 56.5848C66.6564 56.1338 66.8371 55.6725 67.0285 55.253C67.2305 54.8021 67.4857 54.3512 67.8472 54.0051C68.0917 53.7744 67.7834 53.6276 67.5495 53.5752C67.2624 53.5228 66.6989 53.4808 66.465 53.7115H66.4438Z" fill="#989DFF"/>
<path d="M44.9353 60.4231C44.4143 61.9017 43.8614 63.3698 43.3724 64.8693C43.2767 65.1525 43.7551 65.2154 43.9571 65.2259C44.1591 65.2363 44.3718 65.2259 44.5738 65.1524C44.6801 65.121 44.8927 65.0581 44.9246 64.9427C45.4137 63.4537 45.9666 61.9856 46.4875 60.4966C46.5938 60.2134 46.0941 60.1505 45.9028 60.14C45.7008 60.14 45.4881 60.14 45.2861 60.2134C45.1798 60.2449 44.9778 60.3078 44.9353 60.4231Z" fill="#989DFF"/>
<path d="M48.4123 60.5593C47.8913 62.0378 47.3385 63.5059 46.8494 65.0055C46.7537 65.2886 47.2322 65.3515 47.4342 65.362C47.6362 65.3725 47.8488 65.362 48.0508 65.2886C48.1571 65.2571 48.3698 65.1942 48.4017 65.0789C48.8908 63.5898 49.4436 62.1217 49.9646 60.6327C50.0709 60.3496 49.5712 60.2866 49.3798 60.2762C49.1778 60.2762 48.9652 60.2762 48.7632 60.3496C48.6568 60.381 48.4548 60.4439 48.4123 60.5593Z" fill="#989DFF"/>
<path d="M58.8742 60.6642C58.3533 62.1427 57.8004 63.6108 57.3113 65.1103C57.2156 65.3935 57.6941 65.4564 57.8961 65.4669C58.0981 65.4774 58.3107 65.4669 58.5127 65.3935C58.6191 65.362 58.8317 65.2991 58.8636 65.1838C59.3527 63.6947 59.9055 62.2266 60.4265 60.7376C60.5328 60.4544 60.0331 60.3915 59.8417 60.381C59.6397 60.381 59.4271 60.381 59.2251 60.4544C59.1188 60.4859 58.9168 60.5488 58.8742 60.6642Z" fill="#989DFF"/>
<path d="M62.8513 60.6642C62.3303 62.1427 61.7775 63.6108 61.2884 65.1103C61.1927 65.3935 61.6711 65.4564 61.8731 65.4669C62.0751 65.4774 62.2878 65.4669 62.4898 65.3935C62.5961 65.362 62.8088 65.2991 62.8406 65.1838C63.3297 63.6947 63.8826 62.2266 64.4035 60.7376C64.5099 60.4544 64.0102 60.3915 63.8188 60.381C63.6168 60.381 63.4041 60.381 63.2021 60.4544C63.0958 60.4859 62.8938 60.5488 62.8513 60.6642Z" fill="#989DFF"/>
<path d="M74.2165 60.7375C73.6955 62.216 73.1427 63.6841 72.6536 65.1837C72.5579 65.4668 73.0364 65.5297 73.2384 65.5402C73.4404 65.5507 73.653 65.5402 73.855 65.4668C73.9613 65.4353 74.174 65.3724 74.2059 65.2571C74.6949 63.768 75.2478 62.2999 75.7688 60.8109C75.8751 60.5277 75.3754 60.4648 75.184 60.4543C74.982 60.4543 74.7694 60.4543 74.5674 60.5277C74.461 60.5592 74.259 60.6221 74.2165 60.7375Z" fill="#989DFF"/>
<path d="M52.4423 60.916C52.0064 61.3249 51.6874 61.7968 51.4535 62.3421C51.2409 62.8245 51.0283 63.3593 50.9326 63.8731C50.8369 64.3869 51.007 64.8588 51.4429 65.1629C51.9532 65.5194 52.6762 65.5719 53.2822 65.4985C53.8351 65.4355 54.3986 65.2468 54.8239 64.8902C55.2491 64.5337 55.6106 64.0723 55.8658 63.5795C56.3442 62.6567 56.7376 61.1467 55.6744 60.4546C54.9621 59.9827 53.8457 60.0666 53.1015 60.4546C52.5486 60.7377 52.1978 61.2305 51.8044 61.6815C51.73 61.7653 51.8257 61.8807 51.8895 61.9226C52.017 62.0065 52.219 62.0485 52.3679 62.059C52.6762 62.0799 53.1227 62.0694 53.346 61.8178C53.6012 61.5242 53.8351 61.1991 54.1434 60.9684C54.1859 60.9369 54.2285 60.9055 54.271 60.8845C54.271 60.8845 54.3561 60.8321 54.3029 60.8635C54.3348 60.8426 54.3773 60.8321 54.4198 60.8111C54.5474 60.7482 54.356 60.8006 54.5049 60.7796C54.4411 60.7796 54.3454 60.7691 54.2923 60.7796C54.2497 60.7482 54.2604 60.7796 54.2923 60.7796C54.3242 60.8216 54.3879 60.8426 54.4198 60.874C55.079 61.5032 54.7175 62.6777 54.3667 63.3802C54.1753 63.7682 53.9201 64.1352 53.6118 64.4498C53.4949 64.5757 53.3567 64.6805 53.2184 64.7749C53.0802 64.8693 53.261 64.7539 53.1759 64.8064C53.1334 64.8273 53.0909 64.8483 53.0483 64.8588C52.942 64.9112 53.0271 64.8693 53.0483 64.8588C52.9952 64.8798 52.942 64.8903 52.8889 64.9007C52.942 64.8903 53.059 64.8588 52.8889 64.9007C52.7719 64.9112 53.0909 64.9007 52.9101 64.9007C52.9314 64.9007 53.1015 64.9217 52.9633 64.9007C53.1546 64.9322 53.0164 64.9112 52.9739 64.9007C52.8782 64.8693 53.1121 64.9637 52.9739 64.9007C52.942 64.8903 52.9101 64.8798 52.8782 64.8588C52.8463 64.8378 52.7825 64.7854 52.7613 64.7749C52.4955 64.5232 52.4848 64.1457 52.5593 63.7892C52.6549 63.3383 52.8357 62.8769 53.0271 62.4574C53.2291 62.0065 53.4842 61.5556 53.8457 61.2096C54.0903 60.9789 53.7819 60.8321 53.548 60.7796C53.261 60.7272 52.6975 60.6853 52.4636 60.916H52.4423Z" fill="#989DFF"/>
<path d="M67.3056 60.9161C66.8697 61.3251 66.5507 61.797 66.3168 62.3422C66.1042 62.8246 65.8915 63.3594 65.7959 63.8732C65.7002 64.3871 65.8703 64.8589 66.3062 65.163C66.8165 65.5196 67.5395 65.572 68.1455 65.4986C68.6984 65.4357 69.2618 65.2469 69.6871 64.8904C70.1124 64.5339 70.4739 64.0725 70.7291 63.5796C71.2075 62.6568 71.6009 61.1468 70.5377 60.4547C69.8253 59.9828 68.709 60.0667 67.9648 60.4547C67.4119 60.7378 67.061 61.2307 66.6677 61.6816C66.5932 61.7655 66.6889 61.8808 66.7527 61.9228C66.8803 62.0067 67.0823 62.0486 67.2312 62.0591C67.5395 62.0801 67.986 62.0696 68.2093 61.8179C68.4645 61.5243 68.6984 61.1992 69.0067 60.9685C69.0492 60.9371 69.0917 60.9056 69.1343 60.8846C69.1343 60.8846 69.2193 60.8322 69.1662 60.8637C69.1981 60.8427 69.2406 60.8322 69.2831 60.8112C69.4107 60.7483 69.2193 60.8008 69.3682 60.7798C69.3044 60.7798 69.2087 60.7693 69.1555 60.7798C69.113 60.7483 69.1236 60.7798 69.1555 60.7798C69.1874 60.8217 69.2512 60.8427 69.2831 60.8742C69.9423 61.5033 69.5808 62.6778 69.23 63.3804C69.0386 63.7684 68.7834 64.1354 68.4751 64.45C68.3581 64.5758 68.2199 64.6807 68.0817 64.7751C67.9435 64.8694 68.1242 64.7541 68.0392 64.8065C67.9967 64.8275 67.9541 64.8485 67.9116 64.8589C67.8053 64.9114 67.8903 64.8694 67.9116 64.8589C67.8584 64.8799 67.8053 64.8904 67.7521 64.9009C67.8053 64.8904 67.9222 64.8589 67.7521 64.9009C67.6352 64.9114 67.9541 64.9009 67.7734 64.9009C67.7947 64.9009 67.9648 64.9219 67.8265 64.9009C68.0179 64.9323 67.8797 64.9114 67.8372 64.9009C67.7415 64.8694 67.9754 64.9638 67.8372 64.9009C67.8053 64.8904 67.7734 64.8799 67.7415 64.8589C67.7096 64.838 67.6458 64.7855 67.6245 64.7751C67.3587 64.5234 67.3481 64.1459 67.4225 63.7893C67.5182 63.3384 67.699 62.877 67.8903 62.4576C68.0923 62.0067 68.3475 61.5558 68.709 61.2097C68.9535 60.979 68.6452 60.8322 68.4113 60.7798C68.1242 60.7274 67.5608 60.6854 67.3269 60.9161H67.3056Z" fill="#989DFF"/>
<path d="M78.2987 60.916C77.8628 61.3249 77.5439 61.7968 77.31 62.3421C77.0974 62.8245 76.8847 63.3593 76.789 63.8731C76.6933 64.3869 76.8634 64.8588 77.2993 65.1629C77.8097 65.5194 78.5326 65.5719 79.1387 65.4985C79.6915 65.4355 80.255 65.2468 80.6803 64.8902C81.1056 64.5337 81.4671 64.0723 81.7222 63.5795C82.2007 62.6567 82.594 61.1467 81.5308 60.4546C80.8185 59.9827 79.7022 60.0666 78.9579 60.4546C78.4051 60.7377 78.0542 61.2305 77.6608 61.6815C77.5864 61.7653 77.6821 61.8807 77.7459 61.9226C77.8735 62.0065 78.0755 62.0485 78.2243 62.059C78.5327 62.0799 78.9792 62.0694 79.2025 61.8178C79.4576 61.5242 79.6915 61.1991 79.9999 60.9684C80.0424 60.9369 80.0849 60.9055 80.1274 60.8845C80.1274 60.8845 80.2125 60.8321 80.1593 60.8635C80.1912 60.8426 80.2338 60.8321 80.2763 60.8111C80.4039 60.7482 80.2125 60.8006 80.3613 60.7796C80.2975 60.7796 80.2019 60.7691 80.1487 60.7796C80.1062 60.7482 80.1168 60.7796 80.1487 60.7796C80.1806 60.8216 80.2444 60.8426 80.2763 60.874C80.9355 61.5032 80.574 62.6777 80.2231 63.3802C80.0317 63.7682 79.7766 64.1352 79.4683 64.4498C79.3513 64.5757 79.2131 64.6805 79.0749 64.7749C78.9367 64.8693 79.1174 64.7539 79.0324 64.8064C78.9898 64.8273 78.9473 64.8483 78.9048 64.8588C78.7985 64.9112 78.8835 64.8693 78.9048 64.8588C78.8516 64.8798 78.7984 64.8903 78.7453 64.9007C78.7984 64.8903 78.9154 64.8588 78.7453 64.9007C78.6283 64.9112 78.9473 64.9007 78.7666 64.9007C78.7878 64.9007 78.9579 64.9217 78.8197 64.9007C79.0111 64.9322 78.8729 64.9112 78.8303 64.9007C78.7347 64.8693 78.9686 64.9637 78.8303 64.9007C78.7984 64.8903 78.7666 64.8798 78.7347 64.8588C78.7028 64.8378 78.639 64.7854 78.6177 64.7749C78.3519 64.5232 78.3413 64.1457 78.4157 63.7892C78.5114 63.3383 78.6921 62.8769 78.8835 62.4574C79.0855 62.0065 79.3407 61.5556 79.7022 61.2096C79.9467 60.9789 79.6384 60.8321 79.4045 60.7796C79.1174 60.7272 78.5539 60.6853 78.32 60.916H78.2987Z" fill="#989DFF"/>
<path d="M52.0168 67.8261C51.4958 69.3047 50.943 70.7728 50.4539 72.2723C50.3582 72.5554 50.8367 72.6183 51.0387 72.6288C51.2407 72.6393 51.4533 72.6288 51.6553 72.5554C51.7616 72.524 51.9743 72.4611 52.0062 72.3457C52.4952 70.8567 53.0481 69.3886 53.5691 67.8995C53.6754 67.6164 53.1757 67.5535 52.9843 67.543C52.7823 67.543 52.5697 67.543 52.3677 67.6164C52.2613 67.6479 52.0593 67.7108 52.0168 67.8261Z" fill="#989DFF"/>
<path d="M61.4675 67.9415C60.9465 69.4201 60.3937 70.8881 59.9046 72.3877C59.8089 72.6708 60.2873 72.7337 60.4894 72.7442C60.6914 72.7547 60.904 72.7442 61.106 72.6708C61.2123 72.6394 61.425 72.5764 61.4569 72.4611C61.9459 70.972 62.4988 69.504 63.0198 68.0149C63.1261 67.7318 62.6264 67.6689 62.435 67.6584C62.233 67.6584 62.0203 67.6584 61.8183 67.7318C61.712 67.7632 61.51 67.8262 61.4675 67.9415Z" fill="#989DFF"/>
<path d="M77.5651 68.0046C77.0442 69.4832 76.4913 70.9513 76.0023 72.4508C75.9066 72.7339 76.385 72.7968 76.587 72.8073C76.789 72.8178 77.0017 72.8073 77.2037 72.7339C77.31 72.7025 77.5226 72.6396 77.5545 72.5242C78.0436 71.0352 78.5964 69.5671 79.1174 68.078C79.2237 67.7949 78.724 67.732 78.5326 67.7215C78.3306 67.7215 78.118 67.7215 77.916 67.7949C77.8097 67.8264 77.6077 67.8893 77.5651 68.0046Z" fill="#989DFF"/>
<path d="M55.5575 68.1932C55.1216 68.6021 54.8027 69.074 54.5688 69.6193C54.3561 70.1017 54.1435 70.6365 54.0478 71.1503C53.9521 71.6641 54.1222 72.136 54.5581 72.4401C55.0685 72.7966 55.7914 72.8491 56.3975 72.7757C56.9503 72.7128 57.5138 72.524 57.9391 72.1675C58.3644 71.8109 58.7258 71.3495 58.981 70.8567C59.4594 69.9339 59.8528 68.4239 58.7896 67.7318C58.0773 67.2599 56.9609 67.3438 56.2167 67.7318C55.6639 68.0149 55.313 68.5078 54.9196 68.9587C54.8452 69.0426 54.9409 69.1579 55.0047 69.1999C55.1323 69.2837 55.3343 69.3257 55.4831 69.3362C55.7914 69.3572 56.238 69.3467 56.4613 69.095C56.7164 68.8014 56.9503 68.4763 57.2586 68.2456C57.3012 68.2142 57.3437 68.1827 57.3862 68.1617C57.3862 68.1617 57.4713 68.1093 57.4181 68.1407C57.45 68.1198 57.4925 68.1093 57.5351 68.0883C57.6627 68.0254 57.4713 68.0778 57.6201 68.0569C57.5563 68.0569 57.4607 68.0464 57.4075 68.0569C57.365 68.0254 57.3756 68.0569 57.4075 68.0569C57.4394 68.0988 57.5032 68.1198 57.5351 68.1512C58.1942 68.7804 57.8328 69.9549 57.4819 70.6574C57.2905 71.0454 57.0354 71.4125 56.7271 71.727C56.6101 71.8529 56.4719 71.9577 56.3337 72.0521C56.1954 72.1465 56.3762 72.0311 56.2911 72.0836C56.2486 72.1046 56.2061 72.1255 56.1636 72.136C56.0572 72.1884 56.1423 72.1465 56.1636 72.136C56.1104 72.157 56.0572 72.1675 56.0041 72.178C56.0572 72.1675 56.1742 72.136 56.0041 72.178C55.8871 72.1884 56.2061 72.178 56.0253 72.178C56.0466 72.178 56.2167 72.1989 56.0785 72.178C56.2699 72.2094 56.1317 72.1884 56.0891 72.178C55.9934 72.1465 56.2273 72.2409 56.0891 72.178C56.0572 72.1675 56.0253 72.157 55.9934 72.136C55.9616 72.115 55.8978 72.0626 55.8765 72.0521C55.6107 71.8005 55.6001 71.423 55.6745 71.0664C55.7702 70.6155 55.9509 70.1541 56.1423 69.7347C56.3443 69.2837 56.5995 68.8328 56.961 68.4868C57.2055 68.2561 56.8971 68.1093 56.6632 68.0569C56.3762 68.0044 55.8127 67.9625 55.5788 68.1932H55.5575Z" fill="#989DFF"/>
<path d="M46.0727 68.1932C45.6368 68.6021 45.3178 69.074 45.0839 69.6193C44.8713 70.1017 44.6586 70.6365 44.5629 71.1503C44.4673 71.6641 44.6374 72.136 45.0733 72.4401C45.5836 72.7966 46.3066 72.8491 46.9126 72.7757C47.4654 72.7128 48.0289 72.524 48.4542 72.1675C48.8795 71.8109 49.241 71.3495 49.4961 70.8567C49.9746 69.9339 50.368 68.4239 49.3048 67.7318C48.5924 67.2599 47.4761 67.3438 46.7318 67.7318C46.179 68.0149 45.8281 68.5078 45.4348 68.9587C45.3603 69.0426 45.456 69.1579 45.5198 69.1999C45.6474 69.2837 45.8494 69.3257 45.9982 69.3362C46.3066 69.3572 46.7531 69.3467 46.9764 69.095C47.2315 68.8014 47.4654 68.4763 47.7738 68.2456C47.8163 68.2142 47.8588 68.1827 47.9014 68.1617C47.9014 68.1617 47.9864 68.1093 47.9333 68.1407C47.9652 68.1198 48.0077 68.1093 48.0502 68.0883C48.1778 68.0254 47.9864 68.0778 48.1353 68.0569C48.0715 68.0569 47.9758 68.0464 47.9226 68.0569C47.8801 68.0254 47.8907 68.0569 47.9226 68.0569C47.9545 68.0988 48.0183 68.1198 48.0502 68.1512C48.7094 68.7804 48.3479 69.9549 47.997 70.6574C47.8057 71.0454 47.5505 71.4125 47.2422 71.727C47.1252 71.8529 46.987 71.9577 46.8488 72.0521C46.7106 72.1465 46.8913 72.0311 46.8063 72.0836C46.7637 72.1046 46.7212 72.1255 46.6787 72.136C46.5724 72.1884 46.6574 72.1465 46.6787 72.136C46.6255 72.157 46.5724 72.1675 46.5192 72.178C46.5724 72.1675 46.6893 72.136 46.5192 72.178C46.4023 72.1884 46.7212 72.178 46.5405 72.178C46.5617 72.178 46.7319 72.1989 46.5936 72.178C46.785 72.2094 46.6468 72.1884 46.6043 72.178C46.5086 72.1465 46.7425 72.2409 46.6043 72.178C46.5724 72.1675 46.5405 72.157 46.5086 72.136C46.4767 72.115 46.4129 72.0626 46.3916 72.0521C46.1258 71.8005 46.1152 71.423 46.1896 71.0664C46.2853 70.6155 46.4661 70.1541 46.6574 69.7347C46.8594 69.2837 47.1146 68.8328 47.4761 68.4868C47.7206 68.2561 47.4123 68.1093 47.1784 68.0569C46.8913 68.0044 46.3278 67.9625 46.0939 68.1932H46.0727Z" fill="#989DFF"/>
<path d="M71.3871 68.1932C70.9512 68.6021 70.6323 69.074 70.3984 69.6193C70.1857 70.1017 69.9731 70.6365 69.8774 71.1503C69.7817 71.6641 69.9518 72.136 70.3877 72.4401C70.8981 72.7966 71.621 72.8491 72.227 72.7757C72.7799 72.7128 73.3434 72.524 73.7687 72.1675C74.194 71.8109 74.5554 71.3495 74.8106 70.8567C75.289 69.9339 75.6824 68.4239 74.6192 67.7318C73.9069 67.2599 72.7905 67.3438 72.0463 67.7318C71.4934 68.0149 71.1426 68.5078 70.7492 68.9587C70.6748 69.0426 70.7705 69.1579 70.8343 69.1999C70.9618 69.2837 71.1639 69.3257 71.3127 69.3362C71.621 69.3572 72.0676 69.3467 72.2908 69.095C72.546 68.8014 72.7799 68.4763 73.0882 68.2456C73.1308 68.2142 73.1733 68.1827 73.2158 68.1617C73.2158 68.1617 73.3009 68.1093 73.2477 68.1407C73.2796 68.1198 73.3221 68.1093 73.3647 68.0883C73.4922 68.0254 73.3009 68.0778 73.4497 68.0569C73.3859 68.0569 73.2902 68.0464 73.2371 68.0569C73.1946 68.0254 73.2052 68.0569 73.2371 68.0569C73.269 68.0988 73.3328 68.1198 73.3647 68.1512C74.0238 68.7804 73.6624 69.9549 73.3115 70.6574C73.1201 71.0454 72.865 71.4125 72.5566 71.727C72.4397 71.8529 72.3015 71.9577 72.1633 72.0521C72.025 72.1465 72.2058 72.0311 72.1207 72.0836C72.0782 72.1046 72.0357 72.1255 71.9932 72.136C71.8868 72.1884 71.9719 72.1465 71.9932 72.136C71.94 72.157 71.8868 72.1675 71.8337 72.178C71.8868 72.1675 72.0038 72.136 71.8337 72.178C71.7167 72.1884 72.0357 72.178 71.8549 72.178C71.8762 72.178 72.0463 72.1989 71.9081 72.178C72.0995 72.2094 71.9612 72.1884 71.9187 72.178C71.823 72.1465 72.0569 72.2409 71.9187 72.178C71.8868 72.1675 71.8549 72.157 71.823 72.136C71.7911 72.115 71.7274 72.0626 71.7061 72.0521C71.4403 71.8005 71.4297 71.423 71.5041 71.0664C71.5998 70.6155 71.7805 70.1541 71.9719 69.7347C72.1739 69.2837 72.4291 68.8328 72.7905 68.4868C73.0351 68.2561 72.7267 68.1093 72.4928 68.0569C72.2058 68.0044 71.6423 67.9625 71.4084 68.1932H71.3871Z" fill="#989DFF"/>
<path d="M64.976 68.1932C64.5401 68.6021 64.2211 69.074 63.9872 69.6193C63.7746 70.1017 63.562 70.6365 63.4663 71.1503C63.3706 71.6641 63.5407 72.136 63.9766 72.4401C64.4869 72.7966 65.2099 72.8491 65.8159 72.7757C66.3688 72.7128 66.9323 72.524 67.3575 72.1675C67.7828 71.8109 68.1443 71.3495 68.3995 70.8567C68.8779 69.9339 69.2713 68.4239 68.2081 67.7318C67.4957 67.2599 66.3794 67.3438 65.6352 67.7318C65.0823 68.0149 64.7315 68.5078 64.3381 68.9587C64.2636 69.0426 64.3593 69.1579 64.4231 69.1999C64.5507 69.2837 64.7527 69.3257 64.9016 69.3362C65.2099 69.3572 65.6564 69.3467 65.8797 69.095C66.1349 68.8014 66.3688 68.4763 66.6771 68.2456C66.7196 68.2142 66.7622 68.1827 66.8047 68.1617C66.8047 68.1617 66.8897 68.1093 66.8366 68.1407C66.8685 68.1198 66.911 68.1093 66.9535 68.0883C67.0811 68.0254 66.8897 68.0778 67.0386 68.0569C66.9748 68.0569 66.8791 68.0464 66.826 68.0569C66.7834 68.0254 66.7941 68.0569 66.826 68.0569C66.8578 68.0988 66.9216 68.1198 66.9535 68.1512C67.6127 68.7804 67.2512 69.9549 66.9004 70.6574C66.709 71.0454 66.4538 71.4125 66.1455 71.727C66.0286 71.8529 65.8903 71.9577 65.7521 72.0521C65.6139 72.1465 65.7947 72.0311 65.7096 72.0836C65.6671 72.1046 65.6245 72.1255 65.582 72.136C65.4757 72.1884 65.5607 72.1465 65.582 72.136C65.5288 72.157 65.4757 72.1675 65.4225 72.178C65.4757 72.1675 65.5926 72.136 65.4225 72.178C65.3056 72.1884 65.6245 72.178 65.4438 72.178C65.4651 72.178 65.6352 72.1989 65.497 72.178C65.6883 72.2094 65.5501 72.1884 65.5076 72.178C65.4119 72.1465 65.6458 72.2409 65.5076 72.178C65.4757 72.1675 65.4438 72.157 65.4119 72.136C65.38 72.115 65.3162 72.0626 65.295 72.0521C65.0292 71.8005 65.0185 71.423 65.0929 71.0664C65.1886 70.6155 65.3694 70.1541 65.5608 69.7347C65.7628 69.2837 66.0179 68.8328 66.3794 68.4868C66.6239 68.2561 66.3156 68.1093 66.0817 68.0569C65.7946 68.0044 65.2312 67.9625 64.9973 68.1932H64.976Z" fill="#989DFF"/>
</svg>
