<svg width="73" height="16" viewBox="0 0 73 16" fill="none" xmlns="http://www.w3.org/2000/svg">
<path d="M30.2365 12.2648H28.336L26.4768 5.22292L24.6011 12.2648H22.6585L20.1045 3.1121H21.8296L23.6717 10.3958L25.6813 3.1121H27.423L29.3155 10.4376L31.0656 3.1121H32.7319L30.2365 12.2648ZM35.1686 3.77953C35.1686 4.02018 35.0835 4.21467 34.9131 4.37762L34.8923 4.39694C34.7164 4.56382 34.4988 4.64726 34.2393 4.64726C33.9798 4.64726 33.762 4.56382 33.586 4.39694C33.4102 4.23016 33.3181 4.02985 33.3181 3.77953C33.3181 3.5292 33.4102 3.32065 33.5861 3.14548C33.7702 2.9786 33.9879 2.89516 34.2391 2.89516C34.5072 2.89516 34.7248 2.97856 34.9007 3.15372C35.0695 3.32207 35.161 3.52096 35.1682 3.75069L35.1686 3.77953ZM33.4437 12.2648V5.67355H34.9844V12.2648H33.4437ZM42.4787 12.2648H40.9296V8.59358C40.9296 7.63406 40.6281 6.79971 39.6568 6.79971C38.6854 6.79971 38.0742 7.66745 38.0742 8.54357V12.2647H36.567V5.67355H38.0742V6.59968H38.0993C38.6017 5.82371 39.3219 5.55677 40.2681 5.55677C40.9798 5.55677 41.5242 5.73194 41.9177 6.18243C42.3112 6.63306 42.4787 7.31711 42.4787 8.24324V12.2648ZM48.5075 12.2648V11.4139H48.4824C48.0052 12.2147 47.0254 12.3984 46.3472 12.3984C44.3208 12.3984 43.5756 10.8297 43.5756 9.16113C43.5756 8.0514 43.8519 7.167 44.4045 6.5079C44.9656 5.84033 45.7108 5.54839 46.6402 5.54839C48.0889 5.54839 48.4824 6.34936 48.4824 6.34936H48.5075V2.53631H50.0734V12.2648H48.5075ZM48.5243 8.50194C48.5243 7.70921 48.0135 6.79999 46.925 6.79999C45.6857 6.79999 45.2 7.87614 45.2 9.11936C45.2 10.204 45.6522 11.1802 46.8329 11.1968C47.9768 11.1968 48.4971 10.1174 48.5155 9.21355L48.5243 8.50194ZM57.9696 8.93581C57.9696 11.2219 56.5964 12.4566 54.5448 12.4566C52.3092 12.4566 51.162 11.1218 51.162 9.07759C51.162 6.74146 52.5352 5.52339 54.7122 5.52339C56.6969 5.52339 57.9696 6.79147 57.9696 8.93581ZM56.3618 8.98582C56.3618 7.96792 56.0018 6.84162 54.6203 6.84162C53.2971 6.84162 52.7781 7.82613 52.7781 9.02759C52.7781 10.3374 53.3976 11.1634 54.6034 11.1634C55.8966 11.1634 56.3446 10.1903 56.3614 9.02134L56.3618 8.98582ZM66.2593 12.2647H64.5595L63.2616 7.49242L61.8632 12.2648H60.2136L58.2878 5.69017H59.9039L61.16 10.7963L62.6336 5.69017H64.1492L65.4637 10.7881L66.6864 5.69017H68.1685L66.2593 12.2647ZM73 10.4294C73 11.8979 71.6602 12.4735 70.3205 12.4735C69.4497 12.4735 68.5788 12.1397 68.5788 12.1397V10.5795L68.6093 10.6048C68.7603 10.7256 69.4565 11.2397 70.3875 11.2469C71.1076 11.2469 71.4341 11.0218 71.4341 10.5879C71.4505 10.2465 71.2521 10.0556 71.0096 9.91479L70.9497 9.88098C70.7744 9.7838 70.5187 9.65907 70.1698 9.51999C69.7344 9.33644 69.4077 9.15289 69.1984 8.97758C68.9891 8.80227 68.83 8.60224 68.7295 8.36854C68.629 8.13499 68.5537 7.87628 68.5537 7.56757C68.5537 6.38274 69.5502 5.54029 71.1327 5.54029C72.1795 5.54029 72.6316 5.79885 72.6316 5.79885V7.26725L72.5981 7.24508C72.4448 7.14606 71.7901 6.74998 71.116 6.74998C70.5633 6.74998 70.1446 6.9503 70.1363 7.40917C70.1363 7.99306 70.8563 8.28515 71.2835 8.45194C71.8949 8.69572 72.3477 8.95528 72.6029 9.25376L72.6232 9.27791C72.8842 9.5869 72.9943 9.88794 72.9997 10.3894L73 10.4294ZM0 0H7.30998V7.28373H0V0ZM8.11384 0H15.4238V7.28373H8.11384V0ZM0 8.08469H7.30998V15.3684H0V8.08469ZM8.11384 8.08469H15.4238V15.3684H8.11384V8.08469Z" fill="#757575"/>
</svg>
