<svg width="60" height="31" viewBox="0 0 60 31" fill="none" xmlns="http://www.w3.org/2000/svg">
<path d="M54.28 6.13868C48.9479 3.98707 42.8675 3.47255 37.3249 5.22658C34.3549 5.97497 33.1388 1.55482 36.1089 0.712881C42.7038 -0.620182 50.3044 -0.386311 55.7534 4.05723C56.8759 5.06288 55.5897 6.84029 54.28 6.13868Z" fill="#A5CBFF"/>
<path d="M1.63385 4.08291C5.44582 0.598239 10.7312 -0.12675 15.6891 0.0369599C18.0511 0.387766 22.8219 -0.126757 22.4009 3.42808C21.4889 6.86598 17.6535 4.38695 15.3149 4.34017C11.2457 3.73211 6.94258 4.57404 3.20076 6.0942C1.89113 6.84259 0.558097 5.11194 1.65726 4.08291H1.63385Z" fill="#A5CBFF"/>
<path d="M31.7334 13.3535H56.6895C57.7628 13.3536 58.6474 14.2313 58.6475 15.332V27.1641C58.6474 28.2649 57.7629 29.1425 56.6895 29.1426H31.7334C30.6599 29.1426 29.7754 28.2649 29.7754 27.1641V15.332C29.7755 14.2313 30.66 13.3535 31.7334 13.3535Z" stroke="#846DF2" stroke-width="2.70677"/>
<path d="M3.18555 13.3535H16.6641C17.6188 13.3535 18.496 14.181 18.4961 15.332V27.1641C18.4961 28.3151 17.6188 29.1426 16.6641 29.1426H3.18555C2.23082 29.1426 1.35354 28.3152 1.35352 27.1641V15.332C1.35361 14.181 2.23086 13.3535 3.18555 13.3535Z" stroke="#846DF2" stroke-width="2.70677"/>
<path d="M54.6466 20H42.3534C41.6059 20 41 20.6059 41 21.3534V28.6466C41 29.3941 41.6059 30 42.3534 30H54.6466C55.3941 30 56 29.3941 56 28.6466V21.3534C56 20.6059 55.3941 20 54.6466 20Z" fill="#846DF2"/>
<path d="M17.6466 21H10.3534C9.60593 21 9 21.6059 9 22.3534V28.6466C9 29.3941 9.60593 30 10.3534 30H17.6466C18.3941 30 19 29.3941 19 28.6466V22.3534C19 21.6059 18.3941 21 17.6466 21Z" fill="#846DF2"/>
</svg>
