<svg width="160" height="80" viewBox="0 0 160 80" fill="none" xmlns="http://www.w3.org/2000/svg">
<path d="M20.3705 8.70336C21.8424 3.55174 26.551 0 31.9088 0H120.228C140.159 0 154.549 19.0771 149.074 38.2416L139.63 71.2966C138.158 76.4483 133.449 80 128.091 80H39.7719C19.8405 80 5.45061 60.9229 10.9262 41.7584L20.3705 8.70336Z" fill="#BAF0B9"/>
<path d="M73.0822 22.3157V26.3477L56.3942 61.1797H50.6822L67.9862 25.8437L68.5462 26.9637H46.5382V22.3157H73.0822Z" fill="#2E2E33"/>
<path d="M85.4479 35.1491C84.3466 35.1491 83.3293 34.8971 82.3959 34.3931C81.4626 33.8705 80.7159 33.1425 80.1559 32.2091C79.6146 31.2571 79.3439 30.1558 79.3439 28.9051C79.3439 27.6731 79.6146 26.5531 80.1559 25.5451C80.7159 24.5185 81.5093 23.7065 82.5359 23.1091C83.5626 22.5118 84.7479 22.2131 86.0919 22.2131C87.6039 22.2131 88.9199 22.5771 90.0399 23.3051C91.1786 24.0331 92.0653 25.1158 92.6999 26.5531C93.3346 27.9718 93.6519 29.6798 93.6519 31.6771C93.6519 33.9545 93.2506 35.8865 92.4479 37.4731C91.6639 39.0411 90.6093 40.2265 89.2839 41.0291C87.9586 41.8318 86.4839 42.2331 84.8599 42.2331C83.8706 42.2331 82.9653 42.0931 82.1439 41.8131C81.3226 41.5331 80.6693 41.1878 80.1839 40.7771L81.4159 38.0611C81.9013 38.3971 82.4239 38.6491 82.9839 38.8171C83.5439 38.9851 84.1413 39.0691 84.7759 39.0691C85.8586 39.0691 86.8106 38.7985 87.6319 38.2571C88.4533 37.6971 89.0973 36.8571 89.5639 35.7371C90.0306 34.6171 90.2639 33.2265 90.2639 31.5651C90.2639 30.8558 90.2173 30.2491 90.1239 29.7451L91.1879 29.4651C91.1693 30.5851 90.9079 31.5838 90.4039 32.4611C89.8999 33.3198 89.2186 33.9825 88.3599 34.4491C87.5013 34.9158 86.5306 35.1491 85.4479 35.1491ZM86.1199 25.3771C85.4293 25.3771 84.8319 25.5358 84.3279 25.8531C83.8239 26.1518 83.4319 26.5625 83.1519 27.0851C82.8906 27.6078 82.7599 28.2051 82.7599 28.8771C82.7599 29.5678 82.9093 30.1745 83.2079 30.6971C83.5066 31.2198 83.9173 31.6211 84.4399 31.9011C84.9626 32.1625 85.5413 32.2931 86.1759 32.2931C86.9599 32.2931 87.6599 32.0785 88.2759 31.6491C88.8919 31.2011 89.3213 30.6131 89.5639 29.8851C89.8066 29.1571 89.7786 28.3825 89.4799 27.5611C89.1439 26.8518 88.6959 26.3105 88.1359 25.9371C87.5759 25.5638 86.9039 25.3771 86.1199 25.3771ZM99.5269 22.5211L104.903 30.5011H103.755L109.075 22.5211H112.995L106.107 32.6291L106.079 31.5091L113.219 41.9531H109.271L103.783 33.7211H104.847L99.3029 41.9531H95.3829L102.523 31.5091L102.551 32.6851L95.6349 22.5211H99.5269ZM118.394 22.5211L123.77 30.5011H122.622L127.942 22.5211H131.862L124.974 32.6291L124.946 31.5091L132.086 41.9531H128.138L122.65 33.7211H123.714L118.17 41.9531H114.25L121.39 31.5091L121.418 32.6851L114.502 22.5211H118.394Z" fill="#2E2E33"/>
<path d="M25.1406 50.48H41.9806V53.52H25.1406V50.48ZM35.1806 60.4H31.9406V43.72H35.1806V60.4Z" fill="#2E2E33"/>
</svg>
