<svg width="160" height="80" viewBox="0 0 160 80" fill="none" xmlns="http://www.w3.org/2000/svg">
<path d="M20.3705 8.70336C21.8424 3.55174 26.551 0 31.9088 0H120.228C140.159 0 154.549 19.0771 149.074 38.2416L139.63 71.2966C138.158 76.4483 133.449 80 128.091 80H39.7719C19.8405 80 5.45061 60.9229 10.9262 41.7584L20.3705 8.70336Z" fill="#FFA5BE"/>
<path d="M73.0822 22.3157V26.3477L56.3942 61.1797H50.6822L67.9862 25.8437L68.5462 26.9637H46.5382V22.3157H73.0822Z" fill="black"/>
<path d="M99.796 37.5571H84.732V34.4491L93.16 22.2691H97.136V41.9531H93.804V36.4371L93.944 35.5971V25.0131L94.504 25.1251L87.42 35.5131L86.888 34.5891H99.796V37.5571ZM107.678 35.1491C106.577 35.1491 105.56 34.8971 104.626 34.3931C103.693 33.8705 102.946 33.1425 102.386 32.2091C101.845 31.2571 101.574 30.1558 101.574 28.9051C101.574 27.6731 101.845 26.5531 102.386 25.5451C102.946 24.5185 103.74 23.7065 104.766 23.1091C105.793 22.5118 106.978 22.2131 108.322 22.2131C109.834 22.2131 111.15 22.5771 112.27 23.3051C113.409 24.0331 114.296 25.1158 114.93 26.5531C115.565 27.9718 115.882 29.6798 115.882 31.6771C115.882 33.9545 115.481 35.8865 114.678 37.4731C113.894 39.0411 112.84 40.2265 111.514 41.0291C110.189 41.8318 108.714 42.2331 107.09 42.2331C106.101 42.2331 105.196 42.0931 104.374 41.8131C103.553 41.5331 102.9 41.1878 102.414 40.7771L103.646 38.0611C104.132 38.3971 104.654 38.6491 105.214 38.8171C105.774 38.9851 106.372 39.0691 107.006 39.0691C108.089 39.0691 109.041 38.7985 109.862 38.2571C110.684 37.6971 111.328 36.8571 111.794 35.7371C112.261 34.6171 112.494 33.2265 112.494 31.5651C112.494 30.8558 112.448 30.2491 112.354 29.7451L113.418 29.4651C113.4 30.5851 113.138 31.5838 112.634 32.4611C112.13 33.3198 111.449 33.9825 110.59 34.4491C109.732 34.9158 108.761 35.1491 107.678 35.1491ZM108.35 25.3771C107.66 25.3771 107.062 25.5358 106.558 25.8531C106.054 26.1518 105.662 26.5625 105.382 27.0851C105.121 27.6078 104.99 28.2051 104.99 28.8771C104.99 29.5678 105.14 30.1745 105.438 30.6971C105.737 31.2198 106.148 31.6211 106.67 31.9011C107.193 32.1625 107.772 32.2931 108.406 32.2931C109.19 32.2931 109.89 32.0785 110.506 31.6491C111.122 31.2011 111.552 30.6131 111.794 29.8851C112.037 29.1571 112.009 28.3825 111.71 27.5611C111.374 26.8518 110.926 26.3105 110.366 25.9371C109.806 25.5638 109.134 25.3771 108.35 25.3771ZM130.607 22.5211V25.6291H122.319L122.795 25.2371L122.403 30.3051L121.927 29.9691H122.039C122.357 29.9131 122.683 29.8758 123.019 29.8571C123.355 29.8198 123.738 29.8011 124.167 29.8011C125.455 29.8011 126.631 30.0345 127.695 30.5011C128.778 30.9491 129.637 31.6398 130.271 32.5731C130.925 33.4878 131.251 34.5891 131.251 35.8771C131.251 37.2398 130.915 38.3971 130.243 39.3491C129.571 40.3011 128.675 41.0198 127.555 41.5051C126.435 41.9905 125.194 42.2331 123.831 42.2331C122.618 42.2331 121.442 42.0838 120.303 41.7851C119.183 41.4678 118.269 41.0478 117.559 40.5251L118.931 37.7251C119.585 38.0985 120.303 38.4065 121.087 38.6491C121.871 38.8918 122.711 39.0131 123.607 39.0131C124.391 39.0131 125.101 38.9011 125.735 38.6771C126.37 38.4345 126.874 38.0798 127.247 37.6131C127.639 37.1278 127.835 36.5398 127.835 35.8491C127.835 34.7478 127.369 33.9451 126.435 33.4411C125.502 32.9185 124.289 32.6571 122.795 32.6571C122.161 32.6571 121.526 32.6945 120.891 32.7691C120.275 32.8438 119.669 32.9465 119.071 33.0771L119.911 22.5211H130.607Z" fill="black"/>
<path d="M25.1406 52.48H41.9806V55.52H25.1406V52.48ZM35.1806 62.4H31.9406V45.72H35.1806V62.4Z" fill="black"/>
</svg>
