<svg width="160" height="80" viewBox="0 0 160 80" fill="none" xmlns="http://www.w3.org/2000/svg">
<path d="M20.3705 8.70336C21.8424 3.55174 26.551 0 31.9088 0H120.228C140.159 0 154.549 19.0771 149.074 38.2416L139.63 71.2966C138.158 76.4483 133.449 80 128.091 80H39.7719C19.8405 80 5.45061 60.9229 10.9262 41.7584L20.3705 8.70336Z" fill="#D8EA00"/>
<path d="M58.6058 40.2917C60.1364 40.777 61.4991 41.4677 62.6938 42.3637C63.8884 43.2224 64.8218 44.3237 65.4938 45.6677C66.2031 47.0117 66.5578 48.561 66.5578 50.3157C66.5578 52.593 65.9231 54.609 64.6538 56.3637C63.4218 58.081 61.7231 59.4064 59.5578 60.3397C57.4298 61.2357 55.0591 61.6837 52.4458 61.6837C49.8324 61.6837 47.4618 61.2357 45.3338 60.3397C43.2058 59.4064 41.5071 58.081 40.2378 56.3637C39.0058 54.609 38.3898 52.593 38.3898 50.3157C38.3898 48.5984 38.7258 47.0677 39.3978 45.7237C40.1071 44.3797 41.0591 43.2597 42.2538 42.3637C43.4484 41.4304 44.8111 40.7397 46.3418 40.2917C45.0351 39.8064 43.9151 39.153 42.9818 38.3317C42.0858 37.473 41.3951 36.5024 40.9098 35.4197C40.4618 34.2997 40.2378 33.0864 40.2378 31.7797C40.2378 29.8757 40.7604 28.177 41.8058 26.6837C42.8511 25.153 44.2884 23.9584 46.1178 23.0997C47.9844 22.241 50.0938 21.8117 52.4458 21.8117C54.7978 21.8117 56.9071 22.241 58.7738 23.0997C60.6404 23.9584 62.0964 25.153 63.1418 26.6837C64.1871 28.177 64.7098 29.8757 64.7098 31.7797C64.7098 33.1237 64.4671 34.3557 63.9818 35.4757C63.4964 36.5957 62.7871 37.5664 61.8538 38.3877C60.9578 39.1717 59.8751 39.8064 58.6058 40.2917ZM45.3898 32.3957C45.3898 33.5157 45.7071 34.5424 46.3418 35.4757C47.0138 36.3717 47.8911 37.081 48.9738 37.6037C50.0564 38.1264 51.2138 38.3877 52.4458 38.3877C53.7151 38.3877 54.8911 38.1264 55.9738 37.6037C57.0564 37.081 57.9151 36.3717 58.5498 35.4757C59.2218 34.5424 59.5578 33.5157 59.5578 32.3957C59.5578 30.641 58.9044 29.2224 57.5978 28.1397C56.2911 27.057 54.5738 26.5157 52.4458 26.5157C50.3551 26.5157 48.6564 27.057 47.3498 28.1397C46.0431 29.2224 45.3898 30.641 45.3898 32.3957ZM52.4458 56.9797C54.1258 56.9797 55.6378 56.6997 56.9818 56.1397C58.3631 55.5424 59.4458 54.7024 60.2298 53.6197C61.0138 52.537 61.4058 51.2864 61.4058 49.8677C61.4058 48.4864 60.9951 47.273 60.1738 46.2277C59.3898 45.145 58.3071 44.305 56.9258 43.7077C55.5818 43.1104 54.0884 42.8117 52.4458 42.8117C50.8031 42.8117 49.2911 43.1104 47.9098 43.7077C46.5658 44.305 45.5018 45.145 44.7178 46.2277C43.9338 47.273 43.5418 48.4864 43.5418 49.8677C43.5418 51.2864 43.9338 52.537 44.7178 53.6197C45.5018 54.7024 46.5658 55.5424 47.9098 56.1397C49.2538 56.6997 50.7658 56.9797 52.4458 56.9797Z" fill="#2E2E33"/>
<path d="M84.8733 31.4811C85.6013 31.7425 86.2453 32.0878 86.8053 32.5171C87.3839 32.9465 87.8319 33.4971 88.1493 34.1691C88.4853 34.8225 88.6533 35.5785 88.6533 36.4371C88.6533 37.5758 88.3359 38.5931 87.7013 39.4891C87.0853 40.3665 86.2173 41.0478 85.0973 41.5331C83.9959 41.9998 82.7546 42.2331 81.3733 42.2331C80.0106 42.2331 78.7786 41.9998 77.6773 41.5331C76.5946 41.0478 75.7359 40.3665 75.1013 39.4891C74.4666 38.5931 74.1493 37.5758 74.1493 36.4371C74.1493 35.5785 74.3173 34.8225 74.6533 34.1691C74.9893 33.5158 75.4373 32.9651 75.9973 32.5171C76.5573 32.0691 77.2013 31.7238 77.9293 31.4811C77.3133 31.2571 76.7813 30.9491 76.3333 30.5571C75.9039 30.1465 75.5679 29.6705 75.3253 29.1291C75.1013 28.5691 74.9893 27.9531 74.9893 27.2811C74.9893 26.3291 75.2599 25.4705 75.8013 24.7051C76.3613 23.9398 77.1266 23.3425 78.0973 22.9131C79.0679 22.4651 80.1599 22.2411 81.3733 22.2411C82.6053 22.2411 83.7066 22.4651 84.6773 22.9131C85.6666 23.3425 86.4319 23.9398 86.9733 24.7051C87.5333 25.4705 87.8133 26.3291 87.8133 27.2811C87.8133 27.9531 87.6919 28.5691 87.4493 29.1291C87.2066 29.6705 86.8613 30.1465 86.4133 30.5571C85.9839 30.9491 85.4706 31.2571 84.8733 31.4811ZM78.3213 27.7291C78.3213 28.2331 78.4613 28.6905 78.7413 29.1011C79.0213 29.4931 79.3946 29.8011 79.8613 30.0251C80.3279 30.2491 80.8319 30.3611 81.3733 30.3611C81.9333 30.3611 82.4466 30.2491 82.9133 30.0251C83.3986 29.8011 83.7813 29.4931 84.0613 29.1011C84.3413 28.6905 84.4813 28.2331 84.4813 27.7291C84.4813 26.9825 84.1919 26.3665 83.6133 25.8811C83.0346 25.3958 82.2879 25.1531 81.3733 25.1531C80.4773 25.1531 79.7399 25.3958 79.1613 25.8811C78.6013 26.3665 78.3213 26.9825 78.3213 27.7291ZM81.3733 39.2651C82.1013 39.2651 82.7546 39.1345 83.3333 38.8731C83.9119 38.6118 84.3693 38.2478 84.7053 37.7811C85.0413 37.2958 85.2093 36.7451 85.2093 36.1291C85.2093 35.5318 85.0413 34.9998 84.7053 34.5331C84.3693 34.0665 83.9026 33.7025 83.3053 33.4411C82.7266 33.1611 82.0826 33.0211 81.3733 33.0211C80.6826 33.0211 80.0479 33.1611 79.4693 33.4411C78.8906 33.7025 78.4333 34.0665 78.0973 34.5331C77.7613 34.9998 77.5933 35.5318 77.5933 36.1291C77.5933 36.7451 77.7613 37.2958 78.0973 37.7811C78.4333 38.2478 78.8813 38.6118 79.4413 38.8731C80.0199 39.1345 80.6639 39.2651 81.3733 39.2651ZM106.12 32.2371C106.12 34.2345 105.84 35.9891 105.28 37.5011C104.72 38.9945 103.87 40.1611 102.732 41.0011C101.612 41.8225 100.258 42.2331 98.6716 42.2331C97.0663 42.2331 95.7036 41.8225 94.5836 41.0011C93.4636 40.1611 92.6143 38.9945 92.0356 37.5011C91.4756 35.9891 91.1956 34.2345 91.1956 32.2371C91.1956 30.2211 91.4756 28.4665 92.0356 26.9731C92.6143 25.4611 93.4543 24.2945 94.5556 23.4731C95.6756 22.6331 97.0476 22.2131 98.6716 22.2131C100.277 22.2131 101.64 22.6331 102.76 23.4731C103.88 24.2945 104.72 25.4611 105.28 26.9731C105.84 28.4665 106.12 30.2211 106.12 32.2371ZM94.6396 32.2371C94.6396 33.6371 94.7796 34.8505 95.0596 35.8771C95.3396 36.8851 95.7783 37.6691 96.3756 38.2291C96.9729 38.7891 97.7383 39.0691 98.6716 39.0691C99.6049 39.0691 100.37 38.7891 100.968 38.2291C101.565 37.6691 101.994 36.8851 102.256 35.8771C102.536 34.8505 102.676 33.6371 102.676 32.2371C102.676 30.8185 102.536 29.6051 102.256 28.5971C101.994 27.5705 101.565 26.7771 100.968 26.2171C100.37 25.6571 99.6049 25.3771 98.6716 25.3771C97.7383 25.3771 96.9729 25.6571 96.3756 26.2171C95.7783 26.7771 95.3396 27.5705 95.0596 28.5971C94.7796 29.6051 94.6396 30.8185 94.6396 32.2371ZM124.084 32.2371C124.084 34.2345 123.804 35.9891 123.244 37.5011C122.684 38.9945 121.835 40.1611 120.696 41.0011C119.576 41.8225 118.223 42.2331 116.636 42.2331C115.031 42.2331 113.668 41.8225 112.548 41.0011C111.428 40.1611 110.579 38.9945 110 37.5011C109.44 35.9891 109.16 34.2345 109.16 32.2371C109.16 30.2211 109.44 28.4665 110 26.9731C110.579 25.4611 111.419 24.2945 112.52 23.4731C113.64 22.6331 115.012 22.2131 116.636 22.2131C118.242 22.2131 119.604 22.6331 120.724 23.4731C121.844 24.2945 122.684 25.4611 123.244 26.9731C123.804 28.4665 124.084 30.2211 124.084 32.2371ZM112.604 32.2371C112.604 33.6371 112.744 34.8505 113.024 35.8771C113.304 36.8851 113.743 37.6691 114.34 38.2291C114.938 38.7891 115.703 39.0691 116.636 39.0691C117.57 39.0691 118.335 38.7891 118.932 38.2291C119.53 37.6691 119.959 36.8851 120.22 35.8771C120.5 34.8505 120.64 33.6371 120.64 32.2371C120.64 30.8185 120.5 29.6051 120.22 28.5971C119.959 27.5705 119.53 26.7771 118.932 26.2171C118.335 25.6571 117.57 25.3771 116.636 25.3771C115.703 25.3771 114.938 25.6571 114.34 26.2171C113.743 26.7771 113.304 27.5705 113.024 28.5971C112.744 29.6051 112.604 30.8185 112.604 32.2371Z" fill="#2E2E33"/>
<path d="M99.488 53.286C99.98 53.442 100.418 53.664 100.802 53.952C101.186 54.228 101.486 54.582 101.702 55.014C101.93 55.446 102.044 55.944 102.044 56.508C102.044 57.24 101.84 57.888 101.432 58.452C101.036 59.004 100.49 59.43 99.794 59.73C99.11 60.018 98.348 60.162 97.508 60.162C96.668 60.162 95.906 60.018 95.222 59.73C94.538 59.43 93.992 59.004 93.584 58.452C93.188 57.888 92.99 57.24 92.99 56.508C92.99 55.956 93.098 55.464 93.314 55.032C93.542 54.6 93.848 54.24 94.232 53.952C94.616 53.652 95.054 53.43 95.546 53.286C95.126 53.13 94.766 52.92 94.466 52.656C94.178 52.38 93.956 52.068 93.8 51.72C93.656 51.36 93.584 50.97 93.584 50.55C93.584 49.938 93.752 49.392 94.088 48.912C94.424 48.42 94.886 48.036 95.474 47.76C96.074 47.484 96.752 47.346 97.508 47.346C98.264 47.346 98.942 47.484 99.542 47.76C100.142 48.036 100.61 48.42 100.946 48.912C101.282 49.392 101.45 49.938 101.45 50.55C101.45 50.982 101.372 51.378 101.216 51.738C101.06 52.098 100.832 52.41 100.532 52.674C100.244 52.926 99.896 53.13 99.488 53.286ZM95.24 50.748C95.24 51.108 95.342 51.438 95.546 51.738C95.762 52.026 96.044 52.254 96.392 52.422C96.74 52.59 97.112 52.674 97.508 52.674C97.916 52.674 98.294 52.59 98.642 52.422C98.99 52.254 99.266 52.026 99.47 51.738C99.686 51.438 99.794 51.108 99.794 50.748C99.794 50.184 99.584 49.728 99.164 49.38C98.744 49.032 98.192 48.858 97.508 48.858C96.836 48.858 96.29 49.032 95.87 49.38C95.45 49.728 95.24 50.184 95.24 50.748ZM97.508 58.65C98.048 58.65 98.534 58.56 98.966 58.38C99.41 58.188 99.758 57.918 100.01 57.57C100.262 57.222 100.388 56.82 100.388 56.364C100.388 55.92 100.256 55.53 99.992 55.194C99.74 54.846 99.392 54.576 98.948 54.384C98.516 54.192 98.036 54.096 97.508 54.096C96.98 54.096 96.494 54.192 96.05 54.384C95.618 54.576 95.276 54.846 95.024 55.194C94.772 55.53 94.646 55.92 94.646 56.364C94.646 56.82 94.772 57.222 95.024 57.57C95.276 57.918 95.618 58.188 96.05 58.38C96.482 58.56 96.968 58.65 97.508 58.65ZM113.095 53.754C113.095 55.026 112.921 56.142 112.573 57.102C112.225 58.062 111.703 58.812 111.007 59.352C110.311 59.892 109.465 60.162 108.469 60.162C107.473 60.162 106.627 59.892 105.931 59.352C105.235 58.812 104.713 58.062 104.365 57.102C104.017 56.142 103.843 55.026 103.843 53.754C103.843 52.47 104.017 51.348 104.365 50.388C104.713 49.428 105.229 48.678 105.913 48.138C106.609 47.598 107.461 47.328 108.469 47.328C109.477 47.328 110.323 47.598 111.007 48.138C111.703 48.678 112.225 49.428 112.573 50.388C112.921 51.348 113.095 52.47 113.095 53.754ZM105.517 53.754C105.517 54.75 105.619 55.608 105.823 56.328C106.027 57.048 106.345 57.606 106.777 58.002C107.221 58.398 107.785 58.596 108.469 58.596C109.153 58.596 109.711 58.398 110.143 58.002C110.587 57.606 110.911 57.048 111.115 56.328C111.319 55.608 111.421 54.75 111.421 53.754C111.421 52.746 111.319 51.882 111.115 51.162C110.911 50.442 110.587 49.884 110.143 49.488C109.711 49.092 109.153 48.894 108.469 48.894C107.785 48.894 107.221 49.092 106.777 49.488C106.345 49.884 106.027 50.442 105.823 51.162C105.619 51.882 105.517 52.746 105.517 53.754ZM124.288 57.12H114.874V55.5L120.598 47.346H122.596V60H120.994V56.472V56.13V48.768H121.336L116.386 55.824L116.242 55.608H124.288V57.12Z" fill="#7D8800"/>
</svg>
