<svg width="328" height="154" viewBox="0 0 328 154" fill="none" xmlns="http://www.w3.org/2000/svg">
<path d="M1 47.9091C148 144.909 278.331 44.6923 220.357 7.76877C193.154 -9.55749 148.925 8.00927 148 41.9165C146.5 96.9062 330.903 84.2335 326.001 33.4136C325.44 27.6037 321.001 22.9159 314.881 24.8578C293.975 31.4927 277.639 121.483 270.057 145.359C269.35 147.587 268.742 149.319 268.07 148.931C265.234 147.29 264.958 139.427 263.508 135.245C260.949 127.86 264.633 148.188 266.041 152.142C267.572 151.398 270.262 148.456 275.481 142.981C279.006 139.53 284.313 134.713 290.758 129.299" stroke="#C6C6C6" stroke-width="2" stroke-linecap="round"/>
</svg>
