<svg width="676" height="439" viewBox="0 0 676 439" fill="none" xmlns="http://www.w3.org/2000/svg">
<path d="M248.599 79.5391H51.9766V145.04H248.599V79.5391Z" fill="#7AEDE3"/>
<path fill-rule="evenodd" clip-rule="evenodd" d="M327.056 331.643C334.325 327.671 342.945 322.944 350.214 319.012C350.81 318.694 351.406 318.376 352.081 318.297C352.994 318.217 353.829 318.615 354.703 318.933C361.535 321.713 369.598 321.395 376.192 318.098C376.828 317.781 377.503 317.423 378.218 317.463C378.774 317.463 379.29 317.781 379.767 318.059C390.333 324.057 401.932 330.174 412.458 336.172L425.407 307.135L437.284 274.325L432.915 267.453C432.915 267.453 430.492 270.393 426.281 273.531C421.197 277.384 413.808 281.753 409.002 284.097C400.303 288.347 385.248 297.364 381.356 298.237C377.463 299.111 368.843 300.541 360.422 298.555C352.001 296.569 348.387 294.98 338.655 292.12C328.923 289.26 319.589 285.407 319.589 285.407L313.789 282.428C313.789 282.428 314.147 286.162 315.299 289.737C316.45 293.312 319.509 308.287 319.509 308.287L326.977 331.564L327.056 331.643Z" fill="#846DF2"/>
<path d="M329.438 332.843C336.429 329.03 343.42 325.217 350.372 321.403C351.841 320.609 352.794 319.656 354.423 320.172C356.25 320.728 358.038 321.284 359.905 321.642C363.321 322.238 366.816 322.357 370.232 321.84C371.901 321.602 373.529 321.205 375.118 320.689C376.032 320.371 376.906 320.053 377.779 319.656C378.137 319.497 378.494 319.298 378.852 319.139C379.527 318.901 379.249 318.742 378.057 318.742C378.574 318.464 383.182 321.602 383.698 321.92C385.327 322.833 386.995 323.747 388.623 324.621C396.012 328.673 403.44 332.684 410.788 336.855C411.702 337.372 414.76 338.285 415.396 336.895C419.646 327.402 424.055 317.948 428.147 308.375C432.238 298.802 435.217 288.991 438.713 279.338C439.11 278.226 440.381 276.121 440.262 274.889C440.142 273.857 438.752 272.387 438.196 271.513L435.853 267.859C435.098 266.667 431.404 265.158 430.252 266.508C424.452 273.38 415.753 278.345 407.849 282.357C399.944 286.369 392.993 290.381 385.485 294.234C383.102 295.465 380.719 296.736 378.097 297.253C372.933 298.246 367.492 298.643 362.248 297.729C357.72 296.935 353.311 295.465 348.941 294.075C343.817 292.407 338.614 290.937 333.529 289.229C329.279 287.799 325.069 286.25 320.938 284.582C320.302 284.303 321.772 285.058 321.017 284.582C320.342 284.184 319.587 283.866 318.912 283.509L315.575 281.801C314.741 281.364 310.809 280.252 311.007 282.079C311.444 286.448 312.954 290.659 313.947 294.949C314.86 298.961 315.694 303.012 316.568 307.064C317.72 312.506 319.905 317.829 321.613 323.112C322.487 325.813 323.361 328.553 324.235 331.255C324.751 332.883 330.471 333.598 329.954 331.969C328.008 325.852 326.022 319.735 324.076 313.658C322.368 308.335 321.335 303.012 320.103 297.531C319.031 292.645 317.244 287.799 316.767 282.834L312.199 283.112C317.442 285.773 322.606 287.998 328.167 289.984C333.728 291.97 339.527 293.598 345.208 295.426C349.656 296.856 354.105 298.285 358.634 299.398C364.512 300.828 370.431 301.225 376.469 300.669C379.924 300.351 383.38 299.835 386.558 298.405C394.383 294.869 401.732 290.222 409.398 286.329C418.613 281.642 428.901 276.518 435.694 268.454L430.093 267.104L431.88 269.924C432.595 271.076 433.946 272.506 434.343 273.777C434.502 274.254 434.423 273.38 434.383 273.777C434.383 273.936 434.264 274.174 434.184 274.294C433.787 275.088 433.549 276.002 433.271 276.836L426.518 295.505C425.207 299.159 423.976 302.893 422.506 306.508C420.599 311.155 418.415 315.684 416.349 320.252C414.085 325.296 411.821 330.381 409.557 335.425H414.165C406.3 331.016 398.316 326.687 390.371 322.317C386.876 320.371 383.142 317.55 379.289 316.438C375.436 315.326 372.735 317.63 369.239 318.583C365.347 319.616 361.136 319.695 357.283 318.464C353.43 317.233 350.848 316.12 347.154 318.107C339.647 322.158 332.179 326.289 324.711 330.341C322.725 331.413 328.008 333.479 329.438 332.724V332.843Z" fill="#846DF2"/>
<path d="M337.512 180.349L310.449 182.261C308.152 182.423 306.421 184.417 306.583 186.715L307.162 194.917C307.324 197.215 309.319 198.946 311.616 198.784L338.679 196.872C340.977 196.71 342.708 194.716 342.546 192.418L341.966 184.216C341.804 181.918 339.81 180.187 337.512 180.349Z" fill="white"/>
<path d="M311.355 200.725C308.138 200.725 305.437 198.222 305.199 195.005L304.603 186.782C304.484 185.154 305 183.565 306.112 182.333C307.185 181.102 308.694 180.347 310.323 180.228L337.373 178.321C338.962 178.202 340.591 178.719 341.862 179.831C343.093 180.903 343.848 182.413 343.967 184.041L344.563 192.264C344.682 193.892 344.166 195.481 343.053 196.752C341.981 197.984 340.471 198.738 338.843 198.858L311.792 200.764C311.792 200.764 311.514 200.764 311.355 200.764V200.725ZM337.85 182.254C337.85 182.254 337.731 182.254 337.691 182.254L310.641 184.161C310.045 184.2 309.528 184.478 309.131 184.915C308.734 185.352 308.575 185.908 308.615 186.504L309.21 194.727C309.29 195.918 310.442 196.792 311.554 196.752L338.605 194.846C339.2 194.806 339.717 194.528 340.114 194.091C340.511 193.654 340.67 193.098 340.63 192.502L340.035 184.28C340.035 183.684 339.717 183.168 339.28 182.77C338.883 182.413 338.366 182.254 337.85 182.254Z" fill="#846DF2"/>
<path d="M331.813 180.741L315.211 181.914C314.292 181.979 313.599 182.776 313.664 183.695L314.107 189.956C314.171 190.875 314.969 191.567 315.888 191.502L332.49 190.33C333.409 190.265 334.102 189.467 334.037 188.548L333.595 182.288C333.53 181.369 332.732 180.676 331.813 180.741Z" fill="#846DF2"/>
<path d="M315.814 193.462C314.94 193.462 314.106 193.144 313.431 192.548C312.676 191.913 312.239 190.999 312.16 190.046L311.723 183.81C311.643 182.817 311.961 181.903 312.597 181.148C313.232 180.394 314.146 179.957 315.099 179.877L331.663 178.725C333.689 178.606 335.437 180.116 335.596 182.141L336.033 188.378C336.112 189.371 335.794 190.284 335.159 191.039C334.523 191.794 333.61 192.231 332.656 192.31L316.092 193.462C316.092 193.462 315.933 193.462 315.814 193.462ZM315.695 183.849L316.092 189.49L332.06 188.378L331.663 182.737L315.655 183.889L315.695 183.849Z" fill="#846DF2"/>
<path d="M408.989 174.066L383.551 175.862C381.253 176.025 379.522 178.019 379.684 180.317L380.353 189.787C380.516 192.084 382.51 193.815 384.808 193.653L410.246 191.857C412.543 191.694 414.274 189.7 414.112 187.402L413.443 177.932C413.281 175.635 411.287 173.903 408.989 174.066Z" fill="white"/>
<path d="M384.527 195.563C381.349 195.563 378.608 193.1 378.41 189.843L377.734 180.389C377.496 177.013 380.038 174.034 383.454 173.795L408.916 172.008C412.252 171.769 415.232 174.312 415.51 177.728L416.185 187.181C416.423 190.558 413.881 193.537 410.465 193.775L385.003 195.563C385.003 195.563 384.725 195.563 384.566 195.563H384.527ZM409.313 175.98C409.313 175.98 409.194 175.98 409.154 175.98L383.692 177.767C382.501 177.847 381.587 178.919 381.667 180.111L382.342 189.565C382.421 190.756 383.375 191.63 384.686 191.591L410.147 189.803C411.339 189.724 412.252 188.651 412.173 187.459L411.498 178.006C411.418 176.854 410.465 175.98 409.313 175.98Z" fill="#846DF2"/>
<path d="M404.945 89.8338C405.143 90.1913 405.382 90.509 405.58 90.8665L411.102 91.1843C402.879 80.7772 391.36 73.6273 378.689 69.8537C374.24 68.5031 369.036 67.1129 364.349 68.2251C359.304 69.4168 358.828 74.4615 361.092 78.5925C364.865 85.4644 372.889 89.9529 379.404 93.8456C385.918 97.7384 393.108 101.989 397.834 108.384C407.129 120.976 399.622 139.009 409.83 151.085C415.233 157.48 423.654 159.784 429.811 165.226C436.285 170.906 439.344 179.883 442.005 187.827C442.561 189.456 448.281 190.091 447.725 188.503C445.501 181.909 443.038 175.235 438.907 169.555C434.776 163.875 428.976 160.896 423.217 157.48C416.822 153.706 412.373 149.059 410.665 141.671C409.116 134.878 409.513 127.808 408.321 120.936C405.541 105.246 391.876 98.3342 379.602 90.5884C374.359 87.2518 365.223 81.7702 365.58 74.5409C365.779 70.4098 369.791 70.3701 372.969 70.9262C385.838 73.2301 397.795 81.1347 405.819 91.2637C406.534 92.1773 408.242 92.5348 409.314 92.5745C409.711 92.5745 411.896 92.5348 411.3 91.5815C411.102 91.224 410.863 90.9062 410.665 90.5487C409.989 89.4762 408.48 89.0393 407.288 88.9201C406.931 88.8804 404.309 88.8804 404.945 89.8735V89.8338Z" fill="#846DF2"/>
<path d="M374.243 68.337C371.065 64.7224 374.998 60.1544 378.97 60.0352C384.134 59.8763 389.735 61.7432 394.541 63.4512C403.995 66.7481 414.164 70.8395 421.671 77.6716C422.823 78.7441 428.543 78.1086 426.835 76.5594C421.949 72.1106 416.07 69.0917 410.112 66.4304C404.154 63.769 397.758 61.1871 391.284 59.5585C385.564 58.0888 378.732 56.5794 372.972 58.5258C368.92 59.8763 364.988 64.921 368.484 68.8932C369.318 69.8465 370.986 69.9259 372.138 69.8067C372.535 69.8067 375.038 69.2903 374.243 68.3767V68.337Z" fill="#846DF2"/>
<path d="M406.932 97.3368C414.48 89.1541 423.059 81.9645 432.434 75.9268C433.546 75.2118 432.116 74.457 431.441 74.2584C430.249 73.9406 428.462 73.8215 427.349 74.5365C417.737 80.6933 408.958 88.0816 401.212 96.4629C400.378 97.3368 402.801 97.9326 403.238 98.012C404.351 98.1709 406.098 98.2106 406.932 97.297V97.3368Z" fill="#846DF2"/>
<path d="M388.821 59.6347C387.589 51.7698 401.611 53.9942 405.742 54.7092C412.375 55.8214 418.93 58.0855 424.967 61.1044C437.48 67.3407 445.106 79.6147 453.408 90.3793C457.499 95.702 461.114 101.064 462.782 107.698C464.093 112.862 463.775 118.145 464.689 123.348C466.318 132.643 469.654 141.66 473.229 150.359C475.493 155.88 477.956 161.362 480.657 166.685C481.213 167.797 482.842 168.274 483.994 168.432C484.391 168.472 486.933 168.591 486.377 167.519C483.755 162.395 481.372 157.072 479.187 151.749C475.215 142.216 471.481 132.206 470.051 121.879C469.734 119.416 469.734 116.913 469.495 114.451C469.138 110.717 468.264 107.062 466.874 103.607C464.093 96.7745 459.128 91.0942 454.639 85.2949C450.151 79.4955 445.662 73.0209 440.181 67.8968C435.136 63.1699 429.059 59.9524 422.703 57.3308C415.077 54.1928 406.973 52.0081 398.711 51.4122C393.627 51.0548 381.79 50.6973 383.101 58.8403C383.339 60.4688 389.099 61.5016 388.821 59.6744V59.6347Z" fill="#846DF2"/>
<path d="M387.749 53.3201C381.433 49.5465 374.124 49.0699 366.934 49.2288C363.121 49.3082 359.308 49.5862 355.534 49.5068C351.244 49.3876 347.034 48.4343 342.744 48.1165C334.124 47.481 325.624 49.5465 317.401 51.8504C309.179 54.1542 301.91 57.1333 295.197 62.0986C288.921 66.746 283.002 72.2673 277.719 77.9873C272.436 83.7072 270.53 90.7379 268.981 98.2056C268.186 102.138 267.352 106.031 265.962 109.804C264.572 113.578 262.903 117.113 261.87 120.926C259.606 129.189 260.48 138.166 260.56 146.626C260.599 151.194 260.004 156.358 261.473 160.767C262.109 162.634 263.142 164.342 264.055 166.09C265.207 168.314 265.922 170.618 266.478 173.041C267.431 177.172 268.147 181.343 270.53 184.918C272.913 188.493 275.972 191.671 278.156 195.444C278.832 196.596 284.274 196.557 283.995 194.968C281.811 182.336 284.115 169.506 283.439 156.795C283.082 150.32 281.334 144.124 280.46 137.729C280.023 134.551 279.864 131.294 280.46 128.116C281.136 124.581 282.923 121.562 284.552 118.424C287.372 112.903 288.683 107.183 290.113 101.185C290.669 98.9206 291.384 96.577 292.814 94.7101C294.919 91.9693 297.342 92.5254 300.321 93.2404C306.2 94.6306 311.205 94.7101 316.806 92.2871C319.586 91.0954 322.208 89.586 325.346 89.9038C328.643 90.2215 331.82 91.4529 335.038 92.0488C338.255 92.6446 341.393 92.724 344.492 92.0488C348.146 91.2146 351.364 89.1093 355.177 90.2612C358.474 91.2543 361.532 92.446 365.028 92.6446C368.523 92.8432 371.979 92.2871 375.276 91.0954C376.468 90.6585 376.11 89.8641 375.236 89.4271C374.045 88.8313 372.217 89.1491 371.026 89.5463C364.432 91.8501 358.553 86.9644 351.88 87.4013C348.782 87.5999 346.001 88.8313 343.062 89.6654C339.646 90.6585 336.468 89.6655 333.171 88.8313C327.014 87.2822 321.374 87.0041 315.415 89.5066C312.754 90.6188 310.013 92.3665 307.034 92.009C304.055 91.6515 301.076 90.4599 297.978 90.2215C292.734 89.8243 287.809 91.731 285.584 96.7359C283.201 102.059 282.923 108.136 280.778 113.578C278.434 119.457 274.621 124.501 274.145 130.976C273.668 137.888 275.932 144.601 276.925 151.353C279.07 165.931 275.495 180.708 278.037 195.246L283.876 194.769C282.089 191.671 279.745 189.009 277.64 186.189C275.376 183.17 274.025 180.032 273.191 176.338C272.397 172.882 271.801 169.387 270.212 166.169C269.457 164.62 268.504 163.19 267.829 161.601C266.955 159.615 266.717 157.47 266.637 155.325C266.359 147.341 266.24 139.238 266.478 131.294C266.597 127.163 267.074 123.071 268.385 119.139C269.577 115.643 271.165 112.307 272.317 108.772C274.542 102.138 275.058 95.0279 277.441 88.4341C280.103 81.165 285.743 76.1998 291.304 71.0359C296.865 65.8721 302.625 61.0261 309.457 57.8484C316.726 54.5117 325.107 52.2476 333.012 51.0162C341.791 49.6657 350.49 52.2079 359.308 52.0093C367.173 51.8504 375.594 50.619 382.664 54.8295C383.816 55.5047 385.484 55.5048 386.756 55.1473C387.391 54.9487 388.94 54.1939 387.788 53.479L387.749 53.3201Z" fill="#846DF2"/>
<path d="M301.704 82.2022C306.828 84.665 312.985 85.2608 318.466 83.6322C319.737 83.235 318.466 82.0831 317.87 81.7653C316.719 81.1695 315.13 80.6531 313.819 81.0503C312.746 81.3681 312.071 81.527 310.999 81.6461C310.76 81.6461 310.562 81.6859 310.323 81.7256C310.244 81.7256 309.33 81.7653 309.807 81.7256C309.33 81.7256 308.814 81.7256 308.337 81.6859C308.218 81.6859 307.384 81.5667 308.02 81.6859C307.781 81.6859 307.583 81.6064 307.344 81.6064C307.066 81.5667 306.709 81.527 306.431 81.4476L306.748 81.527C306.748 81.527 306.47 81.4475 306.311 81.4078C306.073 81.3681 305.875 81.2886 305.636 81.2092C305.477 81.1695 305.358 81.1298 305.199 81.0503C305.596 81.1695 305.636 81.2092 305.318 81.0503C304.802 80.8517 304.325 80.6531 303.849 80.4148C303.213 80.097 302.3 79.9382 301.624 79.8984C301.227 79.8984 300.472 79.8984 300.115 80.2162C299.241 81.0503 301.267 82.0036 301.704 82.2022Z" fill="#846DF2"/>
<path d="M304.488 74.5678C307.587 75.5608 310.804 76.1567 314.021 76.395C314.776 76.4347 315.571 76.395 316.325 76.1964C316.842 76.0772 317.636 75.7992 317.994 75.402C318.232 75.1239 318.47 74.7664 318.153 74.4486C317.795 74.0911 317.16 73.972 316.683 73.9323C315.968 73.8926 315.213 73.8131 314.498 73.7337C314.26 73.7337 314.061 73.6542 313.823 73.6542C313.346 73.5748 314.3 73.7337 313.783 73.6542C313.426 73.5748 313.068 73.535 312.711 73.4556C311.241 73.1775 309.811 72.7803 308.381 72.3434C307.745 72.1448 306.872 72.2242 306.236 72.3037C305.6 72.3831 304.766 72.5818 304.21 72.9393C303.892 73.1379 303.416 73.4556 303.455 73.8925C303.495 74.3295 304.091 74.4884 304.448 74.6076L304.488 74.5678Z" fill="#846DF2"/>
<path d="M317.002 67.0624C320.219 67.976 323.516 68.6514 326.853 69.0883C327.568 69.1677 328.442 69.128 329.157 68.9691C329.554 68.8897 330.269 68.6513 330.507 68.2541C331.143 67.2213 328.918 66.8639 328.442 66.7844C328.044 66.7447 327.607 66.6652 327.21 66.6255C327.051 66.6255 326.853 66.5858 326.694 66.5461C326.614 66.5461 326.535 66.5461 326.416 66.5063C326.217 66.5063 326.297 66.5064 326.694 66.5461C326.336 66.4269 325.939 66.4269 325.582 66.3475C325.224 66.268 324.827 66.1886 324.469 66.1092C322.96 65.7914 321.49 65.4339 320.021 64.997C319.345 64.7984 318.432 64.7983 317.717 64.8777C317.2 64.9175 316.366 65.0763 315.929 65.4338C314.897 66.268 316.247 66.8638 317.002 67.0624Z" fill="#846DF2"/>
<path d="M338.771 68.3787C339.287 68.4185 339.803 68.4979 340.32 68.5774C341.114 68.6965 339.843 68.4582 340.439 68.5774C340.717 68.6171 340.995 68.6965 341.233 68.7362C341.71 68.8554 342.187 68.9746 342.624 69.0938C343.22 69.2526 342.187 68.9349 342.743 69.0938C343.021 69.1732 343.259 69.2526 343.537 69.3718C343.974 69.5307 344.451 69.6896 344.888 69.8882C344.967 69.8882 345.801 70.2854 345.245 70.047C345.444 70.1265 345.603 70.206 345.801 70.3251C346.715 70.7621 347.629 71.2784 348.503 71.8345C349.615 72.5098 351.442 72.7481 352.673 72.3509C353.031 72.2317 353.587 72.0729 353.627 71.6359C353.666 71.199 353.15 70.8812 352.872 70.6826C348.741 68.061 343.895 66.4721 339.009 65.9557C338.334 65.8763 337.539 65.8366 336.864 66.0352C336.546 66.1146 335.95 66.3529 335.911 66.7501C335.792 67.8226 338.095 68.2596 338.731 68.2993L338.771 68.3787Z" fill="#846DF2"/>
<path d="M326.216 79.2643C326.216 79.2643 326.574 79.2643 326.773 79.2643C327.09 79.2643 327.13 79.2643 326.971 79.2643C326.812 79.2643 326.852 79.2643 327.17 79.2643C327.368 79.2643 327.527 79.2643 327.726 79.304C328.282 79.3437 328.838 79.4232 329.394 79.5026C330.625 79.6615 331.817 79.8601 333.009 80.0985C333.843 80.2573 335.233 80.6149 336.226 80.8929C337.418 81.2107 338.57 81.6079 339.722 82.0051C340.953 82.4421 342.741 82.2037 343.932 81.6079C344.25 81.449 344.766 81.1313 344.727 80.6943C344.687 80.2574 344.131 80.0588 343.773 79.9396C338.53 78.1124 333.049 77.0796 327.527 76.8015C326.534 76.7618 324.469 76.9604 323.952 77.9932C323.436 79.026 325.66 79.2246 326.177 79.2643H326.216Z" fill="#846DF2"/>
<path d="M340.713 76.2006C340.951 76.2006 341.229 76.28 341.468 76.3198C341.666 76.3198 342.183 76.3198 341.468 76.3198C341.865 76.3198 342.342 76.5184 342.779 76.5978C343.215 76.717 343.652 76.7965 344.05 76.9156C344.248 76.9951 344.486 77.0347 344.685 77.1142C344.765 77.1142 344.884 77.1539 344.963 77.1936C344.645 77.0745 344.645 77.0745 344.884 77.1936C345.718 77.4717 346.552 77.7895 347.346 78.147C347.744 78.3456 348.141 78.5045 348.538 78.7031C348.697 78.7825 348.856 78.862 349.054 78.9414C349.253 79.0606 349.293 79.0606 349.054 78.9414C349.174 79.0208 349.293 79.0606 349.372 79.14C350.564 79.8153 352.113 79.9741 353.424 79.6564C353.901 79.5372 354.536 79.418 354.814 78.9811C355.013 78.6633 354.854 78.2661 354.536 78.0675C350.723 75.9225 346.592 74.572 342.262 73.9365C341.547 73.8173 340.673 73.857 339.958 74.0159C339.561 74.0953 338.846 74.2939 338.568 74.6912C337.932 75.6842 340.117 76.1212 340.634 76.2006H340.713Z" fill="#846DF2"/>
<path d="M349.06 127.242C354.582 128.196 360.341 127.957 365.744 126.567C366.3 126.408 368.405 125.852 367.69 124.899C367.015 124.025 364.83 124.184 363.956 124.422C363.4 124.581 362.844 124.7 362.248 124.819C361.93 124.899 361.652 124.938 361.334 125.018C361.215 125.018 360.421 125.177 361.056 125.058C360.54 125.137 359.984 125.216 359.467 125.256C359.189 125.256 358.951 125.296 358.673 125.336C358.474 125.336 358.316 125.336 358.117 125.336C357.799 125.336 357.759 125.336 357.958 125.336C358.315 125.336 357.521 125.336 357.402 125.336C357.084 125.336 356.766 125.336 356.449 125.336C355.893 125.336 355.376 125.336 354.82 125.256C355.336 125.256 354.502 125.256 354.463 125.256C354.185 125.256 353.946 125.216 353.668 125.177C353.033 125.097 352.437 125.018 351.801 124.899C350.61 124.7 348.743 124.899 347.789 125.733C346.796 126.646 348.306 127.123 349.021 127.242H349.06Z" fill="#846DF2"/>
<path d="M350.445 136.342C356.92 134.912 363.633 133.443 370.266 134.833C371.418 135.071 373.365 135.032 374.318 134.197C375.271 133.363 373.921 132.767 373.166 132.609C364.547 130.781 355.808 132.529 347.347 134.396C346.553 134.555 345.361 135.349 346.354 136.064C347.426 136.819 349.254 136.541 350.445 136.303V136.342Z" fill="#846DF2"/>
<path d="M402.616 175.766L388.906 176.734C387.987 176.799 387.295 177.597 387.36 178.516L387.802 184.776C387.867 185.695 388.664 186.388 389.584 186.323L403.293 185.355C404.212 185.29 404.905 184.492 404.84 183.573L404.398 177.312C404.333 176.393 403.535 175.701 402.616 175.766Z" fill="#846DF2"/>
<path d="M389.494 188.26C387.587 188.26 385.959 186.791 385.84 184.844L385.403 178.608C385.323 177.615 385.641 176.701 386.277 175.947C386.912 175.192 387.826 174.755 388.779 174.675L402.483 173.722C404.469 173.563 406.257 175.112 406.415 177.138L406.852 183.374C406.932 184.368 406.614 185.281 405.979 186.036C405.343 186.791 404.429 187.228 403.476 187.307L389.772 188.26C389.772 188.26 389.613 188.26 389.494 188.26ZM389.375 178.648L389.772 184.288L402.88 183.374L402.483 177.734L389.375 178.648Z" fill="#846DF2"/>
<path d="M268.144 170.659C263.457 169.587 259.922 171.97 259.922 176.935C259.922 181.543 261.193 186.31 263.1 190.52C265.006 194.731 267.707 198.226 270.766 201.563C273.825 204.899 277.201 208.435 278.949 212.883C279.425 214.075 284.708 215.545 284.708 213.916C284.708 208.991 284.629 204.065 284.311 199.14C283.993 193.857 282.285 189.607 278.114 186.27C277.121 185.475 275.294 185.039 274.023 185.277C272.871 185.515 272.712 186.19 273.626 186.905C277.519 190.004 278.392 194.572 278.631 199.338C278.869 203.708 278.949 208.117 278.949 212.526L284.708 213.559C281.809 206.21 275.056 201.682 270.965 195.128C268.82 191.712 267.31 187.938 266.436 184.006C265.999 182.02 265.681 179.954 265.721 177.928C265.721 176.975 265.84 175.982 266.198 175.068C266.436 174.512 266.754 174.036 267.191 173.638C267.549 173.321 268.462 173.122 267.588 172.923C268.263 173.082 270.528 173.519 270.766 172.447C271.004 171.374 268.74 170.739 268.144 170.58V170.659Z" fill="#846DF2"/>
<path d="M292.453 183.056C294.876 183.612 297.339 183.93 299.841 184.009C300.238 184.009 301.033 183.969 301.35 183.612C301.628 183.294 301.549 182.937 301.271 182.659C300.834 182.222 300.238 181.904 299.682 181.705C298.927 181.467 298.212 181.308 297.418 181.308C297.18 181.308 296.941 181.308 296.663 181.308C296.107 181.308 297.219 181.348 296.941 181.308C296.822 181.308 296.703 181.308 296.584 181.308C296.107 181.308 295.631 181.229 295.154 181.149C294.677 181.07 294.24 181.03 293.803 180.951C294.081 180.99 294.955 181.149 293.803 180.951C293.525 180.911 293.287 180.831 293.009 180.792C292.334 180.633 291.579 180.553 290.864 180.633C290.586 180.672 289.871 180.831 289.831 181.268C289.791 181.705 290.149 182.063 290.506 182.301C291.102 182.698 291.778 182.976 292.493 183.135L292.453 183.056Z" fill="#846DF2"/>
<path d="M291.662 175.107C294.085 177.252 296.945 178.841 300.003 179.874C300.639 180.073 301.433 180.232 302.109 180.192C302.387 180.192 303.102 180.073 303.181 179.675C303.261 179.239 302.903 178.841 302.625 178.603C302.069 178.166 301.394 177.848 300.718 177.61C300.56 177.57 300.44 177.53 300.281 177.451C300.202 177.451 300.162 177.411 300.083 177.372C300.083 177.372 300.877 177.689 300.52 177.53C300.242 177.411 299.964 177.292 299.725 177.173C299.487 177.054 299.209 176.895 298.931 176.776C298.931 176.776 299.606 177.133 299.288 176.974C299.209 176.974 299.169 176.895 299.09 176.855C298.931 176.776 298.812 176.696 298.653 176.617C298.414 176.458 298.136 176.299 297.898 176.14C297.779 176.061 297.66 175.981 297.541 175.902C297.302 175.743 298.017 176.259 297.779 176.061C297.739 176.021 297.66 175.981 297.58 175.942C297.104 175.584 296.627 175.187 296.15 174.79C295.634 174.353 294.879 173.995 294.244 173.797C293.608 173.598 292.814 173.399 292.139 173.479C291.781 173.479 291.145 173.598 291.066 173.995C290.986 174.392 291.344 174.79 291.622 175.068L291.662 175.107Z" fill="#846DF2"/>
<path d="M313.947 174.635C321.534 171.815 329.677 171.497 337.463 173.682C338.734 174.039 340.481 173.92 341.673 173.245C342.626 172.689 342.666 171.894 341.514 171.577C331.465 168.756 320.541 169.233 310.77 172.887C310.015 173.165 308.823 173.88 309.856 174.635C310.849 175.31 312.914 175.032 313.947 174.635Z" fill="#846DF2"/>
<path d="M383.817 171.77C388.465 167.758 394.502 167.321 400.381 167.083C400.699 167.083 401.335 166.964 401.493 166.566C401.652 166.169 401.215 165.692 400.937 165.494C399.944 164.62 398.276 164.064 396.965 164.104C390.57 164.382 383.698 164.898 378.614 169.307C377.343 170.419 382.506 172.922 383.817 171.77Z" fill="#846DF2"/>
<path d="M420.399 173.118C422.147 172.205 423.934 171.37 425.761 170.695C426.119 170.576 426.397 170.258 426.238 169.861C426.079 169.424 425.404 169.027 425.047 168.868C424.371 168.55 423.577 168.312 422.822 168.272C422.187 168.233 421.551 168.193 420.955 168.431C419.128 169.106 417.34 169.941 415.593 170.854C415.235 171.053 414.957 171.251 415.116 171.688C415.275 172.125 415.95 172.522 416.308 172.681C416.983 172.999 417.777 173.237 418.532 173.277H419.247C419.644 173.317 420.002 173.277 420.399 173.118Z" fill="#846DF2"/>
<path d="M421.153 177.617H424.093C424.411 177.617 424.689 177.617 424.967 177.577C425.205 177.577 425.404 177.498 425.602 177.339C425.761 177.22 425.841 177.061 425.801 176.902C425.801 176.704 425.761 176.545 425.602 176.386L425.245 176.028C424.887 175.75 424.49 175.512 424.093 175.353L423.338 175.075C422.862 174.916 422.345 174.837 421.869 174.797H418.929C418.611 174.797 418.333 174.797 418.055 174.837C417.817 174.837 417.618 174.916 417.42 175.075C417.261 175.194 417.181 175.353 417.221 175.512C417.221 175.71 417.261 175.869 417.42 176.028L417.777 176.386C418.135 176.664 418.532 176.902 418.929 177.061L419.684 177.339C420.16 177.498 420.677 177.577 421.153 177.617Z" fill="#846DF2"/>
<path d="M421.829 182.058L423.775 182.455C424.133 182.534 424.49 182.614 424.888 182.614C425.285 182.653 425.682 182.653 426.079 182.614C426.437 182.614 426.755 182.534 427.112 182.415C427.39 182.375 427.628 182.256 427.867 182.097L428.185 181.819C428.343 181.621 428.343 181.382 428.185 181.184L427.906 180.906C427.589 180.707 427.231 180.548 426.834 180.469L424.888 180.071C424.53 179.992 424.173 179.913 423.775 179.913C423.378 179.873 422.981 179.873 422.584 179.913C422.226 179.913 421.908 179.992 421.551 180.111C421.273 180.151 421.035 180.27 420.796 180.429L420.479 180.707C420.32 180.906 420.32 181.144 420.479 181.343L420.757 181.621C421.074 181.819 421.432 181.978 421.829 182.058Z" fill="#846DF2"/>
<path d="M419.961 195.722C420.994 194.927 421.947 194.054 422.662 192.941C423.377 191.829 423.894 190.677 424.172 189.446C424.251 189.049 423.655 188.651 423.377 188.532C422.781 188.215 421.987 188.016 421.312 187.937C420.636 187.857 419.842 187.817 419.167 188.056C418.769 188.175 418.333 188.334 418.213 188.81C418.054 189.446 417.856 190.081 417.578 190.677L417.737 190.36C417.061 191.829 415.989 193.14 414.718 194.133L415.036 193.895H414.956C414.638 194.173 414.36 194.411 414.559 194.808C414.758 195.206 415.473 195.523 415.83 195.682C416.545 195.921 417.339 196.079 418.094 196.04H418.809C419.206 195.96 419.564 195.841 419.921 195.682L419.961 195.722Z" fill="#846DF2"/>
<path d="M381.311 201.08C385.283 204.695 391.083 205.966 396.326 205.33C397.041 205.251 398.55 204.615 397.518 203.781C396.485 202.947 394.777 202.828 393.506 202.987C393.386 202.987 393.267 202.987 393.148 203.026C392.87 203.026 392.91 203.026 393.347 203.026C393.228 202.947 392.791 203.026 392.632 203.026C392.513 203.026 392.393 203.026 392.274 203.026C392.791 203.026 392.87 203.026 392.552 203.026C392.314 203.026 392.076 203.026 391.837 202.987C391.718 202.987 391.599 202.987 391.48 202.947C391.996 203.026 392.076 203.026 391.758 202.947C391.599 202.947 391.4 202.868 391.241 202.868C391.122 202.868 391.003 202.828 390.884 202.788C390.606 202.709 390.646 202.748 391.083 202.828C390.964 202.709 390.566 202.669 390.407 202.629C390.169 202.55 389.97 202.47 389.732 202.391C389.494 202.311 389.534 202.311 389.812 202.431C389.692 202.391 389.613 202.351 389.494 202.272C389.136 202.113 388.779 201.914 388.421 201.716C388.342 201.676 387.746 201.279 388.104 201.557C387.905 201.438 387.706 201.279 387.547 201.16C387.19 200.881 386.832 200.603 386.475 200.286C386.038 199.888 385.283 199.69 384.767 199.571C384.052 199.412 383.178 199.372 382.463 199.491C381.748 199.61 380.278 200.127 381.271 201.04L381.311 201.08Z" fill="#846DF2"/>
<path d="M330.546 211.335C334.598 210.104 338.252 207.8 341.152 204.742C341.469 204.424 341.152 204.027 340.913 203.828C340.476 203.47 339.722 203.272 339.166 203.192C338.053 203.033 336.345 202.954 335.472 203.868C335.154 204.185 334.836 204.543 334.478 204.861C334.32 205.02 334.121 205.178 333.922 205.337C334.041 205.218 333.922 205.337 333.883 205.377C333.763 205.457 333.684 205.536 333.565 205.655C332.81 206.251 332.055 206.807 331.261 207.284C330.864 207.522 330.467 207.76 330.069 207.959C329.871 208.078 329.632 208.197 329.434 208.277C329.315 208.356 328.798 208.595 329.195 208.396C328.322 208.793 327.408 209.151 326.455 209.429C326.137 209.508 325.581 209.826 325.541 210.223C325.501 210.62 326.057 210.978 326.375 211.097C327.646 211.653 329.275 211.693 330.586 211.296L330.546 211.335Z" fill="#846DF2"/>
<path d="M350.169 154.052C352.036 157.508 352.87 161.401 352.631 165.333C352.631 165.77 353.108 166.088 353.426 166.247C354.022 166.564 354.816 166.723 355.491 166.763C356.167 166.803 356.961 166.842 357.636 166.604C357.994 166.485 358.55 166.286 358.59 165.849C358.868 161.718 357.954 157.548 355.968 153.933C355.73 153.496 355.094 153.258 354.657 153.099C353.942 152.86 353.108 152.741 352.393 152.781C351.877 152.781 349.613 153.019 350.208 154.052H350.169Z" fill="#846DF2"/>
<path d="M360.693 155.406L360.336 159.735C360.336 160.172 360.852 160.49 361.17 160.609C361.766 160.887 362.6 161.046 363.236 161.086C363.871 161.125 364.705 161.086 365.341 160.847C365.698 160.689 366.215 160.49 366.255 160.053L366.612 155.723C366.612 155.286 366.096 154.969 365.778 154.849C365.182 154.571 364.348 154.413 363.712 154.373C363.077 154.333 362.243 154.373 361.607 154.611C361.25 154.77 360.733 154.969 360.693 155.406Z" fill="#846DF2"/>
<path d="M345.838 171.657C348.301 178.529 349.572 185.798 348.182 193.067C346.99 199.423 344.011 205.262 340.992 210.902C338.371 215.788 336.583 220.873 339.761 225.997C340.992 228.023 342.74 229.651 344.805 230.803C347.427 232.233 350.565 232.312 353.147 233.703C355.57 235.014 357.199 237.039 359.939 237.794C362.68 238.549 365.461 238.43 368.043 237.397C370.863 236.245 372.492 234.1 374.756 232.233C376.901 230.485 379.205 230.326 381.866 229.969C386.871 229.214 390.724 226.473 389.89 220.873C388.976 214.835 385.441 210.744 381.786 206.215C373.683 196.086 370.664 181.707 376.583 169.83C377.179 168.678 371.578 167.01 370.704 168.758C366.176 177.854 366.851 188.539 371.022 197.635C373.326 202.64 376.821 206.334 380.078 210.704C382.74 214.279 386.474 222.025 382.541 225.838C379.681 228.618 374.597 227.387 371.141 229.254C369.036 230.406 367.646 232.432 365.739 233.862C364.627 234.696 362.641 236.046 361.211 235.411C360.019 234.894 358.986 233.663 357.914 232.988C355.808 231.637 353.425 231.121 351.042 230.446C348.301 229.691 346.355 228.062 345.044 225.52C342.303 220.078 345.123 215.272 347.705 210.466C350.724 204.825 353.465 198.867 354.378 192.472C355.332 185.6 353.981 178.609 351.638 172.134C351.042 170.505 345.282 170.108 345.878 171.737L345.838 171.657Z" fill="#846DF2"/>
<path fill-rule="evenodd" clip-rule="evenodd" d="M408.643 151.43C408.643 151.43 408.286 151.073 408.087 150.954C406.697 150.04 404.909 149.961 403.241 149.881C394.899 149.603 386.399 149.365 378.415 151.748C377.064 152.145 375.555 153.218 374.959 154.449C374.403 155.561 375.634 157.508 376.627 157.945C377.263 158.223 378.693 158.262 379.368 158.143C382.228 157.706 384.85 156.316 387.63 155.522C390.609 154.727 393.747 154.648 396.846 154.529C400.222 154.409 403.598 154.251 406.975 154.012C407.729 153.972 408.643 153.814 409 153.178C409.318 152.582 409.08 151.907 408.603 151.391L408.643 151.43Z" fill="#846DF2"/>
<path d="M410.906 151.351C408.801 149.285 405.583 148.61 402.723 148.451C399.546 148.292 396.328 148.213 393.15 148.252C389.973 148.292 386.755 148.411 383.577 148.848C380.757 149.206 377.5 149.603 374.918 150.914C372.892 151.946 371.343 153.774 372.495 156.038C373.647 158.302 376.348 159.454 378.851 159.732C381.552 160.01 384.094 159.096 386.596 158.183C389.536 157.11 392.356 156.435 395.454 156.276C399.188 156.078 402.922 155.998 406.656 155.76C407.967 155.68 409.754 155.839 410.946 155.124C412.296 154.29 412.058 152.939 411.224 151.827C410.429 150.755 408.801 150.159 407.53 150.04C406.815 149.96 405.186 150.119 405.981 151.231C407.212 152.939 404.114 152.741 403.24 152.781C401.651 152.86 400.102 152.979 398.513 153.019C395.732 153.138 392.952 153.138 390.171 153.416C387.391 153.694 384.769 154.369 382.108 155.323C380.837 155.799 379.566 156.276 378.255 156.594C377.818 156.713 377.301 156.673 376.904 156.792C376.07 156.753 376.507 156.991 378.294 157.587C378.175 157.468 378.096 157.349 378.016 157.19C377.937 156.713 377.54 156.395 377.619 155.839C377.699 155.402 378.096 154.926 378.374 154.608C379.327 153.615 380.519 153.218 381.79 152.9C384.61 152.145 387.47 151.708 390.41 151.51C393.349 151.311 396.209 151.271 399.069 151.311C400.578 151.311 402.088 151.39 403.557 151.43C404.153 151.43 404.749 151.43 405.345 151.51C405.702 151.51 406.1 151.549 406.457 151.629C405.901 151.231 405.861 151.231 406.259 151.629C407.172 152.542 408.92 153.178 410.231 153.059C411.383 152.939 411.621 152.304 410.787 151.47L410.906 151.351Z" fill="#846DF2"/>
<path fill-rule="evenodd" clip-rule="evenodd" d="M333.926 156.361C335.316 156.441 340.082 157.116 340.877 158.228C341.949 159.658 341.036 161.604 340.162 162.24C339.606 162.637 337.818 163.392 337.143 163.432C334.243 163.67 331.701 162.518 328.801 162.399C325.703 162.28 322.367 161.803 317.799 162.28C314.422 162.597 310.251 163.312 306.915 163.869C306.16 163.988 301.711 165.02 301.195 164.464C300.917 164.186 308.543 159.936 317.759 157.751C324.631 156.123 330.311 156.202 333.846 156.401L333.926 156.361Z" fill="#846DF2"/>
<path d="M334.995 157.866C335.75 157.905 338.649 157.945 339.086 158.541C338.49 157.746 338.49 159.375 338.331 159.772C338.053 160.646 337.458 161.083 336.663 161.441C334.637 162.394 332.612 161.679 330.506 161.321C328.401 160.964 326.097 160.884 323.913 160.726C319.225 160.447 314.697 160.884 310.089 161.56C308.064 161.877 306.038 162.156 304.012 162.553C303.376 162.672 302.781 162.791 302.145 162.91C301.787 162.99 301.39 162.99 301.033 163.069C300.596 163.149 299.801 162.87 300.953 163.188L303.059 164.062L302.939 163.983L303.972 165.135C304.091 165.929 303.615 165.492 304.171 165.333C304.449 165.254 304.767 164.976 305.005 164.817C305.76 164.38 306.594 163.983 307.388 163.586C310.209 162.235 313.188 161.123 316.167 160.209C322.244 158.342 328.56 157.508 334.915 157.866C335.829 157.905 336.981 157.866 336.465 156.674C335.988 155.641 333.763 154.966 332.77 154.886C325.064 154.45 317.438 155.363 310.089 157.826C306.872 158.898 303.694 160.169 300.675 161.758C299.206 162.513 297.219 163.387 299.364 164.857C301.867 166.604 304.965 166.048 307.746 165.492C311.162 164.817 314.657 164.261 318.113 163.864C321.966 163.427 325.74 163.625 329.593 163.824C333.446 164.022 337.18 165.77 340.834 164.34C342.264 163.784 343.535 163.069 343.972 161.48C344.449 159.772 343.614 158.303 342.184 157.389C339.563 155.641 335.869 155.085 332.77 154.847C331.857 154.767 330.705 154.847 331.221 156.038C331.698 157.071 333.922 157.746 334.915 157.826L334.995 157.866Z" fill="#846DF2"/>
<path d="M345.405 229.291C334.601 231.634 325.505 238.347 321.334 248.794C320.301 251.376 319.626 254.077 319.229 256.818C318.951 258.804 318.156 262.736 319.348 264.524C320.539 266.311 324.353 265.715 325.942 264.802C327.133 264.127 328.087 263.014 329.08 262.061C329.954 261.267 331.9 258.963 332.496 258.764L328.404 258.685C329.318 259.042 328.802 261.306 329.914 262.101C331.026 262.895 332.694 262.816 333.926 262.657C337.501 262.22 339.526 259.082 341.83 256.619L336.388 256.778C337.302 257.851 336.468 259.479 337.461 260.591C338.335 261.584 339.963 261.664 341.155 261.624C344.849 261.505 347.63 258.645 350.371 256.54L344.77 256.421C344.492 257.811 343.816 260.075 345.048 261.187C346.279 262.299 348.702 262.021 350.132 261.584C351.721 261.108 352.873 260.154 353.945 258.923C355.018 257.692 356.09 255.666 357.759 255.15L353.35 254.792C353.985 256.023 353.469 257.255 354.621 258.208C355.574 259.003 356.964 259.003 358.116 258.883C361.254 258.605 362.565 255.864 364.353 253.6L358.633 254.077C359.705 255.189 359.943 256.818 361.135 257.811C362.247 258.724 363.638 258.844 365.068 258.724C368.444 258.486 370.033 256.023 371.622 253.322L365.902 253.799C367.888 256.54 370.271 257.851 373.727 257.294C374.998 257.096 376.547 256.659 377.381 255.586C377.937 254.871 377.779 252.21 378.295 251.972L374.72 252.448C375.912 252.647 377.421 254.474 378.493 255.11C379.645 255.785 380.877 255.864 382.188 255.706C385.723 255.269 385.445 253.124 385.882 250.105L380.082 250.899C382.148 253.64 385.167 257.851 388.781 258.526C390.37 258.844 392.356 258.605 393.747 257.692C395.534 256.5 395.534 254.713 395.216 252.766L390.211 254.037C393.548 255.07 397.242 256.897 400.817 256.262C403.915 255.706 404.789 253.64 404.114 250.701L399.109 251.972C401.016 252.687 402.525 253.958 404.591 254.276C406.259 254.514 408.086 254.395 409.635 253.72C412.892 252.329 412.535 249.072 411.264 246.292L407.729 248.039C408.682 248.039 409.596 248.079 410.549 248.238C411.224 248.317 415.911 248 414.799 246.53C409.556 239.499 402.843 233.024 394.263 230.363C386.478 227.94 377.222 227.662 369.675 231.038C368.523 231.555 368.881 232.309 369.834 232.707C371.026 233.223 372.893 232.866 374.045 232.349C379.725 229.807 387.391 230.88 392.912 233.382C399.586 236.401 404.829 241.843 409.159 247.642L413.409 245.934C411.979 245.735 410.589 245.616 409.159 245.616C408.364 245.616 404.948 245.855 405.623 247.364C405.941 248.079 406.219 248.834 406.299 249.628C406.378 250.065 406.378 250.502 406.299 250.939C405.782 251.654 405.901 251.932 406.656 251.853C407.57 252.051 407.49 251.932 406.338 251.495C406.021 251.297 405.663 251.138 405.345 250.939C404.63 250.542 403.915 250.224 403.121 249.946C402.327 249.668 397.759 249.668 398.116 251.217C398.275 251.813 398.434 252.448 398.394 253.084C398.394 253.561 398.315 253.998 398.116 254.434C400.499 254.315 401.095 254.156 399.943 253.839C398.434 252.925 395.892 252.568 394.223 252.051C393.429 251.813 388.94 251.694 389.218 253.322C389.457 254.633 389.774 256.063 388.464 256.977L390.211 256.301L389.576 256.421L392.475 256.5C391.085 256.182 389.735 254.474 388.781 253.481C387.669 252.329 386.636 251.098 385.683 249.827C384.73 248.556 380.122 248.913 379.884 250.621C379.725 251.733 379.765 253.521 379.129 254.474L381.909 253.362H381.393C382.267 253.561 383.141 253.68 384.015 253.799C380.678 252.051 378.374 248.953 374.204 250.581C373.052 251.018 372.376 251.654 372.098 252.885C372.098 253.005 372.098 256.858 373.449 254.911C373.33 255.07 371.661 252.925 371.502 252.726C370.549 251.455 366.537 251.892 365.782 253.203C365.425 253.839 365.028 254.435 364.631 255.03C364.432 255.308 363.201 256.5 364.432 256.421L367.054 256.778C365.504 256.063 365.346 254.156 364.233 253.004C363.002 251.773 359.546 252.17 358.513 253.481C357.6 254.673 356.607 256.5 355.336 257.334L358.633 256.5H358.156C358.752 256.619 359.387 256.778 359.983 256.897C359.308 256.421 359.348 254.514 358.95 253.72C358.354 252.568 355.336 253.124 354.541 253.362C352.357 254.077 350.927 255.428 349.497 257.136C348.941 257.811 347.511 258.883 347.193 259.638C349.417 260.75 350.49 260.711 350.331 259.519C350.331 259.161 350.331 258.804 350.331 258.446C350.371 257.612 350.529 256.778 350.688 255.944C351.006 254.236 345.723 255.348 345.087 255.825C344.253 256.46 343.38 257.136 342.545 257.771C341.91 258.248 339.844 259.122 341.473 259.241L343.3 259.638C342.307 259.003 342.863 256.738 342.029 255.745C341.076 254.593 337.58 254.871 336.587 255.904C335.793 256.778 334.998 257.612 334.164 258.486C333.767 258.923 333.37 259.36 332.972 259.797C332.138 260.393 332.337 260.591 333.568 260.353L335.395 260.75C334.283 260.274 335.038 258.208 333.886 257.334C332.734 256.46 330.907 256.659 329.636 256.937C325.862 257.851 324.313 262.299 320.976 263.809L324.551 263.332L323.955 263.253L325.386 263.849C324.313 262.776 324.829 259.797 324.909 258.446C325.028 256.778 325.266 255.11 325.664 253.481C326.577 249.668 328.206 246.014 330.39 242.756C334.323 236.997 340.321 232.985 347.153 231.515C347.947 231.356 349.536 230.959 349.099 229.886C348.702 228.933 346.041 229.211 345.366 229.37L345.405 229.291Z" fill="#846DF2"/>
<path d="M354.663 264.163C362.329 267.977 372.776 270.201 379.926 264.005C381.157 262.932 375.954 260.588 374.603 261.74C372.26 263.766 369.36 264.878 366.262 265.037C363.164 265.196 360.701 264.362 358.119 263.091C357.007 262.535 355.338 261.82 354.107 262.297C352.915 262.773 353.948 263.806 354.663 264.163Z" fill="#846DF2"/>
<path d="M337.777 279.022C340.955 278.704 344.133 278.506 347.311 278.426C350.488 278.347 353.348 278.188 355.811 280.214C357.718 281.803 359.148 283.948 361.253 285.338C363.557 286.847 366.178 286.847 368.84 286.49C373.805 285.775 378.452 284.544 381.551 280.293C382.305 279.221 382.981 278.029 383.974 277.155C385.205 276.083 386.834 275.884 388.383 275.566C391.64 274.931 394.937 274.454 398.274 274.137C398.949 274.057 401.213 273.62 401.054 272.548C400.895 271.475 398.552 271.713 397.956 271.753C394.858 272.071 391.759 272.508 388.661 273.064C386 273.541 383.14 273.938 380.717 275.209C378.572 276.321 377.34 278.188 375.99 280.095C374.202 282.558 371.66 283.987 368.562 284.107C365.662 284.226 363.755 280.81 361.769 279.102C359.942 277.473 357.877 276.56 355.454 276.202C349.654 275.288 343.299 276.123 337.499 276.679C336.824 276.758 334.56 277.195 334.719 278.268C334.878 279.34 337.221 279.102 337.817 279.062L337.777 279.022Z" fill="#846DF2"/>
<path d="M278.391 209.394C282.085 225.124 287.01 240.615 292.015 255.988C294.2 262.701 296.822 269.136 301.668 274.419C305.918 279.026 311.201 282.601 316.762 285.382C323.078 288.56 329.83 290.784 336.583 292.85C339.88 293.882 343.177 294.836 346.513 295.789C348.142 296.266 349.691 296.623 351.399 296.861C353.266 297.139 354.815 297.974 356.563 298.649C363.316 301.191 370.505 302.383 377.616 300.992C384.726 299.602 391.637 295.948 398.231 292.452C406.096 288.282 414.001 284.19 421.826 279.9C428.022 276.524 433.226 272.552 435.172 265.442C435.609 263.813 429.85 262.264 429.413 263.932C427.744 269.97 423.613 273.743 418.33 276.762C411.895 280.456 405.262 283.753 398.708 287.249C392.67 290.466 386.672 293.962 380.277 296.385C373.326 299.046 366.613 299.602 359.542 297.139C356.762 296.186 354.18 294.836 351.24 294.359C347.705 293.803 344.289 292.651 340.873 291.658C334.637 289.791 328.281 287.884 322.363 285.183C316.921 282.72 311.717 279.463 307.546 275.134C302.819 270.208 300.198 264.131 298.093 257.736C292.969 242.125 287.964 226.316 284.19 210.308C283.793 208.639 278.073 207.766 278.47 209.474L278.391 209.394Z" fill="#846DF2"/>
<path d="M388.862 237.666C388.862 237.666 389.061 237.745 389.18 237.825C389.419 237.944 388.902 237.666 389.14 237.825C389.339 237.904 389.538 238.023 389.697 238.103C390.094 238.301 390.491 238.54 390.888 238.738C391.087 238.857 391.246 238.976 391.444 239.056C391.722 239.215 391.365 238.976 391.524 239.096C391.603 239.135 391.683 239.215 391.762 239.255C392.12 239.493 392.477 239.771 392.835 240.049C393.152 240.287 393.51 240.565 393.828 240.843C393.986 240.963 394.145 241.121 394.304 241.28C394.503 241.439 394.066 241.082 394.423 241.36C394.503 241.439 394.543 241.479 394.622 241.558C395.258 242.194 395.853 242.83 396.41 243.544C396.966 244.259 398.118 244.538 398.952 244.538C399.428 244.538 400.501 244.379 399.945 243.664C397.403 240.486 394.066 238.103 390.332 236.474C389.895 236.275 389.339 236.156 388.823 236.156C388.545 236.156 388.028 236.156 387.83 236.355C387.234 236.911 388.584 237.546 388.902 237.666H388.862Z" fill="#846DF2"/>
<path d="M386.119 242.873C386.834 244.025 387.549 245.176 388.264 246.328C388.383 246.487 388.502 246.606 388.661 246.686C388.86 246.845 389.058 246.924 389.257 247.043C389.694 247.242 390.25 247.401 390.726 247.441H391.163C391.362 247.441 391.561 247.401 391.759 247.282C391.958 247.083 391.918 246.884 391.759 246.646C391.044 245.494 390.329 244.342 389.614 243.19C389.495 243.031 389.376 242.912 389.217 242.833C389.019 242.674 388.82 242.595 388.621 242.475C388.184 242.277 387.628 242.118 387.152 242.078H386.715C386.516 242.078 386.317 242.118 386.119 242.237C385.92 242.436 385.96 242.634 386.119 242.873Z" fill="#846DF2"/>
<path d="M338.606 242.635C339.996 241.404 341.466 240.252 343.015 239.299C344.683 238.306 346.312 237.511 347.98 236.916C348.457 236.757 349.331 236.2 348.576 235.764C347.821 235.327 346.59 235.485 345.835 235.764C341.903 237.233 338.209 239.378 335.07 242.198C334.435 242.794 335.388 243.152 335.905 243.191C336.739 243.271 337.93 243.191 338.566 242.635H338.606Z" fill="#846DF2"/>
<path d="M336.864 250.894C338.373 249.106 339.883 247.319 341.432 245.531C341.591 245.333 341.749 245.134 341.551 244.896C341.352 244.657 340.836 244.578 340.597 244.538C340.081 244.499 339.565 244.538 339.088 244.657C338.731 244.737 338.214 244.856 337.936 245.174C336.427 246.961 334.917 248.749 333.368 250.536C333.209 250.735 333.05 250.934 333.249 251.172C333.448 251.41 333.964 251.49 334.202 251.529C334.719 251.569 335.235 251.529 335.712 251.41C336.069 251.331 336.586 251.212 336.864 250.894Z" fill="#846DF2"/>
<path d="M348.541 246.485C349.653 244.578 350.726 242.672 351.838 240.765C351.997 240.527 351.838 240.289 351.6 240.169C351.282 239.971 350.766 239.891 350.408 239.852C349.892 239.852 349.375 239.852 348.899 240.01C348.581 240.13 348.184 240.249 348.025 240.527C346.913 242.433 345.84 244.34 344.728 246.247C344.569 246.485 344.728 246.723 344.966 246.843C345.284 247.041 345.8 247.121 346.158 247.16C346.674 247.16 347.191 247.16 347.667 247.001C347.985 246.882 348.382 246.763 348.541 246.485Z" fill="#846DF2"/>
<path d="M360.815 243.51C361.331 245.417 361.57 247.363 361.61 249.349C361.61 249.627 362.086 249.786 362.245 249.826C362.682 249.945 363.238 249.945 363.675 249.865C364.112 249.786 364.628 249.707 365.026 249.468C365.264 249.309 365.542 249.151 365.542 248.833C365.542 246.847 365.264 244.9 364.748 242.994C364.668 242.716 364.35 242.596 364.112 242.517C363.675 242.398 363.119 242.398 362.682 242.477C362.245 242.557 361.729 242.636 361.331 242.874C361.133 242.994 360.736 243.232 360.815 243.51Z" fill="#846DF2"/>
<path d="M368.04 239.894C368.755 241.364 369.271 242.953 369.509 244.621C369.549 244.899 370.145 245.177 370.304 245.257C370.741 245.455 371.297 245.614 371.774 245.654C372.171 245.654 372.647 245.733 373.005 245.535L373.243 245.376C373.243 245.376 373.402 245.137 373.323 244.978C373.084 243.35 372.568 241.761 371.853 240.252C371.694 239.934 371.337 239.735 371.059 239.616C370.622 239.417 370.066 239.259 369.589 239.219C369.192 239.219 368.715 239.139 368.358 239.338C368.159 239.457 367.921 239.616 368.04 239.894Z" fill="#846DF2"/>
<path d="M375.869 237.828C376.227 238.265 376.584 238.701 376.902 239.218L376.743 238.98C377.458 240.092 377.974 241.323 378.292 242.634C378.372 242.912 378.848 243.19 379.047 243.309C379.484 243.548 380.04 243.706 380.517 243.746C380.954 243.786 382.264 243.905 382.105 243.111C381.629 241.164 380.675 239.337 379.365 237.828C379.126 237.51 378.65 237.311 378.292 237.192C377.855 237.033 377.259 236.914 376.783 236.914C376.505 236.914 375.988 236.914 375.79 237.152C375.591 237.351 375.67 237.589 375.829 237.788L375.869 237.828Z" fill="#846DF2"/>
<path d="M442.359 219.958C440.81 215.986 438.943 212.212 436.719 208.598C435.487 206.572 434.137 204.626 432.865 202.64C432.23 201.607 431.594 200.574 431.038 199.501C430.363 198.191 429.688 197.436 431.197 196.602C439.42 191.954 448.873 190.048 457.374 186.076C465.874 182.103 473.898 176.661 481.882 171.458C483.828 170.187 485.775 168.797 487.84 167.645C488.317 167.367 488.794 167.128 489.31 166.89C488.476 166.453 488.436 166.572 489.231 167.208C489.787 168.121 490.74 168.956 491.415 169.829C494.315 173.603 496.698 177.774 498.605 182.143C499.32 183.732 505.04 183.931 504.365 182.421C502.696 178.568 500.67 174.914 498.208 171.498C496.063 168.519 493.918 165.261 490.144 164.467C486.013 163.553 482.955 165.579 479.618 167.764C476.003 170.107 472.389 172.53 468.734 174.834C461.465 179.482 453.997 183.811 445.934 186.87C441.922 188.379 437.87 189.65 433.898 191.2C431.992 191.954 430.085 192.749 428.258 193.662C427.225 194.179 424.603 195.053 424.286 196.403C423.928 197.992 425.874 200.415 426.629 201.646C427.861 203.672 429.251 205.658 430.522 207.684C432.945 211.537 434.971 215.549 436.599 219.76C437.235 221.348 442.994 221.627 442.359 220.038V219.958Z" fill="#846DF2"/>
<path d="M434.147 171.892C432.955 178.247 432.836 184.722 433.948 191.117C434.226 192.785 440.105 191.832 439.827 190.164C438.755 184.047 438.755 177.731 439.907 171.614C440.105 170.501 438.358 170.462 437.603 170.501C436.848 170.541 436.054 170.7 435.339 170.978C434.981 171.137 434.187 171.455 434.107 171.892H434.147Z" fill="#846DF2"/>
<path d="M572.886 323.624C565.538 312.463 558.15 301.221 552.668 289.027C546.829 276.038 544.485 262.175 540.632 248.59C536.779 235.005 531.338 223.089 525.975 210.656C523.314 204.42 520.692 198.183 518.388 191.788C517.316 188.769 516.482 185.591 515.369 182.573C514.416 180.07 512.509 178.759 509.848 178.402C507.187 178.044 505.399 179.395 503.254 180.865C500.156 182.97 496.859 184.837 493.602 186.624C487.445 190.001 481.487 193.655 475.449 197.27C463.175 204.658 450.901 212.245 437.872 218.282C433.026 220.547 428.101 222.731 423.692 225.79C421.507 227.299 419.481 229.007 417.773 230.993C416.303 232.741 414.119 235.323 414.317 237.746C414.556 240.328 416.74 243.029 418.012 245.214C419.68 248.074 421.388 250.854 423.136 253.635C426.512 258.997 429.968 264.28 433.265 269.682C440.335 281.122 446.969 293.118 450.067 306.306C451.695 313.257 451.576 320.606 454.754 327.12C457.932 333.634 462.738 338.361 467.505 343.207C468.418 344.161 470.166 344.439 471.437 344.359C472.152 344.319 473.741 343.922 472.788 342.969C468.537 338.679 464.208 334.27 461.268 328.947C458.329 323.624 457.773 317.587 456.78 311.47C454.873 300.03 450.146 289.305 444.466 279.216C438.786 269.126 431.954 259.196 425.876 249.107C424.446 246.763 423.096 244.419 421.745 242.036C420.951 240.606 419.878 239.176 420.276 237.468C420.633 235.998 421.706 234.648 422.619 233.456C425.916 229.206 430.564 226.306 435.29 223.883C440.375 221.301 445.658 219.077 450.702 216.416C456.939 213.158 462.977 209.583 469.014 206.048C475.052 202.513 480.692 199.097 486.492 195.562C492.291 192.026 498.13 189.008 503.85 185.591C505.002 184.916 506.114 184.201 507.266 183.486C508.299 182.811 510.444 181.858 511.119 180.904L509.054 180.825C509.213 181.103 509.371 181.421 509.491 181.739C509.729 182.334 509.888 182.97 510.086 183.566C510.643 185.274 511.159 187.021 511.755 188.73C513.86 194.847 516.283 200.845 518.825 206.803C523.87 218.719 529.312 230.517 533.324 242.83C537.892 257.011 539.917 271.867 545.717 285.69C551.516 299.513 559.262 311.112 567.167 323.148C567.882 324.22 569.431 324.538 570.622 324.617C570.98 324.617 573.602 324.538 572.926 323.545L572.886 323.624Z" fill="#846DF2"/>
<path d="M520.258 204.503C532.532 206.887 543.774 214.831 549.335 226.152C554.896 237.472 552.075 252.447 559.821 263.53C560.774 264.92 566.455 263.609 565.422 262.179C561.211 256.181 560.338 248.992 559.384 241.921C558.51 235.446 557.358 229.21 554.181 223.451C548.024 212.328 536.505 204.742 524.151 202.319C522.88 202.08 521.053 202.08 519.98 202.875C519.186 203.47 518.908 204.305 520.179 204.543L520.258 204.503Z" fill="#846DF2"/>
<path d="M435.168 349.923C437.948 344.242 442.119 339.277 445.853 334.193C449.348 329.466 452.645 324.223 457.451 320.688C458.445 319.973 455.902 319.059 455.585 318.979C454.393 318.701 452.883 318.582 451.851 319.337C447.044 322.872 443.747 328.115 440.252 332.842C436.518 337.927 432.347 342.892 429.567 348.572C428.733 350.28 434.492 351.392 435.168 349.962V349.923Z" fill="#846DF2"/>
<path d="M335.632 347.342C326.893 326.568 321.292 304.76 316.525 282.794C316.128 280.967 310.249 281.483 310.567 282.874C315.373 305.078 321.054 327.084 329.872 348.057C330.507 349.566 336.347 349.05 335.592 347.342H335.632Z" fill="#846DF2"/>
<path d="M412.381 347.428C422.272 323.515 431.805 299.444 440.981 275.253C441.537 273.744 435.897 271.877 435.261 273.506C426.085 297.696 416.552 321.768 406.661 345.68C406.066 347.11 411.666 349.056 412.381 347.428Z" fill="#846DF2"/>
<path d="M292.375 339.518C289.039 330.859 286.059 321.921 281.134 314.017C276.804 307.026 271.323 300.829 265.722 294.831C262.862 291.733 259.962 288.714 257.102 285.616C255.791 284.186 254.481 282.716 253.209 281.207C251.263 278.942 251.382 277.393 253.408 275.209C259.446 268.615 266.278 262.935 271.68 255.745C272.236 255.03 270.965 254.434 270.449 254.275C267.231 253.282 263.974 252.448 260.677 251.852C258.89 251.534 257.063 251.256 255.275 251.058C254.52 250.978 253.726 250.899 252.931 250.82C250.071 250.581 252.971 251.336 253.051 251.256C253.09 251.177 252.971 249.111 252.971 248.992C252.971 248.198 253.011 247.403 253.09 246.609C253.17 245.258 253.329 243.948 253.527 242.637C254.004 239.578 254.759 236.559 255.752 233.62C259.684 221.862 267.152 211.416 275.97 202.796C277.003 201.803 271.64 200.293 270.33 201.565C261.035 210.581 253.329 221.703 249.436 234.136C248.483 237.235 247.768 240.373 247.37 243.59C247.132 245.695 246.179 249.866 247.569 251.654C249.078 253.64 253.329 253.203 255.474 253.481C259.446 253.958 263.378 254.831 267.231 255.983L266 254.514C263.14 258.327 259.922 261.783 256.546 265.159C253.448 268.257 250.032 271.197 247.212 274.533C246.099 275.844 245.225 277.393 245.901 279.101C246.576 280.809 248.363 282.398 249.595 283.749C252.375 286.887 255.275 289.945 258.175 293.004C264.173 299.399 270.171 305.874 274.898 313.302C280.061 321.405 283.12 330.62 286.576 339.518C287.172 341.107 293.011 341.147 292.375 339.518Z" fill="#846DF2"/>
<path d="M147.584 336.459C182.619 325.019 221.03 326.092 255.469 339.2C257.137 339.835 259.322 339.557 260.91 338.842C261.665 338.485 263.651 337.134 261.943 336.459C232.946 325.416 201.169 322.437 170.583 327.522C161.924 328.952 153.344 331.057 145.002 333.798C144.129 334.076 141.745 334.87 142.619 336.181C143.414 337.373 146.631 336.777 147.624 336.459H147.584Z" fill="#846DF2"/>
<path d="M266.755 194.776C250.032 194.458 232.595 194.259 217.024 201.29C210.112 204.388 203.836 208.956 199.149 214.954C194.462 220.952 191.244 228.023 188.543 235.133C183.181 249.155 179.248 265.004 167.61 275.331C161.652 280.614 154.065 283.395 146.756 286.255C139.447 289.115 132.933 292.134 126.776 296.622C112.714 306.871 103.141 323.554 105.326 341.349C105.565 343.256 111.404 343.494 111.245 342.183C109.298 326.612 116.448 311.677 128.047 301.548C133.687 296.622 140.202 292.888 147.113 290.029C154.025 287.169 161.334 284.865 167.769 280.893C194.382 264.289 188.623 225.004 214.243 207.566C230.052 196.841 249.754 197 268.066 197.318C268.86 197.318 270.489 197.318 270.33 196.166C270.171 195.133 267.47 194.855 266.835 194.816L266.755 194.776Z" fill="#846DF2"/>
<path fill-rule="evenodd" clip-rule="evenodd" d="M445.342 247.994C444.746 243.267 439.106 240.884 438.947 246.683C438.828 252.244 445.7 255.501 445.382 248.55L445.302 248.034L445.342 247.994Z" fill="#846DF2"/>
<path d="M448.281 247.798C448.003 245.732 446.772 243.627 444.825 242.753C443.038 241.919 440.853 241.839 438.986 242.475C437.794 242.872 436.722 243.627 436.325 244.858C435.649 246.964 436.007 249.347 437.358 251.174C438.986 253.398 441.886 254.074 444.507 253.557C445.898 253.279 447.367 252.644 447.963 251.253C448.4 250.181 448.48 248.989 448.321 247.837C448.281 247.4 447.725 247.162 447.407 247.043C446.772 246.805 445.937 246.765 445.302 246.844C444.666 246.924 443.832 247.003 443.236 247.321C442.918 247.48 442.362 247.758 442.402 248.235C442.521 249.108 442.521 249.982 442.283 250.817L442.362 250.499C442.243 250.975 442.045 251.452 441.687 251.81L441.965 251.492C441.965 251.492 441.767 251.69 441.647 251.77C441.449 251.929 442.204 251.492 441.886 251.611C441.886 251.611 441.806 251.611 441.806 251.651C441.647 251.77 442.323 251.452 442.283 251.452H442.204C441.886 251.531 442.879 251.293 442.76 251.333C442.283 251.412 443.514 251.253 443.316 251.293C442.879 251.293 444.269 251.293 443.872 251.293C443.395 251.293 444.428 251.373 444.348 251.333C444.269 251.333 444.229 251.333 444.15 251.333C444.07 251.333 444.905 251.531 444.627 251.452C444.627 251.452 444.547 251.452 444.507 251.452C444.428 251.452 444.388 251.412 444.309 251.373C444.07 251.293 444.865 251.651 444.507 251.452C444.19 251.293 443.951 251.134 443.673 250.896L443.991 251.174C443.236 250.538 442.68 249.744 442.283 248.83L442.402 249.148C441.886 247.877 441.767 246.447 442.084 245.097L442.005 245.414C442.124 244.938 442.323 244.461 442.68 244.064L442.402 244.382C442.402 244.382 442.601 244.183 442.72 244.104C442.919 243.945 442.164 244.382 442.482 244.262C442.839 244.104 442.084 244.382 442.124 244.382C442.402 244.302 442.601 244.382 441.647 244.501C441.647 244.501 441.687 244.501 441.727 244.501C442.045 244.461 440.932 244.58 441.091 244.58C441.568 244.58 440.456 244.58 440.535 244.58C440.972 244.58 439.86 244.501 440.059 244.54C440.138 244.54 440.178 244.54 440.257 244.54C440.297 244.54 439.502 244.342 439.82 244.421H439.9C439.979 244.421 440.059 244.461 440.098 244.501C440.297 244.58 439.542 244.223 439.86 244.382C440.178 244.54 440.456 244.699 440.694 244.938L440.376 244.66C441.091 245.255 441.647 246.05 442.005 246.884L441.886 246.566C442.084 247.083 442.243 247.639 442.323 248.195C442.362 248.632 442.918 248.87 443.236 248.989C443.872 249.228 444.706 249.267 445.342 249.188C445.977 249.108 446.811 249.029 447.407 248.711C447.725 248.552 448.281 248.274 448.241 247.798H448.281Z" fill="#846DF2"/>
<path fill-rule="evenodd" clip-rule="evenodd" d="M455.67 265.119C455.074 260.392 449.434 258.009 449.275 263.808C449.156 269.369 456.028 272.626 455.71 265.675L455.63 265.159L455.67 265.119Z" fill="#846DF2"/>
<path d="M458.609 264.962C458.331 262.896 457.1 260.791 455.153 259.917C453.366 259.083 451.181 259.003 449.314 259.639C448.122 260.036 447.05 260.791 446.653 262.022C445.978 264.128 446.335 266.511 447.686 268.338C449.314 270.562 452.214 271.238 454.836 270.721C456.226 270.443 457.695 269.808 458.291 268.418C458.728 267.345 458.808 266.153 458.649 265.001C458.609 264.564 458.053 264.326 457.735 264.207C457.1 263.969 456.266 263.929 455.63 264.008C454.994 264.088 454.16 264.167 453.564 264.485C453.247 264.644 452.691 264.922 452.73 265.399C452.849 266.273 452.849 267.146 452.611 267.981L452.691 267.663C452.571 268.139 452.373 268.616 452.015 268.974L452.293 268.656C452.293 268.656 452.095 268.854 451.976 268.934C451.777 269.093 452.532 268.656 452.214 268.775C452.214 268.775 452.134 268.775 452.134 268.815C451.976 268.934 452.651 268.616 452.611 268.616H452.532C452.214 268.696 453.207 268.457 453.088 268.497C452.611 268.576 453.843 268.417 453.644 268.457C453.207 268.457 454.597 268.457 454.2 268.457C453.723 268.457 454.756 268.537 454.677 268.497C454.597 268.497 454.557 268.497 454.478 268.497C454.399 268.497 455.233 268.696 454.955 268.616C454.955 268.616 454.875 268.616 454.836 268.616C454.756 268.616 454.716 268.576 454.637 268.537C454.399 268.457 455.193 268.815 454.836 268.616C454.518 268.457 454.279 268.298 454.001 268.06L454.319 268.338C453.564 267.702 453.008 266.908 452.611 265.994L452.73 266.312C452.214 265.041 452.095 263.611 452.412 262.261L452.333 262.578C452.452 262.102 452.651 261.625 453.008 261.228L452.73 261.546C452.73 261.546 452.929 261.347 453.048 261.268C453.247 261.109 452.492 261.546 452.81 261.427C453.167 261.268 452.412 261.546 452.452 261.546C452.73 261.466 452.929 261.546 451.976 261.665C451.976 261.665 452.015 261.665 452.055 261.665C452.373 261.625 451.26 261.744 451.419 261.744C451.896 261.744 450.784 261.744 450.863 261.744C451.3 261.744 450.188 261.665 450.387 261.705C450.466 261.705 450.506 261.705 450.585 261.705C450.625 261.705 449.831 261.506 450.148 261.585H450.228C450.307 261.585 450.387 261.625 450.426 261.665C450.625 261.744 449.87 261.387 450.188 261.546C450.506 261.705 450.784 261.863 451.022 262.102L450.704 261.824C451.419 262.42 451.976 263.214 452.333 264.048L452.214 263.73C452.412 264.247 452.571 264.803 452.651 265.359C452.691 265.796 453.247 266.034 453.564 266.153C454.2 266.392 455.034 266.431 455.67 266.352C456.305 266.273 457.139 266.193 457.735 265.875C458.053 265.716 458.609 265.438 458.569 264.962H458.609Z" fill="#846DF2"/>
<path fill-rule="evenodd" clip-rule="evenodd" d="M464.287 282.432C463.692 277.705 458.051 275.321 457.892 281.121C457.773 286.682 464.645 289.939 464.327 282.988L464.248 282.471L464.287 282.432Z" fill="#846DF2"/>
<path d="M467.265 282.235C466.987 280.17 465.756 278.064 463.81 277.191C462.022 276.356 459.837 276.277 457.971 276.912C456.779 277.31 455.706 278.064 455.309 279.296C454.634 281.401 454.991 283.784 456.342 285.612C457.97 287.836 460.87 288.511 463.492 287.995C464.882 287.717 466.352 287.081 466.948 285.691C467.384 284.618 467.464 283.427 467.305 282.275C467.265 281.838 466.709 281.6 466.391 281.48C465.756 281.242 464.922 281.202 464.286 281.282C463.651 281.361 462.816 281.441 462.221 281.759C461.903 281.917 461.347 282.195 461.387 282.672C461.506 283.546 461.506 284.42 461.267 285.254L461.347 284.936C461.228 285.413 461.029 285.89 460.672 286.247L460.95 285.929C460.95 285.929 460.751 286.128 460.632 286.207C460.433 286.366 461.188 285.929 460.87 286.048C460.87 286.048 460.791 286.048 460.791 286.088C460.632 286.207 461.307 285.89 461.267 285.89H461.188C460.87 285.969 461.863 285.731 461.744 285.77C461.267 285.85 462.499 285.691 462.3 285.731C461.863 285.731 463.253 285.731 462.856 285.731C462.38 285.731 463.412 285.81 463.333 285.77C463.253 285.77 463.214 285.77 463.134 285.77C463.055 285.77 463.889 285.969 463.611 285.89C463.611 285.89 463.531 285.89 463.492 285.89C463.412 285.89 463.373 285.85 463.293 285.81C463.055 285.731 463.849 286.088 463.492 285.89C463.174 285.731 462.936 285.572 462.658 285.333L462.975 285.612C462.221 284.976 461.665 284.182 461.267 283.268L461.387 283.586C460.87 282.315 460.751 280.885 461.069 279.534L460.989 279.852C461.108 279.375 461.307 278.899 461.665 278.501L461.387 278.819C461.387 278.819 461.585 278.62 461.704 278.541C461.903 278.382 461.148 278.819 461.466 278.7C461.823 278.541 461.069 278.819 461.108 278.819C461.386 278.74 461.585 278.819 460.632 278.938C460.632 278.938 460.672 278.938 460.711 278.938C461.029 278.899 459.917 279.018 460.076 279.018C460.552 279.018 459.44 279.018 459.52 279.018C459.957 279.018 458.844 278.938 459.043 278.978C459.122 278.978 459.162 278.978 459.242 278.978C459.281 278.978 458.487 278.779 458.805 278.859H458.884C458.963 278.859 459.043 278.899 459.083 278.938C459.281 279.018 458.527 278.66 458.844 278.819C459.162 278.978 459.44 279.137 459.679 279.375L459.361 279.097C460.076 279.693 460.632 280.487 460.989 281.322L460.87 281.004C461.069 281.52 461.228 282.076 461.307 282.632C461.347 283.069 461.903 283.308 462.221 283.427C462.856 283.665 463.69 283.705 464.326 283.625C464.961 283.546 465.796 283.467 466.391 283.149C466.709 282.99 467.265 282.712 467.226 282.235H467.265Z" fill="#846DF2"/>
<path d="M350.411 301.388C347.79 306.194 347.472 311.914 349.577 316.999C349.736 317.396 350.57 317.674 350.888 317.793C351.603 317.992 352.437 318.111 353.152 318.071C353.827 318.032 355.774 317.833 355.337 316.721C353.43 312.153 353.708 306.711 356.091 302.381C356.648 301.348 354.781 300.911 354.105 300.792C353.351 300.673 352.556 300.633 351.802 300.792C351.365 300.872 350.61 300.991 350.372 301.428L350.411 301.388Z" fill="#C5CBFF"/>
<path d="M382.702 313.692C383.417 309.641 382.663 305.47 380.716 301.855C380.518 301.458 379.683 301.259 379.326 301.18C378.611 301.021 377.737 300.981 377.022 301.101C376.387 301.18 374.4 301.577 374.956 302.61C376.823 306.026 377.38 309.998 376.744 313.812C376.665 314.209 377.38 314.566 377.618 314.646C378.253 314.884 379.048 314.963 379.723 314.963C380.557 314.963 382.504 314.844 382.662 313.732L382.702 313.692Z" fill="#C5CBFF"/>
<path d="M395.936 304.252C398.28 303.656 400.306 303.219 402.729 302.862C403.92 302.703 405.072 302.544 406.264 302.465C406.264 302.465 407.138 302.385 406.701 302.465C406.979 302.465 407.257 302.465 407.535 302.425C408.21 302.425 408.846 302.346 409.521 302.346C410.077 302.346 412.262 302.147 411.745 301.074C411.229 300.002 409.084 299.883 408.17 299.883C402.689 300.042 397.207 300.796 391.924 302.226C391.607 302.306 391.011 302.584 390.971 302.981C390.931 303.378 391.448 303.736 391.765 303.895C392.997 304.53 394.625 304.649 395.976 304.292L395.936 304.252Z" fill="#C5CBFF"/>
<path d="M392.433 314.1C395.571 315.132 398.749 316.165 401.887 317.198C402.522 317.397 403.396 317.317 404.032 317.238C404.667 317.158 405.501 316.96 406.057 316.602C406.375 316.404 406.852 316.086 406.812 315.649C406.772 315.212 406.177 315.053 405.819 314.934C402.681 313.901 399.503 312.868 396.365 311.836C395.73 311.637 394.856 311.716 394.22 311.796C393.585 311.875 392.751 312.074 392.195 312.431C391.877 312.63 391.4 312.948 391.44 313.385C391.48 313.822 392.075 313.981 392.433 314.1Z" fill="#C5CBFF"/>
<path d="M327.967 307.897C332.296 309.009 336.785 309.446 341.273 309.128C341.949 309.088 343.577 308.612 342.584 307.698C341.591 306.785 339.883 306.507 338.652 306.586C338.215 306.586 337.738 306.665 337.301 306.665C337.103 306.665 336.864 306.665 336.666 306.665C336.586 306.665 335.871 306.665 336.308 306.665C336.745 306.665 335.911 306.665 335.832 306.665C335.633 306.665 335.395 306.665 335.196 306.665C334.759 306.665 334.362 306.626 333.925 306.586C333.726 306.586 333.488 306.586 333.289 306.546C332.574 306.467 333.965 306.626 333.25 306.546C332.852 306.507 332.415 306.427 332.018 306.348C331.621 306.268 331.184 306.189 330.787 306.109C330.668 306.109 330.509 306.07 330.39 306.03C330.787 306.109 330.866 306.149 330.668 306.07C330.429 306.03 330.191 305.95 329.953 305.911C329.198 305.712 328.443 305.593 327.689 305.633C327.291 305.633 326.537 305.752 326.219 306.109C325.464 306.983 327.53 307.778 328.006 307.897H327.967Z" fill="#C5CBFF"/>
<path d="M333.052 316.317L343.538 314.251C343.896 314.172 344.174 313.854 344.094 313.457C343.975 313.02 343.34 312.583 342.982 312.384C341.791 311.709 340.321 311.312 338.97 311.59L328.484 313.655C328.126 313.735 327.848 314.052 327.928 314.45C328.047 314.887 328.682 315.324 329.04 315.522C330.232 316.197 331.701 316.595 333.052 316.317Z" fill="#C5CBFF"/>
<path d="M94.0078 93.1669C94.0078 106.434 94.0078 119.701 94.0078 132.968C94.0078 135.232 101.952 135.232 101.952 132.968C101.952 119.701 101.952 106.434 101.952 93.1669C101.952 90.9027 94.0078 90.9027 94.0078 93.1669Z" fill="white"/>
<path d="M68.0312 93.1637C68.0312 101.505 68.0312 109.807 68.0312 118.149C68.0312 119.579 71.209 119.738 72.0034 119.738H97.2267C98.1006 119.738 101.199 119.579 101.199 118.149V113.541C101.199 112.111 98.0212 111.952 97.2267 111.952H73.1554C72.361 111.952 69.064 112.111 69.1832 113.541L69.3818 115.686C69.5009 117.156 72.4403 117.275 73.3539 117.275C79.6697 117.275 85.9855 117.315 92.3013 117.354H95.0023C95.9954 117.354 98.8951 117.235 98.9745 115.765C99.0539 114.296 95.757 114.176 95.0023 114.176C88.6866 114.176 82.3707 114.137 76.055 114.097H73.3539C74.6648 114.613 76.0153 115.13 77.3261 115.686L77.1276 113.541L73.1554 115.13H97.2267L93.2546 113.541V118.149L97.2267 116.56H72.0034L75.9756 118.149C75.9756 109.807 75.9756 101.505 75.9756 93.1637C75.9756 91.7337 72.9567 91.5351 72.0034 91.5748C71.0501 91.6145 68.0312 91.694 68.0312 93.1637Z" fill="white"/>
<path d="M224.727 93.1669C224.727 106.434 224.727 119.701 224.727 132.968C224.727 135.232 232.671 135.232 232.671 132.968C232.671 119.701 232.671 106.434 232.671 93.1669C232.671 90.9027 224.727 90.9027 224.727 93.1669Z" fill="white"/>
<path d="M198.75 93.1637C198.75 101.505 198.75 109.807 198.75 118.149C198.75 119.579 201.928 119.738 202.722 119.738H227.945C228.819 119.738 231.918 119.579 231.918 118.149V113.541C231.918 112.111 228.74 111.952 227.945 111.952H203.874C203.08 111.952 199.783 112.111 199.902 113.541L200.101 115.686C200.22 117.156 203.159 117.275 204.073 117.275C210.388 117.275 216.704 117.315 223.02 117.354H225.721C226.714 117.354 229.614 117.235 229.693 115.765C229.773 114.296 226.476 114.176 225.721 114.176C219.405 114.176 213.089 114.137 206.774 114.097H204.073C205.384 114.613 206.734 115.13 208.045 115.686L207.846 113.541L203.874 115.13H227.945L223.973 113.541V118.149L227.945 116.56H202.722L206.694 118.149C206.694 109.807 206.694 101.505 206.694 93.1637C206.694 91.7337 203.675 91.5351 202.722 91.5748C201.769 91.6145 198.75 91.694 198.75 93.1637Z" fill="white"/>
<path d="M177.66 141.623H122.924C121.811 141.623 120.938 140.749 120.938 139.637V84.9001C120.938 83.7879 121.811 82.9141 122.924 82.9141H177.66C178.772 82.9141 179.646 83.7879 179.646 84.9001V139.637C179.646 140.749 178.772 141.623 177.66 141.623ZM124.91 137.651H175.674V86.8862H124.91V137.651Z" fill="white"/>
<path d="M243.082 141.623H188.345C187.233 141.623 186.359 140.749 186.359 139.637V84.9001C186.359 83.7879 187.233 82.9141 188.345 82.9141H243.082C244.194 82.9141 245.068 83.7879 245.068 84.9001V139.637C245.068 140.749 244.194 141.623 243.082 141.623ZM190.332 137.651H241.096V86.8862H190.332V137.651Z" fill="white"/>
<path d="M112.355 141.623H57.6189C56.5067 141.623 55.6328 140.749 55.6328 139.637V84.9001C55.6328 83.7879 56.5067 82.9141 57.6189 82.9141H112.355C113.468 82.9141 114.342 83.7879 114.342 84.9001V139.637C114.342 140.749 113.468 141.623 112.355 141.623ZM59.605 137.651H110.369V86.8862H59.605V137.651Z" fill="white"/>
<path d="M157.402 122.516C156.449 124.9 154.939 127.402 152.596 128.395C151.484 128.872 150.689 128.832 149.895 128.872C149.021 128.951 149.617 128.872 149.895 128.872C149.458 128.872 149.021 128.792 148.624 128.673C149.259 128.792 148.147 128.475 148.028 128.435C142.983 126.25 140.759 119.339 140.6 114.056C140.441 108.773 141.99 102.814 145.843 98.8819C146.638 98.0875 147.591 97.3724 148.584 96.8561C148.743 96.7766 149.577 96.4191 149.974 96.3C149.378 96.4588 150.054 96.3 150.133 96.3C150.649 96.2205 150.689 96.2205 150.173 96.3C150.689 96.3 150.729 96.2602 150.371 96.3C149.537 96.2602 151.325 96.3 150.451 96.3C150.808 96.3 151.126 96.3794 151.484 96.4589C151.206 96.4192 152.238 96.6972 152.596 96.8958C153.946 97.5314 155.138 98.4847 156.052 99.6763C158.475 102.735 159.19 106.469 159.468 110.242C159.785 114.572 158.912 118.624 157.323 122.635C156.647 124.423 159.468 125.019 160.699 125.178C161.93 125.337 166.181 125.654 166.856 123.986C168.564 119.617 169.716 115.287 169.358 110.56C169.041 106.31 168.167 101.861 165.346 98.5641C159.428 91.6525 147.392 90.4212 139.686 94.9097C127.333 102.06 127.253 125.416 140.838 131.215C145.803 133.321 151.96 133.599 157.164 132.248C161.732 131.096 165.029 128.395 166.816 123.986C167.531 122.199 164.671 121.603 163.44 121.444C162.208 121.285 157.958 120.967 157.283 122.635L157.402 122.516Z" fill="white"/>
<path d="M455.078 237.197C456.052 236.816 457.652 236.178 460.897 234.689C466.308 232.205 481.543 226.028 500.918 219.36C508.181 216.86 510.383 216.622 511.979 216.391C514.533 216.021 501.482 228.888 478.931 249.383C470.508 257.039 467.899 258.769 467.25 259.779C466.53 260.898 482.394 257.521 502.958 252.07C510.365 250.106 511.703 250.083 505.866 255.63C487.583 273.007 475.498 284.114 479.149 284.384C482.346 284.621 498.563 281.023 520.364 276.783C527.413 275.413 526.578 277.253 515.782 286.146C504.986 295.038 484.322 311.342 486.171 319.145C488.019 326.948 513.006 325.757 526.972 325.209C543.119 324.575 546.397 325.252 548.259 326.241C549.208 326.746 549.744 327.906 549.545 328.897C548.59 333.634 533.491 334.955 519.818 337.006C525.621 338.082 544.512 340.199 554.704 341.386C564.897 342.574 565.819 342.768 567.061 343.183" stroke="#7AEDE3" stroke-width="4" stroke-linecap="round"/>
<path d="M413.504 337.648C413.612 336.267 414.067 331.153 419.689 315.537C423.262 305.611 429.827 296.668 434.682 289.616C436.452 287.046 436.561 286.354 436.056 286.006C434.629 285.022 424.832 286.809 411.02 288.692C397.09 290.59 386.325 293.087 380.899 294.732C379.932 295.025 379.293 295.116 379.239 295.566C378.842 298.823 382.84 302.123 383.764 307.307C385.48 316.938 383.201 319.364 383.089 320.67C382.824 323.746 390.788 321.909 400.855 327.815C404.495 330.273 406.825 332.177 408.757 334.119C409.647 335.109 410.351 336.107 412.212 338.354" stroke="#FF71BD" stroke-width="4" stroke-linecap="round"/>
<path d="M310.396 283.539C321.555 283.7 339.52 292.628 349.458 297.809C351.983 299.125 345.534 304.564 344.024 308.546C342.588 312.334 343.652 317.66 344.721 321.772C345.106 323.257 322.888 337.545 319.766 334.494C307.665 322.669 303.012 301.247 307.724 285.211" stroke="#FF71BD" stroke-width="4" stroke-linecap="round"/>
<path d="M381.339 309.55C381.339 309.338 381.339 308.251 380.83 306.46C379.348 301.247 366.652 302.051 356.507 303.703C353.58 304.179 352.114 305.654 351.028 306.908C349.064 309.176 348.569 312.734 348.563 316.66C348.557 319.858 352.569 322.293 355.575 324.142C359.075 326.294 365.356 323.87 371.526 320.16C374.15 318.582 375.436 316.558 376.452 314.791C377.663 312.686 377.846 309.655 377.702 306.851C377.639 305.642 377.109 304.919 376.487 304.286C375.196 302.973 373.373 302.522 371.698 302.383C368.305 302.1 365.571 304.45 362.975 307.082C361.522 308.554 361.501 310.769 361.318 312.78C361.074 315.461 361.859 317.757 363.088 319.054C365.089 321.167 369.748 321.999 373.321 322.201C373.974 322.238 374.485 321.649 374.934 320.789C376.017 318.715 376.017 315.57 375.714 312.764C375.506 310.843 374.084 309.724 372.909 308.715C370.679 306.802 365.095 307.072 360.058 307.982C355.886 308.737 353.989 312.232 352.381 315.348C351.97 316.145 352.11 317.08 352.499 317.901C354.183 321.457 360.014 322.025 366.013 322.768C373.275 323.668 377.105 321.374 382.198 318.334C383.281 317.688 383.451 316.773 383.487 316.02C383.694 311.659 377.492 307.402 373.967 305.98C371.946 305.165 369.977 306.22 368.741 307.017C366.063 308.744 364.616 312.275 363.723 316.353C362.932 319.963 363.831 322.908 364.39 324.157C364.981 325.479 366.115 326.515 367.503 327.362C371.765 329.961 378.203 327.996 380.759 326.247C383.682 324.247 380.193 318.445 377.721 313.154C376.93 311.46 375.718 310.52 374.047 309.784C371.869 308.825 369.076 309.947 366.442 311.589C358.781 316.366 356.528 323.612 356.459 325.197C361.56 327.056 367.645 326.245 370.443 324.824C371.798 324.064 373.021 323.224 375.674 321.142" stroke="#FF71BD" stroke-width="4" stroke-linecap="round"/>
<path d="M339.92 303.733C338.544 303.733 326.892 302.148 318.643 300.247C316.361 299.176 314.64 298.35 313.919 298.32C313.731 298.492 313.901 299.041 314.367 299.684" stroke="#FF71BD" stroke-width="4" stroke-linecap="round"/>
<path d="M335.347 312.375C335.305 312.375 335.263 312.375 331.76 312.375C328.258 312.375 321.296 312.375 317.359 312.475C313.423 312.576 312.722 312.777 311.43 313.205" stroke="#FF71BD" stroke-width="4" stroke-linecap="round"/>
<path d="M335.072 316.508C335.072 316.55 333.561 316.593 330.851 316.708C328.81 316.968 326.191 317.636 323.236 318.437C322.032 318.742 321.429 318.839 320.047 319.236" stroke="#FF71BD" stroke-width="4" stroke-linecap="round"/>
<path d="M390.211 301.197C390.336 301.197 391.181 301.062 395.72 300.002C406.194 297.363 413.65 295.522 414.876 295.408C415.564 295.369 416.388 295.368 417.236 295.367" stroke="#FF71BD" stroke-width="4" stroke-linecap="round"/>
<path d="M391.664 309.711C391.684 309.711 391.705 309.711 393.985 309.72C396.266 309.729 400.806 309.746 403.843 309.917C406.881 310.088 408.28 310.412 410.64 310.958" stroke="#FF71BD" stroke-width="4" stroke-linecap="round"/>
<path d="M394.289 316.68C394.371 316.68 395.529 316.68 397.603 316.759C398.562 316.837 399.331 316.995 400.881 317.479C402.431 317.962 404.739 318.767 407.867 320.025" stroke="#FF71BD" stroke-width="4" stroke-linecap="round"/>
<path d="M103 370.058C103 380.902 103 391.746 103 402.629C103 404.457 108.879 405.132 108.879 403.622C108.879 392.778 108.879 381.934 108.879 371.051C108.879 369.223 103 368.548 103 370.058Z" fill="#2E2E33"/>
<path d="M118.289 370.058C118.289 380.902 118.289 391.746 118.289 402.629C118.289 404.457 124.168 405.132 124.168 403.622C124.168 392.778 124.168 381.934 124.168 371.051C124.168 369.223 118.289 368.548 118.289 370.058Z" fill="#2E2E33"/>
<path d="M161.711 371.362C161.711 381.69 161.711 392.018 161.711 402.305C161.711 404.133 167.59 404.808 167.59 403.298C167.59 392.971 167.59 382.643 167.59 372.355C167.59 370.528 161.711 369.853 161.711 371.362Z" fill="#2E2E33"/>
<path d="M145.538 369.306H132.629C132.271 369.306 131 369.465 131 370.061C131 380.905 131 391.749 131 402.633C131 404.221 134.217 404.38 135.25 404.38H148.16C149.034 404.38 150.265 403.904 149.471 402.95C148.676 401.957 146.65 401.838 145.538 401.838H132.629L136.879 403.586C136.879 392.742 136.879 381.898 136.879 371.014L135.25 371.769H148.16C149.034 371.769 150.265 371.292 149.471 370.339C148.676 369.346 146.65 369.227 145.538 369.227V369.306Z" fill="#2E2E33"/>
<path d="M107.728 386.82C111.581 386.939 115.394 386.86 119.247 386.701C119.843 386.701 121.948 386.224 121.352 385.231C121.114 384.794 120.399 384.596 120.002 384.516C119.247 384.357 118.492 384.357 117.698 384.397C117.023 384.397 118.254 384.397 117.658 384.397C117.42 384.397 117.182 384.397 116.943 384.397C116.506 384.397 116.109 384.397 115.672 384.437C114.798 384.437 113.924 384.477 113.051 384.477C111.303 384.477 109.555 384.477 107.807 384.397C107.132 384.397 106.338 384.477 105.702 384.715C105.384 384.834 104.828 385.112 104.828 385.549C104.828 386.621 107.172 386.741 107.807 386.741L107.728 386.82Z" fill="#2E2E33"/>
<path d="M416.602 370.058C416.602 380.902 416.602 391.746 416.602 402.629C416.602 404.457 422.48 405.132 422.48 403.622C422.48 392.778 422.48 381.934 422.48 371.051C422.48 369.223 416.602 368.548 416.602 370.058Z" fill="#2E2E33"/>
<path d="M499.938 370.056C499.938 380.9 499.938 391.744 499.938 402.628C499.938 403.462 501.249 403.979 501.885 404.137C506.095 405.131 512.371 406.124 516.025 403.224C518.012 401.675 518.012 398.537 518.012 396.233C518.012 393.611 517.416 390.95 515.589 388.964C512.609 385.746 507.525 385.19 503.434 385.429C502.6 385.468 501.328 385.865 502.123 386.859C502.917 387.852 504.983 388.01 506.055 387.971C508.756 387.812 510.504 388.646 511.537 391.387C512.411 393.77 512.252 396.471 511.894 398.934C511.537 401.397 509.749 402.35 507.446 402.469C507.167 402.469 506.492 402.469 505.857 402.429C505.579 402.429 505.34 402.39 505.062 402.35C505.777 402.429 505.062 402.35 504.903 402.35C504.466 402.271 504.069 402.191 503.632 402.151C503.116 402.072 503.116 402.032 503.831 402.191L505.777 403.701C505.777 392.857 505.777 382.012 505.777 371.129C505.777 369.302 499.898 368.626 499.898 370.136L499.938 370.056Z" fill="#2E2E33"/>
<path d="M431.898 370.058C431.898 380.902 431.898 391.746 431.898 402.629C431.898 404.457 437.777 405.132 437.777 403.622C437.777 392.778 437.777 381.934 437.777 371.051C437.777 369.223 431.898 368.548 431.898 370.058Z" fill="#2E2E33"/>
<path d="M421.329 386.82C425.182 386.939 428.996 386.86 432.849 386.701C433.444 386.701 435.55 386.224 434.954 385.231C434.715 384.794 434.001 384.596 433.603 384.516C432.849 384.357 432.094 384.357 431.299 384.397C430.624 384.397 431.856 384.397 431.26 384.397C431.021 384.397 430.783 384.397 430.545 384.397C430.108 384.397 429.711 384.397 429.274 384.437C428.4 384.437 427.526 384.477 426.652 384.477C424.904 384.477 423.157 384.477 421.409 384.397C420.734 384.397 419.939 384.477 419.304 384.715C418.986 384.834 418.43 385.112 418.43 385.549C418.43 386.621 420.773 386.741 421.409 386.741L421.329 386.82Z" fill="#2E2E33"/>
<path d="M136.683 387.607H148.083C148.758 387.607 150.426 387.25 149.513 386.296C148.599 385.343 146.931 384.906 145.66 384.906H134.26C133.584 384.906 131.916 385.264 132.83 386.217C133.743 387.17 135.412 387.607 136.683 387.607Z" fill="#2E2E33"/>
<path d="M221.605 391.935H231.377C231.774 391.935 232.529 391.935 232.886 391.578C233.164 391.3 233.085 390.903 232.807 390.625C231.933 389.671 230.225 389.234 228.954 389.234H219.182C218.785 389.234 218.031 389.234 217.673 389.592C217.395 389.87 217.474 390.267 217.752 390.545C218.626 391.499 220.334 391.935 221.605 391.935Z" fill="#2E2E33"/>
<path d="M158.371 372.209H173.346C174.1 372.209 175.61 371.891 174.776 370.898C173.942 369.905 172.114 369.508 170.923 369.508H155.948C155.193 369.508 153.684 369.826 154.518 370.819C155.352 371.812 157.179 372.209 158.371 372.209Z" fill="#2E2E33"/>
<path d="M199.203 371.362C199.203 381.69 199.203 392.018 199.203 402.305C199.203 404.133 205.082 404.808 205.082 403.298C205.082 392.971 205.082 382.643 205.082 372.355C205.082 370.528 199.203 369.853 199.203 371.362Z" fill="#2E2E33"/>
<path d="M239.406 370.058C239.406 380.822 239.406 391.547 239.406 402.312C239.406 404.139 245.285 404.814 245.285 403.305C245.285 392.54 245.285 381.815 245.285 371.051C245.285 369.223 239.406 368.548 239.406 370.058Z" fill="#2E2E33"/>
<path d="M284.922 370.058C284.922 380.822 284.922 391.547 284.922 402.312C284.922 404.139 290.801 404.814 290.801 403.305C290.801 392.54 290.801 381.815 290.801 371.051C290.801 369.223 284.922 368.548 284.922 370.058Z" fill="#2E2E33"/>
<path d="M300.336 370.058C300.336 380.822 300.336 391.547 300.336 402.312C300.336 404.139 306.215 404.814 306.215 403.305C306.215 392.54 306.215 381.815 306.215 371.051C306.215 369.223 300.336 368.548 300.336 370.058Z" fill="#2E2E33"/>
<path d="M195.871 372.209H210.846C211.6 372.209 213.11 371.891 212.276 370.898C211.442 369.905 209.614 369.508 208.423 369.508H193.448C192.693 369.508 191.184 369.826 192.018 370.819C192.852 371.812 194.679 372.209 195.871 372.209Z" fill="#2E2E33"/>
<path d="M356.102 371.206C356.102 381.534 356.102 391.861 356.102 402.149C356.102 403.976 361.98 404.652 361.98 403.142C361.98 392.815 361.98 382.487 361.98 372.199C361.98 370.372 356.102 369.697 356.102 371.206Z" fill="#2E2E33"/>
<path d="M352.769 372.045H367.744C368.499 372.045 370.008 371.727 369.174 370.734C368.34 369.741 366.513 369.344 365.321 369.344H350.346C349.591 369.344 348.082 369.661 348.916 370.655C349.75 371.648 351.577 372.045 352.769 372.045Z" fill="#2E2E33"/>
<path d="M379.222 403.142C379.222 392.457 379.222 381.772 379.222 371.126L378.229 371.802C379.898 371.325 382.281 371.087 383.552 372.517C385.062 374.225 385.221 377.085 385.101 379.269C384.982 381.454 384.625 384.115 383.234 385.903C382.48 386.936 381.288 387.333 380.017 387.452C379.659 387.452 379.739 387.452 379.461 387.333C379.064 387.174 379.659 387.492 379.222 387.174C378.15 386.459 376.323 386.141 375.052 386.459C373.94 386.777 373.781 387.452 374.774 388.127C378.229 390.431 383.949 390.749 387.524 388.564C390.146 386.975 390.821 383.003 390.94 380.223C391.099 376.965 390.543 373.073 387.564 371.126C383.949 368.783 378.468 368.187 374.337 369.379C374.098 369.458 373.344 369.657 373.344 370.054C373.344 380.739 373.344 391.424 373.344 402.07C373.344 403.897 379.222 404.572 379.222 403.063V403.142Z" fill="#2E2E33"/>
<path d="M220.332 402.832C221.762 392.187 223.033 381.343 226.648 371.174L224.344 372.088H229.627L226.012 370.539C226.767 379.754 227.521 388.969 228.276 398.185C228.395 399.496 228.475 400.846 228.594 402.157C228.753 404.024 234.632 404.262 234.512 402.793C233.758 393.577 233.003 384.362 232.248 375.146C232.129 373.836 232.05 372.485 231.931 371.174C231.811 369.863 229.19 369.625 228.316 369.625H223.033C222.278 369.625 221.047 369.704 220.729 370.539C217.075 380.707 215.843 391.551 214.413 402.197C214.175 403.825 220.093 404.54 220.332 402.832Z" fill="#2E2E33"/>
<path d="M399.199 391.865H408.971C409.368 391.865 410.123 391.865 410.48 391.508C410.758 391.23 410.679 390.832 410.401 390.554C409.527 389.601 407.819 389.164 406.548 389.164H396.776C396.379 389.164 395.624 389.164 395.267 389.522C394.989 389.8 395.068 390.197 395.346 390.475C396.22 391.428 397.928 391.865 399.199 391.865Z" fill="#2E2E33"/>
<path d="M397.886 402.829C399.316 392.104 400.548 381.141 404.202 370.893L401.898 371.806H407.181L403.567 370.257C404.321 379.552 405.076 388.887 405.831 398.182C405.95 399.532 406.029 400.843 406.149 402.194C406.307 404.06 412.186 404.299 412.067 402.829C411.312 393.534 410.558 384.2 409.803 374.905C409.684 373.554 409.604 372.243 409.485 370.893C409.366 369.542 406.744 369.344 405.871 369.344H400.587C399.833 369.344 398.601 369.423 398.284 370.257C394.629 380.506 393.398 391.469 391.968 402.194C391.73 403.822 397.648 404.537 397.886 402.829Z" fill="#2E2E33"/>
<path d="M253.144 370.255C249.132 374.862 244.644 379.192 241.069 384.157C239.838 385.826 244.843 386.501 245.637 386.421C245.836 386.421 246.034 386.421 246.233 386.382C245.716 386.382 246.471 386.382 246.551 386.382C246.868 386.382 247.146 386.382 247.464 386.382C248.1 386.382 250.761 386.223 250.96 386.62C250.96 386.541 250.562 386.58 250.523 386.461C250.443 386.104 250.523 386.461 250.562 386.58C250.642 386.779 250.92 387.216 251.039 387.494C251.516 388.566 251.794 389.718 252.072 390.87C252.946 394.644 253.343 398.576 253.581 402.429C253.701 404.376 259.46 405.091 259.381 403.78C259.103 399.053 258.705 394.088 257.275 389.52C256.918 388.447 256.521 387.295 255.766 386.421C254.654 385.15 252.787 384.554 251.198 384.197C248.179 383.482 244.962 383.522 241.903 383.839L246.471 386.104C250.086 381.138 254.535 376.848 258.547 372.201C259.698 370.89 254.217 368.984 253.105 370.255H253.144Z" fill="#2E2E33"/>
<path d="M278.449 397.266C281.547 389.083 282.739 368.428 268.915 370.016C263.076 370.692 262.56 378.159 262.242 382.727C261.805 388.209 261.13 395.359 264.347 400.205C266.214 402.946 269.551 404.535 272.888 403.939C276.065 403.343 277.376 399.927 278.449 397.266C278.965 395.994 273.245 394.644 272.53 396.431C271.974 397.822 271.378 399.252 270.465 400.443C270.266 400.682 270.067 400.96 269.869 401.158C268.995 401.794 269.511 401.992 271.497 401.794C271.338 401.516 270.743 401.198 270.504 400.92C268.756 398.934 268.161 396.034 267.962 393.492C267.485 387.971 267.724 381.814 269.154 376.412C269.432 375.339 269.869 374.267 270.623 373.393C270.862 373.115 271.656 372.678 271.775 372.439C270.345 372.082 269.988 372.082 270.743 372.439C270.981 372.638 271.219 372.837 271.418 373.075C273.166 374.982 273.841 377.921 274.198 380.384C275.032 385.746 274.397 391.347 272.49 396.431C272.014 397.742 277.734 399.053 278.409 397.266H278.449Z" fill="#2E2E33"/>
<path d="M347.373 378.158C346.619 374.981 345.864 372.2 342.845 370.452C340.065 368.824 335.775 368.148 332.954 370.015C329.618 372.2 328.466 376.927 327.83 380.581C327.075 384.832 326.837 389.32 327.354 393.61C327.79 397.185 329.3 401.197 332.676 402.984C338.118 405.844 347.254 404.295 348.207 397.225C348.446 395.556 342.527 394.722 342.289 396.391C342.051 398.178 341.216 399.846 339.667 400.879C338.515 401.634 337.165 402.23 336.092 401.157C334.345 399.449 333.51 396.51 333.232 394.126C332.875 390.869 332.954 387.572 333.312 384.315C333.669 381.058 334.265 377.483 335.854 374.544C335.973 374.305 338.595 370.889 338.833 371.406H338.158C338.158 371.406 338.356 371.445 338.436 371.525C338.595 371.763 339.071 371.962 339.31 372.2C339.786 372.677 340.144 373.233 340.422 373.868C341.018 375.179 341.256 376.609 341.574 377.96C341.931 379.509 347.77 379.986 347.334 378.119L347.373 378.158Z" fill="#2E2E33"/>
<path d="M290.526 403.976C294.737 398.891 298.908 393.807 303.198 388.762C304.072 387.73 304.945 386.657 305.899 385.704C307.13 384.472 301.847 382.129 300.616 383.321C298.431 385.505 296.524 388.008 294.538 390.351C291.996 393.41 289.414 396.468 286.912 399.527C286.356 400.202 285.8 400.877 285.243 401.553C284.528 402.427 286.117 403.301 286.793 403.579C287.508 403.896 288.262 404.095 289.017 404.174C289.414 404.174 290.248 404.254 290.526 403.936V403.976Z" fill="#2E2E33"/>
<path d="M443.328 370.058C443.328 380.822 443.328 391.547 443.328 402.312C443.328 404.139 449.207 404.814 449.207 403.305C449.207 392.54 449.207 381.815 449.207 371.051C449.207 369.223 443.328 368.548 443.328 370.058Z" fill="#2E2E33"/>
<path d="M458.703 370.058C458.703 380.822 458.703 391.547 458.703 402.312C458.703 404.139 464.582 404.814 464.582 403.305C464.582 392.54 464.582 381.815 464.582 371.051C464.582 369.223 458.703 368.548 458.703 370.058Z" fill="#2E2E33"/>
<path d="M521.422 370.058C521.422 380.822 521.422 391.547 521.422 402.312C521.422 404.139 527.301 404.814 527.301 403.305C527.301 392.54 527.301 381.815 527.301 371.051C527.301 369.223 521.422 368.548 521.422 370.058Z" fill="#2E2E33"/>
<path d="M448.894 403.976C453.104 398.891 457.275 393.807 461.565 388.762C462.439 387.73 463.313 386.657 464.266 385.704C465.497 384.472 460.214 382.129 458.983 383.321C456.798 385.505 454.892 388.008 452.906 390.351C450.363 393.41 447.781 396.468 445.279 399.527C444.723 400.202 444.167 400.877 443.611 401.553C442.896 402.427 444.484 403.301 445.16 403.579C445.875 403.896 446.629 404.095 447.384 404.174C447.781 404.174 448.616 404.254 448.894 403.936V403.976Z" fill="#2E2E33"/>
<path d="M485.36 370.059C485.36 381.141 485.956 392.184 485.956 403.226C485.956 405.133 490.206 405.173 491.318 404.736C491.636 404.617 491.319 404.815 491.835 404.617L492.391 404.497C492.431 404.18 489.293 405.967 491.318 404.14C491.597 403.902 492.113 406.285 492.073 406.523C491.994 407.318 491.636 407.953 491.16 408.549C489.73 410.257 487.227 411.25 485.082 411.767C483.93 412.045 483.891 412.799 484.804 413.435C485.837 414.19 487.704 414.428 488.975 414.15C492.272 413.355 497.992 411.29 497.992 407.159C497.992 401.637 490.325 401.24 486.472 402.71L491.835 404.219C491.835 393.137 491.239 382.094 491.239 371.052C491.239 369.185 485.36 368.589 485.36 370.059Z" fill="#2E2E33"/>
<path d="M485.516 386.026C484.046 388.528 481.742 390.713 479.796 392.818C477.294 395.559 474.712 398.339 471.891 400.762C471.534 401.08 471.097 401.358 470.739 401.676C470.739 401.636 471.018 401.398 470.739 401.676H470.66C469.826 402.073 470.62 402.232 472.964 402.192C471.653 401.954 475.466 402.272 475.466 402.788C475.466 402.709 475.387 402.629 475.387 402.59C475.228 401.477 475.029 400.405 474.95 399.253C474.712 395.043 474.791 390.792 474.871 386.582C474.95 381.418 475.069 376.214 475.069 371.051C475.069 369.223 469.19 368.548 469.19 370.058C469.19 379.67 468.396 389.442 469.111 399.054C469.19 400.127 469.151 401.517 469.707 402.471C470.66 404.218 473.997 404.576 475.625 403.742C476.777 403.146 477.81 402.073 478.763 401.199C480.273 399.769 481.742 398.3 483.172 396.79C484.88 394.963 486.588 393.136 488.217 391.269C489.21 390.117 490.322 389.005 491.077 387.694C492.03 386.065 486.35 384.715 485.516 386.105V386.026Z" fill="#2E2E33"/>
<path d="M290.367 359.929C289.97 361.081 289.811 362.193 290.049 363.424C290.288 364.655 290.923 365.847 292.036 366.522C293.148 367.198 294.3 367.515 295.571 367.595C296.683 367.674 297.954 367.595 298.987 367.198C300.337 366.681 301.37 365.768 302.244 364.655C303.118 363.543 303.912 362.471 304.588 361.239C305.144 360.207 303.277 359.73 302.602 359.651C301.847 359.531 301.052 359.492 300.298 359.651C299.861 359.73 299.106 359.849 298.868 360.286C298.391 361.16 297.835 361.954 297.279 362.749C296.723 363.543 296.127 364.298 295.452 364.894C295.61 364.735 295.452 364.894 295.372 364.934C295.293 364.973 295.174 365.053 295.094 365.132C295.015 365.212 294.896 365.251 294.776 365.291C294.578 365.41 295.174 365.172 294.816 365.291C294.657 365.331 294.181 365.45 294.896 365.291C294.459 365.37 295.372 365.291 295.491 365.291C295.889 365.291 296.325 365.331 296.723 365.45C297.358 365.649 297.12 365.569 296.921 365.529C296.683 365.45 297.279 365.807 297.001 365.569C296.921 365.49 296.802 365.41 296.723 365.331C296.484 365.132 296.802 365.49 296.723 365.331C296.683 365.251 296.604 365.172 296.524 365.092C296.246 364.695 296.087 364.258 295.928 363.821L296.008 364.139C295.69 362.828 295.849 361.637 296.246 360.405C296.365 360.008 295.611 359.611 295.412 359.492C294.816 359.174 293.982 359.055 293.346 359.015C292.433 358.975 290.645 358.936 290.288 360.008L290.367 359.929Z" fill="#2E2E33"/>
</svg>
