<svg width="15" height="138" viewBox="0 0 15 138" fill="none" xmlns="http://www.w3.org/2000/svg">
<path d="M8.36328 1C8.36328 0.447715 7.91557 0 7.36328 0C6.811 0 6.36328 0.447715 6.36328 1H7.36328H8.36328ZM6.65617 137.707C7.0467 138.098 7.67986 138.098 8.07039 137.707L14.4343 131.343C14.8249 130.953 14.8249 130.319 14.4343 129.929C14.0438 129.538 13.4107 129.538 13.0201 129.929L7.36328 135.586L1.70643 129.929C1.3159 129.538 0.682738 129.538 0.292213 129.929C-0.0983109 130.319 -0.0983109 130.953 0.292213 131.343L6.65617 137.707ZM6.36328 3C6.36328 3.55228 6.811 4 7.36328 4C7.91557 4 8.36328 3.55228 8.36328 3H7.36328H6.36328ZM8.36328 7C8.36328 6.44772 7.91557 6 7.36328 6C6.811 6 6.36328 6.44772 6.36328 7H7.36328H8.36328ZM6.36328 11C6.36328 11.5523 6.811 12 7.36328 12C7.91557 12 8.36328 11.5523 8.36328 11H7.36328H6.36328ZM8.36328 15C8.36328 14.4477 7.91557 14 7.36328 14C6.811 14 6.36328 14.4477 6.36328 15H7.36328H8.36328ZM6.36328 19C6.36328 19.5523 6.811 20 7.36328 20C7.91557 20 8.36328 19.5523 8.36328 19H7.36328H6.36328ZM8.36328 23C8.36328 22.4477 7.91557 22 7.36328 22C6.811 22 6.36328 22.4477 6.36328 23H7.36328H8.36328ZM6.36328 27C6.36328 27.5523 6.811 28 7.36328 28C7.91557 28 8.36328 27.5523 8.36328 27H7.36328H6.36328ZM8.36328 31C8.36328 30.4477 7.91557 30 7.36328 30C6.811 30 6.36328 30.4477 6.36328 31H7.36328H8.36328ZM6.36328 35C6.36328 35.5523 6.811 36 7.36328 36C7.91557 36 8.36328 35.5523 8.36328 35H7.36328H6.36328ZM8.36328 39C8.36328 38.4477 7.91557 38 7.36328 38C6.811 38 6.36328 38.4477 6.36328 39H7.36328H8.36328ZM6.36328 43C6.36328 43.5523 6.811 44 7.36328 44C7.91557 44 8.36328 43.5523 8.36328 43H7.36328H6.36328ZM8.36328 47C8.36328 46.4477 7.91557 46 7.36328 46C6.811 46 6.36328 46.4477 6.36328 47H7.36328H8.36328ZM6.36328 51C6.36328 51.5523 6.811 52 7.36328 52C7.91557 52 8.36328 51.5523 8.36328 51H7.36328H6.36328ZM8.36328 55C8.36328 54.4477 7.91557 54 7.36328 54C6.811 54 6.36328 54.4477 6.36328 55H7.36328H8.36328ZM6.36328 59C6.36328 59.5523 6.811 60 7.36328 60C7.91557 60 8.36328 59.5523 8.36328 59H7.36328H6.36328ZM8.36328 63C8.36328 62.4477 7.91557 62 7.36328 62C6.811 62 6.36328 62.4477 6.36328 63H7.36328H8.36328ZM6.36328 67C6.36328 67.5523 6.811 68 7.36328 68C7.91557 68 8.36328 67.5523 8.36328 67H7.36328H6.36328ZM8.36328 71C8.36328 70.4477 7.91557 70 7.36328 70C6.811 70 6.36328 70.4477 6.36328 71H7.36328H8.36328ZM6.36328 75C6.36328 75.5523 6.811 76 7.36328 76C7.91557 76 8.36328 75.5523 8.36328 75H7.36328H6.36328ZM8.36328 79C8.36328 78.4477 7.91557 78 7.36328 78C6.811 78 6.36328 78.4477 6.36328 79H7.36328H8.36328ZM6.36328 83C6.36328 83.5523 6.811 84 7.36328 84C7.91557 84 8.36328 83.5523 8.36328 83H7.36328H6.36328ZM8.36328 87C8.36328 86.4477 7.91557 86 7.36328 86C6.811 86 6.36328 86.4477 6.36328 87H7.36328H8.36328ZM6.36328 91C6.36328 91.5523 6.811 92 7.36328 92C7.91557 92 8.36328 91.5523 8.36328 91H7.36328H6.36328ZM8.36328 95C8.36328 94.4477 7.91557 94 7.36328 94C6.811 94 6.36328 94.4477 6.36328 95H7.36328H8.36328ZM6.36328 99C6.36328 99.5523 6.811 100 7.36328 100C7.91557 100 8.36328 99.5523 8.36328 99H7.36328H6.36328ZM8.36328 103C8.36328 102.448 7.91557 102 7.36328 102C6.811 102 6.36328 102.448 6.36328 103H7.36328H8.36328ZM6.36328 107C6.36328 107.552 6.811 108 7.36328 108C7.91557 108 8.36328 107.552 8.36328 107H7.36328H6.36328ZM8.36328 111C8.36328 110.448 7.91557 110 7.36328 110C6.811 110 6.36328 110.448 6.36328 111H7.36328H8.36328ZM6.36328 115C6.36328 115.552 6.811 116 7.36328 116C7.91557 116 8.36328 115.552 8.36328 115H7.36328H6.36328ZM8.36328 119C8.36328 118.448 7.91557 118 7.36328 118C6.811 118 6.36328 118.448 6.36328 119H7.36328H8.36328ZM6.36328 123C6.36328 123.552 6.811 124 7.36328 124C7.91557 124 8.36328 123.552 8.36328 123H7.36328H6.36328ZM8.36328 127C8.36328 126.448 7.91557 126 7.36328 126C6.811 126 6.36328 126.448 6.36328 127H7.36328H8.36328ZM6.36328 131C6.36328 131.552 6.811 132 7.36328 132C7.91557 132 8.36328 131.552 8.36328 131H7.36328H6.36328ZM8.36328 135C8.36328 134.448 7.91557 134 7.36328 134C6.811 134 6.36328 134.448 6.36328 135H7.36328H8.36328ZM7.36328 1H6.36328V3H7.36328H8.36328V1H7.36328ZM7.36328 7H6.36328V11H7.36328H8.36328V7H7.36328ZM7.36328 15H6.36328V19H7.36328H8.36328V15H7.36328ZM7.36328 23H6.36328V27H7.36328H8.36328V23H7.36328ZM7.36328 31H6.36328V35H7.36328H8.36328V31H7.36328ZM7.36328 39H6.36328V43H7.36328H8.36328V39H7.36328ZM7.36328 47H6.36328V51H7.36328H8.36328V47H7.36328ZM7.36328 55H6.36328V59H7.36328H8.36328V55H7.36328ZM7.36328 63H6.36328V67H7.36328H8.36328V63H7.36328ZM7.36328 71H6.36328V75H7.36328H8.36328V71H7.36328ZM7.36328 79H6.36328V83H7.36328H8.36328V79H7.36328ZM7.36328 87H6.36328V91H7.36328H8.36328V87H7.36328ZM7.36328 95H6.36328V99H7.36328H8.36328V95H7.36328ZM7.36328 103H6.36328V107H7.36328H8.36328V103H7.36328ZM7.36328 111H6.36328V115H7.36328H8.36328V111H7.36328ZM7.36328 119H6.36328V123H7.36328H8.36328V119H7.36328ZM7.36328 127H6.36328V131H7.36328H8.36328V127H7.36328ZM7.36328 135H6.36328V137H7.36328H8.36328V135H7.36328Z" fill="#846DF2"/>
</svg>
