<svg width="25" height="38" viewBox="0 0 25 38" fill="none" xmlns="http://www.w3.org/2000/svg">
<path d="M13.9062 2.33416C12.0404 2.29843 10.8527 3.09081 9.72672 3.28857L5.82392 4.47118C5.71964 4.60819 5.66673 4.72449 5.62097 4.85221C5.53774 5.11499 5.41836 5.45525 5.25571 5.86816C4.92796 6.69945 4.41654 7.55883 4.10824 9.04884C3.74415 10.8085 3.49534 12.9478 3.64929 13.6222L3.65248 13.6362C3.82899 14.4096 4.18721 15.9792 5.14617 16.8894C5.71246 17.427 6.51013 17.8513 6.88911 18.5607C7.17249 19.0912 6.86577 20.362 7.2308 22.3386C7.40743 23.2951 7.23854 25.202 7.09692 26.7051C6.94124 28.3573 6.3386 31.227 6.84192 31.4715C7.07617 31.5853 7.43686 31.5877 7.67979 31.8044C8.08919 32.1696 8.20161 32.9549 8.65665 33.5288C9.02361 33.9916 9.29774 34.6793 10.0121 34.9532C10.8279 35.2659 11.9992 35.4293 12.6035 35.1158C13.7084 34.5428 14.6087 33.9544 14.705 33.1485C14.8494 31.9406 14.4479 31.1317 15.3425 27.8219C15.7861 26.1805 16.0612 25.3081 16.3289 24.5672C16.9179 22.9367 17.7002 20.8979 18.7131 19.4888C19.6356 18.2056 20.8854 17.4386 22.619 14.9875C23.0641 14.3582 23.3465 13.3969 23.4163 12.1607C23.4507 11.5497 23.2921 10.1723 22.6325 8.45684C22.2431 7.4439 21.5055 6.36608 20.9099 5.61617C20.3634 4.92807 19.8064 4.03705 19.3069 3.71889C18.6355 3.29125 17.7202 2.40721 13.9062 2.33416Z" fill="white"/>
<path d="M7.32882 24.851C7.50147 23.6184 7.77981 20.9116 7.55195 20.4844C4.15591 14.1162 0.273313 8.42967 7.89266 3.05336C14.7651 -1.79595 23.8765 4.01562 23.4048 12.0176C23.1243 16.7756 19.0685 19.2534 17.4285 23.3844C16.8943 24.7299 17.0547 25.2747 16.8166 25.7089C15.9595 27.2721 9.21936 24.7012 7.45816 25.1009C7.32393 25.1329 7.20706 25.1643 7.04983 25.1962" stroke="black" stroke-width="2" stroke-linecap="round"/>
<path d="M7.04991 25.1963C7.03208 25.1938 6.86755 25.1707 6.56805 25.2001C6.24537 25.2318 6.05912 25.6624 5.88183 25.9594C5.7395 26.1979 5.72864 26.4647 5.75392 26.7221C5.77895 26.977 6.12453 27.2363 6.67065 27.6031C7.36467 28.0693 5.50873 28.6922 5.36533 28.8894C5.22455 29.0831 5.21696 29.3436 5.22565 29.5718C5.24496 30.0784 6.01486 30.1814 6.24773 30.2541C6.67302 30.3869 5.33937 30.8229 5.15287 31.2883C5.10555 31.4064 5.11087 31.5366 5.13115 31.6542C5.15142 31.7718 5.20979 31.8798 5.30955 31.9599C5.88699 32.4232 6.96556 32.3953 7.51906 32.7419C8.39615 33.2911 8.62723 34.0265 8.77977 34.6633C8.84257 34.9254 8.93595 35.1624 9.17213 35.3996C9.79995 36.0303 11.1054 36.1176 11.8403 36.0368C12.9853 35.9109 13.3075 34.3913 13.5536 33.8253C13.7344 33.4095 14.6536 33.6982 15.1742 33.4574C15.6425 33.2409 16.04 32.7601 16.3231 32.317C16.3832 32.2229 16.3019 32.0868 16.2207 32.0041C16.0528 31.833 15.6956 31.7977 15.5479 31.6369C14.8979 30.9289 16.8526 30.3649 17.1325 29.7775C17.3435 29.3346 16.4339 29.0375 15.9566 28.8643C15.8259 28.8168 15.6693 28.8107 15.7607 28.7286C16.493 28.0709 17.0275 27.9773 17.244 27.5191C17.3014 27.3978 17.2958 27.2521 17.2506 27.1382C17.2055 27.0242 17.0955 26.9371 16.8767 26.8696C16.6579 26.802 16.3336 26.7566 15.9995 26.7098" stroke="black" stroke-width="2" stroke-linecap="round"/>
<path d="M7.41702 28.2469C10.6227 28.6401 13.8727 29.0967 16.9371 27.8574" stroke="black" stroke-width="2" stroke-linecap="round"/>
<path d="M6.86233 32.2083C10.068 32.6015 13.318 33.0581 16.3824 31.8188" stroke="black" stroke-width="2" stroke-linecap="round"/>
<path d="M9.10364 7.6806C9.46106 7.70291 11.6043 7.63595 13.2861 6.75152C13.7726 6.49568 14.2982 5.9713 14.5475 5.8193C14.6721 5.74338 12.9466 7.17313 10.5293 8.99223C9.74204 9.58468 9.88576 9.55658 10.7609 9.11561C11.6361 8.67464 13.2482 7.83463 14.0472 7.48233C14.8462 7.13003 14.7832 7.29089 14.081 8.1211C13.3787 8.95132 12.0392 10.446 11.5068 11.1826C10.9743 11.9192 11.2896 11.8525 12.3239 11.2824C13.3581 10.7123 15.1016 9.64088 15.9653 9.17064C16.7134 8.76332 14.4722 11.0856 11.2711 14.1362C10.2567 15.1029 10.6011 15.0116 11.6884 14.3798C12.7758 13.7479 14.6263 12.6093 15.5274 12.1268C16.4286 11.6443 16.3243 11.8523 15.7133 12.6856C15.1023 13.5188 13.9877 14.971 13.5103 15.725C13.0329 16.479 13.2264 16.4908 13.4974 16.4064C13.7684 16.3221 14.111 16.1412 14.239 16.1534C14.2698 16.3762 13.607 17.2576 12.636 18.4315C12.2279 18.941 11.9913 19.2756 11.6318 19.9427" stroke="black" stroke-width="2" stroke-linecap="round"/>
</svg>
