<svg width="27" height="38" viewBox="0 0 27 38" fill="none" xmlns="http://www.w3.org/2000/svg">
<path d="M9.34115 3.04592C7.56226 3.60993 6.69106 4.74112 5.68785 5.28924L2.36977 7.66006C2.3149 7.82327 2.30204 7.95038 2.29962 8.08603C2.30498 8.36163 2.30093 8.7222 2.27916 9.16545C2.23506 10.0579 2.02597 11.0359 2.21137 12.5461C2.43033 14.3297 2.88012 16.4358 3.24206 17.0254L3.24956 17.0376C3.66459 17.7137 4.50686 19.0857 5.70694 19.6407C6.41561 19.9685 7.30719 20.1148 7.89351 20.6654C8.33192 21.0771 8.44856 22.3791 9.42773 24.1346C9.90151 24.984 10.3526 26.8445 10.7 28.3137C11.082 29.9287 11.4307 32.8402 11.9858 32.9105C12.2442 32.9433 12.5866 32.83 12.8862 32.9574C13.391 33.1721 13.7491 33.88 14.364 34.2778C14.86 34.5987 15.34 35.1623 16.1045 35.1928C16.9774 35.2276 18.1393 35.0071 18.6114 34.5165C19.4743 33.6197 20.1387 32.7738 19.9717 31.9795C19.7213 30.7891 19.0818 30.1514 18.8687 26.7295C18.763 25.0325 18.744 24.118 18.7602 23.3303C18.7957 21.5971 18.8834 19.4151 19.3914 17.7558C19.8541 16.2446 20.7922 15.1176 21.649 12.2403C21.869 11.5015 21.8285 10.5004 21.4985 9.30707C21.3353 8.71719 20.7437 7.46329 19.5692 6.0496C18.8757 5.21486 17.8317 4.43022 17.0272 3.91069C16.289 3.43399 15.4759 2.76842 14.9008 2.62709C14.1278 2.43715 12.9774 1.893 9.34115 3.04592Z" fill="white"/>
<path d="M10.3248 26.483C10.0933 25.26 9.4897 22.6068 9.13693 22.275C3.87942 17.3309 -1.62059 13.1883 3.87428 5.65397C8.83052 -1.14179 19.3236 1.44381 21.4409 9.17505C22.6998 13.772 19.6518 17.4188 19.422 21.8574C19.3471 23.3031 19.6736 23.7678 19.5872 24.2555C19.2761 26.0109 12.0676 25.7353 10.5274 26.6782C10.4105 26.7516 10.3098 26.8188 10.1711 26.8993" stroke="black" stroke-width="2" stroke-linecap="round"/>
<path d="M10.1718 26.8992C10.1541 26.9025 9.99085 26.9334 9.71656 27.0572C9.42104 27.1906 9.38259 27.6582 9.30984 27.9964C9.25142 28.2679 9.32663 28.5242 9.43305 28.7599C9.53844 28.9933 9.9489 29.1282 10.5837 29.3007C11.3905 29.5199 9.83205 30.7046 9.75942 30.9374C9.68812 31.166 9.76439 31.4151 9.84578 31.6286C10.0264 32.1023 10.7887 31.9531 11.0326 31.9474C11.478 31.9369 10.3544 32.7772 10.3268 33.2779C10.3199 33.4049 10.3666 33.5265 10.4235 33.6314C10.4804 33.7364 10.5703 33.82 10.6904 33.8638C11.3859 34.1177 12.3987 33.7457 13.034 33.8966C14.0409 34.1358 14.4954 34.7585 14.8439 35.3128C14.9874 35.541 15.1518 35.7355 15.4516 35.8846C16.2484 36.2808 17.513 35.9452 18.1833 35.6331C19.2275 35.147 19.0458 33.6043 19.0976 32.9893C19.1356 32.5375 20.0988 32.5164 20.5148 32.1215C20.889 31.7663 21.1115 31.1835 21.2377 30.6731C21.2645 30.5647 21.1439 30.4618 21.0404 30.4095C20.8266 30.3012 20.4768 30.3822 20.2854 30.2772C19.4429 29.8149 21.1138 28.6543 21.1907 28.0081C21.2486 27.521 20.2918 27.531 19.7842 27.5198C19.6452 27.5168 19.4949 27.5612 19.5552 27.4541C20.0381 26.5965 20.5144 26.3365 20.5727 25.8331C20.5881 25.6998 20.5362 25.5636 20.4569 25.4701C20.3776 25.3766 20.2455 25.3294 20.0166 25.3355C19.7877 25.3416 19.466 25.4025 19.1345 25.4652" stroke="black" stroke-width="2" stroke-linecap="round"/>
<path d="M11.4971 29.6716C14.6597 29.0169 17.8847 28.408 20.3904 26.2521" stroke="black" stroke-width="2" stroke-linecap="round"/>
<path d="M12.2411 33.6017C15.4037 32.9471 18.6287 32.3382 21.1344 30.1823" stroke="black" stroke-width="2" stroke-linecap="round"/>
</svg>
