<svg width="208" height="208" viewBox="0 0 208 208" fill="none" xmlns="http://www.w3.org/2000/svg">
<path d="M87.1308 70.0178C90.1873 70.9869 91.6842 72.9305 93.4079 73.8723L99.1091 77.9458C99.2033 78.2262 99.2254 78.4446 99.2296 78.6777C99.2204 79.1512 99.2274 79.7708 99.2647 80.5324C99.3405 82.0658 99.6998 83.7461 99.3812 86.341C99.005 89.4055 98.2322 93.0243 97.6103 94.0373L97.5974 94.0583C96.8843 95.2199 95.4371 97.5774 93.3751 98.531C92.1575 99.0941 90.6256 99.3456 89.6182 100.292C88.8649 100.999 88.6645 103.236 86.9821 106.252C86.168 107.712 85.393 110.909 84.796 113.433C84.1397 116.208 83.5406 121.21 82.5868 121.331C82.1429 121.387 81.5545 121.193 81.0398 121.412C80.1724 121.781 79.5571 122.997 78.5005 123.68C77.6484 124.232 76.8236 125.2 75.5101 125.253C74.0102 125.312 72.0138 124.934 71.2027 124.091C69.72 122.55 68.5785 121.096 68.8655 119.732C69.2956 117.686 70.3945 116.591 70.7606 110.711C70.9422 107.795 70.9748 106.224 70.9471 104.87C70.8861 101.893 70.7353 98.1434 69.8624 95.2923C69.0675 92.6958 67.4556 90.7593 65.9834 85.8155C65.6055 84.5462 65.675 82.826 66.2421 80.7757C66.5225 79.7622 67.5389 77.6077 69.5569 75.1787C70.7485 73.7445 72.5424 72.3963 73.9247 71.5036C75.193 70.6846 76.5901 69.541 77.5783 69.2982C78.9065 68.9718 80.8829 68.0368 87.1308 70.0178Z" fill="white"/>
<path d="M85.4406 110.288C85.8383 108.187 86.8755 103.628 87.4816 103.058C96.515 94.5627 105.965 87.4449 96.5239 74.4994C88.0081 62.823 69.9788 67.2655 66.3409 80.5494C64.1778 88.4478 69.415 94.7137 69.8098 102.34C69.9384 104.824 69.3774 105.623 69.5259 106.461C70.0604 109.477 82.4461 109.003 85.0925 110.623C85.2934 110.749 85.4663 110.865 85.7047 111.003" stroke="black" stroke-width="2.45885" stroke-linecap="round"/>
<path d="M85.7038 111.003C85.7342 111.009 86.0147 111.062 86.486 111.275C86.9937 111.504 87.0598 112.307 87.1848 112.888C87.2852 113.355 87.1559 113.795 86.9731 114.2C86.792 114.601 86.0868 114.833 84.996 115.129C83.6097 115.506 86.2875 117.542 86.4123 117.942C86.5348 118.334 86.4038 118.762 86.2639 119.129C85.9536 119.943 84.6438 119.687 84.2248 119.677C83.4595 119.659 85.3901 121.103 85.4374 121.963C85.4494 122.181 85.369 122.39 85.2713 122.57C85.1735 122.751 85.0191 122.894 84.8126 122.97C83.6177 123.406 81.8776 122.767 80.7859 123.026C79.0559 123.437 78.2749 124.507 77.6761 125.459C77.4295 125.851 77.1471 126.186 76.6321 126.442C75.263 127.123 73.0902 126.546 71.9385 126.01C70.1442 125.174 70.4564 122.524 70.3675 121.467C70.3021 120.691 68.6472 120.655 67.9324 119.976C67.2894 119.366 66.9071 118.364 66.6903 117.487C66.6442 117.301 66.8515 117.124 67.0293 117.034C67.3967 116.848 67.9976 116.988 68.3265 116.807C69.7741 116.013 66.9033 114.019 66.7711 112.908C66.6715 112.071 68.3155 112.089 69.1878 112.069C69.4266 112.064 69.6849 112.14 69.5813 111.956C68.7515 110.483 67.9332 110.036 67.833 109.171C67.8064 108.942 67.8957 108.708 68.0319 108.548C68.1681 108.387 68.3951 108.306 68.7884 108.316C69.1817 108.327 69.7346 108.431 70.3041 108.539" stroke="black" stroke-width="2.45885" stroke-linecap="round"/>
<path d="M83.4266 115.766C77.9925 114.641 72.4514 113.595 68.1461 109.891" stroke="black" stroke-width="2.45885" stroke-linecap="round"/>
<path d="M82.1481 122.519C76.7141 121.394 71.1729 120.348 66.8677 116.644" stroke="black" stroke-width="2.45885" stroke-linecap="round"/>
<path d="M102.117 99.6581C102.164 99.6668 102.749 99.7776 103.696 99.9721C104.081 100.06 104.273 100.127 105.358 100.756C106.443 101.385 108.414 102.574 110.445 103.799" stroke="black" stroke-width="2.45885" stroke-linecap="round"/>
<path d="M106.205 84.833C106.221 84.8359 106.236 84.8388 106.468 84.8113C106.7 84.7837 107.147 84.7257 108.887 84.1232C110.627 83.5206 113.646 82.3754 117.309 81.0615" stroke="black" stroke-width="2.45885" stroke-linecap="round"/>
<path d="M102.498 69.3599C102.518 69.3401 102.537 69.3203 103.319 68.6665C104.101 68.0128 105.645 66.7256 107.236 65.3994" stroke="black" stroke-width="2.45885" stroke-linecap="round"/>
<path d="M92.0547 52.1851L89.2063 62.1656" stroke="black" stroke-width="2.45885" stroke-linecap="round"/>
<path d="M66.8076 66.7065C66.8226 66.6272 66.6884 66.2758 66.1023 65.3063C64.9156 63.6493 62.7256 61.2802 60.0273 58.8754C58.7542 57.8113 57.6763 57.0646 56.5658 56.2953" stroke="black" stroke-width="2.45885" stroke-linecap="round"/>
<path d="M60.1219 74.493C60.0086 74.4715 59.638 74.4014 58.3444 73.9707C57.363 73.5992 55.722 72.9169 54.5056 72.4702C53.2892 72.0234 52.5472 71.8328 51.7827 71.6365" stroke="black" stroke-width="2.45885" stroke-linecap="round"/>
<path d="M59.8204 90.0457C59.8175 90.0611 59.3941 89.9972 58.1666 90.0086C56.1845 90.332 54.1161 90.9753 52.7332 91.6738C52.2064 91.9767 52.0349 92.1748 51.8583 92.3789" stroke="black" stroke-width="2.45885" stroke-linecap="round"/>
<path d="M71.5 81.8349C71.7383 81.3696 77.0118 76.1579 82.0183 72.1759C83.0192 71.3798 83.873 71.0809 84.3691 70.958C84.5359 70.9167 84.4892 71.3698 82.506 74.0005C80.5228 76.6311 76.594 81.5409 74.4329 84.2823C72.2718 87.0237 71.9974 87.4479 72.0444 87.5282C72.2804 87.9312 76.2491 83.9097 81.5887 79.0039C83.8932 76.8866 84.6721 76.5492 85.3795 76.3397C86.2187 76.0912 83.2423 80.5927 78.0474 88.0053C76.0541 90.8496 75.2614 92.3412 74.0397 94.4719C73.5031 95.4078 73.0786 96.015 75.9099 93.6633C78.7412 91.3116 84.8266 85.9741 87.7725 83.3159C90.7184 80.6577 90.3404 80.8406 88.9325 81.8046C85.0612 84.4554 81.0385 87.7932 78.5576 90.1767C77.6333 91.0647 77.4008 91.3126 77.3905 91.3032C77.1306 91.0668 80.8068 88.208 85.7452 84.1072C89.6981 80.8248 91.3179 80.4745 91.6516 80.5769C92.3826 80.8013 90.2183 83.3343 87.3418 86.8197C83.4233 91.5678 79.8739 95.6155 78.4547 97.5621C78.3724 97.6749 81.0503 94.1566 85.1517 89.6017C86.8933 87.6675 88.1295 86.6688 88.8993 86.0243C89.6691 85.3798 89.982 85.1631 87.3919 88.2816C84.8018 91.4001 79.2992 97.8603 76.6789 101.069C74.0586 104.278 74.4874 104.04 77.7831 101.061C81.0788 98.0831 87.2284 92.3719 90.25 89.6655C93.2715 86.9591 92.9786 87.4306 90.2677 90.9306C87.5568 94.4305 82.4368 100.945 79.9124 104.199C77.3879 107.454 77.6143 107.251 79.5874 105.109C81.5606 102.967 85.2738 98.8912 87.3578 96.6745C89.4417 94.4579 89.7839 94.2239 90.8351 93.5687" stroke="#9683F8" stroke-width="2.45885" stroke-linecap="round"/>
<g opacity="0.2" filter="url(#filter0_f_2038_2448)">
<circle cx="104" cy="104" r="51.5" fill="#9683F8"/>
</g>
<defs>
<filter id="filter0_f_2038_2448" x="0" y="0" width="208" height="208" filterUnits="userSpaceOnUse" color-interpolation-filters="sRGB">
<feFlood flood-opacity="0" result="BackgroundImageFix"/>
<feBlend mode="normal" in="SourceGraphic" in2="BackgroundImageFix" result="shape"/>
<feGaussianBlur stdDeviation="26.25" result="effect1_foregroundBlur_2038_2448"/>
</filter>
</defs>
</svg>
