<svg width="66" height="20" viewBox="0 0 66 20" fill="none" xmlns="http://www.w3.org/2000/svg">
<path d="M11.5865 15.8434C10.688 16.7145 9.70693 16.5769 8.76256 16.1643C7.76318 15.7426 6.84631 15.7243 5.79191 16.1643C4.47163 16.7328 3.77481 16.5678 2.9863 15.8434C-1.488 11.2316 -0.827858 4.20842 4.25158 3.95169C5.48935 4.01587 6.3512 4.63017 7.07553 4.68518C8.15743 4.46514 9.19349 3.8325 10.3487 3.91502C11.7332 4.02504 12.7784 4.57516 13.4661 5.56538C10.6055 7.27992 11.2839 11.0482 13.9062 12.1026C13.3836 13.4779 12.7051 14.8441 11.5773 15.8526L11.5865 15.8434ZM6.98384 3.89668C6.84631 1.85207 8.50584 0.165036 10.4129 0C10.6788 2.36551 8.26745 4.1259 6.98384 3.89668Z" fill="#757575"/>
<path d="M20.543 14.8253H22.2961V10.2643C22.2961 9.36471 22.8874 8.71112 23.7324 8.71112C24.549 8.71112 25.056 9.22412 25.056 10.0534V14.8251H26.7598V10.222C26.7598 9.32952 27.337 8.71103 28.1819 8.71103C29.0408 8.71103 29.5196 9.23111 29.5196 10.1447V14.8252H31.2727V9.71609C31.2727 8.22631 30.3081 7.23531 28.8366 7.23531C27.7594 7.23531 26.8724 7.81163 26.5132 8.73225H26.4709C26.1964 7.77652 25.443 7.2354 24.3871 7.2354C23.3733 7.2354 22.5848 7.80464 22.2608 8.66903H22.2256V7.37599H20.543V14.8253ZM35.11 13.6236C34.3496 13.6236 33.8427 13.237 33.8427 12.6256C33.8427 12.0353 34.3284 11.6558 35.1734 11.5996L36.8982 11.4942V12.0634C36.8982 12.963 36.1027 13.6236 35.11 13.6236ZM34.5819 14.9448C35.5394 14.9448 36.4759 14.4458 36.9054 13.6376H36.9405V14.8253H38.6302V9.69504C38.6302 8.19811 37.4263 7.22125 35.5747 7.22125C33.6737 7.22125 32.4841 8.21924 32.4065 9.61069H34.0329C34.1455 8.9922 34.6735 8.59166 35.5043 8.59166C36.3703 8.59166 36.8984 9.04136 36.8984 9.82149V10.3556L34.9269 10.468C33.1105 10.5805 32.0897 11.3747 32.0897 12.6958C32.0897 14.0381 33.1387 14.9448 34.5819 14.9448ZM46.3257 10.0324C46.2061 8.46522 44.9879 7.22125 43.0168 7.22125C40.8483 7.22125 39.4401 8.71819 39.4401 11.1005C39.4401 13.5181 40.8482 14.9727 43.0308 14.9727C44.9037 14.9727 46.192 13.8764 46.3328 12.2108H44.6782C44.5163 13.054 43.9389 13.56 43.0519 13.56C41.9395 13.56 41.2214 12.6605 41.2214 11.1003C41.2214 9.56825 41.9325 8.64056 43.0378 8.64056C43.9742 8.64056 44.5304 9.23792 44.6712 10.0321H46.3257V10.0324ZM51.7402 4.51562C48.7762 4.51562 46.9174 6.53256 46.9174 9.75835C46.9174 12.9841 48.7759 14.9941 51.7401 14.9941C54.697 14.9941 56.5558 12.9841 56.5558 9.75835C56.5558 6.53256 54.6972 4.51562 51.7401 4.51562M51.7401 6.06172C53.5494 6.06172 54.704 7.49535 54.704 9.75835C54.704 12.0142 53.5494 13.4479 51.7401 13.4479C49.9236 13.4479 48.7761 12.0143 48.7761 9.75835C48.7761 7.49544 49.9236 6.06172 51.7401 6.06172ZM57.2952 11.9721C57.3727 13.8416 58.9075 14.9941 61.2449 14.9941C63.7022 14.9941 65.2511 13.7853 65.2511 11.8596C65.2511 10.3487 64.3781 9.4984 62.3152 9.02757L61.1465 8.76045C59.9004 8.46531 59.3864 8.07176 59.3864 7.39712C59.3864 6.55377 60.1609 5.9916 61.3085 5.9916C62.4701 5.9916 63.2656 6.56085 63.3501 7.50959H65.0821C65.0398 5.72449 63.5614 4.51562 61.3226 4.51562C59.1119 4.51562 57.5418 5.73139 57.5418 7.53054C57.5418 8.97823 58.4289 9.87772 60.3016 10.3065L61.6181 10.6158C62.8995 10.9179 63.4204 11.3396 63.4204 12.0705C63.4204 12.9138 62.5686 13.5182 61.3436 13.5182C60.1045 13.5182 59.1682 12.9068 59.0555 11.9721H57.2954" fill="#757575"/>
</svg>
