<svg width="310" height="2229" viewBox="0 0 310 2229" fill="none" xmlns="http://www.w3.org/2000/svg">
<path d="M109.616 1699.77C109.616 1683.48 115.775 1696.44 123.538 1702.36C135.983 1711.84 137.364 1666.17 138.918 1665.24C141.102 1663.93 143.792 1671.24 146.996 1675.04C156.496 1686.33 161.974 1631.03 166.298 1622.46C175.411 1604.41 190.456 1672.64 195.746 1645.62C204.295 1601.96 204.635 1596.72 206.651 1594.93C218.71 1584.23 223.134 1638.58 229 1601.85C234.147 1569.63 232.99 1499.35 231.156 1503.98C226.22 1516.45 201.5 1559.35 220 1519.35C224.167 1510.34 230.085 1503.46 232.99 1503C240.483 1506.47 246 1518.85 248.5 1527.85" stroke="#2E2E33" stroke-width="2" stroke-linecap="round"/>
<path d="M109.5 1699.15C109.5 1704.98 110.83 1720.38 114.793 1727.15C130.699 1754.32 219 1715.6 204.389 1697.26C203.475 1696.12 201.711 1695.85 200.429 1696.4C195.393 1698.56 196.347 1711.74 200.89 1714.46C203.647 1716.11 208.338 1716.09 213.545 1715.6C253.938 1711.87 299 1652.85 297.5 1617.35" stroke="#2E2E33" stroke-width="2" stroke-linecap="round"/>
<path d="M220.877 585C221.293 585.092 227.331 587.788 231.149 589.425C231.708 589.664 232.188 589.886 232.311 590.051C234.272 592.683 223.89 588.939 223.172 589.092C220.939 589.57 227.428 594.918 230.893 597.657C231.537 598.167 231.721 598.33 231.37 598.291C228.665 597.99 226.58 597.495 224.896 597.628C224.289 597.676 225.771 600.212 227.478 603.151C228.042 604.123 227.559 604.263 227.159 604.299C224.783 604.512 222.273 603.266 221.899 603.339C220.414 603.631 222.984 606.771 222.776 607.151C222.618 607.44 221.775 607.298 221.399 607.618C219.924 608.873 221.505 610.718 221.747 611.547C221.863 611.941 220.83 611.677 220.386 611.708C218.989 611.803 219.179 614.943 218.912 617.827C218.854 618.443 218.795 618.686 218.667 618.647C218.539 618.608 218.347 618.28 218.178 617.992C218.008 617.705 217.868 617.468 217.724 617.224" stroke="black" stroke-width="2" stroke-linecap="round"/>
<path d="M192.669 641.388C192.676 641.589 192.793 642.403 192.973 642.841C193.177 643.339 193.417 640.67 193.898 638.821C194.166 637.791 194.445 637.441 194.588 637.412C195.633 637.201 195.417 640.135 195.771 640.744C195.894 640.956 196.335 639.749 196.902 637.683C197.228 636.492 197.612 636.049 197.82 635.842C197.918 635.745 198.044 635.717 198.181 635.766C198.51 635.883 199.187 637.341 200.055 639.099C200.323 639.643 200.428 639.374 200.502 638.809C200.863 636.032 201.393 634.564 201.794 634.018C201.933 633.829 202.189 633.736 202.519 633.641C203.465 633.368 203.881 633.91 204.086 634.002C205.463 634.618 204.996 629.779 205.128 629.537C205.189 629.426 205.307 629.381 205.433 629.374C205.708 629.357 206.556 630.138 207.668 631.088C208.043 631.408 208.198 631.176 208.3 630.336C208.582 628.007 208.608 626.315 208.702 626.068C208.747 625.952 208.863 625.889 208.966 625.852C209.556 625.637 210.466 626.895 210.971 627.127C212.013 627.608 211.654 624.176 212.01 623.536C212.068 623.431 212.21 623.44 212.327 623.437C213.16 623.412 213.994 624.417 214.202 624.429C215.276 624.49 214.779 621.808 214.885 621.624C215.15 621.165 216.019 621.768 216.238 621.653C216.836 621.337 216.936 620.103 217.188 619.571C217.295 619.168 217.366 618.605 217.422 618.071C217.469 617.859 217.551 617.765 217.754 617.485" stroke="black" stroke-width="2" stroke-linecap="round"/>
<path d="M183.633 647.058C182.461 647.058 179.623 646.992 177.616 646.056C172.771 643.796 173.4 637.02 177.747 635.07C184.654 631.97 190.042 637.614 187.404 644.331C186.394 646.905 182.131 648.293 179.854 648.637" stroke="black" stroke-width="2" stroke-linecap="round"/>
<path d="M176.854 645.643C176.565 645.453 175.079 644.659 174.005 644.2C172.861 643.71 171.003 644.095 171.624 645.643C172.35 647.456 174.93 647.287 175.546 649.386C175.622 649.638 175.703 649.889 175.849 650.399" stroke="black" stroke-width="2" stroke-linecap="round"/>
<path d="M178.473 641.63C178.473 641.611 178.541 641.37 178.781 640.997C179.043 640.591 179.811 640.767 180.17 640.846C180.229 640.926 180.037 641.086 179.815 641.169C179.592 641.251 179.345 641.251 179.09 641.251" stroke="black" stroke-width="2" stroke-linecap="round"/>
<path d="M181.298 638.245C181.537 638.053 182.415 637.716 182.942 637.816C183.076 637.919 182.938 638.13 182.693 638.245C182.448 638.361 182.101 638.374 181.91 637.731" stroke="black" stroke-width="2" stroke-linecap="round"/>
<path d="M184.262 643.166C183.86 643.166 182.996 643.093 182.823 642.942C182.672 642.811 182.63 642.602 182.62 642.395C182.615 642.292 182.65 642.193 182.702 642.109C182.98 641.661 183.747 641.524 184.145 641.493C184.246 641.485 184.33 641.602 184.38 641.688C184.475 641.852 184.45 642.058 184.419 642.26C184.192 642.679 183.919 642.889 183.679 643.016C183.568 643.071 183.477 643.106 183.384 643.143" stroke="black" stroke-width="2" stroke-linecap="round"/>
<path d="M178.061 638.554C178.061 638.313 178.125 637.75 178.294 637.576C178.478 637.386 178.82 637.435 179.019 637.5C179.104 637.528 179.06 637.696 179 637.823C178.939 637.949 178.84 638.067 178.72 638.176C178.6 638.286 178.461 638.383 178.066 638.539" stroke="black" stroke-width="2" stroke-linecap="round"/>
<path d="M297.5 1.00012C306.5 71.0001 180.382 128.177 258.291 176.694C280.462 190.501 215.787 221.407 262.714 223.903C279.65 224.804 243.893 265.441 258.18 274.58C315.254 311.088 306.558 430.501 230.041 480.501C124.096 549.731 117.836 647.214 145.468 628.087C156.048 619.822 166.469 616.534 178.849 622.727C191.481 629.047 198.267 655.228 181.785 653.665C173.476 652.877 158.966 636.091 170.747 631.311C174.482 629.796 182.198 627.566 187.45 633.944C198.259 647.07 232.796 595.941 217.274 582.288C209.844 575.752 220.412 554.962 230.04 560.837C236.629 564.859 237.963 571.552 235.022 578.343C229.813 590.373 208.524 577.352 215.525 563.587C220.776 553.264 232.525 554.886 242.119 564.233C270.421 591.804 223.767 642.553 203.562 658.432C176.023 680.074 150.183 635.023 167.917 630.481C170.286 630.356 177.263 628.13 180.117 629.006C181.424 629.42 182.443 629.772 183.493 630.134" stroke="black" stroke-width="2" stroke-linecap="round"/>
<path d="M179.488 632.415C179.261 631.798 177.759 629.838 175.113 628.427C171.241 626.36 166.173 626.933 162.284 627.701C160.676 628.019 159.191 629.566 157.771 631.002C146.36 642.538 167.51 667.323 181.029 666.069C182.629 665.921 183.392 664.295 184.089 662.806C185.045 660.766 185.248 658.149 185.067 655.989C184.991 655.074 184.369 654.621 183.82 654.251C182.733 653.519 181.076 653.39 179.404 653.68C178.657 653.81 178.278 654.495 178.013 655.066C177.502 656.165 177.546 657.794 177.691 659.544C177.992 663.207 184.114 666.839 190.711 669.707C252.503 696.572 282.389 707.718 295.518 729.341C314.131 759.995 287.974 796.076 289.229 812.393C290.685 831.335 309.261 815.833 304.506 903.807C299.507 996.301 251.109 1094.22 190.047 1162.78C181.789 1172.27 178.329 1191.9 194.558 1182.98C198.94 1180.58 234.81 1155.47 237.853 1165.52C238.113 1166.38 238.165 1167.64 238.081 1168.61C236.121 1191.25 205.152 1203.19 238.983 1186.24C239.997 1185.73 240.629 1185.66 240.732 1186.3C241.059 1188.37 235.898 1196.1 230.069 1205.76C225.215 1213.8 255.34 1200.57 252.226 1203.15C251.119 1204.07 242.092 1208.43 241.836 1216.35C241.398 1229.92 272.926 1231.5 273.028 1258.88C273.228 1312.23 251.368 1321.28 248.188 1377.05C247.271 1393.13 291.031 1364.18 277.014 1355.92C262.845 1347.56 259.067 1382.08 264.311 1395.96C296.612 1481.46 302.586 1740.43 307.832 1833.93C322.941 2103.23 76.0499 2110.41 152.915 2060.95C190.161 2036.98 265.038 2033.65 178.809 2121.57C83.0477 2219.21 1 2161.4 1 2228" stroke="black" stroke-width="2" stroke-linecap="round"/>
</svg>
