<svg width="13" height="333" viewBox="0 0 13 333" fill="none" xmlns="http://www.w3.org/2000/svg">
<path d="M6.98769 278C6.96798 278 7.89466 278 9.26599 278.138C13.2214 278.537 2.85562 285.895 3.34631 286.316C4.72398 287.496 6.80865 287.044 7.28209 287.199C7.53396 287.282 7.67146 287.586 7.656 288.005C7.48959 292.506 2.9355 297.703 3.41187 298.015C4.02676 298.419 4.90847 298.256 5.36693 298.436C6.355 298.825 5.20277 300.508 1.88616 306.392C1.06184 307.854 0.959048 308.569 1.01091 309.302C1.26113 312.839 12.0004 310.208 11.9998 310.755C11.9994 311.05 11.8511 311.373 10.3003 313.287C8.74956 315.202 5.76308 318.697 4.22492 320.615C2.68676 322.533 2.68742 322.767 2.81976 322.962C3.38736 323.798 3.61514 325.389 3.38689 327.495C3.33353 327.987 4.47444 328.057 5.54671 328.421C6.08753 328.604 6.45171 328.967 6.64674 329.494C6.71305 329.821 6.71305 330.27 6.65378 330.638C6.59451 331.006 6.47597 331.278 5.98369 332" stroke="black" stroke-width="2" stroke-linecap="round"/>
<path d="M8.63183 1C8.67127 1.41672 8.94443 2.69622 9.03593 4.6419C9.07437 5.45943 8.1519 6.72129 7.83529 8.16566C7.71688 8.70584 9.13109 8.68433 9.67164 8.85547C10.3642 9.07475 9.36142 11.1852 8.22363 13.5121C7.6559 14.6732 8.83138 15.9523 8.33907 17.8373C8.07032 18.8663 7.31189 20.5712 7.12129 21.5089C6.93069 22.4466 7.23529 22.5357 7.81664 22.4888C8.39799 22.4418 9.24687 22.2562 9.75419 22.3063C10.2615 22.3563 10.4016 22.6477 10.4159 23.0532C10.4486 23.9747 9.34744 26.249 8.19828 29.003C7.79569 29.9679 8.16928 30.2008 8.52475 30.2457C8.88022 30.2907 9.31094 30.1781 9.55748 30.3189C11.1875 31.2494 7.74587 35.385 7.01094 37.0405C6.86261 37.3746 8.22736 36.7348 8.86313 36.5304C9.4989 36.3261 9.63454 36.5902 9.1989 37.7912C8.76326 38.9922 7.75223 41.122 7.37027 42.239C6.9883 43.3559 7.26605 43.3953 7.77271 43.3151C8.27938 43.235 9.00655 43.0341 9.40189 43.0618C9.79722 43.0895 9.8387 43.352 9.86007 43.6614C9.60301 45.5918 8.65901 48.3378 8.31788 50.189C8.17524 50.5638 7.89171 50.7895 7.48319 51.2323" stroke="black" stroke-width="2" stroke-linecap="round"/>
<path d="M8.4327 57C8.46732 57.4895 8.70716 58.9923 8.78749 61.2776C8.82125 62.2378 8.01133 63.7199 7.73335 65.4164C7.62938 66.0508 8.87105 66.0256 9.34564 66.2266C9.95371 66.4841 9.07327 68.963 8.0743 71.696C7.57584 73.0597 8.6079 74.5621 8.17566 76.7761C7.9397 77.9847 7.27381 79.9873 7.10646 81.0886C6.93911 82.19 7.20655 82.2946 7.71697 82.2395C8.22739 82.1844 8.97269 81.9664 9.41812 82.0251C9.86355 82.0839 9.98653 82.4261 9.99913 82.9025C10.0278 83.9848 9.061 86.6561 8.05205 89.8908C7.69858 91.024 8.02659 91.2976 8.33868 91.3504C8.65078 91.4032 9.02895 91.271 9.24541 91.4363C10.6766 92.5293 7.65484 97.3866 7.00958 99.3311C6.87934 99.7236 8.07758 98.9721 8.63578 98.7321C9.19397 98.492 9.31307 98.8023 8.93058 100.213C8.54809 101.624 7.66042 104.125 7.32506 105.437C6.9897 106.749 7.23356 106.795 7.6784 106.701C8.12325 106.607 8.7617 106.371 9.1088 106.403C9.4559 106.436 9.49232 106.744 9.51108 107.108C9.28538 109.375 8.45656 112.6 8.15705 114.775C8.03182 115.215 7.78289 115.48 7.4242 116" stroke="black" stroke-width="2" stroke-linecap="round"/>
<path d="M8.22062 149C8.23973 149 8.41953 149.75 8.64954 151.169C9.66781 157.453 5.61833 166.868 6.22638 167.767C7.35236 169.43 8.66057 169.243 8.99624 170.31C9.51662 171.963 9.07222 174.051 9.17697 174.968C9.22958 175.429 9.70761 175.424 9.99355 175.89C10.2795 176.355 10.4679 177.175 10.4704 178.01C10.4756 179.715 9.60984 182.144 9.03441 184.697C8.83858 185.566 9.23959 185.835 9.52545 185.939C9.8113 186.044 10.0725 186.044 10.1907 186.337C12.242 191.421 6.25502 201.676 6.85385 202.017C7.69075 202.494 9.17203 201.658 10.6657 201.262C11.4057 201.067 9.53412 208.96 6.41267 219.675C5.08198 224.242 4.93391 225.674 5.01929 226.734C5.10927 227.85 7.37787 227.865 9.85439 228.344C14.0833 229.162 5.19108 249.986 5.86179 250.755C6.40472 251.378 7.62964 251.031 8.17501 251.443C10.6957 253.345 5.78915 263.526 6.32916 263.879C6.5892 264.049 6.85533 263.927 7.00366 264.232C7.85255 265.977 6.38231 271.718 6.40601 274.934C6.51656 275.419 6.61109 275.908 6.67692 276.422C6.74274 276.936 6.777 277.46 6.81229 278" stroke="black" stroke-width="2" stroke-linecap="round"/>
</svg>
