<svg width="202" height="154" viewBox="0 0 202 154" fill="none" xmlns="http://www.w3.org/2000/svg">
<path d="M21.6109 110.201C8.69294 110.399 -2.56752 123.605 0.51334 136.415C1.91864 142.234 5.53999 147.838 11.0891 150.414C16.2239 152.792 22.1694 153.531 27.7726 153.531C34.3668 153.531 40.9789 153.531 47.573 153.531H118.811C119.946 153.531 121.099 153.549 122.234 153.531C122.595 153.531 121.892 153.531 121.892 153.531C122 153.567 122.198 153.531 122.306 153.549C123.171 153.585 124.054 153.585 124.919 153.549C131.261 153.351 138.161 152 143.314 148.09C146.467 145.694 148.701 142.451 149.728 138.595C151.025 133.659 150.647 128.001 148.899 123.227C145.908 115.065 138.215 110.075 129.981 108.291C128.288 107.931 126.558 107.696 124.811 107.624L126.558 108.471C126.36 105.787 125.693 103.066 124.919 100.49C123.207 94.7965 120.415 89.3914 116.415 84.9773C105.533 72.9242 86.3269 69.6091 72.1478 77.6265C68.6165 79.6264 65.0492 82.3109 62.5809 85.5719L65.6077 85.4638C59.446 81.8785 51.5186 80.4551 44.5101 81.2659C32.9975 82.5991 23.4126 91.7516 20.8182 102.94C20.2416 105.426 19.8633 108.183 20.2056 110.759C20.3498 111.876 23.917 111.876 23.7909 111.011C22.9622 104.778 25.4845 97.8953 29.1779 92.9948C32.8714 88.0942 37.6097 84.5449 43.3571 83.1396C47.591 82.0947 52.0592 82.419 56.221 83.5901C58.5452 84.2387 60.8693 85.0854 62.9773 86.2926C63.6439 86.6709 65.4636 86.9051 66.0041 86.1845C67.8418 83.7702 70.3101 81.7163 72.8144 80.0227C78.4717 76.1852 85.1919 74.1673 92.0382 74.7619C99.6953 75.4285 106.992 78.9598 112.325 84.4729C116.325 88.6167 119.171 93.8236 120.991 99.2826C121.946 102.147 122.739 105.192 122.955 108.201C123.009 108.849 124.252 109.03 124.703 109.048C127.837 109.174 130.972 109.894 134.053 111.3C137.584 112.921 140.719 115.39 142.953 118.597C145.746 122.614 146.881 127.443 146.827 132.289C146.791 136.667 145.854 140.955 143.044 144.414C140.9 147.045 137.945 148.901 134.774 150.072C133.297 150.612 131.783 151.045 130.27 151.351C129.567 151.495 128.864 151.603 128.144 151.711C127.801 151.765 127.459 151.801 127.099 151.837C126.937 151.837 126.792 151.873 126.63 151.891C126.252 151.927 126.666 151.891 126.396 151.909C125.351 152 124.306 152.054 123.261 152.072C123.063 152.072 122.865 152.072 122.685 152.072C122.613 152.072 122.523 152.072 122.45 152.072C122.18 152.072 122.955 152.09 122.631 152.072C122.45 152.072 122.252 152.072 122.072 152.054C121.351 152.036 120.631 152.054 119.91 152.054C115.118 152.054 110.343 152.054 105.551 152.054H55.2301C47.8072 152.054 40.4023 152.054 32.9795 152.054C24.944 152.054 15.3411 152.63 9.28747 146.378C4.92743 141.874 2.80145 135.136 3.88246 128.974C4.89139 123.317 8.4407 117.75 13.3593 114.705C16.0438 113.047 19.2327 111.678 22.4217 111.624C22.8361 111.624 23.9711 111.48 23.7369 110.831C23.5027 110.183 22.0433 110.165 21.5569 110.165L21.6109 110.201Z" fill="#846DF2"/>
<path d="M53.3565 68.7666C56.3833 74.1896 59.4642 79.5766 62.6531 84.9096C63.1936 85.8104 66.6528 85.4501 66.1304 84.5673C62.9594 79.2343 59.8605 73.8473 56.8337 68.4243C56.3293 67.5234 52.852 67.8477 53.3565 68.7666Z" fill="#846DF2"/>
<path d="M53.9494 72.4193C57.2429 72.4193 59.9129 69.7493 59.9129 66.4557C59.9129 63.1621 57.2429 60.4922 53.9494 60.4922C50.6558 60.4922 47.9858 63.1621 47.9858 66.4557C47.9858 69.7493 50.6558 72.4193 53.9494 72.4193Z" fill="#846DF2"/>
<path d="M41.6462 61.9737C41.9345 59.2171 43.1956 56.2083 45.2315 54.3166C48.0782 51.6681 52.5463 51.3438 55.8434 52.9473C56.546 53.2896 57.6991 53.2176 58.3837 52.8933C59.0683 52.569 58.9783 52.1726 58.3657 51.8663C54.9966 50.2448 50.5645 50.1007 47.0332 51.0916C44.709 51.7402 42.6191 52.8752 41.0516 54.731C39.9526 56.0462 39.1959 57.6136 38.6734 59.2532C38.3852 60.154 38.1329 61.1089 38.0248 62.0458C37.9167 62.9826 41.5201 63.0727 41.6282 61.9737H41.6462Z" fill="#846DF2"/>
<path d="M26.51 65.6835C26.2938 61.2334 27.8972 56.1887 30.0953 52.2611C34.9958 43.5049 44.4366 38.4963 54.3278 38.136C56.2736 38.0639 58.2194 38.1359 60.1472 38.4062C60.4715 38.4422 60.7778 38.4963 61.1021 38.5503C61.2282 38.5684 61.3723 38.5864 61.4984 38.6224C61.2642 38.5864 61.3003 38.5864 61.4984 38.6224C61.6966 38.6584 61.9308 38.7125 62.129 38.7665C62.5434 38.8746 63.6604 39.0548 63.6064 38.3702C63.5704 37.7035 62.1651 37.2531 61.6966 37.145C54.526 35.3614 46.2563 36.1721 39.5721 39.235C31.4105 42.9644 25.465 50.4954 23.6633 59.2696C23.285 61.0892 23.0147 63.0351 23.1048 64.9088C23.1589 65.8997 26.564 66.8546 26.51 65.7376V65.6835Z" fill="#846DF2"/>
<path d="M12.225 67.1786C11.3242 54.621 17.9363 42.838 27.1068 34.6945C29.7373 32.3523 32.5839 30.1723 35.7369 28.6048C38.4033 27.2716 41.232 26.3527 44.1326 25.7222C49.5016 24.5511 55.0868 24.3889 60.5639 24.7853C62.5818 24.9294 64.6537 25.1817 66.6715 25.506C67.0139 25.56 67.3562 25.6141 67.6985 25.6681C67.8246 25.6861 68.4192 25.8122 67.7886 25.6681C67.8967 25.6861 68.0048 25.7041 68.1309 25.7402C68.3471 25.7762 68.5633 25.8303 68.7975 25.8663C69.32 25.9744 70.7073 26.2266 71.0676 25.6501C71.428 25.0736 70.3109 24.6952 69.9326 24.6051C61.825 22.8035 52.9969 22.4972 44.8173 23.7944C38.2772 24.8213 32.3497 27.1094 27.0528 31.1092C21.3775 35.3971 16.477 40.8022 13.1259 47.108C9.77476 53.4139 8.17128 59.8638 8.65773 66.6922C8.74782 67.8272 12.2971 68.0254 12.225 67.1606V67.1786Z" fill="#846DF2"/>
<path d="M89.445 114.44C88.5622 116.98 87.6254 119.502 86.7966 122.079C86.6344 122.565 87.4452 122.673 87.7875 122.691C88.1298 122.709 88.4902 122.691 88.8325 122.565C89.0126 122.511 89.373 122.403 89.427 122.205C90.2558 119.646 91.1927 117.124 92.0755 114.566C92.2557 114.079 91.4089 113.971 91.0846 113.953C90.7423 113.953 90.3819 113.953 90.0396 114.079C89.8594 114.133 89.5171 114.241 89.445 114.44Z" fill="#989DFF"/>
<path d="M106.397 114.854C105.514 117.394 104.577 119.916 103.749 122.493C103.587 122.979 104.397 123.087 104.74 123.105C105.082 123.123 105.442 123.105 105.785 122.979C105.965 122.925 106.325 122.817 106.379 122.619C107.208 120.06 108.145 117.538 109.028 114.98C109.208 114.493 108.361 114.385 108.037 114.367C107.694 114.367 107.334 114.367 106.992 114.493C106.812 114.547 106.469 114.655 106.397 114.854Z" fill="#989DFF"/>
<path d="M124.324 114.846C123.441 117.386 122.504 119.909 121.675 122.485C121.513 122.971 122.324 123.079 122.666 123.097C123.009 123.115 123.369 123.097 123.711 122.971C123.892 122.917 124.252 122.809 124.306 122.611C125.135 120.053 126.072 117.53 126.954 114.972C127.135 114.485 126.288 114.377 125.963 114.359C125.621 114.359 125.261 114.359 124.919 114.485C124.738 114.54 124.396 114.648 124.324 114.846Z" fill="#989DFF"/>
<path d="M131.317 114.854C130.434 117.394 129.497 119.916 128.668 122.493C128.506 122.979 129.317 123.087 129.659 123.105C130.001 123.123 130.362 123.105 130.704 122.979C130.884 122.925 131.245 122.817 131.299 122.619C132.127 120.06 133.064 117.538 133.947 114.98C134.127 114.493 133.28 114.385 132.956 114.367C132.614 114.367 132.253 114.367 131.911 114.493C131.731 114.547 131.389 114.655 131.317 114.854Z" fill="#989DFF"/>
<path d="M95.6959 115.286C94.9572 115.988 94.4167 116.799 94.0203 117.736C93.66 118.565 93.2997 119.483 93.1375 120.366C92.9754 121.249 93.2636 122.06 94.0023 122.582C94.8671 123.195 96.0923 123.285 97.1192 123.159C98.0561 123.051 99.011 122.726 99.7317 122.114C100.452 121.501 101.065 120.709 101.497 119.862C102.308 118.276 102.975 115.682 101.173 114.493C99.9659 113.682 98.0741 113.826 96.8129 114.493C95.8761 114.979 95.2815 115.826 94.6149 116.601C94.4888 116.745 94.6509 116.943 94.759 117.015C94.9752 117.159 95.3175 117.231 95.5698 117.249C96.0923 117.285 96.849 117.267 97.2273 116.835C97.6597 116.331 98.0561 115.772 98.5786 115.376C98.6507 115.322 98.7227 115.268 98.7948 115.232C98.7948 115.232 98.9389 115.141 98.8488 115.195C98.9029 115.159 98.9749 115.141 99.047 115.105C99.2632 114.997 98.9389 115.087 99.1911 115.051C99.083 115.051 98.9209 115.033 98.8308 115.051C98.7588 114.997 98.7768 115.051 98.8308 115.051C98.8849 115.123 98.993 115.159 99.047 115.213C100.164 116.295 99.5515 118.312 98.9569 119.519C98.6326 120.186 98.2002 120.817 97.6778 121.357C97.4796 121.573 97.2453 121.754 97.0111 121.916C96.7769 122.078 97.0832 121.88 96.9391 121.97C96.867 122.006 96.7949 122.042 96.7228 122.06C96.5427 122.15 96.6868 122.078 96.7228 122.06C96.6328 122.096 96.5427 122.114 96.4526 122.132C96.5427 122.114 96.7409 122.06 96.4526 122.132C96.2544 122.15 96.7949 122.132 96.4886 122.132C96.5247 122.132 96.8129 122.168 96.5787 122.132C96.903 122.186 96.6688 122.15 96.5967 122.132C96.4346 122.078 96.831 122.24 96.5967 122.132C96.5427 122.114 96.4886 122.096 96.4346 122.06C96.3805 122.024 96.2724 121.934 96.2364 121.916C95.786 121.483 95.768 120.835 95.8941 120.222C96.0562 119.447 96.3625 118.655 96.6868 117.934C97.0291 117.159 97.4615 116.385 98.0741 115.79C98.4885 115.394 97.966 115.141 97.5696 115.051C97.0832 114.961 96.1283 114.889 95.7319 115.286H95.6959Z" fill="#989DFF"/>
<path d="M112.594 115.286C111.855 115.988 111.315 116.799 110.918 117.736C110.558 118.565 110.198 119.483 110.035 120.366C109.873 121.249 110.162 122.06 110.9 122.582C111.765 123.195 112.99 123.285 114.017 123.159C114.954 123.051 115.909 122.726 116.63 122.114C117.35 121.501 117.963 120.709 118.395 119.862C119.206 118.276 119.873 115.682 118.071 114.493C116.864 113.682 114.972 113.826 113.711 114.493C112.774 114.979 112.179 115.826 111.513 116.601C111.387 116.745 111.549 116.943 111.657 117.015C111.873 117.159 112.215 117.231 112.468 117.249C112.99 117.285 113.747 117.267 114.125 116.835C114.558 116.331 114.954 115.772 115.477 115.376C115.549 115.322 115.621 115.268 115.693 115.232C115.693 115.232 115.837 115.141 115.747 115.195C115.801 115.159 115.873 115.141 115.945 115.105C116.161 114.997 115.837 115.087 116.089 115.051C115.981 115.051 115.819 115.033 115.729 115.051C115.657 114.997 115.675 115.051 115.729 115.051C115.783 115.123 115.891 115.159 115.945 115.213C117.062 116.295 116.449 118.312 115.855 119.519C115.531 120.186 115.098 120.817 114.576 121.357C114.377 121.573 114.143 121.754 113.909 121.916C113.675 122.078 113.981 121.88 113.837 121.97C113.765 122.006 113.693 122.042 113.621 122.06C113.441 122.15 113.585 122.078 113.621 122.06C113.531 122.096 113.441 122.114 113.351 122.132C113.441 122.114 113.639 122.06 113.351 122.132C113.152 122.15 113.693 122.132 113.387 122.132C113.423 122.132 113.711 122.168 113.477 122.132C113.801 122.186 113.567 122.15 113.495 122.132C113.333 122.078 113.729 122.24 113.495 122.132C113.441 122.114 113.387 122.096 113.333 122.06C113.278 122.024 113.17 121.934 113.134 121.916C112.684 121.483 112.666 120.835 112.792 120.222C112.954 119.447 113.26 118.655 113.585 117.934C113.927 117.159 114.359 116.385 114.972 115.79C115.386 115.394 114.864 115.141 114.468 115.051C113.981 114.961 113.026 114.889 112.63 115.286H112.594Z" fill="#989DFF"/>
<path d="M76.1472 126.815C75.2644 129.355 74.3275 131.877 73.4987 134.454C73.3366 134.94 74.1473 135.048 74.4897 135.066C74.832 135.084 75.1923 135.066 75.5346 134.94C75.7148 134.886 76.0751 134.778 76.1292 134.58C76.958 132.021 77.8948 129.499 78.7776 126.941C78.9578 126.454 78.111 126.346 77.7867 126.328C77.4444 126.328 77.0841 126.328 76.7417 126.454C76.5616 126.508 76.2193 126.616 76.1472 126.815Z" fill="#989DFF"/>
<path d="M82.0398 127.049C81.1569 129.589 80.2201 132.112 79.3913 134.688C79.2292 135.174 80.0399 135.283 80.3822 135.301C80.7246 135.319 81.0849 135.301 81.4272 135.174C81.6074 135.12 81.9677 135.012 82.0218 134.814C82.8505 132.256 83.7874 129.733 84.6702 127.175C84.8504 126.689 84.0036 126.581 83.6793 126.562C83.337 126.562 82.9766 126.562 82.6343 126.689C82.4542 126.743 82.1118 126.851 82.0398 127.049Z" fill="#989DFF"/>
<path d="M99.7663 127.229C98.8835 129.769 97.9466 132.291 97.1179 134.868C96.9557 135.354 97.7665 135.462 98.1088 135.48C98.4511 135.498 98.8115 135.48 99.1538 135.354C99.3339 135.3 99.6943 135.192 99.7483 134.994C100.577 132.435 101.514 129.913 102.397 127.355C102.577 126.868 101.73 126.76 101.406 126.742C101.064 126.742 100.703 126.742 100.361 126.868C100.181 126.922 99.8384 127.03 99.7663 127.229Z" fill="#989DFF"/>
<path d="M106.507 127.229C105.624 129.769 104.687 132.291 103.858 134.868C103.696 135.354 104.507 135.462 104.849 135.48C105.191 135.498 105.552 135.48 105.894 135.354C106.074 135.3 106.435 135.192 106.489 134.994C107.317 132.435 108.254 129.913 109.137 127.355C109.317 126.868 108.47 126.76 108.146 126.742C107.804 126.742 107.443 126.742 107.101 126.868C106.921 126.922 106.579 127.03 106.507 127.229Z" fill="#989DFF"/>
<path d="M125.767 127.354C124.884 129.894 123.947 132.416 123.118 134.993C122.956 135.479 123.767 135.587 124.109 135.605C124.452 135.623 124.812 135.605 125.154 135.479C125.334 135.425 125.695 135.317 125.749 135.119C126.578 132.56 127.514 130.038 128.397 127.48C128.577 126.993 127.731 126.885 127.406 126.867C127.064 126.867 126.704 126.867 126.361 126.993C126.181 127.047 125.839 127.155 125.767 127.354Z" fill="#989DFF"/>
<path d="M88.8688 127.661C88.1301 128.363 87.5896 129.174 87.1932 130.111C86.8329 130.94 86.4725 131.858 86.3104 132.741C86.1482 133.624 86.4365 134.435 87.1752 134.957C88.04 135.57 89.2651 135.66 90.2921 135.534C91.229 135.426 92.1838 135.101 92.9045 134.489C93.6252 133.876 94.2377 133.084 94.6701 132.237C95.4809 130.651 96.1475 128.057 94.3458 126.868C93.1387 126.057 91.247 126.201 89.9858 126.868C89.0489 127.354 88.4544 128.201 87.7878 128.976C87.6616 129.12 87.8238 129.318 87.9319 129.39C88.1481 129.534 88.4904 129.606 88.7426 129.624C89.2651 129.66 90.0218 129.642 90.4002 129.21C90.8326 128.706 91.229 128.147 91.7514 127.751C91.8235 127.697 91.8956 127.643 91.9676 127.607C91.9676 127.607 92.1118 127.516 92.0217 127.57C92.0758 127.534 92.1478 127.516 92.2199 127.48C92.4361 127.372 92.1118 127.462 92.364 127.426C92.2559 127.426 92.0938 127.408 92.0037 127.426C91.9316 127.372 91.9496 127.426 92.0037 127.426C92.0577 127.498 92.1658 127.534 92.2199 127.588C93.3369 128.67 92.7244 130.687 92.1298 131.894C91.8055 132.561 91.3731 133.192 90.8506 133.732C90.6524 133.948 90.4182 134.129 90.184 134.291C89.9498 134.453 90.256 134.255 90.1119 134.345C90.0398 134.381 89.9678 134.417 89.8957 134.435C89.7155 134.525 89.8597 134.453 89.8957 134.435C89.8056 134.471 89.7156 134.489 89.6255 134.507C89.7156 134.489 89.9137 134.435 89.6255 134.507C89.4273 134.525 89.9678 134.507 89.6615 134.507C89.6975 134.507 89.9858 134.543 89.7516 134.507C90.0759 134.561 89.8417 134.525 89.7696 134.507C89.6075 134.453 90.0038 134.615 89.7696 134.507C89.7156 134.489 89.6615 134.471 89.6074 134.435C89.5534 134.399 89.4453 134.309 89.4093 134.291C88.9588 133.858 88.9408 133.21 89.0669 132.597C89.2291 131.822 89.5354 131.03 89.8597 130.309C90.202 129.534 90.6344 128.76 91.247 128.165C91.6614 127.769 91.1389 127.516 90.7425 127.426C90.2561 127.336 89.3012 127.264 88.9048 127.661H88.8688Z" fill="#989DFF"/>
<path d="M114.054 127.661C113.316 128.363 112.775 129.174 112.379 130.111C112.018 130.94 111.658 131.858 111.496 132.741C111.334 133.624 111.622 134.435 112.361 134.957C113.226 135.57 114.451 135.66 115.478 135.534C116.414 135.426 117.369 135.101 118.09 134.489C118.811 133.876 119.423 133.084 119.856 132.237C120.666 130.651 121.333 128.057 119.531 126.868C118.324 126.057 116.432 126.201 115.171 126.868C114.234 127.354 113.64 128.201 112.973 128.976C112.847 129.12 113.009 129.318 113.117 129.39C113.334 129.534 113.676 129.606 113.928 129.624C114.451 129.66 115.207 129.642 115.586 129.21C116.018 128.706 116.414 128.147 116.937 127.751C117.009 127.697 117.081 127.643 117.153 127.607C117.153 127.607 117.297 127.516 117.207 127.57C117.261 127.534 117.333 127.516 117.405 127.48C117.622 127.372 117.297 127.462 117.55 127.426C117.441 127.426 117.279 127.408 117.189 127.426C117.117 127.372 117.135 127.426 117.189 127.426C117.243 127.498 117.351 127.534 117.405 127.588C118.522 128.67 117.91 130.687 117.315 131.894C116.991 132.561 116.559 133.192 116.036 133.732C115.838 133.948 115.604 134.129 115.37 134.291C115.135 134.453 115.442 134.255 115.297 134.345C115.225 134.381 115.153 134.417 115.081 134.435C114.901 134.525 115.045 134.453 115.081 134.435C114.991 134.471 114.901 134.489 114.811 134.507C114.901 134.489 115.099 134.435 114.811 134.507C114.613 134.525 115.153 134.507 114.847 134.507C114.883 134.507 115.171 134.543 114.937 134.507C115.261 134.561 115.027 134.525 114.955 134.507C114.793 134.453 115.189 134.615 114.955 134.507C114.901 134.489 114.847 134.471 114.793 134.435C114.739 134.399 114.631 134.309 114.595 134.291C114.144 133.858 114.126 133.21 114.252 132.597C114.415 131.822 114.721 131.03 115.045 130.309C115.388 129.534 115.82 128.76 116.432 128.165C116.847 127.769 116.324 127.516 115.928 127.426C115.442 127.336 114.487 127.264 114.09 127.661H114.054Z" fill="#989DFF"/>
<path d="M132.684 127.661C131.945 128.363 131.405 129.174 131.009 130.111C130.648 130.94 130.288 131.858 130.126 132.741C129.964 133.624 130.252 134.435 130.991 134.957C131.855 135.57 133.081 135.66 134.107 135.534C135.044 135.426 135.999 135.101 136.72 134.489C137.441 133.876 138.053 133.084 138.486 132.237C139.296 130.651 139.963 128.057 138.161 126.868C136.954 126.057 135.062 126.201 133.801 126.868C132.864 127.354 132.27 128.201 131.603 128.976C131.477 129.12 131.639 129.318 131.747 129.39C131.964 129.534 132.306 129.606 132.558 129.624C133.081 129.66 133.837 129.642 134.216 129.21C134.648 128.706 135.044 128.147 135.567 127.751C135.639 127.697 135.711 127.643 135.783 127.607C135.783 127.607 135.927 127.516 135.837 127.57C135.891 127.534 135.963 127.516 136.035 127.48C136.251 127.372 135.927 127.462 136.179 127.426C136.071 127.426 135.909 127.408 135.819 127.426C135.747 127.372 135.765 127.426 135.819 127.426C135.873 127.498 135.981 127.534 136.035 127.588C137.152 128.67 136.54 130.687 135.945 131.894C135.621 132.561 135.189 133.192 134.666 133.732C134.468 133.948 134.234 134.129 133.999 134.291C133.765 134.453 134.071 134.255 133.927 134.345C133.855 134.381 133.783 134.417 133.711 134.435C133.531 134.525 133.675 134.453 133.711 134.435C133.621 134.471 133.531 134.489 133.441 134.507C133.531 134.489 133.729 134.435 133.441 134.507C133.243 134.525 133.783 134.507 133.477 134.507C133.513 134.507 133.801 134.543 133.567 134.507C133.891 134.561 133.657 134.525 133.585 134.507C133.423 134.453 133.819 134.615 133.585 134.507C133.531 134.489 133.477 134.471 133.423 134.435C133.369 134.399 133.261 134.309 133.225 134.291C132.774 133.858 132.756 133.21 132.882 132.597C133.045 131.822 133.351 131.03 133.675 130.309C134.017 129.534 134.45 128.76 135.062 128.165C135.477 127.769 134.954 127.516 134.558 127.426C134.071 127.336 133.117 127.264 132.72 127.661H132.684Z" fill="#989DFF"/>
<path d="M88.1467 139.533C87.2639 142.074 86.327 144.596 85.4982 147.172C85.3361 147.659 86.1468 147.767 86.4892 147.785C86.8315 147.803 87.1918 147.785 87.5341 147.659C87.7143 147.605 88.0746 147.497 88.1287 147.299C88.9575 144.74 89.8943 142.218 90.7772 139.659C90.9573 139.173 90.1105 139.065 89.7862 139.047C89.4439 139.047 89.0836 139.047 88.7413 139.173C88.5611 139.227 88.2188 139.335 88.1467 139.533Z" fill="#989DFF"/>
<path d="M104.162 139.736C103.28 142.277 102.343 144.799 101.514 147.376C101.352 147.862 102.162 147.97 102.505 147.988C102.847 148.006 103.207 147.988 103.55 147.862C103.73 147.808 104.09 147.7 104.144 147.502C104.973 144.943 105.91 142.421 106.793 139.863C106.973 139.376 106.126 139.268 105.802 139.25C105.46 139.25 105.099 139.25 104.757 139.376C104.577 139.43 104.234 139.538 104.162 139.736Z" fill="#989DFF"/>
<path d="M131.44 139.838C130.557 142.378 129.62 144.901 128.791 147.477C128.629 147.964 129.44 148.072 129.782 148.09C130.124 148.108 130.485 148.09 130.827 147.964C131.007 147.91 131.368 147.801 131.422 147.603C132.25 145.045 133.187 142.522 134.07 139.964C134.25 139.478 133.403 139.37 133.079 139.352C132.737 139.352 132.377 139.352 132.034 139.478C131.854 139.532 131.512 139.64 131.44 139.838Z" fill="#989DFF"/>
<path d="M94.1471 140.168C93.4084 140.871 92.8679 141.682 92.4715 142.619C92.1112 143.447 91.7509 144.366 91.5887 145.249C91.4266 146.132 91.7148 146.943 92.4535 147.465C93.3183 148.078 94.5434 148.168 95.5704 148.042C96.5073 147.934 97.4622 147.609 98.1828 146.997C98.9035 146.384 99.5161 145.591 99.9485 144.745C100.759 143.159 101.426 140.565 99.6241 139.376C98.417 138.565 96.5253 138.709 95.2641 139.376C94.3272 139.862 93.7327 140.709 93.0661 141.484C92.9399 141.628 93.1021 141.826 93.2102 141.898C93.4264 142.042 93.7687 142.114 94.0209 142.132C94.5434 142.168 95.3002 142.15 95.6785 141.718C96.1109 141.213 96.5073 140.655 97.0298 140.258C97.1018 140.204 97.1739 140.15 97.246 140.114C97.246 140.114 97.3901 140.024 97.3 140.078C97.354 140.042 97.4261 140.024 97.4982 139.988C97.7144 139.88 97.3901 139.97 97.6423 139.934C97.5342 139.934 97.3721 139.916 97.282 139.934C97.2099 139.88 97.2279 139.934 97.282 139.934C97.336 140.006 97.4441 140.042 97.4982 140.096C98.6152 141.177 98.0026 143.195 97.4081 144.402C97.0838 145.069 96.6514 145.7 96.1289 146.24C95.9307 146.456 95.6965 146.636 95.4623 146.799C95.2281 146.961 95.5344 146.762 95.3902 146.853C95.3182 146.889 95.2461 146.925 95.174 146.943C94.9939 147.033 95.138 146.961 95.174 146.943C95.084 146.979 94.9939 146.997 94.9038 147.015C94.9939 146.997 95.192 146.943 94.9038 147.015C94.7056 147.033 95.2461 147.015 94.9398 147.015C94.9758 147.015 95.2641 147.051 95.0299 147.015C95.3542 147.069 95.12 147.033 95.0479 147.015C94.8858 146.961 95.2821 147.123 95.0479 147.015C94.9939 146.997 94.9398 146.979 94.8858 146.943C94.8317 146.907 94.7236 146.817 94.6876 146.799C94.2372 146.366 94.2191 145.718 94.3453 145.105C94.5074 144.33 94.8137 143.537 95.138 142.817C95.4803 142.042 95.9127 141.267 96.5253 140.673C96.9397 140.276 96.4172 140.024 96.0208 139.934C95.5343 139.844 94.5795 139.772 94.1831 140.168H94.1471Z" fill="#989DFF"/>
<path d="M78.0733 140.161C77.3347 140.863 76.7941 141.674 76.3978 142.611C76.0374 143.44 75.6771 144.358 75.515 145.241C75.3528 146.124 75.6411 146.935 76.3798 147.457C77.2446 148.07 78.4697 148.16 79.4967 148.034C80.4335 147.926 81.3884 147.601 82.1091 146.989C82.8298 146.376 83.4423 145.584 83.8747 144.737C84.6855 143.151 85.3521 140.557 83.5504 139.368C82.3433 138.557 80.4515 138.701 79.1904 139.368C78.2535 139.854 77.6589 140.701 76.9923 141.476C76.8662 141.62 77.0284 141.818 77.1365 141.89C77.3527 142.034 77.695 142.106 77.9472 142.124C78.4697 142.16 79.2264 142.142 79.6047 141.71C80.0371 141.206 80.4335 140.647 80.956 140.251C81.0281 140.197 81.1002 140.143 81.1722 140.107C81.1722 140.107 81.3164 140.016 81.2263 140.07C81.2803 140.034 81.3524 140.016 81.4245 139.98C81.6407 139.872 81.3164 139.962 81.5686 139.926C81.4605 139.926 81.2983 139.908 81.2083 139.926C81.1362 139.872 81.1542 139.926 81.2083 139.926C81.2623 139.998 81.3704 140.034 81.4245 140.088C82.5415 141.169 81.9289 143.187 81.3344 144.394C81.0101 145.061 80.5776 145.692 80.0552 146.232C79.857 146.448 79.6228 146.629 79.3886 146.791C79.1543 146.953 79.4606 146.755 79.3165 146.845C79.2444 146.881 79.1723 146.917 79.1003 146.935C78.9201 147.025 79.0642 146.953 79.1003 146.935C79.0102 146.971 78.9201 146.989 78.83 147.007C78.9201 146.989 79.1183 146.935 78.83 147.007C78.6319 147.025 79.1724 147.007 78.8661 147.007C78.9021 147.007 79.1904 147.043 78.9562 147.007C79.2805 147.061 79.0462 147.025 78.9742 147.007C78.812 146.953 79.2084 147.115 78.9742 147.007C78.9201 146.989 78.8661 146.971 78.812 146.935C78.758 146.899 78.6499 146.809 78.6138 146.791C78.1634 146.358 78.1454 145.71 78.2715 145.097C78.4337 144.322 78.74 143.53 79.0643 142.809C79.4066 142.034 79.839 141.26 80.4515 140.665C80.8659 140.269 80.3434 140.016 79.9471 139.926C79.4606 139.836 78.5058 139.764 78.1094 140.161H78.0733Z" fill="#989DFF"/>
<path d="M120.972 140.161C120.233 140.863 119.693 141.674 119.296 142.611C118.936 143.44 118.576 144.358 118.413 145.241C118.251 146.124 118.54 146.935 119.278 147.457C120.143 148.07 121.368 148.16 122.395 148.034C123.332 147.926 124.287 147.601 125.008 146.989C125.728 146.376 126.341 145.584 126.773 144.737C127.584 143.151 128.251 140.557 126.449 139.368C125.242 138.557 123.35 138.701 122.089 139.368C121.152 139.854 120.557 140.701 119.891 141.476C119.765 141.62 119.927 141.818 120.035 141.89C120.251 142.034 120.593 142.106 120.846 142.124C121.368 142.16 122.125 142.142 122.503 141.71C122.936 141.206 123.332 140.647 123.854 140.251C123.927 140.197 123.999 140.143 124.071 140.107C124.071 140.107 124.215 140.016 124.125 140.07C124.179 140.034 124.251 140.016 124.323 139.98C124.539 139.872 124.215 139.962 124.467 139.926C124.359 139.926 124.197 139.908 124.107 139.926C124.035 139.872 124.053 139.926 124.107 139.926C124.161 139.998 124.269 140.034 124.323 140.088C125.44 141.169 124.827 143.187 124.233 144.394C123.909 145.061 123.476 145.692 122.954 146.232C122.755 146.448 122.521 146.629 122.287 146.791C122.053 146.953 122.359 146.755 122.215 146.845C122.143 146.881 122.071 146.917 121.999 146.935C121.819 147.025 121.963 146.953 121.999 146.935C121.909 146.971 121.819 146.989 121.728 147.007C121.819 146.989 122.017 146.935 121.728 147.007C121.53 147.025 122.071 147.007 121.765 147.007C121.801 147.007 122.089 147.043 121.855 147.007C122.179 147.061 121.945 147.025 121.873 147.007C121.71 146.953 122.107 147.115 121.873 147.007C121.819 146.989 121.765 146.971 121.71 146.935C121.656 146.899 121.548 146.809 121.512 146.791C121.062 146.358 121.044 145.71 121.17 145.097C121.332 144.322 121.638 143.53 121.963 142.809C122.305 142.034 122.737 141.26 123.35 140.665C123.764 140.269 123.242 140.016 122.846 139.926C122.359 139.836 121.404 139.764 121.008 140.161H120.972Z" fill="#989DFF"/>
<path d="M110.109 140.161C109.37 140.863 108.83 141.674 108.433 142.611C108.073 143.44 107.713 144.358 107.551 145.241C107.388 146.124 107.677 146.935 108.415 147.457C109.28 148.07 110.505 148.16 111.532 148.034C112.469 147.926 113.424 147.601 114.145 146.989C114.865 146.376 115.478 145.584 115.91 144.737C116.721 143.151 117.388 140.557 115.586 139.368C114.379 138.557 112.487 138.701 111.226 139.368C110.289 139.854 109.695 140.701 109.028 141.476C108.902 141.62 109.064 141.818 109.172 141.89C109.388 142.034 109.731 142.106 109.983 142.124C110.505 142.16 111.262 142.142 111.64 141.71C112.073 141.206 112.469 140.647 112.992 140.251C113.064 140.197 113.136 140.143 113.208 140.107C113.208 140.107 113.352 140.016 113.262 140.07C113.316 140.034 113.388 140.016 113.46 139.98C113.676 139.872 113.352 139.962 113.604 139.926C113.496 139.926 113.334 139.908 113.244 139.926C113.172 139.872 113.19 139.926 113.244 139.926C113.298 139.998 113.406 140.034 113.46 140.088C114.577 141.169 113.965 143.187 113.37 144.394C113.046 145.061 112.613 145.692 112.091 146.232C111.893 146.448 111.658 146.629 111.424 146.791C111.19 146.953 111.496 146.755 111.352 146.845C111.28 146.881 111.208 146.917 111.136 146.935C110.956 147.025 111.1 146.953 111.136 146.935C111.046 146.971 110.956 146.989 110.866 147.007C110.956 146.989 111.154 146.935 110.866 147.007C110.668 147.025 111.208 147.007 110.902 147.007C110.938 147.007 111.226 147.043 110.992 147.007C111.316 147.061 111.082 147.025 111.01 147.007C110.848 146.953 111.244 147.115 111.01 147.007C110.956 146.989 110.902 146.971 110.848 146.935C110.794 146.899 110.686 146.809 110.649 146.791C110.199 146.358 110.181 145.71 110.307 145.097C110.469 144.322 110.776 143.53 111.1 142.809C111.442 142.034 111.875 141.26 112.487 140.665C112.902 140.269 112.379 140.016 111.983 139.926C111.496 139.836 110.541 139.764 110.145 140.161H110.109Z" fill="#989DFF"/>
<path d="M190.199 39.5451C197.103 39.651 203.121 46.7091 201.475 53.5553C200.724 56.6654 198.788 59.6601 195.822 61.037C193.078 62.308 189.901 62.7028 186.906 62.7028C183.382 62.7028 179.848 62.7028 176.324 62.7028H138.251C137.644 62.7028 137.028 62.7124 136.421 62.7028C136.229 62.7028 136.604 62.7028 136.604 62.7028C136.546 62.7221 136.44 62.7028 136.383 62.7124C135.921 62.7317 135.449 62.7317 134.987 62.7124C131.597 62.6065 127.909 61.8843 125.155 59.7949C123.47 58.5142 122.276 56.781 121.727 54.7204C121.034 52.082 121.236 49.0585 122.17 46.5069C123.769 42.1449 127.88 39.4777 132.281 38.5244C133.186 38.3319 134.11 38.2067 135.044 38.1682L134.11 38.6207C134.216 37.186 134.572 35.732 134.987 34.3551C135.901 31.3123 137.394 28.4236 139.531 26.0645C145.347 19.6227 155.612 17.851 163.19 22.1359C165.077 23.2047 166.984 24.6394 168.303 26.3823L166.685 26.3245C169.978 24.4083 174.215 23.6476 177.961 24.0809C184.114 24.7935 189.236 29.685 190.623 35.6646C190.931 36.9934 191.133 38.4667 190.95 39.8436C190.873 40.4406 188.967 40.4406 189.034 39.9784C189.477 36.6468 188.129 32.9685 186.155 30.3494C184.181 27.7303 181.649 25.8334 178.577 25.0824C176.314 24.5239 173.926 24.6972 171.702 25.3231C170.46 25.6697 169.218 26.1223 168.091 26.7674C167.735 26.9696 166.762 27.0948 166.473 26.7097C165.491 25.4194 164.172 24.3217 162.834 23.4166C159.81 21.3656 156.218 20.2871 152.559 20.6049C148.467 20.9612 144.567 22.8484 141.717 25.7949C139.58 28.0096 138.058 30.7924 137.086 33.7099C136.575 35.2409 136.152 36.8682 136.036 38.4763C136.007 38.8229 135.343 38.9192 135.102 38.9288C133.427 38.9963 131.751 39.3814 130.105 40.1325C128.217 40.9991 126.542 42.3182 125.348 44.0322C123.855 46.1795 123.249 48.76 123.278 51.3502C123.297 53.6901 123.798 55.9818 125.3 57.8305C126.446 59.2364 128.025 60.2282 129.719 60.854C130.509 61.1429 131.318 61.374 132.127 61.5377C132.502 61.6147 132.878 61.6725 133.263 61.7303C133.446 61.7592 133.629 61.7784 133.821 61.7977C133.908 61.7977 133.985 61.8169 134.072 61.8266C134.274 61.8458 134.053 61.8266 134.197 61.8362C134.755 61.8844 135.314 61.9132 135.872 61.9229C135.978 61.9229 136.084 61.9229 136.181 61.9229C136.219 61.9229 136.267 61.9229 136.306 61.9229C136.45 61.9229 136.036 61.9325 136.209 61.9229C136.306 61.9229 136.412 61.9229 136.508 61.9132C136.893 61.9036 137.278 61.9132 137.663 61.9132C140.225 61.9132 142.776 61.9132 145.338 61.9132H172.231C176.199 61.9132 180.156 61.9132 184.123 61.9132C188.418 61.9132 193.55 62.2214 196.785 58.8801C199.116 56.4729 200.252 52.8716 199.674 49.5785C199.135 46.555 197.238 43.5796 194.609 41.9523C193.174 41.0665 191.47 40.3347 189.766 40.3058C189.544 40.3058 188.938 40.2288 189.063 39.8821C189.188 39.5355 189.968 39.5258 190.228 39.5258L190.199 39.5451Z" fill="#846DF2"/>
<path d="M173.233 17.3979C171.615 20.2962 169.968 23.1752 168.264 26.0254C167.975 26.5069 166.126 26.3143 166.406 25.8425C168.1 22.9923 169.757 20.1132 171.374 17.2149C171.644 16.7334 173.502 16.9068 173.233 17.3979Z" fill="#846DF2"/>
<path d="M172.915 19.351C171.155 19.351 169.728 17.924 169.728 16.1638C169.728 14.4035 171.155 12.9766 172.915 12.9766C174.676 12.9766 176.103 14.4035 176.103 16.1638C176.103 17.924 174.676 19.351 172.915 19.351Z" fill="#846DF2"/>
<path d="M179.491 13.7738C179.337 12.3005 178.663 10.6925 177.575 9.68146C176.053 8.266 173.665 8.09268 171.903 8.94966C171.528 9.13261 170.912 9.09409 170.546 8.92077C170.18 8.74745 170.228 8.53561 170.555 8.37192C172.356 7.50531 174.725 7.42828 176.612 7.95787C177.854 8.30452 178.971 8.91114 179.809 9.90293C180.396 10.6058 180.801 11.4436 181.08 12.3198C181.234 12.8013 181.369 13.3116 181.426 13.8123C181.484 14.313 179.558 14.3611 179.501 13.7738H179.491Z" fill="#846DF2"/>
<path d="M187.58 15.7515C187.696 13.3732 186.839 10.6771 185.664 8.57794C183.045 3.89826 178 1.2214 172.713 1.02882C171.673 0.990303 170.633 1.02882 169.603 1.17325C169.43 1.19251 169.266 1.2214 169.093 1.25029C169.025 1.25991 168.948 1.26954 168.881 1.2888C169.006 1.26954 168.987 1.26954 168.881 1.2888C168.775 1.30806 168.65 1.33695 168.544 1.36583C168.323 1.42361 167.726 1.5199 167.754 1.15399C167.774 0.797721 168.525 0.557 168.775 0.499226C172.607 -0.454044 177.027 -0.0207396 180.599 1.61619C184.961 3.60939 188.139 7.6343 189.102 12.3236C189.304 13.2961 189.449 14.3361 189.4 15.3375C189.371 15.8671 187.552 16.3774 187.58 15.7804V15.7515Z" fill="#846DF2"/>
</svg>
