<svg width="19" height="18" viewBox="0 0 19 18" fill="none" xmlns="http://www.w3.org/2000/svg">
<path d="M0.5 2.90615C0.683115 4.1935 2.15358 8.61046 2.81113 11.7761C3.0431 12.8929 3.27447 14.7309 3.54914 16.3984C3.95218 18.8451 8.81231 15.1138 11.584 14.6533C14.3034 14.2014 16.5864 14.742 17.5103 14.7448C19.5005 14.7508 17.8904 10.6858 17.7933 4.77891C17.7717 3.46358 18.0679 2.91724 18.1623 2.35958C18.2566 1.80191 18.2566 1.25256 16.9748 0.969566C9.93875 0.503455 6.2598 0.131676 3.28279 1.14436C2.72513 1.42458 2.17578 1.60769 0.5 2.35125" stroke="#757575" stroke-linecap="round"/>
<path d="M5.65137 4.66693H14.5459" stroke="#757575" stroke-linecap="round"/>
<path d="M7.12305 8.4657C7.38988 8.4657 8.12773 8.33228 9.20417 8.09678C9.68023 7.99469 10.0138 7.92798 10.4191 7.89362C10.8244 7.85925 11.2914 7.85925 11.7725 7.85925" stroke="#757575" stroke-linecap="round"/>
<path d="M10.0674 11.5388H14.919" stroke="#757575" stroke-linecap="round"/>
</svg>
