<svg width="95" height="85" viewBox="0 0 95 85" fill="none" xmlns="http://www.w3.org/2000/svg">
<path fill-rule="evenodd" clip-rule="evenodd" d="M24.7463 58.4391C24.4836 59.5594 23.7165 59.3276 28.014 61.3387C32.3116 63.3499 42.6013 68.0209 43.2678 68.2332C43.9344 68.4455 48.4644 69.1286 48.9288 68.9562C49.3932 68.7839 55.0812 64.3759 55.0812 64.3759L58.7163 54.8963L63.2348 43.4392C63.2348 43.4392 65.4439 38.7727 65.1164 38.2189C64.7889 37.665 65.0428 37.5903 58.7679 34.8725C52.493 32.1547 46.1056 28.7495 45.1399 28.6384C44.1741 28.5274 39.0641 30.1471 38.2881 30.5676C38.0263 30.7077 37.734 30.9468 37.4787 31.335C36.7062 32.5126 35.473 35.1904 34.7764 36.7269C33.638 39.2341 28.706 49.5142 28.706 49.5142L24.7472 58.442L24.7463 58.4391Z" fill="#B5F485"/>
<path d="M48.1497 60.5111L42.6857 57.9621C42.5917 57.9183 42.5509 57.8071 42.5944 57.7136L44.4405 53.7512C44.484 53.6577 44.5954 53.6175 44.6893 53.6613L50.1534 56.2102C50.2473 56.254 50.2881 56.3653 50.2446 56.4587L48.3985 60.4212C48.355 60.5146 48.2436 60.5549 48.1497 60.5111Z" fill="white"/>
<path d="M32.3231 56.2218C32.8075 57.0861 33.5126 57.7191 34.3284 58.2929C34.9737 58.669 35.5498 57.6948 34.9075 57.3131C34.1238 56.9527 33.5775 56.1877 32.8151 55.7594C32.5258 55.5949 32.1783 55.9296 32.3231 56.2218Z" fill="#846DF2"/>
<path d="M43.1715 61.4175C42.4436 61.1249 41.6009 61.1507 40.8947 60.8719C40.5967 60.7652 40.2708 60.917 40.165 61.2137C39.9236 62.1654 41.3052 62.0545 41.8741 62.1458C42.3104 62.1456 43.4804 62.3859 43.3785 61.6465C43.3453 61.5403 43.2678 61.4587 43.1715 61.4175Z" fill="#846DF2"/>
<path d="M45.7915 59.4373L42.505 57.9041C42.4612 57.8837 42.4422 57.8319 42.4625 57.7884L44.3641 53.7067C44.3843 53.6632 44.4362 53.6444 44.48 53.6648L47.7665 55.198C47.8103 55.2184 47.8293 55.2702 47.809 55.3138L45.9075 59.3954C45.8872 59.439 45.8353 59.4577 45.7915 59.4373Z" fill="#846DF2"/>
<path d="M49.8802 55.6258C49.8632 55.6168 49.8462 55.6079 49.8292 55.5989L45.423 53.5425C44.8442 53.2734 44.1592 53.5213 43.8918 54.0972L42.5072 57.0669C42.378 57.344 42.3643 57.658 42.4702 57.9464C42.5779 58.2358 42.7782 58.4732 43.0673 58.5968L47.4735 60.6533C48.0504 60.9214 48.7373 60.6745 49.0037 60.1004L50.3874 57.1279C50.5166 56.8508 50.5303 56.5367 50.4244 56.2483C50.324 55.9772 50.131 55.758 49.8764 55.6238L49.8802 55.6258ZM49.4774 56.3533C49.6454 56.4323 49.7066 56.618 49.633 56.7758L48.2494 59.7484C48.1758 59.9062 47.9849 59.9758 47.8244 59.9008L43.4182 57.8443C43.2768 57.765 43.1889 57.5796 43.2625 57.4218L44.6471 54.4522C44.6828 54.3751 44.7468 54.3177 44.8274 54.2883C44.908 54.2588 44.9946 54.2637 45.072 54.2997L49.4783 56.3562L49.4774 56.3533Z" fill="#846DF2"/>
<path d="M36.1281 54.7674L30.6505 52.2121C30.5566 52.1683 30.5158 52.0571 30.5593 51.9636L32.4053 48.0012C32.4488 47.9077 32.5602 47.8675 32.6541 47.9113L38.1317 50.4665C38.2256 50.5103 38.2665 50.6216 38.2229 50.715L36.3769 54.6775C36.3334 54.7709 36.222 54.8112 36.1281 54.7674Z" fill="white"/>
<path d="M33.7499 53.8424L30.5831 52.3651C30.5394 52.3447 30.5203 52.2928 30.5406 52.2493L32.5344 47.9696C32.5547 47.9261 32.6066 47.9073 32.6504 47.9277L35.8171 49.405C35.8609 49.4254 35.8799 49.4772 35.8596 49.5208L33.8658 53.8005C33.8455 53.844 33.7936 53.8628 33.7499 53.8424Z" fill="#846DF2"/>
<path d="M37.8599 49.8778C37.8429 49.8688 37.8259 49.8599 37.809 49.8509L33.4027 47.7945C33.1223 47.6635 32.8092 47.6495 32.5204 47.7538C32.2316 47.8581 31.9999 48.0692 31.8725 48.3473L30.488 51.317C30.3587 51.5941 30.345 51.9082 30.4509 52.1966C30.5568 52.4849 30.7589 52.7233 31.048 52.847L35.4542 54.9034C36.0311 55.1715 36.718 54.9246 36.9845 54.3506L38.3681 51.378C38.4973 51.1009 38.5111 50.7869 38.4052 50.4985C38.3047 50.2273 38.1117 50.0081 37.8571 49.8739L37.8599 49.8778ZM37.4571 50.6053C37.6099 50.6859 37.6863 50.87 37.6128 51.0278L36.2291 54.0004C36.1555 54.1582 35.9646 54.2278 35.8041 54.1528L31.3979 52.0963C31.2472 52.0073 31.1687 51.8316 31.2422 51.6738L32.6278 48.7023C32.6636 48.6252 32.7276 48.5679 32.8082 48.5384C32.8878 48.5109 32.9753 48.5139 33.0528 48.5499L37.459 50.6063L37.4571 50.6053Z" fill="#846DF2"/>
<path d="M58.9373 39.0764C59.4687 39.3302 60.1344 39.5349 60.508 40.0195C60.8147 40.4161 60.6945 40.8179 60.55 41.2476C60.2981 42.0043 60.0179 42.7509 59.7319 43.4945C58.9393 45.5606 58.0918 47.6073 57.2359 49.6473C55.5171 53.7402 53.7519 57.8159 51.8999 61.8507C51.6523 62.3891 51.4036 62.9293 51.1428 63.4608C51.0317 63.6851 50.9421 63.9376 50.7522 64.1012C50.3531 64.4423 49.8468 64.7077 49.4106 65.0004L46.8132 66.741C46.1492 67.187 45.4832 67.6319 44.8191 68.0779C44.0508 68.5936 43.2315 68.598 42.3806 68.2095C40.5704 67.3824 38.7612 66.5534 36.9538 65.7254C34.546 64.6192 32.1381 63.513 29.7352 62.3975C28.7127 61.9232 27.693 61.4481 26.6734 60.9682C26.2892 60.7872 25.9068 60.6073 25.5246 60.4226C25.1423 60.2379 24.6861 60.0837 24.4018 59.7636C23.7977 59.0807 24.4158 58.2053 24.7259 57.5392C25.2846 56.3376 25.8433 55.136 26.4019 53.9344C28.1168 50.2422 29.8325 46.5528 31.5474 42.8605C33.0594 39.608 34.5705 36.3526 36.0825 33.1001C36.3966 32.4265 36.6966 31.7431 37.023 31.0736C37.9256 29.2285 40.5166 30.8652 41.8023 31.4254C46.7053 33.5591 51.6151 35.6844 56.4762 37.9158C57.3421 38.3123 58.205 38.7144 59.059 39.1334C59.3006 39.2512 59.2013 39.4122 59.0075 39.4827C58.7417 39.58 58.3724 39.4668 58.1308 39.349C53.7396 37.2046 49.2247 35.2995 44.747 33.342C43.6484 32.8612 42.5488 32.3823 41.4491 31.9034C40.6235 31.5449 39.8027 31.1314 38.958 30.818C38.5768 30.677 38.3431 31.0837 38.1921 31.4069L37.7885 32.2731C36.4962 35.054 35.2039 37.8349 33.9116 40.6158C32.2027 44.2921 30.4968 47.9674 28.7879 51.6437C27.7192 53.9455 26.6496 56.2444 25.5809 58.5462C25.4657 58.7923 25.3344 59.0276 25.3708 59.3153C25.4327 59.8059 25.8968 59.945 26.2744 60.1249C26.652 60.3047 27.0239 60.4816 27.3987 60.6576C29.5266 61.6593 31.6605 62.6451 33.7973 63.63C36.0077 64.6489 38.2201 65.664 40.4354 66.6783C41.2097 67.0337 41.9869 67.3882 42.7622 67.7417C43.1465 67.9179 43.2092 68.0276 43.5436 67.8275C43.6815 67.7443 43.8148 67.6468 43.949 67.5569C45.473 66.5356 46.997 65.5144 48.5182 64.4941C48.8898 64.2464 49.404 64.0115 49.7179 63.6903C49.5926 63.8184 49.7358 63.6062 49.7556 63.5639C49.8133 63.4409 49.8933 63.2936 49.9648 63.1443C51.5734 59.8228 53.0198 56.4158 54.4782 53.0272C56.1242 49.2003 57.819 45.3633 59.1871 41.4235C59.29 41.1277 59.4675 40.7681 59.4765 40.4539C59.4943 39.8304 58.7018 39.6237 58.2478 39.4059C58.0741 39.324 57.867 39.1956 58.0769 39.0353C58.2635 38.8915 58.7485 38.9865 58.9373 39.0764Z" fill="#846DF2"/>
<path d="M40.8684 51.9305C40.9641 51.909 41.0506 51.8683 41.1308 51.8122L41.0747 51.8546C41.2612 51.7156 41.373 51.5035 41.4468 51.2859L41.4264 51.3519C41.4499 51.2708 41.4534 51.1911 41.4379 51.1062L41.4553 51.1921C41.4475 51.152 41.4348 51.1165 41.4194 51.0772C41.3949 51.014 41.4655 51.1543 41.4387 51.1138C41.4248 51.0945 41.3793 51.0298 41.4406 51.11C41.4741 51.1517 41.4797 51.1594 41.4573 51.1332L41.5377 51.2139C41.5077 51.1885 41.5199 51.1974 41.5734 51.2423C41.6211 51.2843 41.6747 51.3197 41.7332 51.3506L41.8352 51.3995C41.9308 51.4283 41.9535 51.4355 41.9042 51.4239L41.9736 51.4341C41.9593 51.4338 41.9469 51.4344 41.9326 51.4341L42.0186 51.4219C41.9737 51.4293 41.9362 51.4456 41.8995 51.4694L41.9556 51.427C41.8416 51.5108 41.7487 51.6321 41.6637 51.7431C41.5718 51.8625 41.4941 51.9917 41.4503 52.1341L41.4707 52.0681C41.4421 52.1681 41.4334 52.2714 41.4543 52.3735L41.4369 52.2877C41.4421 52.3144 41.4587 52.3423 41.462 52.368C41.466 52.4061 41.4178 52.2872 41.4353 52.318C41.4483 52.3392 41.4418 52.3286 41.4102 52.288C41.3787 52.2426 41.3395 52.2027 41.2973 52.1685L41.1931 52.0872L40.9641 51.9593C40.9641 51.9593 40.8285 51.9238 40.8921 51.9358C40.8722 51.9325 40.7808 51.9275 40.8513 51.9263C40.8685 51.9257 40.8856 51.9252 40.9009 51.9236L40.8149 51.9359C40.9019 51.9218 40.9797 51.8884 41.0531 51.836L40.9971 51.8784C41.1382 51.7706 41.2289 51.617 41.2817 51.4482L41.2613 51.5142C41.2664 51.5001 41.2705 51.4831 41.2737 51.468C41.2716 51.4261 41.2874 51.3961 41.3201 51.3798C41.3503 51.3501 41.3895 51.3396 41.4342 51.3464C41.5552 51.3454 41.7063 51.4107 41.8062 51.4681C41.9447 51.5483 42.0819 51.6446 42.1862 51.7668L42.268 51.8722C42.3089 51.9273 42.3296 51.9886 42.336 52.0543C42.2825 52.2563 42.2007 52.4481 42.0361 52.5819C41.8493 52.7352 41.6293 52.7823 41.3922 52.7245C41.1552 52.6666 40.9283 52.5255 40.7457 52.3645C40.6099 52.2426 40.4748 52.0874 40.4182 51.9113C40.3526 51.7065 40.3774 51.5086 40.4593 51.312C40.5412 51.1155 40.6738 50.96 40.811 50.8093C40.8753 50.7377 40.9539 50.6617 41.0461 50.624C41.2074 50.5603 41.4047 50.6068 41.5568 50.6702C41.9254 50.8213 42.2705 51.1039 42.4397 51.4688C42.5257 51.6532 42.5249 51.8422 42.4593 52.0306C42.3455 52.347 42.1264 52.6439 41.7799 52.725C41.6699 52.7509 41.5599 52.7218 41.4588 52.6804C41.3151 52.6239 41.1636 52.5272 41.0504 52.422C40.9596 52.3382 40.8454 52.2348 40.8106 52.1134C40.7918 52.0483 40.7777 51.9426 40.8696 51.9191L40.8684 51.9305Z" fill="#846DF2"/>
<path fill-rule="evenodd" clip-rule="evenodd" d="M48.6827 49.615C48.5663 49.8678 47.6166 50.5036 47.3454 50.4374C46.1632 50.1427 43.7408 49.0504 42.7596 48.6027C41.5755 48.0601 38.4677 46.8415 38.4019 46.0108C38.336 45.1801 41.3451 38.1181 41.3451 38.1181C41.3451 38.1181 42.2724 36.2765 43.3366 36.1278C43.8467 36.0562 45.6085 36.7786 47.6566 37.7168C49.8738 38.732 51.9665 39.581 52.2163 40.1131C52.6957 41.133 50.4581 45.7988 50.4581 45.7988L48.6845 49.6207L48.6827 49.615Z" fill="#FFF485"/>
<path d="M46.2917 50.3234C43.9013 49.2481 41.4474 48.2567 39.1018 47.0874C38.2195 46.6487 37.6704 45.7335 38.0812 44.7896C38.2567 44.3834 38.4238 43.9704 38.5937 43.5613L40.7106 38.4937C40.9243 37.983 41.1258 37.4682 41.3509 36.9635C41.6606 36.2661 42.3301 35.8877 43.0892 35.8466C43.8225 35.8088 44.4703 36.0568 45.116 36.3588C45.8279 36.6909 46.5389 37.0201 47.2508 37.3522C48.6736 38.0134 50.1053 38.6626 51.5221 39.3399C52.3112 39.7175 52.8926 40.3428 52.8386 41.2638C52.8082 41.7968 52.5427 42.2778 52.3333 42.7573C51.6186 44.3921 50.902 46.0259 50.1872 47.6608C49.7357 48.6911 49.3188 50.2503 48.0774 50.5478C47.4706 50.6931 46.858 50.5476 46.2907 50.3253C46.1054 50.2516 45.9352 50.0852 46.139 49.9456C46.3427 49.8061 46.7914 49.9515 46.9966 50.0332C47.6177 50.2768 48.1989 49.1422 48.3833 48.7239C48.5506 48.3469 48.7132 47.9699 48.8787 47.592C49.5445 46.0728 50.2084 44.5527 50.8742 43.0335C51.3128 42.0323 52.2684 40.4022 50.8917 39.6717C49.7573 39.0714 48.5483 38.5804 47.3832 38.0382L45.0861 36.9688C44.717 36.7958 44.3393 36.5751 43.9541 36.4416C42.773 36.0396 42.3139 37.8524 42.0013 38.5963C41.349 40.1585 40.6976 41.7188 40.0434 43.2801C39.8256 43.803 39.6059 44.325 39.3881 44.8479C39.1174 45.494 39.0228 46.0987 39.6068 46.6367C39.8623 46.8745 40.2222 46.9827 40.5339 47.123C41.2233 47.4336 41.9108 47.7433 42.6003 48.054C43.9772 48.6743 45.3561 49.2956 46.734 49.914C46.82 49.9522 46.9078 49.9913 46.9928 50.0313C47.1722 50.1115 47.3531 50.2667 47.1445 50.4109C46.936 50.5551 46.4834 50.4125 46.2869 50.3233L46.2917 50.3234Z" fill="#846DF2"/>
<path d="M44.2156 48.8514C45.4607 45.2639 46.888 41.715 48.53 38.2889C48.668 37.9996 49.7496 38.6224 49.5848 38.9671C47.9428 42.3932 46.5155 45.9422 45.2704 49.5296C45.1756 49.8009 44.0854 49.2311 44.2156 48.8514Z" fill="#846DF2"/>
<path d="M40.9146 47.235C42.5639 43.8318 44.1116 40.356 45.5191 36.8446C45.6232 36.583 46.6809 37.2101 46.5317 37.5846C45.1243 41.096 43.5746 44.5708 41.9273 47.975C41.7953 48.2483 40.7449 47.5891 40.9146 47.235Z" fill="#846DF2"/>
<path d="M49 47.5254C48.5649 47.1666 48.022 46.9164 47.5279 46.6559C46.6414 46.1887 45.7412 45.7429 44.8389 45.3057C43.075 44.4502 41.2994 43.6078 39.4897 42.8481C39.3338 42.7827 39.0133 42.6545 39.1384 42.4447C39.2467 42.2621 39.7993 42.4071 39.9278 42.4605C41.8301 43.2594 43.6993 44.1392 45.5557 45.0386C46.4882 45.4917 47.4177 45.9505 48.3333 46.4356C48.8755 46.7237 49.4684 47.0027 49.9438 47.3947C50.4483 47.8093 49.2523 47.7327 48.9991 47.5226L49 47.5254Z" fill="#846DF2"/>
<path d="M50.6 44.2051C47.3734 42.828 44.217 41.2673 41.0897 39.6788C40.9585 39.612 40.5332 39.3902 40.6325 39.1836C40.7317 38.977 41.191 39.1711 41.3051 39.2289C44.4324 40.8174 47.5888 42.3781 50.8155 43.7552C50.9516 43.8126 51.368 44.0513 51.2727 44.2504C51.1774 44.4495 50.7182 44.2554 50.6 44.2051Z" fill="#846DF2"/>
<path d="M46.8699 31.4855C49.4841 26.5626 52.4621 21.8411 55.7822 17.3622C55.913 17.5438 56.0447 17.7283 56.1755 17.91C55.3903 17.429 54.6022 16.9488 53.817 16.4678C54.0434 16.4864 54.2706 16.5079 54.497 16.5265C54.5266 16.9641 55.1788 17.7251 55.4935 17.855C55.3676 17.8606 55.2428 17.8643 55.115 17.8689L55.3526 17.3587C55.4834 17.5404 55.6151 17.7249 55.7459 17.9065C55.3248 17.663 54.9008 17.4203 54.4797 17.1767C54.6142 17.0678 54.7496 16.9618 54.8841 16.8529L55.5631 17.4577C55.6895 17.5699 55.9529 17.7927 55.7679 17.9517C55.6061 18.0894 55.1292 17.778 55.0243 17.6844L54.3453 17.0795C54.247 16.9917 53.9611 16.7523 54.1144 16.6078C54.2677 16.4632 54.6254 16.6853 54.7488 16.7576C55.1699 17.0011 55.5939 17.2438 56.015 17.4873C56.1573 17.5695 56.5038 17.8313 56.4084 18.0351L56.1708 18.5453C56.1171 18.6608 55.8698 18.5904 55.7923 18.5592C55.1733 18.3024 54.6527 17.8817 54.2089 17.3841C53.8751 17.0115 53.4408 16.514 53.4061 15.9899C53.3854 15.6817 54.0202 16.0091 54.0862 16.0486C54.8714 16.5296 55.6594 17.0098 56.4446 17.4908C56.5538 17.558 56.97 17.8612 56.8379 18.0386C53.5197 22.5185 50.5398 27.239 47.9257 32.1618C47.7714 32.4545 46.6948 31.8176 46.8689 31.4873L46.8699 31.4855Z" fill="#846DF2"/>
<path d="M56.5651 36.0182C59.521 31.5032 62.2268 26.8181 64.5325 21.9364C64.5695 21.8935 64.6156 21.8747 64.6727 21.876C65.6823 21.8903 66.6329 21.9431 67.5689 22.3621C67.6955 22.4192 68.3566 22.8612 68.0532 23.0345C67.296 23.4697 66.1532 23.3973 65.3106 23.4686C65.0559 23.4902 64.238 23.0711 64.3941 22.7338L64.6108 22.2678C64.6479 22.225 64.694 22.2061 64.7511 22.2074C65.2779 22.2094 65.8056 22.2095 66.3305 22.2104C66.5877 22.2117 66.8637 22.374 67.0452 22.5464C67.1107 22.6097 67.4104 22.9235 67.1929 22.9886C66.9016 23.0749 66.6093 23.163 66.318 23.2492C65.9578 23.3566 65.0812 22.5733 65.3706 22.4861C65.66 22.3988 65.9542 22.3117 66.2455 22.2255C66.5329 22.4849 66.8203 22.7443 67.1078 23.0037C66.7277 23.0024 66.3476 23.001 65.9684 23.0026C65.8579 23.0019 65.6444 22.9588 65.5369 23.0028C65.776 22.9059 65.5125 23.2777 65.4499 23.4102L64.5334 22.6753C65.333 22.6077 66.3919 22.6839 67.1067 22.2743C67.2681 22.4984 67.4295 22.7226 67.5909 22.9467C67.199 22.7713 66.7599 22.7173 66.3364 22.6931C66.1823 22.6837 66.027 22.681 65.8718 22.6783C65.6756 22.6756 65.6389 22.6538 65.5017 22.7997C65.2566 23.0637 65.1254 23.5868 64.9677 23.9088C64.7733 24.3051 64.578 24.6984 64.378 25.0917C63.6271 26.5756 62.8376 28.0415 62.0207 29.4906C60.6357 31.9398 59.165 34.3413 57.6227 36.6956C57.4284 36.9912 56.3716 36.3167 56.566 36.0211L56.5651 36.0182Z" fill="#846DF2"/>
<path d="M37.6862 30.3651C38.6184 29.9454 39.5807 29.5967 40.5592 29.2949C41.8137 28.9084 43.2 28.4548 44.5148 28.3518C45.3115 28.2898 45.9565 28.6298 46.6477 28.9462C48.9329 29.9925 51.2191 31.037 53.5042 32.0833C56.2408 33.3339 58.9745 34.5855 61.7111 35.8362C62.5582 36.2227 63.4042 36.6112 64.2513 36.9977C65.0142 37.3471 65.9551 37.8071 65.6971 38.8316C65.6062 39.196 65.4202 39.5535 65.2849 39.9017C64.9472 40.7571 64.6086 41.6144 64.271 42.4698C63.2211 45.1292 62.1721 47.7914 61.1222 50.4507C59.3299 54.9941 57.5376 59.5374 55.7472 64.0817C55.7121 64.1711 55.6798 64.2644 55.6409 64.3518C55.4656 64.7485 55.1628 64.9389 54.8285 65.1798C53.6613 66.0271 52.4969 66.8735 51.3297 67.7208C50.4426 68.3657 49.5372 69.3198 48.3585 69.1876C47.1883 69.0575 46.0213 68.8619 44.8546 68.6976C44.446 68.6405 44.0375 68.5834 43.629 68.5263C43.4826 68.5067 43.0128 68.415 43.0439 68.1915C43.0749 67.9681 43.5703 68.0159 43.6985 68.0331C44.8367 68.192 45.9731 68.3498 47.1103 68.5104C47.402 68.5515 47.6965 68.5917 47.9882 68.6327C48.0955 68.6486 48.3208 68.7241 48.4262 68.6934C48.6331 68.6346 48.959 68.2861 49.1416 68.1546C50.2895 67.3211 51.4374 66.4877 52.5863 65.6523C53.0114 65.3441 53.4347 65.035 53.8598 64.7268C54.0859 64.5631 54.2889 64.4111 54.4141 64.1462C54.9962 62.9138 55.4259 61.5819 55.9249 60.3153C56.9608 57.6917 57.9938 55.069 59.0296 52.4454C60.7779 48.0131 62.5251 43.5827 64.2734 39.1504C64.4858 38.6102 64.6854 37.9482 64.066 37.5594C63.6199 37.2811 63.066 37.1018 62.5882 36.8835C60.1822 35.7831 57.778 34.6837 55.3719 33.5832C52.8063 32.4106 50.2416 31.2362 47.6759 30.0636C46.9422 29.7272 46.2056 29.3917 45.4719 29.0553C45.3652 29.0063 45.242 28.9246 45.1282 28.8981C44.8684 28.8379 44.5143 28.9701 44.2598 29.023C43.9528 29.0889 43.6456 29.1596 43.3403 29.2312C42.6856 29.3896 42.0344 29.5642 41.3894 29.7637C40.4809 30.0424 39.5895 30.371 38.7255 30.7619C38.4699 30.8765 38.1182 30.835 37.8649 30.7302C37.7345 30.6759 37.4268 30.4777 37.6892 30.3595L37.6862 30.3651Z" fill="#846DF2"/>
<path d="M50.1186 63.5165C51.5637 63.6693 53.0075 63.8381 54.4545 63.9919C54.7397 64.0223 55.0579 64.1685 55.249 64.3867C55.4009 64.5603 55.3414 64.7279 55.0923 64.7021C53.6472 64.5494 52.2034 64.3805 50.7565 64.2268C50.4713 64.1963 50.153 64.0502 49.962 63.832C49.81 63.6584 49.8695 63.4907 50.1186 63.5165Z" fill="#846DF2"/>
<path d="M59.4145 39.8156C60.916 39.3219 62.3933 38.7413 63.8776 38.1978C64.0714 38.1273 64.2662 38.055 64.46 37.9845C64.7086 37.8925 65.0182 38.0366 65.229 38.1716C65.2977 38.2151 65.7189 38.5545 65.4847 38.6421C64.0743 39.1598 62.6639 39.6774 61.2507 40.1865C60.9802 40.2837 60.7125 40.3847 60.4382 40.4751C60.1842 40.5594 59.8857 40.426 59.6693 40.288C59.6062 40.2475 59.1767 39.8964 59.4135 39.8175L59.4145 39.8156Z" fill="#846DF2"/>
<path d="M21.5165 32.0673C21.9368 31.6631 22.4807 31.5229 23.055 31.6267C23.3474 31.6801 23.6283 31.7874 23.8796 31.9415C24.0161 32.0254 24.139 32.1261 24.2648 32.2212C24.4545 32.3644 24.3951 32.3307 24.6194 32.2571C25.9904 31.8098 27.3504 31.3374 28.8154 31.3472C30.1671 31.3572 31.6152 31.7968 32.6183 32.7332C33.6504 33.6968 33.7983 35.0623 33.9574 36.3881C34.1411 37.9234 34.2064 39.5187 33.7241 41.0051C33.6127 41.3492 32.4116 40.9942 32.517 40.6662C32.9932 39.2005 32.9348 37.6377 32.7498 36.1232C32.5732 34.6659 32.3946 33.066 30.9451 32.3044C29.5287 31.5578 27.7823 32.059 26.3688 32.5367C25.6793 32.7703 25.0184 33.0045 24.2838 32.8162C23.9482 32.7305 23.6569 32.5697 23.3779 32.3675C23.3084 32.3165 23.1952 32.2065 23.1316 32.1993C22.97 32.1813 22.7472 32.4211 22.6442 32.5203C22.3851 32.7697 21.2593 32.3129 21.5175 32.0654L21.5165 32.0673Z" fill="#846DF2"/>
<path d="M57.7894 51.3171C59.424 50.4381 61.1175 49.6669 62.8619 49.0279C64.4009 48.4629 66.2758 48.2117 67.544 49.5275C68.7768 50.8055 68.7459 52.7936 69.3941 54.3484C69.4742 54.5393 69.5601 54.7284 69.6623 54.9094C69.7019 54.9806 69.7444 55.051 69.7888 55.1175C69.9599 55.3324 69.8211 55.2712 69.3731 54.9415C69.586 54.8164 70.0927 54.9205 70.3115 54.9855C70.7046 55.1039 71.6157 55.6753 71.1997 56.1993C70.9478 56.5172 69.862 55.9617 70.029 55.75C70.0642 55.7062 70.0796 55.4986 70.0873 55.4931C70.4781 55.5336 70.5548 55.5573 70.3175 55.564L70.1953 55.5763C69.9225 55.5956 69.6713 55.5783 69.4082 55.4875C68.8811 55.308 68.6406 54.9319 68.4079 54.4544C67.771 53.1525 67.6854 51.6735 67.0878 50.3564C66.928 50.0012 66.7137 49.5574 66.374 49.3376C66.0579 49.1326 65.6142 49.1696 65.2588 49.222C64.567 49.3273 63.9035 49.5985 63.2556 49.8492C61.7525 50.4284 60.2912 51.111 58.8741 51.8745C58.645 51.9983 58.3045 51.8716 58.0923 51.7621C58.0131 51.7204 57.5717 51.4374 57.7931 51.3191L57.7894 51.3171Z" fill="#846DF2"/>
</svg>
