<svg width="83" height="63" viewBox="0 0 83 63" fill="none" xmlns="http://www.w3.org/2000/svg">
<path fill-rule="evenodd" clip-rule="evenodd" d="M1.71225 47.4096C1.38874 47.0007 1.43368 46.4102 1.81978 46.0577C2.10637 45.7962 2.5038 45.4557 3.04255 45.029C4.50472 43.8721 6.21144 42.3592 6.67329 41.5714C7.13304 40.7833 9.59072 37.3011 11.1916 36.4656C12.7946 35.6303 15.0264 32.6536 15.2857 32.5555C15.5449 32.4573 17.8754 30.7539 18.2554 30.674C18.6354 30.5941 19.3978 30.5968 22.5521 32.5072C25.7064 34.4177 29.4017 36.2113 29.4017 36.2113C29.4017 36.2113 31.4854 35.3419 31.535 35.3711C32.2564 35.7833 29.7871 37.8999 29.7871 37.8999L31.1812 37.0383L33.0149 38.3498L34.2287 39.1029L33.6414 40.1517L36.4188 37.1655L36.3638 39.8045C36.3638 39.8045 37.318 39.7611 37.7251 40.5832C38.1322 41.4053 41.2153 45.8013 41.2153 45.8013L33.8542 56.4009C33.8542 56.4009 33.9572 57.5081 30.1363 56.8187C26.3154 56.1294 20.5984 56.0984 18.6615 55.4603C16.7225 54.8219 10.0155 53.7883 8.67835 53.717C7.3412 53.6457 5.69166 52.776 5.37074 52.0514L1.71434 47.4098L1.71225 47.4096Z" fill="#7AEDE3"/>
<path fill-rule="evenodd" clip-rule="evenodd" d="M43.9115 10.2188C43.9115 10.2188 44.3391 9.30531 46.5699 7.76757C48.8028 6.23006 48.8875 5.73597 50.2404 5.63402C51.5933 5.53206 68.6426 7.49433 68.6426 7.49433L72.5838 14.3274L71.1778 20.6257L67.3928 39.8609L60.9922 43.0496C60.9922 43.0496 41.733 39.7131 41.1845 39.5643C40.636 39.4155 40.0441 39.2211 39.9837 38.1487C39.9234 37.0763 42.8306 16.5632 42.8306 16.5632L43.9135 10.219L43.9115 10.2188Z" fill="#FF71BD"/>
<path fill-rule="evenodd" clip-rule="evenodd" d="M52.7699 25.1714C52.8264 24.9025 53.5798 24.0673 53.8469 24.0661C55.0087 24.0595 57.4842 24.51 58.49 24.6989C59.7031 24.9267 62.8428 25.3323 63.0754 26.1065C63.3079 26.8806 61.953 34.3313 61.953 34.3313C61.953 34.3313 61.4679 36.31 60.5086 36.7094C60.0477 36.9017 58.262 36.6419 56.1655 36.2479C53.8949 35.8211 51.7728 35.5203 51.4323 35.0752C50.7769 34.2202 51.9035 29.239 51.9035 29.239L52.772 25.1717L52.7699 25.1714Z" fill="#FFF485"/>
<path d="M54.7536 24.4607C55.8451 24.6594 56.9347 24.8558 58.0262 25.0546C59.3438 25.2945 60.7068 25.4541 62.0063 25.7773C62.0372 25.7852 62.0733 25.785 62.1018 25.7948C61.9499 25.7345 62.2164 25.9212 62.2539 25.9639C62.5235 26.2705 62.51 26.6255 62.4469 27.0068C62.3792 27.4089 62.3074 27.8106 62.2355 28.2122C61.9536 29.8258 61.6718 31.4393 61.3901 33.0508C61.2832 33.664 61.1761 34.2794 61.0692 34.8926C60.9934 35.3279 60.9231 35.7169 60.5843 36.045C60.0978 36.514 59.5382 36.4984 58.9416 36.3803C58.2868 36.2534 57.6343 36.1246 56.9794 35.9977C55.5207 35.7137 54.0601 35.4275 52.6013 35.1436C52.0584 35.0381 51.8301 34.8131 51.7694 34.1293C51.7307 33.6935 51.8556 33.2553 51.9385 32.8315C52.2382 31.2648 52.5382 29.696 52.8379 28.1294C53.0189 27.1874 53.0847 25.9032 53.6049 25.0688C53.8574 24.6624 54.2669 24.4001 54.7557 24.4609C54.9457 24.485 55.184 24.4763 55.0914 24.2328C55.007 24.0096 54.5511 23.848 54.3444 23.8219C53.2649 23.6844 52.5064 24.1796 52.1822 25.2246C52.0637 25.608 52.0081 26.0158 51.9328 26.4106C51.6075 28.1067 51.2845 29.8009 50.9592 31.497C50.692 32.8924 50.1592 34.5132 51.7058 35.3753C52.1974 35.6499 52.7407 35.734 53.2836 35.8395L55.6041 36.2935C56.9841 36.5619 58.3625 36.8813 59.75 37.1036C60.6653 37.25 61.7642 36.9265 62.0931 35.9504C62.2091 35.6072 62.2353 35.2153 62.2976 34.8595C62.5982 33.1392 62.8985 31.421 63.1991 29.7007C63.3117 29.0561 63.4241 28.4136 63.5368 27.7691C63.6499 27.1203 63.7105 26.5593 63.2303 26.0213C62.3318 25.0143 60.6858 24.9756 59.4513 24.7496C57.8596 24.461 56.2679 24.1724 54.6765 23.8817L54.3444 23.8219C54.1535 23.7871 53.9195 23.8134 54.0087 24.05C54.0978 24.2867 54.5439 24.4236 54.7557 24.4609L54.7536 24.4607Z" fill="#846DF2"/>
<path d="M55.9008 24.5965C55.477 28.3181 54.8753 32.0383 54.0504 35.6922C53.9849 35.9835 55.2011 36.1113 55.288 35.7263C56.1129 32.0725 56.7148 28.3501 57.1384 24.6307C57.1764 24.302 55.9439 24.2236 55.9008 24.5965Z" fill="#846DF2"/>
<path d="M59.3196 25.3429C58.4838 28.9805 57.7534 32.6603 57.164 36.3478C57.1169 36.6455 58.3377 36.697 58.4018 36.3072C58.993 32.6221 59.7216 28.94 60.5574 25.3023C60.6207 25.03 59.4116 24.95 59.3196 25.3429Z" fill="#846DF2"/>
<path d="M52.237 27.5843C52.8043 27.8634 53.4397 28.0116 54.0489 28.1674C55.0036 28.4123 55.9644 28.6237 56.928 28.829C58.8615 29.2404 60.8055 29.6338 62.7602 29.9345C62.9539 29.9633 63.1852 29.9238 63.0869 29.6926C62.9886 29.4613 62.5383 29.343 62.326 29.31C60.513 29.0299 58.7094 28.6677 56.9144 28.2873C55.99 28.0907 55.0664 27.8879 54.1478 27.66C53.8163 27.5769 53.485 27.4916 53.1571 27.396C52.993 27.3493 53.0194 27.3588 52.8728 27.3077C52.8238 27.2913 52.7751 27.2729 52.7264 27.2544C52.57 27.1958 52.8064 27.2957 52.7122 27.2485C52.568 27.1764 52.0754 26.9657 51.9383 27.1441C51.7936 27.3324 52.0907 27.5119 52.237 27.5843Z" fill="#846DF2"/>
<path d="M51.9983 31.2697C55.2266 31.7881 58.4291 32.4935 61.6128 33.233C61.7695 33.2704 62.2926 33.3821 62.3904 33.1777C62.4882 32.9734 62.1683 32.8446 62.0093 32.8091C58.7183 32.0444 55.4088 31.3117 52.0722 30.7765C51.9287 30.7535 51.4575 30.7055 51.4233 30.9279C51.3892 31.1502 51.8715 31.2487 51.9962 31.2695L51.9983 31.2697Z" fill="#846DF2"/>
<path d="M49.5418 19.9581L55.3096 20.9302C55.4104 20.9472 55.506 20.8785 55.5231 20.7769L56.2461 16.4659C56.2632 16.3642 56.1952 16.268 56.0944 16.251L50.3266 15.2789C50.2257 15.2619 50.1301 15.3305 50.1131 15.4322L49.39 19.7432C49.373 19.8449 49.4409 19.9411 49.5418 19.9581Z" fill="white"/>
<path d="M66.0041 14.8604C65.2384 14.5563 64.4995 14.0929 63.6629 14.0539C62.9299 13.9798 63.039 12.8523 63.7746 12.9224C64.3983 12.971 67.1004 14.0093 66.3568 14.8329C66.2483 14.91 66.1196 14.9058 66.0041 14.8604Z" fill="#846DF2"/>
<path d="M54.4243 11.897C55.2442 11.5306 56.0753 11.5263 56.9678 11.448C57.2803 11.4393 57.5377 11.6868 57.5461 11.9995C57.5544 12.3122 57.308 12.5741 56.9977 12.583C56.1885 12.4895 55.3399 12.701 54.5147 12.5629C54.1954 12.5025 54.1372 12.0346 54.4248 11.8928L54.4243 11.897Z" fill="#846DF2"/>
<path d="M49.4507 19.7606L53.3817 20.4232C53.4287 20.4311 53.4732 20.3991 53.4812 20.3517L54.1863 16.1474C54.1943 16.1 54.1626 16.0552 54.1156 16.0473L50.1847 15.3848C50.1377 15.3769 50.0931 15.4088 50.0852 15.4562L49.38 19.6605C49.3721 19.7079 49.4038 19.7527 49.4507 19.7606Z" fill="#846DF2"/>
<path d="M54.8033 21.2584C54.7824 21.256 54.7636 21.2538 54.7448 21.2517L50.0107 20.4525C49.7093 20.4027 49.4468 20.2357 49.2721 19.9871C49.0956 19.7361 49.0268 19.4335 49.0767 19.1297L49.6198 15.898C49.6695 15.5963 49.8336 15.3313 50.083 15.153C50.3304 14.9745 50.6324 14.9091 50.9344 14.9546L55.6684 15.7538C56.2897 15.8598 56.7085 16.4527 56.6024 17.0767L56.0594 20.3083C56.0097 20.61 55.8456 20.875 55.5961 21.0533C55.3649 21.2209 55.0853 21.2932 54.8031 21.2605L54.8033 21.2584ZM50.7788 15.7693C50.7014 15.7604 50.6251 15.7793 50.5602 15.8273C50.493 15.8772 50.4466 15.9487 50.4326 16.0325L49.8893 19.2663C49.8754 19.3501 49.8933 19.4333 49.9425 19.503C49.9919 19.5707 50.0649 19.6175 50.1459 19.6312L54.88 20.4303C54.9608 20.4461 55.0457 20.426 55.115 20.3764C55.1822 20.3265 55.2286 20.255 55.2426 20.1712L55.7859 16.9374C55.8142 16.7656 55.6998 16.6008 55.5272 16.5723L50.7931 15.7731C50.7931 15.7731 50.7827 15.7719 50.7764 15.7712L50.7788 15.7693Z" fill="#846DF2"/>
<path d="M62.4906 22.274L68.331 23.2583C68.4319 23.2753 68.5275 23.2067 68.5445 23.105L69.2676 18.794C69.2847 18.6923 69.2167 18.5961 69.1158 18.5791L63.2754 17.5948C63.1746 17.5778 63.079 17.6464 63.0619 17.7481L62.3389 22.0591C62.3218 22.1608 62.3898 22.257 62.4906 22.274Z" fill="white"/>
<path d="M62.3707 22.2528L66.3016 22.9153C66.3486 22.9233 66.3932 22.8913 66.4011 22.8439L67.1357 18.4639C67.1437 18.4165 67.112 18.3717 67.065 18.3638L63.1341 17.7013C63.0871 17.6934 63.0425 17.7253 63.0346 17.7727L62.3 22.1527C62.292 22.2001 62.3237 22.2449 62.3707 22.2528Z" fill="#846DF2"/>
<path d="M67.7547 23.571C67.7338 23.5686 67.715 23.5664 67.6941 23.564L62.96 22.7648C62.3406 22.6612 61.9219 22.0683 62.0258 21.4441L62.5691 18.2103C62.673 17.586 63.2691 17.1767 63.8837 17.2669L68.618 18.064C69.2392 18.17 69.658 18.7628 69.552 19.3868L69.0087 22.6206C68.9069 23.2259 68.3504 23.642 67.7545 23.5731L67.7547 23.571ZM63.7278 18.0838C63.5627 18.0647 63.4096 18.1793 63.3796 18.3467L62.8363 21.5805C62.808 21.7523 62.9245 21.9173 63.095 21.9456L67.829 22.7448C67.9865 22.7758 68.1633 22.6574 68.1919 22.4835L68.7352 19.2497C68.7635 19.0779 68.6491 18.9131 68.4765 18.8846L63.7422 18.0876C63.7422 18.0876 63.7318 18.0863 63.7255 18.0856L63.7278 18.0838Z" fill="#846DF2"/>
<path d="M45.4985 9.14598C46.5437 8.42557 47.5762 7.68662 48.6161 6.95705C48.8536 6.79022 49.0932 6.62362 49.3326 6.45913C49.5719 6.29464 49.8621 6.02073 50.1335 5.94535C50.2189 5.92106 50.2824 5.92199 50.3628 5.92275C50.85 5.92356 51.3555 6.02256 51.8372 6.07182C54.0698 6.29575 56.3023 6.52178 58.5329 6.74546C60.9623 6.99 63.3918 7.23454 65.8212 7.47907C66.5312 7.55047 67.2412 7.62186 67.9512 7.69326C68.0515 7.70486 68.2981 7.67998 68.3847 7.73697C68.4241 7.76287 68.5781 8.1351 68.6269 8.22615C69.651 10.1444 70.6769 12.065 71.701 13.9833C71.8874 14.3315 71.9523 14.5952 71.8737 14.9811C71.7702 15.4922 71.6664 16.0055 71.5607 16.5164C70.6231 21.1265 69.6855 25.7367 68.7477 30.349C68.3052 32.5269 67.863 34.7027 67.4185 36.8803C67.2908 37.5082 67.1632 38.1361 67.0355 38.764C66.9515 39.1792 66.9333 39.5935 66.5327 39.8332C65.8089 40.2663 64.9975 40.5952 64.2424 40.9691C63.2106 41.4818 62.1791 41.9925 61.1473 42.5052C61.0394 42.5589 60.8149 42.723 60.7198 42.7397C60.616 42.7576 60.4478 42.6912 60.3461 42.673C59.6942 42.5571 59.0442 42.4435 58.3923 42.3276C53.6666 41.4931 48.9427 40.661 44.2169 39.8264C43.4092 39.684 42.6015 39.5415 41.7938 39.399L41.1231 39.2809C41.0441 39.2675 40.8233 39.1801 40.953 39.2677C40.5657 39.0073 40.7218 38.4083 40.775 38.0215L41.0243 36.2313C41.6697 31.583 42.3153 26.9327 42.9628 22.2847C43.4875 18.515 44.0102 14.7451 44.5349 10.9754C44.6366 10.242 44.8685 9.61119 45.4985 9.14598C45.7604 8.95206 44.71 8.41643 44.4089 8.63785C43.2762 9.47411 43.305 10.9848 43.1279 12.2603C42.8411 14.3196 42.5564 16.3791 42.2699 18.4362C41.5605 23.5467 40.8492 28.6549 40.1398 33.7655C39.9487 35.144 39.7578 36.5204 39.5646 37.8987C39.4416 38.7791 39.8805 39.4362 40.7524 39.7206C41.1362 39.8461 41.5571 39.8884 41.9538 39.9577C46.582 40.7745 51.2102 41.5914 55.8384 42.4082L60.6805 43.2626C60.8549 43.2934 61.0305 43.3329 61.2062 43.334C61.6016 43.3413 61.8942 43.1744 62.2335 43.0065C63.31 42.4733 64.3867 41.9381 65.4632 41.4049C66.1892 41.0447 67.0102 40.7425 67.6869 40.2955C68.0954 40.0246 68.1241 39.556 68.2124 39.1221C68.5613 37.4053 68.9102 35.6884 69.259 33.9716C70.2804 28.9483 71.3015 23.9272 72.3229 18.904C72.5739 17.6669 72.8803 16.4276 73.0794 15.1824C73.1704 14.6143 72.8147 14.1355 72.5567 13.6552C71.9679 12.5537 71.3793 11.4502 70.7926 10.349C70.3903 9.59574 70.0218 8.80587 69.5787 8.07568C69.1302 7.33634 68.3126 7.16924 67.5253 7.0889C65.6216 6.8966 63.7197 6.70665 61.816 6.51435C59.2003 6.25041 56.5842 5.98858 53.9685 5.72464C52.5966 5.5874 51.2235 5.4052 49.8488 5.31035C48.9387 5.24784 48.2273 5.95773 47.5241 6.45078C46.4845 7.17824 45.4539 7.91954 44.4066 8.63971C44.1465 8.81888 45.1857 9.35962 45.4962 9.14785L45.4985 9.14598Z" fill="#846DF2"/>
<path d="M48.247 5.95593C47.9209 6.98151 47.8925 8.12478 47.7128 9.18436C47.6342 9.64499 47.5701 10.1073 47.5021 10.567C47.2347 12.4043 46.9798 14.2431 46.7269 16.082C46.0681 20.8654 45.4236 25.6525 44.7979 30.4417C44.5761 32.1413 44.3477 33.8421 44.1571 35.5453C44.1274 35.8023 44.747 36.0512 44.9091 36.0784C47.4347 36.5177 49.96 36.9591 52.4856 37.3983C56.4899 38.0961 60.4941 38.7938 64.4984 39.4915C65.4185 39.6513 66.3405 39.8134 67.2606 39.9731C67.4496 40.0056 67.6881 40.014 67.609 39.7636C67.5376 39.5375 67.0917 39.3451 66.888 39.3109C64.3624 38.8716 61.837 38.4302 59.3115 37.9909C55.3072 37.2932 51.303 36.5955 47.2987 35.8978C46.3786 35.738 45.4566 35.5759 44.5365 35.4162C44.7871 35.5946 45.0376 35.773 45.2885 35.9493C45.7064 32.2057 46.2374 28.4731 46.7369 24.7389C47.3234 20.3614 47.9099 15.9839 48.5401 11.6136C48.6255 11.0214 48.7088 10.429 48.8044 9.84005C48.982 8.74392 49.0196 7.55689 49.356 6.49833C49.4723 6.13386 48.3395 5.65063 48.2431 5.95335L48.247 5.95593Z" fill="#846DF2"/>
<path d="M41.0864 39.5131C42.5267 38.3622 43.9056 37.1381 45.2185 35.8423C45.3905 35.6743 45.0613 35.4611 44.9333 35.3951C44.7836 35.3159 44.3291 35.1053 44.1639 35.2699C42.8509 36.5657 41.4721 37.7898 40.0318 38.9407C39.754 39.1627 40.8037 39.7409 41.0883 39.5155L41.0864 39.5131Z" fill="#846DF2"/>
<path d="M57.4118 19.3638C57.3432 19.9025 57.2955 20.4435 57.2687 20.987C57.2452 21.4647 57.2029 21.9957 57.5512 22.3733C57.9714 22.8254 58.8152 23.0041 59.378 22.7361C59.8198 22.5245 60.05 22.0729 60.2457 21.645C60.4865 21.1198 60.6526 20.5626 60.7483 19.9908C60.7849 19.7665 60.3637 19.6346 60.209 19.5975C60.0667 19.5639 59.9127 19.5397 59.7662 19.5612C59.695 19.5722 59.5628 19.5975 59.5482 19.6876C59.4589 20.2218 59.3074 20.7444 59.0909 21.2425C58.9928 21.4681 58.8892 21.7038 58.7434 21.9026C58.6727 22.0012 58.5904 22.0899 58.497 22.1645C58.4666 22.1888 58.4365 22.2109 58.4048 22.2286C58.378 22.2404 58.3512 22.2523 58.3247 22.262C58.2765 22.2757 58.2697 22.2792 58.3044 22.2725C58.2463 22.2807 58.2481 22.2831 58.3079 22.2793C58.2024 22.2756 58.25 22.2854 58.4512 22.3044C58.5299 22.3199 58.6006 22.3494 58.6655 22.3932L58.6324 22.3681C58.6692 22.4342 58.5957 22.319 58.5975 22.3213C58.5668 22.2751 58.5437 22.219 58.5244 22.1656C58.4362 21.9205 58.4562 21.6559 58.4666 21.4009C58.4915 20.8188 58.5436 20.2398 58.6148 19.6609C58.6432 19.4336 58.2364 19.3054 58.0755 19.2676C57.9332 19.234 57.7792 19.2098 57.6326 19.2313C57.5635 19.2426 57.4248 19.2692 57.4146 19.3577L57.4118 19.3638Z" fill="#846DF2"/>
<path d="M43.4593 24.0741C40.8396 26.263 37.4862 27.0838 34.4809 28.5576C33.0211 29.2728 31.549 30.2406 30.8737 31.7938C30.5909 32.4443 30.401 33.2252 30.6107 33.922C30.7821 34.4926 31.1111 35.0367 31.5072 35.4775C31.9389 35.9587 32.4915 36.3108 33.1632 36.2368C33.7295 36.1763 34.3705 35.6163 34.2904 34.99C34.2413 34.6085 33.0123 34.6458 33.0523 34.96C33.0721 35.1182 33.0338 35.2483 32.96 35.3913C32.9002 35.5061 32.6703 35.6802 32.6416 35.7815C33.2063 35.8639 33.3649 35.8481 33.1191 35.7385C33.0579 35.6994 32.9993 35.6563 32.9433 35.6093C32.8058 35.4973 32.6857 35.3639 32.5743 35.2272C32.1625 34.7205 31.7692 34.073 31.7602 33.3994C31.7331 31.4341 33.3447 30.0105 34.9206 29.1529C38.0768 27.436 41.7039 26.7045 44.5182 24.3524C44.8794 24.0504 43.7128 23.86 43.4572 24.0739L43.4593 24.0741Z" fill="#846DF2"/>
<path d="M68.3976 32.2355C68.696 34.9325 70.3939 39.068 73.7382 38.528C75.3317 38.2702 76.008 36.9285 76.6263 35.593C76.9872 34.817 77.2835 33.8669 77.8226 33.199C77.9833 32.9998 78.1858 32.8247 78.4082 32.6967C78.4854 32.6522 78.5206 32.6413 78.4159 32.6484C78.5868 32.6362 78.8415 32.798 78.9929 32.8625C79.1947 32.9498 79.6528 33.037 79.8445 32.8819C80.0481 32.7154 79.8463 32.5917 79.6665 32.5154C78.6936 32.0977 77.7175 31.9272 76.8783 32.6799C76.3538 33.1488 76.1064 33.9145 75.816 34.5385C75.4718 35.2802 75.1687 36.0693 74.7327 36.7619C74.3564 37.3589 73.7593 37.9795 73.016 38.0495C72.2834 38.1185 71.6407 37.3183 71.2644 36.7795C70.3697 35.5017 69.7951 33.9472 69.625 32.3945C69.5818 31.9988 68.3649 31.9499 68.3974 32.2376L68.3976 32.2355Z" fill="#846DF2"/>
<path d="M47.3747 38.7758C47.2964 39.5632 47.6618 40.4531 47.8719 41.2011C48.0921 41.991 48.3297 42.7764 48.5522 43.5643C48.7841 44.3811 49.0006 45.2025 49.1715 46.0336C49.3331 46.8167 49.5266 47.6717 49.4719 48.4746C49.4157 49.273 48.973 49.9862 48.5322 50.6292C48.0808 51.2901 47.5589 51.9002 46.9976 52.4673C45.8819 53.5959 44.6084 54.5504 43.3459 55.5019C43.0581 55.7184 43.5725 55.8505 43.7095 55.8749C43.5662 55.8498 43.5651 55.8411 43.7196 55.8974C43.854 55.945 43.9881 55.9946 44.1219 56.0464C44.4569 56.1726 44.7896 56.3008 45.1243 56.4291C45.6171 56.6206 46.1121 56.8102 46.6018 57.0099C46.7597 57.073 47.8089 57.1793 47.6406 56.7841C47.3474 56.0947 46.6001 55.5941 45.9646 55.2815C45.3291 54.9689 43.7695 54.5495 43.7387 55.6775C43.7357 55.8138 43.9471 55.8724 44.0416 55.8983C44.2533 55.9548 44.4629 56.0111 44.6743 56.0697C44.8162 56.1074 44.9578 56.1473 45.0996 56.185C45.1488 56.1992 45.499 56.3038 45.3115 56.2394C45.5642 56.3263 45.9365 56.3864 46.1869 56.2552C46.3696 56.1589 46.4525 55.9913 46.1938 55.9016C45.6987 55.7312 45.1826 55.6139 44.677 55.4786L44.9799 55.6993C44.9813 55.6504 45.0478 55.4232 45.0409 55.4096C44.6983 55.4042 44.611 55.4261 44.7746 55.477C44.8011 55.4865 44.8252 55.4978 44.8493 55.5092C45.0071 55.647 45.2871 55.7178 45.468 55.839C45.5979 55.9245 45.7227 56.0179 45.8379 56.1209C46.0784 56.3323 46.3213 56.5953 46.4496 56.8962C46.7952 56.8209 47.1429 56.7457 47.4885 56.6704C46.932 56.4438 46.3699 56.2294 45.8102 56.0131C45.2504 55.7968 44.6548 55.5059 44.0526 55.4L44.4163 55.773C45.6809 54.8217 46.9447 53.8597 48.0738 52.7433C49.1171 51.7088 50.3752 50.3383 50.6708 48.8438C50.8325 48.0319 50.625 47.1325 50.4716 46.3334C50.3046 45.4686 50.0852 44.6169 49.8484 43.7697C49.6097 42.9201 49.3536 42.0749 49.1171 41.2255C48.9085 40.4819 48.5423 39.5812 48.6198 38.8002C48.6536 38.471 47.4194 38.4074 47.3828 38.7789L47.3747 38.7758Z" fill="#846DF2"/>
<path d="M58.4546 40.7397C59.2592 42.0092 60.0952 43.263 60.8561 44.5616C61.5537 45.7482 62.1809 47.0313 62.3037 48.4248C62.4385 49.9349 61.8904 51.3405 61.1544 52.6304C60.3865 53.9765 59.5008 55.2598 58.6637 56.5636C58.5577 56.7286 58.8418 56.8191 58.9418 56.852C59.8913 57.1603 60.8677 57.365 61.8625 57.465C61.9922 57.48 62.9536 57.3926 62.5706 57.1134C61.8104 56.5601 60.9708 56.2346 60.0501 56.062C59.8945 56.0333 59.3544 56.0136 59.284 56.219C59.2063 56.4513 59.5517 56.5061 59.7094 56.535C60.3647 56.6578 60.958 56.9505 61.4954 57.3414C61.7315 57.2236 61.9674 57.1078 62.2035 56.9899C61.3051 56.8988 60.4367 56.713 59.5769 56.4343L59.8551 56.7227C60.7258 55.3672 61.6575 54.0337 62.4389 52.6252C63.1461 51.3469 63.6735 49.9368 63.5421 48.4526C63.4194 47.0763 62.8225 45.7881 62.1411 44.6077C61.3609 43.2556 60.4882 41.9527 59.6511 40.6347C59.4559 40.326 58.2734 40.4562 58.4544 40.7419L58.4546 40.7397Z" fill="#846DF2"/>
<path d="M28.6971 37.0954C29.5805 36.8581 30.4021 36.3488 31.1913 35.8999C32.0962 35.3853 33.0402 34.7514 34.0993 34.6625C35.4171 34.5522 36.026 35.957 36.2501 37.0611C36.536 38.4734 35.4034 39.6385 34.6601 40.7162C34.5022 40.9456 35.5943 41.469 35.8257 41.1349C36.2914 40.4607 36.8321 39.7973 37.203 39.063C37.5605 38.3527 37.5292 37.6339 37.2995 36.8899C36.8726 35.5061 35.968 34.4792 34.5356 34.1321C31.945 33.5039 30.0924 35.8753 27.7767 36.498C27.5078 36.5694 27.7511 36.811 27.8706 36.8953C28.0825 37.0415 28.4366 37.1678 28.6968 37.0975L28.6971 37.0954Z" fill="#846DF2"/>
<path d="M27.6569 36.6967C27.8279 37.4531 28.7172 37.6413 29.2151 38.1002C29.4048 38.2737 29.9325 38.6208 30.2027 38.4279C31.073 37.809 31.7592 36.9681 32.5172 36.2209C32.8805 35.8636 33.2574 35.4994 33.7285 35.2912C34.0123 35.1639 34.5036 35.0007 34.8102 35.1344C35.7038 35.5238 35.3942 36.8459 35.0182 37.4772C34.4793 38.3821 33.5146 39.2313 32.6039 39.741C32.3388 39.8897 32.9457 40.2481 33.0188 40.2757C33.7277 40.5584 34.4368 40.8389 35.1478 41.1218C35.2835 41.1759 35.7195 41.363 35.8138 41.1518C35.9082 40.9407 35.4703 40.715 35.3529 40.6672C34.644 40.3846 33.9349 40.1041 33.2239 39.8212C33.3622 39.9994 33.5005 40.1777 33.6388 40.3559C34.4949 39.8784 35.2554 39.1465 35.8712 38.3828C36.3806 37.7521 36.7632 36.733 36.4085 35.9341C36.0384 35.1034 35.0045 34.5163 34.1354 34.4287C33.1805 34.3311 32.3758 34.7676 31.6984 35.4045C30.8543 36.1994 30.1251 37.1379 29.1743 37.8115L30.1619 38.1392C29.9111 37.9074 29.6287 37.7295 29.3397 37.5531C29.1518 37.4374 28.8578 37.3052 28.8025 37.0682C28.7473 36.8313 28.396 36.6626 28.1814 36.595C28.0874 36.565 27.6066 36.4539 27.6613 36.6951L27.6569 36.6967Z" fill="#846DF2"/>
<path d="M36.3508 40.2096C36.6321 40.1588 37.0471 40.6744 37.1862 40.8634C37.3896 41.1389 37.54 41.4509 37.6932 41.7568C37.9671 42.3009 38.2525 42.8015 38.655 43.2601C39.3538 44.0519 40.3059 44.796 40.4127 45.925C40.7674 45.8806 41.1222 45.8362 41.4746 45.7937C39.3575 44.7163 37.2404 43.6389 35.1231 42.5636C34.0984 42.0437 33.0571 41.6309 31.9966 41.2008C30.9848 40.7892 30.2478 40.072 29.3806 39.4359C28.4861 38.7795 27.4967 38.2659 26.5258 37.7394C25.4929 37.1802 24.4603 36.6189 23.4274 36.0597C22.9249 35.7881 22.4245 35.5167 21.9222 35.243C21.4577 34.9907 20.991 34.6293 20.4371 34.6742C20.1206 34.6995 19.9242 34.8583 19.6843 35.0462C18.527 35.948 17.5933 37.0976 16.7013 38.2521C15.9439 39.2321 15.1461 40.1775 14.3482 41.1229C12.3796 43.4532 10.3724 45.7513 8.36908 48.0519C7.49184 49.0607 6.62666 50.0753 5.71102 51.0498C5.48404 51.2904 5.15465 51.5555 5.01888 51.8686C4.88384 52.1754 5.10658 52.4296 5.29782 52.6631C6.15144 53.7098 7.5174 53.9168 8.78228 54.0267C9.59619 54.0973 10.4105 54.1274 11.2208 54.2296C12.1771 54.3508 13.0957 54.5979 14.032 54.8193C17.8636 55.7276 21.7826 56.1913 25.694 56.5922C27.748 56.804 29.8085 57.0871 31.8676 57.2183C32.7299 57.2732 33.8381 57.4013 34.4576 56.6786C35.7482 55.1731 36.7973 53.4112 37.8924 51.7636C39.0567 50.0129 40.2071 48.2541 41.3396 46.4848C41.4329 46.3376 41.5283 46.1906 41.6195 46.0432C41.8068 45.7424 40.6253 45.5525 40.4328 45.8612C38.799 48.4842 37.0777 51.0587 35.3397 53.6121C34.8774 54.2932 34.4092 54.9714 33.9255 55.6371C33.6911 55.9602 33.4204 56.4691 33.0823 56.699C33.1537 56.6496 33.0409 56.7092 33.006 56.7179C32.7816 56.771 32.5253 56.752 32.2976 56.7428C31.599 56.7197 30.9048 56.6395 30.2125 56.5616C28.4744 56.367 26.7328 56.202 24.9936 56.0159C21.9149 55.6878 18.8316 55.3079 15.7973 54.6689C14.3328 54.3608 12.8986 53.9196 11.4084 53.7431C10.2378 53.6056 9.00691 53.6598 7.85584 53.3901C7.40195 53.2842 6.98226 53.0841 6.64765 52.753C6.47653 52.5837 6.17489 52.2606 6.20172 52.0651C6.2227 51.9203 6.45304 51.7056 6.56689 51.5821C6.89936 51.217 7.2434 50.8618 7.57586 50.4967C9.02315 48.9004 10.4136 47.2463 11.8264 45.6183C13.4249 43.7769 15.0215 41.9331 16.5753 40.0566C17.9123 38.4433 19.094 36.6156 20.7605 35.3222C20.8746 35.2329 20.9908 35.1439 21.1137 35.0705C20.7892 35.0736 20.4647 35.0766 20.1402 35.0797C21.9106 36.0402 23.681 37.0006 25.4537 37.9593C26.3132 38.4237 27.1848 38.8746 27.9918 39.4269C28.7223 39.9256 29.3542 40.5623 30.1082 41.0231C30.8504 41.4761 31.681 41.7131 32.4775 42.0443C33.3872 42.4227 34.2585 42.8949 35.1369 43.3424C36.9519 44.2653 38.7669 45.1882 40.5798 46.1109C40.7298 46.188 41.6747 46.3165 41.6416 45.9796C41.4999 44.475 40.0805 43.6854 39.3308 42.5098C38.875 41.7974 38.6342 40.9475 37.9988 40.3595C37.3844 39.791 36.5473 39.6089 35.7379 39.7566C35.5473 39.7922 35.3359 39.898 35.5025 40.088C35.6691 40.2781 36.1341 40.2507 36.344 40.2131L36.3508 40.2096Z" fill="#846DF2"/>
<path d="M34.4068 38.6844C34.3377 38.6594 34.3845 38.6755 34.4351 38.6963C34.346 38.6603 34.257 38.6244 34.1702 38.5866C33.8414 38.444 33.5205 38.2873 33.206 38.1122C32.5985 37.7772 32.0412 37.3925 31.5 36.9606C31.2808 36.7858 30.7504 36.5537 30.4818 36.7511C30.0329 37.0793 29.5841 37.4053 29.1352 37.7334C29.4747 37.8026 29.8139 37.8738 30.1534 37.943C29.6713 37.5499 29.1891 37.1568 28.7093 36.7619L28.7871 37.042C29.1463 36.8124 29.5055 36.5827 29.8668 36.3533C30.1275 36.1871 29.4501 35.8888 29.3928 35.8715C29.2498 35.8251 29.4937 35.9152 29.4069 35.8774C29.2513 35.8125 29.0957 35.7475 28.9429 35.6765C28.2831 35.3718 27.6432 35.0245 27.0105 34.6695C25.5698 33.8625 24.1265 33.0594 22.6751 32.2724C21.5966 31.6866 20.4767 30.9273 19.3051 30.542C18.7683 30.3647 18.096 30.2421 17.5662 30.5182C17.0996 30.7611 17.2073 30.9657 17.3856 31.4389C17.564 31.9122 17.8033 32.3711 18.0317 32.8331C18.1966 33.166 18.4255 33.312 18.7217 33.5171C19.0238 33.7271 19.2461 34.0026 19.4149 34.321C19.6096 34.6894 19.8639 34.9088 20.2198 35.1293C20.4095 35.2473 20.8342 35.4224 21.0536 35.3026C21.273 35.1827 21.1125 35.0126 20.9443 34.9099C20.6871 34.752 20.6416 34.6144 20.5129 34.3711C20.3615 34.0867 20.1127 33.838 19.879 33.6231C19.6798 33.44 19.3878 33.3272 19.2283 33.1123C19.0213 32.8322 18.8711 32.4262 18.7345 32.1051C18.6794 31.9771 18.3599 31.259 18.3691 31.2345C18.3997 31.1526 18.5561 31.0639 18.6279 31.0295C19.0105 30.8539 19.3992 31.1208 19.7304 31.2979C22.1393 32.582 24.5103 33.9364 26.911 35.2366C27.6587 35.6412 28.4311 36.0892 29.2443 36.3497L28.7703 35.8679C28.4111 36.0975 28.0519 36.3272 27.6907 36.5566C27.5696 36.6323 27.7046 36.7845 27.7684 36.8367C28.2506 37.2298 28.7327 37.6229 29.2125 38.0178C29.4291 38.1966 29.9644 38.4229 30.2307 38.2273C30.6796 37.8992 31.1284 37.5731 31.5773 37.245C31.2378 37.1758 30.8986 37.1046 30.5591 37.0355C31.6704 37.924 32.9126 38.6889 34.256 39.1645C34.3924 39.2123 34.8537 39.3275 34.9206 39.1153C34.9875 38.9032 34.5263 38.7324 34.4063 38.6887L34.4068 38.6844Z" fill="#846DF2"/>
<path d="M6.06791 51.9655C5.4976 51.0157 4.8793 50.261 4.05566 49.5231C3.63529 49.1457 3.27181 48.7343 2.95302 48.2662C2.6776 47.8628 2.30432 47.3713 2.13545 46.9077C1.88936 46.2323 2.62821 45.9441 3.08121 45.5993C3.61801 45.1895 4.17944 44.8231 4.72154 44.4225C6.32005 43.2408 7.4371 41.5871 8.60698 40.0079C9.20727 39.1955 9.8319 38.3923 10.5634 37.6911C11.3521 36.9347 12.2995 36.3823 13.1178 35.6634C14.0115 34.8785 14.6182 33.8277 15.5156 33.0475C16.434 32.2506 17.4948 31.6515 18.4663 30.9269C18.8374 30.6495 17.6782 30.4322 17.4091 30.6339C16.5349 31.2865 15.5917 31.8393 14.7394 32.5223C13.8895 33.2033 13.282 34.0597 12.56 34.8623C11.7965 35.7114 10.8093 36.2784 9.94125 37.0064C9.16469 37.6575 8.49634 38.4172 7.87821 39.219C6.58719 40.8932 5.46301 42.7553 3.76183 44.0553C3.20869 44.4782 2.62143 44.848 2.06829 45.2709C1.71469 45.5438 1.09108 45.8433 0.891105 46.2536C0.666222 46.7144 1.07003 47.235 1.28565 47.6059C1.61142 48.1602 1.96398 48.7027 2.40266 49.1783C2.7868 49.5942 3.24133 49.9329 3.63996 50.3334C4.13942 50.8331 4.50485 51.4475 4.86732 52.0509C5.05582 52.3631 6.23954 52.2587 6.06582 51.9653L6.06791 51.9655Z" fill="#846DF2"/>
<path d="M3.93616 49.1933C6.83632 46.9237 9.23328 44.1135 11.5384 41.2542C12.6887 39.8264 13.8216 38.3838 14.9989 36.9783C15.5863 36.2776 16.1834 35.5844 16.7997 34.9083C17.4621 34.1821 18.1448 33.4625 19.013 32.9907C19.4221 32.7689 18.3063 32.3773 18.0123 32.5376C16.3936 33.4181 15.1952 35.0239 14.0237 36.4151C12.8231 37.8392 11.6726 39.3054 10.5027 40.7565C8.16452 43.6633 5.73589 46.5275 2.78905 48.8344C2.59111 48.9887 3.07191 49.1916 3.1536 49.2181C3.37613 49.2908 3.73122 49.3532 3.93382 49.1952L3.93616 49.1933Z" fill="#846DF2"/>
<path d="M19.0948 33.0927C19.7611 32.3691 20.1757 32.8696 20.9106 33.2386C21.7318 33.6495 22.5535 34.0562 23.3533 34.5052C24.8989 35.3756 26.4042 36.3204 27.9897 37.1207C28.1318 37.1927 28.6378 37.3793 28.7664 37.202C28.9075 37.0069 28.5978 36.8451 28.456 36.7711C26.5522 35.8101 24.771 34.6306 22.8806 33.6456C22.3829 33.3874 21.8795 33.1413 21.379 32.8892C20.9645 32.6811 20.567 32.4174 20.132 32.2582C19.3882 31.9843 18.5789 31.9655 18.0117 32.5832C17.755 32.861 18.8614 33.3518 19.099 33.0932L19.0948 33.0927Z" fill="#846DF2"/>
<path d="M29.6043 38.3211C30.7042 38.8497 31.6676 39.6251 32.7676 40.1536C33.0184 40.2744 33.3789 40.2905 33.6423 40.1928C33.8659 40.1098 33.8765 39.9444 33.6597 39.8404C32.5598 39.3118 31.5964 38.5365 30.4964 38.0079C30.2456 37.8871 29.8851 37.8711 29.6217 37.9687C29.3981 38.0518 29.3875 38.2171 29.6043 38.3211Z" fill="#846DF2"/>
<path d="M35.4351 41.1837C35.6544 41.2474 35.8733 41.3154 36.0893 41.3895C36.1524 41.4118 36.1566 41.4122 36.0977 41.3905C36.1302 41.4028 36.1647 41.4153 36.1975 41.4255C36.2462 41.4439 36.297 41.4626 36.3457 41.4811C36.4533 41.5213 36.5586 41.5633 36.664 41.6054C36.8764 41.6919 37.084 41.7842 37.2911 41.8807C37.3956 41.9291 37.4979 41.9794 37.6001 42.0296C37.6964 42.077 37.5844 42.0193 37.6722 42.0657C37.7341 42.0985 37.796 42.1313 37.8579 42.164C38.1113 42.3001 38.4349 42.378 38.7202 42.3107C38.7963 42.2939 38.9127 42.2582 38.9274 42.1681C38.942 42.078 38.8411 41.998 38.7774 41.9629C37.8419 41.4597 36.8589 41.0557 35.8379 40.7605C35.6882 40.7176 35.5193 40.6938 35.3633 40.7056C35.2779 40.7107 35.1232 40.7291 35.0573 40.8048C34.8957 40.9932 35.3309 41.1503 35.4312 41.1811L35.4351 41.1837Z" fill="#846DF2"/>
<path d="M24.1365 37.2203C20.1268 42.9123 16.0456 48.5255 11.3816 53.6999C11.1532 53.9532 12.288 54.3086 12.5358 54.034C17.1998 48.8596 21.281 43.2464 25.2908 37.5544C25.5062 37.2484 24.3417 36.9302 24.1365 37.2203Z" fill="#846DF2"/>
<path d="M28.9534 39.9354C26.9626 42.4574 25.0045 45.0088 23.0836 47.5859C22.1231 48.8754 21.1725 50.1705 20.2296 51.4727C19.7781 52.0974 19.3288 52.7223 18.8812 53.3495C18.6485 53.677 18.4157 54.0045 18.1829 54.332C18.026 54.553 17.7326 54.7817 17.6318 55.0306C17.4966 55.3566 18.6378 55.8408 18.7731 55.5127C18.8556 55.3129 19.1369 55.0786 19.2659 54.8971C19.4987 54.5696 19.7315 54.242 19.9643 53.9145C20.4298 53.2595 20.8993 52.607 21.3709 51.9548C22.3139 50.6525 23.2644 49.3575 24.225 48.0679C26.1458 45.4909 28.1039 42.9395 30.0947 40.4175C30.2637 40.2021 29.2063 39.6166 28.9534 39.9354Z" fill="#846DF2"/>
<path d="M33.0182 42.0873C31.3353 44.3844 29.6894 46.7093 28.0844 49.0645C27.291 50.2282 26.5096 51.3976 25.7358 52.5743C25.0157 53.6717 24.2311 54.7596 23.6634 55.9494C23.5379 56.2103 24.6982 56.5836 24.8712 56.2235C25.4612 54.9872 26.2847 53.8568 27.0373 52.7162C27.7928 51.5694 28.5584 50.426 29.3336 49.2922C30.9022 46.9946 32.5099 44.7251 34.1528 42.481C34.379 42.1741 33.2245 41.8058 33.0182 42.0873Z" fill="#846DF2"/>
<path d="M36.8914 44.0276C34.5786 48.2547 32.1086 52.3931 29.4866 56.4349C29.3193 56.691 30.411 57.2548 30.6226 56.927C33.2446 52.8852 35.7145 48.7468 38.0274 44.5198C38.1856 44.2327 37.0717 43.6962 36.8914 44.0276Z" fill="#846DF2"/>
<path d="M12.726 34.9883C13.19 35.6846 13.6078 36.4695 14.2429 37.0234C14.9436 37.6339 15.586 38.3081 16.2673 38.9398C17.6568 40.2256 19.3101 41.1363 20.9794 41.9997C24.5462 43.8425 28.1415 45.6587 31.8745 47.1449C33.9972 47.9903 36.163 48.7189 38.363 49.3362C38.5825 49.3978 39.0216 49.4849 39.2134 49.3106C39.4052 49.1364 39.2104 49.0071 39.0175 48.9528C35.2211 47.8862 31.5645 46.4536 28.0009 44.7671C26.2614 43.9425 24.5414 43.0776 22.8271 42.2004C21.1628 41.3483 19.4298 40.5224 17.9775 39.3211C17.2156 38.6907 16.5388 37.9656 15.8206 37.2869C15.4672 36.9535 15.0923 36.6774 14.8127 36.2736C14.5072 35.8369 14.2202 35.3874 13.9261 34.9435C13.7204 34.6336 12.5512 34.7226 12.7265 34.9841L12.726 34.9883Z" fill="#846DF2"/>
<path d="M6.71366 41.3399C7.47437 42.1089 8.4467 42.8619 8.9628 43.8225C9.16675 44.2027 9.5127 44.454 9.7556 44.8088C10.0059 45.1729 10.1822 45.5904 10.4694 45.9289C11.0437 46.606 11.93 46.9668 12.7198 47.3185C13.7112 47.7598 14.7245 48.1588 15.7491 48.5142C19.9356 49.9632 24.3055 50.7416 28.6431 51.5804C31.049 52.0464 33.4927 52.4975 35.6946 53.6296C35.8365 53.7036 36.3396 53.8963 36.4703 53.7193C36.6136 53.5244 36.3064 53.3587 36.1643 53.2868C34.2866 52.3203 32.241 51.7785 30.1842 51.3529C28.0652 50.9158 25.9349 50.5393 23.8154 50.1064C21.7168 49.6759 19.6212 49.2009 17.5677 48.5814C16.5502 48.2737 15.5432 47.931 14.5538 47.5455C13.6596 47.1987 12.6072 46.8636 11.8306 46.287C11.4071 45.9733 11.2101 45.4957 10.934 45.0624C10.6525 44.6199 10.2553 44.2986 10.0057 43.8363C9.77714 43.4128 9.42224 43.0921 9.08836 42.7545C8.61019 42.2723 8.13227 41.7879 7.65619 41.3058C7.47792 41.1251 7.08449 40.9728 6.82974 41.0138C6.59639 41.0531 6.53281 41.1631 6.71293 41.3462L6.71366 41.3399Z" fill="#846DF2"/>
</svg>
