<svg width="89" height="73" viewBox="0 0 89 73" fill="none" xmlns="http://www.w3.org/2000/svg">
<path fill-rule="evenodd" clip-rule="evenodd" d="M19.5333 37.3749C19.8425 36.6238 20.2596 35.8536 20.2596 35.8536L30.6462 39.934C30.6462 39.934 31.8282 40.3523 31.8992 40.6859C31.9701 41.0195 29.6429 53.423 29.6429 53.423L27.1138 53.2494L20.9015 50.9024L15.0112 48.5044C15.0112 48.5044 14.9093 48.4613 15.1107 47.8655C15.3121 47.2696 18.1274 40.7116 18.1274 40.7116L19.5333 37.3749Z" fill="#B5F485"/>
<path fill-rule="evenodd" clip-rule="evenodd" d="M42.0234 10.168C42.1553 9.73126 42.5372 9.41972 42.9898 9.38676C43.3332 9.36148 43.8033 9.39264 44.4237 9.54601C46.09 9.9597 60.7304 13.2476 60.7304 13.2476C60.7304 13.2476 65.3606 14.4939 65.7982 14.9096C66.2358 15.3254 69.4739 21.3518 69.4739 21.3518C69.4739 21.3518 69.6771 21.3038 68.7864 24.0398C67.8958 26.7759 64.7112 37.3505 64.7112 37.3505C64.7112 37.3505 60.7664 50.9207 60.4192 51.0966C60.0714 51.2746 60.5663 51.5521 56.1517 50.3886C51.7372 49.2252 40.2379 46.2708 40.2379 46.2708C40.2379 46.2708 37.4552 45.7842 37.1073 45.272C36.7567 44.7612 34.0639 40.3448 33.9151 39.8075C33.7662 39.2703 35.7484 32.2966 35.7484 32.2966L38.7927 20.7915L42.0234 10.168Z" fill="#989DFF"/>
<path fill-rule="evenodd" clip-rule="evenodd" d="M53.9094 31.7269C53.9742 31.4566 53.6364 30.369 53.3841 30.252C52.2889 29.7475 49.7425 29.0988 48.7074 28.8392C47.459 28.5282 44.3048 27.5515 43.7393 28.1604C43.1738 28.7693 41.1279 36.1697 41.1279 36.1697C41.1279 36.1697 40.7034 38.1885 41.4339 38.9653C41.7844 39.3398 43.5919 39.8688 45.7513 40.4056C48.0923 40.9897 50.2337 41.6249 50.7552 41.3623C51.7569 40.8611 52.9163 35.8199 52.9163 35.8199L53.912 31.7254L53.9094 31.7269Z" fill="#FFF485"/>
<path d="M41.0546 22.9796L46.7872 24.4614C46.8864 24.487 46.9877 24.4269 47.0136 24.3271L48.1081 20.0951C48.134 19.9953 48.0744 19.8936 47.9752 19.8679L42.2427 18.3861C42.1434 18.3605 42.0421 18.4206 42.0163 18.5204L40.9217 22.7524C40.8959 22.8522 40.9554 22.9539 41.0546 22.9796Z" fill="white"/>
<path d="M58.8037 19.7611C58.0673 19.3915 57.3706 18.8679 56.542 18.7568C55.8111 18.624 56.0148 17.5056 56.7457 17.6385C57.3646 17.7409 59.9701 19.0079 59.1587 19.7654C59.0421 19.8326 58.915 19.8178 58.8057 19.7617L58.8037 19.7611Z" fill="#846DF2"/>
<path d="M46.7086 15.9726C47.5578 15.6782 48.3879 15.7436 49.2854 15.7459C49.5972 15.7648 49.8343 16.0337 49.8146 16.3471C49.7949 16.6604 49.5267 16.8996 49.217 16.8813C48.4177 16.7188 47.5524 16.8549 46.7413 16.6475C46.428 16.5622 46.4102 16.0892 46.7086 15.9726Z" fill="#846DF2"/>
<path d="M40.9794 22.7758L44.846 23.7752C44.8922 23.7872 44.9395 23.7592 44.9515 23.7127L46.019 19.5854C46.031 19.5389 46.0033 19.4915 45.9571 19.4795L42.0904 18.4801C42.0442 18.4681 41.997 18.4961 41.985 18.5426L40.9174 22.6699C40.9054 22.7164 40.9331 22.7638 40.9794 22.7758Z" fill="#846DF2"/>
<path d="M41.4582 23.5186C40.8559 23.3548 40.496 22.7338 40.6532 22.1237L41.4732 18.9486C41.6336 18.335 42.2568 17.9638 42.8674 18.1211L47.5247 19.3242C47.7953 19.3978 48.0669 19.5882 48.2223 19.8525C48.3777 20.1167 48.4205 20.4251 48.3418 20.7224L47.5224 23.8955C47.4463 24.1913 47.2602 24.4418 46.9968 24.5988C46.7334 24.7557 46.4244 24.7991 46.1302 24.7235L41.473 23.5204L41.4588 23.5166L41.4582 23.5186ZM47.3221 20.1329L47.3181 20.1318L42.6608 18.9287C42.4934 18.8854 42.3192 18.9875 42.2751 19.1579L41.4557 22.331C41.412 22.4994 41.5116 22.6715 41.6785 22.7169L41.6825 22.718L46.3398 23.9211C46.4212 23.9432 46.5059 23.9289 46.5785 23.8871C46.6516 23.8433 46.7027 23.7758 46.7229 23.6934L47.5429 20.5183C47.5652 20.4364 47.5538 20.3498 47.5098 20.2785C47.4679 20.2078 47.4009 20.1566 47.3216 20.135L47.3221 20.1329Z" fill="#846DF2"/>
<path d="M53.7834 26.399L59.4649 27.8676C59.5641 27.8933 59.6655 27.8332 59.6913 27.7334L60.7859 23.5013C60.8117 23.4015 60.7522 23.2998 60.653 23.2742L54.9714 21.8056C54.8722 21.7799 54.7708 21.84 54.745 21.9398L53.6504 26.1719C53.6246 26.2717 53.6841 26.3734 53.7834 26.399Z" fill="white"/>
<path d="M53.6649 26.3617L57.5315 27.3612C57.5778 27.3731 57.625 27.3451 57.637 27.2986L58.7491 22.9988C58.7612 22.9523 58.7334 22.9049 58.6872 22.893L54.8206 21.8935C54.7744 21.8816 54.7271 21.9096 54.7151 21.9561L53.603 26.2559C53.591 26.3024 53.6187 26.3498 53.6649 26.3617Z" fill="#846DF2"/>
<path d="M54.1871 26.9381C53.8982 26.8595 53.6562 26.6728 53.5037 26.4137C53.3484 26.1495 53.3061 25.839 53.3842 25.5438L54.2036 22.3707C54.364 21.7571 54.9872 21.3859 55.5978 21.5432L60.2551 22.7463C60.5355 22.816 60.7973 23.0103 60.9527 23.2746C61.1081 23.5388 61.1509 23.8472 61.0722 24.1445L60.2528 27.3176C60.1761 27.6155 59.9906 27.8639 59.7251 28.0203C59.4617 28.1773 59.1548 28.2213 58.8612 28.1436L54.204 26.9405L54.1897 26.9366L54.1871 26.9381ZM60.049 23.5519L60.045 23.5508L55.3877 22.3477C55.2203 22.3043 55.0461 22.4064 55.002 22.5769L54.1825 25.7499C54.1603 25.8318 54.1717 25.9184 54.2157 25.9897C54.2591 26.0631 54.3099 26.1011 54.4079 26.1344L59.0652 27.3375C59.1466 27.3596 59.2313 27.3453 59.3039 27.3035C59.3764 27.2617 59.4281 27.1922 59.4484 27.1098L60.2683 23.9347C60.2906 23.8528 60.2792 23.7662 60.2352 23.6949C60.1933 23.6241 60.1264 23.5729 60.047 23.5513L60.049 23.5519Z" fill="#846DF2"/>
<path d="M34.9074 40.2056C34.6279 40.1164 34.4085 40.1358 34.4023 39.8132C34.3991 39.6079 34.4691 39.4071 34.524 39.2133C34.6053 38.9145 34.6886 38.6162 34.7698 38.3174C34.9868 37.528 35.2037 36.7385 35.4201 35.9511C36.0174 33.7793 36.6142 31.6095 37.2115 29.4377C38.5314 24.6577 39.8518 19.8757 41.2226 15.1095C41.6586 13.595 42.0235 12.0127 42.584 10.5387C42.8441 9.85549 43.3992 9.74273 44.0093 9.8779C44.5084 9.98728 45.0069 10.0987 45.5059 10.2081C49.2534 11.0362 53.0029 11.8649 56.7504 12.6931C57.4842 12.8553 58.218 13.0176 58.9519 13.1798C59.3496 13.2682 59.7886 13.3173 60.174 13.4507C60.4096 13.5324 60.4687 13.7089 60.6164 13.9293C61.1129 14.6666 61.6094 15.404 62.1033 16.1428C62.6217 16.9124 63.1394 17.6841 63.6578 18.4537C63.9342 18.8674 64.2612 19.2157 64.1464 19.7582C63.9934 20.4815 63.7351 21.1981 63.5312 21.9076C62.5196 25.4416 61.508 28.9756 60.4964 32.5097C59.491 36.0212 58.4861 39.5307 57.4806 43.0422C57.2773 43.7496 57.1028 44.4714 56.8715 45.1691C56.7552 45.5243 56.5804 45.7493 56.1812 45.7066C55.8176 45.6693 55.4396 45.5247 55.0839 45.4345C54.1237 45.1887 53.1618 44.9491 52.2026 44.7079C47.2214 43.4585 42.2319 42.2397 37.2776 40.8833C36.4414 40.6558 35.6047 40.4216 34.7763 40.1655C34.5221 40.0876 34.4868 40.2736 34.577 40.4564C34.7029 40.7082 35.0468 40.8743 35.3003 40.9543C40.0552 42.4169 44.9261 43.5419 49.75 44.7507C51.8818 45.2845 54.0133 45.8115 56.1412 46.3596C56.8541 46.5425 57.6147 46.7186 57.8989 45.8508C57.9807 45.5983 58.0447 45.3387 58.1184 45.084C59.0379 41.8722 59.958 38.6584 60.8776 35.4466C61.9873 31.5678 63.0991 27.6896 64.2093 23.8087C64.5053 22.777 64.7986 21.7468 65.0946 20.7151C65.2237 20.2644 65.2993 19.8498 65.0631 19.4009C64.7987 18.9026 64.4337 18.445 64.1216 17.9776C63.1677 16.5598 62.2468 15.1092 61.2556 13.7163C60.5254 12.6891 59.3118 12.5875 58.1844 12.338C54.334 11.4863 50.4832 10.6366 46.6328 9.78487C45.5034 9.53478 44.3754 9.26312 43.2398 9.03555C42.3345 8.85303 41.7336 9.27865 41.4629 10.137C41.2368 10.8558 41.0224 11.58 40.8079 12.3041C39.4348 16.9663 38.144 21.6553 36.8462 26.338C35.7184 30.4119 34.6042 34.4917 33.4784 38.5662C33.3638 38.9878 33.2535 39.393 33.4928 39.7988C33.846 40.396 34.5427 40.7108 35.1759 40.9138C35.3568 40.9718 35.5932 41.0185 35.5503 40.7585C35.5129 40.5263 35.0985 40.2663 34.9013 40.2039L34.9074 40.2056Z" fill="#846DF2"/>
<path d="M33.6952 40.2957C34.3302 41.4157 34.9646 42.5379 35.5996 43.6579C35.8399 44.0838 36.0662 44.5212 36.3247 44.9366C36.6479 45.4597 37.1823 45.7282 37.7556 45.8863C39.7926 46.4471 41.8527 46.9393 43.8992 47.4652C47.1833 48.3102 50.4678 49.1531 53.7518 49.998C55.6147 50.4762 57.4727 50.9882 59.344 51.4356C60.0067 51.5939 60.8268 51.6719 61.2446 51.0119C61.4333 50.7115 61.5039 50.3636 61.6019 50.0276C61.7805 49.419 61.9679 48.8106 62.1527 48.2036C62.9552 45.5425 63.7578 42.8814 64.5588 40.2176C65.5628 36.8881 66.5668 33.5587 67.5682 30.2307C68.3006 27.8033 69.0316 25.3732 69.764 22.9458C69.8705 22.5945 70.1238 22.1051 70.1295 21.7308C70.1366 21.3349 69.696 20.7776 69.517 20.4476C69.0459 19.5765 68.5573 18.7138 68.0603 17.8577C67.6053 17.0723 67.1476 16.2884 66.6583 15.5245C66.2596 14.9017 65.8516 14.5137 65.1243 14.2873C63.7363 13.8548 62.345 13.4346 60.9574 13.0088C60.5681 12.8897 60.1807 12.7712 59.7914 12.6521C59.6521 12.6098 59.1871 12.5118 59.1286 12.7267C59.0702 12.9416 59.5376 13.0952 59.6585 13.1325C60.8286 13.4903 61.9982 13.8502 63.1683 14.208C63.7492 14.3859 64.402 14.5085 64.9574 14.7563C65.343 14.9293 65.5993 15.5375 65.8251 15.9045C66.7961 17.4764 67.7191 19.0881 68.5766 20.7237C68.6846 20.9289 68.8186 21.1434 68.8961 21.3645C68.9467 21.508 68.9298 21.3451 68.9219 21.4463C68.91 21.5947 68.8258 21.7674 68.7834 21.9075C67.2317 27.0575 65.6795 32.2095 64.1258 37.3589C62.8574 41.5638 61.506 45.7527 60.3292 49.9826C60.1891 50.4896 59.9359 51.0427 59.4259 50.9414C59.2038 50.8985 58.9828 50.8274 58.7619 50.7717C57.7875 50.5221 56.8136 50.2703 55.8391 50.0207C52.7449 49.2251 49.6507 48.4296 46.5544 47.6335C43.9746 46.9714 41.3974 46.3077 38.8175 45.6455C38.3662 45.5293 37.7823 45.5068 37.4914 45.0979C37.1826 44.6666 36.9525 44.1469 36.6915 43.6846C36.2856 42.9675 35.8812 42.2531 35.4753 41.536C35.2778 41.1856 35.0798 40.8371 34.8823 40.4867C34.7507 40.2553 34.4439 40.1542 34.1945 40.115C34.1211 40.1038 33.5731 40.0778 33.6952 40.2957Z" fill="#846DF2"/>
<path d="M52.5246 29.6792C50.0073 29.0363 47.4965 28.3533 44.9692 27.7471C44.0193 27.5195 43.0318 27.8883 42.7577 28.8798C42.6442 29.2973 42.521 29.71 42.4033 30.1264C41.9031 31.8851 41.4023 33.6458 40.9041 35.405C40.7499 35.9477 40.5902 36.4867 40.4421 37.0311C40.2361 37.7884 40.524 38.4975 41.084 39.0257C41.6439 39.5539 42.3102 39.7637 43.0218 39.9353C43.77 40.1168 44.5162 40.2978 45.2644 40.4793C46.7797 40.8454 48.2932 41.2263 49.8118 41.58C50.6193 41.7689 51.4205 41.611 51.9234 40.8949C52.2303 40.4575 52.3225 39.9177 52.456 39.4111C52.916 37.6877 53.374 35.9637 53.8341 34.2403C54.1264 33.1416 54.7564 31.6931 54.0115 30.664C53.6559 30.1716 53.0928 29.8558 52.5246 29.6792C52.3391 29.6222 52.1036 29.6043 52.1579 29.8543C52.209 30.0923 52.6345 30.3114 52.8363 30.3729C53.7939 30.6685 53.0222 32.6699 52.8387 33.3607C52.4082 34.9756 51.9776 36.5905 51.5465 38.2075C51.2486 39.3266 50.9689 41.1826 49.3719 40.8515C48.154 40.5972 46.9465 40.2643 45.7351 39.97C44.9294 39.775 44.1216 39.5794 43.3158 39.3844C42.8954 39.2832 42.4192 39.2262 42.0158 39.0703C40.9381 38.6541 41.6958 36.9853 41.9032 36.2548L43.3041 31.3298L43.7611 29.7221C43.9524 29.0509 44.264 28.54 45.0282 28.4622C45.2979 28.4344 45.2197 28.4329 45.4294 28.4812C45.6392 28.5295 45.8421 28.5868 46.0467 28.6381C46.786 28.8282 47.528 29.0169 48.2673 29.207C49.6997 29.5724 51.1296 29.9394 52.562 30.3049L52.8337 30.3744C53.0174 30.4221 53.2572 30.4566 53.2004 30.1994C53.1512 29.9706 52.7225 29.7309 52.522 29.6807L52.5246 29.6792Z" fill="#846DF2"/>
<path d="M49.9951 29.5005C48.7364 33.0838 47.641 36.7489 46.7896 40.4495C46.7127 40.7803 47.9282 41.0274 48.0103 40.6695C48.8618 36.9688 49.9571 33.3037 51.2159 29.7204C51.3195 29.4277 50.1255 29.1337 49.9951 29.5005Z" fill="#846DF2"/>
<path d="M46.4389 28.7215C45.6056 32.4117 44.6501 36.0929 43.5639 39.7166C43.4756 40.0091 44.6834 40.2365 44.796 39.8627C45.8822 36.239 46.8382 32.5558 47.671 28.8676C47.7419 28.5506 46.5238 28.3534 46.4389 28.7215Z" fill="#846DF2"/>
<path d="M52.7761 33.5358C52.341 33.545 51.6035 33.3883 51.0796 33.2898C50.1047 33.1059 49.1351 32.8949 48.1676 32.6757C46.2699 32.2452 44.3726 31.7973 42.5002 31.266C42.313 31.215 42.0768 31.2079 42.1404 31.456C42.204 31.7041 42.6338 31.8914 42.8367 31.9488C44.7926 32.5028 46.7765 32.9699 48.7598 33.4149C49.7609 33.6388 50.7637 33.8567 51.7722 34.0453C52.3649 34.1559 52.9816 34.2907 53.5877 34.2797C53.8734 34.2739 53.652 33.9631 53.5588 33.8718C53.362 33.6798 53.0531 33.5299 52.7741 33.5353L52.7761 33.5358Z" fill="#846DF2"/>
<path d="M52.0615 37.1615C48.664 36.2197 45.2091 35.4646 41.7554 34.7537C41.5918 34.7202 41.2535 34.6787 41.2498 34.9173C41.247 35.1363 41.7882 35.2835 41.9247 35.3119C45.269 35.9996 48.6186 36.7239 51.9104 37.6369C52.0507 37.6751 52.5074 37.8037 52.5757 37.5849C52.644 37.3661 52.181 37.1962 52.0595 37.1609L52.0615 37.1615Z" fill="#846DF2"/>
<path d="M49.9161 24.3609C49.5984 24.5009 49.4185 24.7926 49.3401 25.1208C49.3034 25.2801 49.2979 25.4368 49.3631 25.5908C49.4589 25.8169 49.6823 25.9678 49.904 26.0523C50.1395 26.1427 50.4088 26.1808 50.6592 26.1522C50.8305 26.1329 51.0061 26.0817 51.1252 25.9493C51.1844 25.8841 51.2287 25.8016 51.2734 25.7258C51.3362 25.6154 51.3975 25.5024 51.4426 25.385C51.5152 25.1981 51.5367 25.0149 51.4887 24.8217C51.4183 24.5343 51.13 24.3812 50.8658 24.3159C50.4826 24.2227 50.0247 24.219 49.7145 24.4995C49.549 24.6501 49.4608 24.8943 49.4406 25.113C49.4335 25.2034 49.5322 25.2742 49.5964 25.3114C49.7166 25.3837 49.882 25.4265 50.0218 25.4425C50.1617 25.4586 50.3241 25.472 50.4668 25.4295C50.5384 25.4072 50.6615 25.3725 50.6717 25.2786C50.6825 25.1585 50.7117 25.0433 50.7632 24.9342L50.7332 24.9964C50.784 24.8981 50.8462 24.8139 50.9362 24.7483L50.8654 24.7994C50.8925 24.7804 50.9219 24.7686 50.9484 24.7516C50.9872 24.7292 50.8608 24.7761 50.9025 24.7677C50.9441 24.7592 50.9865 24.7642 50.8409 24.7773L50.7282 24.7818L50.4583 24.7458C50.3911 24.7275 50.3257 24.7031 50.2644 24.6711C50.3201 24.6994 50.1988 24.6071 50.2241 24.6425C50.2321 24.6535 50.2467 24.664 50.2546 24.675L50.2009 24.6076C50.2496 24.6692 50.2768 24.7382 50.293 24.8151L50.2812 24.746C50.3186 24.954 50.2554 25.1544 50.1658 25.3388L50.1959 25.2767C50.1236 25.4218 50.0413 25.6039 49.9126 25.7074L49.9833 25.6563C49.9672 25.6673 49.9104 25.6914 49.98 25.6685C50.0155 25.6584 50.0233 25.6539 50.0017 25.6612C49.9569 25.6732 49.9907 25.6693 50.1021 25.6534C50.2683 25.637 50.4285 25.6586 50.5864 25.7126C50.5149 25.6865 50.6957 25.7687 50.6467 25.74C50.6316 25.7315 50.5933 25.7035 50.6517 25.7457C50.7157 25.7917 50.6669 25.7543 50.6523 25.7437C50.6277 25.7216 50.6077 25.6986 50.5863 25.673L50.6401 25.7404C50.5874 25.6689 50.5538 25.5916 50.5357 25.5054L50.5475 25.5745C50.5188 25.3909 50.588 25.1767 50.6673 25.0136L50.6373 25.0758C50.6945 24.9617 50.7714 24.8639 50.8708 24.7877L50.8001 24.8388C50.8458 24.8072 50.8925 24.7804 50.9447 24.7572C51.0191 24.7247 51.0667 24.6541 51.0336 24.5748C50.9967 24.4856 50.8513 24.4175 50.7716 24.3892C50.5132 24.2947 50.1801 24.2503 49.9196 24.3641L49.9161 24.3609Z" fill="#846DF2"/>
<path d="M56.7312 45.8918C57.446 47.4094 58.2975 48.8742 59.1583 50.3128C59.2753 50.5095 59.3891 50.7097 59.5216 50.8974C59.6879 51.1295 59.9675 51.3308 60.2497 51.3856C60.476 51.4296 60.5889 51.2955 60.4455 51.0916C60.1403 50.6635 59.8892 50.1885 59.628 49.735C59.1921 48.9834 58.7661 48.2279 58.3618 47.4651C58.1534 47.0743 57.9502 46.6806 57.76 46.2793C57.6397 46.0224 57.3651 45.8268 57.1047 45.7318C56.9799 45.6847 56.6075 45.6317 56.7312 45.8918Z" fill="#846DF2"/>
<path d="M41.5113 44.5374C40.5478 47.0272 39.7192 49.5912 39.3432 52.243C39.0864 54.0547 39.0878 55.8729 39.0917 57.6983C39.0937 58.8155 39.0784 59.9323 39.0088 61.0475C39.2263 61.0034 39.4463 60.9577 39.6637 60.9136C38.7643 60.7656 37.8649 60.6177 36.9655 60.4697L37.4961 60.8888C37.85 60.5279 38.8523 60.4181 39.2435 60.5465L38.8386 60.2275C38.7896 60.4076 38.736 60.5887 38.6849 60.7682L39.3398 60.6342C38.8664 60.5428 38.3925 60.4535 37.9212 60.3626L38.1442 60.8761C38.4432 60.8695 38.7437 60.8655 39.0427 60.8589C39.2382 60.855 39.4596 60.7723 39.3239 60.564C39.1883 60.3556 38.7219 60.3189 38.5064 60.324C38.2074 60.3306 37.9069 60.3346 37.608 60.3412C37.4544 60.3434 37.2549 60.3858 37.2755 60.5673C37.2961 60.7487 37.7062 60.8317 37.831 60.8546C38.3044 60.946 38.7783 61.0354 39.2497 61.1262C39.4036 61.1549 39.8424 61.2127 39.9045 60.9923C39.9535 60.8122 40.0071 60.6311 40.0582 60.4516C40.1038 60.2837 39.7492 60.1653 39.6533 60.1326C39.0579 59.9355 38.4027 59.9419 37.7858 60.0247C37.3162 60.0882 36.6914 60.1842 36.3427 60.5421C36.1301 60.7612 36.7877 60.9467 36.8733 60.9612C37.7727 61.1091 38.6721 61.2571 39.5716 61.405C39.6868 61.4232 40.2118 61.4935 40.2264 61.271C40.3454 59.3955 40.2787 57.52 40.318 55.6404C40.3622 53.606 40.6264 51.5986 41.1308 49.6235C41.5546 47.9693 42.1126 46.3517 42.7289 44.7609C42.8379 44.4806 41.6509 44.1687 41.5093 44.5368L41.5113 44.5374Z" fill="#846DF2"/>
<path d="M50.8081 46.9444C49.5679 52.3791 48.7312 57.8972 48.3036 63.454L48.9584 63.32C48.059 63.172 47.1596 63.0241 46.2602 62.8762L46.7908 63.2953C47.1447 62.9343 48.147 62.8245 48.5382 62.9529L48.1333 62.6339C48.0843 62.814 48.0307 62.9951 47.9796 63.1746L48.6345 63.0406C48.1611 62.9492 47.6872 62.8599 47.2159 62.769L47.439 63.2825C47.7379 63.2759 48.0384 63.2719 48.3374 63.2653C48.5329 63.2614 48.7543 63.1787 48.6187 62.9704C48.483 62.762 48.0166 62.7253 47.8011 62.7304C47.5021 62.737 47.2017 62.741 46.9027 62.7476C46.7491 62.7498 46.5496 62.7922 46.5702 62.9737C46.5908 63.1551 47.0009 63.2381 47.1257 63.2611C47.5991 63.3525 48.073 63.4418 48.5444 63.5327C48.6983 63.5613 49.1371 63.6191 49.1992 63.3987L49.3529 62.858C49.3985 62.6902 49.044 62.5717 48.948 62.539C48.3526 62.3419 47.6974 62.3483 47.0805 62.4311C46.6109 62.4946 45.9861 62.5906 45.6374 62.9485C45.4248 63.1677 46.0824 63.3531 46.168 63.3676C47.0674 63.5156 47.9669 63.6635 48.8663 63.8114C48.9856 63.8307 49.5045 63.8993 49.5211 63.6775C49.9468 58.1201 50.7834 52.602 52.0256 47.1679C52.101 46.8345 50.8875 46.5879 50.806 46.9438L50.8081 46.9444Z" fill="#846DF2"/>
<path d="M64.8592 20.0134C66.4185 20.587 67.9269 21.2919 69.4857 21.8676C69.6405 21.9251 69.9425 21.9479 69.8539 21.6952C69.7653 21.4425 69.4122 21.2541 69.1823 21.1674C67.623 20.5938 66.1146 19.8889 64.5558 19.3132C64.401 19.2557 64.099 19.233 64.1876 19.4857C64.2762 19.7383 64.6293 19.9267 64.8592 20.0134Z" fill="#846DF2"/>
<path d="M33.6188 38.1382C33.512 38.4586 33.4198 38.7896 33.3705 39.1235C33.3297 39.3938 33.3342 39.6346 33.4505 39.8816C33.7344 40.493 34.1226 41.0579 34.4718 41.6299C34.5627 41.7777 34.7968 41.8172 34.9562 41.8254C35.0145 41.8281 35.3603 41.81 35.2738 41.67C34.927 41.1053 34.5499 40.5477 34.2647 39.9492C34.1507 39.7094 34.1507 39.5006 34.1898 39.2365C34.2415 38.9098 34.3321 38.585 34.4352 38.2701C34.4994 38.0744 33.701 37.8924 33.6188 38.1382Z" fill="#846DF2"/>
<path d="M62.6801 36.0143C64.8696 37.4605 67.4786 39.1725 68.2386 41.8652C68.4353 42.5561 68.4437 43.3607 68.0071 43.9695C67.6487 44.4677 67.0932 44.7584 66.5146 44.9175C65.8391 45.103 65.1016 45.1794 64.4045 45.1392C63.5592 45.0895 63.0103 44.6171 62.3276 44.1786C61.7217 43.7874 60.9362 43.4616 60.2093 43.6837C59.6421 43.8569 59.512 44.5117 60.027 44.8277C60.231 44.9535 60.5272 45.0055 60.7631 44.9817C60.8461 44.9735 61.2007 44.9073 61.0891 44.7473C60.971 44.5789 60.9791 44.3481 61.1914 44.2586C61.4527 44.1494 61.1487 43.9414 61.0256 43.8882C60.7777 43.779 60.4301 43.7394 60.174 43.8456C59.8316 43.9876 59.6635 44.3727 59.8887 44.6933L60.9502 44.615C60.8492 44.5524 60.9458 44.3742 60.9582 44.2963C60.9648 44.2563 61.0142 44.195 61.047 44.1709L60.985 44.1497L61.1333 44.223C61.454 44.4179 61.7567 44.6387 62.0694 44.8469C62.7275 45.2875 63.4547 45.538 64.2408 45.6288C65.5102 45.7741 67.0487 45.6694 68.2095 45.073C71.0421 43.6169 68.8702 40.1621 67.311 38.6235C66.2017 37.5283 64.896 36.6566 63.6033 35.8016C63.3773 35.6522 62.9985 35.5909 62.7379 35.6651C62.5057 35.7316 62.4769 35.8776 62.6827 36.0128L62.6801 36.0143Z" fill="#846DF2"/>
<path d="M36.6346 26.9992C34.9575 29.196 32.3993 30.7839 29.7003 31.3312C28.5021 31.5745 26.8102 31.3034 25.9208 32.3319C24.9006 33.5117 26.4731 34.3504 27.5414 34.2871C27.6546 34.2806 28.0584 34.186 27.8262 33.9953C27.4331 33.673 26.7651 32.9154 27.3345 32.4527C27.5284 32.2944 27.0579 32.0961 26.97 32.0656C26.7536 31.9935 26.3877 31.9248 26.1887 32.086C25.4863 32.6599 26.217 33.6126 26.7262 34.0302L27.011 33.7384C27.0669 33.7339 26.9744 33.7285 26.9241 33.6643C26.85 33.5672 26.797 33.4648 26.791 33.3423C26.7757 33.0612 26.9728 32.7785 27.1605 32.5944C27.6269 32.141 28.2804 32.0923 28.8914 32.0475C30.0394 31.9641 31.1527 31.7438 32.237 31.3486C34.3865 30.5639 36.3791 29.1915 37.7775 27.3606C38.0019 27.0656 36.8481 26.7122 36.631 26.996L36.6346 26.9992Z" fill="#846DF2"/>
<path d="M23.777 37.2302C24.1087 36.3642 24.7334 35.578 25.3371 34.885C25.9093 34.2274 26.7319 33.5653 27.6539 33.6139C27.9427 33.6287 28.0942 33.6985 28.2411 33.9539C28.4618 34.3392 28.425 34.8282 28.3773 35.2526C28.2541 36.3401 28.016 37.4161 27.7003 38.4644C27.5866 38.8423 28.6981 39.3513 28.7847 39.0649C29.0723 38.1123 29.2886 37.1402 29.4294 36.1564C29.5558 35.2742 29.5942 34.434 28.9228 33.7612C28.303 33.1398 27.3567 32.7704 26.4804 32.8991C25.6385 33.0217 24.9401 33.5329 24.3749 34.1485C24.0394 34.5144 23.746 34.9182 23.4517 35.3173C23.1473 35.7291 22.8771 36.1523 22.692 36.6317C22.5558 36.9881 23.6624 37.5309 23.7765 37.2322L23.777 37.2302Z" fill="#846DF2"/>
<path d="M20.3986 36.2667C22.171 36.9489 23.9434 37.631 25.7158 38.3132C26.6017 38.6553 27.4882 38.9953 28.3742 39.3374C29.2048 39.6579 30.0281 40.0291 30.8883 40.2653L30.1878 39.611C29.0572 43.4863 27.9245 47.361 26.7939 51.2364C26.6339 51.7841 26.474 52.3319 26.3141 52.8797L26.8284 52.9009C23.3443 51.5223 19.8622 50.1443 16.378 48.7658C15.889 48.5712 15.3995 48.3787 14.9104 48.1841L15.4698 48.7869C17.0585 45.1395 18.6467 41.4941 20.2354 37.8467L20.9149 36.2885C21.0658 35.9427 19.9727 35.3662 19.8433 35.6651C18.2546 39.3125 16.6664 42.9579 15.0777 46.6053C14.8514 47.124 14.6245 47.6447 14.3982 48.1635C14.2888 48.4129 14.8018 48.7041 14.9575 48.7662C18.4416 50.1448 21.9237 51.5228 25.4079 52.9013C25.8969 53.0959 26.3864 53.2884 26.8755 53.483C26.9506 53.5122 27.3406 53.6688 27.3898 53.5042C28.5204 49.6289 29.6531 45.7541 30.7837 41.8788C30.9436 41.331 31.1036 40.7832 31.2635 40.2355C31.3542 39.9261 30.7868 39.642 30.563 39.5811C29.6718 39.3387 28.8131 38.9447 27.9505 38.6133C27.0879 38.282 26.305 37.9789 25.4819 37.6627C23.773 37.0044 22.064 36.3461 20.355 35.6878C20.1987 35.6277 19.8843 35.4982 19.8264 35.7352C19.7768 35.9416 20.2697 36.2185 20.4001 36.2693L20.3986 36.2667Z" fill="#846DF2"/>
<path d="M30.8152 40.3658C30.9281 40.4009 31.0418 40.4406 31.1563 40.4696C31.283 40.5018 31.4068 40.4564 31.2203 40.4672L31.1151 40.4122L31.0807 40.6029C31.0394 40.6905 31.0287 40.8986 31.0145 40.9827C30.9723 41.2262 30.9307 41.4677 30.8885 41.7111C30.7935 42.2612 30.6965 42.8107 30.6015 43.3607C30.3836 44.6115 30.1637 45.8617 29.9418 47.1114C29.5998 49.0274 29.3048 50.9715 28.8426 52.8636C28.8212 52.9501 28.7575 53.08 28.7596 53.1685C28.7604 53.1819 28.7237 53.2445 28.7281 53.2523C28.7057 53.222 29.0375 53.1672 29.0285 53.1603C28.8848 53.0619 28.4476 53.1188 28.2744 53.1047C27.853 53.0714 27.4327 53.034 27.012 52.9899C26.8144 52.9691 26.5897 53.0399 26.7052 53.2581C26.8206 53.4763 27.2785 53.5525 27.4975 53.5747C28.1535 53.6455 28.8374 53.7502 29.4987 53.7454C29.7458 53.7445 29.8702 53.7212 29.9581 53.4945C30.2141 52.8344 30.2836 52.0488 30.417 51.3576C30.9225 48.7278 31.3782 46.0888 31.8378 43.4509C31.9561 42.7753 32.0728 42.097 32.191 41.4214C32.2444 41.1128 32.4307 40.669 32.2083 40.4019C31.9396 40.0804 31.3252 40.0012 30.9501 39.886C30.8108 39.8437 30.3469 39.7417 30.2864 39.956C30.2248 40.1744 30.6922 40.3279 30.8152 40.3658Z" fill="#846DF2"/>
</svg>
