<svg width="90" height="63" viewBox="0 0 90 63" fill="none" xmlns="http://www.w3.org/2000/svg">
<path fill-rule="evenodd" clip-rule="evenodd" d="M33.2881 2.45136C32.8428 3.31 32.0729 23.7169 32.0729 23.7169C32.0729 23.7169 31.0642 38.2296 31.7949 38.9967C32.5255 39.7638 36.437 44.109 36.437 44.109C36.437 44.109 36.6682 44.5766 41.0397 44.5123C45.4112 44.448 54.351 44.8414 54.351 44.8414C54.351 44.8414 64.1986 45.5788 64.9145 44.6905C65.6304 43.8021 65.6304 36.9429 65.6304 36.9429L66.5849 22.9622C66.5849 22.9622 67.6328 9.19676 67.6328 8.74145C67.6328 8.28615 63.96 4.61652 63.96 4.61652C63.96 4.61652 61.4335 2.09751 60.8972 1.89461C60.3609 1.6917 54.1985 1.52344 54.1985 1.52344L43.1111 1.5853C43.1111 1.5853 34.7346 1.79563 33.9991 1.85749C33.2635 1.91935 33.2906 2.45632 33.2906 2.45632L33.2881 2.45136Z" fill="#FFF485"/>
<path fill-rule="evenodd" clip-rule="evenodd" d="M32.214 47.9609C32.214 51.9942 28.7478 55.2655 24.4722 55.2655C20.1967 55.2655 16.7305 51.9942 16.7305 47.9609C16.7305 43.9275 20.1967 40.6562 24.4722 40.6562C28.7478 40.6562 32.214 43.9275 32.214 47.9609Z" fill="#C5CBFF"/>
<path fill-rule="evenodd" clip-rule="evenodd" d="M52.2331 24.382C52.2355 24.0578 51.5664 22.9097 51.249 22.8429C49.8714 22.5558 46.8062 22.4865 45.5614 22.4643C44.0583 22.4395 40.2182 22.155 39.736 22.9988C39.2538 23.8401 38.875 32.7877 38.875 32.7877C38.875 32.7877 38.9242 35.1929 39.9574 35.8858C40.4544 36.2173 42.6463 36.346 45.2441 36.3906C48.0584 36.4376 50.6586 36.5984 51.1826 36.1654C52.1888 35.334 52.1814 29.2963 52.1814 29.2963L52.2355 24.3795L52.2331 24.382Z" fill="#B5F485"/>
<path d="M35.3273 17.8054L42.2992 17.9866C42.4187 17.9897 42.5181 17.8947 42.5212 17.7745L42.6522 12.6763C42.6553 12.5561 42.5609 12.4561 42.4413 12.453L35.4694 12.2718C35.3499 12.2687 35.2505 12.3637 35.2474 12.4839L35.1165 17.5821C35.1134 17.7023 35.2078 17.8023 35.3273 17.8054Z" fill="white"/>
<path d="M54.6518 9.50004C53.717 9.27239 52.7846 8.86163 51.8105 8.95318C50.9494 8.98782 50.8904 7.66894 51.7539 7.62687C52.4845 7.58233 55.781 8.33704 55.0553 9.41096C54.9421 9.51736 54.792 9.53468 54.6518 9.50004Z" fill="#846DF2"/>
<path d="M39.9056 8.35897C40.7937 7.80221 41.7555 7.6587 42.7765 7.42362C43.1356 7.36176 43.4751 7.60673 43.5366 7.968C43.5981 8.32927 43.3546 8.67075 42.9954 8.73261C42.0458 8.75735 41.0963 9.14089 40.1196 9.11862C39.7408 9.1013 39.5981 8.57177 39.9056 8.35897Z" fill="#846DF2"/>
<path d="M35.1906 17.5951L39.8484 17.7161C39.9041 17.7176 39.9504 17.6733 39.9518 17.6173L40.0795 12.6453C40.081 12.5893 40.037 12.5427 39.9813 12.5413L35.3235 12.4202C35.2679 12.4188 35.2216 12.463 35.2201 12.519L35.0924 17.491C35.091 17.5471 35.1349 17.5936 35.1906 17.5951Z" fill="#846DF2"/>
<path d="M41.5873 18.4619C41.5873 18.4619 41.5652 18.4619 41.5529 18.4619L35.944 18.3159C35.5873 18.306 35.2576 18.1575 35.0116 17.9002C34.7656 17.6404 34.6352 17.3014 34.6451 16.9426L34.7435 13.1195C34.7533 12.7607 34.9009 12.4292 35.1592 12.1817C35.4175 11.9343 35.757 11.8031 36.1112 11.813L41.7201 11.959C42.4532 11.9788 43.0363 12.5949 43.0191 13.3323L42.9207 17.1554C42.901 17.8829 42.3081 18.4619 41.5873 18.4619ZM35.9686 17.3459L41.5775 17.4919C41.5775 17.4919 41.5849 17.4919 41.5873 17.4919C41.7866 17.4919 41.9514 17.3311 41.9563 17.1306L42.0547 13.3076C42.0596 13.1047 41.8973 12.9339 41.6956 12.929L36.0866 12.783C35.9858 12.7756 35.8972 12.8152 35.8234 12.8845C35.7521 12.9537 35.7103 13.0453 35.7078 13.1443L35.6094 16.9673C35.6069 17.0663 35.6414 17.1603 35.7103 17.2321C35.7791 17.3039 35.8702 17.3459 35.9686 17.3484V17.3459Z" fill="#846DF2"/>
<path d="M50.6907 18.3467L57.5766 18.5256C57.6961 18.5287 57.7955 18.4338 57.7986 18.3136L57.9295 13.2154C57.9326 13.0952 57.8382 12.9952 57.7187 12.9921L50.8329 12.8131C50.7133 12.81 50.6139 12.905 50.6109 13.0252L50.4799 18.1234C50.4768 18.2436 50.5712 18.3436 50.6907 18.3467Z" fill="white"/>
<path d="M50.5519 18.3451L55.2097 18.4661C55.2654 18.4676 55.3117 18.4233 55.3132 18.3673L55.4462 13.1875C55.4476 13.1315 55.4037 13.0849 55.348 13.0835L50.6902 12.9624C50.6345 12.961 50.5882 13.0052 50.5868 13.0612L50.4537 18.241C50.4523 18.2971 50.4962 18.3436 50.5519 18.3451Z" fill="#846DF2"/>
<path d="M56.9511 19.0084C56.9511 19.0084 56.9265 19.0084 56.9142 19.0084L51.3053 18.8624C50.9486 18.8525 50.6189 18.704 50.3729 18.4467C50.1269 18.1869 49.9965 17.8479 50.0064 17.4891L50.1048 13.666C50.1146 13.3072 50.2622 12.9757 50.5205 12.7282C50.7788 12.4808 51.1257 12.3546 51.4726 12.3595L57.0815 12.5055C57.4382 12.5154 57.7678 12.6639 58.0138 12.9237C58.2598 13.1835 58.3878 13.5225 58.3804 13.8813L58.282 17.7044C58.2746 18.0607 58.127 18.3947 57.8687 18.6422C57.6202 18.8797 57.293 19.0109 56.9511 19.0109V19.0084ZM51.4381 13.3295C51.3446 13.3295 51.2536 13.3666 51.1847 13.431C51.1134 13.5002 51.0716 13.5918 51.0691 13.6908L50.9707 17.5138C50.9683 17.6128 51.0027 17.7068 51.0716 17.7786C51.1405 17.8504 51.2315 17.8924 51.3299 17.8949L56.9388 18.0409C57.0446 18.0508 57.1307 18.0087 57.202 17.9394C57.2734 17.8726 57.3152 17.7786 57.3152 17.6821L57.4136 13.859C57.416 13.7601 57.3816 13.666 57.3127 13.5943C57.2438 13.5225 57.1528 13.4805 57.0544 13.478L51.4455 13.332C51.4455 13.332 51.4381 13.332 51.4357 13.332L51.4381 13.3295Z" fill="#846DF2"/>
<path d="M32.8525 39.0177C32.4073 38.9806 32.3089 39.0747 32.1957 38.6688C32.1342 38.4461 32.1662 38.2036 32.176 37.9735C32.1908 37.6073 32.2055 37.2411 32.2228 36.8749C32.2621 35.9123 32.3015 34.9473 32.3408 33.9847C32.4466 31.3716 32.5549 28.7586 32.6631 26.1481C32.9042 20.3826 33.1477 14.6195 33.4503 8.85649C33.5487 7.00559 33.5635 5.1151 33.7972 3.2741C33.903 2.42783 34.4958 2.13585 35.2339 2.12842C35.8243 2.12347 36.4122 2.11606 37.0026 2.11111C41.4602 2.06904 45.9178 2.02697 50.3755 1.98491C51.2734 1.97748 52.1738 1.96758 53.0717 1.96016C53.5465 1.95521 54.0827 1.88098 54.5551 1.94531C54.8208 1.98243 54.9561 2.19771 55.1824 2.41052C55.9401 3.11821 56.6978 3.82838 57.4555 4.53608C58.2476 5.27594 59.0397 6.01581 59.8319 6.75567C60.2624 7.15654 60.7101 7.46089 60.7199 8.11415C60.7322 8.97774 60.6314 9.85865 60.5846 10.7198C60.3657 14.9833 60.1468 19.2443 59.9254 23.5078C59.704 27.7713 59.4875 32.0323 59.2661 36.2958C59.2218 37.1644 59.2095 38.0403 59.1308 38.9039C59.0373 39.9481 57.9868 39.6883 57.2119 39.671C56.0852 39.6438 54.9561 39.624 53.8294 39.6017C47.849 39.4904 41.8612 39.4161 35.8833 39.1736C34.8722 39.1316 33.8612 39.087 32.8501 39.0153C32.6262 39.0004 32.3507 39.0301 32.4761 39.3048C32.5918 39.5597 33.133 39.7131 33.3765 39.7304C39.1921 40.1461 45.0494 40.1486 50.8773 40.2574C53.4382 40.3045 55.9991 40.3441 58.56 40.4084C59.426 40.4307 60.4075 40.4579 60.501 39.3642C60.5281 39.0623 60.533 38.7554 60.5478 38.4511C60.747 34.5687 60.9463 30.6887 61.148 26.8063C61.3915 22.0998 61.6326 17.3934 61.8762 12.687C61.9401 11.4275 62.0066 10.168 62.0705 8.91093C62.0951 8.40861 62.0976 7.93847 61.7655 7.50791C61.3546 6.9759 60.7569 6.53544 60.2698 6.08014C58.8036 4.70929 57.3694 3.28647 55.8614 1.96016C54.7839 1.01244 53.3447 1.21783 52.0237 1.2302C47.4283 1.27474 42.8305 1.3168 38.2351 1.36134C36.8673 1.37372 35.4971 1.36134 34.1318 1.40093C33.0543 1.43062 32.4885 2.09131 32.4073 3.13059C32.3408 3.9917 32.2867 4.85528 32.2351 5.7164C31.898 11.4151 31.6619 17.1212 31.4183 22.8248C31.2092 27.7243 31.0173 32.6237 30.8107 37.5232C30.7886 38.0403 30.7689 38.5402 31.16 38.9361C31.7283 39.5126 32.6065 39.6685 33.379 39.7304C33.6029 39.7477 33.8784 39.7155 33.7529 39.4409C33.6373 39.1835 33.0961 39.0351 32.8525 39.0153V39.0177Z" fill="#846DF2"/>
<path d="M31.5169 39.4536C32.5329 40.5622 33.5489 41.6682 34.5649 42.7768C34.9512 43.1975 35.3226 43.6379 35.7236 44.0412C36.2304 44.5485 36.9069 44.6945 37.6006 44.7168C40.0336 44.7984 42.4666 44.8356 44.8996 44.8974C48.8726 44.9964 52.848 45.0929 56.821 45.1919C59.0793 45.2463 61.3426 45.3577 63.6009 45.3577C64.3856 45.3577 65.3377 45.2117 65.6427 44.3728C65.7854 43.9794 65.7731 43.5587 65.7952 43.148C65.8371 42.4155 65.8912 41.6831 65.9379 40.9531C66.1495 37.7066 66.3635 34.4601 66.5751 31.2112C66.8383 27.1827 67.1015 23.1518 67.3647 19.1234C67.5591 16.1516 67.7534 13.1797 67.9478 10.2079C67.9748 9.77981 68.1372 9.15625 68.0437 8.73312C67.9453 8.28276 67.2959 7.76313 67.0056 7.43402C66.2577 6.58528 65.4902 5.75139 64.7177 4.92244C63.9896 4.14546 63.2589 3.36848 62.4963 2.62366C61.9207 2.06196 61.409 1.68584 60.575 1.61903C58.885 1.48046 57.1925 1.379 55.5024 1.26023C55.0301 1.22559 54.5553 1.19342 54.083 1.15878C53.8935 1.1464 53.2711 1.10434 53.1924 1.35921C53.1137 1.61408 53.5073 1.70564 53.6967 1.71801C55.1211 1.81946 56.5455 1.91844 57.9674 2.01989C58.6906 2.07186 59.4262 2.0867 60.1445 2.17331C60.7325 2.24507 61.1433 2.80925 61.5467 3.21506C63.0425 4.72449 64.4914 6.29082 65.8863 7.89675C66.0904 8.13182 66.2823 8.37679 66.484 8.60939C66.516 8.64651 66.6243 8.84199 66.5923 8.71827C66.5948 8.72817 66.5874 8.74301 66.5923 8.75291C66.6218 8.91622 66.5677 9.13646 66.5554 9.29977C66.147 15.5329 65.7387 21.7686 65.3327 28.0018C64.9982 33.0992 64.5701 38.2015 64.3315 43.3039C64.3044 43.9002 64.3118 44.7291 63.5591 44.7687C63.3057 44.7811 63.0449 44.7564 62.7915 44.749C61.6328 44.7193 60.4766 44.692 59.3179 44.6623C55.6008 44.5708 51.8812 44.4792 48.1641 44.3877C45.0201 44.311 41.8737 44.2318 38.7298 44.1551C38.1148 44.1402 37.5121 44.2442 37.0865 43.8557C36.6265 43.4325 36.2255 42.9178 35.8048 42.4576C35.1554 41.7499 34.5059 41.0422 33.8565 40.3345C33.5391 39.9881 33.2217 39.6441 32.9044 39.2977C32.6978 39.0725 32.2992 39.0577 32.0163 39.0898C31.9228 39.0997 31.3128 39.2309 31.5096 39.4462L31.5169 39.4536Z" fill="#846DF2"/>
<path d="M50.1114 22.4244C47.0831 22.3527 44.0449 22.1993 41.0166 22.2116C39.8801 22.2166 38.8469 22.8995 38.805 24.0997C38.7878 24.6168 38.7534 25.134 38.7288 25.6487C38.623 27.7817 38.5172 29.9147 38.4114 32.0476C38.3794 32.691 38.3352 33.3368 38.3155 33.9802C38.2884 34.8735 38.7927 35.6034 39.5553 36.0414C40.2934 36.467 41.0904 36.5437 41.9121 36.5512C42.8174 36.5611 43.7227 36.571 44.6304 36.5809C46.441 36.6007 48.2541 36.6328 50.0647 36.6378C51.0757 36.6402 51.9934 36.2938 52.3993 35.2917C52.633 34.7151 52.5961 34.0767 52.6157 33.4655C52.6846 31.3845 52.7535 29.3059 52.8224 27.2249C52.8667 25.906 53.2037 24.0749 52.0721 23.1198C51.5259 22.6595 50.8076 22.4739 50.1114 22.422C49.8826 22.4047 49.6169 22.4715 49.7522 22.7313C49.8876 22.9911 50.4238 23.0901 50.6748 23.1074C51.8211 23.1915 51.4669 25.7823 51.4398 26.5865C51.3759 28.5215 51.3119 30.4541 51.2479 32.3891C51.2061 33.6808 51.371 35.8608 49.5997 35.9523C48.1237 36.0291 46.6132 35.9202 45.1347 35.9053C43.6931 35.8905 42.2073 35.9771 40.7706 35.8583C39.3339 35.7395 39.7448 33.5868 39.7891 32.6465C39.8875 30.6743 39.9834 28.7022 40.0818 26.73C40.1138 26.0693 40.1482 25.4111 40.1802 24.7504C40.222 23.9289 40.4237 23.2583 41.2946 22.9713C41.5874 22.8748 41.5111 22.8946 41.7571 22.8995C42.0031 22.9045 42.254 22.9119 42.5 22.9169L45.1151 22.9787C46.8592 23.0208 48.6009 23.0604 50.3451 23.1025L50.6723 23.1099C50.8962 23.1148 51.1717 23.0678 51.0315 22.8006C50.9011 22.5506 50.355 22.4294 50.109 22.4244H50.1114Z" fill="#846DF2"/>
<path d="M47.2021 22.9061C46.7126 27.3081 46.4346 31.7622 46.4395 36.1939C46.4395 36.58 47.8811 36.5057 47.8811 36.0677C47.8762 31.636 48.1566 27.1819 48.6437 22.7799C48.6831 22.4334 47.2538 22.4483 47.2021 22.9061Z" fill="#846DF2"/>
<path d="M42.9567 22.9503C42.9789 27.3623 42.8632 31.8015 42.5803 36.2036C42.5582 36.5475 43.9826 36.4535 44.0121 35.9907C44.295 31.5862 44.4106 27.1495 44.3885 22.7375C44.3885 22.3688 42.9543 22.5 42.9567 22.9503Z" fill="#846DF2"/>
<path d="M51.4146 26.7517C50.9669 26.863 50.0567 26.8853 49.454 26.9076C48.2854 26.9521 47.1169 26.9669 45.9509 26.9719C43.6802 26.9818 41.4047 26.9719 39.1365 26.8581C38.9077 26.8457 38.6445 26.9274 38.7897 27.1822C38.9348 27.4371 39.4736 27.5113 39.7245 27.5237C42.0935 27.64 44.4724 27.6499 46.8439 27.6375C48.0271 27.6301 49.2104 27.6153 50.3937 27.5608C51.112 27.5286 51.855 27.5187 52.5586 27.3431C52.8857 27.2614 52.5241 26.962 52.4011 26.8927C52.1108 26.7319 51.7369 26.675 51.4146 26.7541V26.7517Z" fill="#846DF2"/>
<path d="M51.5513 31.0373C47.4431 30.8592 43.3151 30.9161 39.2044 31.0151C39.0076 31.02 38.6189 31.0893 38.6853 31.3541C38.7517 31.6188 39.4012 31.5941 39.566 31.5916C43.5488 31.4951 47.5464 31.4481 51.5267 31.6213C51.6965 31.6287 52.25 31.6213 52.2598 31.359C52.2697 31.0967 51.6965 31.0472 51.5489 31.0398L51.5513 31.0373Z" fill="#846DF2"/>
<path d="M45.7563 17.0771C45.4341 17.3171 45.3111 17.7007 45.3086 18.0892C45.3086 18.2846 45.343 18.4603 45.4611 18.6212C45.6309 18.8538 45.9285 18.9602 46.2016 18.9899C46.4919 19.022 46.8117 18.9824 47.0847 18.876C47.2791 18.8018 47.4611 18.688 47.562 18.4974C47.6678 18.2945 47.7219 18.0397 47.7588 17.8145C47.7982 17.572 47.7785 17.3518 47.6653 17.134C47.53 16.8742 47.252 16.7703 46.974 16.748C46.4673 16.7109 45.8719 16.847 45.5669 17.2899C45.4193 17.5052 45.3873 17.8046 45.4217 18.057C45.4365 18.1609 45.5792 18.2104 45.6579 18.2327C45.8154 18.2772 46.0146 18.2747 46.177 18.25C46.3393 18.2253 46.5263 18.1906 46.6739 18.0991C46.7502 18.0496 46.8732 17.9778 46.8584 17.8665C46.8412 17.7353 46.8412 17.6066 46.8658 17.478L46.851 17.5572C46.8781 17.4334 46.9248 17.3196 47.0011 17.2181L46.9371 17.2973C46.9642 17.2652 46.9913 17.2404 47.0208 17.2107C47.0774 17.1563 46.9322 17.2627 46.9814 17.2379C47.0282 17.2157 47.0749 17.2082 46.9125 17.2676C46.824 17.2998 46.7305 17.3196 46.6395 17.3344C46.5189 17.3567 46.3984 17.3567 46.2803 17.332C46.2213 17.3196 46.2065 17.3171 46.236 17.3246C46.2877 17.3394 46.1204 17.2652 46.1819 17.3048C46.1991 17.3147 46.2164 17.3245 46.2336 17.3369L46.1524 17.2775C46.2163 17.3295 46.2631 17.3938 46.3024 17.4681L46.268 17.3938C46.3664 17.6042 46.359 17.8368 46.3147 18.0619L46.3295 17.9828C46.3049 18.1015 46.2705 18.2178 46.2336 18.3341C46.2016 18.4306 46.1696 18.5271 46.1056 18.6088L46.1696 18.5296C46.1696 18.5296 46.145 18.5519 46.1352 18.5643C46.1893 18.4875 46.3689 18.4579 46.4427 18.4405C46.5657 18.4108 46.6739 18.391 46.7994 18.396C46.8387 18.396 46.8781 18.396 46.9175 18.4084C46.9765 18.4207 46.9888 18.4207 46.9494 18.4133C46.8879 18.396 47.0036 18.4331 47.0085 18.4356C46.9986 18.4282 46.979 18.4232 46.9691 18.4183C46.9347 18.4009 46.9052 18.3811 46.8756 18.3589L46.9568 18.4183C46.8756 18.3539 46.8141 18.2797 46.7674 18.1857L46.8018 18.2599C46.7157 18.0669 46.733 17.8219 46.7699 17.6165L46.7551 17.6957C46.7871 17.5398 46.8461 17.3963 46.9445 17.2726L46.8806 17.3518C46.9273 17.2973 46.979 17.2478 47.0355 17.2058C47.1093 17.1489 47.1389 17.0499 47.0798 16.9732C47.0109 16.8841 46.8264 16.8519 46.728 16.8445C46.3959 16.8173 46.0318 16.8742 45.7612 17.0771H45.7563Z" fill="#846DF2"/>
<path d="M59.166 39.7627C59.9655 40.7748 60.8388 41.7324 61.7121 42.6801C62.3419 43.3655 62.9618 44.098 63.658 44.7141C63.904 44.9319 64.3026 45.0655 64.6273 45.0408C64.9053 45.021 64.9717 44.8379 64.7577 44.6498C64.6716 44.5731 64.5904 44.4914 64.5117 44.4098C64.4453 44.343 64.3813 44.2761 64.3149 44.2093C64.278 44.1697 64.2386 44.1326 64.2017 44.093C64.278 44.1722 64.1476 44.0386 64.1353 44.0237C63.7343 43.6031 63.3382 43.18 62.9446 42.7519C62.0861 41.819 61.2275 40.8762 60.4428 39.879C60.241 39.6217 59.8523 39.4905 59.5375 39.4633C59.3726 39.4485 58.9593 39.498 59.166 39.7578V39.7627Z" fill="#846DF2"/>
<path d="M15.8002 32.6043C15.7043 32.9012 15.7461 33.1907 15.9232 33.453C16.1299 33.7549 16.4694 33.9256 16.8162 34.0023C17.6625 34.1879 18.6834 33.9034 19.1729 33.1511C19.2295 33.062 19.1582 32.9779 19.0893 32.9309C18.9737 32.8542 18.7842 32.8245 18.6514 32.8195C18.4669 32.8121 18.2726 32.8195 18.0954 32.8765C17.9798 32.9136 17.8421 32.9581 17.7732 33.067C17.7191 33.1511 17.6576 33.2303 17.5862 33.3021L17.6551 33.2278C17.6083 33.2748 17.5616 33.3194 17.51 33.359C17.4854 33.3788 17.4632 33.3961 17.4386 33.4134C17.4238 33.4233 17.3304 33.4778 17.4066 33.4382C17.4853 33.3961 17.3697 33.4555 17.3574 33.4629C17.3328 33.4753 17.3008 33.4951 17.2762 33.4975L17.3648 33.4654C17.3451 33.4728 17.3279 33.4778 17.3082 33.4827C17.2049 33.5173 17.4804 33.453 17.3648 33.4703C17.2959 33.4802 17.2197 33.4654 17.4411 33.4654C17.4263 33.4654 17.4115 33.4654 17.3968 33.4654C17.3377 33.4654 17.3771 33.4654 17.5173 33.4654C17.3992 33.458 17.6895 33.4975 17.5739 33.4728C17.4485 33.4456 17.6133 33.4951 17.6182 33.4876C17.6108 33.4951 17.5567 33.4629 17.5444 33.4604C17.6206 33.4951 17.633 33.5025 17.5887 33.4802L17.5641 33.4679C17.5099 33.4382 17.4583 33.401 17.4115 33.3615L17.4878 33.4283C17.3673 33.3219 17.2713 33.1957 17.2123 33.0447L17.2418 33.1214C17.1877 32.973 17.1705 32.8195 17.2098 32.6637L17.1877 32.7428C17.1926 32.7255 17.1975 32.7082 17.2024 32.6933C17.2369 32.5919 17.2123 32.535 17.1188 32.4731C17.0032 32.3964 16.8138 32.3667 16.6809 32.3618C16.4964 32.3543 16.3021 32.3618 16.1249 32.4187C16.029 32.4484 15.8371 32.5003 15.8027 32.6092L15.8002 32.6043Z" fill="#846DF2"/>
<path d="M18.0122 33.3331C18.6321 34.7534 19.6777 35.9387 20.9175 36.8493C22.2213 37.8069 23.813 37.938 25.289 37.2947C26.7651 36.6513 28.0172 35.3077 29.0824 34.063C30.1968 32.7615 31.1636 31.3485 31.9804 29.8416C32.1624 29.5051 30.7848 29.4556 30.5781 29.8416C29.2964 32.2121 27.6015 34.5678 25.476 36.2455C24.9889 36.629 24.3517 37.0918 23.7072 37.1091C23.043 37.1239 22.3935 36.6488 21.9015 36.248C20.8855 35.419 19.9802 34.3946 19.4489 33.1821C19.2595 32.7466 17.8867 33.051 18.0097 33.338L18.0122 33.3331Z" fill="#846DF2"/>
<path d="M62.9267 26.7319C62.8971 29.1148 63.6179 31.4061 64.2452 33.6777C64.8504 35.8626 65.3646 38.107 66.1616 40.2325C66.8627 42.1008 67.982 44.0779 69.6229 45.273C70.2625 45.7382 71.2121 46.1614 72.0165 45.951C72.5725 45.8075 72.7349 45.0825 73.3056 45.0429C73.5319 45.0281 73.7952 44.9439 73.6303 44.6965C73.4655 44.449 72.9194 44.4045 72.6734 44.4218C72.0436 44.4663 71.677 44.6717 71.2761 45.1419C71.2564 45.1641 71.1038 45.3151 71.0989 45.3374C70.971 45.4066 71.03 45.4215 71.281 45.3819C71.1334 45.325 70.9956 45.2532 70.8677 45.1617C70.511 44.9266 70.2207 44.6 69.9329 44.2882C68.5971 42.8357 67.7853 41.106 67.1875 39.2378C66.5897 37.3696 66.0878 35.3677 65.5515 33.4302C64.9685 31.317 64.3215 29.1964 64.351 26.9818C64.3559 26.5314 62.9316 26.3656 62.9267 26.7319Z" fill="#846DF2"/>
<path d="M42.0055 42.2192C42.0251 48.722 42.5245 55.215 43.5036 61.6437C43.7349 61.5274 43.9686 61.4086 44.1998 61.2923C43.1395 61.3616 42.0768 61.4284 41.0165 61.4977L41.7422 61.807C42.0079 61.3715 43.083 60.941 43.4741 60.9781L43.0953 60.7578L43.0633 61.4136C43.2945 61.2973 43.5282 61.1785 43.7595 61.0622C43.1986 61.0845 42.6352 61.1043 42.0743 61.1265L42.313 61.6808C42.6525 61.5967 42.9919 61.5101 43.3314 61.4259C43.5208 61.3789 43.9095 61.2923 43.8062 61.0276C43.7152 60.7974 43.0608 60.8593 42.9034 60.8989C42.5639 60.983 42.2244 61.0696 41.8849 61.1538C41.7373 61.1909 41.3166 61.2824 41.3954 61.515C41.4741 61.7476 41.9587 61.713 42.1235 61.7056L43.8087 61.6412C43.9981 61.6338 44.4926 61.5521 44.5049 61.2899L44.5368 60.6341C44.5442 60.4856 44.2539 60.4238 44.158 60.4139C43.388 60.3421 42.6303 60.4931 41.9095 60.7653C41.3683 60.9682 40.6574 61.2453 40.34 61.7674C40.153 62.0743 40.9772 62.0817 41.0657 62.0767C42.126 62.0074 43.1887 61.9406 44.249 61.8713C44.3966 61.8614 44.9846 61.7748 44.9452 61.52C43.9686 55.0913 43.4667 48.5983 43.447 42.0954C43.447 41.7094 42.0055 41.7812 42.0055 42.2167V42.2192Z" fill="#846DF2"/>
<path d="M52.7164 42.516C52.7361 49.0189 53.2355 55.5119 54.2146 61.9406L54.9108 61.5892C53.8505 61.6585 52.7877 61.7253 51.7275 61.7946L52.4532 62.1039C52.7189 61.6684 53.7939 61.2378 54.185 61.2749L53.8062 61.0547C53.7964 61.2725 53.7841 61.4927 53.7742 61.7105C54.0055 61.5942 54.2392 61.4754 54.4704 61.3591C53.9095 61.3814 53.3462 61.4011 52.7853 61.4234L53.0239 61.9777C53.3634 61.8936 53.7029 61.807 54.0424 61.7228C54.2318 61.6758 54.6205 61.5892 54.5172 61.3244C54.4261 61.0943 53.7718 61.1562 53.6143 61.1958C53.2748 61.2799 52.9353 61.3665 52.5959 61.4506C52.4483 61.4878 52.0276 61.5793 52.1063 61.8119C52.185 62.0445 52.6697 62.0099 52.8345 62.0024C53.3954 61.9802 53.9587 61.9604 54.5196 61.9381C54.709 61.9307 55.2035 61.849 55.2158 61.5867C55.2256 61.369 55.2379 61.1487 55.2478 60.931C55.2552 60.7825 54.9649 60.7207 54.8689 60.7108C54.0989 60.639 53.3413 60.79 52.6205 61.0621C52.0792 61.265 51.3683 61.5422 51.0509 62.0643C50.864 62.3711 51.6881 62.3786 51.7767 62.3736C52.8369 62.3043 53.8997 62.2375 54.96 62.1682C55.1076 62.1583 55.6955 62.0717 55.6562 61.8169C54.6795 55.3882 54.1777 48.8952 54.158 42.3923C54.158 42.0063 52.7164 42.078 52.7164 42.5136V42.516Z" fill="#846DF2"/>
<path d="M22.7083 40.9592C22.6025 40.2094 22.6443 39.4696 22.7821 38.7247C22.8904 38.1432 23.1462 37.537 23.5792 37.1213C23.68 37.0248 23.7932 36.9283 23.9137 36.8565C24.022 36.7897 24.1327 36.7526 24.2089 36.7278C24.2237 36.7229 24.3344 36.6957 24.236 36.7204C24.2434 36.7204 24.3541 36.7006 24.2729 36.713C24.1819 36.7254 24.4426 36.7155 24.3492 36.7105C24.268 36.7056 24.3787 36.7155 24.3861 36.7155C24.3738 36.713 24.3 36.7006 24.3762 36.7155C24.4402 36.7303 24.4033 36.7179 24.3885 36.7155C24.4303 36.7278 24.4722 36.7402 24.514 36.7575C25.1142 36.9901 25.3947 37.7325 25.5447 38.309C25.7612 39.1306 25.8547 39.9892 25.9556 40.8305C26.0072 41.2586 27.4488 41.1571 27.3996 40.7686C27.2914 39.8877 27.2003 38.9846 26.9543 38.1284C26.728 37.3415 26.3369 36.6289 25.5447 36.3146C24.7526 36.0004 23.6677 36.0672 22.9002 36.473C22.2286 36.8293 21.744 37.438 21.498 38.1556C21.188 39.0588 21.124 40.0808 21.2569 41.0235C21.3184 41.4541 22.755 41.3427 22.7009 40.9617L22.7083 40.9592Z" fill="#846DF2"/>
<path d="M17.5267 46.5769C18.0482 43.756 20.4886 41.6379 23.2315 41.1281C23.9252 40.9995 24.6288 40.9747 25.3324 41.0094C25.3914 41.0118 25.4529 41.0143 25.512 41.0193C25.6153 41.0242 25.6005 41.0267 25.4923 41.0168C25.5636 41.0242 25.6374 41.0316 25.7088 41.0391C26.4246 41.1306 27.1184 41.2989 27.8712 41.6577C30.5256 42.9271 31.7925 45.9509 31.4431 48.8113C31.2168 50.6598 30.2476 52.3622 28.8576 53.5821C27.5612 54.7229 25.8613 55.0396 24.1786 54.953C22.0876 54.8466 20.0507 53.9186 18.8231 52.1742C17.7062 50.5855 17.2093 48.4996 17.5242 46.5769C17.5906 46.1785 16.1613 45.9558 16.0924 46.3715C15.7849 48.2447 16.2425 50.3059 17.2634 51.8945C18.3655 53.6093 20.1146 54.6758 22.0507 55.1955C24.1171 55.7497 26.5722 55.8091 28.5747 54.9728C30.1639 54.3096 31.4259 52.8868 32.1713 51.3576C33.7482 48.121 32.7913 43.8946 29.7752 41.8779C28.2279 40.8436 26.3385 40.4006 24.4984 40.3833C22.3533 40.3635 20.2106 40.9178 18.5353 42.3109C17.3077 43.3304 16.3852 44.7879 16.09 46.3715C16.0162 46.7625 17.443 46.9976 17.5217 46.5769H17.5267Z" fill="#846DF2"/>
<path d="M23.3064 40.6332C22.6545 40.9227 22.2461 41.6775 21.9509 42.2887C21.4171 43.3898 21.0973 44.6047 20.9103 45.8123C20.4035 49.0959 21.0505 52.4785 22.9251 55.2375C23.1588 55.584 24.5389 55.3192 24.3027 54.9728C22.5167 52.3424 21.8919 49.1404 22.3076 46.0003C22.4626 44.8275 22.7553 43.662 23.2375 42.5782C23.4712 42.0536 23.8771 41.1727 24.3568 40.9599C24.6348 40.8361 24.5487 40.6506 24.3249 40.5491C24.0346 40.418 23.5819 40.507 23.3064 40.6308V40.6332Z" fill="#846DF2"/>
<path d="M25.36 55.2848C26.8631 53.9114 27.392 51.4617 27.5937 49.5242C27.9184 46.4237 27.2296 43.2811 25.5248 40.6656C25.2985 40.3167 23.9159 40.5741 24.1472 40.9304C25.793 43.4568 26.4473 46.4806 26.1669 49.4772C26.0562 50.6674 25.8053 51.8477 25.3723 52.9612C25.0771 53.7184 24.6982 54.5325 24.0906 55.0893C23.6945 55.4505 25.0697 55.547 25.3575 55.2823L25.36 55.2848Z" fill="#846DF2"/>
<path d="M17.1523 44.25C18.5472 45.7545 21.0712 46.2147 23.0023 46.3731C26.0602 46.6206 29.1524 45.9153 31.7158 44.203C31.9938 44.0174 31.5682 43.8541 31.4255 43.8269C31.1057 43.7675 30.7195 43.8269 30.4464 44.01C28.3111 45.4378 25.7428 46.0391 23.1967 45.7693C21.6493 45.606 19.6419 45.1903 18.5275 43.9877C18.2323 43.6685 16.9014 43.9828 17.1499 44.2525L17.1523 44.25Z" fill="#846DF2"/>
<path d="M32.0364 51.237C31.4337 50.5912 30.5333 50.2423 29.7141 49.9701C28.4398 49.547 27.1016 49.3193 25.7682 49.2005C22.858 48.9407 19.687 49.1857 17.0719 50.5986C16.8112 50.7396 16.8628 50.9005 17.1039 51.0094C17.377 51.1331 17.8641 51.0688 18.1224 50.9277C20.3217 49.74 22.9588 49.547 25.4041 49.7895C26.5062 49.8983 27.6083 50.0988 28.6637 50.4427C29.3574 50.6679 30.1446 50.9525 30.6563 51.5018C30.9515 51.8185 32.2824 51.5018 32.0339 51.237H32.0364Z" fill="#846DF2"/>
<path d="M61.6133 8.17619C63.537 8.41869 65.4362 8.8245 67.3599 9.06947C67.5543 9.09422 67.8938 9.01504 67.7216 8.76264C67.5395 8.49787 67.0943 8.41127 66.804 8.37415C64.8802 8.13165 62.9811 7.72584 61.0573 7.48087C60.863 7.45613 60.5235 7.53531 60.6957 7.7877C60.8777 8.05247 61.323 8.13908 61.6133 8.17619Z" fill="#846DF2"/>
<path d="M30.8612 37.0102C30.8243 37.4061 30.8071 37.807 30.8391 38.2054C30.8637 38.5196 30.935 38.7844 31.1269 39.0343C31.609 39.6554 32.2019 40.1973 32.7505 40.7566C32.8907 40.9001 33.1786 40.8679 33.3557 40.8283C33.427 40.8135 33.801 40.6922 33.6656 40.5561C33.122 40.0043 32.5439 39.4698 32.0617 38.8611C31.8723 38.6211 31.8182 38.386 31.796 38.0792C31.7665 37.6907 31.7837 37.2972 31.8206 36.9112C31.8428 36.6811 30.8907 36.7059 30.8612 37.0127V37.0102Z" fill="#846DF2"/>
</svg>
