<svg width="82" height="93" viewBox="0 0 82 93" fill="none" xmlns="http://www.w3.org/2000/svg">
<path fill-rule="evenodd" clip-rule="evenodd" d="M67.7358 44.6952C67.2356 45.3559 51.7316 53.4811 51.7316 53.4811C51.7316 53.4811 40.8755 59.6155 40.013 59.3343C39.1504 59.0532 34.3481 57.6362 34.3481 57.6362C34.3481 57.6362 33.9011 57.6302 32.3407 54.2308C30.7802 50.8313 27.183 44.0731 27.183 44.0731C27.183 44.0731 22.9853 36.7409 23.4088 35.8603C23.8324 34.9797 29.1389 32.4485 29.1389 32.4485L39.6034 26.5522C39.6034 26.5522 49.8669 20.6632 50.2191 20.4952C50.5713 20.3272 54.7632 21.8092 54.7632 21.8092C54.7632 21.8092 57.6426 22.8306 57.9971 23.1698C58.3516 23.5091 60.7516 28.2056 60.7516 28.2056L64.7877 36.7902C64.7877 36.7902 67.7103 43.3362 67.9334 43.927C68.1565 44.5179 67.7311 44.6951 67.7311 44.6951L67.7358 44.6952Z" fill="#FFF485"/>
<path fill-rule="evenodd" clip-rule="evenodd" d="M32.923 62.325C29.8026 63.8134 28.5486 67.6972 30.1235 70.9988C31.6983 74.3004 35.5058 75.7699 38.6262 74.2815C41.7466 72.7931 43.0006 68.9093 41.4257 65.6077C39.8509 62.3061 36.0434 60.8366 32.923 62.325Z" fill="#C5CBFF"/>
<path fill-rule="evenodd" clip-rule="evenodd" d="M43.7913 38.159C44.0411 38.0375 45.1759 38.1305 45.3444 38.3509C46.0739 39.3088 47.2566 41.6502 47.7323 42.6032C48.3051 43.7548 49.9397 46.6151 49.4645 47.2988C48.9912 47.9816 42.2085 51.5761 42.2085 51.5761C42.2085 51.5761 40.3297 52.4256 39.4131 51.8835C38.9735 51.6221 38.0666 49.977 37.0753 47.9874C36.0023 45.8315 34.9201 43.8829 35.0621 43.3185C35.3347 42.2347 40.0084 40.0124 40.0084 40.0124L43.7923 38.1562L43.7913 38.159Z" fill="#B5F485"/>
<path d="M55.1048 48.7866L52.3966 43.4697C52.3501 43.3786 52.387 43.2668 52.4788 43.22L56.3748 41.2376C56.4666 41.1908 56.5787 41.2268 56.6252 41.318L59.3334 46.6349C59.3798 46.726 59.3429 46.8378 59.2511 46.8845L55.3552 48.867C55.2633 48.9138 55.1512 48.8778 55.1048 48.7866Z" fill="white"/>
<path d="M54.416 30.8042C54.9365 31.442 55.5977 32.0104 55.8857 32.7965C56.176 33.4741 57.2181 33.033 56.9326 32.3507C56.698 31.7701 54.8999 29.503 54.3364 30.4597C54.2957 30.5864 54.3376 30.7087 54.416 30.8042Z" fill="#846DF2"/>
<path d="M60.7269 41.7664C60.8305 40.8751 60.5872 40.0794 60.3931 39.2043C60.3086 38.9041 59.9941 38.7324 59.6919 38.8182C59.3898 38.904 59.2153 39.2181 59.2997 39.5183C59.6304 40.2607 59.6834 41.1355 60.0604 41.8814C60.2133 42.1676 60.6755 42.0824 60.7269 41.7664Z" fill="#846DF2"/>
<path d="M55.3172 48.8165L53.5079 45.2644C53.4863 45.2219 53.5034 45.1698 53.5463 45.1481L57.3458 43.2147C57.3886 43.1929 57.4408 43.2096 57.4624 43.2521L59.2717 46.8042C59.2933 46.8467 59.2762 46.8987 59.2334 46.9205L55.4339 48.8539C55.3911 48.8757 55.3388 48.8589 55.3172 48.8165Z" fill="#846DF2"/>
<path d="M52.2926 44.2019C52.2926 44.2019 52.3008 44.219 52.3053 44.2285L54.4842 48.5058C54.6233 48.7776 54.8596 48.9774 55.1493 49.0724C55.4409 49.1665 55.7512 49.1421 56.0251 49.0021L58.9465 47.5153C59.2205 47.3753 59.4226 47.139 59.5189 46.8482C59.6152 46.5574 59.5916 46.2469 59.4535 45.977L57.2746 41.6996C56.9892 41.1408 56.2978 40.918 55.7337 41.2034L52.8123 42.6901C52.2567 42.9738 52.0271 43.6453 52.2926 44.2019ZM55.2256 48.1289L53.0467 43.8516C53.0467 43.8516 53.0439 43.8458 53.043 43.8439C52.9696 43.6901 53.0334 43.5034 53.1866 43.4257L56.108 41.9389C56.2632 41.8602 56.4551 41.9226 56.5332 42.0765L58.7121 46.3539C58.755 46.429 58.757 46.512 58.7306 46.5946C58.7033 46.6753 58.6479 46.7413 58.5722 46.7798L55.6508 48.2665C55.5751 48.305 55.4897 48.3131 55.4088 48.2864C55.3279 48.2597 55.2618 48.2049 55.2237 48.1298L55.2256 48.1289Z" fill="#846DF2"/>
<path d="M49.0244 37.1272L46.3497 31.876C46.3033 31.7848 46.3401 31.673 46.432 31.6263L50.3279 29.6438C50.4197 29.5971 50.5319 29.6331 50.5783 29.7242L53.253 34.9755C53.2995 35.0666 53.2626 35.1784 53.1708 35.2252L49.2749 37.2076C49.183 37.2544 49.0709 37.2184 49.0244 37.1272Z" fill="white"/>
<path d="M49.0789 37.2306L47.2696 33.6785C47.248 33.636 47.2652 33.5839 47.308 33.5621L51.2663 31.5479C51.3091 31.5261 51.3613 31.5429 51.3829 31.5854L53.1922 35.1375C53.2138 35.1799 53.1967 35.232 53.1539 35.2538L49.1956 37.268C49.1528 37.2898 49.1006 37.273 49.0789 37.2306Z" fill="#846DF2"/>
<path d="M46.21 32.5358C46.21 32.5358 46.219 32.5548 46.2236 32.5643L48.4025 36.8416C48.5415 37.1134 48.7778 37.3132 49.0675 37.4082C49.3591 37.5023 49.6694 37.4779 49.9434 37.3379L52.8648 35.8511C53.1387 35.7111 53.3409 35.4748 53.4372 35.184C53.5335 34.8932 53.5033 34.5788 53.3718 34.3128L51.1928 30.0354C51.0538 29.7636 50.8175 29.5638 50.5259 29.4698C50.2343 29.3757 49.9249 29.402 49.65 29.5401L46.7286 31.0269C46.4557 31.164 46.2516 31.4013 46.1553 31.6921C46.063 31.9716 46.0821 32.2727 46.2081 32.5367L46.21 32.5358ZM52.634 34.6973C52.6684 34.7695 52.6733 34.8535 52.6489 34.9304C52.6215 35.0111 52.5661 35.0771 52.4904 35.1156L49.569 36.6024C49.4934 36.6408 49.4079 36.6489 49.327 36.6222C49.2462 36.5955 49.1801 36.5407 49.1419 36.4656L46.963 32.1883C46.9164 32.1102 46.9172 32.0282 46.9445 31.9476C46.9699 31.8678 47.0273 31.8008 47.1019 31.7652L50.0234 30.2784C50.099 30.24 50.1845 30.2319 50.2653 30.2586C50.3462 30.2853 50.4123 30.3401 50.4505 30.4152L52.6294 34.6925C52.6294 34.6925 52.6321 34.6982 52.633 34.7001L52.634 34.6973Z" fill="#846DF2"/>
<path d="M39.6066 58.5263C39.7993 58.8564 39.7628 58.9671 40.1185 58.9047C40.3134 58.8701 40.4892 58.7559 40.6636 58.6634C40.9415 58.5168 41.2194 58.3703 41.4964 58.2218C42.2266 57.8362 42.9587 57.4497 43.6888 57.0641C45.6714 56.0182 47.6531 54.9703 49.6329 53.9234C54.0045 51.6096 58.3733 49.2949 62.7203 46.9345C64.116 46.1755 65.5731 45.4665 66.9113 44.6066C67.527 44.2127 67.5346 43.6471 67.2685 43.0745C67.0548 42.6167 66.844 42.16 66.6304 41.7022C65.021 38.2445 63.4116 34.7868 61.8023 31.3291C61.4773 30.633 61.1533 29.934 60.8283 29.2379C60.6572 28.8694 60.5171 28.4279 60.2934 28.0869C60.1668 27.8955 59.9504 27.8704 59.7024 27.7742C58.8758 27.4502 58.0473 27.1272 57.2207 26.8033C56.3566 26.4646 55.4924 26.1259 54.6283 25.7873C54.1596 25.6028 53.7592 25.3693 53.2502 25.6028C52.5775 25.912 51.9332 26.315 51.2842 26.6688C48.0664 28.4112 44.8506 30.1527 41.6337 31.897C38.4169 33.6413 35.2001 35.3809 31.9833 37.1252C31.3276 37.4799 30.6545 37.8126 30.0154 38.1921C29.242 38.6496 29.8299 39.3649 30.1287 39.9569C30.5648 40.8169 30.996 41.6815 31.4283 42.5434C33.7172 47.1204 35.9801 51.7167 38.3696 56.2434C38.7746 57.0087 39.1815 57.773 39.6094 58.5273C39.7034 58.6947 39.7819 58.9184 39.5232 58.9229C39.2834 58.9276 38.9654 58.5663 38.8623 58.3846C36.3986 54.0472 34.2392 49.5251 32.0083 45.0649C31.0287 43.1047 30.0547 41.1418 29.0617 39.188C28.7255 38.5275 28.3429 37.7796 29.1546 37.3038C29.3782 37.1715 29.6137 37.0545 29.8438 36.9308C32.774 35.3442 35.7023 33.7585 38.6316 32.1701C42.1829 30.2452 45.7352 28.3223 49.2866 26.3974C50.2374 25.8833 51.1874 25.3672 52.1363 24.8539C52.5158 24.6496 52.8786 24.4742 53.3341 24.5717C53.897 24.6927 54.4579 24.9917 54.9896 25.1998C56.5902 25.8262 58.2192 26.4086 59.8007 27.0837C60.9308 27.566 61.302 28.7531 61.779 29.7778C63.4372 33.3428 65.0982 36.9088 66.7564 40.4738C67.2507 41.5346 67.765 42.5881 68.2372 43.657C68.6111 44.5 68.3084 45.1808 67.5343 45.627C66.8926 45.996 66.2444 46.3565 65.5972 46.7142C61.3127 49.0774 56.9852 51.3654 52.6623 53.6583C48.9489 55.6277 45.2292 57.5839 41.515 59.5515C41.123 59.7594 40.7436 59.9591 40.2932 59.8031C39.6378 59.5771 39.1937 58.9564 38.8614 58.3827C38.7655 58.2163 38.6889 57.9916 38.9476 57.9872C39.1893 57.9815 39.5035 58.3446 39.6085 58.5254L39.6066 58.5263Z" fill="#846DF2"/>
<path d="M39.7607 59.7169C38.5289 59.3414 37.2989 58.9651 36.0671 58.5896C35.5994 58.4466 35.1218 58.3222 34.6621 58.1614C34.083 57.9573 33.7208 57.4888 33.4481 56.9613C32.4887 55.1127 31.5639 53.2476 30.6198 51.3916C29.0799 48.3602 27.5409 45.326 26.0009 42.2945C25.127 40.5707 24.2072 38.8641 23.3754 37.1202C23.0863 36.5143 22.8486 35.7252 23.3852 35.1801C23.637 34.9247 23.967 34.779 24.2766 34.6103C24.8278 34.3077 25.3746 33.9957 25.9221 33.6902C28.3558 32.3288 30.7885 30.9655 33.2241 29.6032C36.2437 27.9133 39.2652 26.2226 42.2848 24.5327C44.5124 23.286 46.7399 22.0393 48.9675 20.7925C49.2887 20.6136 49.7113 20.2582 50.0731 20.1742C50.4577 20.084 51.0989 20.3937 51.4605 20.4965C52.3926 20.7607 53.3204 21.0457 54.2462 21.3363C55.1155 21.6119 55.9858 21.8894 56.8429 22.2034C57.4895 22.4407 57.9689 22.697 58.3278 23.3163C59.0575 24.5702 59.7594 25.8398 60.4738 27.101C60.6746 27.453 60.8744 27.8077 61.0751 28.1597C61.1545 28.3014 61.4163 28.7665 61.2481 28.9213C61.0799 29.0762 60.8641 28.806 60.7848 28.6643C60.1816 27.6018 59.5804 26.5385 58.9782 25.4779C58.6716 24.9386 58.3892 24.376 58.0576 23.8533C57.7855 23.4258 57.1977 23.3167 56.7351 23.1549C55.0164 22.5569 53.271 22.0161 51.5148 21.5316C51.2577 21.4606 50.9975 21.4029 50.7433 21.3329C50.7028 21.3219 50.5117 21.3105 50.6192 21.2895C50.6106 21.2913 50.6018 21.3025 50.5924 21.3023C50.4551 21.3398 50.3047 21.4628 50.1829 21.5326C45.5111 24.1481 40.8374 26.7646 36.1646 29.3782C32.3443 31.5176 28.5546 33.731 24.6951 35.7982C24.2438 36.0391 23.5997 36.3393 23.8464 36.9352C23.9301 37.1354 24.0453 37.3277 24.1444 37.5206C24.5942 38.4044 25.0411 39.2872 25.4909 40.171C26.9309 43.0076 28.3718 45.8461 29.8118 48.6827C31.0291 51.0821 32.2493 53.4826 33.4667 55.8821C33.7047 56.3515 33.8463 56.8553 34.3036 57.0406C34.8004 57.2396 35.3463 57.3594 35.8573 57.5144C36.644 57.7547 37.4308 57.9951 38.2175 58.2354C38.6024 58.3526 38.9854 58.4708 39.3703 58.588C39.6206 58.6645 39.7789 58.9667 39.8582 59.1971C39.885 59.2729 40.0082 59.7924 39.7692 59.7199L39.7607 59.7169Z" fill="#846DF2"/>
<path d="M46.0872 39.0785C47.2582 41.3905 48.4959 43.68 49.6018 46.023C50.0166 46.9025 49.8688 47.9524 48.9558 48.4275C48.562 48.6317 48.1746 48.8491 47.7855 49.058C46.1743 49.9268 44.5631 50.7956 42.9519 51.6645C42.4659 51.9266 41.9826 52.1991 41.4921 52.4517C40.811 52.8022 40.0605 52.6822 39.4408 52.2549C38.8397 51.8421 38.4867 51.2549 38.1784 50.6231C37.8372 49.9277 37.4961 49.2323 37.1541 48.535C36.4719 47.1441 35.7792 45.7559 35.1084 44.3596C34.7341 43.5798 34.6641 42.7433 35.2899 42.0601C35.6499 41.6668 36.1574 41.4598 36.623 41.219C38.2076 40.3979 39.7902 39.5777 41.3748 38.7565C42.3789 38.2356 43.6713 37.2997 44.8271 37.821C45.3843 38.0729 45.7925 38.5591 46.0891 39.0776C46.1868 39.2479 46.233 39.4777 45.9821 39.4691C45.7313 39.4605 45.4572 39.0829 45.3513 38.8955C44.864 38.0413 42.9902 39.2709 42.378 39.5886C40.9045 40.352 39.433 41.1146 37.9595 41.878C36.9756 42.387 35.2284 43.0642 35.81 44.4657C36.2943 45.6338 36.9349 46.76 37.491 47.8962C38.0335 49.004 38.5138 50.1833 39.1348 51.2489C39.7559 52.3145 41.27 51.2028 41.9812 50.8216C43.4707 50.0179 44.9611 49.216 46.4505 48.4123C46.9499 48.1438 47.4464 47.8743 47.9458 47.6058C48.5659 47.2703 49.0104 46.8671 48.9117 46.0887C48.8785 45.827 48.8913 45.8932 48.7969 45.7051C48.7024 45.5169 48.6043 45.3259 48.5098 45.1378L47.4987 43.1412C46.8238 41.8099 46.1516 40.4796 45.4766 39.1482L45.3503 38.8983C45.264 38.7273 45.1989 38.4971 45.4573 38.5068C45.6987 38.5153 45.9937 38.8922 46.0881 39.0804L46.0872 39.0785Z" fill="#846DF2"/>
<path d="M46.7848 41.4996C43.5595 43.5021 40.216 45.3604 36.7856 46.992C36.487 47.1345 36.0135 45.9939 36.3523 45.8323C39.7827 44.2006 43.1252 42.3404 46.3514 40.3398C46.6049 40.1816 47.1199 41.2908 46.7848 41.4996Z" fill="#846DF2"/>
<path d="M48.3162 44.7964C44.8947 46.4074 41.503 48.1348 38.2016 49.9778C37.9437 50.1218 37.4918 48.9872 37.8389 48.7936C41.1422 46.9498 44.532 45.2232 47.9534 43.6122C48.2387 43.4762 48.6655 44.6321 48.3162 44.7964Z" fill="#846DF2"/>
<path d="M42.2562 39.6684C42.335 40.0553 42.653 40.7664 42.8578 41.24C43.2537 42.1588 43.6727 43.0666 44.0983 43.9689C44.927 45.7259 45.7729 47.4794 46.6964 49.1889C46.7902 49.361 46.824 49.5944 46.5734 49.5764C46.3227 49.5584 46.0669 49.1697 45.9649 48.9805C45.0023 47.1941 44.1184 45.3608 43.2545 43.5249C42.8244 42.6084 42.4 41.6892 42.0063 40.7554C41.7666 40.1888 41.5006 39.6115 41.3773 39.0033C41.32 38.7205 41.6848 38.8893 41.7837 38.9587C42.0151 39.1235 42.1969 39.3913 42.2543 39.6693L42.2562 39.6684Z" fill="#846DF2"/>
<path d="M38.8915 41.1406C40.5426 44.2473 42.019 47.4559 43.4566 50.6668C43.5252 50.8206 43.6148 51.1463 43.3855 51.1927C43.1562 51.2391 42.9361 50.7285 42.8773 50.6003C41.485 47.4891 40.0489 44.3848 38.4488 41.3751C38.3805 41.2468 38.1824 40.8166 38.3817 40.7122C38.5809 40.6078 38.8304 41.0322 38.8905 41.1434L38.8915 41.1406Z" fill="#846DF2"/>
<path d="M51.826 40.4654C51.759 40.8028 51.5076 41.0393 51.2079 41.1846C51.0567 41.2567 50.9081 41.2949 50.7402 41.2631C50.4977 41.2179 50.3057 41.0273 50.1822 40.8274C50.0504 40.6151 49.9632 40.3535 49.9449 40.1034C49.9308 39.9259 49.9518 39.7433 50.0621 39.5951C50.1801 39.4386 50.3573 39.3027 50.5179 39.1911C50.691 39.0713 50.8687 39.0052 51.0788 39.0122C51.3296 39.0208 51.5124 39.1971 51.6321 39.4036C51.8474 39.7812 51.9614 40.2911 51.7311 40.6902C51.6189 40.8836 51.3991 41.0188 51.1911 41.0853C51.1053 41.1123 51.0145 41.0203 50.9682 40.9678C50.8758 40.8626 50.8043 40.7078 50.7636 40.5733C50.723 40.4388 50.6809 40.2817 50.6974 40.1339C50.7076 40.0568 50.7178 39.9353 50.8094 39.9056C50.9172 39.8705 51.0167 39.823 51.1072 39.7565L51.0514 39.7972C51.1371 39.7306 51.208 39.6525 51.2584 39.5562L51.2207 39.6348C51.2356 39.602 51.2448 39.572 51.2569 39.5382C51.2781 39.4745 51.2493 39.6258 51.2503 39.5787C51.2503 39.5344 51.2388 39.4955 51.2527 39.6428C51.2604 39.7231 51.2796 39.8026 51.3016 39.8783C51.3288 39.9796 51.3732 40.0727 51.4358 40.1548C51.4671 40.1958 51.4745 40.2063 51.4579 40.1862C51.4273 40.1518 51.5464 40.2536 51.4931 40.2207C51.4791 40.2111 51.4651 40.2014 51.4492 40.1927L51.525 40.2335C51.4613 40.2033 51.3943 40.1909 51.3224 40.1879L51.3925 40.1871C51.1935 40.1887 51.0163 40.2803 50.8584 40.3976L50.9142 40.3569C50.8314 40.4198 50.7541 40.4893 50.6777 40.5607C50.6148 40.621 50.5519 40.6813 50.5123 40.7608L50.55 40.6822C50.55 40.6822 50.5419 40.7094 50.5359 40.7216C50.5753 40.6515 50.5322 40.5019 50.5184 40.4385C50.496 40.3325 50.4715 40.2417 50.4214 40.1466C50.4069 40.1162 50.3924 40.0858 50.3684 40.06C50.3371 40.019 50.3325 40.0095 50.3528 40.0371C50.3888 40.0782 50.3175 40.0026 50.3138 39.9997C50.3232 40.0046 50.3342 40.018 50.3417 40.0237C50.3678 40.0439 50.394 40.0594 50.4221 40.074L50.3462 40.0332C50.4259 40.0722 50.506 40.0923 50.5959 40.0937L50.5258 40.0945C50.7069 40.0897 50.89 39.986 51.0353 39.8818L50.9795 39.9224C51.0883 39.8401 51.1776 39.7416 51.2371 39.62L51.1994 39.6986C51.2243 39.6424 51.2435 39.5842 51.2553 39.525C51.2721 39.447 51.3378 39.3877 51.4189 39.405C51.5132 39.4253 51.606 39.5559 51.648 39.6292C51.7914 39.8756 51.8815 40.1777 51.8242 40.4616L51.826 40.4654Z" fill="#846DF2"/>
<path d="M29.3355 38.4817C28.2581 38.2378 27.1955 37.9168 26.1407 37.5921C25.3784 37.3588 24.5834 37.1503 23.8503 36.8401C23.5912 36.7305 23.3411 36.4721 23.2406 36.2122C23.1535 35.9902 23.2707 35.8713 23.4951 35.9672C23.5861 36.0054 23.6792 36.0379 23.7714 36.0686C23.8475 36.0952 23.9228 36.12 23.9989 36.1466C24.0431 36.1605 24.0863 36.1772 24.1306 36.1911C24.0412 36.1614 24.1926 36.2128 24.2086 36.2168C24.6818 36.3712 25.155 36.5209 25.6312 36.6669C26.6691 36.9856 27.7147 37.3007 28.7753 37.5387C29.0487 37.5995 29.2933 37.8513 29.4303 38.0844C29.5025 38.2062 29.6165 38.5436 29.3393 38.4799L29.3355 38.4817Z" fill="#846DF2"/>
<path d="M50.8467 69.3328C50.6523 69.5165 50.413 69.591 50.1448 69.5511C49.8351 69.5029 49.578 69.3037 49.3909 69.0642C48.9356 68.4792 48.7797 67.5858 49.1814 66.9302C49.2294 66.8536 49.3208 66.8777 49.3825 66.9135C49.4845 66.9745 49.5772 67.1098 49.63 67.2106C49.7037 67.3503 49.7695 67.5031 49.7907 67.6609C49.8046 67.7639 49.8209 67.8867 49.762 67.9801C49.7169 68.0529 49.6783 68.1296 49.649 68.2112L49.6811 68.1306C49.6619 68.1841 49.6447 68.2366 49.6331 68.2911C49.6268 68.3174 49.6216 68.3409 49.6173 68.3663C49.615 68.3813 49.6074 68.4736 49.6099 68.4001C49.6134 68.3238 49.6101 68.435 49.6089 68.4472C49.6084 68.4708 49.6048 68.5028 49.612 68.5227L49.6042 68.4424C49.6058 68.4604 49.6083 68.4755 49.6117 68.4925C49.6229 68.5851 49.5712 68.3486 49.6004 68.4443C49.6181 68.5011 49.6577 68.5545 49.5762 68.3835C49.5816 68.3949 49.587 68.4063 49.5925 68.4177C49.6142 68.4633 49.5997 68.4329 49.5481 68.3247C49.5973 68.4131 49.4597 68.2035 49.5215 68.2837C49.5887 68.3705 49.4898 68.2615 49.4937 68.255C49.4907 68.2634 49.5355 68.2933 49.5419 68.3019C49.487 68.2558 49.4768 68.2491 49.5103 68.275L49.5289 68.2895C49.5718 68.3203 49.6196 68.3465 49.6674 68.368L49.5877 68.3337C49.7144 68.3876 49.8473 68.4151 49.9859 68.405L49.9156 68.4105C50.0504 68.3975 50.1755 68.3542 50.2816 68.2663L50.2285 68.3126C50.2401 68.3024 50.2516 68.2922 50.2613 68.2829C50.3271 68.2189 50.3802 68.2169 50.4625 68.2662C50.5644 68.3272 50.6572 68.4625 50.7099 68.5633C50.7836 68.703 50.8495 68.8558 50.8707 69.0136C50.8831 69.0986 50.9135 69.266 50.842 69.3328L50.8467 69.3328Z" fill="#846DF2"/>
<path d="M49.47 67.8884C48.1428 67.9339 46.8407 67.5639 45.6796 66.9425C44.4585 66.2891 43.7707 65.1084 43.7248 63.7312C43.6788 62.3539 44.2571 60.8912 44.8277 59.6093C45.4241 58.2685 46.1611 57.0005 47.0261 55.8137C47.2194 55.549 47.7651 56.5945 47.5426 56.8965C46.1808 58.761 44.9826 60.9392 44.4676 63.1996C44.3503 63.7173 44.227 64.38 44.451 64.8842C44.6842 65.4025 45.291 65.7287 45.7823 65.9607C46.7978 66.4394 47.9238 66.7604 49.0576 66.7233C49.4643 66.7089 49.7344 67.8812 49.4671 67.8922L49.47 67.8884Z" fill="#846DF2"/>
<path d="M38.0339 30.7687C36.2013 31.6708 34.1631 31.9598 32.1747 32.3136C30.2614 32.6526 28.3357 33.0838 26.3977 33.2527C24.6941 33.4007 22.7523 33.2659 21.2233 32.4399C20.6278 32.1176 19.9507 31.5405 19.8171 30.8417C19.7233 30.3594 20.2244 29.9665 20.0448 29.5112C19.973 29.3309 19.9411 29.0966 20.1932 29.1326C20.4454 29.1685 20.681 29.5738 20.7582 29.7702C20.9557 30.2729 20.9319 30.6318 20.7158 31.1149C20.7059 31.1383 20.6453 31.3118 20.6298 31.3238C20.6234 31.4482 20.5901 31.4081 20.5283 31.1997C20.6267 31.2927 20.733 31.3726 20.8509 31.4376C21.1642 31.6263 21.5238 31.7299 21.871 31.8371C23.4868 32.3326 25.1239 32.3212 26.7894 32.0934C28.455 31.8656 30.1885 31.5144 31.885 31.2136C33.7346 30.884 35.6135 30.601 37.3159 29.761C37.6625 29.591 38.3154 30.6297 38.0339 30.7687Z" fill="#846DF2"/>
<path d="M33.7579 52.6437C28.7197 55.0282 23.5126 57.0387 18.1785 58.6549C18.1833 58.4334 18.1891 58.2091 18.1939 57.9876C18.5308 58.832 18.8706 59.6773 19.2075 60.5216L18.7009 60.0753C18.94 59.7095 18.8771 58.7204 18.7043 58.4321L19.0142 58.6433L18.5187 58.91C18.5235 58.6885 18.5293 58.4642 18.5341 58.2428C18.7234 58.6841 18.9156 59.1264 19.105 59.5678L18.5883 59.588C18.5283 59.2948 18.4703 59.0007 18.4103 58.7075C18.3769 58.5439 18.3008 58.2118 18.5437 58.1939C18.7552 58.1793 18.9484 58.7074 18.9758 58.8436C19.0357 59.1368 19.0938 59.4309 19.1537 59.7241C19.1794 59.8518 19.2635 60.2104 19.0545 60.2354C18.8456 60.2605 18.6939 59.8735 18.6389 59.7434L18.068 58.4184C18.004 58.2694 17.885 57.8575 18.0834 57.7512L18.5789 57.4845C18.6911 57.424 18.8458 57.6253 18.8888 57.6958C19.228 58.2639 19.3903 58.9047 19.4452 59.5617C19.4876 60.0545 19.5351 60.7058 19.248 61.1435C19.0795 61.4011 18.7702 60.7675 18.7414 60.6973C18.4045 59.8529 18.0647 59.0076 17.7278 58.1633C17.6811 58.0457 17.5315 57.5597 17.7432 57.4961C23.0764 55.8779 28.2845 53.8694 33.3226 51.4849C33.6212 51.3424 34.0967 52.4821 33.7598 52.6428L33.7579 52.6437Z" fill="#846DF2"/>
<path d="M29.5821 44.4797C24.5439 46.8642 19.3368 48.8746 14.0027 50.4908L14.0181 49.8236C14.355 50.6679 14.6948 51.5132 15.0317 52.3575L14.5251 51.9113C14.7642 51.5454 14.7013 50.5564 14.5285 50.268L14.8384 50.4793C14.6736 50.5672 14.5077 50.658 14.3429 50.746C14.3477 50.5245 14.3535 50.3002 14.3583 50.0787C14.5477 50.52 14.7399 50.9624 14.9292 51.4037L14.4125 51.424C14.3526 51.1308 14.2945 50.8367 14.2346 50.5435C14.2012 50.3798 14.125 50.0477 14.3679 50.0298C14.5794 50.0152 14.7726 50.5433 14.8 50.6795C14.8599 50.9727 14.918 51.2668 14.9779 51.56C15.0036 51.6877 15.0877 52.0463 14.8788 52.0714C14.6698 52.0964 14.5181 51.7094 14.4632 51.5794C14.2738 51.138 14.0816 50.6957 13.8922 50.2544C13.8282 50.1054 13.7092 49.6934 13.9076 49.5871C14.0725 49.4992 14.2383 49.4084 14.4032 49.3204C14.5153 49.2599 14.6701 49.4613 14.7131 49.5317C15.0522 50.0998 15.2145 50.7406 15.2694 51.3977C15.3118 51.8905 15.3593 52.5417 15.0722 52.9795C14.9037 53.2371 14.5944 52.6034 14.5656 52.5332C14.2287 51.6889 13.8889 50.8436 13.552 49.9993C13.5053 49.8816 13.3557 49.3956 13.5674 49.332C18.9006 47.7138 24.1087 45.7053 29.1468 43.3208C29.4454 43.1783 29.9209 44.318 29.584 44.4787L29.5821 44.4797Z" fill="#846DF2"/>
<path d="M41.8418 67.0764C42.4608 66.8814 43.0178 66.5761 43.5433 66.1948C43.9533 65.8967 44.328 65.4754 44.4902 64.9876C44.5277 64.8741 44.5607 64.7511 44.5718 64.6316C44.5836 64.5233 44.5715 64.4242 44.5626 64.3561C44.561 64.3429 44.5413 64.2474 44.5584 64.3325C44.5556 64.3268 44.5302 64.234 44.5505 64.3013C44.5745 64.3761 44.4861 64.1711 44.5243 64.2415C44.5581 64.3023 44.5096 64.2205 44.5069 64.2148C44.5134 64.2234 44.5501 64.2758 44.5105 64.2224C44.4755 64.1785 44.4987 64.2024 44.506 64.2129C44.481 64.1852 44.4561 64.1574 44.4273 64.1315C44.0262 63.7538 43.3486 63.8112 42.8473 63.9081C42.132 64.0441 41.4333 64.2888 40.7453 64.5213C40.395 64.6394 39.9425 63.4888 40.2612 63.3834C40.9826 63.1419 41.7148 62.8789 42.4678 62.7529C43.1599 62.6373 43.8554 62.6764 44.3903 63.1721C44.9251 63.6678 45.2731 64.5303 45.2418 65.2727C45.2135 65.9228 44.9211 66.5217 44.4566 66.9764C43.872 67.5491 43.1049 67.9756 42.3266 68.2209C41.9709 68.3323 41.5279 67.1818 41.8426 67.083L41.8418 67.0764Z" fill="#846DF2"/>
<path d="M39.4047 73.1522C41.395 71.7085 42.1348 69.0424 41.5188 66.7362C41.3628 66.153 41.1228 65.6006 40.8368 65.0701C40.8132 65.0254 40.7886 64.9788 40.763 64.935C40.7212 64.8571 40.7247 64.8694 40.7722 64.9493C40.7402 64.897 40.7073 64.8427 40.6752 64.7904C40.3407 64.2714 39.955 63.7977 39.4002 63.3488C37.4404 61.7675 34.6344 61.9051 32.5501 63.2304C31.2035 64.0873 30.2434 65.464 29.8116 66.9875C29.4066 68.4095 29.7877 69.8391 30.4745 71.1065C31.327 72.6819 32.7952 73.9124 34.597 74.2166C36.2373 74.4928 38.0342 74.1068 39.4056 73.1541C39.6894 72.9558 40.3881 73.9773 40.0919 74.1839C38.756 75.1126 36.9928 75.5199 35.3878 75.3178C33.6552 75.0996 32.1858 74.1425 31.0707 72.8392C29.8807 71.448 28.9305 69.5741 28.8399 67.7191C28.7676 66.2472 29.4035 64.7476 30.312 63.6077C32.2352 61.1956 35.8573 60.375 38.5284 61.9598C39.8986 62.773 40.9372 64.0685 41.6284 65.483C42.4338 67.1322 42.7942 68.9914 42.3335 70.7991C41.997 72.1233 41.2092 73.3735 40.0928 74.1858C39.8175 74.3871 39.1101 73.3721 39.4065 73.156L39.4047 73.1522Z" fill="#846DF2"/>
<path d="M41.8727 66.4982C41.8888 67.1085 41.4554 67.7023 41.0913 68.1558C40.436 68.9744 39.6139 69.6697 38.7486 70.2597C36.3949 71.8627 33.5397 72.6114 30.7147 72.182C30.3606 72.1293 30.0571 70.9659 30.4121 71.0205C33.1049 71.429 35.8122 70.7299 38.0884 69.2501C38.9387 68.6976 39.7325 68.0414 40.3934 67.2691C40.7132 66.8951 41.2452 66.2566 41.2331 65.8076C41.2264 65.5473 41.4017 65.5453 41.5626 65.6807C41.771 65.8565 41.8688 66.2389 41.8746 66.4973L41.8727 66.4982Z" fill="#846DF2"/>
<path d="M29.783 70.3192C30.2919 68.6517 31.9922 67.3393 33.4169 66.4686C35.6959 65.0736 38.3809 64.4459 41.0323 64.7972C41.3856 64.8432 41.6957 66.0058 41.3349 65.9587C38.7741 65.6201 36.1938 66.2306 33.9788 67.553C33.0988 68.0777 32.2781 68.707 31.5761 69.4523C31.099 69.9597 30.6088 70.5526 30.4018 71.2273C30.2682 71.6665 29.6871 70.6402 29.7859 70.3202L29.783 70.3192Z" fill="#846DF2"/>
<path d="M41.3386 72.584C39.6609 72.0621 38.3751 70.2829 37.5413 68.8501C36.2235 66.5801 35.6301 63.932 36.0106 61.3207C36.0518 61.0375 36.3349 61.3059 36.4085 61.406C36.5723 61.6311 36.6686 61.9512 36.6275 62.2297C36.3095 64.4054 36.7903 66.6106 37.9368 68.4772C38.6331 69.6118 39.6941 71.0086 41.035 71.4253C41.3906 71.5355 41.6377 72.6792 41.3375 72.5868L41.3386 72.584Z" fill="#846DF2"/>
<path d="M30.4519 63.6658C31.1735 63.8929 31.7751 64.4594 32.2874 64.9916C33.0842 65.8195 33.7532 66.7689 34.3362 67.7547C35.6092 69.9061 36.5877 72.4452 36.4578 74.9859C36.4447 75.2393 36.3013 75.2588 36.1282 75.1128C35.9319 74.9476 35.8023 74.5477 35.8163 74.2962C35.9251 72.1596 35.103 70.0519 34.0147 68.2531C33.5245 67.4423 32.9635 66.6652 32.3087 65.9772C31.879 65.5245 31.3689 65.0217 30.7554 64.8292C30.4016 64.7182 30.1565 63.5736 30.4528 63.6677L30.4519 63.6658Z" fill="#846DF2"/>
<path d="M52.8709 24.935C51.9747 23.5389 50.9612 22.2222 50.0631 20.827C49.9724 20.6861 49.9086 20.3947 50.1673 20.4345C50.4392 20.4774 50.6702 20.7893 50.8058 20.9998C51.702 22.3958 52.7155 23.7126 53.6136 25.1077C53.7044 25.2487 53.7682 25.54 53.5095 25.5002C53.2376 25.4573 53.0066 25.1455 52.8709 24.935Z" fill="#846DF2"/>
<path d="M41.892 59.3287C41.5993 59.5033 41.2955 59.6645 40.9755 59.7868C40.7233 59.8838 40.4922 59.9264 40.2282 59.8705C39.5701 59.7273 38.9324 59.4695 38.2977 59.2522C38.1351 59.1969 38.0539 58.9628 38.0193 58.8114C38.0045 58.7508 37.9606 58.4173 38.1157 58.4716C38.7429 58.6878 39.3693 58.937 40.0178 59.0847C40.2733 59.1424 40.4751 59.0974 40.7206 59.0013C41.0321 58.8807 41.3301 58.7223 41.6151 58.5513C41.785 58.4493 42.1166 59.1936 41.89 59.3296L41.892 59.3287Z" fill="#846DF2"/>
</svg>
