<svg width="44" height="44" viewBox="0 0 44 44" fill="none" xmlns="http://www.w3.org/2000/svg">
<path d="M3.08 3.08C5.82801e-07 6.18933 0 11.1613 0 21.12V22.88C0 32.824 5.82801e-07 37.796 3.08 40.92C6.18933 44 11.1613 44 21.12 44H22.88C32.824 44 37.796 44 40.92 40.92C44 37.8107 44 32.8387 44 22.88V21.12C44 11.176 44 6.204 40.92 3.08C37.8107 5.82801e-07 32.8387 0 22.88 0H21.12C11.176 0 6.204 5.82801e-07 3.08 3.08ZM7.42133 13.3907H12.4667C12.628 21.78 16.324 25.3293 19.2573 26.0627V13.3907H23.9947V20.6213C26.884 20.3133 29.9347 17.0133 30.9613 13.376H35.684C35.2986 15.2588 34.5293 17.0419 33.424 18.614C32.3187 20.1861 30.9012 21.5135 29.26 22.5133C31.092 23.4248 32.7098 24.7144 34.0067 26.297C35.3037 27.8797 36.2503 29.7193 36.784 31.6947H31.5773C30.4627 28.2187 27.676 25.52 23.9947 25.1533V31.6947H23.408C13.376 31.6947 7.656 24.8307 7.42133 13.3907Z" fill="#1C60DF"/>
</svg>
