<svg width="620" height="772" viewBox="0 0 620 772" fill="none" xmlns="http://www.w3.org/2000/svg">
<mask id="mask0_6896_85548" style="mask-type:alpha" maskUnits="userSpaceOnUse" x="0" y="0" width="620" height="772">
<rect width="620" height="772" fill="#EC7777"/>
</mask>
<g mask="url(#mask0_6896_85548)">
<mask id="mask1_6896_85548" style="mask-type:luminance" maskUnits="userSpaceOnUse" x="-2" y="-7" width="625" height="787">
<path d="M622.188 -6.92969H-1.42188V779.74H622.188V-6.92969Z" fill="white"/>
</mask>
<g mask="url(#mask1_6896_85548)">
<path d="M622.186 -6.92969V779.74H504.836C508.136 770.73 514.416 758.73 524.956 755.92C542.506 751.09 564.956 718.65 570.106 699.34C575.176 679.94 581.056 654.99 582.096 628.51C583.066 602.11 568.496 550.12 564.466 531.6C560.366 513.01 512.226 412 500.886 387.13C489.536 362.26 463.616 338.36 442.126 323.47C420.636 308.5 389.806 317.51 379.266 314.21C368.646 310.91 362.526 260.36 362.446 245.39C362.286 230.34 378.866 231.71 380.236 225.75C381.686 219.79 375.086 218.67 370.576 214.4C366.066 210.13 360.196 203.86 351.906 198.79C343.616 193.8 344.426 183.18 322.936 162.89C301.446 142.69 259.276 140.76 233.996 146.15C208.726 151.54 177.896 192.11 173.636 210.94C169.366 229.77 174.276 238.06 176.536 245.39C178.706 252.63 170.096 272.11 172.516 283.06C174.926 294.01 189.256 290.79 194.646 307.77C199.956 324.75 233.276 338.52 232.796 343.99C232.316 349.46 188.206 358.72 169.776 369.42C151.266 380.21 151.666 402.66 144.506 423.35C137.266 444.04 128.406 451.76 119.716 467.62C111.026 483.48 80.9259 517.2 73.8359 533.06C66.7559 548.84 53.6359 587.15 43.7359 604.13C36.8159 616.12 19.3459 624.9 -1.41406 632.14V-6.92969H622.196H622.186Z" fill="#846DF2"/>
<path d="M-0.581955 642.98C7.96804 637.05 16.508 631.11 25.058 625.19C28.558 622.76 32.058 620.33 35.728 618.17C39.578 615.9 43.9081 614.13 47.0881 610.9C52.148 605.78 54.098 598.94 56.148 592.25C58.648 584.11 61.828 577.87 66.738 570.88C68.988 567.68 71.308 564.38 72.608 560.65C74.038 556.55 73.6981 552.4 74.398 548.19C75.8381 539.61 80.808 531.59 86.418 525.12C90.758 520.13 95.468 515.48 99.598 510.3C104.968 503.56 108.848 496 113.308 488.66C117.848 481.18 123.198 474.23 128.628 467.38C132.488 462.51 136.998 457.71 139.948 452.19C143.688 445.18 145.598 437.02 147.718 429.41C149.778 422.01 152.098 415.83 156.378 409.39C160.348 403.41 165.128 397.69 167.938 391.03C171.138 383.44 175.978 377.25 181.928 371.58C184.658 368.98 187.608 365.86 190.898 364C192.998 362.82 196.378 362.4 199.448 361.67C209.218 359.33 218.638 356.14 227.688 351.74C232.838 349.24 242.878 345.03 244.998 339.04C246.808 333.94 237.988 333.41 234.968 333.36C233.848 333.34 232.098 333.2 231.018 333.54C232.008 333.22 235.598 334.67 234.128 333.56C232.978 332.69 230.968 332.25 229.658 331.5C222.778 327.53 217.268 321.28 212.728 314.86C209.558 310.37 205.218 304.2 204.528 298.55C197.798 300.34 191.068 302.13 184.338 303.92H184.378C183.278 303.32 182.178 302.72 181.088 302.11C181.218 302.32 181.328 302.54 181.428 302.76C187.978 300.56 190.901 300.25 197.451 298.04C191.931 296.64 189.128 291.72 185.958 286.08C183.338 281.42 183.858 276.68 185.548 271.84C186.508 269.09 187.698 266.34 187.898 263.39C188.088 260.56 187.158 257.91 186.718 255.15C186.188 251.86 187.748 249.74 188.118 246.57C188.478 243.51 187.948 240.36 187.738 237.31C186.958 226.18 187.878 214.72 192.078 204.29C194.338 198.68 198.268 193.35 201.008 189.9C201.898 188.77 202.018 188.35 202.598 187.13C202.328 187.7 202.298 188.16 202.678 186.91C203.438 184.41 204.218 181.94 205.208 179.52C208.408 171.77 213.058 164.17 219.968 159.21C226.698 154.38 236.498 150.24 243.928 148.47C252.838 146.34 263.738 146.34 273.548 148.16C280.178 149.39 286.188 152.17 292.528 154.28C301.268 157.19 307.858 163.37 313.618 170.5C317.408 175.19 320.568 180.33 323.488 185.6C325.428 189.09 326.778 193.96 330.128 196.32C332.428 197.94 335.638 198.85 337.578 199.76C342.158 201.91 342.668 203.95 344.388 208.46C345.908 212.46 349.348 214.55 353.208 215.95C355.658 216.84 355.678 219.955 356.898 220.835C358.878 222.265 364.858 222.69 365.158 225.06C365.598 228.43 364.178 229.42 361.418 230.46C357.268 232.03 351.748 233.45 349.608 237.84C347.838 241.48 349.788 245.14 351.298 248.45C353.128 252.46 354.378 256.04 354.348 260.51C354.318 264.15 353.158 267.72 353.828 271.35C354.508 275.05 356.128 278.61 356.898 282.33C357.878 287.07 358.568 291.87 359.238 296.66C359.988 302.01 359.448 312.97 364.498 316.39C372.298 321.68 384.628 318.62 393.288 318.25C404.528 317.76 416.278 320.83 426.948 324.18C437.518 327.5 447.598 332.91 456.008 340.15C473.318 355.03 481.698 375.35 490.118 395.93C497.778 414.63 507.068 432.66 516.098 450.72C523.668 465.85 530.558 481.22 537.268 496.74C545.668 516.15 556.018 535.82 558.618 557.01C559.968 568.01 559.888 579.74 564.058 590.18C567.838 599.62 570.348 608.3 570.428 618.62C570.488 626.18 569.638 632.74 566.098 639.35C562.598 645.88 563.538 654.57 563.298 661.72C562.878 674.17 561.178 686.06 557.248 697.91C554.428 706.41 552.098 715.17 548.478 723.38C545.338 730.51 541.058 736.5 534.748 741.15C527.158 746.74 517.838 749.76 509.438 753.89C504.448 756.34 498.648 759.38 496.368 764.8C493.408 771.85 493.968 781.22 493.818 788.62C493.718 793.35 493.538 798.26 494.248 802.96C495.308 809.94 519.278 807.21 518.288 800.65C517.648 796.42 517.768 791.99 517.828 787.73C517.918 780.95 517.408 772.88 519.378 766.28C520.838 761.38 522.918 761.07 527.538 758.83C535.418 755.01 543.718 751.92 551.158 747.24C564.738 738.7 571.398 726.74 576.288 711.84C579.428 702.27 582.898 692.7 584.898 682.82C586.908 672.9 587.218 662.86 587.528 652.77C587.618 649.63 587.568 646.33 588.208 643.25C588.718 640.81 590.108 639.22 591.158 637.03C594.328 630.49 594.628 622.06 594.438 614.95C594.218 606.4 592.738 597.95 589.158 590.15C584.988 581.04 584.338 571.1 583.348 561.26C582.328 551.04 580.828 541.17 576.958 531.6C573.438 522.89 569.778 514.23 566.088 505.58C559.658 490.52 553.348 475.33 546.248 460.57C538.698 444.87 530.598 429.44 523.128 413.7C515.098 396.78 509.408 378.67 500.278 362.31C490.428 344.65 476.008 330.1 457.618 321.37C437.498 311.82 413.728 307.37 391.588 308.71C389.438 308.84 387.288 309.02 385.128 309.18C385.358 309.16 381.298 309.65 383.078 309.32C384.028 309.14 381.358 308.46 383.558 309.4C384.338 309.73 385.638 310.12 385.668 310.08C385.928 309.67 384.968 306.36 384.888 305.84C383.678 298.23 382.858 290.55 381.478 282.96C380.228 276.11 377.068 269.78 377.998 262.78C378.488 259.1 378.628 255.28 377.578 251.68C376.528 248.08 374.468 245.13 373.428 241.68C372.468 238.49 372.268 238.3 375.098 237.42C379.628 236 385.008 233.76 387.688 229.54C390.788 224.66 388.728 218.53 385.188 214.47C382.918 211.86 379.978 210.47 376.698 209.5C373.918 208.67 370.688 208.75 368.928 206.71C366.868 204.34 367.138 200.5 364.948 197.93C362.638 195.21 359.288 193.54 356.058 192.19C353.668 191.19 353.698 191.48 352.068 190.54C350.568 189.68 351.558 190.56 350.878 189.35C348.668 185.4 346.738 181.32 344.448 177.41C338.958 168.06 332.198 159.69 323.518 153.12C317.848 148.82 311.638 147.02 305.138 144.5C298.078 141.76 290.968 139.69 283.468 138.5C261.498 135.03 238.468 137.27 218.008 146.07C209.838 149.58 201.188 153.55 194.738 159.81C189.098 165.29 184.768 171.99 181.778 179.25C180.408 182.58 179.298 186.01 178.548 189.54C179.018 188.68 179.488 187.82 179.958 186.96C173.338 192.66 169.078 201.53 166.688 209.72C164.428 217.48 163.338 225.62 163.438 233.69C163.498 238.49 164.868 243.87 164.108 248.63C163.888 250.04 162.698 251.88 162.478 253.92C162.118 257.19 163.548 260.33 163.808 263.57C164.398 270.71 158.798 276.75 160.338 284.18C162.688 295.55 174.278 302.01 184.728 304.65C188.328 305.56 207.868 305.65 204.368 298.04C203.698 296.59 204.873 293.606 203.433 293.136C199.383 291.806 190.658 292.227 185.958 294.023C183.958 294.593 180.148 297.91 180.508 300.92C180.978 304.78 183.548 309.3 185.388 312.67C188.318 318.01 191.958 323.01 196.088 327.48C200.368 332.11 205.448 336.49 211.108 339.34C214.198 340.9 217.468 342.12 220.858 342.81C222.878 343.22 224.888 343.43 226.958 343.46C228.338 343.41 229.718 343.35 231.098 343.29C234.258 343.1 232.238 342.9 225.038 342.7C223.938 342.09 222.838 341.48 221.748 340.88L221.898 341.13C221.818 340.28 221.738 339.43 221.648 338.57C220.668 342.08 214.198 344.57 211.408 345.98C205.268 349.06 198.858 351.49 192.178 353.09C185.428 354.7 178.338 355.97 172.258 359.48C165.628 363.3 159.818 369.27 154.788 374.97C150.368 379.98 146.958 385.11 144.348 391.23C142.058 396.6 138.308 401.33 135.018 406.11C131.648 411.01 128.098 416.05 126.338 421.79C124.258 428.54 122.658 435.42 120.428 442.13C116.738 453.24 109.958 461.02 102.838 470.13C98.2381 476.01 93.778 482.01 89.898 488.39C86.0181 494.77 82.808 501.12 78.468 507.05C71.238 516.94 61.378 524.72 55.498 535.61C52.358 541.43 50.3081 547.96 49.9481 554.59C49.5181 562.45 45.1681 567.88 40.8081 574.15C36.6181 580.19 34.468 586.36 32.308 593.34C30.648 598.72 28.958 606.01 24.208 609.59C21.028 611.99 16.998 613.64 13.608 615.81C9.78804 618.25 6.05804 620.83 2.33805 623.41C-5.71196 628.99 -13.752 634.58 -21.802 640.16C-26.352 643.32 -19.322 645.97 -16.862 646.32C-11.442 647.09 -5.14195 646.18 -0.581955 643.02V642.98Z" fill="white"/>
<path fill-rule="evenodd" clip-rule="evenodd" d="M291.094 45.0998C288.964 36.2898 285.994 27.6198 281.074 23.6098C276.664 20.0298 270.304 20.3198 263.274 20.1998C246.104 19.8898 224.114 25.5198 210.964 27.4998C171.624 37.0698 139.384 40.6598 90.2543 49.9198C58.4443 56.2798 42.2243 54.6898 34.2843 63.2098C27.1943 70.8198 30.6543 81.5998 32.2443 107.53C33.3943 126.17 39.7543 140.55 47.3843 142.48C62.6243 146.34 89.3843 140.31 103.704 137.47C133.584 129.8 161.714 126.43 191.324 120.95C214.614 116.59 240.464 114.2 263.754 107.88C276.904 103.55 287.434 107.71 295.464 96.8898C301.684 84.0498 291.084 45.0998 291.084 45.0998H291.094Z" fill="white"/>
<path d="M295.115 45.0796C292.425 34.2696 288.975 21.9996 276.665 19.4396C264.775 16.9696 251.325 18.7696 239.485 20.6196C215.495 24.3796 191.965 30.3396 168.075 34.6696C140.855 39.6096 113.495 43.7296 86.3253 48.9096C74.6553 51.1296 62.8753 52.4196 51.1753 54.3796C44.7353 55.4596 37.5453 56.7296 32.3253 60.9796C27.3453 65.0396 25.9853 70.8596 25.9653 77.0396C25.9353 88.8096 27.2953 101.17 28.6953 112.83C29.8153 122.18 32.1953 134.3 39.6553 140.84C46.1253 146.52 57.7353 145.59 65.6753 145.13C92.2053 143.56 117.955 135.37 144.005 130.75C174.005 125.43 204.105 120.77 234.155 115.81C242.395 114.45 250.615 112.96 258.745 111.04C265.495 109.45 271.945 107.68 278.865 106.86C288.155 105.76 298.885 102.88 300.885 92.3796C302.665 82.9796 300.845 72.6996 299.175 63.3996C298.075 57.2496 296.755 51.1096 295.125 45.0696C294.445 42.5696 286.595 43.3396 287.075 45.1096C290.275 56.9096 292.775 69.2596 293.335 81.4896C293.715 89.7896 293.435 98.5696 284.505 102.17C280.195 103.91 275.225 103.81 270.685 104.49C264.645 105.4 258.835 107.33 252.885 108.68C239.315 111.77 225.525 113.74 211.775 115.84C198.185 117.91 184.685 120.46 171.125 122.73C157.875 124.94 144.615 127.04 131.415 129.54C119.085 131.87 106.955 135.03 94.6653 137.49C83.8053 139.66 72.7753 141.79 61.6753 142.09C57.5553 142.2 51.6253 142.61 47.9853 140.29C44.5953 138.13 42.5153 133.79 41.0153 130.21C36.2053 118.77 36.3153 106.12 35.2253 93.9696C34.5453 86.3696 32.8253 77.7796 34.6553 70.2296C38.1453 55.7396 59.6153 56.5796 71.0353 54.9196C96.1353 51.2796 121.065 46.1196 146.085 41.9396C158.275 39.8996 170.465 37.8296 182.605 35.4796C194.665 33.1396 206.595 30.1096 218.675 27.9196C231.905 25.5196 245.165 22.3596 258.645 21.8596C265.215 21.6096 274.145 20.5096 278.965 25.7696C283.645 30.8796 285.465 38.6196 287.085 45.1196C287.705 47.6096 295.585 46.8996 295.135 45.0796H295.115Z" fill="white"/>
<path d="M60.844 84.8838C60.724 86.7438 60.634 88.6138 60.554 90.4638C60.474 92.3138 60.394 94.1738 60.314 96.0238C60.334 96.1038 60.334 96.1538 60.344 96.1938C60.324 96.2838 60.314 96.3338 60.324 96.3638C61.814 96.2038 63.334 96.1338 64.864 96.1538C66.384 96.1738 67.864 96.4338 69.294 96.9038C70.674 97.3438 71.954 98.0238 73.134 98.9338C74.324 99.8338 75.154 101.014 75.624 102.454C76.214 104.094 76.374 105.794 76.124 107.514C75.874 109.294 75.404 110.944 74.714 112.484C73.994 114.074 73.044 115.444 71.854 116.614C70.624 117.754 69.174 118.574 67.504 119.094C66.244 119.484 64.934 119.774 63.554 119.954C62.144 120.194 60.774 120.234 59.404 120.094C58.844 120.834 57.754 121.354 56.124 121.654C56.084 121.654 56.054 121.674 56.004 121.674C54.684 121.924 53.944 121.764 53.794 121.144C53.774 121.074 53.794 120.974 53.794 120.864C53.914 118.644 54.004 116.404 54.044 114.164C54.094 111.904 54.124 109.634 54.174 107.394C54.234 105.034 54.304 102.674 54.364 100.314C54.454 97.9038 54.534 95.5238 54.594 93.1638C54.674 91.5038 54.744 89.8138 54.794 88.0738C54.864 86.3838 55.034 84.6938 55.314 83.0538C55.594 81.4238 56.464 80.3438 57.924 79.8038C59.394 79.2438 60.834 78.8138 62.254 78.5038C62.674 78.4238 63.114 78.3338 63.564 78.2538C64.614 78.0538 65.704 77.8738 66.804 77.6938C68.364 77.4738 69.904 77.2638 71.444 77.0538C71.864 77.0138 72.324 77.0538 72.824 77.1938C73.074 77.2738 73.214 77.3938 73.254 77.5838C73.284 77.7738 73.204 78.0038 73.024 78.2738C72.704 78.8438 72.134 79.2838 71.334 79.5838C70.524 79.8538 69.814 80.0338 69.204 80.1038C67.864 80.2738 66.534 80.4638 65.194 80.6338C63.854 80.8438 62.534 81.0938 61.224 81.3838C61.224 81.3438 61.224 81.3138 61.274 81.3038V81.2438C61.274 81.2438 61.304 81.0638 61.404 80.8138C61.484 80.5538 61.514 80.4238 61.504 80.3838C61.474 80.4338 61.194 80.6538 60.694 81.0638C60.184 81.4738 59.904 81.6838 59.874 81.6938C59.924 81.5638 59.874 81.5338 59.734 81.5938C59.604 81.7038 59.604 81.7438 59.754 81.7138H59.814L59.874 81.6938C59.944 81.6738 60.014 81.6438 60.084 81.5938C60.154 81.5738 60.254 81.5638 60.364 81.5338C60.514 81.5038 60.664 81.4738 60.814 81.4438C60.934 81.4238 61.064 81.3938 61.214 81.3738C61.124 81.9338 61.044 82.5138 60.954 83.1138C60.904 83.6738 60.864 84.2538 60.814 84.8338L60.844 84.8838ZM56.114 115.394C56.114 115.394 56.034 115.414 56.004 115.414L55.934 115.354C55.934 115.354 56.024 115.404 56.064 115.394H56.124H56.114ZM59.784 81.7538C59.634 81.7838 59.624 81.7538 59.764 81.6338C59.904 81.5738 59.954 81.6038 59.904 81.7338H59.844L59.784 81.7538ZM61.734 98.8738C61.534 98.8738 61.324 98.9038 61.094 98.9438C60.904 98.9838 60.714 99.0138 60.524 99.0538C60.444 99.0738 60.394 99.0738 60.354 99.0838C60.314 99.0938 60.274 99.1038 60.244 99.1038C60.154 102.174 60.094 105.224 60.044 108.294C60.004 111.364 59.894 114.414 59.734 117.464C59.774 117.484 59.824 117.494 59.854 117.484L59.924 117.534H59.864C59.664 117.504 59.664 117.534 59.864 117.604C60.064 117.634 60.084 117.624 59.914 117.534C60.004 117.554 60.094 117.564 60.214 117.534C60.294 117.554 60.354 117.564 60.384 117.554H60.324C60.414 117.584 60.514 117.614 60.634 117.624C60.754 117.604 60.824 117.594 60.864 117.584C61.024 117.584 61.174 117.584 61.324 117.554C61.484 117.554 61.614 117.554 61.734 117.534H61.794L61.854 117.514L61.914 117.494C61.994 117.474 62.044 117.474 62.084 117.464C62.154 117.444 62.234 117.434 62.314 117.424C62.424 117.404 62.594 117.364 62.824 117.324C63.044 117.284 63.184 117.264 63.214 117.254C63.394 117.174 63.634 117.094 63.934 117.004C64.224 116.874 64.474 116.734 64.684 116.614C65.864 116.004 66.824 115.094 67.574 113.904C68.324 112.704 68.894 111.494 69.294 110.284C69.674 109.004 69.924 107.644 70.044 106.214C70.124 104.754 69.884 103.384 69.324 102.114C69.064 101.574 68.744 101.114 68.354 100.714C67.994 100.274 67.564 99.8838 67.074 99.5538C66.984 99.4838 66.914 99.4438 66.874 99.4138C66.784 99.3438 66.694 99.2838 66.594 99.2338L66.534 99.1838C66.534 99.1838 66.464 99.1638 66.474 99.1838C66.474 99.1538 66.444 99.1238 66.404 99.1338L66.344 99.0938C66.254 99.0338 66.174 98.9838 66.094 98.9638C66.004 98.9438 65.924 98.9038 65.824 98.8438L65.884 98.8238C65.884 98.8238 65.804 98.8238 65.754 98.7838H65.694L65.634 98.8038C65.594 98.7838 65.524 98.7438 65.444 98.7238C65.324 98.7038 65.214 98.6838 65.134 98.6638C65.164 98.6638 65.194 98.6638 65.194 98.7038H65.254C65.254 98.7038 65.224 98.6438 65.184 98.6438L65.124 98.6638H65.064L65.004 98.6838H65.064C65.064 98.6838 64.954 98.6338 64.884 98.6538L64.754 98.6238L64.814 98.6038L64.884 98.6538C64.884 98.6538 64.954 98.6338 64.994 98.6338H64.754C64.594 98.6138 64.574 98.6138 64.694 98.6338L64.634 98.6538C64.634 98.6538 64.544 98.6038 64.504 98.6138C64.424 98.6338 64.344 98.6338 64.264 98.6138C64.184 98.6338 64.114 98.6338 64.034 98.6538C63.994 98.6538 63.874 98.6538 63.684 98.6538C63.454 98.6538 63.314 98.6738 63.274 98.6738C63.074 98.6738 62.904 98.6938 62.754 98.7138C62.554 98.7138 62.374 98.7138 62.234 98.7538C62.154 98.7538 62.074 98.7738 62.004 98.7938C61.964 98.7938 61.854 98.8238 61.664 98.8538L61.734 98.8738ZM61.284 81.2838V81.3438C61.284 81.3438 61.234 81.3838 61.244 81.4238C61.094 81.4438 60.964 81.4738 60.844 81.4938C60.694 81.5238 60.544 81.5538 60.394 81.5838C60.284 81.6038 60.184 81.6238 60.114 81.6438C60.044 81.7038 59.974 81.7338 59.904 81.7438C59.934 81.7438 60.214 81.5238 60.724 81.1138C61.224 80.6938 61.504 80.4738 61.534 80.4338C61.534 80.4738 61.514 80.6038 61.434 80.8638C61.334 81.1138 61.274 81.2538 61.294 81.2938L61.284 81.2838Z" fill="#846DF2"/>
<path d="M87.2459 116.17C87.2059 116.56 86.9259 116.84 86.4059 116.98C86.2859 117 86.1759 117.02 86.0659 117.04C85.6059 117.13 85.1059 117.14 84.5459 117.1C83.7059 117.02 82.9159 116.83 82.1559 116.55C81.5159 116.28 81.1759 115.94 81.1359 115.51L81.0859 115.27C81.3859 111.26 81.6059 107.26 81.7359 103.24C81.8359 99.2202 81.9559 95.2302 82.1059 91.2502C82.1759 89.5402 82.2459 87.8702 82.3259 86.2202C82.3559 84.5202 82.4559 82.8402 82.6059 81.1702C82.7059 79.8602 82.9059 78.6202 83.1859 77.4202C83.5059 76.2302 84.1859 75.1802 85.2259 74.2802C86.3459 73.3602 87.6659 72.7602 89.1759 72.4802C89.3559 72.4402 89.5459 72.4102 89.7359 72.3702C91.5359 72.1402 93.2759 72.2402 94.9659 72.6702C95.8359 72.9302 96.6759 73.2802 97.5159 73.7202C98.3059 74.1402 99.0059 74.6602 99.6259 75.2402C100.556 76.2102 101.136 77.3302 101.376 78.6202C101.456 79.0302 101.506 79.4702 101.516 79.9302C101.546 81.7702 101.286 83.6002 100.736 85.4302C100.406 86.4002 100.026 87.3002 99.6059 88.1702C99.1959 89.0702 98.7759 89.8802 98.3659 90.5802C97.7359 91.6002 96.9859 92.6202 96.1259 93.6502C95.2259 94.6802 94.2459 95.4702 93.1759 96.0302C91.9359 96.7302 90.5359 97.0102 88.9959 96.8802C87.4359 96.7402 86.0359 96.4202 84.8159 95.9102C84.3959 95.7602 84.0059 95.5102 83.6659 95.1302C83.3259 94.8002 83.4259 94.4502 83.9359 94.0802C84.4559 93.7002 85.1659 93.5802 86.0459 93.7302C86.9259 93.8302 87.6459 93.9902 88.1859 94.2102C87.9659 94.2502 87.8259 94.2602 87.7859 94.2302C87.7859 94.1902 87.8659 94.1402 88.0459 94.0602C88.2259 93.9602 88.3959 93.8202 88.5559 93.6802C88.7259 93.5602 88.9059 93.4302 89.0759 93.2802C89.2659 93.0802 89.4659 92.8902 89.6659 92.6902C89.8659 92.5102 90.0559 92.3002 90.2459 92.0502C90.6759 91.6202 91.0559 91.1802 91.4059 90.7202C91.7559 90.2602 92.0759 89.7902 92.3759 89.3102C93.0959 88.1902 93.6859 86.9802 94.1459 85.6702C94.5759 84.4202 94.8759 83.1302 95.0559 81.8002C95.1859 81.1902 95.2559 80.3702 95.2959 79.3502C95.3459 78.3602 95.2059 77.4602 94.9059 76.6602C94.7359 76.2202 94.5159 75.8502 94.2259 75.5602C93.9359 75.2602 93.5659 75.0602 93.1159 74.9502C92.3359 74.7802 91.5559 75.1302 90.7859 75.9802C90.0259 76.8802 89.5159 77.6302 89.2859 78.2602C88.7959 79.6002 88.5459 81.0802 88.5359 82.6902C88.5359 84.3302 88.5159 85.8402 88.4559 87.2302C88.3959 88.8002 88.3259 90.3902 88.2359 91.9702C88.1859 93.5402 88.1359 95.1202 88.0759 96.6902C87.9859 99.9202 87.8759 103.17 87.7459 106.44C87.6559 109.7 87.4959 112.94 87.2459 116.16V116.17Z" fill="#846DF2"/>
<path d="M106.035 70.3377C106.035 69.9877 106.315 69.7177 106.825 69.5477C107.045 69.4577 107.245 69.4077 107.435 69.3777C107.815 69.3077 108.225 69.2677 108.655 69.2577C109.515 69.2877 110.325 69.4277 111.075 69.6777C111.835 69.9677 112.225 70.3577 112.245 70.8677C112.295 74.8577 112.385 78.8377 112.525 82.8477C112.655 86.8177 112.785 90.8077 112.915 94.8177C112.985 96.5977 113.055 98.4077 113.115 100.238C113.235 102.058 113.315 103.858 113.385 105.658C113.415 106.228 113.445 106.798 113.475 107.338C113.505 107.918 113.535 108.488 113.565 109.028C113.585 109.128 113.595 109.428 113.615 109.898C113.675 110.398 113.665 110.468 113.595 110.138C113.375 109.988 113.145 109.828 112.915 109.678C112.665 109.568 112.425 109.438 112.195 109.288C111.425 109.348 110.675 109.418 109.935 109.478C109.155 109.508 108.385 109.568 107.615 109.628C110.355 106.328 113.105 103.028 115.895 99.7177C118.645 96.4577 121.385 93.1777 124.125 89.8777C124.425 89.5477 124.885 89.3477 125.535 89.2677C126.155 89.2177 126.805 89.2477 127.495 89.3577C128.335 89.4777 129.045 89.6977 129.615 90.0077C130.185 90.3277 130.325 90.6577 130.035 90.9777C127.295 94.2777 124.535 97.5777 121.755 100.888C119.005 104.188 116.265 107.488 113.535 110.788C113.045 111.348 112.295 111.588 111.255 111.508C110.275 111.458 109.485 111.328 108.895 111.128C108.025 110.858 107.515 110.348 107.375 109.598C107.355 109.448 107.345 109.318 107.355 109.188C107.325 108.218 107.285 107.268 107.225 106.338C107.165 104.598 107.095 102.828 107.035 101.028C106.935 99.2477 106.845 97.4577 106.785 95.6777C106.615 91.4777 106.465 87.2577 106.325 83.0277C106.195 78.8177 106.095 74.5977 106.035 70.3377ZM123.905 67.9477C123.885 67.3977 124.255 66.9677 125.005 66.6177C125.755 66.2377 126.535 65.9977 127.335 65.8777C128.015 65.7877 128.635 65.7877 129.155 65.8977C129.595 65.9677 129.845 66.1377 129.895 66.3977C129.895 66.4477 129.915 66.4777 129.915 66.5277C129.965 70.5077 130.035 74.4777 130.115 78.4577C130.175 82.4477 130.245 86.4477 130.335 90.4477C130.425 93.2077 130.495 95.9977 130.515 98.8077C130.575 101.578 130.675 104.368 130.805 107.158C130.865 107.688 130.525 108.148 129.775 108.528C129.135 108.848 128.445 109.058 127.725 109.208C127.655 109.228 127.555 109.238 127.445 109.268C126.765 109.358 126.145 109.358 125.625 109.268C125.095 109.178 124.815 108.958 124.795 108.608C124.615 105.818 124.515 103.038 124.505 100.258C124.445 97.4577 124.385 94.6777 124.335 91.8977C124.245 87.8877 124.145 83.8877 124.055 79.9077C124.005 75.9277 123.965 71.9477 123.905 67.9577V67.9477Z" fill="#846DF2"/>
<path d="M145.293 103.938C145.263 104.368 144.973 104.718 144.433 104.978C143.973 105.218 143.463 105.398 142.893 105.508C142.813 105.528 142.723 105.548 142.613 105.568C141.763 105.688 140.983 105.688 140.253 105.548C139.563 105.408 139.183 105.168 139.123 104.818C139.123 104.788 139.123 104.748 139.153 104.708C139.173 103.368 139.153 102.038 139.103 100.718C139.043 99.3884 139.013 98.0884 139.003 96.8084C138.943 92.5484 138.873 88.2784 138.803 83.9784C138.743 79.7184 138.783 75.4684 138.963 71.2084C139.023 70.2584 139.053 69.0484 139.093 67.5484C139.093 66.0584 139.553 65.0284 140.503 64.4584C141.313 63.9984 142.233 63.6684 143.243 63.4684C144.303 63.2684 145.283 63.0784 146.203 62.9084C146.913 62.7384 147.623 62.5684 148.343 62.4384C149.063 62.3084 149.783 62.1684 150.493 62.0284C150.913 61.9484 151.603 61.8884 152.573 61.8184C153.493 61.7284 154.093 61.9184 154.393 62.4184C154.453 62.5584 154.503 62.6984 154.523 62.8084C154.583 63.1484 154.383 63.4284 153.913 63.6284C153.303 63.9384 152.823 64.1384 152.443 64.2084C151.613 64.3684 150.793 64.5184 150.003 64.6684C149.173 64.8284 148.333 65.0084 147.513 65.1984C147.053 65.2884 146.593 65.3984 146.123 65.5784C145.643 65.7084 145.153 65.8084 144.643 65.8584C144.303 65.9284 144.393 65.8584 144.913 65.6984C145.433 65.5284 145.653 65.3784 145.593 65.2784L145.573 65.4584C145.553 65.6084 145.543 65.6384 145.523 65.5284C145.573 66.0284 145.543 66.5584 145.413 67.1284C145.323 67.6984 145.253 68.2484 145.193 68.7584C145.153 69.5884 145.113 70.4284 145.073 71.2484C145.073 72.0784 145.053 72.8984 145.013 73.7284C144.983 75.8384 144.973 77.9484 144.973 80.0184C144.973 82.1284 144.993 84.2484 145.003 86.3584C145.043 89.2884 145.113 92.2284 145.203 95.1884C145.323 98.0984 145.353 101.028 145.283 103.988L145.293 103.938Z" fill="#846DF2"/>
<path d="M175.314 58.1305C176.694 58.7705 177.504 59.8005 177.774 61.2005C177.794 61.2905 177.814 61.4205 177.834 61.5305C178.014 63.0905 178.184 64.5605 178.314 65.9005C178.704 69.2305 179.064 72.5705 179.394 75.9205C179.714 79.2505 180.034 82.6005 180.364 85.9505C180.554 87.9905 180.724 90.0205 180.884 92.0805C181.024 94.0805 181.244 96.1005 181.564 98.1105C181.594 98.5305 181.264 98.8205 180.544 98.9505C180.474 99.0105 180.404 99.0405 180.324 99.0505C179.644 99.1405 178.914 99.1605 178.164 99.1105C177.484 99.0105 176.864 98.8305 176.314 98.5805C175.754 98.3405 175.434 98.0105 175.354 97.5905C175.094 95.6105 174.874 93.6205 174.694 91.6105C174.544 89.6105 174.384 87.6005 174.194 85.6005C174.114 85.6205 174.064 85.6205 174.024 85.6305C173.954 85.6505 173.884 85.6605 173.804 85.6805C173.884 85.6605 173.934 85.6505 173.974 85.6405C174.044 85.6405 174.004 85.6405 173.854 85.6605C173.774 85.6805 173.704 85.6905 173.624 85.7105C173.544 85.7305 173.474 85.7305 173.394 85.7505C173.284 85.7705 173.154 85.8005 173.004 85.8305C172.854 85.8505 172.694 85.9005 172.554 85.9705C172.254 86.0305 171.974 86.0805 171.704 86.1305C171.394 86.1905 171.124 86.2605 170.874 86.3405C169.934 86.5505 168.974 86.7805 167.994 87.0005C167.054 87.2205 166.134 87.4805 165.204 87.7705C164.724 89.9805 164.234 92.2005 163.714 94.4605C163.224 96.6605 162.734 98.8905 162.224 101.14C162.104 101.56 161.764 101.82 161.204 101.97C160.654 102.16 160.014 102.22 159.304 102.17C158.474 102.13 157.704 101.97 156.974 101.67C156.384 101.43 156.074 101.14 156.054 100.84C156.034 100.76 156.034 100.67 156.054 100.55C157.024 96.3305 157.964 92.1205 158.894 87.9105C159.804 83.6705 160.734 79.4405 161.664 75.2405C161.994 73.7205 162.344 72.2105 162.674 70.7005C163.064 69.2205 163.444 67.7405 163.834 66.2505C164.134 65.1805 164.464 64.0005 164.804 62.7205C165.144 61.4505 165.664 60.3705 166.364 59.4905C167.094 58.6105 168.184 58.0405 169.614 57.7705C169.954 57.7005 170.294 57.6505 170.644 57.6305C172.604 57.4505 174.164 57.6305 175.324 58.1405L175.314 58.1305ZM173.634 82.7005C173.634 82.7005 173.724 82.6805 173.804 82.6705C173.844 82.6705 173.874 82.6505 173.914 82.6505C173.934 82.5405 173.934 82.4205 173.914 82.3005C173.894 82.1905 173.894 82.0605 173.894 81.8905C173.664 79.8705 173.454 77.8205 173.264 75.7905C173.074 73.7505 172.864 71.7105 172.634 69.6805C172.544 68.8305 172.464 67.9705 172.374 67.0905C172.284 66.2005 172.174 65.3305 172.054 64.4505C172.014 64.0305 171.974 63.6105 171.934 63.1805C171.884 62.7605 171.824 62.3405 171.744 61.9205C171.724 61.8405 171.744 61.7905 171.764 61.7405C171.744 61.6605 171.744 61.5905 171.724 61.5105C171.334 62.1705 171.044 62.9205 170.854 63.7305C170.654 64.5105 170.464 65.1405 170.284 65.6605C169.824 67.3605 169.404 69.0305 169.014 70.7105C168.594 72.4005 168.194 74.0705 167.854 75.7505C167.544 77.1805 167.224 78.6005 166.914 80.0405C166.584 81.4205 166.284 82.8405 166.004 84.2505C167.234 83.9405 168.504 83.6605 169.784 83.4205C171.064 83.1805 172.354 82.9305 173.634 82.6905V82.7005Z" fill="#846DF2"/>
<path d="M193.486 100.265C193.616 100.595 193.486 100.905 193.076 101.225C192.676 101.575 192.136 101.875 191.476 102.105C190.716 102.415 189.926 102.575 189.106 102.615C188.286 102.665 187.766 102.415 187.506 101.935C187.216 101.395 186.886 100.785 186.526 100.115C186.206 99.4646 185.906 98.8046 185.616 98.1146C185.386 97.5246 185.226 96.9646 185.126 96.4446C184.986 95.7246 184.956 95.0446 185.036 94.4046C185.116 93.1746 185.936 92.2546 187.506 91.6346C188.156 91.3546 188.826 91.1946 189.526 91.1346C190.206 91.0446 190.896 90.9346 191.576 90.8046C192.216 90.6846 192.836 90.5546 193.426 90.3946C194.016 90.2346 194.626 90.1046 195.236 89.9846C196.506 89.6746 197.756 89.3646 198.996 89.0446C200.226 88.7646 201.496 88.5246 202.796 88.3246C204.076 88.0846 205.346 87.8646 206.596 87.6546C207.896 87.4546 209.186 87.2446 210.476 87.0446C211.076 86.9346 211.676 86.8146 212.286 86.7046C212.896 86.5846 213.516 86.4546 214.146 86.2846C214.746 86.1746 215.376 86.0046 216.046 85.8046C216.676 85.6446 217.326 85.5446 217.986 85.4946C218.486 85.4946 218.956 85.5646 219.386 85.7646C219.846 85.9146 220.126 86.2646 220.236 86.8446C220.236 86.8746 220.256 86.9146 220.256 86.9546C220.336 87.3746 220.356 87.8146 220.336 88.2946C220.276 88.8246 220.206 89.3246 220.146 89.8046C220.056 90.9446 219.856 92.0846 219.556 93.2046C219.306 94.3446 219.006 95.4646 218.666 96.5346C218.536 96.9546 218.196 97.3046 217.626 97.6146C217.056 97.8846 216.446 98.1046 215.816 98.2546C215.736 98.2746 215.676 98.2746 215.646 98.2846C214.896 98.4246 214.186 98.4446 213.536 98.3346C212.896 98.2546 212.626 97.9946 212.746 97.5446C212.986 96.7446 213.206 95.9646 213.416 95.1846C213.616 94.3546 213.796 93.5646 213.956 92.7846C214.056 92.1046 214.196 91.2746 214.366 90.3046C214.546 89.3646 214.456 88.5646 214.086 87.8946C214.176 88.0246 214.366 88.1846 214.646 88.3746C214.566 88.3946 214.466 88.3746 214.336 88.3146C214.646 88.3146 214.966 88.3346 215.276 88.3146C215.626 88.3146 215.956 88.3346 216.276 88.3446C215.106 88.5346 213.906 88.7846 212.716 89.0846C211.556 89.3846 210.386 89.6246 209.216 89.8046C208.046 90.0346 206.846 90.2246 205.636 90.4146C204.456 90.6046 203.276 90.7946 202.096 90.9746C199.746 91.3846 197.416 91.8746 195.106 92.4846C192.776 93.0746 190.446 93.5646 188.096 93.9246C188.506 93.8146 188.886 93.6846 189.256 93.5346C189.626 93.4246 190.006 93.3146 190.376 93.2046C190.646 92.9646 190.816 92.8446 190.896 92.8746C190.976 92.8546 190.976 92.9746 190.896 93.2246C190.896 93.3946 190.876 93.5446 190.866 93.7046C190.866 93.8346 190.866 93.9646 190.886 94.1046C190.926 94.3046 190.956 94.4646 190.976 94.6146C191.016 94.8146 191.046 94.9946 191.086 95.1846C191.176 95.4346 191.266 95.7146 191.366 96.0146C191.466 96.3146 191.566 96.5846 191.696 96.8346C191.966 97.4146 192.246 97.9946 192.556 98.5546C192.856 99.1246 193.166 99.6846 193.466 100.265H193.486ZM196.946 90.6746C196.846 91.1746 196.386 91.5746 195.596 91.9346C194.806 92.2846 194.026 92.5046 193.266 92.6146C192.616 92.6946 192.066 92.6846 191.616 92.5646C191.156 92.4246 190.966 92.1546 191.056 91.7946C191.806 88.9446 192.436 86.0446 192.926 83.1046C193.426 80.1546 193.946 77.2146 194.486 74.2946C195.016 71.4946 195.536 68.6746 196.046 65.8246C196.566 62.9946 197.166 60.1746 197.856 57.3946C198.106 56.2746 198.496 55.2946 198.986 54.4146C199.446 53.5446 200.226 52.8046 201.326 52.2046C202.096 51.7446 203.176 51.3246 204.556 50.9546C204.826 50.8946 205.086 50.8546 205.346 50.7946C206.396 50.5946 207.396 50.5946 208.336 50.7646C208.976 50.8646 209.526 51.1046 209.986 51.4446C210.486 51.7846 210.826 52.2746 211.036 52.9446C211.306 53.7246 211.456 54.5246 211.496 55.3846C211.556 56.2846 211.606 57.1246 211.686 57.9346C211.756 58.7046 211.816 59.4946 211.896 60.2946C211.966 61.0746 212.036 61.8546 212.106 62.6646C212.276 64.5546 212.406 66.4246 212.526 68.2846C212.686 70.1746 212.826 72.0546 212.946 73.9546C213.036 75.4746 213.126 76.9746 213.226 78.4846C213.316 80.0346 213.416 81.5546 213.506 83.0646C213.506 83.7446 213.566 84.4346 213.666 85.1546C213.726 85.8546 213.716 86.5346 213.646 87.2046C213.586 87.9246 212.746 88.5446 211.126 89.0446C209.496 89.5446 208.426 89.5046 207.926 88.9346C207.586 88.5746 207.686 88.1646 208.226 87.7046C208.766 87.2446 209.446 86.8846 210.256 86.6246C210.876 86.3946 211.496 86.2446 212.116 86.2146C212.766 86.1646 213.216 86.2746 213.466 86.5346C212.206 86.9346 210.306 87.5346 207.756 88.3246C207.736 88.6446 207.726 88.7146 207.736 88.5646C207.736 88.4046 207.736 88.2746 207.716 88.1546C207.716 88.0046 207.716 87.8446 207.676 87.6946C207.696 87.5346 207.676 87.3846 207.656 87.2346C207.636 86.7246 207.626 86.2246 207.596 85.7146C207.576 85.1846 207.546 84.6546 207.536 84.1446C207.436 82.5546 207.326 80.9746 207.226 79.3846C207.126 77.8046 207.016 76.2146 206.916 74.6246C206.716 71.5246 206.526 68.3946 206.306 65.2246C206.136 62.0446 205.806 58.9046 205.336 55.7846C205.256 55.3646 205.146 54.9946 205.016 54.6746C204.926 54.3746 204.726 54.0646 204.426 53.7346C204.426 53.6846 204.366 53.6546 204.296 53.6346C204.216 53.6546 204.206 53.6746 204.236 53.7046C204.156 53.6746 204.096 53.6746 204.066 53.6846C203.986 53.7046 203.936 53.7046 203.896 53.7146C204.076 53.6346 204.366 53.5246 204.776 53.3746L204.436 54.0846C204.246 54.5446 204.136 54.8046 204.116 54.8546C203.816 55.7646 203.586 56.6946 203.406 57.6246C203.196 58.5746 202.996 59.5046 202.826 60.4346C202.216 63.2446 201.676 66.0546 201.186 68.8546C200.656 71.6446 200.136 74.4546 199.616 77.2546C199.216 79.4846 198.826 81.7246 198.426 83.9946C198.036 86.2546 197.526 88.4946 196.936 90.6746H196.946Z" fill="#846DF2"/>
<path d="M222.824 48.1936C222.824 47.8436 223.104 47.5836 223.614 47.4036C223.834 47.3136 224.034 47.2736 224.224 47.2336C224.604 47.1636 225.014 47.1236 225.434 47.1136C226.304 47.1436 227.114 47.2936 227.864 47.5336C228.624 47.8136 229.014 48.2136 229.034 48.7236C229.084 52.7036 229.174 56.6936 229.314 60.6936C229.444 64.6736 229.564 68.6536 229.704 72.6636C229.764 74.4436 229.834 76.2636 229.904 78.0836C230.014 79.9036 230.104 81.7036 230.174 83.5036C230.204 84.0836 230.234 84.6536 230.264 85.1836C230.294 85.7636 230.324 86.3336 230.344 86.8836C230.364 86.9836 230.384 87.2836 230.394 87.7436C230.454 88.2436 230.454 88.3136 230.374 87.9836C230.154 87.8336 229.924 87.6736 229.704 87.5236C229.444 87.4136 229.204 87.2836 228.984 87.1336C228.204 87.2036 227.464 87.2636 226.724 87.3236C225.944 87.3536 225.184 87.4136 224.404 87.4836C227.144 84.1736 229.904 80.8736 232.684 77.5636C235.424 74.3136 238.174 71.0236 240.914 67.7336C241.204 67.4036 241.674 67.2036 242.324 67.1136C242.934 67.0736 243.594 67.1136 244.274 67.2036C245.124 67.3236 245.834 67.5536 246.394 67.8636C246.964 68.1836 247.104 68.5036 246.814 68.8336C244.074 72.1436 241.314 75.4436 238.534 78.7536C235.794 82.0436 233.054 85.3536 230.314 88.6536C229.834 89.2236 229.074 89.4536 228.054 89.3736C227.054 89.3236 226.274 89.2036 225.684 88.9936C224.814 88.7236 224.304 88.2136 224.164 87.4636C224.134 87.3136 224.124 87.1836 224.144 87.0636C224.114 86.0936 224.074 85.1336 224.014 84.2036C223.954 82.4636 223.894 80.6936 223.834 78.8936C223.734 77.1136 223.644 75.3336 223.574 73.5436C223.404 69.3536 223.264 65.1336 223.114 60.8936C222.984 56.6936 222.884 52.4636 222.824 48.2036V48.1936ZM240.694 45.8036C240.664 45.2536 241.044 44.8236 241.794 44.4836C242.544 44.1036 243.314 43.8536 244.124 43.7336C244.804 43.6436 245.424 43.6536 245.944 43.7536C246.384 43.8236 246.634 43.9936 246.684 44.2536L246.704 44.3736C246.754 48.3536 246.824 52.3236 246.904 56.3136C246.964 60.2936 247.034 64.2936 247.124 68.3036C247.214 71.0636 247.284 73.8536 247.304 76.6636C247.354 79.4336 247.454 82.2236 247.594 85.0136C247.654 85.5436 247.314 86.0036 246.554 86.3936C245.914 86.7036 245.234 86.9236 244.514 87.0636C244.434 87.0836 244.344 87.0936 244.224 87.1236C243.544 87.2136 242.924 87.2236 242.404 87.1236C241.874 87.0336 241.604 86.8136 241.574 86.4736C241.404 83.6836 241.294 80.9036 241.284 78.1236C241.224 75.3236 241.154 72.5336 241.104 69.7636C241.014 65.7536 240.914 61.7536 240.824 57.7736C240.774 53.7936 240.724 49.8236 240.674 45.8236L240.694 45.8036Z" fill="#846DF2"/>
<path d="M259.224 83.5613C259.194 83.9613 258.914 84.2413 258.394 84.3713C258.274 84.3913 258.164 84.4213 258.044 84.4413C257.584 84.5313 257.084 84.5313 256.524 84.4913C255.694 84.4113 254.894 84.2313 254.134 83.9413C253.494 83.6713 253.154 83.3313 253.114 82.9113C253.094 82.8313 253.094 82.7513 253.074 82.6713C253.364 78.6613 253.584 74.6513 253.714 70.6313C253.814 66.6113 253.944 62.6313 254.094 58.6513C254.154 56.9413 254.234 55.2613 254.304 53.6113C254.344 51.9113 254.434 50.2413 254.584 48.5613C254.684 47.2413 254.874 46.0013 255.154 44.8113C255.474 43.6213 256.164 42.5613 257.204 41.6613C258.324 40.7513 259.634 40.1513 261.154 39.8613C261.334 39.8313 261.524 39.7913 261.714 39.7613C263.514 39.5313 265.254 39.6313 266.944 40.0513C267.804 40.3213 268.654 40.6713 269.484 41.1013C270.274 41.5313 270.974 42.0513 271.594 42.6313C272.524 43.6013 273.104 44.7113 273.344 46.0013C273.424 46.4113 273.474 46.8613 273.474 47.3213C273.504 49.1513 273.254 50.9813 272.694 52.8113C272.374 53.7813 271.994 54.6913 271.574 55.5513C271.154 56.4513 270.744 57.2513 270.334 57.9513C269.704 58.9713 268.954 59.9913 268.094 61.0313C267.194 62.0513 266.204 62.8513 265.134 63.4013C263.904 64.1113 262.504 64.3913 260.954 64.2513C259.394 64.1213 258.004 63.7913 256.774 63.2813C256.354 63.1313 255.974 62.8813 255.634 62.5113C255.294 62.1813 255.384 61.8313 255.904 61.4613C256.424 61.0813 257.124 60.9613 258.014 61.1113C258.894 61.2113 259.614 61.3713 260.164 61.5813C259.934 61.6313 259.804 61.6413 259.754 61.6013C259.754 61.5613 259.834 61.5013 260.024 61.4313C260.194 61.3213 260.364 61.1913 260.534 61.0413C260.704 60.9313 260.884 60.8013 261.044 60.6513C261.244 60.4513 261.434 60.2613 261.634 60.0613C261.834 59.8813 262.024 59.6613 262.224 59.4213C262.644 58.9913 263.034 58.5513 263.384 58.0913C263.734 57.6313 264.044 57.1513 264.354 56.6813C265.074 55.5613 265.674 54.3513 266.134 53.0513C266.554 51.7913 266.864 50.5113 267.044 49.1813C267.164 48.5713 267.244 47.7613 267.284 46.7313C267.344 45.7513 267.204 44.8513 266.894 44.0413C266.724 43.6013 266.504 43.2413 266.214 42.9413C265.924 42.6513 265.554 42.4413 265.104 42.3313C264.324 42.1613 263.544 42.5213 262.774 43.3613C262.004 44.2613 261.504 45.0113 261.264 45.6513C260.774 46.9913 260.534 48.4613 260.524 50.0813C260.524 51.7313 260.494 53.2413 260.434 54.6213C260.384 56.1913 260.304 57.7813 260.224 59.3613C260.164 60.9313 260.114 62.5213 260.064 64.0913C259.964 67.3113 259.864 70.5713 259.734 73.8413C259.644 77.1013 259.484 80.3413 259.224 83.5513V83.5613Z" fill="#846DF2"/>
<path d="M289.175 45.1308C288.025 39.1008 286.465 32.9308 281.905 28.5108C276.145 22.9308 268.405 22.2608 260.875 23.4308C242.085 26.3508 223.445 29.5708 204.835 33.4308C155.265 43.7108 104.785 48.8808 55.2746 59.3508C49.2946 60.6208 41.5946 61.4708 36.5146 65.2208C27.3146 72.0208 33.8146 86.0008 34.3246 95.1308C34.9746 106.881 33.2846 118.141 37.7646 129.411C42.7446 141.931 61.2246 139.841 72.1146 138.701C87.8546 137.061 103.255 132.671 118.695 129.341C132.065 126.461 145.485 123.841 158.965 121.471C180.325 117.721 201.805 114.631 223.175 110.921C233.355 109.161 243.535 107.301 253.615 105.001C261.925 103.101 269.915 100.261 278.285 98.6908C284.775 97.4708 295.475 96.7408 295.835 88.3608C296.245 78.7508 293.805 68.7208 292.005 59.3508C291.095 54.6108 290.125 49.8708 289.175 45.1408C288.725 42.8808 281.065 41.2908 281.525 43.5808C283.425 53.0708 285.415 62.5508 286.855 72.1308C287.695 77.6808 291.005 88.6008 284.615 91.8108C277.225 95.5208 267.845 95.5108 259.975 98.0508C252.055 100.611 243.785 102.221 235.635 103.841C194.165 112.041 152.175 117.071 110.835 126.061C96.1346 129.261 81.4446 133.471 66.4346 134.901C62.9046 135.241 59.3446 135.431 55.7946 135.331C50.7746 135.201 46.6646 134.611 44.8346 129.331C42.9346 123.821 42.0246 118.161 41.9746 112.341C41.9446 107.871 42.2146 103.421 42.0746 98.9508C41.8846 92.8308 40.4046 87.2208 39.6146 81.2108C38.9546 76.1708 39.5446 71.0108 44.1846 68.0308C46.3446 66.6408 48.9946 66.0108 51.4446 65.3608C69.6446 60.4808 88.5846 57.8808 107.155 54.8808C130.195 51.1608 153.275 47.7608 176.255 43.7308C200.325 39.5108 224.115 33.9908 248.245 30.1008C252.875 29.3508 257.505 28.6208 262.135 27.9008C265.145 27.4308 269.485 26.0508 272.445 26.8108C278.855 28.4508 280.485 38.1208 281.525 43.5908C281.955 45.8508 289.615 47.4608 289.175 45.1508V45.1308Z" fill="#846DF2"/>
<path fill-rule="evenodd" clip-rule="evenodd" d="M353.526 219.093C352.006 210.543 354.806 202.833 347.486 201.033C340.176 199.233 335.896 203.364 334.656 197.604C333.416 191.843 331.506 180.144 317.236 166.744C302.966 153.334 286.116 151.544 286.116 151.544C286.116 151.544 278.966 146.103 266.236 145.753C253.496 145.403 236.806 149.923 226.766 153.973C216.726 158.023 207.436 166.264 202.946 173.074C198.446 179.894 196.656 189.633 196.656 189.633C196.656 189.633 189.766 193.753 183.466 210.943C177.176 228.133 185.116 255.403 185.116 255.403C185.116 255.403 180.106 257.884 181.976 262.674C183.846 267.464 185.326 270.443 184.136 272.023C182.946 273.603 178.396 284.014 182.666 287.383C186.936 290.764 190.386 295.673 204.316 293.153C204.316 293.153 204.696 286.254 207.616 282.584C209.086 280.744 214.586 280.563 214.586 280.563C213.396 276.583 212.806 276.174 213.736 273.604C214.666 271.034 231.526 267.154 237.606 267.044C243.686 266.934 258.056 267.174 267.586 263.074C277.116 258.974 302.626 251.313 310.416 248.824C318.206 246.334 345.646 241.513 353.866 236.953C362.086 232.403 372.216 228.653 371.976 224.163C371.736 219.663 368.726 216.894 364.676 218.184C360.626 219.464 353.526 219.063 353.526 219.063V219.093Z" fill="white"/>
<path d="M370.514 285.002C388.024 262.852 405.224 240.462 422.104 217.832C424.044 215.232 412.694 213.062 410.544 215.942C393.664 238.572 376.474 260.972 358.954 283.112C356.994 285.592 368.264 287.842 370.514 285.002Z" fill="white"/>
<path d="M436.815 194.292C446.475 178.012 457.025 162.282 468.425 147.172C469.875 145.252 465.455 144.152 464.385 143.972C462.395 143.632 458.325 143.312 456.875 145.232C445.475 160.342 434.925 176.072 425.265 192.352C423.455 195.392 435.045 197.282 436.815 194.292Z" fill="white"/>
<path d="M491.309 111.754C505.069 91.0337 518.829 70.3037 532.579 49.5837C534.679 46.4237 523.319 43.0637 521.489 45.8137C507.729 66.5337 493.969 87.2637 480.219 107.984C478.119 111.144 489.479 114.504 491.309 111.754Z" fill="white"/>
<path d="M552.268 23.6627C557.998 15.0127 563.728 6.36271 569.458 -2.28729C570.788 -4.28729 566.178 -5.04729 565.148 -5.11729C563.608 -5.20729 561.988 -5.16729 560.508 -4.71729C559.538 -4.42729 558.378 -4.06729 557.788 -3.17729C552.058 5.47271 546.328 14.1227 540.598 22.7727C539.268 24.7727 543.878 25.5327 544.908 25.6027C546.448 25.6927 548.068 25.6527 549.548 25.2027C550.518 24.9127 551.678 24.5527 552.268 23.6627Z" fill="white"/>
<path d="M378.986 310.522C376.936 308.622 408.106 275.112 411.226 271.552C422.856 258.262 434.496 244.962 446.126 231.672C469.396 205.082 492.666 178.502 515.936 151.912C529.106 136.862 542.276 121.812 555.446 106.762C557.406 104.522 546.286 102.202 543.876 104.962C495.366 160.392 446.846 215.822 398.336 271.252C391.536 279.032 384.726 286.802 377.926 294.582C374.726 298.242 370.626 301.892 368.026 306.012C366.526 308.402 366.356 310.532 368.466 312.492C370.806 314.662 382.356 313.652 378.986 310.522Z" fill="white"/>
<path d="M571.585 84.12C593.205 55.25 615.975 27.25 639.825 0.189963C642.205 -2.51004 631.215 -6.72004 628.945 -4.14004C605.085 22.92 582.325 50.92 560.705 79.79C558.435 82.82 569.595 86.78 571.585 84.12Z" fill="white"/>
<path d="M421.145 312.494C427.815 304.564 434.485 296.634 441.145 288.704C441.715 288.024 440.885 287.204 440.395 286.894C439.415 286.274 437.825 286.084 436.715 286.064C434.275 286.014 431.115 286.304 429.435 288.304C422.765 296.234 416.095 304.164 409.435 312.094C408.865 312.774 409.695 313.594 410.185 313.904C411.165 314.524 412.755 314.714 413.865 314.734C416.305 314.784 419.465 314.494 421.145 312.494Z" fill="white"/>
<path d="M456.726 271.381C468.476 258.981 480.376 246.721 492.436 234.621C494.096 232.961 490.666 230.991 489.436 230.421C488.026 229.771 486.516 229.271 484.966 229.111C484.086 229.021 482.556 228.871 481.866 229.561C469.816 241.671 457.916 253.921 446.156 266.321C444.546 268.021 447.886 269.931 449.156 270.521C450.566 271.171 452.076 271.671 453.626 271.831C454.486 271.921 456.066 272.081 456.726 271.381Z" fill="white"/>
<path d="M481.248 223.904C489.748 214.364 498.248 204.814 506.748 195.274C508.308 193.524 504.838 191.734 503.568 191.214C502.138 190.634 500.588 190.154 499.048 190.104C498.168 190.074 496.628 189.954 495.978 190.684C487.478 200.224 478.978 209.774 470.478 219.314C468.918 221.064 472.388 222.854 473.658 223.374C475.088 223.954 476.638 224.434 478.178 224.484C479.058 224.514 480.598 224.634 481.248 223.904Z" fill="white"/>
<path d="M509.836 222.602C521.796 208.852 534.876 196.112 548.946 184.532C551.556 182.382 541.146 177.172 538.406 179.432C524.336 191.012 511.256 203.752 499.296 217.502C497.776 219.252 500.926 221.082 502.276 221.712C503.626 222.342 505.186 222.872 506.746 223.042C507.576 223.132 509.236 223.312 509.846 222.612L509.836 222.602Z" fill="white"/>
<path d="M506.534 249.491C513.174 242.601 519.804 235.701 526.444 228.811C526.984 228.241 527.474 227.701 526.934 226.921C526.404 226.151 524.884 225.771 524.074 225.651C522.544 225.411 520.934 225.391 519.414 225.691C518.294 225.911 516.704 226.161 515.884 227.021C509.244 233.911 502.614 240.811 495.974 247.701C495.434 248.271 494.944 248.811 495.484 249.591C496.014 250.361 497.534 250.741 498.344 250.861C499.874 251.101 501.484 251.121 503.004 250.821C504.124 250.601 505.714 250.351 506.534 249.491Z" fill="white"/>
<path d="M472.806 283.293C478.136 278.003 483.456 272.723 488.786 267.433C489.406 266.813 488.846 265.953 488.366 265.523C487.506 264.743 485.976 264.273 484.886 264.063C483.376 263.763 481.766 263.593 480.236 263.843C479.196 264.013 478.106 264.233 477.336 265.003C472.006 270.293 466.686 275.573 461.356 280.863C460.736 281.483 461.296 282.343 461.776 282.773C462.636 283.553 464.166 284.023 465.256 284.233C466.766 284.533 468.376 284.703 469.906 284.453C470.946 284.283 472.036 284.063 472.806 283.293Z" fill="white"/>
<path d="M544.877 212.845C559.297 197.755 574.687 183.625 590.937 170.515C593.037 168.825 589.887 167.625 588.487 167.415C585.957 167.035 582.417 167.315 580.337 169.005C564.087 182.105 548.707 196.245 534.277 211.335C532.507 213.195 535.047 214.185 536.727 214.435C538.957 214.775 543.137 214.675 544.877 212.845Z" fill="white"/>
<path d="M571.496 160.063C577.946 153.513 584.396 146.963 590.856 140.413C591.476 139.783 590.726 138.893 590.256 138.553C589.326 137.863 587.766 137.533 586.656 137.423C584.236 137.183 581.056 137.203 579.216 139.063C572.766 145.613 566.316 152.163 559.856 158.713C559.236 159.343 559.986 160.233 560.456 160.573C561.386 161.263 562.946 161.593 564.056 161.703C566.476 161.943 569.656 161.923 571.496 160.063Z" fill="white"/>
<path d="M609.447 125.048C619.817 112.908 631.037 101.518 643.037 90.9876C644.837 89.4076 640.787 87.3976 639.757 87.0076C637.867 86.2976 633.977 85.0776 632.147 86.6776C620.147 97.2076 608.917 108.598 598.557 120.738C597.037 122.518 600.567 124.238 601.837 124.718C603.287 125.268 604.827 125.658 606.387 125.708C607.267 125.738 608.817 125.778 609.447 125.048Z" fill="white"/>
<path d="M572.245 124.685C585.035 109.665 598.835 95.5354 613.545 82.3954C615.355 80.7754 610.905 78.9654 609.975 78.6754C607.925 78.0354 604.205 77.2754 602.365 78.9154C587.655 92.0554 573.855 106.185 561.065 121.205C558.825 123.835 569.965 127.365 572.245 124.685Z" fill="white"/>
<path d="M523.504 177.506C534.404 166.376 545.304 155.256 556.194 144.126C558.594 141.676 547.714 137.436 545.244 139.966C534.344 151.096 523.444 162.216 512.554 173.346C510.154 175.796 521.034 180.036 523.504 177.506Z" fill="white"/>
<path d="M457.195 328.682C520.405 278.602 583.615 228.532 646.825 178.452C649.305 176.492 638.855 171.702 636.015 173.952C572.805 224.032 509.595 274.102 446.385 324.182C443.905 326.142 454.355 330.932 457.195 328.682Z" fill="white"/>
<path d="M478.577 344.114C530.347 308.794 583.527 275.564 637.957 244.504C640.287 243.174 637.567 241.524 636.187 240.974C633.927 240.084 630.127 239.604 627.887 240.884C573.457 271.944 520.277 305.174 468.507 340.494C464.727 343.074 475.897 345.944 478.587 344.114H478.577Z" fill="white"/>
<path d="M489.457 367.041C497.927 362.221 506.387 357.401 514.857 352.581C515.537 352.191 516.136 351.751 515.816 350.881C515.506 350.001 514.136 349.251 513.386 348.921C511.966 348.301 510.416 347.871 508.876 347.761C507.716 347.681 506.166 347.541 505.116 348.141C496.646 352.961 488.187 357.781 479.717 362.601C479.037 362.991 478.436 363.431 478.756 364.301C479.066 365.181 480.437 365.931 481.187 366.261C482.607 366.881 484.156 367.311 485.696 367.421C486.856 367.501 488.407 367.641 489.457 367.041Z" fill="white"/>
<path d="M537.118 339.403C545.538 333.833 554.588 329.373 564.118 326.053C566.618 325.183 564.248 322.983 562.948 322.283C560.728 321.083 557.308 319.953 554.768 320.843C544.738 324.343 535.148 329.113 526.278 334.973C525.548 335.453 525.958 336.423 526.348 336.933C527.058 337.853 528.478 338.583 529.508 338.993C531.638 339.833 534.988 340.823 537.108 339.413L537.118 339.403Z" fill="white"/>
<path d="M596.045 312.541C607.515 307.101 618.994 301.661 630.464 296.231C632.854 295.101 630.305 293.171 628.925 292.591C626.615 291.631 623.064 290.821 620.644 291.971C609.174 297.411 597.695 302.851 586.225 308.281C583.835 309.411 586.384 311.341 587.764 311.921C590.074 312.881 593.625 313.691 596.045 312.541Z" fill="white"/>
<path d="M499.817 384.192C517.347 373.022 536.197 364.262 555.037 355.592C557.087 354.652 557.297 353.212 555.137 352.182C552.887 351.102 548.927 350.852 546.607 351.922C527.127 360.882 507.587 369.892 489.467 381.432C487.197 382.872 490.157 384.422 491.527 384.802C493.977 385.472 497.557 385.622 499.807 384.192H499.817Z" fill="white"/>
<path d="M588.445 342.042C602.925 334.832 618.085 328.962 633.705 324.722C634.995 324.372 638.845 323.382 637.595 321.332C636.465 319.482 631.615 319.992 630.035 320.422C612.625 325.152 595.755 331.482 579.605 339.532C577.515 340.572 577.825 342.292 579.955 342.932C582.595 343.722 585.995 343.272 588.445 342.052V342.042Z" fill="white"/>
<path d="M510.638 400.794C551.868 381.814 597.208 372.714 640.978 361.574C642.838 361.104 644.688 359.744 642.908 358.124C641.078 356.464 636.658 357.314 634.608 357.834C589.968 369.194 543.928 378.614 501.878 397.974C499.588 399.034 500.208 400.504 502.118 401.384C504.488 402.474 508.358 401.834 510.638 400.794Z" fill="white"/>
<path d="M519.845 439.062C561.665 421.972 608.325 422.952 650.105 405.662C655.935 403.252 644.735 400.482 641.815 401.692C600.055 418.982 553.395 417.992 511.555 435.092C505.715 437.472 516.925 440.262 519.845 439.062Z" fill="white"/>
<path d="M531.108 457.012C541.448 454.322 551.787 451.632 562.127 448.942C563.237 448.652 567.457 447.382 565.957 445.482C564.537 443.692 560.187 444.232 558.387 444.702C548.047 447.392 537.707 450.082 527.367 452.772C526.257 453.062 522.038 454.332 523.538 456.232C524.958 458.022 529.308 457.482 531.108 457.012Z" fill="white"/>
<path d="M588.238 441.123C599.968 436.633 612.118 433.863 624.358 432.813C626.318 432.643 630.578 432.153 631.398 429.903C632.208 427.673 627.838 427.593 626.738 427.683C611.238 429.013 596.068 432.483 581.528 438.033C580.108 438.583 577.608 440.493 579.948 441.653C582.348 442.843 585.898 442.013 588.238 441.113V441.123Z" fill="white"/>
<path d="M560.318 469.544C575.578 464.734 591.138 460.934 606.918 458.264C608.468 458.004 611.288 457.034 609.398 455.184C607.618 453.454 603.558 453.134 601.258 453.524C584.638 456.344 568.228 460.254 552.148 465.324C549.968 466.014 549.788 467.634 551.818 468.724C554.158 469.984 557.758 470.354 560.318 469.554V469.544Z" fill="white"/>
<path d="M549.508 496.145C559.068 494.605 568.628 493.055 578.188 491.515C578.878 491.405 580.118 491.295 580.398 490.435C580.658 489.625 579.768 488.695 579.238 488.265C577.258 486.675 573.718 485.225 571.108 485.655C561.548 487.195 551.988 488.745 542.428 490.285C541.738 490.395 540.498 490.505 540.218 491.365C539.958 492.175 540.848 493.105 541.378 493.535C543.358 495.125 546.898 496.575 549.508 496.145Z" fill="white"/>
<path d="M601.646 486.622C606.296 485.882 610.956 485.432 615.656 485.112C616.096 485.092 616.026 485.092 615.436 485.112C615.716 485.102 615.986 485.092 616.266 485.082C616.906 485.062 617.556 485.042 618.196 485.022C619.306 484.992 620.406 484.982 621.516 484.992C623.916 484.992 626.306 485.072 628.696 485.202C630.106 485.282 634.736 484.982 634.746 482.832C634.756 480.622 629.976 480.442 628.726 480.372C618.626 479.822 608.446 480.342 598.466 481.942C597.336 482.122 592.966 482.792 594.226 484.882C595.386 486.802 599.816 486.912 601.636 486.622H601.646Z" fill="white"/>
<path d="M552.849 512.462C578.579 512.872 604.309 513.272 630.039 513.682C631.449 513.702 635.259 513.462 634.569 511.222C633.919 509.102 628.999 508.702 627.389 508.682C601.659 508.272 575.929 507.872 550.199 507.462C548.789 507.442 544.979 507.682 545.669 509.922C546.319 512.042 551.239 512.442 552.849 512.462Z" fill="white"/>
<path d="M567.367 563.134C589.927 565.484 612.487 567.834 635.037 570.184C636.907 570.374 641.397 570.714 642.497 568.644C643.597 566.564 639.537 565.714 638.337 565.594C615.777 563.244 593.217 560.894 570.667 558.544C568.797 558.354 564.307 558.014 563.207 560.084C562.107 562.164 566.167 563.014 567.367 563.134Z" fill="white"/>
<path d="M584.124 616.985C589.964 618.565 595.805 620.135 601.645 621.715C603.005 622.085 604.585 622.065 605.965 621.895C607.345 621.725 608.954 621.385 610.114 620.675C610.764 620.275 611.775 619.675 611.665 618.765C611.555 617.885 610.385 617.475 609.705 617.285C603.865 615.705 598.024 614.135 592.184 612.555C590.824 612.185 589.244 612.205 587.864 612.375C586.544 612.535 584.875 612.885 583.715 613.595C583.065 613.995 582.055 614.595 582.165 615.505C582.275 616.385 583.444 616.795 584.124 616.985Z" fill="white"/>
<path d="M588.696 642.611C589.166 642.721 589.626 642.831 590.086 642.941C591.196 643.201 588.846 642.601 590.236 642.981C591.096 643.221 591.956 643.471 592.816 643.741C594.416 644.241 595.986 644.821 597.546 645.411C598.056 645.611 597.986 645.591 597.356 645.331C597.526 645.401 597.686 645.471 597.856 645.541C598.246 645.701 598.626 645.871 599.006 646.041C599.766 646.381 600.526 646.731 601.286 647.101C602.896 647.881 604.476 648.731 606.026 649.631C607.186 650.301 608.916 650.591 610.216 650.701C611.536 650.811 613.246 650.821 614.526 650.361C615.246 650.111 616.356 649.731 616.436 648.811C616.516 647.911 615.446 647.321 614.826 646.961C607.826 642.891 600.186 640.051 592.306 638.251C590.866 637.921 589.116 637.871 587.646 638.091C586.816 638.221 585.326 638.521 584.756 639.291C583.316 641.251 587.716 642.391 588.696 642.611Z" fill="white"/>
<path d="M564.955 651.752C590.565 666.502 615.175 682.902 638.665 700.842C641.195 702.772 652.595 700.582 648.925 697.782C625.445 679.842 600.825 663.442 575.215 648.692C572.895 647.352 569.395 647.522 566.915 648.322C565.585 648.752 562.555 650.372 564.955 651.752Z" fill="white"/>
<path d="M-13.8939 284.595C-2.19393 283.415 9.54607 282.725 21.2961 282.605C24.2261 282.575 27.1561 282.575 30.0861 282.605C33.0061 282.635 35.4861 282.625 37.1461 285.365C39.6161 289.465 39.5961 295.585 40.3261 300.195C41.0561 304.805 42.7461 310.505 41.0861 315.085C39.4361 319.655 35.1861 319.814 31.0161 320.024C24.1561 320.364 17.2961 320.675 10.4261 320.895C3.01607 321.135 -5.05393 321.555 -12.1639 320.985C-13.6439 320.865 -16.5339 320.745 -17.5939 322.075C-18.5939 323.335 -17.2539 324.025 -15.9439 324.135C-7.79393 324.795 0.436073 324.455 8.59607 324.185C16.6961 323.925 24.7961 323.615 32.8861 323.145C37.7561 322.865 43.5661 322.045 47.0361 318.235C50.7061 314.195 49.7561 308.355 48.9761 303.445C48.0461 297.575 47.8761 290.765 45.5261 285.255C43.3061 280.065 38.1761 279.415 33.0961 279.325C17.3161 279.065 1.50607 279.805 -14.2039 281.375C-15.1439 281.465 -18.1939 281.895 -18.0539 283.355C-17.9139 284.815 -14.7239 284.665 -13.8939 284.575V284.595Z" fill="white"/>
<path d="M-13.9528 316.445C26.9472 316.485 67.8472 315.825 108.727 314.505C139.677 313.515 170.757 312.955 201.557 309.515C203.377 309.315 202.897 308.215 202.037 307.295C200.887 306.055 198.017 305.915 196.477 306.095C165.597 309.535 134.387 310.015 103.357 310.995C63.1372 312.265 22.9072 312.915 -17.3328 312.865C-18.7828 312.865 -19.8328 313.305 -19.2128 314.715C-18.6028 316.085 -15.1628 316.445 -13.9528 316.445Z" fill="white"/>
<path d="M-17.8038 292.803C15.1362 292.753 48.0762 293.023 81.0162 292.673C113.696 292.333 146.356 291.413 179.036 291.403C180.356 291.403 183.646 291.323 184.366 289.893C185.036 288.543 184.086 287.973 182.566 287.973C150.496 287.993 118.436 288.843 86.3662 289.213C52.8162 289.603 19.2662 289.313 -14.2838 289.373C-15.6038 289.373 -18.8938 289.453 -19.6138 290.883C-20.2838 292.233 -19.3338 292.803 -17.8138 292.803H-17.8038Z" fill="white"/>
<path d="M160.737 290.323C168.907 294.913 176.447 300.473 183.277 306.893C184.577 308.113 186.967 308.383 188.657 308.213C189.647 308.113 191.707 307.463 190.387 306.223C183.237 299.493 175.257 293.653 166.697 288.833C165.097 287.933 162.837 287.593 161.057 288.063C159.587 288.453 159.357 289.533 160.747 290.323H160.737Z" fill="white"/>
<path d="M133.478 293.192C142.258 297.872 150.308 303.752 157.428 310.702C158.628 311.872 160.988 311.622 162.468 311.292C163.048 311.162 166.208 310.152 165.048 309.022C157.678 301.832 149.298 295.682 140.208 290.842C138.628 289.992 136.298 290.272 134.668 290.842C133.768 291.162 131.858 292.322 133.468 293.182L133.478 293.192Z" fill="white"/>
<path d="M106.448 293.982C111.338 296.582 116.048 299.532 120.568 302.722C125.228 306.012 129.568 309.492 134.998 311.462C135.928 311.802 138.798 312.582 139.328 311.222C139.848 309.872 136.758 308.672 136.028 308.412C135.418 308.192 134.518 307.762 133.688 307.272C132.618 306.632 131.578 305.942 130.568 305.212C128.388 303.652 126.258 302.032 124.048 300.502C119.368 297.272 114.488 294.382 109.468 291.722C108.338 291.122 105.558 290.192 104.418 291.202C103.208 292.282 105.818 293.642 106.448 293.972V293.982Z" fill="white"/>
<path d="M73.0168 294.511C83.2268 300.261 93.1568 306.501 102.787 313.191C104.297 314.241 106.487 314.831 108.317 314.551C109.807 314.321 110.177 313.261 108.857 312.341C98.7668 305.331 88.3368 298.811 77.6268 292.781C76.2268 291.991 73.6868 291.311 72.1468 292.031C70.5168 292.781 72.1168 294.011 73.0268 294.511H73.0168Z" fill="white"/>
<path d="M42.1576 294.163C51.7076 300.013 61.2476 305.864 70.7976 311.704C72.3576 312.654 74.5776 312.684 76.3076 312.264C77.1776 312.054 79.3176 311.024 77.7476 310.054C68.1976 304.204 58.6576 298.354 49.1076 292.514C47.5476 291.564 45.3275 291.534 43.5975 291.954C42.7275 292.164 40.5876 293.193 42.1576 294.163Z" fill="white"/>
<path d="M6.74508 293.673C14.6951 300.003 22.6451 306.333 30.5951 312.653C31.9951 313.773 34.3351 313.923 36.0451 313.643C36.9951 313.483 39.0751 312.693 37.6451 311.553C29.6951 305.223 21.7451 298.893 13.7951 292.573C12.3951 291.453 10.0551 291.303 8.34508 291.583C7.39508 291.743 5.31508 292.533 6.74508 293.673Z" fill="white"/>
<path d="M11.2475 314.111C22.2075 307.441 33.2475 300.881 44.3375 294.431C45.8175 293.571 44.3675 292.461 43.3375 291.991C41.9675 291.361 39.2775 290.661 37.8275 291.511C26.7275 297.961 15.6975 304.521 4.73746 311.191C3.28746 312.071 4.67746 313.151 5.73746 313.631C7.07746 314.241 9.82746 314.981 11.2475 314.111Z" fill="white"/>
<path d="M47.9579 313.183C57.7579 306.463 67.5579 299.733 77.3579 293.013C78.8779 291.973 76.5779 291.063 75.7379 290.933C73.9479 290.653 71.8179 290.913 70.2979 291.953C60.4979 298.673 50.6979 305.403 40.8979 312.123C39.3779 313.163 41.6779 314.073 42.5179 314.203C44.3079 314.483 46.4379 314.223 47.9579 313.183Z" fill="white"/>
<path d="M79.9352 312.102C89.1252 306.102 97.1552 298.542 106.345 292.542C107.895 291.532 105.535 290.592 104.725 290.462C102.905 290.172 100.845 290.462 99.2852 291.482C90.0952 297.482 82.0653 305.042 72.8753 311.042C71.3253 312.052 73.6852 312.992 74.4952 313.122C76.3152 313.412 78.3752 313.122 79.9352 312.102Z" fill="white"/>
<path d="M101.235 312.484C112.095 306.774 122.945 301.064 133.805 295.364C135.345 294.554 136.895 293.744 138.435 292.924C139.805 292.204 139.685 291.164 138.255 290.654C136.605 290.074 134.135 290.294 132.585 291.114C121.725 296.824 110.875 302.534 100.015 308.234C98.4749 309.044 96.9249 309.854 95.3849 310.674C94.0149 311.394 94.1349 312.434 95.5649 312.944C97.2149 313.524 99.6849 313.304 101.235 312.484Z" fill="white"/>
<path d="M135.368 312.105C145.168 305.745 154.968 299.375 164.768 293.015C166.318 292.005 163.948 291.065 163.148 290.935C161.318 290.645 159.268 290.935 157.708 291.955C147.908 298.315 138.108 304.685 128.308 311.045C126.758 312.055 129.128 312.995 129.928 313.125C131.758 313.415 133.808 313.125 135.368 312.105Z" fill="white"/>
<path d="M158.557 311.782C168.677 305.652 178.797 299.522 188.927 293.392C190.187 292.632 190.277 291.622 188.747 291.122C187.217 290.622 184.557 290.682 183.077 291.582C172.957 297.712 162.837 303.842 152.707 309.972C151.447 310.732 151.357 311.742 152.887 312.242C154.487 312.762 157.077 312.682 158.557 311.782Z" fill="white"/>
<path d="M20.2182 294.163C53.8882 272.433 86.0882 248.523 116.588 222.523C118.768 220.663 111.158 220.283 109.498 221.693C79.3682 247.383 47.5782 271.063 14.3082 292.543C10.7782 294.823 18.4482 295.303 20.2182 294.163Z" fill="white"/>
<path fill-rule="evenodd" clip-rule="evenodd" d="M105.815 220.714L105.465 216.824L116.085 216.484H126.805L126.495 220.714H105.815Z" fill="white"/>
<path d="M109.785 221.346C109.665 220.046 109.555 218.756 109.435 217.456C108.705 217.806 107.975 218.166 107.245 218.516C110.345 218.416 113.445 218.326 116.555 218.226C116.985 218.216 117.415 218.206 117.845 218.186C115.895 218.286 117.285 218.186 117.785 218.186H127.605C126.005 217.406 124.415 216.626 122.815 215.846C122.715 217.256 122.615 218.666 122.515 220.066C123.565 219.706 124.625 219.356 125.675 218.996H104.985C104.225 218.996 101.275 219.006 101.895 220.506C102.465 221.896 105.375 222.396 106.605 222.396H127.295C127.965 222.396 130.375 222.476 130.455 221.326C130.555 219.916 130.655 218.506 130.755 217.106C130.875 215.366 127.005 214.766 125.965 214.766C120.005 214.766 114.065 214.786 108.115 214.966C106.625 215.016 105.135 215.056 103.645 215.106C103.195 215.116 101.385 215.346 101.455 216.166C101.575 217.466 101.685 218.756 101.805 220.056C102.035 222.626 109.915 223.176 109.755 221.326L109.785 221.346Z" fill="white"/>
<path fill-rule="evenodd" clip-rule="evenodd" d="M109.64 226.337L109.43 221.817L115.84 221.438H122.31L122.13 226.337H109.64Z" fill="white"/>
<path d="M113.608 226.965C113.538 225.455 113.468 223.955 113.398 222.445C112.668 222.795 111.938 223.155 111.208 223.505C113.078 223.395 114.958 223.285 116.828 223.165C117.088 223.145 117.348 223.135 117.608 223.115C117.708 223.115 116.238 223.115 116.758 223.115C116.898 223.115 117.038 223.115 117.188 223.115H123.118C121.518 222.335 119.928 221.555 118.328 220.775C118.268 222.405 118.208 224.045 118.148 225.675C119.198 225.315 120.258 224.965 121.308 224.605H108.818C108.038 224.605 107.058 224.575 106.328 224.955C105.908 225.175 105.468 225.595 105.728 226.115C106.038 226.735 106.798 227.125 107.398 227.355C108.348 227.725 109.408 228.005 110.438 228.005H122.928C123.668 228.005 124.378 228.005 125.088 227.765C125.438 227.655 126.078 227.405 126.098 226.935C126.158 225.305 126.218 223.665 126.278 222.035C126.308 221.255 125.508 220.835 124.908 220.535C123.878 220.025 122.648 219.695 121.488 219.695H115.848C113.998 219.695 112.168 219.815 110.328 219.925C109.428 219.975 108.528 220.035 107.628 220.085C107.148 220.115 105.398 220.315 105.438 221.145C105.508 222.655 105.578 224.155 105.648 225.665C105.718 227.165 108.208 227.725 109.368 227.885C110.298 228.015 111.328 228.125 112.248 227.865C112.658 227.755 113.618 227.505 113.588 226.925L113.608 226.965Z" fill="white"/>
<path d="M120.569 221.361C130.529 227.331 140.639 233.021 150.559 239.071C160.079 244.881 169.709 250.831 180.099 254.981C181.719 255.631 184.249 255.461 185.779 254.641C187.169 253.891 187.119 252.961 185.639 252.371C175.429 248.291 165.959 242.261 156.619 236.551C146.959 230.651 137.109 225.131 127.409 219.321C125.889 218.411 123.509 218.551 121.879 219.081C120.969 219.371 118.999 220.421 120.569 221.371V221.361Z" fill="white"/>
<path d="M117.736 221.972C126.366 231.492 136.226 239.872 146.386 247.702C156.646 255.622 167.376 262.992 178.656 269.392C180.246 270.292 182.386 270.972 184.226 270.552C185.586 270.242 186.166 269.162 184.686 268.322C173.696 262.092 163.236 254.932 153.216 247.252C143.146 239.532 133.406 231.212 124.866 221.802C123.686 220.502 121.266 220.042 119.596 220.112C118.596 220.162 116.516 220.632 117.736 221.972Z" fill="white"/>
<path d="M44.6056 293.024C72.4856 274.934 96.5156 251.294 115.006 223.674C116.266 221.794 108.616 220.414 107.306 222.374C89.0156 249.704 65.3456 273.094 37.7656 291.004C36.2656 291.974 38.1356 292.974 39.0856 293.284C40.6256 293.794 43.1656 293.964 44.6156 293.024H44.6056Z" fill="white"/>
<path d="M116.346 224.662C117.606 231.092 121.796 237.532 124.646 243.402C126.306 246.822 127.986 250.242 129.686 253.642C130.536 255.342 131.396 257.042 132.256 258.732C133.186 260.562 135.186 263.092 135.606 265.072C135.946 266.722 135.606 268.802 135.606 270.472V420.272C135.606 422.582 143.656 422.742 143.656 420.482V273.312C143.656 270.862 144.146 267.822 143.656 265.402C143.376 264.032 142.406 262.692 141.776 261.452C139.746 257.502 137.746 253.542 135.776 249.572C133.806 245.602 131.866 241.602 129.966 237.592C128.066 233.602 125.266 229.222 124.406 224.862C123.916 222.362 115.996 222.782 116.356 224.652L116.346 224.662Z" fill="white"/>
<path d="M110.127 224.661C109.047 230.151 105.357 235.811 102.947 240.831C100.477 245.971 97.9469 251.091 95.3669 256.181C93.8069 259.261 91.2669 262.491 90.8669 265.951C90.4369 269.661 90.8669 273.681 90.8669 277.401V497.161C90.8669 499.471 98.9169 499.631 98.9169 497.371V282.281C98.9169 277.191 98.5569 271.961 98.9169 266.891C99.1269 263.871 100.807 261.761 102.247 258.931C105.267 253.001 108.217 247.031 111.097 241.031C113.537 235.951 117.087 230.431 118.177 224.871C118.557 222.921 110.617 222.191 110.127 224.661Z" fill="white"/>
<path d="M121.198 461.813C121.198 434.883 121.198 407.963 121.198 381.033C121.198 338.043 121.198 295.063 121.198 252.073C121.198 242.123 121.058 232.163 121.208 222.213C121.248 219.923 113.198 219.723 113.158 222.003C112.738 249.153 113.148 276.343 113.148 303.493C113.148 346.413 113.148 389.333 113.148 432.253C113.148 442.033 113.148 451.823 113.148 461.603C113.148 463.913 121.198 464.073 121.198 461.813Z" fill="white"/>
<path d="M96.2161 273.956C98.2761 273.706 99.4961 272.386 100.876 271.016C102.696 269.206 104.476 267.356 106.256 265.506C110.316 261.276 114.326 257.006 118.326 252.726C119.246 251.746 120.156 250.766 121.066 249.786C121.466 249.356 120.896 248.776 120.596 248.566C119.946 248.146 118.896 247.986 118.156 247.956C116.486 247.896 114.476 248.066 113.276 249.356C107.066 256.026 101.266 262.286 94.8361 268.776C94.1361 269.476 93.4461 270.176 92.7261 270.856C92.4961 271.076 92.2561 271.286 92.0161 271.506C91.9461 271.576 91.8361 271.626 91.7761 271.706C91.7661 271.716 91.7161 271.736 91.7061 271.756C91.9061 271.416 93.9361 270.956 93.9161 270.966C93.0861 271.066 90.3961 271.776 91.2161 273.096C92.0461 274.416 95.0161 274.086 96.2261 273.946L96.2161 273.956Z" fill="white"/>
<path d="M99.9645 293.103C105.954 288.243 111.954 283.383 117.944 278.523C118.804 277.823 119.664 277.123 120.524 276.433C121.894 275.323 119.954 274.473 118.964 274.313C117.324 274.043 114.884 274.073 113.494 275.193C107.504 280.053 101.504 284.913 95.5145 289.773C94.6545 290.473 93.7945 291.173 92.9345 291.863C91.5645 292.973 93.5045 293.823 94.4945 293.983C96.1345 294.253 98.5745 294.223 99.9645 293.103Z" fill="white"/>
<path d="M123.238 330.251C129.228 325.391 135.228 320.531 141.218 315.671C142.078 314.971 142.938 314.272 143.798 313.582C145.168 312.472 143.228 311.621 142.238 311.461C140.598 311.191 138.158 311.221 136.768 312.341C130.778 317.201 124.778 322.061 118.788 326.921C117.928 327.621 117.068 328.321 116.208 329.011C114.838 330.121 116.778 330.971 117.768 331.131C119.408 331.401 121.848 331.371 123.238 330.251Z" fill="white"/>
<path d="M141.606 271.571C135.516 263.911 128.906 256.491 121.576 250.001C120.256 248.831 117.786 248.301 116.076 248.541C115.576 248.611 114.796 248.761 114.646 249.341C114.486 249.931 115.136 250.421 115.496 250.741C119.876 254.621 124.266 259.381 128.276 263.971C130.396 266.391 132.476 268.841 134.476 271.361C135.556 272.721 137.996 273.331 139.646 273.331C140.666 273.331 142.736 272.991 141.606 271.571Z" fill="white"/>
<path d="M139.887 289.213C139.737 289.113 139.607 288.973 139.457 288.883C139.447 288.883 140.047 289.453 139.647 289.053C139.517 288.923 139.387 288.803 139.267 288.673C138.697 288.093 138.147 287.483 137.607 286.873C136.067 285.143 134.587 283.353 133.117 281.573C130.057 277.863 127.067 274.103 124.087 270.333C123.427 269.493 122.757 268.653 122.097 267.803C121.017 266.413 118.587 265.873 116.927 265.833C115.887 265.813 113.867 266.183 114.967 267.593C119.897 273.913 124.847 280.253 130.137 286.283C131.227 287.523 132.397 289.073 133.797 289.973C135.377 290.983 137.397 291.693 139.297 291.433C140.707 291.243 141.277 290.123 139.877 289.233L139.887 289.213Z" fill="white"/>
<path d="M119.436 328.143C114.456 323.613 109.486 319.083 104.506 314.553C103.796 313.903 103.076 313.253 102.366 312.603C101.006 311.363 99.046 310.633 97.196 310.633C96.556 310.633 95.656 310.613 95.166 311.093C94.786 311.453 94.846 312.043 95.236 312.393C100.216 316.923 105.186 321.453 110.166 325.983C110.876 326.633 111.596 327.283 112.306 327.933C113.666 329.173 115.626 329.903 117.476 329.903C118.116 329.903 119.016 329.923 119.506 329.443C119.886 329.083 119.826 328.493 119.436 328.143Z" fill="white"/>
<path d="M141.606 331.075C136.276 325.685 130.946 320.305 125.616 314.915C124.846 314.145 124.086 313.365 123.316 312.595C122.036 311.305 119.936 310.625 118.146 310.625C117.296 310.625 114.866 311.045 116.186 312.385C121.516 317.775 126.846 323.155 132.176 328.545C132.946 329.315 133.706 330.095 134.476 330.865C135.756 332.155 137.856 332.835 139.646 332.835C140.496 332.835 142.926 332.415 141.606 331.075Z" fill="white"/>
<path d="M120.689 354.034C127.249 348.534 133.809 343.044 140.379 337.544C141.299 336.774 142.229 335.994 143.149 335.224C144.489 334.104 142.599 333.264 141.589 333.104C139.969 332.844 137.479 332.854 136.119 333.984C129.559 339.484 122.999 344.974 116.429 350.474C115.509 351.244 114.579 352.024 113.659 352.794C112.319 353.914 114.209 354.754 115.219 354.914C116.839 355.174 119.329 355.164 120.689 354.034Z" fill="white"/>
<path d="M120.475 346.864C114.385 341.014 108.285 335.174 102.195 329.324C101.325 328.484 100.455 327.654 99.5851 326.814C98.2651 325.544 96.2351 324.844 94.4151 324.844C93.6051 324.844 91.0851 325.294 92.4551 326.604C98.5451 332.454 104.645 338.294 110.735 344.144C111.605 344.984 112.475 345.814 113.345 346.654C114.665 347.924 116.695 348.624 118.515 348.624C119.325 348.624 121.845 348.174 120.475 346.864Z" fill="white"/>
<path d="M120.689 375.502C127.249 370.002 133.809 364.512 140.379 359.012C141.299 358.242 142.229 357.462 143.149 356.692C144.489 355.572 142.599 354.732 141.589 354.572C139.969 354.312 137.479 354.322 136.119 355.452C129.559 360.952 122.999 366.442 116.429 371.942C115.509 372.712 114.579 373.492 113.659 374.262C112.319 375.382 114.209 376.222 115.219 376.382C116.839 376.642 119.329 376.632 120.689 375.502Z" fill="white"/>
<path d="M120.475 368.333C114.385 362.483 108.285 356.643 102.195 350.793C101.325 349.953 100.455 349.123 99.5851 348.283C98.2651 347.013 96.2351 346.312 94.4151 346.312C93.6051 346.312 91.0851 346.763 92.4551 348.073C98.5451 353.923 104.645 359.763 110.735 365.613C111.605 366.453 112.475 367.282 113.345 368.122C114.665 369.392 116.695 370.092 118.515 370.092C119.325 370.092 121.845 369.643 120.475 368.333Z" fill="white"/>
<path d="M143.196 376.234C136.996 369.584 130.806 362.944 124.606 356.294C123.746 355.364 122.876 354.444 122.016 353.514C120.776 352.184 118.616 351.584 116.846 351.544C115.946 351.524 113.626 351.954 114.886 353.304C121.086 359.954 127.276 366.594 133.476 373.244C134.336 374.174 135.206 375.094 136.066 376.024C137.306 377.354 139.466 377.954 141.236 377.994C142.136 378.014 144.456 377.584 143.196 376.234Z" fill="white"/>
<path d="M120.689 395.553C127.249 390.053 133.809 384.563 140.379 379.063C141.299 378.293 142.229 377.513 143.149 376.743C144.489 375.623 142.599 374.783 141.589 374.623C139.969 374.363 137.479 374.373 136.119 375.503C129.559 381.003 122.999 386.493 116.429 391.993C115.509 392.763 114.579 393.543 113.659 394.313C112.319 395.433 114.209 396.273 115.219 396.433C116.839 396.693 119.329 396.683 120.689 395.553Z" fill="white"/>
<path d="M99.6265 409.013C105.537 404.063 111.447 399.113 117.357 394.173C118.187 393.473 119.017 392.783 119.847 392.083C121.187 390.963 119.297 390.123 118.287 389.963C116.667 389.703 114.177 389.713 112.817 390.843C106.907 395.793 100.997 400.743 95.0865 405.683C94.2565 406.383 93.4265 407.073 92.5965 407.773C91.2565 408.893 93.1465 409.733 94.1565 409.893C95.7765 410.153 98.2665 410.143 99.6265 409.013Z" fill="white"/>
<path d="M100.166 365.704C106.076 360.754 111.986 355.804 117.896 350.864C118.726 350.164 119.556 349.474 120.386 348.774C121.726 347.654 119.836 346.814 118.826 346.654C117.206 346.394 114.716 346.404 113.356 347.534C107.446 352.484 101.536 357.434 95.6256 362.374C94.7956 363.074 93.9656 363.764 93.1356 364.464C91.7956 365.584 93.6856 366.424 94.6956 366.584C96.3156 366.844 98.8056 366.834 100.166 365.704Z" fill="white"/>
<path d="M120.475 388.383C114.385 382.533 108.285 376.693 102.195 370.843C101.325 370.003 100.455 369.173 99.5851 368.333C98.2651 367.063 96.2351 366.363 94.4151 366.363C93.6051 366.363 91.0851 366.813 92.4551 368.123C98.5451 373.973 104.645 379.813 110.735 385.663C111.605 386.503 112.475 387.333 113.345 388.173C114.665 389.443 116.695 390.143 118.515 390.143C119.325 390.143 121.845 389.693 120.475 388.383Z" fill="white"/>
<path d="M120.689 416.913C127.249 411.413 133.809 405.923 140.379 400.423C141.299 399.653 142.229 398.873 143.149 398.103C144.489 396.983 142.599 396.143 141.589 395.983C139.969 395.723 137.479 395.733 136.119 396.863C129.559 402.363 122.999 407.853 116.429 413.353C115.509 414.123 114.579 414.903 113.659 415.673C112.319 416.793 114.209 417.633 115.219 417.793C116.839 418.053 119.329 418.043 120.689 416.913Z" fill="white"/>
<path d="M100.167 430.402C105.917 425.802 111.677 421.202 117.427 416.592C118.247 415.942 119.057 415.292 119.877 414.632C121.257 413.532 119.297 412.672 118.317 412.512C116.667 412.242 114.247 412.272 112.847 413.392C107.097 417.992 101.337 422.592 95.5865 427.202C94.7665 427.852 93.9565 428.502 93.1365 429.162C91.7565 430.262 93.7165 431.122 94.6965 431.282C96.3465 431.552 98.7665 431.522 100.167 430.402Z" fill="white"/>
<path d="M100.605 462.62C106.095 457.71 111.585 452.8 117.085 447.89C117.865 447.19 118.645 446.5 119.425 445.8C120.715 444.65 118.925 443.85 117.865 443.68C116.295 443.43 113.695 443.4 112.395 444.56C106.905 449.47 101.415 454.38 95.9146 459.29C95.1346 459.99 94.3546 460.68 93.5746 461.38C92.2846 462.53 94.0746 463.33 95.1346 463.5C96.7046 463.75 99.3046 463.78 100.605 462.62Z" fill="white"/>
<path d="M120.475 409.743C114.385 403.893 108.285 398.053 102.195 392.203C101.325 391.363 100.455 390.533 99.5851 389.693C98.2651 388.423 96.2351 387.723 94.4151 387.723C93.6051 387.723 91.0851 388.173 92.4551 389.483C98.5451 395.333 104.645 401.173 110.735 407.023C111.605 407.863 112.475 408.693 113.345 409.533C114.665 410.803 116.695 411.503 118.515 411.503C119.325 411.503 121.845 411.053 120.475 409.743Z" fill="white"/>
<path d="M140.748 416.393C135.278 409.623 129.808 402.843 124.348 396.073C123.578 395.113 122.798 394.153 122.028 393.193C120.918 391.813 118.538 391.263 116.858 391.223C115.838 391.203 113.768 391.583 114.898 392.983C120.368 399.753 125.838 406.533 131.298 413.303C132.068 414.263 132.848 415.223 133.618 416.183C134.728 417.563 137.108 418.113 138.788 418.153C139.808 418.173 141.878 417.793 140.748 416.393Z" fill="white"/>
<path d="M120.689 435.881C127.249 430.381 133.809 424.891 140.379 419.391C141.299 418.621 142.229 417.841 143.149 417.071C144.489 415.951 142.599 415.111 141.589 414.951C139.969 414.691 137.479 414.701 136.119 415.831C129.559 421.331 122.999 426.821 116.429 432.321C115.509 433.091 114.579 433.871 113.659 434.641C112.319 435.761 114.209 436.601 115.219 436.761C116.839 437.021 119.329 437.011 120.689 435.881Z" fill="white"/>
<path d="M98.7476 449.85C105.308 444.35 111.868 438.86 118.438 433.36C119.358 432.59 120.288 431.81 121.208 431.04C122.548 429.92 120.658 429.08 119.648 428.92C118.028 428.66 115.538 428.67 114.178 429.8C107.618 435.3 101.058 440.79 94.4876 446.29C93.5676 447.06 92.6376 447.84 91.7176 448.61C90.3776 449.73 92.2676 450.57 93.2776 450.73C94.8976 450.99 97.3876 450.98 98.7476 449.85Z" fill="white"/>
<path d="M120.475 431.102C114.385 425.252 108.285 419.412 102.195 413.562C101.325 412.722 100.455 411.892 99.5851 411.052C98.2651 409.782 96.2351 409.082 94.4151 409.082C93.6051 409.082 91.0851 409.532 92.4551 410.842C98.5451 416.692 104.645 422.532 110.735 428.382C111.605 429.222 112.475 430.052 113.345 430.892C114.665 432.162 116.695 432.862 118.515 432.862C119.325 432.862 121.845 432.412 120.475 431.102Z" fill="white"/>
<path d="M117.716 466.063C112.096 460.673 106.486 455.283 100.866 449.893C100.066 449.123 99.2562 448.353 98.4562 447.583C97.1362 446.313 95.1062 445.613 93.2862 445.613C92.4762 445.613 89.9562 446.063 91.3262 447.373C96.9462 452.763 102.556 458.153 108.176 463.543C108.976 464.313 109.786 465.083 110.586 465.853C111.906 467.123 113.936 467.823 115.756 467.823C116.566 467.823 119.086 467.373 117.716 466.063Z" fill="white"/>
<path d="M27.5276 368.623C27.2776 355.323 27.0276 342.013 26.7776 328.713C26.7376 326.803 26.7076 324.883 26.6676 322.973C26.6376 321.113 20.6576 320.643 20.6876 322.173C20.9376 335.473 21.1876 348.783 21.4376 362.083C21.4776 363.993 21.5076 365.913 21.5476 367.823C21.5776 369.683 27.5576 370.153 27.5276 368.623Z" fill="white"/>
<path d="M75.4964 527.723C75.8864 482.923 76.2764 438.113 76.6663 393.313C76.7163 387.073 76.7764 380.843 76.8264 374.603C76.8264 373.753 75.4164 373.283 74.7864 373.153C70.3564 372.263 61.0564 370.673 57.6864 374.793C56.5664 376.153 56.9564 377.653 56.9564 379.403V513.133C56.9564 514.973 62.9364 515.493 62.9364 513.933V388.053C62.9364 384.813 62.5964 381.353 62.9364 378.123C62.9764 377.693 62.7564 376.933 62.9364 376.543C63.8364 374.633 68.0464 374.803 69.7064 374.883C70.5164 374.923 73.5264 375.373 72.8864 375.243C72.2064 374.763 71.5264 374.283 70.8464 373.793C70.4564 418.593 70.0664 463.403 69.6764 508.203C69.6264 514.443 69.5664 520.673 69.5164 526.913C69.4964 528.743 75.4864 529.283 75.4964 527.713V527.723Z" fill="white"/>
<path d="M31.1978 517.633C30.9378 487.653 30.6778 457.663 30.4178 427.683C30.3778 423.413 30.3478 419.143 30.3078 414.863C30.3078 414.013 28.9078 413.543 28.2678 413.413C24.6278 412.693 18.3078 411.613 15.1978 414.303C13.8178 415.493 14.0878 416.053 14.0878 417.773V516.743C14.0878 518.583 20.0678 519.103 20.0678 517.543V426.053C20.0678 423.423 19.7678 420.573 20.0678 417.963C20.1078 417.603 19.8778 416.713 20.0678 416.403C21.1378 414.663 25.6678 415.373 26.3678 415.513C25.6878 415.033 25.0078 414.553 24.3278 414.063C24.5878 444.043 24.8478 474.033 25.1078 504.013C25.1478 508.283 25.1778 512.553 25.2178 516.833C25.2378 518.683 31.2178 519.183 31.1978 517.633Z" fill="white"/>
<path fill-rule="evenodd" clip-rule="evenodd" d="M40.207 558.295V474.105C42.177 471.485 49.017 472.895 49.017 472.895L49.757 556.535L40.217 558.285L40.207 558.295Z" fill="white"/>
<path d="M43.197 558.692V482.402C43.197 480.262 42.957 477.962 43.197 475.832C43.227 475.522 43.047 474.882 43.197 474.612C43.617 473.852 45.107 473.832 45.887 473.802C46.407 473.782 48.757 474.092 48.057 473.952C47.377 473.472 46.697 472.992 46.017 472.502C46.227 496.892 46.447 521.292 46.657 545.682C46.687 549.172 46.717 552.652 46.747 556.142L47.737 555.412C44.557 555.992 41.377 556.582 38.197 557.162C36.817 557.412 37.307 558.212 37.967 558.852C38.867 559.722 41.077 559.622 42.197 559.422C45.377 558.842 48.557 558.252 51.737 557.672C52.007 557.622 52.727 557.342 52.727 556.942C52.517 532.552 52.297 508.152 52.087 483.762C52.057 480.272 52.027 476.792 51.997 473.302C51.997 472.452 50.597 471.982 49.957 471.852C46.007 471.082 37.207 469.812 37.207 475.542V557.892C37.207 559.732 43.187 560.252 43.187 558.692H43.197Z" fill="white"/>
<path d="M178.477 361.555C178.227 350.355 177.977 339.155 177.727 327.945C177.687 326.335 177.657 324.715 177.617 323.105C177.557 320.625 169.597 320.005 169.637 322.035C169.887 333.235 170.137 344.435 170.387 355.645C170.427 357.255 170.457 358.875 170.497 360.485C170.557 362.965 178.517 363.585 178.477 361.555Z" fill="white"/>
<path d="M162.926 377.309C162.676 366.109 162.426 354.909 162.176 343.699C162.136 342.089 162.106 340.469 162.066 338.859C162.006 336.379 154.046 335.759 154.086 337.789C154.336 348.989 154.586 360.189 154.836 371.399C154.876 373.009 154.906 374.629 154.946 376.239C155.006 378.719 162.966 379.339 162.926 377.309Z" fill="white"/>
<path d="M16.5661 385.932C16.3261 367.592 16.0761 349.242 15.8361 330.902C15.7961 328.262 15.7661 325.622 15.7261 322.982C15.7061 321.132 9.72614 320.642 9.74614 322.182C9.98614 340.522 10.2361 358.872 10.4761 377.212C10.5161 379.852 10.5461 382.492 10.5861 385.132C10.6061 386.982 16.5861 387.472 16.5661 385.932Z" fill="white"/>
<path d="M9.79594 396.191C13.7959 390.621 17.3159 384.901 20.6959 378.951C22.9959 374.891 25.4959 370.871 27.5259 366.671C25.6459 366.571 23.7559 366.471 21.8759 366.381C28.4459 374.531 35.0159 382.691 41.5959 390.841C42.5459 392.021 43.4959 393.201 44.4459 394.371L44.1359 393.701V401.261C44.9259 400.991 45.7159 400.731 46.5059 400.461H6.57594C7.77594 401.051 8.96594 401.631 10.1659 402.221C10.1059 400.111 10.0359 398.001 9.97594 395.891C9.91594 394.001 3.96594 393.451 4.01594 394.931C4.07594 397.041 4.14594 399.151 4.20594 401.261C4.24594 402.581 6.88594 403.021 7.79594 403.021H47.7259C48.1759 403.021 50.0959 403.071 50.0959 402.221V397.851C50.0959 396.641 50.4059 395.031 49.7759 393.981C48.8359 392.411 47.3559 390.981 46.2159 389.561C41.2359 383.381 36.2559 377.211 31.2859 371.031C29.9359 369.351 28.5859 367.671 27.2259 366.001C26.3259 364.881 22.3259 364.161 21.5759 365.711C19.5859 369.831 17.1259 373.761 14.8759 377.731C11.5659 383.571 8.09594 389.171 4.17594 394.631C3.13594 396.081 8.81594 397.591 9.81594 396.191H9.79594Z" fill="white"/>
<path fill-rule="evenodd" clip-rule="evenodd" d="M45.7044 393.652C36.7644 393.652 7.98438 394.392 7.98438 394.392V400.382L45.6244 399.922L45.6944 393.652H45.7044Z" fill="white"/>
<path d="M45.0661 392.392C32.4961 392.392 19.9161 392.802 7.3461 393.132C6.8761 393.142 4.99609 393.142 4.99609 393.992V399.982C4.99609 401.302 7.7961 401.642 8.6361 401.632C19.6261 401.502 30.6261 401.362 41.6161 401.232C43.1661 401.212 44.7261 401.192 46.2761 401.172C46.7561 401.172 48.6161 401.162 48.6261 400.312C48.6461 398.222 48.6761 396.132 48.6961 394.042C48.7161 392.212 42.7261 391.672 42.7161 393.252C42.6961 395.342 42.6661 397.432 42.6461 399.522C43.4261 399.232 44.2161 398.942 44.9961 398.662C34.0061 398.792 23.0061 398.932 12.0161 399.062C10.4661 399.082 8.90609 399.102 7.35609 399.122C8.56609 399.672 9.77609 400.222 10.9961 400.772V394.782C10.2161 395.072 9.4261 395.362 8.6461 395.642C21.2161 395.312 33.7861 394.892 46.3661 394.902C47.0661 394.902 48.9861 394.842 48.6461 393.702C48.3461 392.652 45.8761 392.382 45.0761 392.382L45.0661 392.392Z" fill="white"/>
<path d="M34.3653 396.592C32.5153 388.612 30.6653 380.632 28.8053 372.652C28.5453 371.512 28.2753 370.382 28.0153 369.242C27.6053 367.492 21.6753 368.522 22.0353 370.102C23.8853 378.082 25.7353 386.062 27.5953 394.042C27.8553 395.182 28.1253 396.312 28.3853 397.452C28.7953 399.202 34.7253 398.172 34.3653 396.592Z" fill="white"/>
<path fill-rule="evenodd" clip-rule="evenodd" d="M86.4971 508.143C57.1271 508.703 24.1471 512.083 -4.95292 516.123C-4.95292 516.123 -5.84292 518.293 -3.65292 518.293C-1.46292 518.293 20.8271 516.743 20.8271 516.743C20.8271 516.743 -18.3729 524.063 -22.5529 525.253C-26.7329 526.443 -25.9829 530.223 -14.5329 528.343C15.2271 523.463 50.8871 519.923 80.9271 517.223L86.4971 508.133V508.143Z" fill="white"/>
<path d="M86.5267 506.944C55.6467 507.584 24.8567 510.734 -5.7233 514.944C-6.5333 515.054 -7.6633 515.164 -7.9633 516.054C-9.6333 521.074 1.8567 519.234 4.1267 519.094C9.9567 518.724 15.7767 518.334 21.6067 517.924C20.8467 517.174 20.0867 516.414 19.3267 515.664C11.9267 517.044 4.5267 518.444 -2.8633 519.874C-7.8933 520.844 -12.9233 521.814 -17.9333 522.834C-20.4733 523.354 -23.8233 523.594 -26.1033 524.954C-29.2233 526.814 -27.2933 528.794 -24.5433 529.564C-18.2333 531.314 -10.8633 529.044 -4.6133 528.104C14.7867 525.184 34.3067 523.004 53.8267 521.044C59.1367 520.514 64.4567 520.004 69.7667 519.504C72.0567 519.294 74.3567 519.074 76.6467 518.864C78.4067 518.704 81.4767 519.054 83.0467 518.124C85.8567 516.454 87.7167 511.284 89.4067 508.524C90.2967 507.074 84.5267 506.244 83.5967 507.754C81.7367 510.784 79.8867 513.814 78.0267 516.844C78.7367 516.574 79.4467 516.314 80.1567 516.044C62.3767 517.644 44.5967 519.354 26.8667 521.404C17.9067 522.444 8.9567 523.564 0.0167046 524.834C-4.2233 525.434 -8.46329 526.074 -12.6933 526.734C-13.6433 526.884 -23.0733 528.624 -21.3633 526.554C-20.1533 525.094 -14.6333 524.924 -12.9333 524.584C-8.0633 523.604 -3.19329 522.664 1.6867 521.724C8.5667 520.404 15.4467 519.104 22.3267 517.814C25.9667 517.134 21.6567 515.444 20.0467 515.554C16.0667 515.834 12.0867 516.104 8.11671 516.364C5.37671 516.544 2.6467 516.724 -0.0932961 516.884C-1.0233 516.944 -1.9533 517.014 -2.8833 517.044C-4.7433 517.104 -2.3133 517.334 -1.9233 516.174C-2.6733 516.544 -3.4133 516.914 -4.1633 517.284C25.8767 513.144 56.1467 509.964 86.4767 509.334C89.9967 509.264 90.1467 506.844 86.5267 506.924V506.944Z" fill="white"/>
<path d="M30.2977 446.361C40.6077 442.451 50.9877 438.731 61.4277 435.201C62.5477 434.821 62.4877 433.991 61.4977 433.491C60.2877 432.891 58.4977 432.891 57.2377 433.311C46.7877 436.841 36.4177 440.561 26.1077 444.471C25.0177 444.881 25.0177 445.671 26.0377 446.181C27.2177 446.761 29.0777 446.821 30.2977 446.361Z" fill="white"/>
<path d="M30.2977 456.97C40.6077 453.06 50.9877 449.34 61.4277 445.81C62.5477 445.43 62.4877 444.6 61.4977 444.1C60.2877 443.5 58.4977 443.5 57.2377 443.92C46.7877 447.45 36.4177 451.171 26.1077 455.081C25.0177 455.491 25.0177 456.28 26.0377 456.79C27.2177 457.37 29.0777 457.43 30.2977 456.97Z" fill="white"/>
<path d="M30.2977 468.525C40.6077 464.615 50.9877 460.895 61.4277 457.365C62.5477 456.985 62.4877 456.155 61.4977 455.655C60.2877 455.055 58.4977 455.055 57.2377 455.475C46.7877 459.005 36.4177 462.725 26.1077 466.635C25.0177 467.045 25.0177 467.835 26.0377 468.345C27.2177 468.925 29.0777 468.985 30.2977 468.525Z" fill="white"/>
<path fill-rule="evenodd" clip-rule="evenodd" d="M62.6772 548.174C40.6072 548.574 23.4172 548.894 1.34719 549.294C3.36719 550.494 5.78719 550.574 8.10719 550.634C17.1472 550.864 26.1772 551.254 35.2072 551.774C39.6372 552.034 44.1172 552.334 48.3572 553.714C43.7572 554.804 39.0072 554.734 34.2972 554.804C25.7072 554.924 17.1172 555.524 8.57719 556.584C6.66719 556.824 4.69719 557.104 3.04719 558.144C13.1772 558.354 23.3172 558.564 33.4472 558.774C29.5472 560.334 25.3172 560.634 21.1672 560.974C11.8772 561.744 2.61719 562.864 -6.60281 564.314C-7.26281 564.414 -8.12281 564.774 -8.04281 565.474C-7.48281 566.114 -6.55281 566.134 -5.73281 566.114C1.73719 565.924 9.20719 565.724 16.6872 565.534C11.6172 567.064 6.55719 568.594 1.48719 570.134C-1.46281 571.024 -4.42281 571.924 -7.35281 572.894C-8.47281 573.264 -9.80281 573.914 -9.88281 575.164C-5.89281 576.154 -1.74281 574.984 2.24719 574.004C20.5372 569.534 39.4872 568.994 57.9672 565.444C62.6072 564.554 60.2872 565.144 64.1772 562.334C65.9972 561.024 66.8972 552.334 66.8972 549.994C66.8972 546.814 62.6772 548.164 62.6772 548.164V548.174Z" fill="white"/>
<path d="M63.3161 546.913L1.98613 548.033C1.31613 548.043 -3.19387 549.253 -1.14387 550.253C1.50613 551.553 4.20613 551.793 7.11613 551.883C11.7661 552.033 16.4161 552.163 21.0561 552.363C29.3861 552.723 38.3161 552.443 46.3661 554.843C46.7161 554.113 47.0661 553.393 47.4061 552.663C38.9961 554.453 29.8661 553.503 21.2961 554.123C14.6461 554.603 6.83613 554.423 0.816128 557.583C-1.24387 558.663 1.42613 559.383 2.41613 559.403C12.5461 559.613 22.6861 559.823 32.8161 560.033C32.4761 559.333 32.1361 558.643 31.7961 557.943C27.6261 559.453 23.1761 559.573 18.8061 559.963C14.6561 560.333 10.5061 560.773 6.36613 561.273C2.46613 561.753 -1.42387 562.273 -5.30387 562.883C-7.18387 563.183 -10.2639 563.393 -10.9639 565.553C-11.1139 566.003 -10.8939 566.183 -10.5339 566.433C-7.68387 568.373 -2.83387 567.283 0.366127 567.203C5.59613 567.063 10.8261 566.933 16.0561 566.793L15.7361 564.483C9.82613 566.273 3.91613 568.043 -1.99387 569.843C-5.18387 570.823 -11.5939 571.523 -12.8039 575.233C-13.0039 575.853 -12.4139 576.193 -11.8739 576.293C-6.67387 577.273 -1.86387 576.253 3.21613 575.043C9.52613 573.533 15.9061 572.463 22.3261 571.583C34.6461 569.893 47.0261 568.773 59.2361 566.433C62.0961 565.883 63.7061 565.093 65.9261 563.273C68.4361 561.213 68.8661 558.393 69.3561 555.263C69.6961 553.053 70.8761 548.863 68.6261 547.333C66.8261 546.103 63.6761 546.553 61.7261 547.133C57.8061 548.303 61.1061 549.973 63.6361 549.223C64.1361 549.073 63.7761 552.763 63.6961 553.543C63.4461 555.923 63.3061 559.093 62.0861 561.223C61.5061 562.233 60.6161 562.823 59.6861 563.533C59.6261 563.583 58.7661 564.253 59.3061 563.983C59.7461 563.763 58.0761 564.203 57.7961 564.263C53.5361 565.093 49.2461 565.743 44.9461 566.323C36.5861 567.463 28.1861 568.303 19.8361 569.503C15.7561 570.083 11.6961 570.763 7.64613 571.573C2.79613 572.543 -2.96387 574.973 -7.89387 574.043C-7.58387 574.393 -7.27387 574.743 -6.96387 575.103C-6.31387 573.113 -2.38387 572.663 -0.733871 572.163C1.23613 571.553 3.21613 570.963 5.19613 570.363C9.33613 569.113 13.4861 567.853 17.6261 566.603C20.1061 565.853 20.0361 564.223 17.3061 564.293C13.3261 564.393 9.33613 564.503 5.35613 564.603C3.36613 564.653 1.37613 564.703 -0.623873 564.753C-2.01387 564.793 -4.40387 565.323 -5.55387 564.533C-5.41387 564.823 -5.26387 565.123 -5.12387 565.413C-4.82387 564.493 4.02613 564.023 5.22613 563.873C8.63613 563.443 12.0461 563.063 15.4661 562.723C22.0961 562.063 28.7661 561.913 35.0961 559.613C37.5461 558.723 35.7961 557.563 34.0761 557.523C23.9461 557.313 13.8061 557.103 3.67613 556.893C4.20613 557.503 4.73613 558.103 5.27613 558.713C8.87613 556.823 14.5361 557.103 18.5061 556.793C22.0361 556.513 25.5661 556.313 29.1061 556.193C35.8961 555.963 42.6261 556.193 49.3061 554.773C50.4861 554.523 52.4361 553.213 50.3461 552.593C43.2361 550.473 35.6461 550.463 28.2861 550.113C24.2761 549.923 20.2561 549.753 16.2361 549.613C12.2961 549.483 7.42613 550.113 3.82613 548.353L0.696127 550.573C21.1361 550.203 41.5861 549.823 62.0261 549.453C64.6161 549.403 67.4161 546.853 63.2961 546.923L63.3161 546.913Z" fill="white"/>
<path d="M198.939 291.361C197.559 291.581 192.279 290.801 191.219 289.961C187.689 287.191 195.889 282.901 198.149 281.441C205.149 276.941 212.829 273.481 220.859 271.311C229.239 269.041 237.509 268.681 246.139 268.611C254.349 268.541 262.229 267.001 270.029 264.471C278.029 261.871 285.769 258.561 293.779 255.961C302.249 253.221 310.889 251.001 319.519 248.831C335.689 244.761 352.449 241.041 367.579 233.811C372.499 231.461 379.669 225.161 374.229 219.501C368.509 213.541 359.989 218.861 353.539 219.071C355.209 219.671 356.879 220.281 358.549 220.881C356.809 212.101 359.699 201.801 348.229 199.411C346.019 198.951 343.699 198.791 341.469 199.121C340.589 199.251 339.659 199.441 338.809 199.721C335.039 200.981 339.759 200.431 339.659 200.571C339.859 200.311 338.039 194.921 337.869 194.111C337.519 192.441 337.259 190.731 336.749 189.101C329.599 166.211 306.279 154.691 284.789 149.331C283.509 149.011 280.259 148.411 279.259 149.631C278.289 150.821 279.129 151.541 280.589 151.901C300.819 156.941 323.549 168.361 329.179 190.521C330.549 195.921 330.079 202.901 337.039 203.391C341.499 203.711 346.819 200.401 349.049 206.201C350.749 210.611 349.599 215.861 350.509 220.461C350.869 222.271 354.209 222.311 355.519 222.271C357.109 222.221 358.629 222.061 360.179 221.701C361.469 221.391 364.639 219.751 365.969 220.031C368.269 220.501 368.129 223.801 367.649 225.471C366.949 227.881 365.189 229.361 363.079 230.631C355.599 235.121 346.179 237.531 337.869 239.971C320.829 244.961 303.339 248.361 286.469 253.971C278.219 256.711 270.239 260.211 261.909 262.701C252.639 265.481 243.729 264.971 234.219 265.551C219.059 266.471 204.089 271.241 191.299 279.461C187.869 281.661 177.659 287.291 184.509 291.441C189.239 294.311 197.509 295.171 202.869 294.331C204.309 294.101 205.259 293.491 204.419 292.201C203.589 290.941 200.149 291.161 198.949 291.341L198.939 291.361Z" fill="#846DF2"/>
<path d="M320.157 184.56C315.717 170.9 303.987 162.94 293.117 154.59C287.617 150.36 282.517 146.86 275.567 145.62C268.757 144.41 261.707 144.24 254.827 144.92C231.107 147.25 195.547 161.24 194.797 189.65C194.747 191.74 202.757 191.43 202.817 188.98C203.477 163.95 233.717 150.26 255.097 148.13C261.217 147.52 268.067 147.47 274.027 149.22C279.657 150.87 284.177 155.2 288.767 158.64C298.327 165.8 308.297 173.41 312.127 185.22C312.917 187.66 320.727 186.35 320.147 184.55L320.157 184.56Z" fill="#846DF2"/>
<path d="M189.806 254.54C184.786 243.75 183.326 231.76 185.976 220.12C187.246 214.54 189.416 209.17 192.376 204.28C195.696 198.78 200.446 194.92 204.286 189.91C207.726 185.42 208.846 180.19 213.346 176.36C218.426 172.04 225.166 169.83 231.816 170.29C246.516 171.32 257.146 183.88 264.806 195.22C265.996 196.98 273.576 198.42 271.906 195.95C259.926 178.24 237.956 159.59 214.936 168.08C210.226 169.82 205.966 172.63 202.856 176.6C201.306 178.58 200.266 180.72 199.196 182.98C197.776 185.97 195.826 188.24 193.526 190.58C186.126 198.08 180.726 207.16 178.366 217.48C175.646 229.36 177.056 241.78 182.196 252.81C182.916 254.36 184.936 255.15 186.506 255.49C186.996 255.59 190.486 256 189.806 254.54Z" fill="#846DF2"/>
<path d="M227.666 157.511C235.696 155.351 244.346 156.761 252.086 159.321C259.786 161.861 266.926 165.941 272.766 171.581C274.296 173.061 282.006 172.521 279.806 170.381C272.616 163.431 263.406 158.811 253.856 156.031C243.646 153.061 232.486 152.111 222.116 154.891C220.536 155.321 220.756 156.481 221.976 157.161C223.586 158.051 225.936 157.971 227.656 157.511H227.666Z" fill="#846DF2"/>
<path d="M257.117 212.988C257.247 217.378 258.417 223.458 255.097 226.938C251.827 230.368 246.587 230.628 242.367 232.158C238.367 233.608 234.747 236.198 233.857 240.598C232.977 244.948 234.287 250.398 235.917 254.438C236.787 256.588 244.587 256.798 243.727 254.638C242.087 250.588 240.707 245.018 242.077 240.718C243.527 236.148 248.427 234.838 252.547 233.748C256.477 232.708 260.907 231.388 263.437 227.948C266.227 224.148 265.237 218.488 265.107 214.078C265.037 211.588 257.077 210.968 257.137 212.988H257.117Z" fill="#846DF2"/>
<path d="M226.017 253.859C223.027 248.539 220.247 241.369 213.577 239.939C206.737 238.459 200.017 242.109 194.527 245.689C191.317 247.779 188.137 249.919 185.037 252.169C182.667 253.899 178.587 256.019 177.757 259.099C176.947 262.099 179.417 265.489 181.107 267.739C182.327 269.359 181.807 269.879 180.377 270.939C179.007 271.969 177.947 273.169 177.117 274.679C173.537 281.249 177.827 288.259 183.927 291.399C185.557 292.239 187.697 292.869 189.537 292.379C190.877 292.029 191.447 290.919 189.927 290.139C183.817 286.989 181.277 279.089 186.757 274.009C187.707 273.129 189.297 272.519 189.757 271.199C190.257 269.759 189.287 268.709 188.477 267.639C186.297 264.799 184.117 261.089 187.357 258.279C190.357 255.679 193.747 253.419 197.027 251.179C200.077 249.089 203.177 246.879 206.487 245.199C208.007 244.429 209.547 243.769 211.227 243.469C211.707 243.389 212.197 243.319 212.677 243.279C214.237 243.199 213.697 242.969 211.057 242.579C211.257 242.979 212.037 243.439 212.347 243.769C214.877 246.439 216.427 250.179 218.207 253.359C219.017 254.809 221.387 255.239 222.887 255.319C223.487 255.349 226.787 255.259 225.997 253.849L226.017 253.859Z" fill="#846DF2"/>
</g>
</g>
</svg>
