<svg width="200" height="200" viewBox="0 0 200 200" fill="none" xmlns="http://www.w3.org/2000/svg">
<path d="M74.6776 155.561C70.4319 155.481 94.0276 173.028 106.31 182.003C127.377 197.396 121.799 192.102 127.235 164.901C135.223 124.928 145.725 126.196 117.69 147.864C108.579 140.576 101.922 88.811 101.135 76.2723C95.0197 -21.1952 87.4278 40.9545 72.2835 44.1741C57.2181 47.377 35.4432 24.2077 38.239 36.6358C41.1807 49.7123 107.424 151.345 96.013 159.632C92.6464 162.077 78.4114 155.632 74.6776 155.561Z" fill="#846DF2"/>
<path d="M168.261 155.094C170.066 155.06 160.038 162.517 154.819 166.331C145.866 172.872 148.236 170.623 145.926 159.063C142.531 142.076 138.068 142.614 149.982 151.823C153.854 148.726 156.683 126.727 157.018 121.398C159.617 79.977 162.843 106.389 169.279 107.757C175.681 109.118 184.935 99.272 183.747 104.554C182.497 110.111 154.345 153.302 159.194 156.824C160.625 157.863 166.675 155.124 168.261 155.094Z" fill="#BDAFFF"/>
<path d="M43.1471 171.119C41.6799 171.807 52.4676 173.844 58.0585 174.85C67.6478 176.575 64.9211 175.701 62.5948 165.465C59.1762 150.421 62.9697 149.086 56.7003 161.235C52.4559 160.273 42.2028 143.656 40.0022 139.492C22.896 107.124 29.8659 129.7 25.1724 133.355C20.5034 136.991 9.47373 132.72 12.3458 136.508C15.3676 140.493 53.7188 164.157 51.0848 168.919C50.3077 170.324 44.4374 170.515 43.1471 171.119Z" fill="#BDAFFF"/>
<path d="M47.4844 47.4453C47.4999 47.4453 47.5154 47.4453 49.944 51.0987C52.3726 54.7521 57.2138 62.0589 61.0077 68.4829C64.8016 74.9069 67.4015 80.2266 68.8311 83.2825C70.2608 86.3384 70.4414 86.9692 68.4372 80.8677C66.433 74.7663 62.2384 61.9134 63.4876 62.1682C64.7368 62.4231 71.557 76.1751 74.9939 82.4226C78.4309 88.6701 78.2781 86.9962 76.8187 80.9558C75.3593 74.9154 72.598 64.5592 71.2186 59.8802C69.8391 55.2011 69.9251 56.5131 72.6362 67.7496C75.3472 78.9861 80.6806 100.108 83.5262 111.222C86.3717 122.336 86.5679 122.804 86.733 122.714C86.8982 122.624 87.0265 121.962 86.7877 117.415C86.5488 112.867 85.9391 104.453 85.742 101.207C85.5449 97.9607 85.779 100.136 87.2022 105.99C88.6254 111.843 91.2306 121.309 92.6887 125.021C94.1468 128.734 94.3787 126.406 94.4373 122.76C94.4958 119.113 94.374 114.218 94.8109 117.065C95.2478 119.912 96.2471 130.649 96.8488 136.467C97.4504 142.285 97.6241 142.857 98.197 141.505C100.103 137.007 101.274 132.306 102.145 130.851C104.282 127.285 102.068 143.995 103.229 144.704C105.176 145.892 108.341 137.173 108.814 137.157C114.997 136.947 103.677 149.719 103.77 150.099C104.533 153.22 108.918 142.429 110.852 138.871C111.509 137.993 111.51 138.995 111.294 141.782C111.079 144.568 110.646 149.109 110.153 153.842" stroke="#FF92C8" stroke-width="3.60912" stroke-linecap="round"/>
</svg>
